<svg width="380" height="680" viewBox="0 0 380 680" xmlns="http://www.w3.org/2000/svg"><defs><clipPath id="satori_bc-id"><path x="0" y="0" width="380" height="680" d="M44,0 h292 a44,44 0 0 1 44,44 v592 a44,44 0 0 1 -44,44 h-292 a44,44 0 0 1 -44,-44 v-592 a44,44 0 0 1 44,-44"/></clipPath></defs><mask id="satori_ms-id-1" maskUnits="userSpaceOnUse"><rect x="0" y="0" width="380" height="680" fill="#fff"/><path x="0" y="0" width="380" height="680" fill="#000"  stroke-width="2" d="M44,0 h292 a44,44 0 0 1 44,44 v592 a44,44 0 0 1 -44,44 h-292 a44,44 0 0 1 -44,-44 v-592 a44,44 0 0 1 44,-44"/></mask><defs><filter id="satori_s-id-1" x="-0.2631578947368421%" y="-0.14705882352941177%" width="100.52631578947368%" height="100.29411764705883%"><feGaussianBlur stdDeviation="0" result="b"/><feFlood flood-color="#1a1a1a" in="SourceGraphic" result="f"/><feComposite in="f" in2="b" operator="in"/></filter></defs><g mask="url(#satori_ms-id-1)" filter="url(#satori_s-id-1)" opacity="1"><path x="0" y="0" width="380" height="680" fill="#fff" stroke="#fff" stroke-width="2" d="M44,0 h292 a44,44 0 0 1 44,44 v592 a44,44 0 0 1 -44,44 h-292 a44,44 0 0 1 -44,-44 v-592 a44,44 0 0 1 44,-44"/></g><mask id="satori_ms-id-0" maskUnits="userSpaceOnUse"><rect x="0" y="0" width="380" height="680" fill="#fff"/><path x="0" y="0" width="380" height="680" fill="#000"  stroke-width="0" d="M44,0 h292 a44,44 0 0 1 44,44 v592 a44,44 0 0 1 -44,44 h-292 a44,44 0 0 1 -44,-44 v-592 a44,44 0 0 1 44,-44"/></mask><defs><filter id="satori_s-id-0" x="-421.05263157894734%" y="-235.29411764705884%" width="942.1052631578947%" height="570.5882352941177%"><feGaussianBlur stdDeviation="40" result="b"/><feFlood flood-color="rgba(0,0,0,0.8)" in="SourceGraphic" result="f"/><feComposite in="f" in2="b" operator="in"/></filter></defs><g mask="url(#satori_ms-id-0)" filter="url(#satori_s-id-0)" opacity="1"><path x="0" y="30" width="380" height="680" fill="#fff" stroke="#fff" stroke-width="0" d="M44,30 h292 a44,44 0 0 1 44,44 v592 a44,44 0 0 1 -44,44 h-292 a44,44 0 0 1 -44,-44 v-592 a44,44 0 0 1 44,-44"/></g><clipPath id="satori_cp-id"><path x="0" y="0" width="380" height="680" d="M44,0 h292 a44,44 0 0 1 44,44 v592 a44,44 0 0 1 -44,44 h-292 a44,44 0 0 1 -44,-44 v-592 a44,44 0 0 1 44,-44"/></clipPath><mask id="satori_om-id"><rect x="4" y="4" width="372" height="672" fill="#fff"/><path width="380" height="680" fill="none" stroke="#000" stroke-width="8" d="M12.887,12.887 A44,44 0 0 1 44,0 h292 a44,44 0 0 1 44,44 v592 a44,44 0 0 1 -44,44 h-292 a44,44 0 0 1 -44,-44 v-592 A44,44 0 0 1 12.887,12.887"/></mask><path x="0" y="0" width="380" height="680" fill="#111111" d="M44,0 h292 a44,44 0 0 1 44,44 v592 a44,44 0 0 1 -44,44 h-292 a44,44 0 0 1 -44,-44 v-592 a44,44 0 0 1 44,-44"/><path width="380" height="680" clip-path="url(#satori_bc-id)" fill="none" stroke="#252525" stroke-width="8" d="M12.887,12.887 A44,44 0 0 1 44,0 h292 a44,44 0 0 1 44,44 v592 a44,44 0 0 1 -44,44 h-292 a44,44 0 0 1 -44,-44 v-592 A44,44 0 0 1 12.887,12.887"/><mask id="satori_om-id-0"><rect x="4" y="4" width="372" height="48" fill="#fff" mask="url(#satori_om-id)"/></mask><rect x="4" y="4" width="372" height="48" fill="#111111" clip-path="url(#satori_cp-id)" mask="url(#satori_om-id)"/><defs><clipPath id="satori_bc-id-0-0" clip-path="url(#satori_cp-id)"><path x="150" y="18" width="80" height="22" d="M161,18 h58 a11,11 0 0 1 11,11 v0 a11,11 0 0 1 -11,11 h-58 a11,11 0 0 1 -11,-11 v0 a11,11 0 0 1 11,-11"/></clipPath></defs><mask id="satori_om-id-0-0"><rect x="151" y="19" width="78" height="20" fill="#fff" mask="url(#satori_om-id)"/><path width="80" height="22" fill="none" stroke="#000" stroke-width="2" d="M153.222,21.222 A11,11 0 0 1 161,18 h58 a11,11 0 0 1 11,11 v0 a11,11 0 0 1 -11,11 h-58 a11,11 0 0 1 -11,-11 v0 A11,11 0 0 1 153.222,21.222"/></mask><path x="150" y="18" width="80" height="22" fill="#0a0a0a" d="M161,18 h58 a11,11 0 0 1 11,11 v0 a11,11 0 0 1 -11,11 h-58 a11,11 0 0 1 -11,-11 v0 a11,11 0 0 1 11,-11" clip-path="url(#satori_cp-id)" mask="url(#satori_om-id)"/><path width="80" height="22" clip-path="url(#satori_bc-id-0-0)" fill="none" stroke="#1e1e1e" stroke-width="2" d="M153.222,21.222 A11,11 0 0 1 161,18 h58 a11,11 0 0 1 11,11 v0 a11,11 0 0 1 -11,11 h-58 a11,11 0 0 1 -11,-11 v0 A11,11 0 0 1 153.222,21.222"/><mask id="satori_om-id-1"><rect x="4" y="52" width="372" height="596" fill="#fff" mask="url(#satori_om-id)"/></mask><rect x="4" y="52" width="372" height="596" fill="#0a0f1a" clip-path="url(#satori_cp-id)" mask="url(#satori_om-id)"/><mask id="satori_om-id-1-0"><rect x="20" y="66" width="340" height="44" fill="#fff" mask="url(#satori_om-id)"/></mask><defs><pattern id="satori_pattern_id-1-0-0_0" x="0" y="0" width="1" height="1" patternUnits="objectBoundingBox"><linearGradient id="satori_biid-1-0-0_0" x1="-4.844609562000683e-16" y1="4.844609562000694e-16" x2="1.0000000000000004" y2="0.9999999999999996" spreadMethod="pad"><stop offset="0%" stop-color="#667eea"/><stop offset="100%" stop-color="#764ba2"/></linearGradient><rect x="0" y="0" width="44" height="44" fill="url(#satori_biid-1-0-0_0)"/></pattern><clipPath id="satori_bc-id-1-0-0" clip-path="url(#satori_cp-id)"><path x="20" y="66" width="44" height="44" d="M42,66 h0 a22,22 0 0 1 22,22 v0 a22,22 0 0 1 -22,22 h0 a22,22 0 0 1 -22,-22 v0 a22,22 0 0 1 22,-22"/></clipPath></defs><mask id="satori_ms-id-1-0-0-0" maskUnits="userSpaceOnUse"><rect x="0" y="0" width="380" height="680" fill="#fff"/><path x="20" y="66" width="44" height="44" fill="#000"  stroke-width="0" d="M42,66 h0 a22,22 0 0 1 22,22 v0 a22,22 0 0 1 -22,22 h0 a22,22 0 0 1 -22,-22 v0 a22,22 0 0 1 22,-22" clip-path="url(#satori_cp-id)" mask="url(#satori_om-id)"/></mask><defs><filter id="satori_s-id-1-0-0-0" x="-81.81818181818183%" y="-81.81818181818183%" width="263.6363636363636%" height="263.6363636363636%"><feGaussianBlur stdDeviation="6" result="b"/><feFlood flood-color="rgba(102,126,234,0.4)" in="SourceGraphic" result="f"/><feComposite in="f" in2="b" operator="in"/></filter></defs><g mask="url(#satori_ms-id-1-0-0-0)" filter="url(#satori_s-id-1-0-0-0)" opacity="1"><path x="20" y="66" width="44" height="44" fill="#fff" stroke="#fff" stroke-width="0" d="M42,66 h0 a22,22 0 0 1 22,22 v0 a22,22 0 0 1 -22,22 h0 a22,22 0 0 1 -22,-22 v0 a22,22 0 0 1 22,-22" clip-path="url(#satori_cp-id)" mask="url(#satori_om-id)"/></g><mask id="satori_om-id-1-0-0"><rect x="22" y="68" width="40" height="40" fill="#fff" mask="url(#satori_om-id)"/><path width="44" height="44" fill="none" stroke="#000" stroke-width="4" d="M26.444000000000003,72.444 A22,22 0 0 1 42,66 h0 a22,22 0 0 1 22,22 v0 a22,22 0 0 1 -22,22 h0 a22,22 0 0 1 -22,-22 v0 A22,22 0 0 1 26.444000000000003,72.444"/></mask><path x="20" y="66" width="44" height="44" fill="url(#satori_pattern_id-1-0-0_0)" d="M42,66 h0 a22,22 0 0 1 22,22 v0 a22,22 0 0 1 -22,22 h0 a22,22 0 0 1 -22,-22 v0 a22,22 0 0 1 22,-22" clip-path="url(#satori_cp-id)" mask="url(#satori_om-id)"/><path width="44" height="44" clip-path="url(#satori_bc-id-1-0-0)" fill="none" stroke="#667eea" stroke-width="4" d="M26.444000000000003,72.444 A22,22 0 0 1 42,66 h0 a22,22 0 0 1 22,22 v0 a22,22 0 0 1 -22,22 h0 a22,22 0 0 1 -22,-22 v0 A22,22 0 0 1 26.444000000000003,72.444"/><mask id="satori_om-id-1-0-0-0"><rect x="35" y="77" width="14" height="22" fill="#fff" mask="url(#satori_om-id)"/></mask><g mask="url(#satori_om-id)" clip-path="url(#satori_cp-id)"><path fill="white" d="M41.9 94.2L41.9 94.2Q40.2 94.2 38.8 93.4Q37.4 92.6 36.6 91.1Q35.8 89.6 35.8 87.5L35.8 87.5Q35.8 85.3 36.6 83.8Q37.4 82.3 38.8 81.5Q40.2 80.7 41.9 80.7L41.9 80.7Q43.7 80.7 45.1 81.5Q46.4 82.3 47.2 83.8Q48.0 85.3 48.0 87.5L48.0 87.5Q48.0 89.6 47.2 91.1Q46.4 92.6 45.1 93.4Q43.7 94.2 41.9 94.2ZM41.9 91.8L41.9 91.8Q43.0 91.8 43.7 91.3Q44.5 90.8 44.9 89.8Q45.3 88.9 45.3 87.5L45.3 87.5Q45.3 86.0 44.9 85.1Q44.5 84.1 43.7 83.6Q43.0 83.1 41.9 83.1L41.9 83.1Q40.9 83.1 40.2 83.6Q39.4 84.1 39.0 85.1Q38.6 86.1 38.6 87.5L38.6 87.5Q38.6 88.9 39.0 89.8Q39.4 90.8 40.2 91.3Q40.9 91.8 41.9 91.8Z "/></g><mask id="satori_om-id-1-0-1"><rect x="76" y="73" width="53" height="30" fill="#fff" mask="url(#satori_om-id)"/></mask><mask id="satori_om-id-1-0-1-0"><rect x="76" y="73" width="53" height="17" fill="#fff" mask="url(#satori_om-id)"/></mask><g mask="url(#satori_om-id)" clip-path="url(#satori_cp-id)"><path fill="#e2e8f0" d="M80.3 87.2L80.3 87.2Q79.1 87.2 78.3 86.7Q77.5 86.2 77.0 85.3Q76.6 84.4 76.6 83.2L76.6 83.2Q76.6 82.0 77.0 81.1Q77.5 80.3 78.3 79.8Q79.1 79.3 80.3 79.3L80.3 79.3Q81.4 79.3 82.3 79.8Q83.1 80.3 83.6 81.1Q84.0 82.0 84.0 83.2L84.0 83.2Q84.0 84.4 83.6 85.3Q83.1 86.2 82.3 86.7Q81.4 87.2 80.3 87.2ZM80.3 85.5L80.3 85.5Q80.8 85.5 81.2 85.2Q81.6 84.9 81.8 84.4Q81.9 83.9 81.9 83.2L81.9 83.2Q81.9 82.5 81.8 82.0Q81.6 81.5 81.2 81.2Q80.8 80.9 80.3 80.9L80.3 80.9Q79.7 80.9 79.4 81.2Q79.0 81.5 78.8 82.0Q78.6 82.5 78.6 83.2L78.6 83.2Q78.6 83.9 78.8 84.4Q79.0 84.9 79.4 85.2Q79.7 85.5 80.3 85.5ZM88.9 87.2L88.9 87.2Q87.7 87.2 86.9 86.7Q86.0 86.2 85.6 85.3Q85.1 84.4 85.1 83.2L85.1 83.2Q85.1 82.0 85.6 81.1Q86.0 80.3 86.9 79.8Q87.7 79.3 88.9 79.3L88.9 79.3Q89.6 79.3 90.1 79.4Q90.7 79.6 91.1 79.9Q91.6 80.3 91.9 80.7Q92.2 81.2 92.3 81.8L92.3 81.8L90.4 82.2Q90.3 81.9 90.2 81.6Q90.0 81.4 89.9 81.2Q89.7 81.1 89.4 81.0Q89.2 80.9 88.9 80.9L88.9 80.9Q88.4 80.9 88.0 81.2Q87.6 81.5 87.4 82.0Q87.2 82.5 87.2 83.2L87.2 83.2Q87.2 83.9 87.4 84.4Q87.6 84.9 88.0 85.2Q88.4 85.5 88.9 85.5L88.9 85.5Q89.2 85.5 89.4 85.4Q89.7 85.4 89.9 85.2Q90.1 85.0 90.2 84.8Q90.3 84.5 90.4 84.2L90.4 84.2L92.3 84.6Q92.2 85.2 91.9 85.6Q91.6 86.1 91.2 86.5Q90.7 86.8 90.1 87.0Q89.6 87.2 88.9 87.2ZM96.1 79.4L97.5 79.4L97.5 80.9L96.1 80.9L96.1 84.8Q96.1 85.1 96.2 85.3Q96.4 85.5 96.8 85.5L96.8 85.5Q96.9 85.5 97.1 85.4Q97.3 85.4 97.4 85.4L97.4 85.4L97.7 86.9Q97.4 87.0 97.0 87.1Q96.7 87.1 96.4 87.1L96.4 87.1Q95.2 87.1 94.6 86.5Q94.0 86.0 94.0 84.9L94.0 84.9L94.0 80.9L93.0 80.9L93.0 79.4L94.0 79.4L94.0 77.5L96.1 77.5L96.1 79.4ZM102.2 87.2L102.2 87.2Q101.1 87.2 100.3 86.7Q99.4 86.2 99.0 85.3Q98.5 84.4 98.5 83.2L98.5 83.2Q98.5 82.0 99.0 81.1Q99.4 80.3 100.3 79.8Q101.1 79.3 102.2 79.3L102.2 79.3Q103.4 79.3 104.2 79.8Q105.1 80.3 105.5 81.1Q106.0 82.0 106.0 83.2L106.0 83.2Q106.0 84.4 105.5 85.3Q105.1 86.2 104.2 86.7Q103.4 87.2 102.2 87.2ZM102.2 85.5L102.2 85.5Q102.8 85.5 103.2 85.2Q103.5 84.9 103.7 84.4Q103.9 83.9 103.9 83.2L103.9 83.2Q103.9 82.5 103.7 82.0Q103.5 81.5 103.2 81.2Q102.8 80.9 102.2 80.9L102.2 80.9Q101.7 80.9 101.3 81.2Q101.0 81.5 100.8 82.0Q100.6 82.5 100.6 83.2L100.6 83.2Q100.6 83.9 100.8 84.4Q101.0 84.9 101.3 85.2Q101.7 85.5 102.2 85.5ZM110.8 87.2L110.8 87.2Q109.7 87.2 108.8 86.7Q108.0 86.2 107.5 85.3Q107.1 84.4 107.1 83.2L107.1 83.2Q107.1 82.0 107.5 81.1Q108.0 80.3 108.8 79.8Q109.7 79.3 110.8 79.3L110.8 79.3Q111.5 79.3 112.1 79.4Q112.7 79.6 113.1 79.9Q113.5 80.3 113.8 80.7Q114.1 81.2 114.2 81.8L114.2 81.8L112.3 82.2Q112.3 81.9 112.1 81.6Q112.0 81.4 111.8 81.2Q111.6 81.1 111.4 81.0Q111.1 80.9 110.8 80.9L110.8 80.9Q110.3 80.9 109.9 81.2Q109.6 81.5 109.4 82.0Q109.2 82.5 109.2 83.2L109.2 83.2Q109.2 83.9 109.4 84.4Q109.6 84.9 109.9 85.2Q110.3 85.5 110.8 85.5L110.8 85.5Q111.1 85.5 111.4 85.4Q111.6 85.4 111.8 85.2Q112.0 85.0 112.1 84.8Q112.3 84.5 112.3 84.2L112.3 84.2L114.2 84.6Q114.1 85.2 113.8 85.6Q113.6 86.1 113.1 86.5Q112.7 86.8 112.1 87.0Q111.5 87.2 110.8 87.2ZM117.8 87.2L117.8 87.2Q117.1 87.2 116.5 86.9Q115.9 86.6 115.6 86.1Q115.2 85.6 115.2 84.9L115.2 84.9Q115.2 84.2 115.5 83.8Q115.7 83.4 116.1 83.1Q116.5 82.8 117.0 82.7Q117.6 82.6 118.1 82.5L118.1 82.5Q118.8 82.4 119.2 82.4Q119.6 82.3 119.8 82.2Q120.0 82.1 120.0 81.8L120.0 81.8L120.0 81.8Q120.0 81.5 119.8 81.2Q119.7 81.0 119.4 80.9Q119.2 80.8 118.8 80.8L118.8 80.8Q118.4 80.8 118.1 80.9Q117.8 81.0 117.6 81.2Q117.4 81.4 117.3 81.7L117.3 81.7L115.5 81.4Q115.7 80.7 116.1 80.2Q116.6 79.8 117.3 79.5Q117.9 79.3 118.8 79.3L118.8 79.3Q119.4 79.3 120.0 79.4Q120.6 79.6 121.0 79.9Q121.5 80.2 121.8 80.7Q122.0 81.2 122.0 81.9L122.0 81.9L122.0 87L120.1 87L120.1 85.9L120.0 85.9Q119.8 86.3 119.5 86.6Q119.2 86.8 118.8 87.0Q118.3 87.2 117.8 87.2ZM118.4 85.7L118.4 85.7Q118.8 85.7 119.2 85.5Q119.6 85.3 119.8 85.0Q120.0 84.7 120.0 84.3L120.0 84.3L120.0 83.4Q119.9 83.5 119.7 83.6Q119.5 83.6 119.3 83.7Q119.1 83.7 118.9 83.7Q118.6 83.8 118.5 83.8L118.5 83.8Q118.1 83.8 117.8 84.0Q117.5 84.1 117.4 84.3Q117.2 84.5 117.2 84.8L117.2 84.8Q117.2 85.1 117.4 85.3Q117.5 85.5 117.8 85.6Q118.0 85.7 118.4 85.7ZM126.1 79.4L127.6 79.4L127.6 80.9L126.1 80.9L126.1 84.8Q126.1 85.1 126.3 85.3Q126.5 85.5 126.8 85.5L126.8 85.5Q127.0 85.5 127.2 85.4Q127.4 85.4 127.5 85.4L127.5 85.4L127.8 86.9Q127.4 87.0 127.1 87.1Q126.8 87.1 126.5 87.1L126.5 87.1Q125.3 87.1 124.7 86.5Q124.1 86.0 124.1 84.9L124.1 84.9L124.1 80.9L123.0 80.9L123.0 79.4L124.1 79.4L124.1 77.5L126.1 77.5L126.1 79.4Z "/></g><mask id="satori_om-id-1-0-1-1"><rect x="76" y="90" width="53" height="13" fill="#fff" mask="url(#satori_om-id)"/></mask><g mask="url(#satori_om-id)" clip-path="url(#satori_cp-id)"><path fill="#4a5568" d="M81.6 103.1L81.6 103.1Q80.4 103.1 79.5 102.8Q78.6 102.5 77.9 101.8Q77.3 101.2 77.0 100.3Q76.7 99.4 76.7 98.2L76.7 98.2Q76.7 97.0 77.0 96.1Q77.3 95.2 77.9 94.6Q78.6 93.9 79.5 93.6Q80.4 93.3 81.5 93.3L81.5 93.3Q82.6 93.3 83.4 93.6Q84.3 94.0 84.8 94.6Q85.4 95.2 85.7 96.0Q86.0 96.7 86.0 97.6L86.0 97.6Q86.0 98.1 85.9 98.7Q85.9 99.3 85.7 99.8Q85.5 100.3 85.1 100.5Q84.7 100.8 84.1 100.8L84.1 100.8Q83.8 100.8 83.5 100.8Q83.2 100.7 82.9 100.5Q82.7 100.3 82.6 99.9L82.6 99.9L82.6 99.9Q82.5 100.3 82.1 100.5Q81.7 100.8 81.1 100.8L81.1 100.8Q80.4 100.8 79.9 100.4Q79.5 100.1 79.2 99.5Q79.0 98.9 79.0 98.1L79.0 98.1Q79.0 97.4 79.3 96.8Q79.5 96.3 80.0 95.9Q80.5 95.6 81.2 95.6L81.2 95.6Q81.7 95.6 82.0 95.8Q82.4 96.0 82.5 96.2L82.5 96.2L82.6 96.2L82.6 95.7L83.4 95.7L83.4 99.3Q83.4 99.6 83.6 99.8Q83.8 100.1 84.1 100.1L84.1 100.1Q84.5 100.1 84.7 99.8Q85.0 99.5 85.0 99.0Q85.1 98.4 85.1 97.6L85.1 97.6Q85.1 96.9 84.9 96.3Q84.7 95.6 84.2 95.1Q83.8 94.6 83.1 94.3Q82.4 94.0 81.5 94.0L81.5 94.0Q80.5 94.0 79.8 94.3Q79.1 94.6 78.6 95.2Q78.1 95.7 77.8 96.5Q77.6 97.2 77.6 98.2L77.6 98.2Q77.6 99.2 77.8 100.0Q78.1 100.7 78.6 101.3Q79.1 101.8 79.9 102.1Q80.6 102.3 81.6 102.3L81.6 102.3Q82.1 102.3 82.5 102.3Q82.9 102.2 83.2 102.1Q83.5 102.0 83.7 101.9L83.7 101.9L83.9 102.7Q83.7 102.8 83.3 102.9Q82.9 103.0 82.5 103.1Q82.0 103.1 81.6 103.1ZM81.2 100.0L81.2 100.0Q81.7 100.0 82.0 99.8Q82.3 99.6 82.5 99.1Q82.6 98.7 82.6 98.1L82.6 98.1Q82.6 97.4 82.5 97.1Q82.3 96.7 82.0 96.6Q81.7 96.4 81.2 96.4L81.2 96.4Q80.8 96.4 80.4 96.6Q80.1 96.9 80.0 97.3Q79.8 97.6 79.8 98.1L79.8 98.1Q79.8 98.6 79.9 99.0Q80.1 99.4 80.4 99.7Q80.7 100.0 81.2 100.0ZM89.9 101.1L89.9 101.1Q89.1 101.1 88.5 100.7Q87.9 100.4 87.5 99.7Q87.2 99.0 87.2 98.0L87.2 98.0Q87.2 97.1 87.5 96.4Q87.9 95.7 88.5 95.3Q89.1 94.9 89.9 94.9L89.9 94.9Q90.7 94.9 91.4 95.3Q92.0 95.7 92.3 96.4Q92.7 97.1 92.7 98.0L92.7 98.0Q92.7 99.0 92.3 99.7Q92.0 100.4 91.4 100.7Q90.7 101.1 89.9 101.1ZM89.9 100.3L89.9 100.3Q90.5 100.3 90.9 100.0Q91.3 99.6 91.5 99.1Q91.7 98.6 91.7 98.0L91.7 98.0Q91.7 97.4 91.5 96.9Q91.3 96.4 90.9 96.1Q90.5 95.8 89.9 95.8L89.9 95.8Q89.3 95.8 88.9 96.1Q88.5 96.4 88.4 96.9Q88.2 97.4 88.2 98.0L88.2 98.0Q88.2 98.6 88.4 99.1Q88.5 99.6 88.9 100.0Q89.3 100.3 89.9 100.3ZM96.5 101.1L96.5 101.1Q95.7 101.1 95.1 100.7Q94.5 100.4 94.1 99.7Q93.8 99.0 93.8 98.0L93.8 98.0Q93.8 97.1 94.1 96.4Q94.5 95.7 95.1 95.3Q95.7 94.9 96.5 94.9L96.5 94.9Q96.9 94.9 97.3 95.0Q97.7 95.1 98.0 95.4Q98.4 95.6 98.6 95.9Q98.8 96.2 98.9 96.6L98.9 96.6L98.0 96.8Q98.0 96.6 97.8 96.4Q97.7 96.2 97.5 96.1Q97.3 95.9 97.1 95.9Q96.8 95.8 96.5 95.8L96.5 95.8Q95.9 95.8 95.5 96.1Q95.1 96.4 94.9 96.9Q94.8 97.4 94.8 98.0L94.8 98.0Q94.8 98.6 94.9 99.1Q95.1 99.6 95.5 100.0Q95.9 100.3 96.5 100.3L96.5 100.3Q96.8 100.3 97.1 100.2Q97.3 100.1 97.5 100.0Q97.7 99.8 97.8 99.6Q98.0 99.4 98.0 99.2L98.0 99.2L99.0 99.4Q98.8 99.8 98.6 100.1Q98.4 100.5 98.1 100.7Q97.7 100.9 97.3 101.0Q97.0 101.1 96.5 101.1ZM101.5 95.0L102.7 95.0L102.7 95.8L101.5 95.8L101.5 99.4Q101.5 99.8 101.6 100.0Q101.8 100.2 102.2 100.2L102.2 100.2Q102.3 100.2 102.4 100.2Q102.6 100.2 102.7 100.2L102.7 100.2L102.9 101.0Q102.7 101.0 102.5 101.0Q102.4 101.1 102.2 101.1L102.2 101.1Q101.4 101.1 100.9 100.7Q100.5 100.3 100.5 99.5L100.5 99.5L100.5 95.8L99.6 95.8L99.6 95.0L100.5 95.0L100.5 93.6L101.5 93.6L101.5 95.0ZM106.4 101.1L106.4 101.1Q105.6 101.1 105.0 100.7Q104.3 100.4 104.0 99.7Q103.7 99.0 103.7 98.0L103.7 98.0Q103.7 97.1 104.0 96.4Q104.3 95.7 105.0 95.3Q105.6 94.9 106.4 94.9L106.4 94.9Q107.2 94.9 107.8 95.3Q108.5 95.7 108.8 96.4Q109.1 97.1 109.1 98.0L109.1 98.0Q109.1 99.0 108.8 99.7Q108.5 100.4 107.8 100.7Q107.2 101.1 106.4 101.1ZM106.4 100.3L106.4 100.3Q107.0 100.3 107.4 100.0Q107.8 99.6 108.0 99.1Q108.2 98.6 108.2 98.0L108.2 98.0Q108.2 97.4 108.0 96.9Q107.8 96.4 107.4 96.1Q107.0 95.8 106.4 95.8L106.4 95.8Q105.8 95.8 105.4 96.1Q105.0 96.4 104.8 96.9Q104.6 97.4 104.6 98.0L104.6 98.0Q104.6 98.6 104.8 99.1Q105.0 99.6 105.4 100.0Q105.8 100.3 106.4 100.3ZM113.0 101.1L113.0 101.1Q112.2 101.1 111.6 100.7Q110.9 100.4 110.6 99.7Q110.3 99.0 110.3 98.0L110.3 98.0Q110.3 97.1 110.6 96.4Q110.9 95.7 111.6 95.3Q112.2 94.9 113.0 94.9L113.0 94.9Q113.4 94.9 113.8 95.0Q114.2 95.1 114.5 95.4Q114.8 95.6 115.1 95.9Q115.3 96.2 115.4 96.6L115.4 96.6L114.5 96.8Q114.4 96.6 114.3 96.4Q114.2 96.2 114.0 96.1Q113.8 95.9 113.5 95.9Q113.3 95.8 113.0 95.8L113.0 95.8Q112.4 95.8 112.0 96.1Q111.6 96.4 111.4 96.9Q111.2 97.4 111.2 98.0L111.2 98.0Q111.2 98.6 111.4 99.1Q111.6 99.6 112.0 100.0Q112.4 100.3 113.0 100.3L113.0 100.3Q113.3 100.3 113.5 100.2Q113.8 100.1 114.0 100.0Q114.2 99.8 114.3 99.6Q114.5 99.4 114.5 99.2L114.5 99.2L115.4 99.4Q115.3 99.8 115.1 100.1Q114.9 100.5 114.5 100.7Q114.2 100.9 113.8 101.0Q113.4 101.1 113.0 101.1ZM118.5 101.1L118.5 101.1Q117.9 101.1 117.5 100.9Q117.0 100.7 116.7 100.3Q116.5 99.9 116.5 99.3L116.5 99.3Q116.5 98.8 116.7 98.5Q116.9 98.1 117.2 97.9Q117.6 97.8 118.0 97.7Q118.4 97.6 118.8 97.5L118.8 97.5Q119.3 97.5 119.7 97.4Q120.0 97.4 120.2 97.3Q120.3 97.2 120.3 97.0L120.3 97.0L120.3 96.9Q120.3 96.6 120.2 96.3Q120.1 96.0 119.8 95.9Q119.5 95.8 119.1 95.8L119.1 95.8Q118.7 95.8 118.4 95.9Q118.0 96.0 117.9 96.2Q117.7 96.4 117.6 96.6L117.6 96.6L116.6 96.3Q116.9 95.8 117.3 95.5Q117.7 95.2 118.1 95.0Q118.6 94.9 119.1 94.9L119.1 94.9Q119.4 94.9 119.7 95.0Q120.1 95.1 120.5 95.3Q120.8 95.5 121.1 95.9Q121.3 96.3 121.3 97.0L121.3 97.0L121.3 101L120.4 101L120.4 100.2L120.3 100.2Q120.2 100.4 120.0 100.6Q119.7 100.8 119.4 101.0Q119.0 101.1 118.5 101.1ZM118.7 100.3L118.7 100.3Q119.2 100.3 119.6 100.1Q120.0 99.9 120.2 99.5Q120.3 99.2 120.3 98.8L120.3 98.8L120.3 98.0Q120.3 98.1 120.1 98.1Q119.9 98.2 119.6 98.2Q119.4 98.3 119.1 98.3Q118.9 98.3 118.8 98.3L118.8 98.3Q118.4 98.4 118.1 98.5Q117.8 98.6 117.6 98.8Q117.4 99.0 117.4 99.3L117.4 99.3Q117.4 99.7 117.6 99.9Q117.8 100.1 118.0 100.2Q118.3 100.3 118.7 100.3ZM124.1 95.0L125.4 95.0L125.4 95.8L124.1 95.8L124.1 99.4Q124.1 99.8 124.3 100.0Q124.5 100.2 124.8 100.2L124.8 100.2Q124.9 100.2 125.1 100.2Q125.2 100.2 125.3 100.2L125.3 100.2L125.5 101.0Q125.4 101.0 125.2 101.0Q125.0 101.1 124.8 101.1L124.8 101.1Q124.0 101.1 123.6 100.7Q123.2 100.3 123.2 99.5L123.2 99.5L123.2 95.8L122.3 95.8L122.3 95.0L123.2 95.0L123.2 93.6L124.1 93.6L124.1 95.0Z "/></g><defs><clipPath id="satori_bc-id-1-1" clip-path="url(#satori_cp-id)"><path x="20" y="124" width="340" height="54" d="M30,124 h320 a10,10 0 0 1 10,10 v34 a10,10 0 0 1 -10,10 h-320 a10,10 0 0 1 -10,-10 v-34 a10,10 0 0 1 10,-10"/></clipPath></defs><clipPath id="satori_cp-id-1-1" clip-path="url(#satori_cp-id)"><path x="20" y="124" width="340" height="54" d="M30,124 h320 a10,10 0 0 1 10,10 v34 a10,10 0 0 1 -10,10 h-320 a10,10 0 0 1 -10,-10 v-34 a10,10 0 0 1 10,-10"/></clipPath><mask id="satori_om-id-1-1"><rect x="21" y="125" width="338" height="52" fill="#fff" mask="url(#satori_om-id)"/><path width="340" height="54" fill="none" stroke="#000" stroke-width="2" d="M22.929000000000002,126.929 A10,10 0 0 1 30,124 h320 a10,10 0 0 1 10,10 v34 a10,10 0 0 1 -10,10 h-320 a10,10 0 0 1 -10,-10 v-34 A10,10 0 0 1 22.929000000000002,126.929"/></mask><path x="20" y="124" width="340" height="54" fill="#0d1117" d="M30,124 h320 a10,10 0 0 1 10,10 v34 a10,10 0 0 1 -10,10 h-320 a10,10 0 0 1 -10,-10 v-34 a10,10 0 0 1 10,-10" clip-path="url(#satori_cp-id)" mask="url(#satori_om-id)"/><path width="340" height="54" clip-path="url(#satori_bc-id-1-1)" fill="none" stroke="#1a2332" stroke-width="2" d="M22.929000000000002,126.929 A10,10 0 0 1 30,124 h320 a10,10 0 0 1 10,10 v34 a10,10 0 0 1 -10,10 h-320 a10,10 0 0 1 -10,-10 v-34 A10,10 0 0 1 22.929000000000002,126.929"/><mask id="satori_om-id-1-1-0"><rect x="21" y="125" width="112" height="52" fill="#fff" mask="url(#satori_om-id-1-1)"/></mask><mask id="satori_om-id-1-1-0-0"><rect x="63" y="135" width="28" height="19" fill="#fff" mask="url(#satori_om-id-1-1)"/></mask><g mask="url(#satori_om-id-1-1)" clip-path="url(#satori_cp-id-1-1)"><path fill="#ffd700" d="M66.3 139.4L68.9 139.4L68.9 151L66.5 151L66.5 141.5L66.4 141.5L63.7 143.4L63.7 141.2L66.3 139.4ZM79.1 151L70.9 151L70.9 149.3L75.0 145.4Q75.5 144.9 75.9 144.5Q76.3 144.1 76.4 143.7Q76.6 143.3 76.6 142.8L76.6 142.8Q76.6 142.3 76.4 141.9Q76.2 141.5 75.8 141.3Q75.4 141.1 74.8 141.1L74.8 141.1Q74.3 141.1 73.9 141.3Q73.5 141.5 73.3 142.0Q73.0 142.4 73.0 142.9L73.0 142.9L70.8 142.9Q70.8 141.8 71.3 141.0Q71.8 140.1 72.7 139.7Q73.6 139.2 74.8 139.2L74.8 139.2Q76.1 139.2 77 139.6Q77.9 140.1 78.4 140.9Q78.9 141.6 78.9 142.6L78.9 142.6Q78.9 143.3 78.7 143.9Q78.4 144.6 77.8 145.3Q77.1 146.1 75.9 147.2L75.9 147.2L74.2 149.0L74.2 149.0L79.1 149.0L79.1 151ZM85.2 151.2L85.2 151.2Q83.9 151.2 82.9 150.7Q81.9 150.3 81.3 149.6Q80.7 148.8 80.7 147.9L80.7 147.9Q80.7 147.1 81.0 146.5Q81.4 145.9 81.9 145.5Q82.5 145.1 83.2 145.0L83.2 145.0L83.2 144.9Q82.3 144.7 81.7 144Q81.1 143.3 81.1 142.3L81.1 142.3Q81.1 141.4 81.7 140.7Q82.2 140.0 83.1 139.6Q84.0 139.2 85.2 139.2L85.2 139.2Q86.3 139.2 87.3 139.6Q88.2 140.0 88.7 140.7Q89.2 141.4 89.2 142.3L89.2 142.3Q89.2 143.3 88.6 144Q88.1 144.7 87.2 144.9L87.2 144.9L87.2 145.0Q87.9 145.1 88.4 145.5Q89.0 145.9 89.3 146.5Q89.7 147.1 89.7 147.9L89.7 147.9Q89.7 148.8 89.1 149.6Q88.5 150.3 87.5 150.7Q86.5 151.2 85.2 151.2ZM85.2 149.4L85.2 149.4Q85.8 149.4 86.2 149.2Q86.7 149.0 86.9 148.6Q87.2 148.2 87.2 147.7L87.2 147.7Q87.2 147.2 86.9 146.8Q86.7 146.4 86.2 146.2Q85.8 145.9 85.2 145.9L85.2 145.9Q84.6 145.9 84.2 146.1Q83.7 146.4 83.4 146.8Q83.2 147.2 83.2 147.7L83.2 147.7Q83.2 148.2 83.4 148.6Q83.7 149.0 84.1 149.2Q84.6 149.4 85.2 149.4ZM85.2 144.2L85.2 144.2Q85.7 144.2 86.1 144.0Q86.5 143.8 86.7 143.4Q86.9 143.0 86.9 142.6L86.9 142.6Q86.9 142.1 86.7 141.8Q86.5 141.4 86.1 141.2Q85.7 141.0 85.2 141.0L85.2 141.0Q84.7 141.0 84.3 141.2Q83.9 141.4 83.7 141.8Q83.5 142.1 83.5 142.6L83.5 142.6Q83.5 143.0 83.7 143.4Q83.9 143.8 84.3 144.0Q84.7 144.2 85.2 144.2Z "/></g><mask id="satori_om-id-1-1-0-1"><rect x="61" y="157" width="32" height="10" fill="#fff" mask="url(#satori_om-id-1-1)"/></mask><g mask="url(#satori_om-id-1-1)" clip-path="url(#satori_cp-id-1-1)"><path fill="#4a5568" d="M63.6 165.1L63.6 165.1Q62.9 165.1 62.5 164.9Q62.0 164.7 61.8 164.3Q61.5 164.0 61.5 163.5L61.5 163.5L62.2 163.5Q62.2 163.8 62.4 164.0Q62.6 164.2 62.9 164.3Q63.2 164.4 63.6 164.4L63.6 164.4Q64.0 164.4 64.3 164.3Q64.6 164.2 64.8 163.9Q65.0 163.7 65.0 163.4L65.0 163.4Q65.0 163.1 64.8 162.9Q64.6 162.8 64.4 162.7Q64.1 162.5 63.8 162.5L63.8 162.5L63.1 162.3Q62.4 162.1 62.0 161.7Q61.6 161.3 61.6 160.7L61.6 160.7Q61.6 160.2 61.9 159.9Q62.1 159.5 62.6 159.3Q63.1 159.1 63.6 159.1L63.6 159.1Q64.2 159.1 64.6 159.3Q65.1 159.5 65.3 159.9Q65.6 160.2 65.6 160.6L65.6 160.6L64.9 160.6Q64.8 160.2 64.5 160.0Q64.1 159.8 63.6 159.8L63.6 159.8Q63.2 159.8 62.9 159.9Q62.7 160.0 62.5 160.2Q62.3 160.4 62.3 160.7L62.3 160.7Q62.3 161.0 62.5 161.2Q62.7 161.4 63.0 161.5Q63.2 161.6 63.4 161.6L63.4 161.6L64.0 161.8Q64.3 161.9 64.5 162.0Q64.8 162.1 65.1 162.3Q65.3 162.4 65.5 162.7Q65.7 163.0 65.7 163.4L65.7 163.4Q65.7 163.9 65.4 164.3Q65.2 164.7 64.7 164.9Q64.2 165.1 63.6 165.1ZM69.3 159.8L67.5 159.8L67.5 159.2L71.9 159.2L71.9 159.8L70.1 159.8L70.1 165L69.3 165L69.3 159.8ZM74.3 165L73.5 165L75.6 159.2L76.5 159.2L78.6 165L77.8 165L77.3 163.4L74.9 163.4L74.3 165ZM75.1 162.7L77.0 162.7L76.6 161.5Q76.5 161.2 76.3 160.7L76.3 160.7Q76.2 160.4 76.0 159.8L76.0 159.8Q75.9 160.4 75.7 160.8L75.7 160.8Q75.6 161.3 75.5 161.5L75.5 161.5L75.1 162.7ZM81.3 165L80.5 165L80.5 159.2L82.5 159.2Q83.2 159.2 83.6 159.4Q84.1 159.6 84.3 160.1Q84.5 160.5 84.5 161.0Q84.5 161.5 84.3 161.9Q84.1 162.3 83.6 162.5L83.6 162.5Q83.5 162.6 83.4 162.6L83.4 162.6L84.7 165L83.9 165L82.7 162.7Q82.6 162.7 82.5 162.7L82.5 162.7L81.3 162.7L81.3 165ZM81.3 159.8L81.3 162.1L82.5 162.1Q82.9 162.1 83.2 161.9Q83.5 161.8 83.6 161.6Q83.8 161.3 83.8 161.0L83.8 161.0Q83.8 160.6 83.6 160.4Q83.5 160.1 83.2 160.0Q82.9 159.8 82.5 159.8L82.5 159.8L81.3 159.8ZM88.5 165.1L88.5 165.1Q87.9 165.1 87.4 164.9Q87.0 164.7 86.7 164.3Q86.5 164.0 86.4 163.5L86.4 163.5L87.2 163.5Q87.2 163.8 87.4 164.0Q87.6 164.2 87.9 164.3Q88.2 164.4 88.5 164.4L88.5 164.4Q88.9 164.4 89.2 164.3Q89.6 164.2 89.7 163.9Q89.9 163.7 89.9 163.4L89.9 163.4Q89.9 163.1 89.8 162.9Q89.6 162.8 89.3 162.7Q89.1 162.5 88.8 162.5L88.8 162.5L88.1 162.3Q87.4 162.1 87.0 161.7Q86.6 161.3 86.6 160.7L86.6 160.7Q86.6 160.2 86.8 159.9Q87.1 159.5 87.6 159.3Q88.0 159.1 88.6 159.1L88.6 159.1Q89.2 159.1 89.6 159.3Q90.0 159.5 90.3 159.9Q90.6 160.2 90.6 160.6L90.6 160.6L89.8 160.6Q89.8 160.2 89.4 160.0Q89.1 159.8 88.6 159.8L88.6 159.8Q88.2 159.8 87.9 159.9Q87.6 160.0 87.5 160.2Q87.3 160.4 87.3 160.7L87.3 160.7Q87.3 161.0 87.5 161.2Q87.7 161.4 87.9 161.5Q88.2 161.6 88.4 161.6L88.4 161.6L89.0 161.8Q89.2 161.9 89.5 162.0Q89.8 162.1 90.1 162.3Q90.3 162.4 90.5 162.7Q90.6 163.0 90.6 163.4L90.6 163.4Q90.6 163.9 90.4 164.3Q90.1 164.7 89.7 164.9Q89.2 165.1 88.5 165.1Z "/></g><mask id="satori_om-id-1-1-1"><rect x="133" y="125" width="1" height="52" fill="#fff" mask="url(#satori_om-id-1-1)"/></mask><rect x="133" y="125" width="1" height="52" fill="#1a2332" clip-path="url(#satori_cp-id-1-1)" mask="url(#satori_om-id-1-1)"/><mask id="satori_om-id-1-1-2"><rect x="134" y="125" width="112" height="52" fill="#fff" mask="url(#satori_om-id-1-1)"/></mask><mask id="satori_om-id-1-1-2-0"><rect x="172" y="135" width="37" height="19" fill="#fff" mask="url(#satori_om-id-1-1)"/></mask><g mask="url(#satori_om-id-1-1)" clip-path="url(#satori_cp-id-1-1)"><path fill="#00e5ff" d="M175.3 139.4L177.9 139.4L177.9 151L175.5 151L175.5 141.5L175.4 141.5L172.7 143.4L172.7 141.2L175.3 139.4ZM183.8 151.2L183.8 151.2Q182.6 151.2 181.7 150.7Q180.7 150.3 180.2 149.5Q179.7 148.7 179.6 147.7L179.6 147.7L182.0 147.7Q182.0 148.2 182.2 148.5Q182.5 148.9 182.9 149.1Q183.3 149.3 183.8 149.3L183.8 149.3Q184.4 149.3 184.8 149.0Q185.3 148.7 185.5 148.3Q185.8 147.8 185.8 147.2L185.8 147.2Q185.8 146.6 185.5 146.1Q185.3 145.6 184.8 145.3Q184.4 145.1 183.8 145.1L183.8 145.1Q183.2 145.1 182.8 145.3Q182.3 145.5 182.0 145.8L182.0 145.8L179.9 145.5L180.4 139.4L187.5 139.4L187.5 141.3L182.4 141.3L182.1 144.3L182.2 144.3Q182.5 143.9 183.1 143.6Q183.7 143.3 184.5 143.3L184.5 143.3Q185.3 143.3 185.9 143.6Q186.6 143.9 187.1 144.4Q187.6 144.9 187.8 145.6Q188.1 146.3 188.1 147.1L188.1 147.1Q188.1 148.3 187.6 149.2Q187.0 150.1 186.1 150.6Q185.1 151.2 183.8 151.2ZM195.2 148.9L189.6 148.9L189.6 147.0L194.5 139.4L197.5 139.4L197.5 147.0L199.0 147.0L199.0 148.9L197.5 148.9L197.5 151L195.2 151L195.2 148.9ZM192.0 147.0L195.3 147.0L195.3 142.0L195.2 142.0L192.0 146.9L192.0 147.0ZM203.5 151L201.1 151L205.9 141.4L205.9 141.3L200.3 141.3L200.3 139.4L208.4 139.4L208.4 141.4L203.5 151Z "/></g><mask id="satori_om-id-1-1-2-1"><rect x="167" y="157" width="46" height="10" fill="#fff" mask="url(#satori_om-id-1-1)"/></mask><g mask="url(#satori_om-id-1-1)" clip-path="url(#satori_cp-id-1-1)"><path fill="#4a5568" d="M170.1 165.1L170.1 165.1Q169.3 165.1 168.7 164.7Q168.1 164.4 167.8 163.7Q167.5 163.0 167.5 162.1L167.5 162.1Q167.5 161.2 167.8 160.5Q168.1 159.8 168.7 159.5Q169.3 159.1 170.1 159.1L170.1 159.1Q170.5 159.1 170.9 159.2Q171.3 159.4 171.6 159.6Q171.9 159.9 172.1 160.2Q172.3 160.6 172.4 161.0L172.4 161.0L171.7 161.0Q171.6 160.7 171.5 160.5Q171.3 160.3 171.1 160.1Q170.9 159.9 170.6 159.9Q170.3 159.8 170.1 159.8L170.1 159.8Q169.5 159.8 169.1 160.1Q168.7 160.3 168.4 160.8Q168.2 161.3 168.2 162.1L168.2 162.1Q168.2 162.8 168.4 163.3Q168.7 163.9 169.1 164.1Q169.5 164.4 170.1 164.4L170.1 164.4Q170.3 164.4 170.6 164.3Q170.9 164.2 171.1 164.1Q171.3 163.9 171.5 163.7Q171.6 163.5 171.7 163.2L171.7 163.2L172.4 163.2Q172.3 163.6 172.1 164.0Q171.9 164.3 171.6 164.6Q171.3 164.8 170.9 164.9Q170.5 165.1 170.1 165.1ZM176.9 165.1L176.9 165.1Q176.2 165.1 175.6 164.7Q175.0 164.4 174.7 163.7Q174.3 163.0 174.3 162.1L174.3 162.1Q174.3 161.2 174.7 160.5Q175.0 159.8 175.6 159.5Q176.2 159.1 176.9 159.1L176.9 159.1Q177.7 159.1 178.2 159.5Q178.8 159.8 179.2 160.5Q179.5 161.2 179.5 162.1L179.5 162.1Q179.5 163.0 179.2 163.7Q178.8 164.4 178.2 164.7Q177.7 165.1 176.9 165.1ZM176.9 164.4L176.9 164.4Q177.4 164.4 177.8 164.1Q178.3 163.9 178.5 163.3Q178.8 162.8 178.8 162.1L178.8 162.1Q178.8 161.3 178.5 160.8Q178.3 160.3 177.8 160.1Q177.4 159.8 176.9 159.8L176.9 159.8Q176.4 159.8 176.0 160.1Q175.5 160.3 175.3 160.8Q175.0 161.3 175.0 162.1L175.0 162.1Q175.0 162.8 175.3 163.3Q175.5 163.9 176.0 164.1Q176.4 164.4 176.9 164.4ZM182.4 165L181.7 165L181.7 159.2L182.7 159.2L184.2 162.9Q184.2 163.0 184.3 163.2Q184.3 163.4 184.4 163.6Q184.5 163.8 184.5 164.0L184.5 164.0Q184.6 164.1 184.6 164.2L184.6 164.2Q184.6 164.1 184.6 164.1L184.6 164.1Q184.7 163.8 184.8 163.6Q184.8 163.4 184.9 163.2Q185.0 163.0 185.0 162.9L185.0 162.9L186.4 159.2L187.5 159.2L187.5 165L186.8 165L186.8 161.7Q186.8 161.5 186.8 161.3Q186.8 161.0 186.8 160.8Q186.8 160.5 186.8 160.3L186.8 160.3Q186.8 160.1 186.8 160.0L186.8 160.0Q186.7 160.1 186.7 160.3L186.7 160.3Q186.6 160.6 186.5 160.8Q186.4 161.1 186.3 161.3Q186.3 161.5 186.2 161.7L186.2 161.7L184.9 165L184.3 165L182.9 161.7Q182.9 161.5 182.8 161.3Q182.7 161.1 182.6 160.9Q182.6 160.6 182.5 160.3L182.5 160.3Q182.4 160.2 182.3 160.0L182.3 160.0Q182.3 160.1 182.4 160.2L182.4 160.2Q182.4 160.5 182.4 160.7Q182.4 161.0 182.4 161.2Q182.4 161.5 182.4 161.7L182.4 161.7L182.4 165ZM190.6 165L189.9 165L189.9 159.2L190.9 159.2L192.4 162.9Q192.4 163.0 192.5 163.2Q192.6 163.4 192.6 163.6Q192.7 163.8 192.8 164.0L192.8 164.0Q192.8 164.1 192.8 164.2L192.8 164.2Q192.8 164.1 192.8 164.1L192.8 164.1Q192.9 163.8 193.0 163.6Q193.1 163.4 193.1 163.2Q193.2 163.0 193.2 162.9L193.2 162.9L194.7 159.2L195.7 159.2L195.7 165L195.0 165L195.0 161.7Q195.0 161.5 195.0 161.3Q195.0 161.0 195.0 160.8Q195.0 160.5 195.0 160.3L195.0 160.3Q195.0 160.1 195.0 160.0L195.0 160.0Q195.0 160.1 194.9 160.3L194.9 160.3Q194.8 160.6 194.7 160.8Q194.6 161.1 194.6 161.3Q194.5 161.5 194.4 161.7L194.4 161.7L193.1 165L192.5 165L191.2 161.7Q191.1 161.5 191.0 161.3Q191.0 161.1 190.9 160.9Q190.8 160.6 190.7 160.3L190.7 160.3Q190.6 160.2 190.6 160.0L190.6 160.0Q190.6 160.1 190.6 160.2L190.6 160.2Q190.6 160.5 190.6 160.7Q190.6 161.0 190.6 161.2Q190.6 161.5 190.6 161.7L190.6 161.7L190.6 165ZM198.1 159.2L198.9 159.2L198.9 165L198.1 165L198.1 159.2ZM202.8 159.8L200.9 159.8L200.9 159.2L205.3 159.2L205.3 159.8L203.5 159.8L203.5 165L202.8 165L202.8 159.8ZM209.3 165.1L209.3 165.1Q208.7 165.1 208.2 164.9Q207.7 164.7 207.5 164.3Q207.2 164.0 207.2 163.5L207.2 163.5L207.9 163.5Q208.0 163.8 208.2 164.0Q208.4 164.2 208.7 164.3Q209.0 164.4 209.3 164.4L209.3 164.4Q209.7 164.4 210.0 164.3Q210.3 164.2 210.5 163.9Q210.7 163.7 210.7 163.4L210.7 163.4Q210.7 163.1 210.5 162.9Q210.4 162.8 210.1 162.7Q209.8 162.5 209.5 162.5L209.5 162.5L208.8 162.3Q208.1 162.1 207.7 161.7Q207.3 161.3 207.3 160.7L207.3 160.7Q207.3 160.2 207.6 159.9Q207.9 159.5 208.3 159.3Q208.8 159.1 209.3 159.1L209.3 159.1Q209.9 159.1 210.4 159.3Q210.8 159.5 211.1 159.9Q211.3 160.2 211.3 160.6L211.3 160.6L210.6 160.6Q210.6 160.2 210.2 160.0Q209.8 159.8 209.3 159.8L209.3 159.8Q208.9 159.8 208.7 159.9Q208.4 160.0 208.2 160.2Q208.1 160.4 208.1 160.7L208.1 160.7Q208.1 161.0 208.3 161.2Q208.4 161.4 208.7 161.5Q209.0 161.6 209.2 161.6L209.2 161.6L209.8 161.8Q210.0 161.9 210.3 162.0Q210.6 162.1 210.8 162.3Q211.1 162.4 211.2 162.7Q211.4 163.0 211.4 163.4L211.4 163.4Q211.4 163.9 211.2 164.3Q210.9 164.7 210.4 164.9Q210.0 165.1 209.3 165.1Z "/></g><mask id="satori_om-id-1-1-3"><rect x="246" y="125" width="1" height="52" fill="#fff" mask="url(#satori_om-id-1-1)"/></mask><rect x="246" y="125" width="1" height="52" fill="#1a2332" clip-path="url(#satori_cp-id-1-1)" mask="url(#satori_om-id-1-1)"/><mask id="satori_om-id-1-1-4"><rect x="247" y="125" width="112" height="52" fill="#fff" mask="url(#satori_om-id-1-1)"/></mask><mask id="satori_om-id-1-1-4-0"><rect x="293" y="135" width="21" height="19" fill="#fff" mask="url(#satori_om-id-1-1)"/></mask><g mask="url(#satori_om-id-1-1)" clip-path="url(#satori_cp-id-1-1)"><path fill="#a78bfa" d="M302.2 151L294.0 151L294.0 149.3L298.1 145.4Q298.6 144.9 299.0 144.5Q299.4 144.1 299.5 143.7Q299.7 143.3 299.7 142.8L299.7 142.8Q299.7 142.3 299.5 141.9Q299.3 141.5 298.9 141.3Q298.5 141.1 297.9 141.1L297.9 141.1Q297.4 141.1 297.0 141.3Q296.6 141.5 296.4 142.0Q296.1 142.4 296.1 142.9L296.1 142.9L293.9 142.9Q293.9 141.8 294.4 141.0Q294.9 140.1 295.8 139.7Q296.7 139.2 297.9 139.2L297.9 139.2Q299.2 139.2 300.1 139.6Q301.0 140.1 301.5 140.9Q302.0 141.6 302.0 142.6L302.0 142.6Q302.0 143.3 301.8 143.9Q301.5 144.6 300.9 145.3Q300.2 146.1 299.0 147.2L299.0 147.2L297.3 149.0L297.3 149.0L302.2 149.0L302.2 151ZM308.0 151.2L308.0 151.2Q306.8 151.2 305.9 150.7Q304.9 150.3 304.4 149.5Q303.8 148.7 303.8 147.7L303.8 147.7L306.1 147.7Q306.2 148.2 306.4 148.5Q306.7 148.9 307.1 149.1Q307.5 149.3 308.0 149.3L308.0 149.3Q308.6 149.3 309.0 149.0Q309.5 148.7 309.7 148.3Q310.0 147.8 310.0 147.2L310.0 147.2Q310.0 146.6 309.7 146.1Q309.5 145.6 309.0 145.3Q308.5 145.1 307.9 145.1L307.9 145.1Q307.4 145.1 306.9 145.3Q306.5 145.5 306.2 145.8L306.2 145.8L304.1 145.5L304.6 139.4L311.7 139.4L311.7 141.3L306.6 141.3L306.3 144.3L306.4 144.3Q306.7 143.9 307.3 143.6Q307.9 143.3 308.6 143.3L308.6 143.3Q309.4 143.3 310.1 143.6Q310.8 143.9 311.3 144.4Q311.8 144.9 312.0 145.6Q312.3 146.3 312.3 147.1L312.3 147.1Q312.3 148.3 311.8 149.2Q311.2 150.1 310.2 150.6Q309.3 151.2 308.0 151.2Z "/></g><mask id="satori_om-id-1-1-4-1"><rect x="287" y="157" width="32" height="10" fill="#fff" mask="url(#satori_om-id-1-1)"/></mask><g mask="url(#satori_om-id-1-1)" clip-path="url(#satori_cp-id-1-1)"><path fill="#4a5568" d="M288.4 165L287.7 165L287.7 159.2L289.7 159.2Q290.4 159.2 290.8 159.4Q291.3 159.6 291.5 160.1Q291.7 160.5 291.7 161.0Q291.7 161.5 291.5 161.9Q291.3 162.3 290.8 162.5L290.8 162.5Q290.7 162.6 290.6 162.6L290.6 162.6L291.9 165L291.0 165L289.8 162.7Q289.8 162.7 289.7 162.7L289.7 162.7L288.4 162.7L288.4 165ZM288.4 159.8L288.4 162.1L289.7 162.1Q290.1 162.1 290.4 161.9Q290.7 161.8 290.8 161.6Q290.9 161.3 290.9 161.0L290.9 161.0Q290.9 160.6 290.8 160.4Q290.7 160.1 290.4 160.0Q290.1 159.8 289.7 159.8L289.7 159.8L288.4 159.8ZM297.4 165L293.9 165L293.9 159.2L297.4 159.2L297.4 159.8L294.6 159.8L294.6 161.7L297.2 161.7L297.2 162.4L294.6 162.4L294.6 164.3L297.4 164.3L297.4 165ZM300.4 165L299.7 165L299.7 159.2L301.7 159.2Q302.3 159.2 302.8 159.4Q303.2 159.7 303.4 160.1Q303.6 160.5 303.6 161.0Q303.6 161.6 303.4 162.0Q303.2 162.4 302.8 162.6Q302.3 162.9 301.7 162.9L301.7 162.9L300.4 162.9L300.4 165ZM300.4 159.8L300.4 162.2L301.6 162.2Q302.1 162.2 302.4 162.1Q302.6 161.9 302.8 161.7Q302.9 161.4 302.9 161.0Q302.9 160.7 302.8 160.4Q302.6 160.1 302.4 160.0Q302.1 159.8 301.6 159.8L301.6 159.8L300.4 159.8ZM308.1 165.1L308.1 165.1Q307.4 165.1 306.8 164.7Q306.2 164.4 305.9 163.7Q305.5 163.0 305.5 162.1L305.5 162.1Q305.5 161.2 305.9 160.5Q306.2 159.8 306.8 159.5Q307.4 159.1 308.1 159.1L308.1 159.1Q308.9 159.1 309.5 159.5Q310.0 159.8 310.4 160.5Q310.7 161.2 310.7 162.1L310.7 162.1Q310.7 163.0 310.4 163.7Q310.0 164.4 309.5 164.7Q308.9 165.1 308.1 165.1ZM308.1 164.4L308.1 164.4Q308.6 164.4 309.1 164.1Q309.5 163.9 309.7 163.3Q310.0 162.8 310.0 162.1L310.0 162.1Q310.0 161.3 309.7 160.8Q309.5 160.3 309.1 160.1Q308.6 159.8 308.1 159.8L308.1 159.8Q307.6 159.8 307.2 160.1Q306.8 160.3 306.5 160.8Q306.3 161.3 306.3 162.1L306.3 162.1Q306.3 162.8 306.5 163.3Q306.8 163.9 307.2 164.1Q307.6 164.4 308.1 164.4ZM314.8 165.1L314.8 165.1Q314.1 165.1 313.7 164.9Q313.2 164.7 312.9 164.3Q312.7 164.0 312.6 163.5L312.6 163.5L313.4 163.5Q313.4 163.8 313.6 164.0Q313.8 164.2 314.1 164.3Q314.4 164.4 314.8 164.4L314.8 164.4Q315.1 164.4 315.5 164.3Q315.8 164.2 316.0 163.9Q316.1 163.7 316.1 163.4L316.1 163.4Q316.1 163.1 316.0 162.9Q315.8 162.8 315.6 162.7Q315.3 162.5 315.0 162.5L315.0 162.5L314.3 162.3Q313.6 162.1 313.2 161.7Q312.8 161.3 312.8 160.7L312.8 160.7Q312.8 160.2 313.1 159.9Q313.3 159.5 313.8 159.3Q314.2 159.1 314.8 159.1L314.8 159.1Q315.4 159.1 315.8 159.3Q316.3 159.5 316.5 159.9Q316.8 160.2 316.8 160.6L316.8 160.6L316.1 160.6Q316.0 160.2 315.7 160.0Q315.3 159.8 314.8 159.8L314.8 159.8Q314.4 159.8 314.1 159.9Q313.8 160.0 313.7 160.2Q313.5 160.4 313.5 160.7L313.5 160.7Q313.5 161.0 313.7 161.2Q313.9 161.4 314.2 161.5Q314.4 161.6 314.6 161.6L314.6 161.6L315.2 161.8Q315.4 161.9 315.7 162.0Q316.0 162.1 316.3 162.3Q316.5 162.4 316.7 162.7Q316.9 163.0 316.9 163.4L316.9 163.4Q316.9 163.9 316.6 164.3Q316.4 164.7 315.9 164.9Q315.4 165.1 314.8 165.1Z "/></g><mask id="satori_om-id-1-2"><rect x="20" y="192" width="340" height="11" fill="#fff" mask="url(#satori_om-id)"/></mask><g mask="url(#satori_om-id)" clip-path="url(#satori_cp-id)"><path fill="#2d3748" d="M22.3 195.6L20.3 195.6L20.3 194.5L25.7 194.5L25.7 195.6L23.7 195.6L23.7 201L22.3 201L22.3 195.6ZM31.0 201.1L31.0 201.1Q30.1 201.1 29.4 200.7Q28.7 200.3 28.3 199.5Q27.9 198.8 27.9 197.7L27.9 197.7Q27.9 196.7 28.3 195.9Q28.7 195.2 29.4 194.8Q30.1 194.4 31.0 194.4L31.0 194.4Q31.8 194.4 32.5 194.8Q33.2 195.2 33.6 195.9Q34.0 196.7 34.0 197.7L34.0 197.7Q34.0 198.8 33.6 199.5Q33.2 200.3 32.5 200.7Q31.8 201.1 31.0 201.1ZM31.0 199.9L31.0 199.9Q31.5 199.9 31.9 199.6Q32.2 199.4 32.5 198.9Q32.7 198.4 32.7 197.7L32.7 197.7Q32.7 197.0 32.5 196.5Q32.2 196.1 31.9 195.8Q31.5 195.6 31.0 195.6L31.0 195.6Q30.5 195.6 30.1 195.8Q29.7 196.1 29.5 196.5Q29.3 197.0 29.3 197.7L29.3 197.7Q29.3 198.4 29.5 198.9Q29.7 199.4 30.1 199.6Q30.5 199.9 31.0 199.9ZM37.9 201L36.5 201L36.5 194.5L39.1 194.5Q39.8 194.5 40.4 194.7Q40.9 195.0 41.2 195.5Q41.4 196.0 41.4 196.7L41.4 196.7Q41.4 197.3 41.2 197.8Q40.9 198.3 40.3 198.6Q39.8 198.9 39.1 198.9L39.1 198.9L37.9 198.9L37.9 201ZM37.9 195.6L37.9 197.8L38.8 197.8Q39.3 197.8 39.5 197.6Q39.8 197.5 39.9 197.2Q40.0 197.0 40.0 196.7Q40.0 196.3 39.9 196.1Q39.8 195.8 39.5 195.7Q39.3 195.6 38.8 195.6L38.8 195.6L37.9 195.6Z M48.8 201L47.5 201L47.5 194.5L50.1 194.5Q50.8 194.5 51.3 194.7Q51.8 195.0 52.1 195.5Q52.4 195.9 52.4 196.6Q52.4 197.2 52.1 197.7Q51.8 198.2 51.3 198.4L51.3 198.4Q51.3 198.4 51.2 198.4L51.2 198.4L52.6 201L51.1 201L49.9 198.7L48.8 198.7L48.8 201ZM48.8 195.6L48.8 197.6L49.8 197.6Q50.2 197.6 50.5 197.5Q50.7 197.4 50.9 197.1Q51.0 196.9 51.0 196.6L51.0 196.6Q51.0 196.2 50.9 196.0Q50.7 195.8 50.5 195.7Q50.2 195.6 49.8 195.6L49.8 195.6L48.8 195.6ZM59.3 201L54.9 201L54.9 194.5L59.3 194.5L59.3 195.6L56.2 195.6L56.2 197.1L59.1 197.1L59.1 198.2L56.2 198.2L56.2 199.9L59.3 199.9L59.3 201ZM63.2 201L61.9 201L61.9 194.5L64.4 194.5Q65.2 194.5 65.7 194.7Q66.2 195.0 66.5 195.5Q66.8 196.0 66.8 196.7L66.8 196.7Q66.8 197.3 66.5 197.8Q66.2 198.3 65.7 198.6Q65.2 198.9 64.4 198.9L64.4 198.9L63.2 198.9L63.2 201ZM63.2 195.6L63.2 197.8L64.2 197.8Q64.6 197.8 64.9 197.6Q65.1 197.5 65.3 197.2Q65.4 197.0 65.4 196.7Q65.4 196.3 65.3 196.1Q65.1 195.8 64.9 195.7Q64.6 195.6 64.2 195.6L64.2 195.6L63.2 195.6ZM72.1 201.1L72.1 201.1Q71.2 201.1 70.5 200.7Q69.8 200.3 69.4 199.5Q69.0 198.8 69.0 197.7L69.0 197.7Q69.0 196.7 69.4 195.9Q69.8 195.2 70.5 194.8Q71.2 194.4 72.1 194.4L72.1 194.4Q73.0 194.4 73.6 194.8Q74.3 195.2 74.7 195.9Q75.1 196.7 75.1 197.7L75.1 197.7Q75.1 198.8 74.7 199.5Q74.3 200.3 73.6 200.7Q73.0 201.1 72.1 201.1ZM72.1 199.9L72.1 199.9Q72.6 199.9 73.0 199.6Q73.4 199.4 73.6 198.9Q73.8 198.4 73.8 197.7L73.8 197.7Q73.8 197.0 73.6 196.5Q73.4 196.1 73.0 195.8Q72.6 195.6 72.1 195.6L72.1 195.6Q71.6 195.6 71.2 195.8Q70.8 196.1 70.6 196.5Q70.4 197.0 70.4 197.7L70.4 197.7Q70.4 198.4 70.6 198.9Q70.8 199.4 71.2 199.6Q71.6 199.9 72.1 199.9ZM80.0 201.1L80.0 201.1Q79.3 201.1 78.7 200.9Q78.1 200.6 77.8 200.1Q77.4 199.7 77.4 199.0L77.4 199.0L78.7 199.0Q78.8 199.3 78.9 199.5Q79.1 199.7 79.4 199.9Q79.7 200.0 80.0 200.0L80.0 200.0Q80.4 200.0 80.7 199.9Q80.9 199.8 81.1 199.6Q81.2 199.4 81.2 199.1L81.2 199.1Q81.2 198.9 81.1 198.8Q81.0 198.6 80.7 198.5Q80.4 198.4 80.1 198.3L80.1 198.3L79.4 198.1Q78.5 197.9 78.1 197.5Q77.6 197.0 77.6 196.3L77.6 196.3Q77.6 195.7 77.9 195.3Q78.2 194.9 78.8 194.6Q79.3 194.4 80.1 194.4L80.1 194.4Q80.8 194.4 81.3 194.6Q81.9 194.9 82.2 195.3Q82.5 195.7 82.5 196.3L82.5 196.3L81.2 196.3Q81.1 195.9 80.8 195.7Q80.5 195.5 80.0 195.5L80.0 195.5Q79.7 195.5 79.5 195.6Q79.2 195.7 79.1 195.9Q79.0 196.0 79.0 196.2L79.0 196.2Q79.0 196.5 79.1 196.7Q79.3 196.8 79.5 196.9Q79.7 197.0 80.0 197.1L80.0 197.1L80.6 197.2Q81.0 197.3 81.4 197.5Q81.7 197.6 82.0 197.9Q82.3 198.1 82.4 198.4Q82.6 198.7 82.6 199.1L82.6 199.1Q82.6 199.7 82.3 200.2Q82.0 200.6 81.4 200.9Q80.8 201.1 80.0 201.1Z "/></g><mask id="satori_om-id-1-3"><rect x="20" y="211" width="340" height="423" fill="#fff" mask="url(#satori_om-id)"/></mask><defs><clipPath id="satori_bc-id-1-3-0" clip-path="url(#satori_cp-id)"><path x="20" y="211" width="340" height="55" d="M28,211 h324 a8,8 0 0 1 8,8 v39 a8,8 0 0 1 -8,8 h-324 a8,8 0 0 1 -8,-8 v-39 a8,8 0 0 1 8,-8"/></clipPath></defs><mask id="satori_om-id-1-3-0"><rect x="21" y="212" width="338" height="53" fill="#fff" mask="url(#satori_om-id)"/><path width="340" height="55" fill="none" stroke="#000" stroke-width="2" d="M22.343,213.343 A8,8 0 0 1 28,211 h324 a8,8 0 0 1 8,8 v39 a8,8 0 0 1 -8,8 h-324 a8,8 0 0 1 -8,-8 v-39 A8,8 0 0 1 22.343,213.343"/></mask><path x="20" y="211" width="340" height="55" fill="#0d1117" d="M28,211 h324 a8,8 0 0 1 8,8 v39 a8,8 0 0 1 -8,8 h-324 a8,8 0 0 1 -8,-8 v-39 a8,8 0 0 1 8,-8" clip-path="url(#satori_cp-id)" mask="url(#satori_om-id)"/><path width="340" height="55" clip-path="url(#satori_bc-id-1-3-0)" fill="none" stroke="#1a2332" stroke-width="2" d="M22.343,213.343 A8,8 0 0 1 28,211 h324 a8,8 0 0 1 8,8 v39 a8,8 0 0 1 -8,8 h-324 a8,8 0 0 1 -8,-8 v-39 A8,8 0 0 1 22.343,213.343"/><mask id="satori_om-id-1-3-0-0"><rect x="32" y="221" width="316" height="15" fill="#fff" mask="url(#satori_om-id)"/></mask><mask id="satori_om-id-1-3-0-0-0"><rect x="32" y="221" width="104" height="15" fill="#fff" mask="url(#satori_om-id)"/></mask><g mask="url(#satori_om-id)" clip-path="url(#satori_cp-id)"><path fill="#58a6ff" d="M34.6 233.1L34.6 233.1Q34.0 233.1 33.5 232.9Q33.0 232.7 32.7 232.3Q32.4 231.8 32.4 231.2L32.4 231.2Q32.4 230.6 32.6 230.3Q32.8 229.9 33.2 229.7Q33.5 229.4 33.9 229.3Q34.4 229.2 34.9 229.2L34.9 229.2Q35.4 229.1 35.8 229.0Q36.1 229.0 36.3 228.9Q36.5 228.8 36.5 228.6L36.5 228.6L36.5 228.5Q36.5 228.3 36.3 228.1Q36.2 227.9 36.0 227.8Q35.8 227.7 35.4 227.7L35.4 227.7Q35.1 227.7 34.8 227.8Q34.6 227.9 34.4 228.0Q34.3 228.2 34.2 228.4L34.2 228.4L32.6 228.2Q32.8 227.6 33.1 227.2Q33.5 226.8 34.1 226.6Q34.7 226.4 35.4 226.4L35.4 226.4Q36.0 226.4 36.5 226.5Q37.0 226.6 37.4 226.9Q37.8 227.1 38.0 227.6Q38.2 228.0 38.2 228.6L38.2 228.6L38.2 233L36.6 233L36.6 232.1L36.5 232.1Q36.3 232.4 36.1 232.6Q35.8 232.9 35.4 233.0Q35.1 233.1 34.6 233.1ZM35.1 231.9L35.1 231.9Q35.5 231.9 35.8 231.7Q36.1 231.6 36.3 231.3Q36.5 231.0 36.5 230.7L36.5 230.7L36.5 229.9Q36.4 230.0 36.2 230.1Q36.1 230.1 35.9 230.1Q35.7 230.2 35.5 230.2Q35.3 230.2 35.2 230.2L35.2 230.2Q34.8 230.3 34.6 230.4Q34.4 230.5 34.2 230.7Q34.1 230.8 34.1 231.1L34.1 231.1Q34.1 231.4 34.2 231.5Q34.3 231.7 34.6 231.8Q34.8 231.9 35.1 231.9ZM42.9 233L41.1 233L39.1 226.4L41.0 226.4L41.6 228.9Q41.7 229.5 41.9 230.3L41.9 230.3Q42.0 230.8 42.1 231.4L42.1 231.4Q42.2 230.8 42.3 230.3L42.3 230.3Q42.5 229.5 42.7 228.9L42.7 228.9L43.3 226.4L44.9 226.4L45.5 228.9Q45.6 229.5 45.8 230.3L45.8 230.3Q45.9 230.8 46.0 231.4L46.0 231.4Q46.1 230.8 46.2 230.3L46.2 230.3Q46.4 229.5 46.5 228.9L46.5 228.9L47.1 226.4L49.0 226.4L47.0 233L45.3 233L44.5 230.5Q44.4 230.1 44.3 229.6Q44.2 229.2 44.1 228.7L44.1 228.7Q44.1 228.6 44.1 228.5L44.1 228.5Q44.0 228.6 44.0 228.7L44.0 228.7Q43.9 229.2 43.8 229.6Q43.7 230.1 43.6 230.5L43.6 230.5L42.9 233ZM52.9 233.1L52.9 233.1Q51.9 233.1 51.1 232.7Q50.4 232.3 50.0 231.6Q49.6 230.8 49.6 229.8L49.6 229.8Q49.6 228.7 50.0 228.0Q50.4 227.2 51.1 226.8Q51.8 226.4 52.8 226.4L52.8 226.4Q53.4 226.4 54.0 226.6Q54.5 226.8 55.0 227.2Q55.4 227.6 55.6 228.2Q55.9 228.8 55.9 229.7L55.9 229.7L55.9 230.2L51.4 230.2Q51.4 230.7 51.6 231.0L51.6 231.0Q51.8 231.4 52.1 231.6Q52.4 231.8 52.9 231.8L52.9 231.8Q53.2 231.8 53.5 231.7Q53.7 231.6 53.9 231.5Q54.1 231.3 54.2 231.0L54.2 231.0L55.8 231.3Q55.6 231.9 55.2 232.3Q54.8 232.7 54.2 232.9Q53.6 233.1 52.9 233.1ZM51.4 229.1L51.4 229.1L54.2 229.1Q54.1 228.8 54.0 228.5L54.0 228.5Q53.9 228.1 53.6 227.9Q53.3 227.7 52.8 227.7L52.8 227.7Q52.3 227.7 52.0 227.9Q51.7 228.1 51.5 228.5L51.5 228.5Q51.4 228.7 51.4 229.1ZM59.7 233.1L59.7 233.1Q58.9 233.1 58.3 232.9Q57.7 232.7 57.3 232.2Q56.9 231.8 56.8 231.2L56.8 231.2L58.4 230.9Q58.5 231.4 58.9 231.6Q59.2 231.8 59.7 231.8L59.7 231.8Q60.2 231.8 60.5 231.6Q60.8 231.5 60.8 231.2L60.8 231.2Q60.8 230.9 60.6 230.7Q60.4 230.6 60.0 230.5L60.0 230.5L58.8 230.3Q57.9 230.1 57.4 229.6Q56.9 229.1 56.9 228.4L56.9 228.4Q56.9 227.8 57.3 227.3Q57.6 226.9 58.3 226.6Q58.9 226.4 59.7 226.4L59.7 226.4Q60.5 226.4 61.0 226.6Q61.6 226.8 62.0 227.2Q62.3 227.6 62.4 228.1L62.4 228.1L60.9 228.4Q60.8 228.1 60.5 227.8Q60.2 227.6 59.7 227.6L59.7 227.6Q59.3 227.6 59.0 227.8Q58.7 228.0 58.7 228.3L58.7 228.3Q58.7 228.5 58.9 228.7Q59.1 228.9 59.5 229.0L59.5 229.0L60.7 229.2Q61.7 229.4 62.1 229.8Q62.6 230.3 62.6 231.0L62.6 231.0Q62.6 231.6 62.2 232.1Q61.8 232.6 61.2 232.9Q60.5 233.1 59.7 233.1ZM66.7 233.1L66.7 233.1Q65.7 233.1 65.0 232.7Q64.3 232.3 63.9 231.5Q63.5 230.8 63.5 229.8L63.5 229.8Q63.5 228.7 63.9 228.0Q64.3 227.2 65.0 226.8Q65.7 226.4 66.7 226.4L66.7 226.4Q67.7 226.4 68.4 226.8Q69.1 227.2 69.5 228.0Q69.9 228.7 69.9 229.8L69.9 229.8Q69.9 230.8 69.5 231.5Q69.1 232.3 68.4 232.7Q67.7 233.1 66.7 233.1ZM66.7 231.7L66.7 231.7Q67.2 231.7 67.5 231.5Q67.8 231.2 68.0 230.8Q68.1 230.3 68.1 229.7L68.1 229.7Q68.1 229.2 68.0 228.7Q67.8 228.3 67.5 228.0Q67.2 227.8 66.7 227.8L66.7 227.8Q66.2 227.8 65.9 228.0Q65.6 228.3 65.5 228.7Q65.3 229.2 65.3 229.7L65.3 229.7Q65.3 230.3 65.5 230.8Q65.6 231.2 65.9 231.5Q66.2 231.7 66.7 231.7ZM72.9 233L71.1 233L71.1 226.4L72.8 226.4L72.8 227.7Q73.0 227.4 73.2 227.1L73.2 227.1Q73.5 226.7 73.9 226.5Q74.3 226.3 74.7 226.3L74.7 226.3Q75.4 226.3 75.9 226.8L75.9 226.8Q76.2 227.2 76.4 227.8L76.4 227.8Q76.5 227.4 76.8 227.1L76.8 227.1Q77.1 226.7 77.6 226.5Q78.0 226.3 78.5 226.3L78.5 226.3Q79.1 226.3 79.6 226.6Q80.1 226.9 80.3 227.4Q80.6 227.9 80.6 228.6L80.6 228.6L80.6 233L78.8 233L78.8 228.9Q78.8 228.4 78.5 228.1Q78.2 227.8 77.8 227.8L77.8 227.8Q77.5 227.8 77.2 228.0Q77.0 228.1 76.9 228.4Q76.7 228.6 76.7 229.0L76.7 229.0L76.7 233L75.0 233L75.0 228.9Q75.0 228.4 74.7 228.1Q74.5 227.8 74 227.8L74 227.8Q73.7 227.8 73.4 228.0Q73.2 228.1 73.0 228.4Q72.9 228.6 72.9 229.0L72.9 229.0L72.9 233ZM85.1 233.1L85.1 233.1Q84.1 233.1 83.3 232.7Q82.6 232.3 82.2 231.6Q81.8 230.8 81.8 229.8L81.8 229.8Q81.8 228.7 82.2 228.0Q82.6 227.2 83.3 226.8Q84.0 226.4 85.0 226.4L85.0 226.4Q85.6 226.4 86.2 226.6Q86.7 226.8 87.1 227.2Q87.6 227.6 87.8 228.2Q88.0 228.8 88.0 229.7L88.0 229.7L88.0 230.2L83.6 230.2Q83.6 230.7 83.8 231.0L83.8 231.0Q83.9 231.4 84.3 231.6Q84.6 231.8 85.1 231.8L85.1 231.8Q85.4 231.8 85.6 231.7Q85.9 231.6 86.1 231.5Q86.3 231.3 86.4 231.0L86.4 231.0L87.9 231.3Q87.8 231.9 87.4 232.3Q87.0 232.7 86.4 232.9Q85.8 233.1 85.1 233.1ZM83.6 229.1L83.6 229.1L86.4 229.1Q86.3 228.8 86.2 228.5L86.2 228.5Q86.1 228.1 85.7 227.9Q85.4 227.7 85.0 227.7L85.0 227.7Q84.5 227.7 84.2 227.9Q83.9 228.1 83.7 228.5L83.7 228.5Q83.6 228.7 83.6 229.1ZM89.3 228.7L93.3 228.7L93.3 230.1L89.3 230.1L89.3 228.7ZM96.6 235.4L94.9 235.4L94.9 226.4L96.6 226.4L96.6 227.6L96.7 227.6Q96.8 227.3 97.0 227.0Q97.2 226.7 97.6 226.6Q98.0 226.4 98.5 226.4L98.5 226.4Q99.3 226.4 99.9 226.7Q100.5 227.1 100.8 227.9Q101.2 228.6 101.2 229.7L101.2 229.7Q101.2 230.8 100.8 231.6Q100.5 232.3 99.9 232.7Q99.3 233.1 98.5 233.1L98.5 233.1Q98.0 233.1 97.6 232.9Q97.3 232.7 97.0 232.5Q96.8 232.2 96.7 232.0L96.7 232.0L96.6 232.0L96.6 235.4ZM98.0 231.7L98.0 231.7Q98.4 231.7 98.8 231.4Q99.1 231.2 99.2 230.8Q99.4 230.3 99.4 229.7L99.4 229.7Q99.4 229.2 99.2 228.7Q99.1 228.3 98.8 228.0Q98.5 227.8 98.0 227.8L98.0 227.8Q97.5 227.8 97.2 228.0Q96.9 228.3 96.7 228.7Q96.6 229.1 96.6 229.7L96.6 229.7Q96.6 230.3 96.7 230.8Q96.9 231.2 97.2 231.5Q97.5 231.7 98.0 231.7ZM104.2 233L102.4 233L102.4 226.4L104.1 226.4L104.1 227.6L104.2 227.6Q104.4 227.0 104.8 226.7Q105.2 226.4 105.8 226.4L105.8 226.4Q105.9 226.4 106.1 226.4Q106.2 226.4 106.3 226.4L106.3 226.4L106.3 228.0Q106.2 227.9 106.0 227.9Q105.8 227.9 105.6 227.9L105.6 227.9Q105.2 227.9 104.9 228.1Q104.5 228.2 104.4 228.6Q104.2 228.9 104.2 229.3L104.2 229.3L104.2 233ZM110.2 233.1L110.2 233.1Q109.3 233.1 108.5 232.7Q107.8 232.3 107.4 231.5Q107.0 230.8 107.0 229.8L107.0 229.8Q107.0 228.7 107.4 228.0Q107.8 227.2 108.5 226.8Q109.3 226.4 110.2 226.4L110.2 226.4Q111.2 226.4 111.9 226.8Q112.7 227.2 113.1 228.0Q113.4 228.7 113.4 229.8L113.4 229.8Q113.4 230.8 113.1 231.5Q112.7 232.3 111.9 232.7Q111.2 233.1 110.2 233.1ZM110.2 231.7L110.2 231.7Q110.7 231.7 111.0 231.5Q111.3 231.2 111.5 230.8Q111.7 230.3 111.7 229.7L111.7 229.7Q111.7 229.2 111.5 228.7Q111.3 228.3 111.0 228.0Q110.7 227.8 110.2 227.8L110.2 227.8Q109.8 227.8 109.5 228.0Q109.1 228.3 109.0 228.7Q108.8 229.2 108.8 229.7L108.8 229.7Q108.8 230.3 109.0 230.8Q109.1 231.2 109.5 231.5Q109.8 231.7 110.2 231.7ZM114.7 233.3L114.7 226.4L116.4 226.4L116.4 233.3Q116.4 234.1 116.1 234.5Q115.8 235.0 115.3 235.2Q114.7 235.4 114.0 235.4L114.0 235.4L113.6 235.4L113.6 234.1L113.9 234.1Q114.3 234.1 114.5 233.9Q114.7 233.7 114.7 233.3L114.7 233.3ZM115.5 225.6L115.5 225.6Q115.2 225.6 114.9 225.3Q114.6 225.1 114.6 224.7L114.6 224.7Q114.6 224.3 114.9 224.1Q115.2 223.8 115.5 223.8L115.5 223.8Q115.9 223.8 116.2 224.0Q116.5 224.3 116.5 224.7L116.5 224.7Q116.5 225.1 116.2 225.3Q115.9 225.6 115.5 225.6ZM120.9 233.1L120.9 233.1Q119.9 233.1 119.2 232.7Q118.4 232.3 118.0 231.6Q117.6 230.8 117.6 229.8L117.6 229.8Q117.6 228.7 118.0 228.0Q118.4 227.2 119.1 226.8Q119.8 226.4 120.8 226.4L120.8 226.4Q121.4 226.4 122.0 226.6Q122.6 226.8 123.0 227.2Q123.4 227.6 123.6 228.2Q123.9 228.8 123.9 229.7L123.9 229.7L123.9 230.2L119.4 230.2Q119.4 230.7 119.6 231.0L119.6 231.0Q119.8 231.4 120.1 231.6Q120.5 231.8 120.9 231.8L120.9 231.8Q121.2 231.8 121.5 231.7Q121.7 231.6 121.9 231.5Q122.1 231.3 122.2 231.0L122.2 231.0L123.8 231.3Q123.6 231.9 123.2 232.3Q122.8 232.7 122.2 232.9Q121.6 233.1 120.9 233.1ZM119.4 229.1L119.4 229.1L122.2 229.1Q122.1 228.8 122.0 228.5L122.0 228.5Q121.9 228.1 121.6 227.9Q121.3 227.7 120.8 227.7L120.8 227.7Q120.4 227.7 120.0 227.9Q119.7 228.1 119.6 228.5L119.6 228.5Q119.4 228.7 119.4 229.1ZM128 233.1L128 233.1Q127.0 233.1 126.3 232.7Q125.6 232.3 125.2 231.5Q124.8 230.8 124.8 229.8L124.8 229.8Q124.8 228.7 125.2 228.0Q125.6 227.2 126.3 226.8Q127.0 226.4 128 226.4L128 226.4Q128.6 226.4 129.1 226.5Q129.6 226.7 129.9 227.0Q130.3 227.2 130.6 227.6Q130.8 228.0 130.9 228.5L130.9 228.5L129.3 228.9Q129.2 228.6 129.1 228.4Q129.0 228.2 128.8 228.0Q128.7 227.9 128.5 227.8Q128.3 227.8 128.0 227.8L128.0 227.8Q127.5 227.8 127.2 228.0Q126.9 228.3 126.7 228.7Q126.6 229.2 126.6 229.7L126.6 229.7Q126.6 230.3 126.7 230.8Q126.9 231.2 127.2 231.5Q127.5 231.7 128.0 231.7L128.0 231.7Q128.3 231.7 128.5 231.7Q128.7 231.6 128.9 231.4Q129.0 231.3 129.1 231.1Q129.2 230.9 129.3 230.6L129.3 230.6L130.9 230.9Q130.8 231.4 130.6 231.8Q130.3 232.2 130.0 232.5Q129.6 232.8 129.1 233.0Q128.6 233.1 128 233.1ZM134.2 226.4L135.4 226.4L135.4 227.8L134.2 227.8L134.2 231.1Q134.2 231.4 134.3 231.5Q134.4 231.7 134.8 231.7L134.8 231.7Q134.9 231.7 135.0 231.7Q135.2 231.6 135.3 231.6L135.3 231.6L135.6 232.9Q135.3 233.0 135.0 233.1Q134.7 233.1 134.4 233.1L134.4 233.1Q133.4 233.1 132.9 232.6Q132.4 232.1 132.4 231.2L132.4 231.2L132.4 227.8L131.5 227.8L131.5 226.4L132.4 226.4L132.4 224.9L134.2 224.9L134.2 226.4Z "/></g><mask id="satori_om-id-1-3-0-0-1"><rect x="325" y="223" width="23" height="12" fill="#fff" mask="url(#satori_om-id)"/></mask><mask id="satori_om-id-1-3-0-0-1-0"><rect x="325" y="223" width="7" height="12" fill="#fff" mask="url(#satori_om-id)"/></mask><g mask="url(#satori_om-id)" clip-path="url(#satori_cp-id)"><path fill="#ffd700" d="M330.0 223.9L330.0 235.0L326.6 235.0L326.6 223.9L330.0 223.9ZM328.6 233.3L327.5 233.9L327.5 234.3L329.1 234.3L329.1 233.9L328.0 233.9L329.1 233.3L329.1 233L327.5 233L327.5 233.3L328.6 233.3ZM329.1 231.4L327.5 231.4L327.5 232.7L329.1 232.7L329.1 231.4ZM328.8 231.8L328.8 232.4L327.8 232.4L327.8 231.8L328.8 231.8ZM327.8 229.6L327.5 229.6L327.5 230.8L329.1 230.8L329.1 229.6L328.1 229.6L328.1 230.2L328.4 230.2L328.4 229.9L328.8 229.9L328.8 230.5L327.8 230.5L327.8 229.6ZM328.8 228.9L327.5 228.9L327.5 229.3L329.1 229.3L329.1 228.2L328.8 228.2L328.8 228.9ZM328.1 228.3L327.5 228.3L327.5 228.6L328.4 228.6L328.4 227.8L329.1 227.8L329.1 227.5L327.5 227.5L327.5 227.8L328.1 227.8L328.1 228.3ZM328.1 226.4L328.1 226.9L327.8 226.9L327.8 226.4L328.1 226.4ZM328.4 226.1L327.5 226.1L327.5 227.2L329.1 227.2L329.1 226.9L328.4 226.9L328.4 226.1ZM328.0 225.5L327.5 225.5L327.5 225.8L329.1 225.8L329.1 225.5L328.4 225.5L328.4 225.0L329.1 225.0L329.1 224.7L327.5 224.7L327.5 225.0L328.0 225.0L328.0 225.5Z "/></g><mask id="satori_om-id-1-3-0-0-1-1"><rect x="335" y="223" width="13" height="12" fill="#fff" mask="url(#satori_om-id)"/></mask><g mask="url(#satori_om-id)" clip-path="url(#satori_cp-id)"><path fill="#6e7681" d="M338.2 233.1L338.2 233.1Q337.7 233.1 337.2 232.9Q336.8 232.8 336.4 232.4Q336.0 232.0 335.8 231.3Q335.6 230.6 335.6 229.6L335.6 229.6Q335.6 228.7 335.8 227.9Q336.0 227.2 336.3 226.7Q336.7 226.2 337.2 225.9Q337.6 225.6 338.3 225.6L338.3 225.6Q338.9 225.6 339.4 225.9Q339.8 226.1 340.2 226.5Q340.5 227.0 340.5 227.6L340.5 227.6L339.6 227.6Q339.5 227.1 339.2 226.8Q338.8 226.4 338.3 226.4L338.3 226.4Q337.7 226.4 337.3 226.8Q336.9 227.1 336.7 227.7Q336.5 228.3 336.5 229.2L336.5 229.2L336.5 229.2Q336.7 228.9 337.0 228.7Q337.3 228.5 337.6 228.4Q337.9 228.2 338.3 228.2L338.3 228.2Q339.0 228.2 339.5 228.6Q340.0 228.9 340.3 229.4Q340.6 229.9 340.6 230.7L340.6 230.7Q340.6 231.3 340.3 231.9Q340 232.4 339.4 232.8Q338.9 233.1 338.2 233.1ZM338.2 232.3L338.2 232.3Q338.6 232.3 338.9 232.1Q339.3 231.8 339.5 231.5Q339.7 231.1 339.7 230.7L339.7 230.7Q339.7 230.2 339.5 229.8Q339.3 229.5 339.0 229.3Q338.6 229.0 338.2 229.0L338.2 229.0Q337.8 229.0 337.6 229.2Q337.3 229.3 337.1 229.5Q336.8 229.8 336.7 230.1Q336.6 230.3 336.6 230.7L336.6 230.7Q336.6 231.1 336.8 231.5Q337.0 231.8 337.4 232.1Q337.7 232.3 338.2 232.3ZM345.2 231.5L341.8 231.5L341.8 230.8L345.0 225.7L346.1 225.7L346.1 230.7L347.1 230.7L347.1 231.5L346.1 231.5L346.1 233L345.2 233L345.2 231.5ZM342.8 230.7L345.2 230.7L345.2 226.9L345.2 226.9L342.8 230.6L342.8 230.7Z "/></g><mask id="satori_om-id-1-3-0-1"><rect x="32" y="241" width="316" height="15" fill="#fff" mask="url(#satori_om-id)"/></mask><mask id="satori_om-id-1-3-0-1-0"><rect x="32" y="241" width="61" height="15" fill="#fff" mask="url(#satori_om-id)"/></mask><path x="32" y="241" width="61" height="15" fill="#161b22" d="M36,241 h53 a4,4 0 0 1 4,4 v7 a4,4 0 0 1 -4,4 h-53 a4,4 0 0 1 -4,-4 v-7 a4,4 0 0 1 4,-4" clip-path="url(#satori_cp-id)" mask="url(#satori_om-id)"/><g mask="url(#satori_om-id)" clip-path="url(#satori_cp-id)"><path fill="#4a5568" d="M41.5 246.2L39.4 246.2L39.4 245.5L44.4 245.5L44.4 246.2L42.3 246.2L42.3 252L41.5 252L41.5 246.2ZM45.4 253.8L45.4 253.8L45.6 253.1L45.7 253.1Q46.0 253.2 46.1 253.1Q46.3 253.1 46.5 253.0Q46.7 252.8 46.8 252.4L46.8 252.4L46.9 252.0L45.0 247.1L45.9 247.1L47.0 250.0Q47.1 250.5 47.2 250.9L47.2 250.9Q47.3 251.1 47.3 251.3L47.3 251.3Q47.4 251.1 47.4 250.9L47.4 250.9Q47.6 250.5 47.7 250.0L47.7 250.0L48.8 247.1L49.6 247.1L47.5 252.7Q47.3 253.1 47.1 253.4Q46.9 253.6 46.6 253.8Q46.4 253.9 46.0 253.9L46.0 253.9Q45.8 253.9 45.6 253.8Q45.5 253.8 45.4 253.8ZM51.4 253.8L50.6 253.8L50.6 247.1L51.3 247.1L51.3 247.9L51.4 247.9Q51.5 247.7 51.6 247.5Q51.8 247.3 52.1 247.2Q52.4 247.0 52.8 247.0L52.8 247.0Q53.5 247.0 53.9 247.3Q54.4 247.6 54.7 248.2Q54.9 248.8 54.9 249.6L54.9 249.6Q54.9 250.3 54.7 250.9Q54.4 251.5 53.9 251.8Q53.5 252.1 52.8 252.1L52.8 252.1Q52.4 252.1 52.1 251.9Q51.8 251.8 51.7 251.6Q51.5 251.4 51.4 251.2L51.4 251.2L51.4 251.2L51.4 253.8ZM52.7 251.4L52.7 251.4Q53.2 251.4 53.5 251.1Q53.8 250.9 54.0 250.5Q54.1 250.1 54.1 249.5L54.1 249.5Q54.1 249.0 54.0 248.6Q53.8 248.2 53.5 248.0Q53.2 247.7 52.7 247.7L52.7 247.7Q52.3 247.7 52.0 248.0Q51.7 248.2 51.5 248.6Q51.3 249.0 51.3 249.5L51.3 249.5Q51.3 250.1 51.5 250.5Q51.7 250.9 52.0 251.2Q52.3 251.4 52.7 251.4ZM58.1 252.1L58.1 252.1Q57.4 252.1 56.9 251.8Q56.4 251.5 56.1 250.9Q55.8 250.3 55.8 249.6Q55.8 248.8 56.1 248.3Q56.4 247.7 56.9 247.4Q57.4 247.0 58.0 247.0L58.0 247.0Q58.4 247.0 58.8 247.2Q59.2 247.3 59.5 247.6Q59.8 247.9 60.0 248.3Q60.2 248.8 60.2 249.5L60.2 249.5L60.2 249.8L56.6 249.8Q56.7 250.3 56.8 250.6L56.8 250.6Q57.0 251.0 57.4 251.2Q57.7 251.4 58.1 251.4L58.1 251.4Q58.4 251.4 58.7 251.3Q58.9 251.2 59.1 251.1Q59.3 250.9 59.3 250.6L59.3 250.6L60.1 250.9Q60.0 251.2 59.7 251.5Q59.4 251.8 59.0 251.9Q58.6 252.1 58.1 252.1ZM56.6 249.1L56.6 249.1L59.4 249.1Q59.4 248.8 59.2 248.5L59.2 248.5Q59.1 248.2 58.8 247.9Q58.5 247.7 58.0 247.7Q57.6 247.7 57.3 247.9Q57.0 248.2 56.8 248.5L56.8 248.5Q56.7 248.8 56.6 249.1ZM63.5 252.1L63.5 252.1Q62.8 252.1 62.3 251.9Q61.8 251.7 61.5 251.2Q61.2 250.8 61.1 250.3L61.1 250.3L62.0 250.3Q62.0 250.7 62.2 250.9Q62.5 251.1 62.8 251.3Q63.1 251.4 63.5 251.4L63.5 251.4Q64.0 251.4 64.3 251.2Q64.7 251.1 64.9 250.8Q65.1 250.5 65.1 250.2L65.1 250.2Q65.1 249.9 64.9 249.7Q64.7 249.5 64.4 249.4Q64.1 249.2 63.8 249.1L63.8 249.1L63.0 248.9Q62.2 248.7 61.8 248.3Q61.3 247.9 61.3 247.2L61.3 247.2Q61.3 246.7 61.6 246.2Q61.9 245.8 62.4 245.6Q62.9 245.4 63.6 245.4L63.6 245.4Q64.2 245.4 64.7 245.6Q65.2 245.8 65.5 246.2Q65.8 246.6 65.8 247.1L65.8 247.1L65.0 247.1Q64.9 246.6 64.5 246.4Q64.1 246.1 63.5 246.1L63.5 246.1Q63.1 246.1 62.8 246.2Q62.5 246.4 62.3 246.6Q62.1 246.9 62.1 247.2L62.1 247.2Q62.1 247.5 62.3 247.7Q62.6 247.9 62.9 248.0Q63.1 248.2 63.4 248.2L63.4 248.2L64.0 248.4Q64.3 248.5 64.6 248.6Q64.9 248.7 65.2 248.9Q65.5 249.1 65.7 249.4Q65.9 249.8 65.9 250.2L65.9 250.2Q65.9 250.8 65.6 251.2Q65.3 251.6 64.8 251.9Q64.3 252.1 63.5 252.1ZM69.1 252.1L69.1 252.1Q68.4 252.1 67.9 251.8Q67.4 251.5 67.1 250.9Q66.9 250.3 66.9 249.6L66.9 249.6Q66.9 248.8 67.1 248.2Q67.4 247.7 67.9 247.3Q68.4 247.0 69.1 247.0L69.1 247.0Q69.4 247.0 69.8 247.1Q70.1 247.2 70.3 247.4Q70.6 247.6 70.8 247.8Q71.0 248.1 71.1 248.4L71.1 248.4L70.3 248.6Q70.3 248.4 70.2 248.3Q70.1 248.1 69.9 248.0Q69.7 247.9 69.5 247.8Q69.3 247.7 69.1 247.7L69.1 247.7Q68.6 247.7 68.3 248.0Q68.0 248.2 67.8 248.7Q67.7 249.1 67.7 249.6L67.7 249.6Q67.7 250.1 67.8 250.5Q68.0 250.9 68.3 251.1Q68.6 251.4 69.1 251.4L69.1 251.4Q69.3 251.4 69.5 251.3Q69.8 251.3 69.9 251.1Q70.1 251.0 70.2 250.9Q70.3 250.7 70.3 250.5L70.3 250.5L71.1 250.7Q71.0 251.0 70.8 251.3Q70.6 251.6 70.4 251.7Q70.1 251.9 69.8 252.0Q69.5 252.1 69.1 252.1ZM73.0 252L72.2 252L72.2 247.1L73.0 247.1L73.0 247.8L73.1 247.8Q73.2 247.5 73.5 247.2Q73.9 247.0 74.3 247.0L74.3 247.0Q74.4 247.0 74.5 247.0Q74.7 247.0 74.7 247.0L74.7 247.0L74.7 247.8Q74.7 247.8 74.6 247.8Q74.4 247.8 74.3 247.8L74.3 247.8Q73.9 247.8 73.6 247.9Q73.3 248.1 73.2 248.3Q73.0 248.6 73.0 248.9L73.0 248.9L73.0 252ZM76.4 252L75.6 252L75.6 247.1L76.4 247.1L76.4 252ZM76.0 246.3L76.0 246.3Q75.8 246.3 75.6 246.1Q75.5 246.0 75.5 245.8L75.5 245.8Q75.5 245.5 75.6 245.4Q75.8 245.2 76.0 245.2L76.0 245.2Q76.3 245.2 76.4 245.4Q76.6 245.5 76.6 245.8L76.6 245.8Q76.6 246.0 76.4 246.1Q76.3 246.3 76.0 246.3ZM78.6 253.8L77.8 253.8L77.8 247.1L78.6 247.1L78.6 247.9L78.7 247.9Q78.7 247.7 78.9 247.5Q79.0 247.3 79.3 247.2Q79.6 247.0 80.1 247.0L80.1 247.0Q80.7 247.0 81.2 247.3Q81.6 247.6 81.9 248.2Q82.2 248.8 82.2 249.6L82.2 249.6Q82.2 250.3 81.9 250.9Q81.6 251.5 81.2 251.8Q80.7 252.1 80.1 252.1L80.1 252.1Q79.6 252.1 79.3 251.9Q79.0 251.8 78.9 251.6Q78.7 251.4 78.7 251.2L78.7 251.2L78.6 251.2L78.6 253.8ZM80.0 251.4L80.0 251.4Q80.4 251.4 80.7 251.1Q81.0 250.9 81.2 250.5Q81.4 250.1 81.4 249.5L81.4 249.5Q81.4 249.0 81.2 248.6Q81.1 248.2 80.7 248.0Q80.4 247.7 80.0 247.7L80.0 247.7Q79.5 247.7 79.2 248.0Q78.9 248.2 78.7 248.6Q78.6 249.0 78.6 249.5L78.6 249.5Q78.6 250.1 78.7 250.5Q78.9 250.9 79.2 251.2Q79.5 251.4 80.0 251.4ZM84.2 247.1L85.2 247.1L85.2 247.8L84.2 247.8L84.2 250.7Q84.2 251.1 84.4 251.2Q84.5 251.4 84.8 251.4L84.8 251.4Q84.9 251.4 85.0 251.3Q85.1 251.3 85.2 251.3L85.2 251.3L85.4 252.0Q85.3 252.0 85.1 252.0Q84.9 252.1 84.8 252.1L84.8 252.1Q84.2 252.1 83.8 251.7Q83.4 251.4 83.4 250.8L83.4 250.8L83.4 247.8L82.7 247.8L82.7 247.1L83.4 247.1L83.4 245.9L84.2 245.9L84.2 247.1Z "/></g><defs><clipPath id="satori_bc-id-1-3-1" clip-path="url(#satori_cp-id)"><path x="20" y="272" width="340" height="55" d="M28,272 h324 a8,8 0 0 1 8,8 v39 a8,8 0 0 1 -8,8 h-324 a8,8 0 0 1 -8,-8 v-39 a8,8 0 0 1 8,-8"/></clipPath></defs><mask id="satori_om-id-1-3-1"><rect x="21" y="273" width="338" height="53" fill="#fff" mask="url(#satori_om-id)"/><path width="340" height="55" fill="none" stroke="#000" stroke-width="2" d="M22.343,274.343 A8,8 0 0 1 28,272 h324 a8,8 0 0 1 8,8 v39 a8,8 0 0 1 -8,8 h-324 a8,8 0 0 1 -8,-8 v-39 A8,8 0 0 1 22.343,274.343"/></mask><path x="20" y="272" width="340" height="55" fill="#0d1117" d="M28,272 h324 a8,8 0 0 1 8,8 v39 a8,8 0 0 1 -8,8 h-324 a8,8 0 0 1 -8,-8 v-39 a8,8 0 0 1 8,-8" clip-path="url(#satori_cp-id)" mask="url(#satori_om-id)"/><path width="340" height="55" clip-path="url(#satori_bc-id-1-3-1)" fill="none" stroke="#1a2332" stroke-width="2" d="M22.343,274.343 A8,8 0 0 1 28,272 h324 a8,8 0 0 1 8,8 v39 a8,8 0 0 1 -8,8 h-324 a8,8 0 0 1 -8,-8 v-39 A8,8 0 0 1 22.343,274.343"/><mask id="satori_om-id-1-3-1-0"><rect x="32" y="282" width="316" height="15" fill="#fff" mask="url(#satori_om-id)"/></mask><mask id="satori_om-id-1-3-1-0-0"><rect x="32" y="282" width="45" height="15" fill="#fff" mask="url(#satori_om-id)"/></mask><g mask="url(#satori_om-id)" clip-path="url(#satori_cp-id)"><path fill="#58a6ff" d="M35.7 294.1L35.7 294.1Q34.7 294.1 34.0 293.7Q33.3 293.3 32.9 292.5Q32.5 291.8 32.5 290.8L32.5 290.8Q32.5 289.7 32.9 289.0Q33.3 288.2 34.0 287.8Q34.7 287.4 35.7 287.4L35.7 287.4Q36.3 287.4 36.8 287.5Q37.2 287.7 37.6 288.0Q38.0 288.2 38.3 288.6Q38.5 289.0 38.6 289.5L38.6 289.5L37.0 289.9Q36.9 289.6 36.8 289.4Q36.7 289.2 36.5 289.0Q36.4 288.9 36.2 288.8Q35.9 288.8 35.7 288.8L35.7 288.8Q35.2 288.8 34.9 289.0Q34.6 289.3 34.4 289.7Q34.3 290.2 34.3 290.7L34.3 290.7Q34.3 291.3 34.4 291.8Q34.6 292.2 34.9 292.5Q35.2 292.7 35.7 292.7L35.7 292.7Q35.9 292.7 36.2 292.7Q36.4 292.6 36.5 292.4Q36.7 292.3 36.8 292.1Q36.9 291.9 37.0 291.6L37.0 291.6L38.6 291.9Q38.5 292.4 38.3 292.8Q38.0 293.2 37.6 293.5Q37.3 293.8 36.8 294.0Q36.3 294.1 35.7 294.1ZM42.7 294.1L42.7 294.1Q41.8 294.1 41.0 293.7Q40.3 293.3 39.9 292.5Q39.5 291.8 39.5 290.8L39.5 290.8Q39.5 289.7 39.9 289.0Q40.3 288.2 41.0 287.8Q41.8 287.4 42.7 287.4L42.7 287.4Q43.7 287.4 44.4 287.8Q45.2 288.2 45.6 289.0Q45.9 289.7 45.9 290.8L45.9 290.8Q45.9 291.8 45.6 292.5Q45.2 293.3 44.4 293.7Q43.7 294.1 42.7 294.1ZM42.7 292.7L42.7 292.7Q43.2 292.7 43.5 292.5Q43.8 292.2 44 291.8Q44.2 291.3 44.2 290.7L44.2 290.7Q44.2 290.2 44 289.7Q43.8 289.3 43.5 289.0Q43.2 288.8 42.7 288.8L42.7 288.8Q42.3 288.8 42.0 289.0Q41.6 289.3 41.5 289.7Q41.3 290.2 41.3 290.7L41.3 290.7Q41.3 291.3 41.5 291.8Q41.6 292.2 42.0 292.5Q42.3 292.7 42.7 292.7ZM50.1 294.1L50.1 294.1Q49.1 294.1 48.4 293.7Q47.7 293.3 47.3 292.5Q46.9 291.8 46.9 290.8L46.9 290.8Q46.9 289.7 47.3 289.0Q47.7 288.2 48.4 287.8Q49.1 287.4 50.1 287.4L50.1 287.4Q51.1 287.4 51.8 287.8Q52.5 288.2 52.9 289.0Q53.3 289.7 53.3 290.8L53.3 290.8Q53.3 291.8 52.9 292.5Q52.5 293.3 51.8 293.7Q51.1 294.1 50.1 294.1ZM50.1 292.7L50.1 292.7Q50.6 292.7 50.9 292.5Q51.2 292.2 51.4 291.8Q51.5 291.3 51.5 290.7L51.5 290.7Q51.5 290.2 51.4 289.7Q51.2 289.3 50.9 289.0Q50.6 288.8 50.1 288.8L50.1 288.8Q49.6 288.8 49.3 289.0Q49.0 289.3 48.8 289.7Q48.7 290.2 48.7 290.7L48.7 290.7Q48.7 291.3 48.8 291.8Q49.0 292.2 49.3 292.5Q49.6 292.7 50.1 292.7ZM54.5 285.3L56.3 285.3L56.3 294L54.5 294L54.5 285.3ZM57.9 289.7L61.8 289.7L61.8 291.1L57.9 291.1L57.9 289.7ZM63.4 285.3L65.2 285.3L65.2 294L63.4 294L63.4 285.3ZM68.4 294L66.6 294L66.6 287.4L68.4 287.4L68.4 294ZM67.5 286.6L67.5 286.6Q67.1 286.6 66.8 286.3Q66.6 286.1 66.6 285.7L66.6 285.7Q66.6 285.3 66.8 285.1Q67.1 284.8 67.5 284.8L67.5 284.8Q67.9 284.8 68.2 285.0Q68.5 285.3 68.5 285.7L68.5 285.7Q68.5 286.1 68.2 286.3Q67.9 286.6 67.5 286.6ZM73.6 294.1L73.6 294.1Q73.0 294.1 72.7 293.9Q72.3 293.7 72.1 293.5Q71.8 293.2 71.7 293.0L71.7 293.0L71.6 293.0L71.6 294L69.9 294L69.9 285.3L71.7 285.3L71.7 288.6L71.7 288.6Q71.8 288.3 72.1 288.0Q72.3 287.7 72.7 287.6Q73.0 287.4 73.6 287.4L73.6 287.4Q74.3 287.4 74.9 287.7Q75.5 288.1 75.9 288.9Q76.2 289.6 76.2 290.7L76.2 290.7Q76.2 291.8 75.9 292.6Q75.5 293.3 74.9 293.7Q74.3 294.1 73.6 294.1ZM73.0 292.7L73.0 292.7Q73.5 292.7 73.8 292.4Q74.1 292.2 74.3 291.8Q74.4 291.3 74.4 290.7L74.4 290.7Q74.4 290.2 74.3 289.7Q74.1 289.3 73.8 289.0Q73.5 288.8 73.0 288.8L73.0 288.8Q72.6 288.8 72.3 289.0Q71.9 289.3 71.8 289.7Q71.6 290.1 71.6 290.7L71.6 290.7Q71.6 291.3 71.8 291.8Q71.9 292.2 72.3 292.5Q72.6 292.7 73.0 292.7Z "/></g><mask id="satori_om-id-1-3-1-0-1"><rect x="325" y="284" width="23" height="12" fill="#fff" mask="url(#satori_om-id)"/></mask><mask id="satori_om-id-1-3-1-0-1-0"><rect x="325" y="284" width="7" height="12" fill="#fff" mask="url(#satori_om-id)"/></mask><g mask="url(#satori_om-id)" clip-path="url(#satori_cp-id)"><path fill="#ffd700" d="M330.0 284.9L330.0 296.0L326.6 296.0L326.6 284.9L330.0 284.9ZM328.6 294.3L327.5 294.9L327.5 295.3L329.1 295.3L329.1 294.9L328.0 294.9L329.1 294.3L329.1 294L327.5 294L327.5 294.3L328.6 294.3ZM329.1 292.4L327.5 292.4L327.5 293.7L329.1 293.7L329.1 292.4ZM328.8 292.8L328.8 293.4L327.8 293.4L327.8 292.8L328.8 292.8ZM327.8 290.6L327.5 290.6L327.5 291.8L329.1 291.8L329.1 290.6L328.1 290.6L328.1 291.2L328.4 291.2L328.4 290.9L328.8 290.9L328.8 291.5L327.8 291.5L327.8 290.6ZM328.8 289.9L327.5 289.9L327.5 290.3L329.1 290.3L329.1 289.2L328.8 289.2L328.8 289.9ZM328.1 289.3L327.5 289.3L327.5 289.6L328.4 289.6L328.4 288.8L329.1 288.8L329.1 288.5L327.5 288.5L327.5 288.8L328.1 288.8L328.1 289.3ZM328.1 287.4L328.1 287.9L327.8 287.9L327.8 287.4L328.1 287.4ZM328.4 287.1L327.5 287.1L327.5 288.2L329.1 288.2L329.1 287.9L328.4 287.9L328.4 287.1ZM328.0 286.5L327.5 286.5L327.5 286.8L329.1 286.8L329.1 286.5L328.4 286.5L328.4 286.0L329.1 286.0L329.1 285.7L327.5 285.7L327.5 286.0L328.0 286.0L328.0 286.5Z "/></g><mask id="satori_om-id-1-3-1-0-1-1"><rect x="335" y="284" width="13" height="12" fill="#fff" mask="url(#satori_om-id)"/></mask><g mask="url(#satori_om-id)" clip-path="url(#satori_cp-id)"><path fill="#6e7681" d="M338.1 294.1L338.1 294.1Q337.4 294.1 336.8 293.9Q336.3 293.6 336.0 293.2Q335.6 292.7 335.6 292.2L335.6 292.2L336.5 292.2Q336.6 292.5 336.8 292.8Q337.0 293.0 337.3 293.1Q337.7 293.3 338.1 293.3L338.1 293.3Q338.5 293.3 338.9 293.1Q339.3 293.0 339.5 292.7Q339.7 292.4 339.7 292.0L339.7 292.0Q339.7 291.6 339.5 291.3Q339.3 291.0 338.9 290.8Q338.5 290.7 338.0 290.7L338.0 290.7L337.4 290.7L337.4 289.9L338.0 289.9Q338.4 289.9 338.7 289.7Q339.0 289.6 339.2 289.3Q339.4 289.0 339.4 288.6L339.4 288.6Q339.4 288.3 339.3 288.0Q339.1 287.7 338.8 287.6Q338.5 287.4 338.1 287.4L338.1 287.4Q337.7 287.4 337.4 287.6Q337.1 287.7 336.9 288.0Q336.7 288.2 336.7 288.6L336.7 288.6L335.8 288.6Q335.8 288.0 336.1 287.5Q336.4 287.1 337.0 286.9Q337.5 286.6 338.1 286.6L338.1 286.6Q338.8 286.6 339.3 286.9Q339.8 287.2 340.1 287.6Q340.3 288.1 340.3 288.6L340.3 288.6Q340.3 289.2 340.0 289.6Q339.7 290.1 339.1 290.2L339.1 290.2L339.1 290.3Q339.6 290.4 339.9 290.6Q340.2 290.8 340.4 291.2Q340.6 291.6 340.6 292.0L340.6 292.0Q340.6 292.6 340.3 293.1Q339.9 293.6 339.4 293.8Q338.8 294.1 338.1 294.1ZM346.6 294L341.9 294L341.9 293.3L344.3 290.7Q344.8 290.3 345.0 289.9Q345.3 289.6 345.4 289.3Q345.6 289.0 345.6 288.7L345.6 288.7Q345.6 288.3 345.4 288.0Q345.2 287.7 344.9 287.6Q344.6 287.4 344.2 287.4L344.2 287.4Q343.8 287.4 343.5 287.6Q343.2 287.8 343.0 288.1Q342.8 288.4 342.8 288.8L342.8 288.8L341.9 288.8Q341.9 288.1 342.2 287.7Q342.5 287.2 343.1 286.9Q343.6 286.6 344.2 286.6L344.2 286.6Q344.9 286.6 345.4 286.9Q345.9 287.2 346.2 287.6Q346.4 288.1 346.4 288.7L346.4 288.7Q346.4 289.1 346.3 289.4Q346.2 289.8 345.8 290.3Q345.4 290.7 344.8 291.4L344.8 291.4L343.2 293.1L343.2 293.2L346.6 293.2L346.6 294Z "/></g><mask id="satori_om-id-1-3-1-1"><rect x="32" y="302" width="316" height="15" fill="#fff" mask="url(#satori_om-id)"/></mask><mask id="satori_om-id-1-3-1-1-0"><rect x="32" y="302" width="60" height="15" fill="#fff" mask="url(#satori_om-id)"/></mask><path x="32" y="302" width="60" height="15" fill="#161b22" d="M36,302 h52 a4,4 0 0 1 4,4 v7 a4,4 0 0 1 -4,4 h-52 a4,4 0 0 1 -4,-4 v-7 a4,4 0 0 1 4,-4" clip-path="url(#satori_cp-id)" mask="url(#satori_om-id)"/><g mask="url(#satori_om-id)" clip-path="url(#satori_cp-id)"><path fill="#4a5568" d="M41.4 313.1L41.4 313.1Q40.5 313.1 40.0 312.6Q39.4 312.1 39.4 311.1L39.4 311.1L39.4 310.8L40.3 310.8L40.3 311.1Q40.3 311.7 40.6 312.0Q40.9 312.4 41.4 312.4L41.4 312.4Q41.9 312.4 42.2 312.0Q42.5 311.7 42.5 311.1L42.5 311.1L42.5 306.5L43.3 306.5L43.3 311.1Q43.3 312.1 42.8 312.6Q42.3 313.1 41.4 313.1ZM46.2 313.1L46.2 313.1Q45.7 313.1 45.4 312.9Q45.0 312.8 44.8 312.4Q44.5 312.1 44.5 311.6L44.5 311.6Q44.5 311.2 44.7 310.9Q44.9 310.7 45.1 310.5Q45.4 310.4 45.8 310.3Q46.1 310.2 46.4 310.2L46.4 310.2Q46.9 310.1 47.2 310.1Q47.4 310.0 47.6 310.0Q47.7 309.9 47.7 309.7L47.7 309.7L47.7 309.7Q47.7 309.4 47.6 309.2Q47.5 308.9 47.2 308.8Q47.0 308.7 46.7 308.7L46.7 308.7Q46.3 308.7 46.1 308.8Q45.8 308.9 45.7 309.1Q45.5 309.3 45.4 309.4L45.4 309.4L44.7 309.2Q44.9 308.7 45.2 308.5Q45.5 308.2 45.9 308.1Q46.3 308.0 46.7 308.0L46.7 308.0Q46.9 308.0 47.2 308.1Q47.5 308.1 47.8 308.3Q48.1 308.5 48.3 308.8Q48.5 309.2 48.5 309.8L48.5 309.8L48.5 313L47.7 313L47.7 312.3L47.7 312.3Q47.6 312.5 47.4 312.7Q47.2 312.9 46.9 313.0Q46.6 313.1 46.2 313.1ZM46.3 312.4L46.3 312.4Q46.8 312.4 47.1 312.2Q47.4 312.1 47.5 311.8Q47.7 311.5 47.7 311.2L47.7 311.2L47.7 310.5Q47.7 310.6 47.5 310.6Q47.3 310.7 47.1 310.7Q46.9 310.8 46.7 310.8Q46.5 310.8 46.4 310.8L46.4 310.8Q46.1 310.9 45.9 310.9Q45.6 311.0 45.5 311.2Q45.3 311.4 45.3 311.6L45.3 311.6Q45.3 311.9 45.5 312.1Q45.6 312.2 45.8 312.3Q46.0 312.4 46.3 312.4ZM52.1 313L51.3 313L49.4 308.1L50.3 308.1L51.3 311.0Q51.5 311.5 51.6 311.9L51.6 311.9Q51.7 312.1 51.7 312.3L51.7 312.3Q51.8 312.1 51.8 311.9L51.8 311.9Q51.9 311.5 52.1 311.0L52.1 311.0L53.1 308.1L54.0 308.1L52.1 313ZM56.3 313.1L56.3 313.1Q55.9 313.1 55.5 312.9Q55.1 312.8 54.9 312.4Q54.6 312.1 54.6 311.6L54.6 311.6Q54.6 311.2 54.8 310.9Q55.0 310.7 55.3 310.5Q55.5 310.4 55.9 310.3Q56.2 310.2 56.6 310.2L56.6 310.2Q57.0 310.1 57.3 310.1Q57.5 310.0 57.7 310.0Q57.8 309.9 57.8 309.7L57.8 309.7L57.8 309.7Q57.8 309.4 57.7 309.2Q57.6 308.9 57.4 308.8Q57.1 308.7 56.8 308.7L56.8 308.7Q56.4 308.7 56.2 308.8Q55.9 308.9 55.8 309.1Q55.6 309.3 55.5 309.4L55.5 309.4L54.8 309.2Q55.0 308.7 55.3 308.5Q55.6 308.2 56.0 308.1Q56.4 308.0 56.8 308.0L56.8 308.0Q57.0 308.0 57.3 308.1Q57.6 308.1 57.9 308.3Q58.2 308.5 58.4 308.8Q58.6 309.2 58.6 309.8L58.6 309.8L58.6 313L57.8 313L57.8 312.3L57.8 312.3Q57.7 312.5 57.5 312.7Q57.3 312.9 57.0 313.0Q56.7 313.1 56.3 313.1ZM56.5 312.4L56.5 312.4Q56.9 312.4 57.2 312.2Q57.5 312.1 57.7 311.8Q57.8 311.5 57.8 311.2L57.8 311.2L57.8 310.5Q57.8 310.6 57.6 310.6Q57.4 310.7 57.2 310.7Q57.0 310.8 56.8 310.8Q56.6 310.8 56.5 310.8L56.5 310.8Q56.2 310.9 56.0 310.9Q55.7 311.0 55.6 311.2Q55.4 311.4 55.4 311.6L55.4 311.6Q55.4 311.9 55.6 312.1Q55.7 312.2 55.9 312.3Q56.2 312.4 56.5 312.4ZM62.2 313.1L62.2 313.1Q61.5 313.1 61.0 312.9Q60.4 312.7 60.1 312.2Q59.9 311.8 59.8 311.3L59.8 311.3L60.7 311.3Q60.7 311.7 60.9 311.9Q61.1 312.1 61.5 312.3Q61.8 312.4 62.2 312.4L62.2 312.4Q62.6 312.4 63.0 312.2Q63.3 312.1 63.5 311.8Q63.8 311.5 63.8 311.2L63.8 311.2Q63.8 310.9 63.6 310.7Q63.4 310.5 63.1 310.4Q62.8 310.2 62.5 310.1L62.5 310.1L61.7 309.9Q60.9 309.7 60.4 309.3Q60.0 308.9 60.0 308.2L60.0 308.2Q60.0 307.7 60.3 307.2Q60.6 306.8 61.1 306.6Q61.6 306.4 62.2 306.4L62.2 306.4Q62.9 306.4 63.4 306.6Q63.9 306.8 64.2 307.2Q64.5 307.6 64.5 308.1L64.5 308.1L63.7 308.1Q63.6 307.6 63.2 307.4Q62.8 307.1 62.2 307.1L62.2 307.1Q61.8 307.1 61.5 307.2Q61.2 307.4 61.0 307.6Q60.8 307.9 60.8 308.2L60.8 308.2Q60.8 308.5 61.0 308.7Q61.2 308.9 61.5 309.0Q61.8 309.2 62.1 309.2L62.1 309.2L62.7 309.4Q63.0 309.5 63.3 309.6Q63.6 309.7 63.9 309.9Q64.2 310.1 64.4 310.4Q64.6 310.8 64.6 311.2L64.6 311.2Q64.6 311.8 64.3 312.2Q64.0 312.6 63.5 312.9Q62.9 313.1 62.2 313.1ZM67.8 313.1L67.8 313.1Q67.1 313.1 66.6 312.8Q66.1 312.5 65.8 311.9Q65.5 311.3 65.5 310.6L65.5 310.6Q65.5 309.8 65.8 309.2Q66.1 308.7 66.6 308.3Q67.1 308.0 67.8 308.0L67.8 308.0Q68.1 308.0 68.4 308.1Q68.8 308.2 69.0 308.4Q69.3 308.6 69.5 308.8Q69.7 309.1 69.8 309.4L69.8 309.4L69.0 309.6Q68.9 309.4 68.8 309.3Q68.7 309.1 68.6 309.0Q68.4 308.9 68.2 308.8Q68.0 308.7 67.8 308.7L67.8 308.7Q67.3 308.7 67.0 309.0Q66.6 309.2 66.5 309.7Q66.3 310.1 66.3 310.6L66.3 310.6Q66.3 311.1 66.5 311.5Q66.6 311.9 67.0 312.1Q67.3 312.4 67.8 312.4L67.8 312.4Q68.0 312.4 68.2 312.3Q68.4 312.3 68.6 312.1Q68.8 312.0 68.9 311.9Q69.0 311.7 69.0 311.5L69.0 311.5L69.8 311.7Q69.7 312.0 69.5 312.3Q69.3 312.6 69.0 312.7Q68.8 312.9 68.5 313.0Q68.1 313.1 67.8 313.1ZM71.7 313L70.9 313L70.9 308.1L71.7 308.1L71.7 308.8L71.7 308.8Q71.9 308.5 72.2 308.2Q72.6 308.0 73.0 308.0L73.0 308.0Q73.1 308.0 73.2 308.0Q73.3 308.0 73.4 308.0L73.4 308.0L73.4 308.8Q73.4 308.8 73.2 308.8Q73.1 308.8 72.9 308.8L72.9 308.8Q72.6 308.8 72.3 308.9Q72.0 309.1 71.9 309.3Q71.7 309.6 71.7 309.9L71.7 309.9L71.7 313ZM75.1 313L74.3 313L74.3 308.1L75.1 308.1L75.1 313ZM74.7 307.3L74.7 307.3Q74.5 307.3 74.3 307.1Q74.2 307.0 74.2 306.8L74.2 306.8Q74.2 306.5 74.3 306.4Q74.5 306.2 74.7 306.2L74.7 306.2Q74.9 306.2 75.1 306.4Q75.3 306.5 75.3 306.8L75.3 306.8Q75.3 307.0 75.1 307.1Q74.9 307.3 74.7 307.3ZM77.3 314.8L76.5 314.8L76.5 308.1L77.2 308.1L77.2 308.9L77.3 308.9Q77.4 308.7 77.6 308.5Q77.7 308.3 78.0 308.2Q78.3 308.0 78.8 308.0L78.8 308.0Q79.4 308.0 79.8 308.3Q80.3 308.6 80.6 309.2Q80.8 309.8 80.8 310.6L80.8 310.6Q80.8 311.3 80.6 311.9Q80.3 312.5 79.8 312.8Q79.4 313.1 78.8 313.1L78.8 313.1Q78.3 313.1 78.0 312.9Q77.7 312.8 77.6 312.6Q77.4 312.4 77.3 312.2L77.3 312.2L77.3 312.2L77.3 314.8ZM78.6 312.4L78.6 312.4Q79.1 312.4 79.4 312.1Q79.7 311.9 79.9 311.5Q80.0 311.1 80.0 310.5L80.0 310.5Q80.0 310.0 79.9 309.6Q79.7 309.2 79.4 309.0Q79.1 308.7 78.6 308.7L78.6 308.7Q78.2 308.7 77.9 309.0Q77.6 309.2 77.4 309.6Q77.3 310.0 77.3 310.5L77.3 310.5Q77.3 311.1 77.4 311.5Q77.6 311.9 77.9 312.2Q78.2 312.4 78.6 312.4ZM82.9 308.1L83.9 308.1L83.9 308.8L82.9 308.8L82.9 311.7Q82.9 312.1 83.0 312.2Q83.2 312.4 83.5 312.4L83.5 312.4Q83.6 312.4 83.7 312.3Q83.8 312.3 83.9 312.3L83.9 312.3L84.1 313.0Q83.9 313.0 83.8 313.0Q83.6 313.1 83.5 313.1L83.5 313.1Q82.8 313.1 82.5 312.7Q82.1 312.4 82.1 311.8L82.1 311.8L82.1 308.8L81.4 308.8L81.4 308.1L82.1 308.1L82.1 306.9L82.9 306.9L82.9 308.1Z "/></g><defs><clipPath id="satori_bc-id-1-3-2" clip-path="url(#satori_cp-id)"><path x="20" y="333" width="340" height="55" d="M28,333 h324 a8,8 0 0 1 8,8 v39 a8,8 0 0 1 -8,8 h-324 a8,8 0 0 1 -8,-8 v-39 a8,8 0 0 1 8,-8"/></clipPath></defs><mask id="satori_om-id-1-3-2"><rect x="21" y="334" width="338" height="53" fill="#fff" mask="url(#satori_om-id)"/><path width="340" height="55" fill="none" stroke="#000" stroke-width="2" d="M22.343,335.343 A8,8 0 0 1 28,333 h324 a8,8 0 0 1 8,8 v39 a8,8 0 0 1 -8,8 h-324 a8,8 0 0 1 -8,-8 v-39 A8,8 0 0 1 22.343,335.343"/></mask><path x="20" y="333" width="340" height="55" fill="#0d1117" d="M28,333 h324 a8,8 0 0 1 8,8 v39 a8,8 0 0 1 -8,8 h-324 a8,8 0 0 1 -8,-8 v-39 a8,8 0 0 1 8,-8" clip-path="url(#satori_cp-id)" mask="url(#satori_om-id)"/><path width="340" height="55" clip-path="url(#satori_bc-id-1-3-2)" fill="none" stroke="#1a2332" stroke-width="2" d="M22.343,335.343 A8,8 0 0 1 28,333 h324 a8,8 0 0 1 8,8 v39 a8,8 0 0 1 -8,8 h-324 a8,8 0 0 1 -8,-8 v-39 A8,8 0 0 1 22.343,335.343"/><mask id="satori_om-id-1-3-2-0"><rect x="32" y="343" width="316" height="15" fill="#fff" mask="url(#satori_om-id)"/></mask><mask id="satori_om-id-1-3-2-0-0"><rect x="32" y="343" width="52" height="15" fill="#fff" mask="url(#satori_om-id)"/></mask><g mask="url(#satori_om-id)" clip-path="url(#satori_cp-id)"><path fill="#58a6ff" d="M34.5 355L32.8 355L32.8 348.4L34.4 348.4L34.4 349.6L34.5 349.6Q34.7 349.0 35.1 348.7Q35.6 348.4 36.1 348.4L36.1 348.4Q36.2 348.4 36.4 348.4Q36.6 348.4 36.7 348.4L36.7 348.4L36.7 350.0Q36.6 349.9 36.3 349.9Q36.1 349.9 35.9 349.9L35.9 349.9Q35.5 349.9 35.2 350.1Q34.9 350.2 34.7 350.6Q34.5 350.9 34.5 351.3L34.5 351.3L34.5 355ZM39.9 355.1L39.9 355.1Q39.2 355.1 38.7 354.8Q38.2 354.5 37.9 353.9Q37.6 353.4 37.6 352.6L37.6 352.6L37.6 348.4L39.4 348.4L39.4 352.3Q39.4 352.9 39.7 353.3Q40.0 353.6 40.6 353.6L40.6 353.6Q41.0 353.6 41.2 353.5Q41.5 353.3 41.7 353.0Q41.8 352.7 41.8 352.2L41.8 352.2L41.8 348.4L43.6 348.4L43.6 355L41.9 355L41.9 353.6Q41.7 354.3 41.2 354.6L41.2 354.6Q40.7 355.1 39.9 355.1ZM47.7 355.1L47.7 355.1Q46.9 355.1 46.3 354.9Q45.7 354.7 45.3 354.2Q44.9 353.8 44.8 353.2L44.8 353.2L46.4 352.9Q46.6 353.4 46.9 353.6Q47.2 353.8 47.8 353.8L47.8 353.8Q48.3 353.8 48.6 353.6Q48.8 353.5 48.8 353.2L48.8 353.2Q48.8 352.9 48.6 352.7Q48.4 352.6 48.0 352.5L48.0 352.5L46.9 352.3Q45.9 352.1 45.5 351.6Q45.0 351.1 45.0 350.4L45.0 350.4Q45.0 349.8 45.3 349.3Q45.7 348.9 46.3 348.6Q46.9 348.4 47.7 348.4L47.7 348.4Q48.5 348.4 49.1 348.6Q49.6 348.8 50 349.2Q50.4 349.6 50.5 350.1L50.5 350.1L48.9 350.4Q48.8 350.1 48.5 349.8Q48.2 349.6 47.8 349.6L47.8 349.6Q47.3 349.6 47.0 349.8Q46.7 350.0 46.7 350.3L46.7 350.3Q46.7 350.5 46.9 350.7Q47.1 350.9 47.6 351.0L47.6 351.0L48.8 351.2Q49.7 351.4 50.2 351.8Q50.6 352.3 50.6 353.0L50.6 353.0Q50.6 353.6 50.3 354.1Q49.9 354.6 49.2 354.9Q48.6 355.1 47.7 355.1ZM53.9 348.4L55.1 348.4L55.1 349.8L53.9 349.8L53.9 353.1Q53.9 353.4 54.0 353.5Q54.1 353.7 54.5 353.7L54.5 353.7Q54.6 353.7 54.7 353.7Q54.9 353.6 55.0 353.6L55.0 353.6L55.3 354.9Q55.0 355.0 54.7 355.1Q54.4 355.1 54.1 355.1L54.1 355.1Q53.1 355.1 52.6 354.6Q52.1 354.1 52.1 353.2L52.1 353.2L52.1 349.8L51.2 349.8L51.2 348.4L52.1 348.4L52.1 346.9L53.9 346.9L53.9 348.4ZM56.3 350.7L60.3 350.7L60.3 352.1L56.3 352.1L56.3 350.7ZM63.9 348.4L65.1 348.4L65.1 349.8L63.9 349.8L63.9 353.1Q63.9 353.4 64.0 353.5Q64.1 353.7 64.5 353.7L64.5 353.7Q64.6 353.7 64.7 353.7Q64.9 353.6 65.0 353.6L65.0 353.6L65.3 354.9Q65.0 355.0 64.7 355.1Q64.4 355.1 64.1 355.1L64.1 355.1Q63.1 355.1 62.6 354.6Q62.1 354.1 62.1 353.2L62.1 353.2L62.1 349.8L61.2 349.8L61.2 348.4L62.1 348.4L62.1 346.9L63.9 346.9L63.9 348.4ZM69.2 355.1L69.2 355.1Q68.2 355.1 67.5 354.7Q66.7 354.3 66.3 353.5Q66.0 352.8 66.0 351.8L66.0 351.8Q66.0 350.7 66.3 350.0Q66.7 349.2 67.5 348.8Q68.2 348.4 69.2 348.4L69.2 348.4Q70.2 348.4 70.9 348.8Q71.6 349.2 72.0 350.0Q72.4 350.7 72.4 351.8L72.4 351.8Q72.4 352.8 72.0 353.5Q71.6 354.3 70.9 354.7Q70.2 355.1 69.2 355.1ZM69.2 353.7L69.2 353.7Q69.6 353.7 69.9 353.5Q70.3 353.2 70.4 352.8Q70.6 352.3 70.6 351.7L70.6 351.7Q70.6 351.2 70.4 350.7Q70.3 350.3 69.9 350.0Q69.6 349.8 69.2 349.8L69.2 349.8Q68.7 349.8 68.4 350.0Q68.1 350.3 67.9 350.7Q67.7 351.2 67.7 351.7L67.7 351.7Q67.7 352.3 67.9 352.8Q68.1 353.2 68.4 353.5Q68.7 353.7 69.2 353.7ZM76.5 355.1L76.5 355.1Q75.5 355.1 74.8 354.7Q74.1 354.3 73.7 353.5Q73.3 352.8 73.3 351.8L73.3 351.8Q73.3 350.7 73.7 350.0Q74.1 349.2 74.8 348.8Q75.5 348.4 76.5 348.4L76.5 348.4Q77.5 348.4 78.2 348.8Q78.9 349.2 79.3 350.0Q79.7 350.7 79.7 351.8L79.7 351.8Q79.7 352.8 79.3 353.5Q78.9 354.3 78.2 354.7Q77.5 355.1 76.5 355.1ZM76.5 353.7L76.5 353.7Q77.0 353.7 77.3 353.5Q77.6 353.2 77.8 352.8Q77.9 352.3 77.9 351.7L77.9 351.7Q77.9 351.2 77.8 350.7Q77.6 350.3 77.3 350.0Q77.0 349.8 76.5 349.8L76.5 349.8Q76.1 349.8 75.7 350.0Q75.4 350.3 75.3 350.7Q75.1 351.2 75.1 351.7L75.1 351.7Q75.1 352.3 75.3 352.8Q75.4 353.2 75.7 353.5Q76.1 353.7 76.5 353.7ZM80.9 346.3L82.7 346.3L82.7 355L80.9 355L80.9 346.3Z "/></g><mask id="satori_om-id-1-3-2-0-1"><rect x="327" y="345" width="21" height="12" fill="#fff" mask="url(#satori_om-id)"/></mask><mask id="satori_om-id-1-3-2-0-1-0"><rect x="327" y="345" width="7" height="12" fill="#fff" mask="url(#satori_om-id)"/></mask><g mask="url(#satori_om-id)" clip-path="url(#satori_cp-id)"><path fill="#ffd700" d="M332.0 345.9L332.0 357.0L328.6 357.0L328.6 345.9L332.0 345.9ZM330.6 355.3L329.5 355.9L329.5 356.3L331.1 356.3L331.1 355.9L330.0 355.9L331.1 355.3L331.1 355L329.5 355L329.5 355.3L330.6 355.3ZM331.1 353.4L329.5 353.4L329.5 354.7L331.1 354.7L331.1 353.4ZM330.8 353.8L330.8 354.4L329.8 354.4L329.8 353.8L330.8 353.8ZM329.8 351.6L329.5 351.6L329.5 352.8L331.1 352.8L331.1 351.6L330.1 351.6L330.1 352.2L330.4 352.2L330.4 351.9L330.8 351.9L330.8 352.5L329.8 352.5L329.8 351.6ZM330.8 350.9L329.5 350.9L329.5 351.3L331.1 351.3L331.1 350.2L330.8 350.2L330.8 350.9ZM330.1 350.3L329.5 350.3L329.5 350.6L330.4 350.6L330.4 349.8L331.1 349.8L331.1 349.5L329.5 349.5L329.5 349.8L330.1 349.8L330.1 350.3ZM330.1 348.4L330.1 348.9L329.8 348.9L329.8 348.4L330.1 348.4ZM330.4 348.1L329.5 348.1L329.5 349.2L331.1 349.2L331.1 348.9L330.4 348.9L330.4 348.1ZM330.0 347.5L329.5 347.5L329.5 347.8L331.1 347.8L331.1 347.5L330.4 347.5L330.4 347.0L331.1 347.0L331.1 346.7L329.5 346.7L329.5 347.0L330.0 347.0L330.0 347.5Z "/></g><mask id="satori_om-id-1-3-2-0-1-1"><rect x="337" y="345" width="11" height="12" fill="#fff" mask="url(#satori_om-id)"/></mask><g mask="url(#satori_om-id)" clip-path="url(#satori_cp-id)"><path fill="#6e7681" d="M339.1 347.7L340.2 347.7L340.2 355L339.3 355L339.3 348.6L339.2 348.6L337.5 349.9L337.5 348.9L339.1 347.7ZM344.2 355.1L344.2 355.1Q343.4 355.1 342.9 354.8Q342.3 354.6 342.0 354.1Q341.7 353.7 341.7 353.1L341.7 353.1Q341.7 352.6 341.8 352.2Q342.0 351.8 342.4 351.6Q342.7 351.3 343.1 351.2L343.1 351.2L343.1 351.2Q342.6 351.0 342.2 350.6Q341.9 350.1 341.9 349.6L341.9 349.6Q341.9 349.0 342.2 348.6Q342.5 348.1 343.0 347.9Q343.5 347.6 344.2 347.6L344.2 347.6Q344.8 347.6 345.3 347.9Q345.8 348.1 346.1 348.6Q346.4 349.0 346.4 349.6L346.4 349.6Q346.4 350.1 346.1 350.6Q345.8 351.0 345.2 351.2L345.2 351.2L345.2 351.2Q345.6 351.3 346.0 351.6Q346.3 351.8 346.5 352.2Q346.7 352.6 346.7 353.1L346.7 353.1Q346.7 353.7 346.3 354.1Q346.0 354.6 345.5 354.8Q344.9 355.1 344.2 355.1ZM344.2 354.3L344.2 354.3Q344.6 354.3 345.0 354.1Q345.3 354.0 345.5 353.7Q345.7 353.4 345.7 353.0L345.7 353.0Q345.7 352.6 345.5 352.3Q345.3 352.0 345.0 351.8Q344.6 351.6 344.2 351.6L344.2 351.6Q343.7 351.6 343.3 351.8Q343.0 352.0 342.8 352.3Q342.6 352.6 342.6 353.0L342.6 353.0Q342.6 353.4 342.8 353.7Q343.0 354.0 343.3 354.1Q343.7 354.3 344.2 354.3ZM344.2 350.9L344.2 350.9Q344.5 350.9 344.8 350.7Q345.1 350.6 345.3 350.3Q345.5 350.0 345.5 349.6L345.5 349.6Q345.5 349.3 345.3 349.0Q345.2 348.7 344.9 348.6Q344.6 348.4 344.2 348.4L344.2 348.4Q343.8 348.4 343.5 348.6Q343.2 348.7 343.0 349.0Q342.8 349.3 342.8 349.6L342.8 349.6Q342.8 350.0 343.0 350.3Q343.2 350.6 343.5 350.7Q343.8 350.9 344.2 350.9Z "/></g><mask id="satori_om-id-1-3-2-1"><rect x="32" y="363" width="316" height="15" fill="#fff" mask="url(#satori_om-id)"/></mask><mask id="satori_om-id-1-3-2-1-0"><rect x="32" y="363" width="33" height="15" fill="#fff" mask="url(#satori_om-id)"/></mask><path x="32" y="363" width="33" height="15" fill="#161b22" d="M36,363 h25 a4,4 0 0 1 4,4 v7 a4,4 0 0 1 -4,4 h-25 a4,4 0 0 1 -4,-4 v-7 a4,4 0 0 1 4,-4" clip-path="url(#satori_cp-id)" mask="url(#satori_om-id)"/><g mask="url(#satori_om-id)" clip-path="url(#satori_cp-id)"><path fill="#4a5568" d="M40.6 374L39.8 374L39.8 367.5L42.0 367.5Q42.8 367.5 43.3 367.7Q43.8 368.0 44.0 368.4Q44.3 368.9 44.3 369.5Q44.3 370.1 44.0 370.5Q43.8 371.0 43.3 371.2L43.3 371.2Q43.2 371.3 43.1 371.3L43.1 371.3L44.5 374L43.6 374L42.2 371.5Q42.1 371.5 42.0 371.5L42.0 371.5L40.6 371.5L40.6 374ZM40.6 368.2L40.6 370.7L42.0 370.7Q42.5 370.7 42.8 370.6Q43.1 370.4 43.3 370.1Q43.4 369.9 43.4 369.5L43.4 369.5Q43.4 369.1 43.3 368.8Q43.1 368.5 42.8 368.3Q42.5 368.2 42.0 368.2L42.0 368.2L40.6 368.2ZM47.2 374.1L47.2 374.1Q46.7 374.1 46.3 373.9Q45.9 373.7 45.7 373.2Q45.5 372.8 45.5 372.2L45.5 372.2L45.5 369.1L46.3 369.1L46.3 372.1Q46.3 372.7 46.6 373.0Q46.9 373.3 47.4 373.3L47.4 373.3Q47.7 373.3 48.0 373.2Q48.3 373.0 48.5 372.7Q48.6 372.4 48.6 372.0L48.6 372.0L48.6 369.1L49.4 369.1L49.4 374L48.7 374L48.7 373.1Q48.4 373.6 48.1 373.8L48.1 373.8Q47.7 374.1 47.2 374.1ZM52.5 374.1L52.5 374.1Q52.0 374.1 51.6 374.0Q51.2 373.8 50.9 373.5Q50.7 373.2 50.6 372.8L50.6 372.8L51.3 372.6Q51.4 373.0 51.7 373.2Q52.0 373.4 52.5 373.4L52.5 373.4Q53.0 373.4 53.3 373.2Q53.6 373.0 53.6 372.7L53.6 372.7Q53.6 372.4 53.4 372.2Q53.2 372.1 52.9 372.0L52.9 372.0L52.1 371.8Q51.4 371.6 51.1 371.3Q50.7 371.0 50.7 370.5L50.7 370.5Q50.7 370.0 51.0 369.7Q51.2 369.4 51.6 369.2Q52.0 369.0 52.6 369.0L52.6 369.0Q53.1 369.0 53.4 369.2Q53.8 369.3 54.0 369.6Q54.2 369.9 54.3 370.2L54.3 370.2L53.6 370.4Q53.5 370.1 53.3 369.9Q53.0 369.7 52.6 369.7L52.6 369.7Q52.1 369.7 51.8 369.9Q51.5 370.1 51.5 370.4L51.5 370.4Q51.5 370.7 51.7 370.8Q51.9 371.0 52.4 371.1L52.4 371.1L53.1 371.3Q53.8 371.4 54.1 371.8Q54.4 372.1 54.4 372.6L54.4 372.6Q54.4 373.0 54.2 373.4Q53.9 373.7 53.5 373.9Q53.1 374.1 52.5 374.1ZM56.5 369.1L57.5 369.1L57.5 369.8L56.5 369.8L56.5 372.7Q56.5 373.1 56.6 373.2Q56.7 373.4 57.1 373.4L57.1 373.4Q57.1 373.4 57.3 373.3Q57.4 373.3 57.5 373.3L57.5 373.3L57.6 374.0Q57.5 374.0 57.3 374.0Q57.2 374.1 57.0 374.1L57.0 374.1Q56.4 374.1 56.0 373.7Q55.7 373.4 55.7 372.8L55.7 372.8L55.7 369.8L55.0 369.8L55.0 369.1L55.7 369.1L55.7 367.9L56.5 367.9L56.5 369.1Z "/></g><mask id="satori_om-id-2"><rect x="4" y="648" width="372" height="28" fill="#fff" mask="url(#satori_om-id)"/></mask><rect x="4" y="648" width="372" height="28" fill="#111111" clip-path="url(#satori_cp-id)" mask="url(#satori_om-id)"/><mask id="satori_om-id-2-0"><rect x="140" y="660" width="100" height="4" fill="#fff" mask="url(#satori_om-id)"/></mask><path x="140" y="660" width="100" height="4" fill="#2a2a2a" d="M142,660 h96 a2,2 0 0 1 2,2 v0 a2,2 0 0 1 -2,2 h-96 a2,2 0 0 1 -2,-2 v0 a2,2 0 0 1 2,-2" clip-path="url(#satori_cp-id)" mask="url(#satori_om-id)"/></svg>