<svg width="800" height="110" viewBox="0 0 800 110" xmlns="http://www.w3.org/2000/svg"><defs><pattern id="satori_pattern_id_0" x="0" y="0" width="1" height="1" patternUnits="objectBoundingBox"><linearGradient id="satori_biid_0" x1="-0.05819659561416952" y1="0.4232479681030519" x2="1.0581965956141695" y2="0.5767520318969481" spreadMethod="pad"><stop offset="0%" stop-color="#090917"/><stop offset="50%" stop-color="#0d0d2e"/><stop offset="100%" stop-color="#090917"/></linearGradient><rect x="0" y="0" width="800" height="110" fill="url(#satori_biid_0)"/></pattern><clipPath id="satori_bc-id"><path x="0" y="0" width="800" height="110" d="M20,0 h760 a20,20 0 0 1 20,20 v70 a20,20 0 0 1 -20,20 h-760 a20,20 0 0 1 -20,-20 v-70 a20,20 0 0 1 20,-20"/></clipPath></defs><mask id="satori_om-id"><rect x="1" y="1" width="798" height="108" fill="#fff"/><path width="800" height="110" fill="none" stroke="#000" stroke-width="2" d="M5.8580000000000005,5.8580000000000005 A20,20 0 0 1 20,0 h760 a20,20 0 0 1 20,20 v70 a20,20 0 0 1 -20,20 h-760 a20,20 0 0 1 -20,-20 v-70 A20,20 0 0 1 5.8580000000000005,5.8580000000000005"/></mask><path x="0" y="0" width="800" height="110" fill="url(#satori_pattern_id_0)" d="M20,0 h760 a20,20 0 0 1 20,20 v70 a20,20 0 0 1 -20,20 h-760 a20,20 0 0 1 -20,-20 v-70 a20,20 0 0 1 20,-20"/><path width="800" height="110" clip-path="url(#satori_bc-id)" fill="none" stroke="#1c1c4e" stroke-width="2" d="M5.8580000000000005,5.8580000000000005 A20,20 0 0 1 20,0 h760 a20,20 0 0 1 20,20 v70 a20,20 0 0 1 -20,20 h-760 a20,20 0 0 1 -20,-20 v-70 A20,20 0 0 1 5.8580000000000005,5.8580000000000005"/><mask id="satori_om-id-0"><rect x="37" y="30" width="243" height="51" fill="#fff"/></mask><mask id="satori_om-id-0-0"><rect x="37" y="30" width="243" height="31" fill="#fff"/></mask><g  ><path fill="white" d="M47.1 55L42.7 55L37.6 36.1L41.8 36.1L44.0 45.4Q44.3 46.6 44.5 47.9Q44.8 49.2 45.0 50.5L45.0 50.5Q45.0 50.8 45.1 51.1L45.1 51.1Q45.1 50.8 45.2 50.5L45.2 50.5Q45.4 49.2 45.6 47.9Q45.9 46.6 46.2 45.4L46.2 45.4L48.5 36.1L52.5 36.1L54.8 45.4Q55.1 46.6 55.3 47.9Q55.6 49.2 55.8 50.5L55.8 50.5Q55.9 50.8 55.9 51.1L55.9 51.1Q55.9 50.8 56.0 50.5L56.0 50.5Q56.2 49.2 56.4 47.9Q56.7 46.6 56.9 45.4L56.9 45.4L59.1 36.1L63.4 36.1L58.3 55L53.8 55L51.3 45.3Q50.9 43.7 50.6 41.8L50.6 41.8Q50.6 41.3 50.5 40.7L50.5 40.7Q50.4 41.3 50.3 41.8L50.3 41.8Q50.1 43.6 49.6 45.3L49.6 45.3L47.1 55ZM72.0 55.3L72.0 55.3Q69.8 55.3 68.3 54.4Q66.7 53.4 65.9 51.8Q65.0 50.2 65.0 48.0L65.0 48.0Q65.0 45.8 65.9 44.1Q66.7 42.5 68.3 41.5Q69.8 40.6 72.0 40.6L72.0 40.6Q74.1 40.6 75.7 41.5Q77.2 42.5 78.1 44.1Q78.9 45.8 78.9 48.0L78.9 48.0Q78.9 50.2 78.1 51.8Q77.2 53.4 75.7 54.4Q74.1 55.3 72.0 55.3ZM72.0 52.3L72.0 52.3Q73.0 52.3 73.7 51.7Q74.3 51.2 74.7 50.2Q75.0 49.2 75.0 48.0L75.0 48.0Q75.0 46.7 74.7 45.7Q74.3 44.7 73.7 44.2Q73.0 43.6 72.0 43.6L72.0 43.6Q70.9 43.6 70.3 44.2Q69.6 44.7 69.2 45.7Q68.9 46.7 68.9 48.0L68.9 48.0Q68.9 49.2 69.2 50.2Q69.6 51.2 70.3 51.7Q70.9 52.3 72.0 52.3ZM88.4 55L84.5 55L80.3 40.8L84.3 40.8L85.5 46.0Q85.9 47.5 86.2 49.1L86.2 49.1Q86.5 50.2 86.7 51.5L86.7 51.5Q86.9 50.3 87.2 49.1L87.2 49.1Q87.6 47.5 87.9 46.0L87.9 46.0L89.2 40.8L92.7 40.8L94.0 46.0Q94.3 47.5 94.7 49.1L94.7 49.1Q95.0 50.3 95.2 51.5L95.2 51.5Q95.4 50.3 95.7 49.1L95.7 49.1Q96.0 47.5 96.4 46.0L96.4 46.0L97.6 40.8L101.6 40.8L97.4 55L93.5 55L92.0 49.5Q91.7 48.7 91.5 47.7Q91.3 46.7 91.1 45.7L91.1 45.7Q91.0 45.4 91.0 45.2L91.0 45.2Q90.9 45.4 90.9 45.7L90.9 45.7Q90.6 46.7 90.4 47.7Q90.2 48.7 90.0 49.5L90.0 49.5L88.4 55Z M118.2 55.3L118.2 55.3Q115.6 55.3 113.7 54.1Q111.7 53.0 110.5 50.8Q109.4 48.6 109.4 45.6L109.4 45.6Q109.4 42.5 110.5 40.3Q111.7 38.1 113.7 37.0Q115.7 35.8 118.2 35.8L118.2 35.8Q119.8 35.8 121.2 36.3Q122.6 36.7 123.6 37.6Q124.7 38.5 125.4 39.7Q126.1 41.0 126.3 42.6L126.3 42.6L122.4 42.6Q122.2 41.8 121.9 41.2Q121.5 40.6 121.0 40.1Q120.4 39.7 119.7 39.5Q119.0 39.3 118.2 39.3L118.2 39.3Q116.8 39.3 115.7 40.0Q114.5 40.7 113.9 42.1Q113.3 43.5 113.3 45.6L113.3 45.6Q113.3 47.6 113.9 49.0Q114.6 50.4 115.7 51.1Q116.8 51.8 118.2 51.8L118.2 51.8Q119.0 51.8 119.7 51.6Q120.4 51.4 121.0 50.9Q121.5 50.5 121.9 49.9Q122.2 49.3 122.4 48.5L122.4 48.5L126.3 48.5Q126.2 49.8 125.5 51.1Q124.9 52.3 123.9 53.2Q122.8 54.2 121.4 54.7Q120.0 55.3 118.2 55.3ZM135.4 55.3L135.4 55.3Q133.3 55.3 131.7 54.4Q130.1 53.4 129.3 51.8Q128.4 50.2 128.4 48.0L128.4 48.0Q128.4 45.8 129.3 44.1Q130.1 42.5 131.7 41.5Q133.3 40.6 135.4 40.6L135.4 40.6Q137.5 40.6 139.1 41.5Q140.6 42.5 141.5 44.1Q142.3 45.8 142.3 48.0L142.3 48.0Q142.3 50.2 141.5 51.8Q140.6 53.4 139.1 54.4Q137.5 55.3 135.4 55.3ZM135.4 52.3L135.4 52.3Q136.4 52.3 137.1 51.7Q137.8 51.2 138.1 50.2Q138.5 49.2 138.5 48.0L138.5 48.0Q138.5 46.7 138.1 45.7Q137.8 44.7 137.1 44.2Q136.4 43.6 135.4 43.6L135.4 43.6Q134.4 43.6 133.7 44.2Q133.0 44.7 132.7 45.7Q132.3 46.7 132.3 48.0L132.3 48.0Q132.3 49.2 132.7 50.2Q133.0 51.2 133.7 51.7Q134.4 52.3 135.4 52.3ZM148.8 55L145.0 55L145.0 40.8L148.5 40.8L148.7 43.6Q149.0 42.8 149.4 42.2L149.4 42.2Q150.0 41.4 150.9 41.0Q151.8 40.6 152.7 40.6L152.7 40.6Q154.3 40.6 155.2 41.6L155.2 41.6Q155.9 42.3 156.4 43.8L156.4 43.8Q156.7 42.9 157.2 42.3L157.2 42.3Q157.9 41.4 158.9 41.0Q159.9 40.6 160.9 40.6L160.9 40.6Q162.2 40.6 163.3 41.2Q164.3 41.7 164.9 42.8Q165.5 43.9 165.5 45.4L165.5 45.4L165.5 55L161.7 55L161.7 46.2Q161.7 44.9 161.0 44.4Q160.3 43.8 159.4 43.8L159.4 43.8Q158.7 43.8 158.2 44.1Q157.6 44.4 157.3 45.0Q157.1 45.5 157.1 46.3L157.1 46.3L157.1 55L153.4 55L153.4 46.0Q153.4 45.0 152.8 44.4Q152.1 43.8 151.2 43.8L151.2 43.8Q150.5 43.8 150.0 44.1Q149.4 44.4 149.1 45.0Q148.8 45.6 148.8 46.4L148.8 46.4L148.8 55ZM172.5 60.3L168.7 60.3L168.7 40.8L172.5 40.8L172.5 43.2L172.6 43.2Q172.9 42.6 173.4 42.0Q173.9 41.4 174.7 41.0Q175.5 40.6 176.7 40.6L176.7 40.6Q178.3 40.6 179.6 41.4Q180.9 42.3 181.7 43.9Q182.4 45.5 182.4 47.9L182.4 47.9Q182.4 50.3 181.7 51.9Q180.9 53.6 179.6 54.4Q178.3 55.2 176.7 55.2L176.7 55.2Q175.5 55.2 174.7 54.8Q173.9 54.5 173.4 53.9Q172.9 53.3 172.6 52.7L172.6 52.7L172.5 52.7L172.5 60.3ZM175.5 52.2L175.5 52.2Q176.5 52.2 177.2 51.6Q177.8 51.1 178.2 50.1Q178.5 49.2 178.5 47.9L178.5 47.9Q178.5 46.7 178.2 45.7Q177.8 44.8 177.2 44.2Q176.5 43.7 175.5 43.7L175.5 43.7Q174.5 43.7 173.8 44.2Q173.1 44.7 172.8 45.7Q172.4 46.6 172.4 47.9L172.4 47.9Q172.4 49.2 172.8 50.2Q173.2 51.1 173.8 51.6Q174.5 52.2 175.5 52.2ZM191.5 55.3L191.5 55.3Q189.3 55.3 187.8 54.4Q186.2 53.4 185.4 51.8Q184.5 50.2 184.5 48.0L184.5 48.0Q184.5 45.8 185.4 44.1Q186.2 42.5 187.8 41.5Q189.3 40.6 191.5 40.6L191.5 40.6Q193.6 40.6 195.2 41.5Q196.7 42.5 197.6 44.1Q198.4 45.8 198.4 48.0L198.4 48.0Q198.4 50.2 197.6 51.8Q196.7 53.4 195.2 54.4Q193.6 55.3 191.5 55.3ZM191.5 52.3L191.5 52.3Q192.5 52.3 193.2 51.7Q193.8 51.2 194.2 50.2Q194.5 49.2 194.5 48.0L194.5 48.0Q194.5 46.7 194.2 45.7Q193.8 44.7 193.2 44.2Q192.5 43.6 191.5 43.6L191.5 43.6Q190.4 43.6 189.8 44.2Q189.1 44.7 188.7 45.7Q188.4 46.7 188.4 48.0L188.4 48.0Q188.4 49.2 188.7 50.2Q189.1 51.2 189.8 51.7Q190.4 52.3 191.5 52.3ZM204.9 46.8L204.9 46.8L204.9 55L201.0 55L201.0 40.8L204.6 40.8L204.7 43.7Q205.2 42.4 206.2 41.6L206.2 41.6Q207.3 40.6 209.1 40.6L209.1 40.6Q210.6 40.6 211.7 41.3Q212.8 41.9 213.4 43.1Q214.0 44.3 214.0 46.0L214.0 46.0L214.0 55L210.2 55L210.2 46.6Q210.2 45.3 209.5 44.6Q208.8 43.8 207.6 43.8L207.6 43.8Q206.8 43.8 206.2 44.2Q205.6 44.5 205.2 45.2Q204.9 45.8 204.9 46.8ZM223.6 55.3L223.6 55.3Q221.5 55.3 219.9 54.4Q218.3 53.5 217.5 51.9Q216.6 50.2 216.6 48.0L216.6 48.0Q216.6 45.8 217.5 44.1Q218.3 42.5 219.9 41.6Q221.4 40.6 223.5 40.6L223.5 40.6Q224.9 40.6 226.1 41.1Q227.3 41.5 228.2 42.4Q229.1 43.3 229.6 44.7Q230.1 46.0 230.1 47.8L230.1 47.8L230.1 48.9L220.4 48.9Q220.4 50.0 220.8 50.7L220.8 50.7Q221.2 51.6 222.0 52.0Q222.7 52.4 223.7 52.4L223.7 52.4Q224.4 52.4 224.9 52.2Q225.5 52.0 225.9 51.7Q226.2 51.3 226.5 50.7L226.5 50.7L229.9 51.4Q229.6 52.5 228.7 53.4Q227.9 54.3 226.6 54.8Q225.3 55.3 223.6 55.3ZM220.4 46.5L220.4 46.5L226.5 46.5Q226.4 45.8 226.1 45.2L226.1 45.2Q225.8 44.4 225.1 43.9Q224.5 43.5 223.5 43.5L223.5 43.5Q222.5 43.5 221.8 44.0Q221.1 44.4 220.8 45.2L220.8 45.2Q220.5 45.8 220.4 46.5ZM236.5 46.8L236.5 46.8L236.5 55L232.7 55L232.7 40.8L236.3 40.8L236.4 43.7Q236.9 42.4 237.9 41.6L237.9 41.6Q239.0 40.6 240.8 40.6L240.8 40.6Q242.3 40.6 243.4 41.3Q244.5 41.9 245.1 43.1Q245.7 44.3 245.7 46.0L245.7 46.0L245.7 55L241.9 55L241.9 46.6Q241.9 45.3 241.2 44.6Q240.5 43.8 239.3 43.8L239.3 43.8Q238.5 43.8 237.9 44.2Q237.2 44.5 236.9 45.2Q236.5 45.8 236.5 46.8ZM253.3 40.8L256.0 40.8L256.0 43.7L253.3 43.7L253.3 50.8Q253.3 51.5 253.6 51.8Q253.9 52.2 254.6 52.2L254.6 52.2Q254.8 52.2 255.2 52.1Q255.6 52.1 255.8 52.0L255.8 52.0L256.3 54.9Q255.7 55.1 255.1 55.1Q254.5 55.2 253.9 55.2L253.9 55.2Q251.8 55.2 250.6 54.2Q249.5 53.1 249.5 51.2L249.5 51.2L249.5 43.7L247.5 43.7L247.5 40.8L249.5 40.8L249.5 37.4L253.3 37.4L253.3 40.8ZM264.1 55.3L264.1 55.3Q262.4 55.3 261.0 54.8Q259.7 54.3 258.9 53.4Q258.0 52.4 257.8 51.1L257.8 51.1L261.3 50.5Q261.6 51.5 262.3 52.0Q263.0 52.5 264.2 52.5L264.2 52.5Q265.3 52.5 265.9 52.1Q266.5 51.7 266.5 51.0L266.5 51.0Q266.5 50.5 266.1 50.1Q265.6 49.8 264.7 49.6L264.7 49.6L262.3 49.1Q260.2 48.6 259.2 47.6Q258.2 46.6 258.2 45.0L258.2 45.0Q258.2 43.7 258.9 42.7Q259.7 41.7 261.0 41.2Q262.3 40.6 264.1 40.6L264.1 40.6Q265.8 40.6 267.0 41.1Q268.3 41.6 269.0 42.4Q269.8 43.3 270.0 44.4L270.0 44.4L266.7 45.0Q266.5 44.3 265.8 43.8Q265.2 43.4 264.2 43.4L264.2 43.4Q263.2 43.4 262.6 43.8Q262.0 44.1 262.0 44.8L262.0 44.8Q262.0 45.3 262.4 45.7Q262.8 46.1 263.8 46.3L263.8 46.3L266.4 46.8Q268.4 47.2 269.4 48.2Q270.4 49.1 270.4 50.6L270.4 50.6Q270.4 52.0 269.6 53.1Q268.8 54.1 267.4 54.7Q265.9 55.3 264.1 55.3Z "/></g><mask id="satori_om-id-0-1"><rect x="37" y="65" width="243" height="16" fill="#fff"/></mask><g  ><path fill="#5555aa" d="M39.1 78L38.0 78L38.0 70.9L39.1 70.9L39.1 72.0L39.2 72.0Q39.4 71.5 39.9 71.1Q40.4 70.8 41.0 70.8L41.0 70.8Q41.2 70.8 41.3 70.8Q41.5 70.8 41.6 70.8L41.6 70.8L41.6 72.0Q41.6 72.0 41.3 71.9Q41.1 71.9 40.9 71.9L40.9 71.9Q40.4 71.9 40.0 72.1Q39.6 72.3 39.4 72.7Q39.1 73.1 39.1 73.6L39.1 73.6L39.1 78ZM45.9 78.2L45.9 78.2Q44.9 78.2 44.1 77.7Q43.4 77.2 43.0 76.4Q42.6 75.6 42.6 74.5Q42.6 73.4 42.9 72.6Q43.3 71.8 44.1 71.3Q44.8 70.8 45.7 70.8L45.7 70.8Q46.3 70.8 46.9 71.0Q47.4 71.2 47.9 71.6Q48.3 72.0 48.6 72.7Q48.8 73.4 48.8 74.4L48.8 74.4L48.8 74.8L43.7 74.8Q43.7 75.5 44.0 76.0L44.0 76.0Q44.3 76.6 44.7 76.9Q45.2 77.1 45.9 77.1L45.9 77.1Q46.3 77.1 46.6 77.0Q47.0 76.9 47.2 76.7Q47.5 76.4 47.6 76.0L47.6 76.0L48.7 76.3Q48.6 76.9 48.2 77.3Q47.8 77.7 47.2 77.9Q46.6 78.2 45.9 78.2ZM43.7 73.9L43.7 73.9L47.7 73.9Q47.6 73.4 47.5 73.0L47.5 73.0Q47.3 72.4 46.8 72.1Q46.4 71.8 45.7 71.8Q45.1 71.8 44.6 72.1Q44.2 72.5 44.0 73.0L44.0 73.0Q43.7 73.4 43.7 73.9ZM52.5 78.2L52.5 78.2Q51.8 78.2 51.2 77.9Q50.7 77.7 50.4 77.2Q50.0 76.7 50.0 76.0L50.0 76.0Q50.0 75.4 50.3 75.0Q50.5 74.6 50.9 74.4Q51.3 74.2 51.8 74.1Q52.3 74.0 52.8 73.9L52.8 73.9Q53.4 73.8 53.8 73.8Q54.2 73.7 54.4 73.6Q54.6 73.5 54.6 73.2L54.6 73.2L54.6 73.2Q54.6 72.8 54.5 72.5Q54.3 72.1 54.0 72.0Q53.6 71.8 53.1 71.8L53.1 71.8Q52.6 71.8 52.3 72.0Q51.9 72.1 51.7 72.4Q51.5 72.6 51.3 72.9L51.3 72.9L50.2 72.5Q50.5 71.8 51.0 71.5Q51.4 71.1 52.0 71.0Q52.6 70.8 53.1 70.8L53.1 70.8Q53.5 70.8 53.9 70.9Q54.4 71.0 54.8 71.2Q55.2 71.5 55.5 72.0Q55.8 72.5 55.8 73.3L55.8 73.3L55.8 78L54.6 78L54.6 77.0L54.6 77.0Q54.4 77.3 54.2 77.5Q53.9 77.8 53.5 78.0Q53.1 78.2 52.5 78.2ZM52.7 77.2L52.7 77.2Q53.3 77.2 53.7 76.9Q54.2 76.7 54.4 76.3Q54.6 75.9 54.6 75.4L54.6 75.4L54.6 74.5Q54.6 74.5 54.3 74.6Q54.1 74.7 53.8 74.7Q53.5 74.8 53.2 74.8Q52.9 74.8 52.8 74.9L52.8 74.9Q52.3 74.9 52.0 75.0Q51.6 75.2 51.4 75.4Q51.2 75.6 51.2 76.0L51.2 76.0Q51.2 76.4 51.4 76.7Q51.6 76.9 51.9 77.0Q52.2 77.2 52.7 77.2ZM60.4 78.2L60.4 78.2Q59.6 78.2 58.9 77.7Q58.2 77.3 57.8 76.4Q57.4 75.6 57.4 74.5L57.4 74.5Q57.4 73.3 57.8 72.5Q58.2 71.7 58.9 71.3Q59.6 70.8 60.4 70.8L60.4 70.8Q61.1 70.8 61.5 71.0Q61.9 71.3 62.2 71.6Q62.4 71.8 62.5 72.0L62.5 72.0L62.6 72.0L62.6 68.5L63.7 68.5L63.7 78L62.6 78L62.6 76.9L62.5 76.9Q62.4 77.1 62.2 77.4Q61.9 77.7 61.5 77.9Q61.1 78.2 60.4 78.2ZM60.6 77.1L60.6 77.1Q61.3 77.1 61.7 76.8Q62.1 76.5 62.4 75.8Q62.6 75.2 62.6 74.5L62.6 74.5Q62.6 73.7 62.4 73.1Q62.1 72.5 61.7 72.2Q61.3 71.8 60.6 71.8L60.6 71.8Q59.9 71.8 59.5 72.2Q59.0 72.5 58.8 73.1Q58.6 73.7 58.6 74.5L58.6 74.5Q58.6 75.2 58.8 75.8Q59.0 76.4 59.5 76.8Q59.9 77.1 60.6 77.1ZM66.9 78L65.7 78L65.7 70.9L66.8 70.9L66.9 72.2Q67.0 71.8 67.2 71.5L67.2 71.5Q67.5 71.2 68.0 71.0Q68.4 70.8 68.8 70.8L68.8 70.8Q69.6 70.8 70.1 71.3L70.1 71.3Q70.5 71.6 70.6 72.2L70.6 72.2Q70.8 71.9 71.0 71.6L71.0 71.6Q71.4 71.2 71.8 71.0Q72.3 70.8 72.9 70.8L72.9 70.8Q73.5 70.8 74.0 71.0Q74.5 71.3 74.8 71.8Q75.1 72.4 75.1 73.2L75.1 73.2L75.1 78L74.0 78L74.0 73.2Q74.0 72.5 73.5 72.1Q73.1 71.8 72.5 71.8L72.5 71.8Q72.1 71.8 71.7 72.0Q71.4 72.2 71.2 72.6Q71.0 72.9 71.0 73.4L71.0 73.4L71.0 78L69.9 78L69.9 73.1Q69.9 72.5 69.5 72.2Q69.1 71.8 68.5 71.8L68.5 71.8Q68.1 71.8 67.7 72.0Q67.3 72.2 67.1 72.6Q66.9 73.0 66.9 73.5L66.9 73.5L66.9 78ZM80.1 78.2L80.1 78.2Q79.1 78.2 78.3 77.7Q77.6 77.2 77.2 76.4Q76.8 75.6 76.8 74.5Q76.8 73.4 77.2 72.6Q77.6 71.8 78.3 71.3Q79.0 70.8 80.0 70.8L80.0 70.8Q80.5 70.8 81.1 71.0Q81.6 71.2 82.1 71.6Q82.5 72.0 82.8 72.7Q83.1 73.4 83.1 74.4L83.1 74.4L83.1 74.8L77.9 74.8Q78.0 75.5 78.2 76.0L78.2 76.0Q78.5 76.6 79.0 76.9Q79.5 77.1 80.1 77.1L80.1 77.1Q80.5 77.1 80.9 77.0Q81.2 76.9 81.5 76.7Q81.7 76.4 81.8 76.0L81.8 76.0L83.0 76.3Q82.8 76.9 82.4 77.3Q82.0 77.7 81.4 77.9Q80.8 78.2 80.1 78.2ZM77.9 73.9L77.9 73.9L81.9 73.9Q81.9 73.4 81.7 73.0L81.7 73.0Q81.5 72.4 81.0 72.1Q80.6 71.8 80.0 71.8Q79.3 71.8 78.9 72.1Q78.4 72.5 78.2 73.0L78.2 73.0Q78.0 73.4 77.9 73.9ZM84.6 73.4L88.8 73.4L88.8 74.5L84.6 74.5L84.6 73.4ZM92.7 78.2L92.7 78.2Q92.0 78.2 91.4 77.9Q90.9 77.7 90.6 77.2Q90.3 76.7 90.3 76.0L90.3 76.0Q90.3 75.4 90.5 75.0Q90.7 74.6 91.1 74.4Q91.5 74.2 92.0 74.1Q92.5 74.0 93.0 73.9L93.0 73.9Q93.6 73.8 94.0 73.8Q94.4 73.7 94.6 73.6Q94.8 73.5 94.8 73.2L94.8 73.2L94.8 73.2Q94.8 72.8 94.7 72.5Q94.5 72.1 94.2 72.0Q93.8 71.8 93.3 71.8L93.3 71.8Q92.8 71.8 92.5 72.0Q92.1 72.1 91.9 72.4Q91.7 72.6 91.6 72.9L91.6 72.9L90.5 72.5Q90.7 71.8 91.2 71.5Q91.7 71.1 92.2 71.0Q92.8 70.8 93.3 70.8L93.3 70.8Q93.7 70.8 94.1 70.9Q94.6 71.0 95.0 71.2Q95.4 71.5 95.7 72.0Q96.0 72.5 96.0 73.3L96.0 73.3L96.0 78L94.9 78L94.9 77.0L94.8 77.0Q94.7 77.3 94.4 77.5Q94.1 77.8 93.7 78.0Q93.3 78.2 92.7 78.2ZM92.9 77.2L92.9 77.2Q93.5 77.2 93.9 76.9Q94.4 76.7 94.6 76.3Q94.8 75.9 94.8 75.4L94.8 75.4L94.8 74.5Q94.8 74.5 94.5 74.6Q94.3 74.7 94.0 74.7Q93.7 74.8 93.4 74.8Q93.1 74.8 93.0 74.9L93.0 74.9Q92.5 74.9 92.2 75.0Q91.8 75.2 91.6 75.4Q91.4 75.6 91.4 76.0L91.4 76.0Q91.4 76.4 91.6 76.7Q91.8 76.9 92.1 77.0Q92.4 77.2 92.9 77.2ZM100.4 78.1L100.4 78.1Q99.7 78.1 99.1 77.8Q98.6 77.5 98.3 76.9Q98.0 76.3 98.0 75.4L98.0 75.4L98.0 70.9L99.1 70.9L99.1 75.3Q99.1 76.1 99.6 76.6Q100.0 77.1 100.7 77.1L100.7 77.1Q101.2 77.1 101.6 76.8Q102.0 76.6 102.3 76.2Q102.5 75.8 102.5 75.2L102.5 75.2L102.5 70.9L103.7 70.9L103.7 78L102.6 78L102.6 76.7Q102.3 77.4 101.8 77.7L101.8 77.7Q101.2 78.1 100.4 78.1ZM106.8 78L105.7 78L105.7 70.9L106.8 70.9L106.8 72.0L106.8 72.0Q107.0 71.5 107.6 71.1Q108.1 70.8 108.7 70.8L108.7 70.8Q108.8 70.8 109.0 70.8Q109.2 70.8 109.3 70.8L109.3 70.8L109.3 72.0Q109.2 72.0 109.0 71.9Q108.8 71.9 108.6 71.9L108.6 71.9Q108.1 71.9 107.7 72.1Q107.3 72.3 107.0 72.7Q106.8 73.1 106.8 73.6L106.8 73.6L106.8 78ZM112.5 78.2L112.5 78.2Q111.9 78.2 111.3 77.9Q110.8 77.7 110.5 77.2Q110.1 76.7 110.1 76.0L110.1 76.0Q110.1 75.4 110.4 75.0Q110.6 74.6 111.0 74.4Q111.4 74.2 111.9 74.1Q112.4 74.0 112.9 73.9L112.9 73.9Q113.5 73.8 113.9 73.8Q114.3 73.7 114.5 73.6Q114.7 73.5 114.7 73.2L114.7 73.2L114.7 73.2Q114.7 72.8 114.5 72.5Q114.4 72.1 114.1 72.0Q113.7 71.8 113.2 71.8L113.2 71.8Q112.7 71.8 112.4 72.0Q112.0 72.1 111.8 72.4Q111.5 72.6 111.4 72.9L111.4 72.9L110.3 72.5Q110.6 71.8 111.1 71.5Q111.5 71.1 112.1 71.0Q112.7 70.8 113.2 70.8L113.2 70.8Q113.6 70.8 114.0 70.9Q114.5 71.0 114.9 71.2Q115.3 71.5 115.6 72.0Q115.9 72.5 115.9 73.3L115.9 73.3L115.9 78L114.7 78L114.7 77.0L114.7 77.0Q114.5 77.3 114.3 77.5Q114.0 77.8 113.6 78.0Q113.2 78.2 112.5 78.2ZM112.7 77.2L112.7 77.2Q113.4 77.2 113.8 76.9Q114.3 76.7 114.5 76.3Q114.7 75.9 114.7 75.4L114.7 75.4L114.7 74.5Q114.6 74.5 114.4 74.6Q114.2 74.7 113.9 74.7Q113.6 74.8 113.3 74.8Q113.0 74.8 112.8 74.9L112.8 74.9Q112.4 74.9 112.1 75.0Q111.7 75.2 111.5 75.4Q111.3 75.6 111.3 76.0L111.3 76.0Q111.3 76.4 111.5 76.7Q111.7 76.9 112.0 77.0Q112.3 77.2 112.7 77.2Z M124.8 78.2L124.8 78.2Q124.1 78.2 123.7 77.9Q123.3 77.7 123.1 77.4Q122.9 77.1 122.8 76.9L122.8 76.9L122.6 76.9L122.6 78L121.5 78L121.5 68.5L122.7 68.5L122.7 72.0L122.8 72.0Q122.9 71.8 123.1 71.6Q123.3 71.3 123.7 71.0Q124.1 70.8 124.8 70.8L124.8 70.8Q125.7 70.8 126.4 71.3Q127.0 71.7 127.4 72.5Q127.8 73.3 127.8 74.5L127.8 74.5Q127.8 75.6 127.4 76.4Q127.1 77.3 126.4 77.7Q125.7 78.2 124.8 78.2ZM124.6 77.1L124.6 77.1Q125.3 77.1 125.8 76.8Q126.2 76.4 126.4 75.8Q126.7 75.2 126.7 74.5L126.7 74.5Q126.7 73.7 126.4 73.1Q126.2 72.5 125.8 72.2Q125.3 71.8 124.6 71.8L124.6 71.8Q124.0 71.8 123.5 72.2Q123.1 72.5 122.9 73.1Q122.6 73.7 122.6 74.5L122.6 74.5Q122.6 75.2 122.9 75.8Q123.1 76.5 123.6 76.8Q124.0 77.1 124.6 77.1ZM131.9 78.1L131.9 78.1Q131.2 78.1 130.6 77.8Q130.1 77.5 129.8 76.9Q129.5 76.3 129.5 75.4L129.5 75.4L129.5 70.9L130.6 70.9L130.6 75.3Q130.6 76.1 131.1 76.6Q131.5 77.1 132.2 77.1L132.2 77.1Q132.7 77.1 133.1 76.8Q133.5 76.6 133.8 76.2Q134.0 75.8 134.0 75.2L134.0 75.2L134.0 70.9L135.2 70.9L135.2 78L134.1 78L134.1 76.7Q133.8 77.4 133.3 77.7L133.3 77.7Q132.7 78.1 131.9 78.1ZM138.3 78L137.2 78L137.2 70.9L138.3 70.9L138.3 78ZM137.7 69.7L137.7 69.7Q137.4 69.7 137.2 69.5Q137.0 69.3 137.0 69.0L137.0 69.0Q137.0 68.7 137.2 68.4Q137.4 68.2 137.7 68.2L137.7 68.2Q138.1 68.2 138.3 68.4Q138.5 68.7 138.5 69.0L138.5 69.0Q138.5 69.3 138.3 69.5Q138.1 69.7 137.7 69.7ZM140.3 68.5L141.5 68.5L141.5 78L140.3 78L140.3 68.5ZM144.8 70.9L146.3 70.9L146.3 71.9L144.8 71.9L144.8 76.2Q144.8 76.6 145.0 76.9Q145.2 77.1 145.6 77.1L145.6 77.1Q145.7 77.1 145.9 77.0Q146.1 77.0 146.2 77.0L146.2 77.0L146.5 78.0Q146.3 78.0 146.0 78.1Q145.8 78.1 145.6 78.1L145.6 78.1Q144.7 78.1 144.2 77.6Q143.7 77.1 143.7 76.2L143.7 76.2L143.7 71.9L142.6 71.9L142.6 70.9L143.7 70.9L143.7 69.2L144.8 69.2L144.8 70.9ZM147.6 73.4L151.8 73.4L151.8 74.5L147.6 74.5L147.6 73.4ZM154.8 78L153.7 78L153.7 70.9L154.8 70.9L154.8 78ZM154.3 69.7L154.3 69.7Q153.9 69.7 153.7 69.5Q153.5 69.3 153.5 69.0L153.5 69.0Q153.5 68.7 153.7 68.4Q153.9 68.2 154.3 68.2L154.3 68.2Q154.6 68.2 154.8 68.4Q155.1 68.7 155.1 69.0L155.1 69.0Q155.1 69.3 154.8 69.5Q154.6 69.7 154.3 69.7ZM158.0 73.7L158.0 73.7L158.0 78L156.8 78L156.8 70.9L157.9 70.9L157.9 72.2Q158.2 71.6 158.7 71.2L158.7 71.2Q159.3 70.8 160.1 70.8L160.1 70.8Q160.8 70.8 161.4 71.1Q161.9 71.4 162.2 72.0Q162.5 72.6 162.5 73.5L162.5 73.5L162.5 78L161.4 78L161.4 73.6Q161.4 72.8 160.9 72.3Q160.5 71.8 159.8 71.8L159.8 71.8Q159.3 71.8 158.9 72.1Q158.5 72.3 158.2 72.7Q158.0 73.1 158.0 73.7Z M171.1 78.2L171.1 78.2Q170.1 78.2 169.4 77.7Q168.7 77.2 168.2 76.4Q167.8 75.6 167.8 74.5L167.8 74.5Q167.8 73.4 168.2 72.6Q168.7 71.7 169.4 71.3Q170.1 70.8 171.1 70.8L171.1 70.8Q171.6 70.8 172.0 70.9Q172.5 71.1 172.9 71.3Q173.3 71.6 173.5 71.9Q173.8 72.3 173.9 72.8L173.9 72.8L172.8 73.1Q172.8 72.8 172.6 72.6Q172.5 72.4 172.2 72.2Q172.0 72.0 171.7 71.9Q171.4 71.8 171.1 71.8L171.1 71.8Q170.4 71.8 169.9 72.2Q169.4 72.6 169.2 73.2Q169.0 73.8 169.0 74.5L169.0 74.5Q169.0 75.2 169.2 75.8Q169.4 76.4 169.9 76.8Q170.4 77.1 171.1 77.1L171.1 77.1Q171.4 77.1 171.7 77.0Q172.0 76.9 172.3 76.8Q172.5 76.6 172.6 76.3Q172.8 76.1 172.9 75.8L172.9 75.8L174.0 76.1Q173.8 76.6 173.6 77.0Q173.3 77.4 172.9 77.6Q172.5 77.9 172.1 78.0Q171.6 78.2 171.1 78.2ZM178.5 78.2L178.5 78.2Q177.5 78.2 176.8 77.7Q176.1 77.2 175.7 76.4Q175.3 75.6 175.3 74.5L175.3 74.5Q175.3 73.4 175.7 72.6Q176.1 71.7 176.8 71.3Q177.5 70.8 178.5 70.8L178.5 70.8Q179.5 70.8 180.2 71.3Q180.9 71.7 181.3 72.6Q181.7 73.4 181.7 74.5L181.7 74.5Q181.7 75.6 181.3 76.4Q180.9 77.2 180.2 77.7Q179.5 78.2 178.5 78.2ZM178.5 77.1L178.5 77.1Q179.2 77.1 179.7 76.8Q180.1 76.4 180.4 75.8Q180.6 75.2 180.6 74.5L180.6 74.5Q180.6 73.8 180.4 73.2Q180.1 72.6 179.7 72.2Q179.2 71.8 178.5 71.8L178.5 71.8Q177.8 71.8 177.3 72.2Q176.9 72.6 176.6 73.2Q176.4 73.8 176.4 74.5L176.4 74.5Q176.4 75.2 176.6 75.8Q176.9 76.4 177.3 76.8Q177.8 77.1 178.5 77.1ZM184.5 78L183.4 78L183.4 70.9L184.5 70.9L184.5 72.2Q184.7 71.8 184.9 71.5L184.9 71.5Q185.2 71.2 185.6 71.0Q186.0 70.8 186.5 70.8L186.5 70.8Q187.3 70.8 187.8 71.3L187.8 71.3Q188.2 71.6 188.3 72.2L188.3 72.2Q188.4 71.9 188.7 71.6L188.7 71.6Q189.0 71.2 189.5 71.0Q190.0 70.8 190.5 70.8L190.5 70.8Q191.2 70.8 191.7 71.0Q192.2 71.3 192.5 71.8Q192.8 72.4 192.8 73.2L192.8 73.2L192.8 78L191.6 78L191.6 73.2Q191.6 72.5 191.2 72.1Q190.8 71.8 190.2 71.8L190.2 71.8Q189.7 71.8 189.4 72.0Q189.0 72.2 188.9 72.6Q188.7 72.9 188.7 73.4L188.7 73.4L188.7 78L187.5 78L187.5 73.1Q187.5 72.5 187.1 72.2Q186.7 71.8 186.1 71.8L186.1 71.8Q185.7 71.8 185.4 72.0Q185.0 72.2 184.8 72.6Q184.5 73.0 184.5 73.5L184.5 73.5L184.5 78ZM195.9 80.7L194.8 80.7L194.8 70.9L195.9 70.9L195.9 72.0L196.0 72.0Q196.1 71.8 196.4 71.6Q196.6 71.3 197.0 71.0Q197.4 70.8 198.1 70.8L198.1 70.8Q199.0 70.8 199.6 71.3Q200.3 71.7 200.7 72.5Q201.1 73.3 201.1 74.5L201.1 74.5Q201.1 75.6 200.7 76.4Q200.3 77.3 199.6 77.7Q199.0 78.2 198.1 78.2L198.1 78.2Q197.4 78.2 197.0 77.9Q196.6 77.7 196.4 77.4Q196.1 77.1 196.0 76.9L196.0 76.9L195.9 76.9L195.9 80.7ZM197.9 77.1L197.9 77.1Q198.6 77.1 199.0 76.8Q199.5 76.4 199.7 75.8Q199.9 75.2 199.9 74.5L199.9 74.5Q199.9 73.7 199.7 73.1Q199.5 72.5 199.0 72.2Q198.6 71.8 197.9 71.8L197.9 71.8Q197.3 71.8 196.8 72.2Q196.4 72.5 196.1 73.1Q195.9 73.7 195.9 74.5L195.9 74.5Q195.9 75.2 196.1 75.8Q196.4 76.5 196.8 76.8Q197.3 77.1 197.9 77.1ZM205.6 78.2L205.6 78.2Q204.7 78.2 203.9 77.7Q203.2 77.2 202.8 76.4Q202.4 75.6 202.4 74.5L202.4 74.5Q202.4 73.4 202.8 72.6Q203.2 71.7 203.9 71.3Q204.7 70.8 205.6 70.8L205.6 70.8Q206.6 70.8 207.3 71.3Q208.1 71.7 208.5 72.6Q208.9 73.4 208.9 74.5L208.9 74.5Q208.9 75.6 208.5 76.4Q208.1 77.2 207.3 77.7Q206.6 78.2 205.6 78.2ZM205.6 77.1L205.6 77.1Q206.4 77.1 206.8 76.8Q207.3 76.4 207.5 75.8Q207.7 75.2 207.7 74.5L207.7 74.5Q207.7 73.8 207.5 73.2Q207.3 72.6 206.8 72.2Q206.4 71.8 205.6 71.8L205.6 71.8Q204.9 71.8 204.5 72.2Q204.0 72.6 203.8 73.2Q203.6 73.8 203.6 74.5L203.6 74.5Q203.6 75.2 203.8 75.8Q204.0 76.4 204.5 76.8Q204.9 77.1 205.6 77.1ZM211.7 73.7L211.7 73.7L211.7 78L210.5 78L210.5 70.9L211.6 70.9L211.6 72.2Q211.9 71.6 212.4 71.2L212.4 71.2Q213.0 70.8 213.8 70.8L213.8 70.8Q214.5 70.8 215.1 71.1Q215.6 71.4 215.9 72.0Q216.2 72.6 216.2 73.5L216.2 73.5L216.2 78L215.1 78L215.1 73.6Q215.1 72.8 214.6 72.3Q214.2 71.8 213.5 71.8L213.5 71.8Q213.0 71.8 212.6 72.1Q212.2 72.3 211.9 72.7Q211.7 73.1 211.7 73.7ZM221.2 78.2L221.2 78.2Q220.2 78.2 219.4 77.7Q218.7 77.2 218.3 76.4Q217.9 75.6 217.9 74.5Q217.9 73.4 218.3 72.6Q218.7 71.8 219.4 71.3Q220.1 70.8 221.1 70.8L221.1 70.8Q221.6 70.8 222.2 71.0Q222.7 71.2 223.2 71.6Q223.6 72.0 223.9 72.7Q224.2 73.4 224.2 74.4L224.2 74.4L224.2 74.8L219.0 74.8Q219.1 75.5 219.3 76.0L219.3 76.0Q219.6 76.6 220.1 76.9Q220.6 77.1 221.2 77.1L221.2 77.1Q221.6 77.1 222.0 77.0Q222.3 76.9 222.6 76.7Q222.8 76.4 222.9 76.0L222.9 76.0L224.1 76.3Q223.9 76.9 223.5 77.3Q223.1 77.7 222.5 77.9Q221.9 78.2 221.2 78.2ZM219.0 73.9L219.0 73.9L223.0 73.9Q223.0 73.4 222.8 73.0L222.8 73.0Q222.6 72.4 222.1 72.1Q221.7 71.8 221.1 71.8Q220.4 71.8 220.0 72.1Q219.5 72.5 219.3 73.0L219.3 73.0Q219.1 73.4 219.0 73.9ZM226.9 73.7L226.9 73.7L226.9 78L225.8 78L225.8 70.9L226.9 70.9L226.9 72.2Q227.2 71.6 227.7 71.2L227.7 71.2Q228.3 70.8 229.1 70.8L229.1 70.8Q229.8 70.8 230.3 71.1Q230.9 71.4 231.2 72.0Q231.5 72.6 231.5 73.5L231.5 73.5L231.5 78L230.3 78L230.3 73.6Q230.3 72.8 229.9 72.3Q229.5 71.8 228.7 71.8L228.7 71.8Q228.2 71.8 227.8 72.1Q227.4 72.3 227.2 72.7Q226.9 73.1 226.9 73.7ZM234.8 70.9L236.3 70.9L236.3 71.9L234.8 71.9L234.8 76.2Q234.8 76.6 235.0 76.9Q235.2 77.1 235.7 77.1L235.7 77.1Q235.8 77.1 235.9 77.0Q236.1 77.0 236.2 77.0L236.2 77.0L236.5 78.0Q236.3 78.0 236.1 78.1Q235.8 78.1 235.6 78.1L235.6 78.1Q234.7 78.1 234.2 77.6Q233.7 77.1 233.7 76.2L233.7 76.2L233.7 71.9L232.6 71.9L232.6 70.9L233.7 70.9L233.7 69.2L234.8 69.2L234.8 70.9Z M241.4 68.5L242.5 68.5L242.5 78L241.4 78L241.4 68.5ZM245.7 78L244.5 78L244.5 70.9L245.7 70.9L245.7 78ZM245.1 69.7L245.1 69.7Q244.8 69.7 244.6 69.5Q244.3 69.3 244.3 69.0L244.3 69.0Q244.3 68.7 244.6 68.4Q244.8 68.2 245.1 68.2L245.1 68.2Q245.5 68.2 245.7 68.4Q245.9 68.7 245.9 69.0L245.9 69.0Q245.9 69.3 245.7 69.5Q245.5 69.7 245.1 69.7ZM251.0 78.2L251.0 78.2Q250.3 78.2 249.9 77.9Q249.5 77.7 249.3 77.4Q249.0 77.1 248.9 76.9L248.9 76.9L248.8 76.9L248.8 78L247.7 78L247.7 68.5L248.8 68.5L248.8 72.0L248.9 72.0Q249.0 71.8 249.3 71.6Q249.5 71.3 249.9 71.0Q250.3 70.8 251.0 70.8L251.0 70.8Q251.9 70.8 252.5 71.3Q253.2 71.7 253.6 72.5Q254.0 73.3 254.0 74.5L254.0 74.5Q254.0 75.6 253.6 76.4Q253.2 77.3 252.6 77.7Q251.9 78.2 251.0 78.2ZM250.8 77.1L250.8 77.1Q251.5 77.1 251.9 76.8Q252.4 76.4 252.6 75.8Q252.8 75.2 252.8 74.5L252.8 74.5Q252.8 73.7 252.6 73.1Q252.4 72.5 251.9 72.2Q251.5 71.8 250.8 71.8L250.8 71.8Q250.2 71.8 249.7 72.2Q249.3 72.5 249.0 73.1Q248.8 73.7 248.8 74.5L248.8 74.5Q248.8 75.2 249.0 75.8Q249.3 76.5 249.7 76.8Q250.2 77.1 250.8 77.1ZM256.8 78L255.7 78L255.7 70.9L256.8 70.9L256.8 72.0L256.8 72.0Q257.0 71.5 257.5 71.1Q258.0 70.8 258.7 70.8L258.7 70.8Q258.8 70.8 259.0 70.8Q259.1 70.8 259.3 70.8L259.3 70.8L259.3 72.0Q259.2 72.0 259.0 71.9Q258.8 71.9 258.6 71.9L258.6 71.9Q258.1 71.9 257.7 72.1Q257.3 72.3 257.0 72.7Q256.8 73.1 256.8 73.6L256.8 73.6L256.8 78ZM262.5 78.2L262.5 78.2Q261.9 78.2 261.3 77.9Q260.8 77.7 260.4 77.2Q260.1 76.7 260.1 76.0L260.1 76.0Q260.1 75.4 260.4 75.0Q260.6 74.6 261.0 74.4Q261.4 74.2 261.9 74.1Q262.4 74.0 262.9 73.9L262.9 73.9Q263.5 73.8 263.9 73.8Q264.3 73.7 264.5 73.6Q264.7 73.5 264.7 73.2L264.7 73.2L264.7 73.2Q264.7 72.8 264.5 72.5Q264.4 72.1 264.0 72.0Q263.7 71.8 263.2 71.8L263.2 71.8Q262.7 71.8 262.3 72.0Q262.0 72.1 261.8 72.4Q261.5 72.6 261.4 72.9L261.4 72.9L260.3 72.5Q260.6 71.8 261.1 71.5Q261.5 71.1 262.1 71.0Q262.6 70.8 263.2 70.8L263.2 70.8Q263.5 70.8 264.0 70.9Q264.4 71.0 264.9 71.2Q265.3 71.5 265.6 72.0Q265.8 72.5 265.8 73.3L265.8 73.3L265.8 78L264.7 78L264.7 77.0L264.6 77.0Q264.5 77.3 264.3 77.5Q264.0 77.8 263.6 78.0Q263.1 78.2 262.5 78.2ZM262.7 77.2L262.7 77.2Q263.4 77.2 263.8 76.9Q264.2 76.7 264.5 76.3Q264.7 75.9 264.7 75.4L264.7 75.4L264.7 74.5Q264.6 74.5 264.4 74.6Q264.2 74.7 263.9 74.7Q263.6 74.8 263.3 74.8Q263.0 74.8 262.8 74.9L262.8 74.9Q262.4 74.9 262.1 75.0Q261.7 75.2 261.5 75.4Q261.3 75.6 261.3 76.0L261.3 76.0Q261.3 76.4 261.5 76.7Q261.6 76.9 262.0 77.0Q262.3 77.2 262.7 77.2ZM269.0 78L267.8 78L267.8 70.9L268.9 70.9L268.9 72.0L269.0 72.0Q269.2 71.5 269.7 71.1Q270.2 70.8 270.9 70.8L270.9 70.8Q271.0 70.8 271.2 70.8Q271.3 70.8 271.4 70.8L271.4 70.8L271.4 72.0Q271.4 72.0 271.2 71.9Q271.0 71.9 270.8 71.9L270.8 71.9Q270.3 71.9 269.8 72.1Q269.4 72.3 269.2 72.7Q269.0 73.1 269.0 73.6L269.0 73.6L269.0 78ZM272.6 80.6L272.6 80.6L272.9 79.6L273.0 79.6Q273.4 79.7 273.7 79.7Q274.0 79.6 274.2 79.4Q274.4 79.1 274.6 78.6L274.6 78.6L274.8 78.0L272.1 70.9L273.3 70.9L274.8 75.1Q275.1 75.8 275.2 76.4L275.2 76.4Q275.3 76.7 275.4 77.0L275.4 77.0Q275.5 76.7 275.5 76.4L275.5 76.4Q275.7 75.8 275.9 75.1L275.9 75.1L277.5 70.9L278.7 70.9L275.6 79.1Q275.4 79.6 275.1 80.0Q274.8 80.4 274.4 80.5Q274.0 80.7 273.5 80.7L273.5 80.7Q273.2 80.7 272.9 80.7Q272.7 80.6 272.6 80.6Z "/></g><mask id="satori_om-id-1"><rect x="551" y="42" width="212" height="27" fill="#fff"/></mask><defs><clipPath id="satori_bc-id-1-0"><path x="551" y="42" width="89" height="27" d="M564.5,42 h62 a13.5,13.5 0 0 1 13.5,13.5 v0 a13.5,13.5 0 0 1 -13.5,13.5 h-62 a13.5,13.5 0 0 1 -13.5,-13.5 v0 a13.5,13.5 0 0 1 13.5,-13.5"/></clipPath></defs><mask id="satori_om-id-1-0"><rect x="552" y="43" width="87" height="25" fill="#fff"/><path width="89" height="27" fill="none" stroke="#000" stroke-width="2" d="M554.954,45.954 A13.5,13.5 0 0 1 564.5,42 h62 a13.5,13.5 0 0 1 13.5,13.5 v0 a13.5,13.5 0 0 1 -13.5,13.5 h-62 a13.5,13.5 0 0 1 -13.5,-13.5 v0 A13.5,13.5 0 0 1 554.954,45.954"/></mask><path x="551" y="42" width="89" height="27" fill="#667eea22" d="M564.5,42 h62 a13.5,13.5 0 0 1 13.5,13.5 v0 a13.5,13.5 0 0 1 -13.5,13.5 h-62 a13.5,13.5 0 0 1 -13.5,-13.5 v0 a13.5,13.5 0 0 1 13.5,-13.5"/><path width="89" height="27" clip-path="url(#satori_bc-id-1-0)" fill="none" stroke="#667eea44" stroke-width="2" d="M554.954,45.954 A13.5,13.5 0 0 1 564.5,42 h62 a13.5,13.5 0 0 1 13.5,13.5 v0 a13.5,13.5 0 0 1 -13.5,13.5 h-62 a13.5,13.5 0 0 1 -13.5,-13.5 v0 A13.5,13.5 0 0 1 554.954,45.954"/><g  ><path fill="#667eea" d="M570.0 60.1L570.0 60.1Q568.9 60.1 568.2 59.8Q567.4 59.5 567.0 58.9Q566.5 58.2 566.5 57.3L566.5 57.3L568.2 57.3Q568.3 57.7 568.5 58.0Q568.7 58.3 569.1 58.5Q569.5 58.6 570.0 58.6L570.0 58.6Q570.5 58.6 570.8 58.5Q571.2 58.3 571.4 58.1Q571.6 57.8 571.6 57.5L571.6 57.5Q571.6 57.2 571.4 57.0Q571.2 56.8 570.9 56.7Q570.5 56.5 570.1 56.4L570.1 56.4L569.1 56.2Q568.0 55.9 567.4 55.3Q566.7 54.7 566.7 53.8L566.7 53.8Q566.7 53.0 567.2 52.4Q567.6 51.8 568.3 51.5Q569.1 51.2 570.0 51.2L570.0 51.2Q571.0 51.2 571.7 51.5Q572.4 51.8 572.8 52.4Q573.2 53.0 573.2 53.8L573.2 53.8L571.5 53.8Q571.5 53.2 571.1 52.9Q570.7 52.7 570.0 52.7L570.0 52.7Q569.5 52.7 569.2 52.8Q568.9 52.9 568.7 53.1Q568.6 53.4 568.6 53.7L568.6 53.7Q568.6 54.0 568.8 54.2Q569.0 54.4 569.3 54.5Q569.6 54.7 570.0 54.8L570.0 54.8L570.8 55.0Q571.3 55.1 571.8 55.3Q572.3 55.5 572.6 55.8Q573.0 56.1 573.2 56.5Q573.4 57.0 573.4 57.5L573.4 57.5Q573.4 58.3 573.0 58.9Q572.6 59.5 571.8 59.8Q571.1 60.1 570.0 60.1ZM576.6 53.4L577.9 53.4L577.9 54.8L576.6 54.8L576.6 58.1Q576.6 58.4 576.8 58.5Q576.9 58.7 577.2 58.7L577.2 58.7Q577.3 58.7 577.5 58.7Q577.7 58.6 577.8 58.6L577.8 58.6L578.0 59.9Q577.7 60.0 577.5 60.1Q577.2 60.1 576.9 60.1L576.9 60.1Q575.9 60.1 575.4 59.6Q574.9 59.1 574.9 58.2L574.9 58.2L574.9 54.8L574.0 54.8L574.0 53.4L574.9 53.4L574.9 51.9L576.6 51.9L576.6 53.4ZM580.8 60.1L580.8 60.1Q580.2 60.1 579.7 59.9Q579.2 59.7 578.9 59.3Q578.7 58.8 578.7 58.2L578.7 58.2Q578.7 57.6 578.9 57.3Q579.1 56.9 579.4 56.7Q579.8 56.4 580.2 56.3Q580.6 56.2 581.1 56.2L581.1 56.2Q581.7 56.1 582.0 56.0Q582.4 56.0 582.5 55.9Q582.7 55.8 582.7 55.6L582.7 55.6L582.7 55.5Q582.7 55.3 582.6 55.1Q582.5 54.9 582.2 54.8Q582.0 54.7 581.7 54.7L581.7 54.7Q581.3 54.7 581.1 54.8Q580.8 54.9 580.7 55.0Q580.5 55.2 580.4 55.4L580.4 55.4L578.8 55.2Q579.0 54.6 579.4 54.2Q579.8 53.8 580.4 53.6Q581.0 53.4 581.7 53.4L581.7 53.4Q582.2 53.4 582.7 53.5Q583.2 53.6 583.6 53.9Q584.0 54.1 584.2 54.6Q584.5 55.0 584.5 55.6L584.5 55.6L584.5 60L582.8 60L582.8 59.1L582.7 59.1Q582.6 59.4 582.3 59.6Q582.1 59.9 581.7 60.0Q581.3 60.1 580.8 60.1ZM581.3 58.9L581.3 58.9Q581.7 58.9 582.1 58.7Q582.4 58.6 582.5 58.3Q582.7 58.0 582.7 57.7L582.7 57.7L582.7 56.9Q582.6 57.0 582.5 57.1Q582.3 57.1 582.1 57.1Q581.9 57.2 581.8 57.2Q581.6 57.2 581.4 57.2L581.4 57.2Q581.1 57.3 580.9 57.4Q580.6 57.5 580.5 57.7Q580.3 57.8 580.3 58.1L580.3 58.1Q580.3 58.4 580.5 58.5Q580.6 58.7 580.8 58.8Q581.0 58.9 581.3 58.9ZM588.0 53.4L589.2 53.4L589.2 54.8L588.0 54.8L588.0 58.1Q588.0 58.4 588.1 58.5Q588.3 58.7 588.6 58.7L588.6 58.7Q588.7 58.7 588.9 58.7Q589.1 58.6 589.2 58.6L589.2 58.6L589.4 59.9Q589.1 60.0 588.8 60.1Q588.5 60.1 588.3 60.1L588.3 60.1Q587.3 60.1 586.8 59.6Q586.2 59.1 586.2 58.2L586.2 58.2L586.2 54.8L585.3 54.8L585.3 53.4L586.2 53.4L586.2 51.9L588.0 51.9L588.0 53.4ZM593.0 60.1L593.0 60.1Q592.2 60.1 591.6 59.9Q591.0 59.7 590.6 59.2Q590.2 58.8 590.1 58.2L590.1 58.2L591.7 57.9Q591.8 58.4 592.2 58.6Q592.5 58.8 593.0 58.8L593.0 58.8Q593.5 58.8 593.8 58.6Q594.1 58.5 594.1 58.2L594.1 58.2Q594.1 57.9 593.9 57.7Q593.7 57.6 593.3 57.5L593.3 57.5L592.1 57.3Q591.2 57.1 590.7 56.6Q590.2 56.1 590.2 55.4L590.2 55.4Q590.2 54.8 590.6 54.3Q590.9 53.9 591.5 53.6Q592.2 53.4 593.0 53.4L593.0 53.4Q593.8 53.4 594.3 53.6Q594.9 53.8 595.3 54.2Q595.6 54.6 595.7 55.1L595.7 55.1L594.2 55.4Q594.1 55.1 593.8 54.8Q593.5 54.6 593.0 54.6L593.0 54.6Q592.6 54.6 592.3 54.8Q592.0 55.0 592.0 55.3L592.0 55.3Q592.0 55.5 592.2 55.7Q592.4 55.9 592.8 56.0L592.8 56.0L594.0 56.2Q595.0 56.4 595.4 56.8Q595.9 57.3 595.9 58.0L595.9 58.0Q595.9 58.6 595.5 59.1Q595.1 59.6 594.5 59.9Q593.8 60.1 593.0 60.1ZM600.9 60.1L600.9 60.1Q599.8 60.1 598.9 59.6Q597.9 59.1 597.4 58.1Q596.9 57.1 596.9 55.6L596.9 55.6Q596.9 54.2 597.4 53.2Q598.0 52.2 598.9 51.7Q599.8 51.2 600.9 51.2L600.9 51.2Q601.7 51.2 602.3 51.4Q603.0 51.6 603.5 52.0Q604.0 52.4 604.3 52.9Q604.6 53.5 604.7 54.3L604.7 54.3L602.9 54.3Q602.8 53.9 602.7 53.6Q602.5 53.3 602.2 53.1Q602.0 52.9 601.7 52.8Q601.3 52.7 601.0 52.7L601.0 52.7Q600.3 52.7 599.8 53.1Q599.3 53.4 599.0 54.1Q598.7 54.7 598.7 55.6L598.7 55.6Q598.7 56.6 599.0 57.2Q599.3 57.9 599.8 58.2Q600.3 58.5 601.0 58.5L601.0 58.5Q601.3 58.5 601.7 58.4Q602.0 58.3 602.2 58.1Q602.5 57.9 602.7 57.7Q602.8 57.4 602.9 57.0L602.9 57.0L604.7 57.0Q604.6 57.6 604.3 58.2Q604.1 58.7 603.6 59.2Q603.1 59.6 602.4 59.9Q601.8 60.1 600.9 60.1ZM607.8 60.1L607.8 60.1Q607.2 60.1 606.7 59.9Q606.2 59.7 605.9 59.3Q605.6 58.8 605.6 58.2L605.6 58.2Q605.6 57.6 605.8 57.3Q606.0 56.9 606.4 56.7Q606.7 56.4 607.2 56.3Q607.6 56.2 608.1 56.2L608.1 56.2Q608.7 56.1 609.0 56.0Q609.3 56.0 609.5 55.9Q609.7 55.8 609.7 55.6L609.7 55.6L609.7 55.5Q609.7 55.3 609.6 55.1Q609.4 54.9 609.2 54.8Q609.0 54.7 608.6 54.7L608.6 54.7Q608.3 54.7 608.1 54.8Q607.8 54.9 607.6 55.0Q607.5 55.2 607.4 55.4L607.4 55.4L605.8 55.2Q606.0 54.6 606.4 54.2Q606.8 53.8 607.3 53.6Q607.9 53.4 608.7 53.4L608.7 53.4Q609.2 53.4 609.7 53.5Q610.2 53.6 610.6 53.9Q611.0 54.1 611.2 54.6Q611.4 55.0 611.4 55.6L611.4 55.6L611.4 60L609.8 60L609.8 59.1L609.7 59.1Q609.5 59.4 609.3 59.6Q609.0 59.9 608.6 60.0Q608.3 60.1 607.8 60.1ZM608.3 58.9L608.3 58.9Q608.7 58.9 609.0 58.7Q609.3 58.6 609.5 58.3Q609.7 58.0 609.7 57.7L609.7 57.7L609.7 56.9Q609.6 57.0 609.4 57.1Q609.3 57.1 609.1 57.1Q608.9 57.2 608.7 57.2Q608.5 57.2 608.4 57.2L608.4 57.2Q608.1 57.3 607.8 57.4Q607.6 57.5 607.4 57.7Q607.3 57.8 607.3 58.1L607.3 58.1Q607.3 58.4 607.4 58.5Q607.6 58.7 607.8 58.8Q608 58.9 608.3 58.9ZM614.7 60L612.9 60L612.9 53.4L614.6 53.4L614.6 54.6L614.7 54.6Q614.9 54.0 615.3 53.7Q615.7 53.4 616.3 53.4L616.3 53.4Q616.4 53.4 616.6 53.4Q616.7 53.4 616.8 53.4L616.8 53.4L616.8 55.0Q616.7 54.9 616.5 54.9Q616.3 54.9 616.1 54.9L616.1 54.9Q615.7 54.9 615.4 55.1Q615.0 55.2 614.9 55.6Q614.7 55.9 614.7 56.3L614.7 56.3L614.7 60ZM620.2 60.1L620.2 60.1Q619.5 60.1 618.8 59.7Q618.2 59.3 617.9 58.6Q617.5 57.8 617.5 56.7L617.5 56.7Q617.5 55.6 617.9 54.9Q618.3 54.1 618.9 53.7Q619.5 53.4 620.2 53.4L620.2 53.4Q620.8 53.4 621.1 53.6Q621.5 53.7 621.7 54.0Q622.0 54.3 622.1 54.6L622.1 54.6L622.1 54.6L622.1 51.3L623.9 51.3L623.9 60L622.2 60L622.2 59.0L622.1 59.0Q621.9 59.2 621.7 59.5Q621.5 59.7 621.1 59.9Q620.7 60.1 620.2 60.1ZM620.8 58.7L620.8 58.7Q621.2 58.7 621.5 58.5Q621.8 58.2 622.0 57.8Q622.2 57.3 622.2 56.7L622.2 56.7Q622.2 56.1 622.0 55.7Q621.8 55.3 621.5 55.0Q621.2 54.8 620.8 54.8L620.8 54.8Q620.3 54.8 620.0 55.0Q619.7 55.3 619.5 55.7Q619.3 56.2 619.3 56.7L619.3 56.7Q619.3 57.3 619.5 57.8Q619.7 58.2 620.0 58.4Q620.3 58.7 620.8 58.7Z "/></g><defs><clipPath id="satori_bc-id-1-1"><path x="648" y="42" width="115" height="27" d="M661.5,42 h88 a13.5,13.5 0 0 1 13.5,13.5 v0 a13.5,13.5 0 0 1 -13.5,13.5 h-88 a13.5,13.5 0 0 1 -13.5,-13.5 v0 a13.5,13.5 0 0 1 13.5,-13.5"/></clipPath></defs><mask id="satori_om-id-1-1"><rect x="649" y="43" width="113" height="25" fill="#fff"/><path width="115" height="27" fill="none" stroke="#000" stroke-width="2" d="M651.954,45.954 A13.5,13.5 0 0 1 661.5,42 h88 a13.5,13.5 0 0 1 13.5,13.5 v0 a13.5,13.5 0 0 1 -13.5,13.5 h-88 a13.5,13.5 0 0 1 -13.5,-13.5 v0 A13.5,13.5 0 0 1 651.954,45.954"/></mask><path x="648" y="42" width="115" height="27" fill="#a78bfa22" d="M661.5,42 h88 a13.5,13.5 0 0 1 13.5,13.5 v0 a13.5,13.5 0 0 1 -13.5,13.5 h-88 a13.5,13.5 0 0 1 -13.5,-13.5 v0 a13.5,13.5 0 0 1 13.5,-13.5"/><path width="115" height="27" clip-path="url(#satori_bc-id-1-1)" fill="none" stroke="#a78bfa44" stroke-width="2" d="M651.954,45.954 A13.5,13.5 0 0 1 661.5,42 h88 a13.5,13.5 0 0 1 13.5,13.5 v0 a13.5,13.5 0 0 1 -13.5,13.5 h-88 a13.5,13.5 0 0 1 -13.5,-13.5 v0 A13.5,13.5 0 0 1 651.954,45.954"/><g  ><path fill="#a78bfa" d="M665.6 60L663.8 60L663.8 51.3L666.5 51.3L668.0 55.3Q668.0 55.6 668.2 56.0Q668.3 56.4 668.4 57.0L668.4 57.0Q668.5 57.5 668.6 57.9L668.6 57.9Q668.7 57.5 668.8 57.0L668.8 57.0Q668.9 56.5 669.0 56.0Q669.2 55.6 669.2 55.3L669.2 55.3L670.6 51.3L673.4 51.3L673.4 60L671.6 60L671.6 55.9Q671.6 55.6 671.6 55.2Q671.6 54.7 671.6 54.2Q671.6 53.8 671.7 53.3L671.7 53.3Q671.7 53.0 671.7 52.8L671.7 52.8Q671.6 53.1 671.5 53.3L671.5 53.3Q671.4 53.8 671.3 54.3Q671.1 54.8 671.0 55.2Q670.9 55.6 670.8 55.9L670.8 55.9L669.3 60L667.8 60L666.4 55.9Q666.3 55.6 666.2 55.2Q666.0 54.8 665.9 54.3Q665.8 53.8 665.6 53.3L665.6 53.3Q665.6 53.1 665.5 52.9L665.5 52.9Q665.5 53.0 665.5 53.2L665.5 53.2Q665.5 53.7 665.5 54.2Q665.5 54.7 665.6 55.2Q665.6 55.6 665.6 55.9L665.6 55.9L665.6 60ZM677.9 60.1L677.9 60.1Q676.9 60.1 676.2 59.7Q675.4 59.3 675.0 58.5Q674.7 57.8 674.7 56.8L674.7 56.8Q674.7 55.7 675.0 55.0Q675.4 54.2 676.2 53.8Q676.9 53.4 677.9 53.4L677.9 53.4Q678.8 53.4 679.6 53.8Q680.3 54.2 680.7 55.0Q681.1 55.7 681.1 56.8L681.1 56.8Q681.1 57.8 680.7 58.5Q680.3 59.3 679.6 59.7Q678.8 60.1 677.9 60.1ZM677.9 58.7L677.9 58.7Q678.3 58.7 678.6 58.5Q679.0 58.2 679.1 57.8Q679.3 57.3 679.3 56.7L679.3 56.7Q679.3 56.2 679.1 55.7Q679.0 55.3 678.6 55.0Q678.3 54.8 677.9 54.8L677.9 54.8Q677.4 54.8 677.1 55.0Q676.8 55.3 676.6 55.7Q676.4 56.2 676.4 56.7L676.4 56.7Q676.4 57.3 676.6 57.8Q676.8 58.2 677.1 58.5Q677.4 58.7 677.9 58.7ZM685.2 60.1L685.2 60.1Q684.2 60.1 683.5 59.7Q682.8 59.3 682.4 58.5Q682.0 57.8 682.0 56.8L682.0 56.8Q682.0 55.7 682.4 55.0Q682.8 54.2 683.5 53.8Q684.2 53.4 685.2 53.4L685.2 53.4Q685.8 53.4 686.3 53.5Q686.8 53.7 687.2 54.0Q687.5 54.2 687.8 54.6Q688.0 55.0 688.1 55.5L688.1 55.5L686.5 55.9Q686.4 55.6 686.3 55.4Q686.2 55.2 686.1 55.0Q685.9 54.9 685.7 54.8Q685.5 54.8 685.2 54.8L685.2 54.8Q684.8 54.8 684.4 55.0Q684.1 55.3 684.0 55.7Q683.8 56.2 683.8 56.7L683.8 56.7Q683.8 57.3 684.0 57.8Q684.1 58.2 684.4 58.5Q684.8 58.7 685.2 58.7L685.2 58.7Q685.5 58.7 685.7 58.7Q685.9 58.6 686.1 58.4Q686.2 58.3 686.3 58.1Q686.5 57.9 686.5 57.6L686.5 57.6L688.1 57.9Q688.0 58.4 687.8 58.8Q687.6 59.2 687.2 59.5Q686.8 59.8 686.3 60.0Q685.8 60.1 685.2 60.1ZM691.1 60L689.3 60L689.3 51.3L691.1 51.3L691.1 56.0L691.2 56.0L693.4 53.4L695.4 53.4L692.9 56.3L695.5 60L693.4 60L691.6 57.3L691.1 57.9L691.1 60ZM698.6 60.1L698.6 60.1Q697.9 60.1 697.4 59.8Q696.9 59.5 696.6 58.9Q696.3 58.4 696.3 57.6L696.3 57.6L696.3 53.4L698.1 53.4L698.1 57.3Q698.1 57.9 698.4 58.3Q698.7 58.6 699.3 58.6L699.3 58.6Q699.6 58.6 699.9 58.5Q700.2 58.3 700.4 58.0Q700.5 57.7 700.5 57.2L700.5 57.2L700.5 53.4L702.3 53.4L702.3 60L700.6 60L700.6 58.6Q700.4 59.3 699.9 59.6L699.9 59.6Q699.4 60.1 698.6 60.1ZM705.5 62.4L703.8 62.4L703.8 53.4L705.5 53.4L705.5 54.6L705.6 54.6Q705.7 54.3 705.9 54.0Q706.2 53.7 706.5 53.6Q706.9 53.4 707.5 53.4L707.5 53.4Q708.2 53.4 708.8 53.7Q709.4 54.1 709.8 54.9Q710.1 55.6 710.1 56.7L710.1 56.7Q710.1 57.8 709.8 58.6Q709.4 59.3 708.8 59.7Q708.2 60.1 707.4 60.1L707.4 60.1Q706.9 60.1 706.5 59.9Q706.2 59.7 705.9 59.5Q705.7 59.2 705.6 59.0L705.6 59.0L705.5 59.0L705.5 62.4ZM706.9 58.7L706.9 58.7Q707.4 58.7 707.7 58.4Q708.0 58.2 708.2 57.8Q708.3 57.3 708.3 56.7L708.3 56.7Q708.3 56.2 708.2 55.7Q708.0 55.3 707.7 55.0Q707.4 54.8 706.9 54.8L706.9 54.8Q706.5 54.8 706.1 55.0Q705.8 55.3 705.7 55.7Q705.5 56.1 705.5 56.7L705.5 56.7Q705.5 57.3 705.7 57.8Q705.8 58.2 706.1 58.5Q706.5 58.7 706.9 58.7ZM713.2 60L711.4 60L711.4 51.3L714.8 51.3Q715.8 51.3 716.5 51.6Q717.2 52.0 717.5 52.7Q717.9 53.4 717.9 54.2L717.9 54.2Q717.9 55.1 717.5 55.7Q717.2 56.4 716.5 56.8Q715.8 57.1 714.8 57.1L714.8 57.1L713.2 57.1L713.2 60ZM713.2 52.7L713.2 55.7L714.5 55.7Q715.0 55.7 715.4 55.5Q715.7 55.3 715.9 55.0Q716.1 54.7 716.1 54.2Q716.1 53.8 715.9 53.4Q715.7 53.1 715.4 52.9Q715.0 52.7 714.5 52.7L714.5 52.7L713.2 52.7ZM720.9 56.2L720.9 56.2L720.9 60L719.1 60L719.1 51.3L720.8 51.3L720.8 54.7Q721.1 54.2 721.5 53.8L721.5 53.8Q722.0 53.4 722.8 53.4L722.8 53.4Q723.5 53.4 724.0 53.7Q724.5 54.0 724.8 54.5Q725.1 55.1 725.1 55.8L725.1 55.8L725.1 60L723.3 60L723.3 56.1Q723.3 55.5 723.0 55.2Q722.7 54.8 722.2 54.8L722.2 54.8Q721.8 54.8 721.5 55.0Q721.2 55.2 721.0 55.5Q720.9 55.8 720.9 56.2ZM729.5 60.1L729.5 60.1Q728.5 60.1 727.8 59.7Q727.1 59.3 726.7 58.5Q726.3 57.8 726.3 56.8L726.3 56.8Q726.3 55.7 726.7 55.0Q727.1 54.2 727.8 53.8Q728.5 53.4 729.5 53.4L729.5 53.4Q730.5 53.4 731.2 53.8Q731.9 54.2 732.3 55.0Q732.7 55.7 732.7 56.8L732.7 56.8Q732.7 57.8 732.3 58.5Q731.9 59.3 731.2 59.7Q730.5 60.1 729.5 60.1ZM729.5 58.7L729.5 58.7Q730.0 58.7 730.3 58.5Q730.6 58.2 730.8 57.8Q730.9 57.3 730.9 56.7L730.9 56.7Q730.9 56.2 730.8 55.7Q730.6 55.3 730.3 55.0Q730.0 54.8 729.5 54.8L729.5 54.8Q729.1 54.8 728.7 55.0Q728.4 55.3 728.3 55.7Q728.1 56.2 728.1 56.7L728.1 56.7Q728.1 57.3 728.3 57.8Q728.4 58.2 728.7 58.5Q729.1 58.7 729.5 58.7ZM735.7 56.2L735.7 56.2L735.7 60L734.0 60L734.0 53.4L735.6 53.4L735.6 54.8Q735.9 54.2 736.3 53.8L736.3 53.8Q736.8 53.4 737.7 53.4L737.7 53.4Q738.4 53.4 738.9 53.7Q739.4 54.0 739.6 54.5Q739.9 55.1 739.9 55.8L739.9 55.8L739.9 60L738.2 60L738.2 56.1Q738.2 55.5 737.9 55.2Q737.5 54.8 737.0 54.8L737.0 54.8Q736.6 54.8 736.3 55.0Q736.0 55.2 735.9 55.5Q735.7 55.8 735.7 56.2ZM744.4 60.1L744.4 60.1Q743.4 60.1 742.7 59.7Q741.9 59.3 741.5 58.6Q741.1 57.8 741.1 56.8L741.1 56.8Q741.1 55.7 741.5 55.0Q741.9 54.2 742.6 53.8Q743.3 53.4 744.3 53.4L744.3 53.4Q744.9 53.4 745.5 53.6Q746.1 53.8 746.5 54.2Q746.9 54.6 747.1 55.2Q747.4 55.8 747.4 56.7L747.4 56.7L747.4 57.2L742.9 57.2Q742.9 57.7 743.1 58.0L743.1 58.0Q743.3 58.4 743.6 58.6Q744.0 58.8 744.4 58.8L744.4 58.8Q744.7 58.8 745.0 58.7Q745.2 58.6 745.4 58.5Q745.6 58.3 745.7 58.0L745.7 58.0L747.3 58.3Q747.1 58.9 746.7 59.3Q746.3 59.7 745.7 59.9Q745.1 60.1 744.4 60.1ZM742.9 56.1L742.9 56.1L745.7 56.1Q745.6 55.8 745.5 55.5L745.5 55.5Q745.4 55.1 745.1 54.9Q744.8 54.7 744.3 54.7L744.3 54.7Q743.9 54.7 743.5 54.9Q743.2 55.1 743.1 55.5L743.1 55.5Q742.9 55.7 742.9 56.1Z "/></g></svg>