<svg width="800" height="190" viewBox="0 0 800 190" xmlns="http://www.w3.org/2000/svg"><mask id="satori_om-id"><rect x="0" y="0" width="800" height="190" fill="#fff"/></mask><defs><pattern id="satori_pattern_id-0_0" x="0" y="0" width="1" height="1" patternUnits="objectBoundingBox"><linearGradient id="satori_biid-0_0" x1="-0.08571217275550942" y1="0.36089335897056674" x2="1.0857121727555095" y2="0.6391066410294333" spreadMethod="pad"><stop offset="0%" stop-color="#090917"/><stop offset="100%" stop-color="#0d0d2e"/></linearGradient><rect x="0" y="0" width="800" height="190" fill="url(#satori_biid-0_0)"/></pattern><clipPath id="satori_bc-id-0"><path x="0" y="0" width="800" height="190" d="M20,0 h760 a20,20 0 0 1 20,20 v150 a20,20 0 0 1 -20,20 h-760 a20,20 0 0 1 -20,-20 v-150 a20,20 0 0 1 20,-20"/></clipPath></defs><mask id="satori_om-id-0"><rect x="1" y="1" width="798" height="188" fill="#fff"/><path width="800" height="190" fill="none" stroke="#000" stroke-width="2" d="M5.8580000000000005,5.8580000000000005 A20,20 0 0 1 20,0 h760 a20,20 0 0 1 20,20 v150 a20,20 0 0 1 -20,20 h-760 a20,20 0 0 1 -20,-20 v-150 A20,20 0 0 1 5.8580000000000005,5.8580000000000005"/></mask><path x="0" y="0" width="800" height="190" fill="url(#satori_pattern_id-0_0)" d="M20,0 h760 a20,20 0 0 1 20,20 v150 a20,20 0 0 1 -20,20 h-760 a20,20 0 0 1 -20,-20 v-150 a20,20 0 0 1 20,-20"/><path width="800" height="190" clip-path="url(#satori_bc-id-0)" fill="none" stroke="#1c1c4e" stroke-width="2" d="M5.8580000000000005,5.8580000000000005 A20,20 0 0 1 20,0 h760 a20,20 0 0 1 20,20 v150 a20,20 0 0 1 -20,20 h-760 a20,20 0 0 1 -20,-20 v-150 A20,20 0 0 1 5.8580000000000005,5.8580000000000005"/><mask id="satori_om-id-0-0"><rect x="27" y="23" width="746" height="15" fill="#fff"/></mask><mask id="satori_ms-id-0-0-0-1" maskUnits="userSpaceOnUse"><rect x="0" y="0" width="800" height="190" fill="#fff"/><path x="27" y="27" width="8" height="8" fill="#000"  stroke-width="0" d="M31,27 h0 a4,4 0 0 1 4,4 v0 a4,4 0 0 1 -4,4 h0 a4,4 0 0 1 -4,-4 v0 a4,4 0 0 1 4,-4"/></mask><defs><filter id="satori_s-id-0-0-0-1" x="-800%" y="-800%" width="1700%" height="1700%"><feGaussianBlur stdDeviation="8" result="b"/><feFlood flood-color="rgba(0,255,159,0.5)" in="SourceGraphic" result="f"/><feComposite in="f" in2="b" operator="in"/></filter></defs><g mask="url(#satori_ms-id-0-0-0-1)" filter="url(#satori_s-id-0-0-0-1)" opacity="1"><path x="27" y="27" width="8" height="8" fill="#fff" stroke="#fff" stroke-width="0" d="M31,27 h0 a4,4 0 0 1 4,4 v0 a4,4 0 0 1 -4,4 h0 a4,4 0 0 1 -4,-4 v0 a4,4 0 0 1 4,-4"/></g><mask id="satori_ms-id-0-0-0-0" maskUnits="userSpaceOnUse"><rect x="0" y="0" width="800" height="190" fill="#fff"/><path x="27" y="27" width="8" height="8" fill="#000"  stroke-width="0" d="M31,27 h0 a4,4 0 0 1 4,4 v0 a4,4 0 0 1 -4,4 h0 a4,4 0 0 1 -4,-4 v0 a4,4 0 0 1 4,-4"/></mask><defs><filter id="satori_s-id-0-0-0-0" x="-200%" y="-200%" width="500%" height="500%"><feGaussianBlur stdDeviation="4" result="b"/><feFlood flood-color="#00ff9f" in="SourceGraphic" result="f"/><feComposite in="f" in2="b" operator="in"/></filter></defs><g mask="url(#satori_ms-id-0-0-0-0)" filter="url(#satori_s-id-0-0-0-0)" opacity="1"><path x="27" y="27" width="8" height="8" fill="#fff" stroke="#fff" stroke-width="0" d="M31,27 h0 a4,4 0 0 1 4,4 v0 a4,4 0 0 1 -4,4 h0 a4,4 0 0 1 -4,-4 v0 a4,4 0 0 1 4,-4"/></g><mask id="satori_om-id-0-0-0"><rect x="27" y="27" width="8" height="8" fill="#fff"/></mask><path x="27" y="27" width="8" height="8" fill="#00ff9f" d="M31,27 h0 a4,4 0 0 1 4,4 v0 a4,4 0 0 1 -4,4 h0 a4,4 0 0 1 -4,-4 v0 a4,4 0 0 1 4,-4"/><mask id="satori_om-id-0-0-1"><rect x="45" y="23" width="171" height="15" fill="#fff"/></mask><g  ><path fill="#667eea" d="M51.2 37.5L51.2 37.5Q49.9 37.5 48.8 37.1Q47.8 36.8 47.0 36.1Q46.3 35.4 45.9 34.3Q45.6 33.3 45.6 32.0L45.6 32.0Q45.6 30.7 45.9 29.7Q46.3 28.6 47.0 27.9Q47.7 27.1 48.8 26.7Q49.8 26.3 51.2 26.3L51.2 26.3Q52.4 26.3 53.5 26.7Q54.5 27.1 55.2 27.8Q55.9 28.4 56.3 29.4Q56.6 30.3 56.6 31.4L56.6 31.4Q56.6 32.1 56.5 32.7Q56.4 33.4 56.1 33.8Q55.8 34.3 55.3 34.6Q54.9 34.8 54.2 34.8L54.2 34.8Q53.8 34.8 53.5 34.7Q53.2 34.6 52.9 34.4Q52.7 34.2 52.6 33.9L52.6 33.9L52.6 33.9Q52.4 34.3 52.0 34.6Q51.5 34.8 50.8 34.8L50.8 34.8Q50.0 34.8 49.5 34.5Q48.9 34.1 48.6 33.5Q48.3 32.8 48.3 31.9L48.3 31.9Q48.3 31.1 48.6 30.4Q48.9 29.7 49.5 29.4Q50.1 29.0 50.9 29.0L50.9 29.0Q51.4 29.0 51.8 29.2Q52.3 29.4 52.4 29.7L52.4 29.7L52.5 29.7L52.5 29.1L53.7 29.1L53.7 33.1Q53.7 33.4 53.8 33.5Q54.0 33.7 54.2 33.7L54.2 33.7Q54.6 33.7 54.8 33.5Q55.0 33.2 55.1 32.7Q55.2 32.2 55.2 31.5L55.2 31.5Q55.2 30.6 55.0 29.9Q54.7 29.2 54.2 28.7Q53.7 28.2 53.0 27.9Q52.3 27.7 51.3 27.7L51.3 27.7Q50.2 27.7 49.5 28.0Q48.7 28.3 48.1 28.8Q47.6 29.4 47.3 30.1Q47.0 30.9 47.0 31.9L47.0 31.9Q47.0 33.0 47.3 33.7Q47.6 34.5 48.1 35.1Q48.7 35.6 49.5 35.9Q50.3 36.2 51.4 36.2L51.4 36.2Q51.8 36.2 52.3 36.1Q52.7 36.0 53.1 35.9Q53.4 35.8 53.7 35.7L53.7 35.7L54.1 36.9Q53.9 37.1 53.4 37.2Q52.9 37.3 52.4 37.4Q51.8 37.5 51.2 37.5ZM51.0 33.6L51.0 33.6Q51.5 33.6 51.8 33.4Q52.1 33.2 52.3 32.8Q52.4 32.5 52.4 31.9L52.4 31.9Q52.4 31.3 52.3 31.0Q52.1 30.6 51.8 30.5Q51.5 30.3 51.0 30.3L51.0 30.3Q50.6 30.3 50.2 30.5Q49.9 30.7 49.8 31.1Q49.6 31.4 49.6 31.9L49.6 31.9Q49.6 32.4 49.8 32.8Q49.9 33.2 50.2 33.4Q50.5 33.6 51.0 33.6ZM59.9 37.3L59.9 37.3L60.3 36.0L60.5 36.0Q60.9 36.1 61.1 36.1Q61.4 36.1 61.6 35.9Q61.8 35.7 61.8 35.4L61.8 35.4L61.8 35.0L59.4 28.4L61.2 28.4L62.3 31.8Q62.5 32.5 62.7 33.1L62.7 33.1Q62.7 33.4 62.8 33.6L62.8 33.6Q62.8 33.4 62.9 33.1L62.9 33.1Q63.0 32.5 63.2 31.8L63.2 31.8L64.4 28.4L66.2 28.4L63.4 35.8Q63.2 36.3 62.9 36.7Q62.6 37.1 62.2 37.3Q61.7 37.5 61.0 37.5L61.0 37.5Q60.7 37.5 60.4 37.4Q60.1 37.4 59.9 37.3ZM72.1 35.1L72.1 35.1Q71.1 35.1 70.4 34.7Q69.7 34.3 69.3 33.5Q68.9 32.8 68.9 31.8L68.9 31.8Q68.9 30.7 69.3 30.0Q69.7 29.2 70.4 28.8Q71.1 28.4 72.1 28.4L72.1 28.4Q73.1 28.4 73.8 28.8Q74.5 29.2 74.9 30.0Q75.3 30.7 75.3 31.8L75.3 31.8Q75.3 32.8 74.9 33.5Q74.5 34.3 73.8 34.7Q73.1 35.1 72.1 35.1ZM72.1 33.7L72.1 33.7Q72.6 33.7 72.9 33.5Q73.2 33.2 73.4 32.8Q73.5 32.3 73.5 31.7L73.5 31.7Q73.5 31.2 73.4 30.7Q73.2 30.3 72.9 30.0Q72.6 29.8 72.1 29.8L72.1 29.8Q71.6 29.8 71.3 30.0Q71.0 30.3 70.8 30.7Q70.7 31.2 70.7 31.7L70.7 31.7Q70.7 32.3 70.8 32.8Q71.0 33.2 71.3 33.5Q71.6 33.7 72.1 33.7ZM80.8 35.1L80.8 35.1Q80.1 35.1 79.6 34.8Q79.1 34.5 78.8 33.9Q78.5 33.4 78.5 32.6L78.5 32.6L78.5 28.4L80.3 28.4L80.3 32.3Q80.3 32.9 80.6 33.3Q80.9 33.6 81.5 33.6L81.5 33.6Q81.8 33.6 82.1 33.5Q82.4 33.3 82.6 33.0Q82.7 32.7 82.7 32.2L82.7 32.2L82.7 28.4L84.5 28.4L84.5 35L82.8 35L82.8 33.6Q82.6 34.3 82.1 34.6L82.1 34.6Q81.6 35.1 80.8 35.1ZM89.8 35L88.0 35L88.0 28.4L89.7 28.4L89.7 29.6L89.8 29.6Q89.9 29.0 90.4 28.7Q90.8 28.4 91.3 28.4L91.3 28.4Q91.5 28.4 91.6 28.4Q91.8 28.4 91.9 28.4L91.9 28.4L91.9 30.0Q91.8 29.9 91.6 29.9Q91.4 29.9 91.2 29.9L91.2 29.9Q90.8 29.9 90.4 30.1Q90.1 30.2 89.9 30.6Q89.8 30.9 89.8 31.3L89.8 31.3L89.8 35ZM95.0 30.7L98.9 30.7L98.9 32.1L95.0 32.1L95.0 30.7ZM104.3 31.2L104.3 31.2L104.3 35L102.5 35L102.5 26.3L104.2 26.3L104.2 29.7Q104.5 29.2 104.9 28.8L104.9 28.8Q105.4 28.4 106.2 28.4L106.2 28.4Q106.9 28.4 107.4 28.7Q107.9 29.0 108.2 29.5Q108.5 30.1 108.5 30.8L108.5 30.8L108.5 35L106.7 35L106.7 31.1Q106.7 30.5 106.4 30.2Q106.1 29.8 105.5 29.8L105.5 29.8Q105.2 29.8 104.9 30.0Q104.6 30.2 104.4 30.5Q104.3 30.8 104.3 31.2ZM113.8 35.1L113.8 35.1Q113.2 35.1 112.7 34.9Q112.2 34.7 111.9 34.3Q111.6 33.8 111.6 33.2L111.6 33.2Q111.6 32.6 111.8 32.3Q112.0 31.9 112.4 31.7Q112.7 31.4 113.2 31.3Q113.6 31.2 114.1 31.2L114.1 31.2Q114.7 31.1 115.0 31.0Q115.4 31.0 115.5 30.9Q115.7 30.8 115.7 30.6L115.7 30.6L115.7 30.5Q115.7 30.3 115.6 30.1Q115.4 29.9 115.2 29.8Q115.0 29.7 114.7 29.7L114.7 29.7Q114.3 29.7 114.1 29.8Q113.8 29.9 113.7 30.0Q113.5 30.2 113.4 30.4L113.4 30.4L111.8 30.2Q112.0 29.6 112.4 29.2Q112.8 28.8 113.3 28.6Q113.9 28.4 114.7 28.4L114.7 28.4Q115.2 28.4 115.7 28.5Q116.2 28.6 116.6 28.9Q117.0 29.1 117.2 29.6Q117.4 30.0 117.4 30.6L117.4 30.6L117.4 35L115.8 35L115.8 34.1L115.7 34.1Q115.6 34.4 115.3 34.6Q115.0 34.9 114.7 35.0Q114.3 35.1 113.8 35.1ZM114.3 33.9L114.3 33.9Q114.7 33.9 115.0 33.7Q115.3 33.6 115.5 33.3Q115.7 33.0 115.7 32.7L115.7 32.7L115.7 31.9Q115.6 32.0 115.5 32.1Q115.3 32.1 115.1 32.1Q114.9 32.2 114.7 32.2Q114.5 32.2 114.4 32.2L114.4 32.2Q114.1 32.3 113.8 32.4Q113.6 32.5 113.4 32.7Q113.3 32.8 113.3 33.1L113.3 33.1Q113.3 33.4 113.4 33.5Q113.6 33.7 113.8 33.8Q114.0 33.9 114.3 33.9ZM122.7 31.2L122.7 31.2L122.7 35L120.9 35L120.9 28.4L122.6 28.4L122.6 29.8Q122.9 29.2 123.3 28.8L123.3 28.8Q123.8 28.4 124.7 28.4L124.7 28.4Q125.3 28.4 125.8 28.7Q126.3 29.0 126.6 29.5Q126.9 30.1 126.9 30.8L126.9 30.8L126.9 35L125.1 35L125.1 31.1Q125.1 30.5 124.8 30.2Q124.5 29.8 124.0 29.8L124.0 29.8Q123.6 29.8 123.3 30.0Q123.0 30.2 122.9 30.5Q122.7 30.8 122.7 31.2ZM132.8 35.1L132.8 35.1Q132.0 35.1 131.4 34.7Q130.8 34.3 130.5 33.6Q130.1 32.8 130.1 31.7L130.1 31.7Q130.1 30.6 130.5 29.9Q130.9 29.1 131.5 28.7Q132.1 28.4 132.8 28.4L132.8 28.4Q133.3 28.4 133.7 28.6Q134.1 28.7 134.3 29.0Q134.5 29.3 134.7 29.6L134.7 29.6L134.7 29.6L134.7 26.3L136.5 26.3L136.5 35L134.7 35L134.7 34.0L134.7 34.0Q134.5 34.2 134.3 34.5Q134.1 34.7 133.7 34.9Q133.3 35.1 132.8 35.1ZM133.3 33.7L133.3 33.7Q133.8 33.7 134.1 33.5Q134.4 33.2 134.6 32.8Q134.7 32.3 134.7 31.7L134.7 31.7Q134.7 31.1 134.6 30.7Q134.4 30.3 134.1 30.0Q133.8 29.8 133.3 29.8L133.3 29.8Q132.9 29.8 132.6 30.0Q132.3 30.3 132.1 30.7Q131.9 31.2 131.9 31.7L131.9 31.7Q131.9 32.3 132.1 32.8Q132.3 33.2 132.6 33.4Q132.9 33.7 133.3 33.7ZM140.0 26.3L141.7 26.3L141.7 35L140.0 35L140.0 26.3ZM148.2 35.1L148.2 35.1Q147.2 35.1 146.5 34.7Q145.7 34.3 145.3 33.6Q144.9 32.8 144.9 31.8L144.9 31.8Q144.9 30.7 145.3 30.0Q145.7 29.2 146.4 28.8Q147.1 28.4 148.1 28.4L148.1 28.4Q148.7 28.4 149.3 28.6Q149.9 28.8 150.3 29.2Q150.7 29.6 150.9 30.2Q151.2 30.8 151.2 31.7L151.2 31.7L151.2 32.2L146.7 32.2Q146.7 32.7 146.9 33.0L146.9 33.0Q147.1 33.4 147.4 33.6Q147.8 33.8 148.2 33.8L148.2 33.8Q148.5 33.8 148.8 33.7Q149.0 33.6 149.2 33.5Q149.4 33.3 149.5 33.0L149.5 33.0L151.1 33.3Q150.9 33.9 150.5 34.3Q150.1 34.7 149.5 34.9Q148.9 35.1 148.2 35.1ZM146.7 31.1L146.7 31.1L149.5 31.1Q149.4 30.8 149.3 30.5L149.3 30.5Q149.2 30.1 148.9 29.9Q148.6 29.7 148.1 29.7L148.1 29.7Q147.7 29.7 147.3 29.9Q147.0 30.1 146.9 30.5L146.9 30.5Q146.7 30.7 146.7 31.1Z M161.4 25.9L163.0 25.9L160.2 36.3L158.6 36.3L161.4 25.9ZM168.1 25.9L169.6 25.9L166.8 36.3L165.3 36.3L168.1 25.9Z M180.0 35.1L180.0 35.1Q179.2 35.1 178.6 34.9Q178.0 34.7 177.6 34.2Q177.2 33.8 177.1 33.2L177.1 33.2L178.7 32.9Q178.8 33.4 179.2 33.6Q179.5 33.8 180.0 33.8L180.0 33.8Q180.5 33.8 180.8 33.6Q181.1 33.5 181.1 33.2L181.1 33.2Q181.1 32.9 180.9 32.7Q180.7 32.6 180.3 32.5L180.3 32.5L179.1 32.3Q178.2 32.1 177.7 31.6Q177.2 31.1 177.2 30.4L177.2 30.4Q177.2 29.8 177.6 29.3Q177.9 28.9 178.6 28.6Q179.2 28.4 180.0 28.4L180.0 28.4Q180.8 28.4 181.3 28.6Q181.9 28.8 182.3 29.2Q182.6 29.6 182.7 30.1L182.7 30.1L181.2 30.4Q181.1 30.1 180.8 29.8Q180.5 29.6 180.0 29.6L180.0 29.6Q179.6 29.6 179.3 29.8Q179.0 30.0 179.0 30.3L179.0 30.3Q179.0 30.5 179.2 30.7Q179.4 30.9 179.8 31.0L179.8 31.0L181.0 31.2Q182.0 31.4 182.4 31.8Q182.9 32.3 182.9 33.0L182.9 33.0Q182.9 33.6 182.5 34.1Q182.2 34.6 181.5 34.9Q180.8 35.1 180.0 35.1ZM188.1 28.4L189.3 28.4L189.3 29.8L188.1 29.8L188.1 33.1Q188.1 33.4 188.3 33.5Q188.4 33.7 188.7 33.7L188.7 33.7Q188.8 33.7 189.0 33.7Q189.2 33.6 189.3 33.6L189.3 33.6L189.5 34.9Q189.2 35.0 188.9 35.1Q188.7 35.1 188.4 35.1L188.4 35.1Q187.4 35.1 186.9 34.6Q186.4 34.1 186.4 33.2L186.4 33.2L186.4 29.8L185.5 29.8L185.5 28.4L186.4 28.4L186.4 26.9L188.1 26.9L188.1 28.4ZM194.3 35.1L194.3 35.1Q193.7 35.1 193.2 34.9Q192.7 34.7 192.4 34.3Q192.1 33.8 192.1 33.2L192.1 33.2Q192.1 32.6 192.3 32.3Q192.5 31.9 192.9 31.7Q193.2 31.4 193.7 31.3Q194.1 31.2 194.6 31.2L194.6 31.2Q195.2 31.1 195.5 31.0Q195.9 31.0 196.0 30.9Q196.2 30.8 196.2 30.6L196.2 30.6L196.2 30.5Q196.2 30.3 196.1 30.1Q196.0 29.9 195.7 29.8Q195.5 29.7 195.2 29.7L195.2 29.7Q194.8 29.7 194.6 29.8Q194.3 29.9 194.2 30.0Q194.0 30.2 193.9 30.4L193.9 30.4L192.3 30.2Q192.5 29.6 192.9 29.2Q193.3 28.8 193.9 28.6Q194.4 28.4 195.2 28.4L195.2 28.4Q195.7 28.4 196.2 28.5Q196.7 28.6 197.1 28.9Q197.5 29.1 197.7 29.6Q198.0 30.0 198.0 30.6L198.0 30.6L198.0 35L196.3 35L196.3 34.1L196.2 34.1Q196.1 34.4 195.8 34.6Q195.5 34.9 195.2 35.0Q194.8 35.1 194.3 35.1ZM194.8 33.9L194.8 33.9Q195.2 33.9 195.5 33.7Q195.9 33.6 196.0 33.3Q196.2 33.0 196.2 32.7L196.2 32.7L196.2 31.9Q196.1 32.0 196.0 32.1Q195.8 32.1 195.6 32.1Q195.4 32.2 195.2 32.2Q195.1 32.2 194.9 32.2L194.9 32.2Q194.6 32.3 194.3 32.4Q194.1 32.5 194.0 32.7Q193.8 32.8 193.8 33.1L193.8 33.1Q193.8 33.4 194.0 33.5Q194.1 33.7 194.3 33.8Q194.5 33.9 194.8 33.9ZM203.5 28.4L204.7 28.4L204.7 29.8L203.5 29.8L203.5 33.1Q203.5 33.4 203.6 33.5Q203.8 33.7 204.1 33.7L204.1 33.7Q204.2 33.7 204.4 33.7Q204.5 33.6 204.6 33.6L204.6 33.6L204.9 34.9Q204.6 35.0 204.3 35.1Q204.0 35.1 203.8 35.1L203.8 35.1Q202.8 35.1 202.2 34.6Q201.7 34.1 201.7 33.2L201.7 33.2L201.7 29.8L200.8 29.8L200.8 28.4L201.7 28.4L201.7 26.9L203.5 26.9L203.5 28.4ZM210.4 35.1L210.4 35.1Q209.7 35.1 209.0 34.9Q208.4 34.7 208.1 34.2Q207.7 33.8 207.6 33.2L207.6 33.2L209.2 32.9Q209.3 33.4 209.6 33.6Q210.0 33.8 210.5 33.8L210.5 33.8Q211.0 33.8 211.3 33.6Q211.6 33.5 211.6 33.2L211.6 33.2Q211.6 32.9 211.4 32.7Q211.2 32.6 210.7 32.5L210.7 32.5L209.6 32.3Q208.7 32.1 208.2 31.6Q207.7 31.1 207.7 30.4L207.7 30.4Q207.7 29.8 208.1 29.3Q208.4 28.9 209.0 28.6Q209.6 28.4 210.5 28.4L210.5 28.4Q211.3 28.4 211.8 28.6Q212.4 28.8 212.7 29.2Q213.1 29.6 213.2 30.1L213.2 30.1L211.7 30.4Q211.6 30.1 211.3 29.8Q211.0 29.6 210.5 29.6L210.5 29.6Q210.1 29.6 209.8 29.8Q209.5 30.0 209.5 30.3L209.5 30.3Q209.5 30.5 209.7 30.7Q209.9 30.9 210.3 31.0L210.3 31.0L211.5 31.2Q212.5 31.4 212.9 31.8Q213.4 32.3 213.4 33.0L213.4 33.0Q213.4 33.6 213.0 34.1Q212.6 34.6 212.0 34.9Q211.3 35.1 210.4 35.1Z "/></g><mask id="satori_om-id-0-0-2"><rect x="226" y="24" width="547" height="13" fill="#fff"/></mask><mask id="satori_om-id-0-0-2-0"><rect x="714" y="24" width="59" height="13" fill="#fff"/></mask><g  ><path fill="#33336e" d="M718.2 35L717.2 35L717.2 31.7L714.3 27.0L715.5 27.0L717.0 29.6Q717.3 30.0 717.5 30.4L717.5 30.4Q717.6 30.6 717.7 30.9L717.7 30.9Q717.9 30.6 718.0 30.4L718.0 30.4Q718.2 30.0 718.4 29.6L718.4 29.6L720.0 27.0L721.2 27.0L718.2 31.7L718.2 35ZM724.8 35.1L724.8 35.1Q723.9 35.1 723.3 34.7Q722.7 34.4 722.4 33.7Q722.0 33.0 722.0 32.0L722.0 32.0Q722.0 31.1 722.4 30.4Q722.7 29.7 723.3 29.3Q723.9 28.9 724.8 28.9L724.8 28.9Q725.6 28.9 726.2 29.3Q726.8 29.7 727.2 30.4Q727.5 31.1 727.5 32.0L727.5 32.0Q727.5 33.0 727.2 33.7Q726.8 34.4 726.2 34.7Q725.6 35.1 724.8 35.1ZM724.8 34.3L724.8 34.3Q725.4 34.3 725.8 34.0Q726.1 33.6 726.3 33.1Q726.5 32.6 726.5 32.0L726.5 32.0Q726.5 31.4 726.3 30.9Q726.1 30.4 725.8 30.1Q725.4 29.8 724.8 29.8L724.8 29.8Q724.2 29.8 723.8 30.1Q723.4 30.4 723.2 30.9Q723.0 31.4 723.0 32.0L723.0 32.0Q723.0 32.6 723.2 33.1Q723.4 33.6 723.8 34.0Q724.2 34.3 724.8 34.3ZM730.9 35.1L730.9 35.1Q730.3 35.1 729.9 34.8Q729.4 34.6 729.2 34.1Q728.9 33.6 728.9 32.8L728.9 32.8L728.9 29.0L729.9 29.0L729.9 32.7Q729.9 33.4 730.2 33.8Q730.6 34.2 731.2 34.2L731.2 34.2Q731.7 34.2 732.0 34.0Q732.3 33.8 732.5 33.5Q732.7 33.1 732.7 32.6L732.7 32.6L732.7 29.0L733.7 29.0L733.7 35L732.8 35L732.8 33.9Q732.5 34.5 732.1 34.7L732.1 34.7Q731.6 35.1 730.9 35.1ZM736.4 35L735.4 35L735.4 29.0L736.3 29.0L736.3 29.9L736.4 29.9Q736.6 29.5 737.0 29.2Q737.4 28.9 738.0 28.9L738.0 28.9Q738.1 28.9 738.2 28.9Q738.4 28.9 738.5 28.9L738.5 28.9L738.5 29.9Q738.4 29.9 738.2 29.9Q738.1 29.8 737.9 29.8L737.9 29.8Q737.5 29.8 737.1 30.0Q736.8 30.2 736.6 30.5Q736.4 30.8 736.4 31.2L736.4 31.2L736.4 35Z M743.8 35L742.8 35L742.8 27.0L744.0 27.0L747.2 32.1Q747.4 32.3 747.5 32.6Q747.7 32.9 747.9 33.3L747.9 33.3Q748.1 33.5 748.2 33.8L748.2 33.8Q748.1 33.5 748.1 33.3L748.1 33.3Q748.1 32.9 748.1 32.5Q748.1 32.2 748.1 31.9L748.1 31.9L748.1 27.0L749.1 27.0L749.1 35L747.9 35L745.0 30.4Q744.8 30.1 744.6 29.8Q744.4 29.5 744.1 29.0L744.1 29.0Q744.0 28.7 743.7 28.2L743.7 28.2Q743.7 28.6 743.7 29.0L743.7 29.0Q743.8 29.5 743.8 29.8Q743.8 30.2 743.8 30.4L743.8 30.4L743.8 35ZM752.6 35.1L752.6 35.1Q752.0 35.1 751.6 34.9Q751.1 34.7 750.8 34.3Q750.6 33.9 750.6 33.3L750.6 33.3Q750.6 32.8 750.8 32.5Q751.0 32.1 751.3 31.9Q751.7 31.8 752.1 31.7Q752.5 31.6 752.9 31.5L752.9 31.5Q753.4 31.5 753.8 31.4Q754.1 31.4 754.3 31.3Q754.4 31.2 754.4 31.0L754.4 31.0L754.4 30.9Q754.4 30.6 754.3 30.3Q754.2 30.0 753.9 29.9Q753.6 29.8 753.2 29.8L753.2 29.8Q752.8 29.8 752.5 29.9Q752.2 30.0 752.0 30.2Q751.8 30.4 751.7 30.6L751.7 30.6L750.7 30.3Q751.0 29.8 751.4 29.5Q751.8 29.2 752.2 29.0Q752.7 28.9 753.2 28.9L753.2 28.9Q753.5 28.9 753.9 29.0Q754.2 29.1 754.6 29.3Q754.9 29.5 755.2 29.9Q755.4 30.3 755.4 31.0L755.4 31.0L755.4 35L754.5 35L754.5 34.2L754.4 34.2Q754.3 34.4 754.1 34.6Q753.8 34.8 753.5 35.0Q753.1 35.1 752.6 35.1ZM752.8 34.3L752.8 34.3Q753.3 34.3 753.7 34.1Q754.1 33.9 754.3 33.5Q754.4 33.2 754.4 32.8L754.4 32.8L754.4 32.0Q754.4 32.1 754.2 32.1Q754.0 32.2 753.7 32.2Q753.5 32.3 753.2 32.3Q753.0 32.3 752.9 32.3L752.9 32.3Q752.5 32.4 752.2 32.5Q751.9 32.6 751.7 32.8Q751.5 33.0 751.5 33.3L751.5 33.3Q751.5 33.7 751.7 33.9Q751.9 34.1 752.1 34.2Q752.4 34.3 752.8 34.3ZM758.1 35L757.1 35L757.1 29.0L758.1 29.0L758.1 30.1Q758.2 29.8 758.4 29.5L758.4 29.5Q758.6 29.2 759.0 29.0Q759.4 28.9 759.7 28.9L759.7 28.9Q760.4 28.9 760.8 29.3L760.8 29.3Q761.1 29.6 761.3 30.1L761.3 30.1Q761.4 29.8 761.6 29.6L761.6 29.6Q761.9 29.2 762.3 29.1Q762.7 28.9 763.2 28.9L763.2 28.9Q763.7 28.9 764.1 29.1Q764.5 29.3 764.8 29.8Q765.1 30.3 765.1 31.0L765.1 31.0L765.1 35L764.1 35L764.1 31.0Q764.1 30.3 763.7 30.0Q763.4 29.8 762.9 29.8L762.9 29.8Q762.5 29.8 762.2 29.9Q761.9 30.1 761.7 30.4Q761.6 30.7 761.6 31.1L761.6 31.1L761.6 35L760.6 35L760.6 30.9Q760.6 30.4 760.3 30.1Q759.9 29.8 759.4 29.8L759.4 29.8Q759.1 29.8 758.8 29.9Q758.5 30.1 758.3 30.4Q758.1 30.7 758.1 31.2L758.1 31.2L758.1 35ZM769.3 35.1L769.3 35.1Q768.4 35.1 767.8 34.7Q767.1 34.4 766.8 33.7Q766.5 33.0 766.5 32.0Q766.5 31.1 766.8 30.4Q767.1 29.7 767.7 29.3Q768.3 28.9 769.2 28.9L769.2 28.9Q769.6 28.9 770.1 29.1Q770.6 29.2 770.9 29.6Q771.3 29.9 771.6 30.5Q771.8 31.1 771.8 31.9L771.8 31.9L771.8 32.3L767.4 32.3Q767.5 32.9 767.7 33.3L767.7 33.3Q767.9 33.8 768.3 34.0Q768.7 34.3 769.3 34.3L769.3 34.3Q769.6 34.3 769.9 34.2Q770.2 34.1 770.4 33.9Q770.6 33.7 770.7 33.3L770.7 33.3L771.7 33.6Q771.5 34.1 771.2 34.4Q770.9 34.7 770.4 34.9Q769.9 35.1 769.3 35.1ZM767.4 31.5L767.4 31.5L770.8 31.5Q770.8 31.1 770.6 30.8L770.6 30.8Q770.4 30.3 770.1 30.0Q769.7 29.8 769.2 29.8Q768.6 29.8 768.2 30.0Q767.8 30.3 767.6 30.7L767.6 30.7Q767.5 31.1 767.4 31.5Z "/></g><mask id="satori_om-id-0-1"><rect x="27" y="54" width="746" height="88" fill="#fff"/></mask><defs><clipPath id="satori_bc-id-0-1-0"><path x="27" y="54" width="179" height="88" d="M41,54 h151 a14,14 0 0 1 14,14 v60 a14,14 0 0 1 -14,14 h-151 a14,14 0 0 1 -14,-14 v-60 a14,14 0 0 1 14,-14"/></clipPath></defs><mask id="satori_ms-id-0-1-0-0" maskUnits="userSpaceOnUse"><rect x="0" y="0" width="800" height="190" fill="#fff"/><path x="27" y="54" width="179" height="88" fill="#000"  stroke-width="0" d="M41,54 h151 a14,14 0 0 1 14,14 v60 a14,14 0 0 1 -14,14 h-151 a14,14 0 0 1 -14,-14 v-60 a14,14 0 0 1 14,-14"/></mask><defs><filter id="satori_s-id-0-1-0-0" x="-67.59776536312849%" y="-137.5%" width="235.19553072625698%" height="375%"><feGaussianBlur stdDeviation="11" result="b"/><feFlood flood-color="rgba(255,215,0,0.35)" in="SourceGraphic" result="f"/><feComposite in="f" in2="b" operator="in"/></filter></defs><g mask="url(#satori_ms-id-0-1-0-0)" filter="url(#satori_s-id-0-1-0-0)" opacity="1"><path x="27" y="54" width="179" height="88" fill="#fff" stroke="#fff" stroke-width="0" d="M41,54 h151 a14,14 0 0 1 14,14 v60 a14,14 0 0 1 -14,14 h-151 a14,14 0 0 1 -14,-14 v-60 a14,14 0 0 1 14,-14"/></g><mask id="satori_om-id-0-1-0"><rect x="28" y="55" width="177" height="86" fill="#fff"/><path width="179" height="88" fill="none" stroke="#000" stroke-width="2" d="M31.101,58.101 A14,14 0 0 1 41,54 h151 a14,14 0 0 1 14,14 v60 a14,14 0 0 1 -14,14 h-151 a14,14 0 0 1 -14,-14 v-60 A14,14 0 0 1 31.101,58.101"/></mask><path x="27" y="54" width="179" height="88" fill="#0a0a22" d="M41,54 h151 a14,14 0 0 1 14,14 v60 a14,14 0 0 1 -14,14 h-151 a14,14 0 0 1 -14,-14 v-60 a14,14 0 0 1 14,-14"/><path width="179" height="88" clip-path="url(#satori_bc-id-0-1-0)" fill="none" stroke="#1e1e4e" stroke-width="2" d="M31.101,58.101 A14,14 0 0 1 41,54 h151 a14,14 0 0 1 14,14 v60 a14,14 0 0 1 -14,14 h-151 a14,14 0 0 1 -14,-14 v-60 A14,14 0 0 1 31.101,58.101"/><mask id="satori_om-id-0-1-0-0"><rect x="80" y="75" width="73" height="28" fill="#fff"/></mask><g  ><path fill="#ffd700" d="M88.7 99.3L88.7 99.3Q86.7 99.3 85.1 98.5Q83.6 97.7 82.6 96.4Q81.7 95.0 81.5 93.3L81.5 93.3L85.6 93.3Q85.9 94.4 86.7 95.1Q87.5 95.7 88.7 95.7L88.7 95.7Q90.0 95.7 91.0 94.9Q91.9 94.1 92.4 92.6Q92.8 91.2 92.8 89.2L92.8 89.2L92.7 89.2Q92.2 90.0 91.5 90.7Q90.7 91.3 89.7 91.7Q88.7 92.0 87.6 92.0L87.6 92.0Q85.8 92.0 84.3 91.2Q82.9 90.3 82.1 88.8Q81.3 87.3 81.3 85.4L81.3 85.4Q81.3 83.4 82.2 81.8Q83.2 80.1 84.9 79.2Q86.6 78.3 88.9 78.3L88.9 78.3Q90.4 78.3 91.9 78.9Q93.3 79.4 94.4 80.5Q95.6 81.7 96.2 83.6Q96.9 85.5 96.9 88.3L96.9 88.3Q96.9 90.9 96.3 92.9Q95.8 95.0 94.7 96.4Q93.6 97.8 92.1 98.6Q90.6 99.3 88.7 99.3ZM88.8 89.0L88.8 89.0Q89.6 89.0 90.2 88.7Q90.9 88.4 91.4 87.9Q91.9 87.4 92.1 86.7Q92.4 86.1 92.4 85.3L92.4 85.3Q92.4 84.3 91.9 83.5Q91.5 82.7 90.7 82.2Q89.9 81.7 88.9 81.7L88.9 81.7Q87.9 81.7 87.1 82.1Q86.3 82.6 85.8 83.5Q85.3 84.3 85.3 85.3L85.3 85.3Q85.3 86.3 85.8 87.2Q86.3 88.0 87.0 88.5Q87.8 89.0 88.8 89.0ZM106.9 99.3L106.9 99.3Q104.9 99.3 103.3 98.5Q101.8 97.7 100.8 96.4Q99.9 95.0 99.7 93.3L99.7 93.3L103.8 93.3Q104.0 94.4 104.9 95.1Q105.7 95.7 106.9 95.7L106.9 95.7Q108.2 95.7 109.1 94.9Q110.1 94.1 110.5 92.6Q111.0 91.2 111.0 89.2L111.0 89.2L110.9 89.2Q110.4 90.0 109.6 90.7Q108.9 91.3 107.9 91.7Q106.9 92.0 105.8 92.0L105.8 92.0Q104.0 92.0 102.5 91.2Q101.1 90.3 100.3 88.8Q99.5 87.3 99.5 85.4L99.5 85.4Q99.5 83.4 100.4 81.8Q101.4 80.1 103.1 79.2Q104.8 78.3 107.1 78.3L107.1 78.3Q108.6 78.3 110.0 78.9Q111.5 79.4 112.6 80.5Q113.8 81.7 114.4 83.6Q115.1 85.5 115.1 88.3L115.1 88.3Q115.1 90.9 114.5 92.9Q113.9 95.0 112.9 96.4Q111.8 97.8 110.3 98.6Q108.8 99.3 106.9 99.3ZM107.0 89.0L107.0 89.0Q107.8 89.0 108.4 88.7Q109.1 88.4 109.6 87.9Q110.0 87.4 110.3 86.7Q110.6 86.1 110.6 85.3L110.6 85.3Q110.6 84.3 110.1 83.5Q109.7 82.7 108.9 82.2Q108.1 81.7 107.1 81.7L107.1 81.7Q106.1 81.7 105.3 82.1Q104.5 82.6 104.0 83.5Q103.5 84.3 103.5 85.3L103.5 85.3Q103.5 86.3 104.0 87.2Q104.4 88.0 105.2 88.5Q106.0 89.0 107.0 89.0ZM125.1 99.3L125.1 99.3Q123.1 99.3 121.5 98.5Q119.9 97.7 119.0 96.4Q118.1 95.0 117.9 93.3L117.9 93.3L122.0 93.3Q122.2 94.4 123.0 95.1Q123.8 95.7 125.1 95.7L125.1 95.7Q126.4 95.7 127.3 94.9Q128.2 94.1 128.7 92.6Q129.2 91.2 129.2 89.2L129.2 89.2L129.1 89.2Q128.6 90.0 127.8 90.7Q127.0 91.3 126.1 91.7Q125.1 92.0 123.9 92.0L123.9 92.0Q122.1 92.0 120.7 91.2Q119.3 90.3 118.5 88.8Q117.7 87.3 117.7 85.4L117.7 85.4Q117.7 83.4 118.6 81.8Q119.6 80.1 121.3 79.2Q123.0 78.3 125.2 78.3L125.2 78.3Q126.8 78.3 128.2 78.9Q129.7 79.4 130.8 80.5Q131.9 81.7 132.6 83.6Q133.3 85.5 133.3 88.3L133.3 88.3Q133.3 90.9 132.7 92.9Q132.1 95.0 131.0 96.4Q130.0 97.8 128.5 98.6Q126.9 99.3 125.1 99.3ZM125.2 89.0L125.2 89.0Q126.0 89.0 126.6 88.7Q127.3 88.4 127.7 87.9Q128.2 87.4 128.5 86.7Q128.8 86.1 128.8 85.3L128.8 85.3Q128.8 84.3 128.3 83.5Q127.9 82.7 127.1 82.2Q126.3 81.7 125.2 81.7L125.2 81.7Q124.2 81.7 123.4 82.1Q122.6 82.6 122.2 83.5Q121.7 84.3 121.7 85.3L121.7 85.3Q121.7 86.3 122.2 87.2Q122.6 88.0 123.4 88.5Q124.2 89.0 125.2 89.0ZM143.2 99.3L143.2 99.3Q141.2 99.3 139.7 98.5Q138.1 97.7 137.2 96.4Q136.2 95.0 136.0 93.3L136.0 93.3L140.2 93.3Q140.4 94.4 141.2 95.1Q142.0 95.7 143.2 95.7L143.2 95.7Q144.6 95.7 145.5 94.9Q146.4 94.1 146.9 92.6Q147.4 91.2 147.4 89.2L147.4 89.2L147.2 89.2Q146.8 90.0 146.0 90.7Q145.2 91.3 144.2 91.7Q143.2 92.0 142.1 92.0L142.1 92.0Q140.3 92.0 138.9 91.2Q137.5 90.3 136.6 88.8Q135.8 87.3 135.8 85.4L135.8 85.4Q135.8 83.4 136.8 81.8Q137.8 80.1 139.5 79.2Q141.2 78.3 143.4 78.3L143.4 78.3Q145.0 78.3 146.4 78.9Q147.8 79.4 149.0 80.5Q150.1 81.7 150.8 83.6Q151.5 85.5 151.5 88.3L151.5 88.3Q151.5 90.9 150.9 92.9Q150.3 95.0 149.2 96.4Q148.2 97.8 146.6 98.6Q145.1 99.3 143.2 99.3ZM143.4 89.0L143.4 89.0Q144.1 89.0 144.8 88.7Q145.4 88.4 145.9 87.9Q146.4 87.4 146.7 86.7Q147.0 86.1 147.0 85.3L147.0 85.3Q147.0 84.3 146.5 83.5Q146.0 82.7 145.2 82.2Q144.4 81.7 143.4 81.7L143.4 81.7Q142.4 81.7 141.6 82.1Q140.8 82.6 140.4 83.5Q139.9 84.3 139.9 85.3L139.9 85.3Q139.9 86.3 140.4 87.2Q140.8 88.0 141.6 88.5Q142.4 89.0 143.4 89.0Z "/></g><mask id="satori_om-id-0-1-0-1"><rect x="98" y="111" width="37" height="11" fill="#fff"/></mask><g  ><path fill="#44448a" d="M100.9 120.1L100.9 120.1Q100.2 120.1 99.7 119.9Q99.1 119.7 98.8 119.2Q98.5 118.8 98.5 118.3L98.5 118.3L99.4 118.3Q99.4 118.7 99.6 118.9Q99.8 119.1 100.2 119.3Q100.5 119.4 100.9 119.4L100.9 119.4Q101.3 119.4 101.7 119.2Q102.0 119.1 102.2 118.8Q102.5 118.5 102.5 118.2L102.5 118.2Q102.5 117.9 102.3 117.7Q102.1 117.5 101.8 117.4Q101.5 117.2 101.2 117.1L101.2 117.1L100.4 116.9Q99.6 116.7 99.1 116.3Q98.7 115.9 98.7 115.2L98.7 115.2Q98.7 114.7 99.0 114.2Q99.3 113.8 99.8 113.6Q100.3 113.4 100.9 113.4L100.9 113.4Q101.6 113.4 102.1 113.6Q102.6 113.8 102.9 114.2Q103.2 114.6 103.2 115.1L103.2 115.1L102.4 115.1Q102.3 114.6 101.9 114.4Q101.5 114.1 100.9 114.1L100.9 114.1Q100.5 114.1 100.2 114.2Q99.9 114.4 99.7 114.6Q99.5 114.9 99.5 115.2L99.5 115.2Q99.5 115.5 99.7 115.7Q99.9 115.9 100.2 116.0Q100.5 116.2 100.8 116.2L100.8 116.2L101.4 116.4Q101.7 116.5 102.0 116.6Q102.3 116.7 102.6 116.9Q102.9 117.1 103.1 117.4Q103.3 117.8 103.3 118.2L103.3 118.2Q103.3 118.8 103.0 119.2Q102.7 119.6 102.2 119.9Q101.6 120.1 100.9 120.1ZM107.8 114.2L105.7 114.2L105.7 113.5L110.7 113.5L110.7 114.2L108.6 114.2L108.6 120L107.8 120L107.8 114.2ZM113.7 120L112.8 120L115.2 113.5L116.2 113.5L118.6 120L117.7 120L117.0 118.2L114.3 118.2L113.7 120ZM114.6 117.4L116.8 117.4L116.3 116.1Q116.2 115.8 116.0 115.2L116.0 115.2Q115.9 114.8 115.7 114.1L115.7 114.1Q115.5 114.8 115.3 115.2L115.3 115.2Q115.2 115.8 115.0 116.1L115.0 116.1L114.6 117.4ZM121.9 120L121.1 120L121.1 113.5L123.3 113.5Q124.1 113.5 124.6 113.7Q125.1 114.0 125.3 114.4Q125.6 114.9 125.6 115.5Q125.6 116.1 125.3 116.5Q125.1 117.0 124.6 117.2L124.6 117.2Q124.5 117.3 124.3 117.3L124.3 117.3L125.8 120L124.8 120L123.5 117.5Q123.4 117.5 123.3 117.5L123.3 117.5L121.9 117.5L121.9 120ZM121.9 114.2L121.9 116.7L123.3 116.7Q123.8 116.7 124.1 116.6Q124.4 116.4 124.6 116.1Q124.7 115.9 124.7 115.5L124.7 115.5Q124.7 115.1 124.6 114.8Q124.4 114.5 124.1 114.3Q123.8 114.2 123.3 114.2L123.3 114.2L121.9 114.2ZM130.5 120.1L130.5 120.1Q129.8 120.1 129.2 119.9Q128.7 119.7 128.4 119.2Q128.1 118.8 128.1 118.3L128.1 118.3L129.0 118.3Q129.0 118.7 129.2 118.9Q129.4 119.1 129.8 119.3Q130.1 119.4 130.5 119.4L130.5 119.4Q130.9 119.4 131.3 119.2Q131.6 119.1 131.8 118.8Q132.0 118.5 132.0 118.2L132.0 118.2Q132.0 117.9 131.9 117.7Q131.7 117.5 131.4 117.4Q131.1 117.2 130.7 117.1L130.7 117.1L129.9 116.9Q129.2 116.7 128.7 116.3Q128.3 115.9 128.3 115.2L128.3 115.2Q128.3 114.7 128.6 114.2Q128.9 113.8 129.4 113.6Q129.9 113.4 130.5 113.4L130.5 113.4Q131.2 113.4 131.7 113.6Q132.2 113.8 132.5 114.2Q132.7 114.6 132.8 115.1L132.8 115.1L131.9 115.1Q131.9 114.6 131.5 114.4Q131.1 114.1 130.5 114.1L130.5 114.1Q130.1 114.1 129.8 114.2Q129.4 114.4 129.3 114.6Q129.1 114.9 129.1 115.2L129.1 115.2Q129.1 115.5 129.3 115.7Q129.5 115.9 129.8 116.0Q130.1 116.2 130.3 116.2L130.3 116.2L131.0 116.4Q131.3 116.5 131.6 116.6Q131.9 116.7 132.2 116.9Q132.5 117.1 132.7 117.4Q132.9 117.8 132.9 118.2L132.9 118.2Q132.9 118.8 132.6 119.2Q132.3 119.6 131.8 119.9Q131.2 120.1 130.5 120.1Z "/></g><defs><clipPath id="satori_bc-id-0-1-1"><path x="216" y="54" width="179" height="88" d="M230,54 h151 a14,14 0 0 1 14,14 v60 a14,14 0 0 1 -14,14 h-151 a14,14 0 0 1 -14,-14 v-60 a14,14 0 0 1 14,-14"/></clipPath></defs><mask id="satori_ms-id-0-1-1-0" maskUnits="userSpaceOnUse"><rect x="0" y="0" width="800" height="190" fill="#fff"/><path x="216" y="54" width="179" height="88" fill="#000"  stroke-width="0" d="M230,54 h151 a14,14 0 0 1 14,14 v60 a14,14 0 0 1 -14,14 h-151 a14,14 0 0 1 -14,-14 v-60 a14,14 0 0 1 14,-14"/></mask><defs><filter id="satori_s-id-0-1-1-0" x="-67.59776536312849%" y="-137.5%" width="235.19553072625698%" height="375%"><feGaussianBlur stdDeviation="11" result="b"/><feFlood flood-color="rgba(0,229,255,0.35)" in="SourceGraphic" result="f"/><feComposite in="f" in2="b" operator="in"/></filter></defs><g mask="url(#satori_ms-id-0-1-1-0)" filter="url(#satori_s-id-0-1-1-0)" opacity="1"><path x="216" y="54" width="179" height="88" fill="#fff" stroke="#fff" stroke-width="0" d="M230,54 h151 a14,14 0 0 1 14,14 v60 a14,14 0 0 1 -14,14 h-151 a14,14 0 0 1 -14,-14 v-60 a14,14 0 0 1 14,-14"/></g><mask id="satori_om-id-0-1-1"><rect x="217" y="55" width="177" height="86" fill="#fff"/><path width="179" height="88" fill="none" stroke="#000" stroke-width="2" d="M220.101,58.101 A14,14 0 0 1 230,54 h151 a14,14 0 0 1 14,14 v60 a14,14 0 0 1 -14,14 h-151 a14,14 0 0 1 -14,-14 v-60 A14,14 0 0 1 220.101,58.101"/></mask><path x="216" y="54" width="179" height="88" fill="#0a0a22" d="M230,54 h151 a14,14 0 0 1 14,14 v60 a14,14 0 0 1 -14,14 h-151 a14,14 0 0 1 -14,-14 v-60 a14,14 0 0 1 14,-14"/><path width="179" height="88" clip-path="url(#satori_bc-id-0-1-1)" fill="none" stroke="#1e1e4e" stroke-width="2" d="M220.101,58.101 A14,14 0 0 1 230,54 h151 a14,14 0 0 1 14,14 v60 a14,14 0 0 1 -14,14 h-151 a14,14 0 0 1 -14,-14 v-60 A14,14 0 0 1 220.101,58.101"/><mask id="satori_om-id-0-1-1-0"><rect x="272" y="75" width="67" height="28" fill="#fff"/></mask><g  ><path fill="#00e5ff" d="M281.0 99.3L281.0 99.3Q278.8 99.3 277.1 98.5Q275.4 97.8 274.4 96.4Q273.4 95.0 273.4 93.3L273.4 93.3L277.6 93.3Q277.6 94.1 278.0 94.6Q278.5 95.2 279.3 95.5Q280.1 95.8 281.0 95.8L281.0 95.8Q282.0 95.8 282.8 95.5Q283.6 95.1 284.0 94.5Q284.4 93.9 284.4 93.0L284.4 93.0Q284.4 92.2 284.0 91.5Q283.5 90.9 282.7 90.5Q281.8 90.2 280.6 90.2L280.6 90.2L278.8 90.2L278.8 87.1L280.6 87.1Q281.6 87.1 282.4 86.7Q283.1 86.4 283.6 85.8Q284.0 85.2 284.0 84.3L284.0 84.3Q284.0 83.5 283.6 82.9Q283.3 82.4 282.6 82.0Q281.9 81.7 281.1 81.7L281.1 81.7Q280.2 81.7 279.4 82.0Q278.7 82.3 278.2 82.9Q277.8 83.5 277.8 84.3L277.8 84.3L273.8 84.3Q273.8 82.5 274.7 81.2Q275.7 79.9 277.4 79.1Q279.0 78.4 281.1 78.4L281.1 78.4Q283.2 78.4 284.7 79.1Q286.3 79.9 287.2 81.2Q288.1 82.5 288.1 84.1L288.1 84.1Q288.1 85.8 287.0 86.9Q285.9 88.1 284.2 88.4L284.2 88.4L284.2 88.6Q285.7 88.7 286.7 89.4Q287.8 90.0 288.3 91.0Q288.8 92.0 288.8 93.3L288.8 93.3Q288.8 95.0 287.8 96.4Q286.8 97.7 285.0 98.5Q283.3 99.3 281.0 99.3ZM295.8 78.6L300.3 78.6L300.3 99L296.1 99L296.1 82.3L296.0 82.3L291.3 85.6L291.3 81.8L295.8 78.6ZM313.3 95.4L303.5 95.4L303.5 92.1L312.0 78.6L317.3 78.6L317.3 92.0L319.8 92.0L319.8 95.4L317.3 95.4L317.3 99L313.3 99L313.3 95.4ZM307.7 92.0L313.4 92.0L313.4 83.2L313.2 83.2L307.7 91.8L307.7 92.0ZM337.2 99L322.8 99L322.8 96.0L330.0 89.2Q330.9 88.3 331.6 87.6Q332.2 86.9 332.5 86.2Q332.9 85.5 332.9 84.6L332.9 84.6Q332.9 83.7 332.5 83.1Q332.0 82.4 331.3 82.0Q330.6 81.7 329.7 81.7L329.7 81.7Q328.8 81.7 328.1 82.1Q327.3 82.5 327.0 83.2Q326.6 83.9 326.6 84.9L326.6 84.9L322.6 84.9Q322.6 82.9 323.5 81.4Q324.4 80.0 326.0 79.2Q327.6 78.4 329.7 78.4L329.7 78.4Q331.9 78.4 333.5 79.1Q335.1 79.9 336.0 81.3Q336.9 82.6 336.9 84.4L336.9 84.4Q336.9 85.5 336.5 86.6Q336.0 87.7 334.9 89.1Q333.7 90.5 331.7 92.4L331.7 92.4L328.6 95.4L328.6 95.6L337.2 95.6L337.2 99Z "/></g><mask id="satori_om-id-0-1-1-1"><rect x="278" y="111" width="55" height="11" fill="#fff"/></mask><g  ><path fill="#44448a" d="M281.4 120.1L281.4 120.1Q280.6 120.1 279.9 119.7Q279.3 119.3 278.9 118.5Q278.5 117.8 278.5 116.7L278.5 116.7Q278.5 115.7 278.9 114.9Q279.3 114.2 279.9 113.8Q280.6 113.4 281.4 113.4L281.4 113.4Q281.9 113.4 282.4 113.5Q282.8 113.7 283.2 113.9Q283.5 114.2 283.8 114.6Q284.0 115.0 284.1 115.5L284.1 115.5L283.2 115.5Q283.2 115.2 283.0 114.9Q282.8 114.7 282.6 114.5Q282.4 114.3 282.1 114.2Q281.8 114.1 281.4 114.1L281.4 114.1Q280.9 114.1 280.4 114.4Q279.9 114.7 279.6 115.3Q279.3 115.9 279.3 116.7L279.3 116.7Q279.3 117.6 279.6 118.1Q279.9 118.7 280.4 119.0Q280.9 119.3 281.4 119.3L281.4 119.3Q281.8 119.3 282.1 119.2Q282.4 119.1 282.6 119.0Q282.8 118.8 283.0 118.5Q283.2 118.3 283.2 117.9L283.2 117.9L284.1 117.9Q284.0 118.4 283.8 118.8Q283.5 119.2 283.2 119.5Q282.8 119.8 282.4 119.9Q281.9 120.1 281.4 120.1ZM289.5 120.1L289.5 120.1Q288.7 120.1 288.0 119.7Q287.4 119.3 287.0 118.5Q286.6 117.8 286.6 116.7L286.6 116.7Q286.6 115.7 287.0 114.9Q287.4 114.2 288.0 113.8Q288.7 113.4 289.5 113.4L289.5 113.4Q290.4 113.4 291.0 113.8Q291.7 114.2 292.0 114.9Q292.4 115.7 292.4 116.7L292.4 116.7Q292.4 117.8 292.0 118.5Q291.7 119.3 291.0 119.7Q290.4 120.1 289.5 120.1ZM289.5 119.3L289.5 119.3Q290.1 119.3 290.6 119.0Q291.0 118.7 291.3 118.1Q291.6 117.6 291.6 116.7L291.6 116.7Q291.6 115.9 291.3 115.3Q291.0 114.7 290.6 114.4Q290.1 114.1 289.5 114.1L289.5 114.1Q288.9 114.1 288.5 114.4Q288.0 114.7 287.7 115.3Q287.4 115.9 287.4 116.7L287.4 116.7Q287.4 117.6 287.7 118.1Q288.0 118.7 288.5 119.0Q288.9 119.3 289.5 119.3ZM296.0 120L295.2 120L295.2 113.5L296.4 113.5L298.0 117.6Q298.1 117.7 298.2 117.9Q298.2 118.2 298.3 118.4Q298.4 118.7 298.5 118.9L298.5 118.9Q298.5 119.0 298.5 119.1L298.5 119.1Q298.5 119.0 298.6 118.9L298.6 118.9Q298.6 118.7 298.7 118.4Q298.8 118.2 298.9 118.0Q299.0 117.7 299.0 117.6L299.0 117.6L300.6 113.5L301.8 113.5L301.8 120L301.0 120L301.0 116.3Q301.0 116.1 301.0 115.8Q301.0 115.5 301.0 115.3Q301.0 115.0 301.0 114.7L301.0 114.7Q301.0 114.5 301.0 114.3L301.0 114.3Q300.9 114.5 300.9 114.7L300.9 114.7Q300.8 115.0 300.7 115.3Q300.6 115.6 300.5 115.9Q300.4 116.1 300.3 116.3L300.3 116.3L298.9 120L298.2 120L296.7 116.3Q296.6 116.1 296.5 115.9Q296.4 115.6 296.3 115.3Q296.2 115.1 296.1 114.7L296.1 114.7Q296.1 114.6 296.0 114.4L296.0 114.4Q296.0 114.5 296.0 114.6L296.0 114.6Q296.0 114.9 296.0 115.2Q296.0 115.5 296.0 115.8Q296.0 116.0 296.0 116.3L296.0 116.3L296.0 120ZM305.7 120L304.9 120L304.9 113.5L306.1 113.5L307.7 117.6Q307.7 117.7 307.8 117.9Q307.9 118.2 308.0 118.4Q308.0 118.7 308.1 118.9L308.1 118.9Q308.1 119.0 308.2 119.1L308.2 119.1Q308.2 119.0 308.2 118.9L308.2 118.9Q308.3 118.7 308.4 118.4Q308.4 118.2 308.5 118.0Q308.6 117.7 308.6 117.6L308.6 117.6L310.2 113.5L311.4 113.5L311.4 120L310.6 120L310.6 116.3Q310.6 116.1 310.6 115.8Q310.6 115.5 310.6 115.3Q310.6 115.0 310.6 114.7L310.6 114.7Q310.6 114.5 310.6 114.3L310.6 114.3Q310.6 114.5 310.5 114.7L310.5 114.7Q310.4 115.0 310.3 115.3Q310.2 115.6 310.1 115.9Q310.0 116.1 310.0 116.3L310.0 116.3L308.5 120L307.8 120L306.3 116.3Q306.2 116.1 306.2 115.9Q306.1 115.6 306.0 115.3Q305.9 115.1 305.8 114.7L305.8 114.7Q305.7 114.6 305.6 114.4L305.6 114.4Q305.6 114.5 305.7 114.6L305.7 114.6Q305.7 114.9 305.7 115.2Q305.7 115.5 305.7 115.8Q305.7 116.0 305.7 116.3L305.7 116.3L305.7 120ZM314.5 113.5L315.3 113.5L315.3 120L314.5 120L314.5 113.5ZM320.1 114.2L318.1 114.2L318.1 113.5L323.0 113.5L323.0 114.2L321.0 114.2L321.0 120L320.1 120L320.1 114.2ZM327.8 120.1L327.8 120.1Q327.1 120.1 326.6 119.9Q326.1 119.7 325.8 119.2Q325.5 118.8 325.5 118.3L325.5 118.3L326.3 118.3Q326.3 118.7 326.6 118.9Q326.8 119.1 327.1 119.3Q327.4 119.4 327.8 119.4L327.8 119.4Q328.3 119.4 328.6 119.2Q329.0 119.1 329.2 118.8Q329.4 118.5 329.4 118.2L329.4 118.2Q329.4 117.9 329.2 117.7Q329.0 117.5 328.7 117.4Q328.4 117.2 328.1 117.1L328.1 117.1L327.3 116.9Q326.5 116.7 326.1 116.3Q325.6 115.9 325.6 115.2L325.6 115.2Q325.6 114.7 325.9 114.2Q326.2 113.8 326.7 113.6Q327.3 113.4 327.9 113.4L327.9 113.4Q328.5 113.4 329.0 113.6Q329.5 113.8 329.8 114.2Q330.1 114.6 330.1 115.1L330.1 115.1L329.3 115.1Q329.2 114.6 328.8 114.4Q328.4 114.1 327.9 114.1L327.9 114.1Q327.4 114.1 327.1 114.2Q326.8 114.4 326.6 114.6Q326.4 114.9 326.4 115.2L326.4 115.2Q326.4 115.5 326.7 115.7Q326.9 115.9 327.2 116.0Q327.5 116.2 327.7 116.2L327.7 116.2L328.4 116.4Q328.6 116.5 328.9 116.6Q329.3 116.7 329.5 116.9Q329.8 117.1 330.0 117.4Q330.2 117.8 330.2 118.2L330.2 118.2Q330.2 118.8 329.9 119.2Q329.6 119.6 329.1 119.9Q328.6 120.1 327.8 120.1Z "/></g><defs><clipPath id="satori_bc-id-0-1-2"><path x="405" y="54" width="179" height="88" d="M419,54 h151 a14,14 0 0 1 14,14 v60 a14,14 0 0 1 -14,14 h-151 a14,14 0 0 1 -14,-14 v-60 a14,14 0 0 1 14,-14"/></clipPath></defs><mask id="satori_ms-id-0-1-2-0" maskUnits="userSpaceOnUse"><rect x="0" y="0" width="800" height="190" fill="#fff"/><path x="405" y="54" width="179" height="88" fill="#000"  stroke-width="0" d="M419,54 h151 a14,14 0 0 1 14,14 v60 a14,14 0 0 1 -14,14 h-151 a14,14 0 0 1 -14,-14 v-60 a14,14 0 0 1 14,-14"/></mask><defs><filter id="satori_s-id-0-1-2-0" x="-67.59776536312849%" y="-137.5%" width="235.19553072625698%" height="375%"><feGaussianBlur stdDeviation="11" result="b"/><feFlood flood-color="rgba(167,139,250,0.35)" in="SourceGraphic" result="f"/><feComposite in="f" in2="b" operator="in"/></filter></defs><g mask="url(#satori_ms-id-0-1-2-0)" filter="url(#satori_s-id-0-1-2-0)" opacity="1"><path x="405" y="54" width="179" height="88" fill="#fff" stroke="#fff" stroke-width="0" d="M419,54 h151 a14,14 0 0 1 14,14 v60 a14,14 0 0 1 -14,14 h-151 a14,14 0 0 1 -14,-14 v-60 a14,14 0 0 1 14,-14"/></g><mask id="satori_om-id-0-1-2"><rect x="406" y="55" width="177" height="86" fill="#fff"/><path width="179" height="88" fill="none" stroke="#000" stroke-width="2" d="M409.101,58.101 A14,14 0 0 1 419,54 h151 a14,14 0 0 1 14,14 v60 a14,14 0 0 1 -14,14 h-151 a14,14 0 0 1 -14,-14 v-60 A14,14 0 0 1 409.101,58.101"/></mask><path x="405" y="54" width="179" height="88" fill="#0a0a22" d="M419,54 h151 a14,14 0 0 1 14,14 v60 a14,14 0 0 1 -14,14 h-151 a14,14 0 0 1 -14,-14 v-60 a14,14 0 0 1 14,-14"/><path width="179" height="88" clip-path="url(#satori_bc-id-0-1-2)" fill="none" stroke="#1e1e4e" stroke-width="2" d="M409.101,58.101 A14,14 0 0 1 419,54 h151 a14,14 0 0 1 14,14 v60 a14,14 0 0 1 -14,14 h-151 a14,14 0 0 1 -14,-14 v-60 A14,14 0 0 1 409.101,58.101"/><mask id="satori_om-id-0-1-2-0"><rect x="476" y="75" width="37" height="28" fill="#fff"/></mask><g  ><path fill="#a78bfa" d="M487.1 95.4L477.4 95.4L477.4 92.1L485.9 78.6L491.1 78.6L491.1 92.0L493.7 92.0L493.7 95.4L491.1 95.4L491.1 99L487.1 99L487.1 95.4ZM481.6 92.0L487.2 92.0L487.2 83.2L487.0 83.2L481.6 91.8L481.6 92.0ZM511.0 99L496.6 99L496.6 96.0L503.8 89.2Q504.8 88.3 505.4 87.6Q506.1 86.9 506.4 86.2Q506.7 85.5 506.7 84.6L506.7 84.6Q506.7 83.7 506.3 83.1Q505.9 82.4 505.2 82.0Q504.5 81.7 503.6 81.7L503.6 81.7Q502.6 81.7 501.9 82.1Q501.2 82.5 500.8 83.2Q500.4 83.9 500.4 84.9L500.4 84.9L496.4 84.9Q496.4 82.9 497.3 81.4Q498.3 80.0 499.9 79.2Q501.5 78.4 503.6 78.4L503.6 78.4Q505.8 78.4 507.4 79.1Q509.0 79.9 509.9 81.3Q510.8 82.6 510.8 84.4L510.8 84.4Q510.8 85.5 510.3 86.6Q509.9 87.7 508.7 89.1Q507.6 90.5 505.5 92.4L505.5 92.4L502.4 95.4L502.4 95.6L511.0 95.6L511.0 99Z "/></g><mask id="satori_om-id-0-1-2-1"><rect x="476" y="111" width="38" height="11" fill="#fff"/></mask><g  ><path fill="#44448a" d="M477.6 120L476.8 120L476.8 113.5L479.0 113.5Q479.8 113.5 480.3 113.7Q480.8 114.0 481.0 114.4Q481.3 114.9 481.3 115.5Q481.3 116.1 481.0 116.5Q480.8 117.0 480.3 117.2L480.3 117.2Q480.2 117.3 480.1 117.3L480.1 117.3L481.5 120L480.6 120L479.2 117.5Q479.1 117.5 479.0 117.5L479.0 117.5L477.6 117.5L477.6 120ZM477.6 114.2L477.6 116.7L479.0 116.7Q479.5 116.7 479.8 116.6Q480.1 116.4 480.3 116.1Q480.4 115.9 480.4 115.5L480.4 115.5Q480.4 115.1 480.3 114.8Q480.1 114.5 479.8 114.3Q479.5 114.2 479.0 114.2L479.0 114.2L477.6 114.2ZM488.1 120L484.1 120L484.1 113.5L488.1 113.5L488.1 114.2L484.9 114.2L484.9 116.3L487.9 116.3L487.9 117.1L484.9 117.1L484.9 119.3L488.1 119.3L488.1 120ZM491.8 120L491.0 120L491.0 113.5L493.2 113.5Q494.0 113.5 494.5 113.7Q495.0 114.0 495.2 114.5Q495.5 115.0 495.5 115.5Q495.5 116.1 495.2 116.6Q495.0 117.1 494.5 117.4Q494.0 117.6 493.2 117.6L493.2 117.6L491.8 117.6L491.8 120ZM491.8 114.2L491.8 116.9L493.2 116.9Q493.7 116.9 494.0 116.7Q494.4 116.5 494.5 116.2Q494.6 115.9 494.6 115.5Q494.6 115.1 494.5 114.8Q494.4 114.5 494.0 114.4Q493.7 114.2 493.2 114.2L493.2 114.2L491.8 114.2ZM500.9 120.1L500.9 120.1Q500.1 120.1 499.4 119.7Q498.7 119.3 498.4 118.5Q498.0 117.8 498.0 116.7L498.0 116.7Q498.0 115.7 498.4 114.9Q498.7 114.2 499.4 113.8Q500.1 113.4 500.9 113.4L500.9 113.4Q501.7 113.4 502.4 113.8Q503.0 114.2 503.4 114.9Q503.8 115.7 503.8 116.7L503.8 116.7Q503.8 117.8 503.4 118.5Q503.0 119.3 502.4 119.7Q501.7 120.1 500.9 120.1ZM500.9 119.3L500.9 119.3Q501.5 119.3 502.0 119.0Q502.4 118.7 502.7 118.1Q503.0 117.6 503.0 116.7L503.0 116.7Q503.0 115.9 502.7 115.3Q502.4 114.7 502.0 114.4Q501.5 114.1 500.9 114.1L500.9 114.1Q500.3 114.1 499.8 114.4Q499.4 114.7 499.1 115.3Q498.8 115.9 498.8 116.7L498.8 116.7Q498.8 117.6 499.1 118.1Q499.4 118.7 499.8 119.0Q500.3 119.3 500.9 119.3ZM508.7 120.1L508.7 120.1Q508.0 120.1 507.5 119.9Q507.0 119.7 506.7 119.2Q506.4 118.8 506.3 118.3L506.3 118.3L507.2 118.3Q507.2 118.7 507.4 118.9Q507.7 119.1 508.0 119.3Q508.3 119.4 508.7 119.4L508.7 119.4Q509.2 119.4 509.5 119.2Q509.9 119.1 510.1 118.8Q510.3 118.5 510.3 118.2L510.3 118.2Q510.3 117.9 510.1 117.7Q509.9 117.5 509.6 117.4Q509.3 117.2 509.0 117.1L509.0 117.1L508.2 116.9Q507.4 116.7 507.0 116.3Q506.5 115.9 506.5 115.2L506.5 115.2Q506.5 114.7 506.8 114.2Q507.1 113.8 507.6 113.6Q508.1 113.4 508.8 113.4L508.8 113.4Q509.4 113.4 509.9 113.6Q510.4 113.8 510.7 114.2Q511.0 114.6 511.0 115.1L511.0 115.1L510.2 115.1Q510.1 114.6 509.7 114.4Q509.3 114.1 508.7 114.1L508.7 114.1Q508.3 114.1 508.0 114.2Q507.7 114.4 507.5 114.6Q507.3 114.9 507.3 115.2L507.3 115.2Q507.3 115.5 507.6 115.7Q507.8 115.9 508.1 116.0Q508.3 116.2 508.6 116.2L508.6 116.2L509.2 116.4Q509.5 116.5 509.8 116.6Q510.1 116.7 510.4 116.9Q510.7 117.1 510.9 117.4Q511.1 117.8 511.1 118.2L511.1 118.2Q511.1 118.8 510.8 119.2Q510.5 119.6 510.0 119.9Q509.5 120.1 508.7 120.1Z "/></g><defs><clipPath id="satori_bc-id-0-1-3"><path x="594" y="54" width="179" height="88" d="M608,54 h151 a14,14 0 0 1 14,14 v60 a14,14 0 0 1 -14,14 h-151 a14,14 0 0 1 -14,-14 v-60 a14,14 0 0 1 14,-14"/></clipPath></defs><mask id="satori_ms-id-0-1-3-0" maskUnits="userSpaceOnUse"><rect x="0" y="0" width="800" height="190" fill="#fff"/><path x="594" y="54" width="179" height="88" fill="#000"  stroke-width="0" d="M608,54 h151 a14,14 0 0 1 14,14 v60 a14,14 0 0 1 -14,14 h-151 a14,14 0 0 1 -14,-14 v-60 a14,14 0 0 1 14,-14"/></mask><defs><filter id="satori_s-id-0-1-3-0" x="-67.59776536312849%" y="-137.5%" width="235.19553072625698%" height="375%"><feGaussianBlur stdDeviation="11" result="b"/><feFlood flood-color="rgba(244,114,182,0.35)" in="SourceGraphic" result="f"/><feComposite in="f" in2="b" operator="in"/></filter></defs><g mask="url(#satori_ms-id-0-1-3-0)" filter="url(#satori_s-id-0-1-3-0)" opacity="1"><path x="594" y="54" width="179" height="88" fill="#fff" stroke="#fff" stroke-width="0" d="M608,54 h151 a14,14 0 0 1 14,14 v60 a14,14 0 0 1 -14,14 h-151 a14,14 0 0 1 -14,-14 v-60 a14,14 0 0 1 14,-14"/></g><mask id="satori_om-id-0-1-3"><rect x="595" y="55" width="177" height="86" fill="#fff"/><path width="179" height="88" fill="none" stroke="#000" stroke-width="2" d="M598.101,58.101 A14,14 0 0 1 608,54 h151 a14,14 0 0 1 14,14 v60 a14,14 0 0 1 -14,14 h-151 a14,14 0 0 1 -14,-14 v-60 A14,14 0 0 1 598.101,58.101"/></mask><path x="594" y="54" width="179" height="88" fill="#0a0a22" d="M608,54 h151 a14,14 0 0 1 14,14 v60 a14,14 0 0 1 -14,14 h-151 a14,14 0 0 1 -14,-14 v-60 a14,14 0 0 1 14,-14"/><path width="179" height="88" clip-path="url(#satori_bc-id-0-1-3)" fill="none" stroke="#1e1e4e" stroke-width="2" d="M598.101,58.101 A14,14 0 0 1 608,54 h151 a14,14 0 0 1 14,14 v60 a14,14 0 0 1 -14,14 h-151 a14,14 0 0 1 -14,-14 v-60 A14,14 0 0 1 598.101,58.101"/><mask id="satori_om-id-0-1-3-0"><rect x="657" y="75" width="54" height="28" fill="#fff"/></mask><g  ><path fill="#f472b6" d="M673.1 99L658.7 99L658.7 96.0L665.9 89.2Q666.8 88.3 667.5 87.6Q668.1 86.9 668.5 86.2Q668.8 85.5 668.8 84.6L668.8 84.6Q668.8 83.7 668.4 83.1Q668.0 82.4 667.3 82.0Q666.5 81.7 665.6 81.7L665.6 81.7Q664.7 81.7 664.0 82.1Q663.3 82.5 662.9 83.2Q662.5 83.9 662.5 84.9L662.5 84.9L658.5 84.9Q658.5 82.9 659.4 81.4Q660.3 80.0 661.9 79.2Q663.5 78.4 665.7 78.4L665.7 78.4Q667.8 78.4 669.4 79.1Q671.0 79.9 671.9 81.3Q672.8 82.6 672.8 84.4L672.8 84.4Q672.8 85.5 672.4 86.6Q671.9 87.7 670.8 89.1Q669.7 90.5 667.6 92.4L667.6 92.4L664.5 95.4L664.5 95.6L673.1 95.6L673.1 99ZM683.2 99.3L683.2 99.3Q681.1 99.3 679.5 98.5Q677.9 97.7 676.9 96.4Q676.0 95.0 675.9 93.3L675.9 93.3L680.0 93.3Q680.0 94.1 680.5 94.7Q680.9 95.3 681.6 95.6Q682.4 96.0 683.2 96.0L683.2 96.0Q684.2 96.0 685.0 95.5Q685.8 95.0 686.3 94.2Q686.7 93.4 686.7 92.3L686.7 92.3Q686.7 91.2 686.3 90.4Q685.8 89.6 685.0 89.1Q684.2 88.6 683.2 88.6L683.2 88.6Q682.2 88.6 681.4 89.0Q680.6 89.4 680.1 90.0L680.1 90.0L676.3 89.3L677.3 78.6L689.6 78.6L689.6 82.1L680.8 82.1L680.3 87.2L680.4 87.2Q680.9 86.5 682.0 86.0Q683.1 85.5 684.4 85.5L684.4 85.5Q685.8 85.5 686.9 86.0Q688.1 86.5 689.0 87.4Q689.8 88.3 690.3 89.5Q690.8 90.8 690.8 92.2L690.8 92.2Q690.8 94.3 689.8 95.9Q688.9 97.5 687.2 98.4Q685.5 99.3 683.2 99.3ZM701.4 99.3L701.4 99.3Q699.9 99.3 698.4 98.8Q697.0 98.2 695.8 97.1Q694.7 95.9 694.0 94.0Q693.3 92.1 693.3 89.3L693.3 89.3Q693.3 86.7 693.9 84.7Q694.5 82.7 695.6 81.3Q696.6 79.8 698.2 79.1Q699.7 78.4 701.6 78.4L701.6 78.4Q703.6 78.4 705.1 79.1Q706.7 79.9 707.6 81.3Q708.6 82.6 708.7 84.3L708.7 84.3L704.6 84.3Q704.4 83.2 703.6 82.6Q702.8 82.0 701.6 82.0L701.6 82.0Q700.2 82.0 699.3 82.7Q698.4 83.5 697.9 85.0Q697.4 86.4 697.4 88.5L697.4 88.5L697.6 88.5Q698.0 87.6 698.8 86.9Q699.6 86.3 700.6 86.0Q701.6 85.6 702.7 85.6L702.7 85.6Q704.5 85.6 705.9 86.5Q707.3 87.3 708.1 88.8Q709.0 90.3 709.0 92.2L709.0 92.2Q709.0 94.3 708.0 95.9Q707.1 97.5 705.4 98.4Q703.7 99.3 701.4 99.3ZM701.4 96.0L701.4 96.0Q702.4 96.0 703.2 95.5Q704.0 95.0 704.4 94.2Q704.9 93.3 704.9 92.3L704.9 92.3Q704.9 91.3 704.5 90.5Q704.0 89.6 703.2 89.1Q702.4 88.7 701.4 88.7L701.4 88.7Q700.7 88.7 700.0 89.0Q699.4 89.2 698.9 89.7Q698.4 90.3 698.1 90.9Q697.9 91.6 697.9 92.3L697.9 92.3Q697.9 93.3 698.3 94.1Q698.8 95.0 699.6 95.5Q700.4 96.0 701.4 96.0Z "/></g><mask id="satori_om-id-0-1-3-1"><rect x="665" y="111" width="38" height="11" fill="#fff"/></mask><g  ><path fill="#44448a" d="M666.6 120L665.8 120L665.8 113.5L669.8 113.5L669.8 114.2L666.6 114.2L666.6 116.4L669.5 116.4L669.5 117.2L666.6 117.2L666.6 120ZM675.3 120.1L675.3 120.1Q674.4 120.1 673.8 119.7Q673.1 119.3 672.7 118.5Q672.3 117.8 672.3 116.7L672.3 116.7Q672.3 115.7 672.7 114.9Q673.1 114.2 673.8 113.8Q674.4 113.4 675.3 113.4L675.3 113.4Q676.1 113.4 676.8 113.8Q677.4 114.2 677.8 114.9Q678.2 115.7 678.2 116.7L678.2 116.7Q678.2 117.8 677.8 118.5Q677.4 119.3 676.8 119.7Q676.1 120.1 675.3 120.1ZM675.3 119.3L675.3 119.3Q675.8 119.3 676.3 119.0Q676.8 118.7 677.1 118.1Q677.3 117.6 677.3 116.7L677.3 116.7Q677.3 115.9 677.1 115.3Q676.8 114.7 676.3 114.4Q675.8 114.1 675.3 114.1L675.3 114.1Q674.7 114.1 674.2 114.4Q673.7 114.7 673.4 115.3Q673.2 115.9 673.2 116.7L673.2 116.7Q673.2 117.6 673.4 118.1Q673.7 118.7 674.2 119.0Q674.7 119.3 675.3 119.3ZM681.8 120L681.0 120L681.0 113.5L683.2 113.5Q684.0 113.5 684.5 113.7Q685.0 114.0 685.2 114.4Q685.5 114.9 685.5 115.5Q685.5 116.1 685.2 116.5Q685.0 117.0 684.5 117.2L684.5 117.2Q684.4 117.3 684.2 117.3L684.2 117.3L685.7 120L684.7 120L683.4 117.5Q683.3 117.5 683.2 117.5L683.2 117.5L681.8 117.5L681.8 120ZM681.8 114.2L681.8 116.7L683.2 116.7Q683.7 116.7 684.0 116.6Q684.3 116.4 684.5 116.1Q684.6 115.9 684.6 115.5L684.6 115.5Q684.6 115.1 684.5 114.8Q684.3 114.5 684.0 114.3Q683.7 114.2 683.2 114.2L683.2 114.2L681.8 114.2ZM689.1 120L688.3 120L688.3 113.5L689.1 113.5L689.1 115.7L689.1 116.9Q689.2 116.8 689.3 116.6L689.3 116.6Q689.5 116.4 689.8 116.1Q690.0 115.8 690.2 115.6L690.2 115.6L692.2 113.5L693.3 113.5L690.6 116.3L693.3 120L692.3 120L690.1 116.9L689.1 117.9L689.1 120ZM697.9 120.1L697.9 120.1Q697.2 120.1 696.7 119.9Q696.2 119.7 695.9 119.2Q695.6 118.8 695.5 118.3L695.5 118.3L696.4 118.3Q696.4 118.7 696.7 118.9Q696.9 119.1 697.2 119.3Q697.5 119.4 697.9 119.4L697.9 119.4Q698.4 119.4 698.7 119.2Q699.1 119.1 699.3 118.8Q699.5 118.5 699.5 118.2L699.5 118.2Q699.5 117.9 699.3 117.7Q699.1 117.5 698.8 117.4Q698.5 117.2 698.2 117.1L698.2 117.1L697.4 116.9Q696.6 116.7 696.2 116.3Q695.7 115.9 695.7 115.2L695.7 115.2Q695.7 114.7 696.0 114.2Q696.3 113.8 696.8 113.6Q697.3 113.4 698.0 113.4L698.0 113.4Q698.6 113.4 699.1 113.6Q699.6 113.8 699.9 114.2Q700.2 114.6 700.2 115.1L700.2 115.1L699.4 115.1Q699.3 114.6 698.9 114.4Q698.5 114.1 698.0 114.1L698.0 114.1Q697.5 114.1 697.2 114.2Q696.9 114.4 696.7 114.6Q696.5 114.9 696.5 115.2L696.5 115.2Q696.5 115.5 696.8 115.7Q697.0 115.9 697.3 116.0Q697.6 116.2 697.8 116.2L697.8 116.2L698.4 116.4Q698.7 116.5 699.0 116.6Q699.3 116.7 699.6 116.9Q699.9 117.1 700.1 117.4Q700.3 117.8 700.3 118.2L700.3 118.2Q700.3 118.8 700.0 119.2Q699.7 119.6 699.2 119.9Q698.7 120.1 697.9 120.1Z "/></g><mask id="satori_om-id-0-2"><rect x="27" y="156" width="746" height="11" fill="#fff"/></mask><mask id="satori_om-id-0-2-0"><rect x="27" y="156" width="57" height="11" fill="#fff"/></mask><mask id="satori_om-id-0-2-0-0"><rect x="27" y="159" width="6" height="6" fill="#fff"/></mask><path x="27" y="159" width="6" height="6" fill="#3178c6" d="M30,159 h0 a3,3 0 0 1 3,3 v0 a3,3 0 0 1 -3,3 h0 a3,3 0 0 1 -3,-3 v0 a3,3 0 0 1 3,-3"/><mask id="satori_om-id-0-2-0-1"><rect x="37" y="156" width="47" height="11" fill="#fff"/></mask><g  ><path fill="#44448a" d="M39.5 159.2L37.4 159.2L37.4 158.5L42.4 158.5L42.4 159.2L40.3 159.2L40.3 165L39.5 165L39.5 159.2ZM43.4 166.8L43.4 166.8L43.6 166.1L43.7 166.1Q44.0 166.2 44.1 166.1Q44.3 166.1 44.5 166.0Q44.7 165.8 44.8 165.4L44.8 165.4L44.9 165.0L43.0 160.1L43.9 160.1L45.0 163.0Q45.1 163.5 45.2 163.9L45.2 163.9Q45.3 164.1 45.3 164.3L45.3 164.3Q45.4 164.1 45.4 163.9L45.4 163.9Q45.6 163.5 45.7 163.0L45.7 163.0L46.8 160.1L47.6 160.1L45.5 165.7Q45.3 166.1 45.1 166.4Q44.9 166.6 44.6 166.8Q44.4 166.9 44.0 166.9L44.0 166.9Q43.8 166.9 43.6 166.8Q43.5 166.8 43.4 166.8ZM49.4 166.8L48.6 166.8L48.6 160.1L49.3 160.1L49.3 160.9L49.4 160.9Q49.5 160.7 49.6 160.5Q49.8 160.3 50.1 160.2Q50.4 160.0 50.8 160.0L50.8 160.0Q51.5 160.0 51.9 160.3Q52.4 160.6 52.7 161.2Q52.9 161.8 52.9 162.6L52.9 162.6Q52.9 163.3 52.7 163.9Q52.4 164.5 51.9 164.8Q51.5 165.1 50.8 165.1L50.8 165.1Q50.4 165.1 50.1 164.9Q49.8 164.8 49.7 164.6Q49.5 164.4 49.4 164.2L49.4 164.2L49.4 164.2L49.4 166.8ZM50.7 164.4L50.7 164.4Q51.2 164.4 51.5 164.1Q51.8 163.9 52.0 163.5Q52.1 163.1 52.1 162.5L52.1 162.5Q52.1 162.0 52.0 161.6Q51.8 161.2 51.5 161.0Q51.2 160.7 50.7 160.7L50.7 160.7Q50.3 160.7 50.0 161.0Q49.7 161.2 49.5 161.6Q49.3 162.0 49.3 162.5L49.3 162.5Q49.3 163.1 49.5 163.5Q49.7 163.9 50.0 164.2Q50.3 164.4 50.7 164.4ZM56.1 165.1L56.1 165.1Q55.4 165.1 54.9 164.8Q54.4 164.5 54.1 163.9Q53.8 163.3 53.8 162.6Q53.8 161.8 54.1 161.3Q54.4 160.7 54.9 160.4Q55.4 160.0 56.0 160.0L56.0 160.0Q56.4 160.0 56.8 160.2Q57.2 160.3 57.5 160.6Q57.8 160.9 58.0 161.3Q58.2 161.8 58.2 162.5L58.2 162.5L58.2 162.8L54.6 162.8Q54.7 163.3 54.8 163.6L54.8 163.6Q55.0 164.0 55.4 164.2Q55.7 164.4 56.1 164.4L56.1 164.4Q56.4 164.4 56.7 164.3Q56.9 164.2 57.1 164.1Q57.3 163.9 57.3 163.6L57.3 163.6L58.1 163.9Q58.0 164.2 57.7 164.5Q57.4 164.8 57.0 164.9Q56.6 165.1 56.1 165.1ZM54.6 162.1L54.6 162.1L57.4 162.1Q57.4 161.8 57.2 161.5L57.2 161.5Q57.1 161.2 56.8 160.9Q56.5 160.7 56.0 160.7Q55.6 160.7 55.3 160.9Q55.0 161.2 54.8 161.5L54.8 161.5Q54.7 161.8 54.6 162.1ZM61.5 165.1L61.5 165.1Q60.8 165.1 60.3 164.9Q59.8 164.7 59.5 164.2Q59.2 163.8 59.1 163.3L59.1 163.3L60.0 163.3Q60.0 163.7 60.2 163.9Q60.5 164.1 60.8 164.3Q61.1 164.4 61.5 164.4L61.5 164.4Q62.0 164.4 62.3 164.2Q62.7 164.1 62.9 163.8Q63.1 163.5 63.1 163.2L63.1 163.2Q63.1 162.9 62.9 162.7Q62.7 162.5 62.4 162.4Q62.1 162.2 61.8 162.1L61.8 162.1L61.0 161.9Q60.2 161.7 59.8 161.3Q59.3 160.9 59.3 160.2L59.3 160.2Q59.3 159.7 59.6 159.2Q59.9 158.8 60.4 158.6Q60.9 158.4 61.6 158.4L61.6 158.4Q62.2 158.4 62.7 158.6Q63.2 158.8 63.5 159.2Q63.8 159.6 63.8 160.1L63.8 160.1L63.0 160.1Q62.9 159.6 62.5 159.4Q62.1 159.1 61.5 159.1L61.5 159.1Q61.1 159.1 60.8 159.2Q60.5 159.4 60.3 159.6Q60.1 159.9 60.1 160.2L60.1 160.2Q60.1 160.5 60.3 160.7Q60.6 160.9 60.9 161.0Q61.1 161.2 61.4 161.2L61.4 161.2L62.0 161.4Q62.3 161.5 62.6 161.6Q62.9 161.7 63.2 161.9Q63.5 162.1 63.7 162.4Q63.9 162.8 63.9 163.2L63.9 163.2Q63.9 163.8 63.6 164.2Q63.3 164.6 62.8 164.9Q62.3 165.1 61.5 165.1ZM67.1 165.1L67.1 165.1Q66.4 165.1 65.9 164.8Q65.4 164.5 65.1 163.9Q64.9 163.3 64.9 162.6L64.9 162.6Q64.9 161.8 65.1 161.2Q65.4 160.7 65.9 160.3Q66.4 160.0 67.1 160.0L67.1 160.0Q67.4 160.0 67.8 160.1Q68.1 160.2 68.3 160.4Q68.6 160.6 68.8 160.8Q69.0 161.1 69.1 161.4L69.1 161.4L68.3 161.6Q68.3 161.4 68.2 161.3Q68.1 161.1 67.9 161.0Q67.7 160.9 67.5 160.8Q67.3 160.7 67.1 160.7L67.1 160.7Q66.6 160.7 66.3 161.0Q66.0 161.2 65.8 161.7Q65.7 162.1 65.7 162.6L65.7 162.6Q65.7 163.1 65.8 163.5Q66.0 163.9 66.3 164.1Q66.6 164.4 67.1 164.4L67.1 164.4Q67.3 164.4 67.5 164.3Q67.8 164.3 67.9 164.1Q68.1 164.0 68.2 163.9Q68.3 163.7 68.3 163.5L68.3 163.5L69.1 163.7Q69.0 164.0 68.8 164.3Q68.6 164.6 68.4 164.7Q68.1 164.9 67.8 165.0Q67.5 165.1 67.1 165.1ZM71.0 165L70.2 165L70.2 160.1L71.0 160.1L71.0 160.8L71.1 160.8Q71.2 160.5 71.5 160.2Q71.9 160.0 72.3 160.0L72.3 160.0Q72.4 160.0 72.5 160.0Q72.7 160.0 72.7 160.0L72.7 160.0L72.7 160.8Q72.7 160.8 72.6 160.8Q72.4 160.8 72.3 160.8L72.3 160.8Q71.9 160.8 71.6 160.9Q71.3 161.1 71.2 161.3Q71.0 161.6 71.0 161.9L71.0 161.9L71.0 165ZM74.4 165L73.6 165L73.6 160.1L74.4 160.1L74.4 165ZM74.0 159.3L74.0 159.3Q73.8 159.3 73.6 159.1Q73.5 159.0 73.5 158.8L73.5 158.8Q73.5 158.5 73.6 158.4Q73.8 158.2 74.0 158.2L74.0 158.2Q74.3 158.2 74.4 158.4Q74.6 158.5 74.6 158.8L74.6 158.8Q74.6 159.0 74.4 159.1Q74.3 159.3 74.0 159.3ZM76.6 166.8L75.8 166.8L75.8 160.1L76.6 160.1L76.6 160.9L76.7 160.9Q76.7 160.7 76.9 160.5Q77.0 160.3 77.3 160.2Q77.6 160.0 78.1 160.0L78.1 160.0Q78.7 160.0 79.2 160.3Q79.6 160.6 79.9 161.2Q80.2 161.8 80.2 162.6L80.2 162.6Q80.2 163.3 79.9 163.9Q79.6 164.5 79.2 164.8Q78.7 165.1 78.1 165.1L78.1 165.1Q77.6 165.1 77.3 164.9Q77.0 164.8 76.9 164.6Q76.7 164.4 76.7 164.2L76.7 164.2L76.6 164.2L76.6 166.8ZM78.0 164.4L78.0 164.4Q78.4 164.4 78.7 164.1Q79.0 163.9 79.2 163.5Q79.4 163.1 79.4 162.5L79.4 162.5Q79.4 162.0 79.2 161.6Q79.1 161.2 78.7 161.0Q78.4 160.7 78.0 160.7L78.0 160.7Q77.5 160.7 77.2 161.0Q76.9 161.2 76.7 161.6Q76.6 162.0 76.6 162.5L76.6 162.5Q76.6 163.1 76.7 163.5Q76.9 163.9 77.2 164.2Q77.5 164.4 78.0 164.4ZM82.2 160.1L83.2 160.1L83.2 160.8L82.2 160.8L82.2 163.7Q82.2 164.1 82.4 164.2Q82.5 164.4 82.8 164.4L82.8 164.4Q82.9 164.4 83.0 164.3Q83.1 164.3 83.2 164.3L83.2 164.3L83.4 165.0Q83.3 165.0 83.1 165.0Q82.9 165.1 82.8 165.1L82.8 165.1Q82.2 165.1 81.8 164.7Q81.4 164.4 81.4 163.8L81.4 163.8L81.4 160.8L80.7 160.8L80.7 160.1L81.4 160.1L81.4 158.9L82.2 158.9L82.2 160.1Z "/></g><mask id="satori_om-id-0-2-1"><rect x="96" y="156" width="56" height="11" fill="#fff"/></mask><mask id="satori_om-id-0-2-1-0"><rect x="96" y="159" width="6" height="6" fill="#fff"/></mask><path x="96" y="159" width="6" height="6" fill="#f1e05a" d="M99,159 h0 a3,3 0 0 1 3,3 v0 a3,3 0 0 1 -3,3 h0 a3,3 0 0 1 -3,-3 v0 a3,3 0 0 1 3,-3"/><mask id="satori_om-id-0-2-1-1"><rect x="106" y="156" width="46" height="11" fill="#fff"/></mask><g  ><path fill="#44448a" d="M108.4 165.1L108.4 165.1Q107.5 165.1 107.0 164.6Q106.4 164.1 106.4 163.1L106.4 163.1L106.4 162.8L107.3 162.8L107.3 163.1Q107.3 163.7 107.6 164.0Q107.9 164.4 108.4 164.4L108.4 164.4Q108.9 164.4 109.2 164.0Q109.5 163.7 109.5 163.1L109.5 163.1L109.5 158.5L110.3 158.5L110.3 163.1Q110.3 164.1 109.8 164.6Q109.3 165.1 108.4 165.1ZM113.2 165.1L113.2 165.1Q112.7 165.1 112.4 164.9Q112.0 164.8 111.8 164.4Q111.5 164.1 111.5 163.6L111.5 163.6Q111.5 163.2 111.7 162.9Q111.9 162.7 112.1 162.5Q112.4 162.4 112.8 162.3Q113.1 162.2 113.4 162.2L113.4 162.2Q113.9 162.1 114.2 162.1Q114.4 162.0 114.6 162.0Q114.7 161.9 114.7 161.7L114.7 161.7L114.7 161.7Q114.7 161.4 114.6 161.2Q114.5 160.9 114.2 160.8Q114.0 160.7 113.7 160.7L113.7 160.7Q113.3 160.7 113.1 160.8Q112.8 160.9 112.7 161.1Q112.5 161.3 112.4 161.4L112.4 161.4L111.7 161.2Q111.9 160.7 112.2 160.5Q112.5 160.2 112.9 160.1Q113.3 160.0 113.7 160.0L113.7 160.0Q113.9 160.0 114.2 160.1Q114.5 160.1 114.8 160.3Q115.1 160.5 115.3 160.8Q115.5 161.2 115.5 161.8L115.5 161.8L115.5 165L114.7 165L114.7 164.3L114.7 164.3Q114.6 164.5 114.4 164.7Q114.2 164.9 113.9 165.0Q113.6 165.1 113.2 165.1ZM113.3 164.4L113.3 164.4Q113.8 164.4 114.1 164.2Q114.4 164.1 114.5 163.8Q114.7 163.5 114.7 163.2L114.7 163.2L114.7 162.5Q114.7 162.6 114.5 162.6Q114.3 162.7 114.1 162.7Q113.9 162.8 113.7 162.8Q113.5 162.8 113.4 162.8L113.4 162.8Q113.1 162.9 112.9 162.9Q112.6 163.0 112.5 163.2Q112.3 163.4 112.3 163.6L112.3 163.6Q112.3 163.9 112.5 164.1Q112.6 164.2 112.8 164.3Q113.0 164.4 113.3 164.4ZM119.1 165L118.3 165L116.4 160.1L117.3 160.1L118.3 163.0Q118.5 163.5 118.6 163.9L118.6 163.9Q118.7 164.1 118.7 164.3L118.7 164.3Q118.8 164.1 118.8 163.9L118.8 163.9Q118.9 163.5 119.1 163.0L119.1 163.0L120.1 160.1L121.0 160.1L119.1 165ZM123.3 165.1L123.3 165.1Q122.9 165.1 122.5 164.9Q122.1 164.8 121.9 164.4Q121.6 164.1 121.6 163.6L121.6 163.6Q121.6 163.2 121.8 162.9Q122.0 162.7 122.3 162.5Q122.5 162.4 122.9 162.3Q123.2 162.2 123.6 162.2L123.6 162.2Q124.0 162.1 124.3 162.1Q124.5 162.0 124.7 162.0Q124.8 161.9 124.8 161.7L124.8 161.7L124.8 161.7Q124.8 161.4 124.7 161.2Q124.6 160.9 124.4 160.8Q124.1 160.7 123.8 160.7L123.8 160.7Q123.4 160.7 123.2 160.8Q122.9 160.9 122.8 161.1Q122.6 161.3 122.5 161.4L122.5 161.4L121.8 161.2Q122.0 160.7 122.3 160.5Q122.6 160.2 123.0 160.1Q123.4 160.0 123.8 160.0L123.8 160.0Q124.0 160.0 124.3 160.1Q124.6 160.1 124.9 160.3Q125.2 160.5 125.4 160.8Q125.6 161.2 125.6 161.8L125.6 161.8L125.6 165L124.8 165L124.8 164.3L124.8 164.3Q124.7 164.5 124.5 164.7Q124.3 164.9 124.0 165.0Q123.7 165.1 123.3 165.1ZM123.5 164.4L123.5 164.4Q123.9 164.4 124.2 164.2Q124.5 164.1 124.7 163.8Q124.8 163.5 124.8 163.2L124.8 163.2L124.8 162.5Q124.8 162.6 124.6 162.6Q124.4 162.7 124.2 162.7Q124.0 162.8 123.8 162.8Q123.6 162.8 123.5 162.8L123.5 162.8Q123.2 162.9 123.0 162.9Q122.7 163.0 122.6 163.2Q122.4 163.4 122.4 163.6L122.4 163.6Q122.4 163.9 122.6 164.1Q122.7 164.2 122.9 164.3Q123.2 164.4 123.5 164.4ZM129.2 165.1L129.2 165.1Q128.5 165.1 128.0 164.9Q127.4 164.7 127.1 164.2Q126.9 163.8 126.8 163.3L126.8 163.3L127.7 163.3Q127.7 163.7 127.9 163.9Q128.1 164.1 128.5 164.3Q128.8 164.4 129.2 164.4L129.2 164.4Q129.6 164.4 130.0 164.2Q130.3 164.1 130.5 163.8Q130.8 163.5 130.8 163.2L130.8 163.2Q130.8 162.9 130.6 162.7Q130.4 162.5 130.1 162.4Q129.8 162.2 129.5 162.1L129.5 162.1L128.7 161.9Q127.9 161.7 127.4 161.3Q127.0 160.9 127.0 160.2L127.0 160.2Q127.0 159.7 127.3 159.2Q127.6 158.8 128.1 158.6Q128.6 158.4 129.2 158.4L129.2 158.4Q129.9 158.4 130.4 158.6Q130.9 158.8 131.2 159.2Q131.5 159.6 131.5 160.1L131.5 160.1L130.7 160.1Q130.6 159.6 130.2 159.4Q129.8 159.1 129.2 159.1L129.2 159.1Q128.8 159.1 128.5 159.2Q128.2 159.4 128.0 159.6Q127.8 159.9 127.8 160.2L127.8 160.2Q127.8 160.5 128.0 160.7Q128.2 160.9 128.5 161.0Q128.8 161.2 129.1 161.2L129.1 161.2L129.7 161.4Q130.0 161.5 130.3 161.6Q130.6 161.7 130.9 161.9Q131.2 162.1 131.4 162.4Q131.6 162.8 131.6 163.2L131.6 163.2Q131.6 163.8 131.3 164.2Q131.0 164.6 130.5 164.9Q129.9 165.1 129.2 165.1ZM134.8 165.1L134.8 165.1Q134.1 165.1 133.6 164.8Q133.1 164.5 132.8 163.9Q132.5 163.3 132.5 162.6L132.5 162.6Q132.5 161.8 132.8 161.2Q133.1 160.7 133.6 160.3Q134.1 160.0 134.8 160.0L134.8 160.0Q135.1 160.0 135.4 160.1Q135.8 160.2 136.0 160.4Q136.3 160.6 136.5 160.8Q136.7 161.1 136.8 161.4L136.8 161.4L136.0 161.6Q135.9 161.4 135.8 161.3Q135.7 161.1 135.6 161.0Q135.4 160.9 135.2 160.8Q135.0 160.7 134.8 160.7L134.8 160.7Q134.3 160.7 134.0 161.0Q133.6 161.2 133.5 161.7Q133.3 162.1 133.3 162.6L133.3 162.6Q133.3 163.1 133.5 163.5Q133.6 163.9 134.0 164.1Q134.3 164.4 134.8 164.4L134.8 164.4Q135.0 164.4 135.2 164.3Q135.4 164.3 135.6 164.1Q135.8 164.0 135.9 163.9Q136.0 163.7 136.0 163.5L136.0 163.5L136.8 163.7Q136.7 164.0 136.5 164.3Q136.3 164.6 136.0 164.7Q135.8 164.9 135.5 165.0Q135.1 165.1 134.8 165.1ZM138.7 165L137.9 165L137.9 160.1L138.7 160.1L138.7 160.8L138.7 160.8Q138.9 160.5 139.2 160.2Q139.6 160.0 140.0 160.0L140.0 160.0Q140.1 160.0 140.2 160.0Q140.3 160.0 140.4 160.0L140.4 160.0L140.4 160.8Q140.4 160.8 140.2 160.8Q140.1 160.8 139.9 160.8L139.9 160.8Q139.6 160.8 139.3 160.9Q139.0 161.1 138.9 161.3Q138.7 161.6 138.7 161.9L138.7 161.9L138.7 165ZM142.1 165L141.3 165L141.3 160.1L142.1 160.1L142.1 165ZM141.7 159.3L141.7 159.3Q141.5 159.3 141.3 159.1Q141.2 159.0 141.2 158.8L141.2 158.8Q141.2 158.5 141.3 158.4Q141.5 158.2 141.7 158.2L141.7 158.2Q141.9 158.2 142.1 158.4Q142.3 158.5 142.3 158.8L142.3 158.8Q142.3 159.0 142.1 159.1Q141.9 159.3 141.7 159.3ZM144.3 166.8L143.5 166.8L143.5 160.1L144.2 160.1L144.2 160.9L144.3 160.9Q144.4 160.7 144.6 160.5Q144.7 160.3 145.0 160.2Q145.3 160.0 145.8 160.0L145.8 160.0Q146.4 160.0 146.8 160.3Q147.3 160.6 147.6 161.2Q147.8 161.8 147.8 162.6L147.8 162.6Q147.8 163.3 147.6 163.9Q147.3 164.5 146.8 164.8Q146.4 165.1 145.8 165.1L145.8 165.1Q145.3 165.1 145.0 164.9Q144.7 164.8 144.6 164.6Q144.4 164.4 144.3 164.2L144.3 164.2L144.3 164.2L144.3 166.8ZM145.6 164.4L145.6 164.4Q146.1 164.4 146.4 164.1Q146.7 163.9 146.9 163.5Q147.0 163.1 147.0 162.5L147.0 162.5Q147.0 162.0 146.9 161.6Q146.7 161.2 146.4 161.0Q146.1 160.7 145.6 160.7L145.6 160.7Q145.2 160.7 144.9 161.0Q144.6 161.2 144.4 161.6Q144.3 162.0 144.3 162.5L144.3 162.5Q144.3 163.1 144.4 163.5Q144.6 163.9 144.9 164.2Q145.2 164.4 145.6 164.4ZM149.9 160.1L150.9 160.1L150.9 160.8L149.9 160.8L149.9 163.7Q149.9 164.1 150.0 164.2Q150.2 164.4 150.5 164.4L150.5 164.4Q150.6 164.4 150.7 164.3Q150.8 164.3 150.9 164.3L150.9 164.3L151.1 165.0Q150.9 165.0 150.8 165.0Q150.6 165.1 150.5 165.1L150.5 165.1Q149.8 165.1 149.5 164.7Q149.1 164.4 149.1 163.8L149.1 163.8L149.1 160.8L148.4 160.8L148.4 160.1L149.1 160.1L149.1 158.9L149.9 158.9L149.9 160.1Z "/></g><mask id="satori_om-id-0-2-2"><rect x="164" y="156" width="40" height="11" fill="#fff"/></mask><mask id="satori_om-id-0-2-2-0"><rect x="164" y="159" width="6" height="6" fill="#fff"/></mask><path x="164" y="159" width="6" height="6" fill="#3572A5" d="M167,159 h0 a3,3 0 0 1 3,3 v0 a3,3 0 0 1 -3,3 h0 a3,3 0 0 1 -3,-3 v0 a3,3 0 0 1 3,-3"/><mask id="satori_om-id-0-2-2-1"><rect x="174" y="156" width="30" height="11" fill="#fff"/></mask><g  ><path fill="#44448a" d="M175.6 165L174.8 165L174.8 158.5L177.0 158.5Q177.8 158.5 178.3 158.7Q178.8 159.0 179.0 159.5Q179.3 160.0 179.3 160.5Q179.3 161.1 179.0 161.6Q178.8 162.1 178.3 162.4Q177.8 162.6 177.0 162.6L177.0 162.6L175.6 162.6L175.6 165ZM175.6 159.2L175.6 161.9L177.0 161.9Q177.5 161.9 177.8 161.7Q178.1 161.5 178.3 161.2Q178.4 160.9 178.4 160.5Q178.4 160.1 178.3 159.8Q178.1 159.5 177.8 159.4Q177.5 159.2 177.0 159.2L177.0 159.2L175.6 159.2ZM180.4 166.8L180.4 166.8L180.6 166.1L180.6 166.1Q180.9 166.2 181.1 166.1Q181.3 166.1 181.4 166.0Q181.6 165.8 181.7 165.4L181.7 165.4L181.9 165.0L180.0 160.1L180.9 160.1L181.9 163.0Q182.1 163.5 182.2 163.9L182.2 163.9Q182.2 164.1 182.3 164.3L182.3 164.3Q182.3 164.1 182.4 163.9L182.4 163.9Q182.5 163.5 182.7 163.0L182.7 163.0L183.7 160.1L184.6 160.1L182.4 165.7Q182.3 166.1 182.1 166.4Q181.8 166.6 181.6 166.8Q181.3 166.9 180.9 166.9L180.9 166.9Q180.7 166.9 180.6 166.8Q180.4 166.8 180.4 166.8ZM186.4 160.1L187.4 160.1L187.4 160.8L186.4 160.8L186.4 163.7Q186.4 164.1 186.6 164.2Q186.7 164.4 187.0 164.4L187.0 164.4Q187.1 164.4 187.2 164.3Q187.3 164.3 187.4 164.3L187.4 164.3L187.6 165.0Q187.4 165.0 187.3 165.0Q187.1 165.1 187.0 165.1L187.0 165.1Q186.3 165.1 186.0 164.7Q185.6 164.4 185.6 163.8L185.6 163.8L185.6 160.8L184.9 160.8L184.9 160.1L185.6 160.1L185.6 158.9L186.4 158.9L186.4 160.1ZM189.2 162.1L189.2 162.1L189.2 165L188.4 165L188.4 158.5L189.2 158.5L189.2 160.9Q189.4 160.5 189.7 160.3L189.7 160.3Q190.2 160.0 190.7 160.0L190.7 160.0Q191.2 160.0 191.6 160.2Q192.0 160.4 192.2 160.8Q192.4 161.3 192.4 161.9L192.4 161.9L192.4 165L191.6 165L191.6 161.9Q191.6 161.4 191.3 161.1Q191.0 160.7 190.5 160.7L190.5 160.7Q190.1 160.7 189.8 160.9Q189.6 161.0 189.4 161.3Q189.2 161.6 189.2 162.1ZM195.8 165.1L195.8 165.1Q195.1 165.1 194.6 164.8Q194.1 164.5 193.8 163.9Q193.5 163.3 193.5 162.6L193.5 162.6Q193.5 161.8 193.8 161.2Q194.1 160.7 194.6 160.3Q195.1 160.0 195.8 160.0L195.8 160.0Q196.4 160.0 196.9 160.3Q197.4 160.7 197.7 161.2Q198.0 161.8 198.0 162.6L198.0 162.6Q198.0 163.3 197.7 163.9Q197.4 164.5 196.9 164.8Q196.4 165.1 195.8 165.1ZM195.8 164.4L195.8 164.4Q196.3 164.4 196.6 164.1Q196.9 163.9 197.1 163.5Q197.2 163.1 197.2 162.6L197.2 162.6Q197.2 162.1 197.1 161.7Q196.9 161.2 196.6 161.0Q196.3 160.7 195.8 160.7L195.8 160.7Q195.3 160.7 195.0 161.0Q194.6 161.2 194.5 161.7Q194.3 162.1 194.3 162.6L194.3 162.6Q194.3 163.1 194.5 163.5Q194.6 163.9 195.0 164.1Q195.3 164.4 195.8 164.4ZM200.0 162.1L200.0 162.1L200.0 165L199.2 165L199.2 160.1L199.9 160.1L199.9 161.0Q200.1 160.5 200.5 160.3L200.5 160.3Q200.9 160.0 201.4 160.0L201.4 160.0Q201.9 160.0 202.3 160.2Q202.7 160.4 202.9 160.8Q203.1 161.3 203.1 161.9L203.1 161.9L203.1 165L202.3 165L202.3 161.9Q202.3 161.4 202.0 161.1Q201.7 160.7 201.2 160.7L201.2 160.7Q200.8 160.7 200.6 160.9Q200.3 161.0 200.1 161.3Q200.0 161.6 200.0 162.1Z "/></g><mask id="satori_om-id-0-2-3"><rect x="216" y="156" width="29" height="11" fill="#fff"/></mask><mask id="satori_om-id-0-2-3-0"><rect x="216" y="159" width="6" height="6" fill="#fff"/></mask><path x="216" y="159" width="6" height="6" fill="#dea584" d="M219,159 h0 a3,3 0 0 1 3,3 v0 a3,3 0 0 1 -3,3 h0 a3,3 0 0 1 -3,-3 v0 a3,3 0 0 1 3,-3"/><mask id="satori_om-id-0-2-3-1"><rect x="226" y="156" width="19" height="11" fill="#fff"/></mask><g  ><path fill="#44448a" d="M227.6 165L226.8 165L226.8 158.5L229.0 158.5Q229.8 158.5 230.3 158.7Q230.8 159.0 231.0 159.4Q231.3 159.9 231.3 160.5Q231.3 161.1 231.0 161.5Q230.8 162.0 230.3 162.2L230.3 162.2Q230.2 162.3 230.1 162.3L230.1 162.3L231.5 165L230.6 165L229.2 162.5Q229.1 162.5 229.0 162.5L229.0 162.5L227.6 162.5L227.6 165ZM227.6 159.2L227.6 161.7L229.0 161.7Q229.5 161.7 229.8 161.6Q230.1 161.4 230.3 161.1Q230.4 160.9 230.4 160.5L230.4 160.5Q230.4 160.1 230.3 159.8Q230.1 159.5 229.8 159.3Q229.5 159.2 229.0 159.2L229.0 159.2L227.6 159.2ZM234.2 165.1L234.2 165.1Q233.7 165.1 233.3 164.9Q232.9 164.7 232.7 164.2Q232.5 163.8 232.5 163.2L232.5 163.2L232.5 160.1L233.3 160.1L233.3 163.1Q233.3 163.7 233.6 164.0Q233.9 164.3 234.4 164.3L234.4 164.3Q234.7 164.3 235.0 164.2Q235.3 164.0 235.5 163.7Q235.6 163.4 235.6 163.0L235.6 163.0L235.6 160.1L236.4 160.1L236.4 165L235.7 165L235.7 164.1Q235.4 164.6 235.1 164.8L235.1 164.8Q234.7 165.1 234.2 165.1ZM239.5 165.1L239.5 165.1Q239.0 165.1 238.6 165.0Q238.2 164.8 237.9 164.5Q237.7 164.2 237.6 163.8L237.6 163.8L238.3 163.6Q238.4 164.0 238.7 164.2Q239.0 164.4 239.5 164.4L239.5 164.4Q240.0 164.4 240.3 164.2Q240.6 164.0 240.6 163.7L240.6 163.7Q240.6 163.4 240.4 163.2Q240.2 163.1 239.9 163.0L239.9 163.0L239.1 162.8Q238.4 162.6 238.1 162.3Q237.7 162.0 237.7 161.5L237.7 161.5Q237.7 161.0 238.0 160.7Q238.2 160.4 238.6 160.2Q239.0 160.0 239.6 160.0L239.6 160.0Q240.1 160.0 240.4 160.2Q240.8 160.3 241.0 160.6Q241.2 160.9 241.3 161.2L241.3 161.2L240.6 161.4Q240.5 161.1 240.3 160.9Q240.0 160.7 239.6 160.7L239.6 160.7Q239.1 160.7 238.8 160.9Q238.5 161.1 238.5 161.4L238.5 161.4Q238.5 161.7 238.7 161.8Q238.9 162.0 239.4 162.1L239.4 162.1L240.1 162.3Q240.8 162.4 241.1 162.8Q241.4 163.1 241.4 163.6L241.4 163.6Q241.4 164.0 241.2 164.4Q240.9 164.7 240.5 164.9Q240.1 165.1 239.5 165.1ZM243.5 160.1L244.5 160.1L244.5 160.8L243.5 160.8L243.5 163.7Q243.5 164.1 243.6 164.2Q243.7 164.4 244.1 164.4L244.1 164.4Q244.1 164.4 244.3 164.3Q244.4 164.3 244.5 164.3L244.5 164.3L244.6 165.0Q244.5 165.0 244.3 165.0Q244.2 165.1 244.0 165.1L244.0 165.1Q243.4 165.1 243.0 164.7Q242.7 164.4 242.7 163.8L242.7 163.8L242.7 160.8L242.0 160.8L242.0 160.1L242.7 160.1L242.7 158.9L243.5 158.9L243.5 160.1Z "/></g><mask id="satori_om-id-0-2-4"><rect x="257" y="156" width="23" height="11" fill="#fff"/></mask><mask id="satori_om-id-0-2-4-0"><rect x="257" y="159" width="6" height="6" fill="#fff"/></mask><path x="257" y="159" width="6" height="6" fill="#00ADD8" d="M260,159 h0 a3,3 0 0 1 3,3 v0 a3,3 0 0 1 -3,3 h0 a3,3 0 0 1 -3,-3 v0 a3,3 0 0 1 3,-3"/><mask id="satori_om-id-0-2-4-1"><rect x="267" y="156" width="13" height="11" fill="#fff"/></mask><g  ><path fill="#44448a" d="M270.5 165.1L270.5 165.1Q269.6 165.1 268.9 164.7Q268.3 164.3 267.9 163.5Q267.5 162.8 267.5 161.7L267.5 161.7Q267.5 160.7 267.9 159.9Q268.3 159.2 268.9 158.8Q269.6 158.4 270.4 158.4L270.4 158.4Q270.9 158.4 271.4 158.5Q271.8 158.7 272.2 159.0Q272.5 159.2 272.8 159.6Q273.0 160.0 273.1 160.5L273.1 160.5L272.2 160.5Q272.1 160.2 272.0 159.9Q271.8 159.7 271.6 159.5Q271.3 159.3 271.1 159.2Q270.8 159.1 270.4 159.1L270.4 159.1Q269.8 159.1 269.4 159.4Q268.9 159.7 268.6 160.3Q268.3 160.9 268.3 161.7L268.3 161.7Q268.3 162.6 268.6 163.1Q268.9 163.7 269.4 164.0Q269.9 164.3 270.5 164.3L270.5 164.3Q271.0 164.3 271.4 164.1Q271.9 163.8 272.1 163.4L272.1 163.4Q272.3 163.0 272.3 162.4L272.3 162.4L270.6 162.4L270.6 161.7L273.2 161.7L273.2 162.4Q273.2 163.2 272.8 163.8Q272.5 164.4 271.9 164.8Q271.2 165.1 270.5 165.1ZM276.4 165.1L276.4 165.1Q275.7 165.1 275.2 164.8Q274.7 164.5 274.5 163.9Q274.2 163.3 274.2 162.6L274.2 162.6Q274.2 161.8 274.5 161.2Q274.7 160.7 275.2 160.3Q275.7 160.0 276.4 160.0L276.4 160.0Q277.1 160.0 277.6 160.3Q278.1 160.7 278.4 161.2Q278.7 161.8 278.7 162.6L278.7 162.6Q278.7 163.3 278.4 163.9Q278.1 164.5 277.6 164.8Q277.1 165.1 276.4 165.1ZM276.4 164.4L276.4 164.4Q276.9 164.4 277.2 164.1Q277.5 163.9 277.7 163.5Q277.9 163.1 277.9 162.6L277.9 162.6Q277.9 162.1 277.7 161.7Q277.5 161.2 277.2 161.0Q276.9 160.7 276.4 160.7L276.4 160.7Q275.9 160.7 275.6 161.0Q275.3 161.2 275.1 161.7Q275.0 162.1 275.0 162.6L275.0 162.6Q275.0 163.1 275.1 163.5Q275.3 163.9 275.6 164.1Q275.9 164.4 276.4 164.4Z "/></g></svg>