<svg width="800" height="190" viewBox="0 0 800 190" xmlns="http://www.w3.org/2000/svg"><defs><pattern id="satori_pattern_id_0" x="0" y="0" width="1" height="1" patternUnits="objectBoundingBox"><linearGradient id="satori_biid_0" x1="-0.08571217275550942" y1="0.36089335897056674" x2="1.0857121727555095" y2="0.6391066410294333" spreadMethod="pad"><stop offset="0%" stop-color="#090917"/><stop offset="100%" stop-color="#0d0d2e"/></linearGradient><rect x="0" y="0" width="800" height="190" fill="url(#satori_biid_0)"/></pattern><clipPath id="satori_bc-id"><path x="0" y="0" width="800" height="190" d="M20,0 h760 a20,20 0 0 1 20,20 v150 a20,20 0 0 1 -20,20 h-760 a20,20 0 0 1 -20,-20 v-150 a20,20 0 0 1 20,-20"/></clipPath></defs><mask id="satori_om-id"><rect x="1" y="1" width="798" height="188" fill="#fff"/><path width="800" height="190" fill="none" stroke="#000" stroke-width="2" d="M5.8580000000000005,5.8580000000000005 A20,20 0 0 1 20,0 h760 a20,20 0 0 1 20,20 v150 a20,20 0 0 1 -20,20 h-760 a20,20 0 0 1 -20,-20 v-150 A20,20 0 0 1 5.8580000000000005,5.8580000000000005"/></mask><path x="0" y="0" width="800" height="190" fill="url(#satori_pattern_id_0)" d="M20,0 h760 a20,20 0 0 1 20,20 v150 a20,20 0 0 1 -20,20 h-760 a20,20 0 0 1 -20,-20 v-150 a20,20 0 0 1 20,-20"/><path width="800" height="190" clip-path="url(#satori_bc-id)" fill="none" stroke="#1c1c4e" stroke-width="2" d="M5.8580000000000005,5.8580000000000005 A20,20 0 0 1 20,0 h760 a20,20 0 0 1 20,20 v150 a20,20 0 0 1 -20,20 h-760 a20,20 0 0 1 -20,-20 v-150 A20,20 0 0 1 5.8580000000000005,5.8580000000000005"/><mask id="satori_om-id-0"><rect x="27" y="23" width="746" height="15" fill="#fff"/></mask><mask id="satori_ms-id-0-0-1" maskUnits="userSpaceOnUse"><rect x="0" y="0" width="800" height="190" fill="#fff"/><path x="27" y="27" width="8" height="8" fill="#000"  stroke-width="0" d="M31,27 h0 a4,4 0 0 1 4,4 v0 a4,4 0 0 1 -4,4 h0 a4,4 0 0 1 -4,-4 v0 a4,4 0 0 1 4,-4"/></mask><defs><filter id="satori_s-id-0-0-1" x="-800%" y="-800%" width="1700%" height="1700%"><feGaussianBlur stdDeviation="8" result="b"/><feFlood flood-color="rgba(0,255,159,0.5)" in="SourceGraphic" result="f"/><feComposite in="f" in2="b" operator="in"/></filter></defs><g mask="url(#satori_ms-id-0-0-1)" filter="url(#satori_s-id-0-0-1)" opacity="1"><path x="27" y="27" width="8" height="8" fill="#fff" stroke="#fff" stroke-width="0" d="M31,27 h0 a4,4 0 0 1 4,4 v0 a4,4 0 0 1 -4,4 h0 a4,4 0 0 1 -4,-4 v0 a4,4 0 0 1 4,-4"/></g><mask id="satori_ms-id-0-0-0" maskUnits="userSpaceOnUse"><rect x="0" y="0" width="800" height="190" fill="#fff"/><path x="27" y="27" width="8" height="8" fill="#000"  stroke-width="0" d="M31,27 h0 a4,4 0 0 1 4,4 v0 a4,4 0 0 1 -4,4 h0 a4,4 0 0 1 -4,-4 v0 a4,4 0 0 1 4,-4"/></mask><defs><filter id="satori_s-id-0-0-0" x="-200%" y="-200%" width="500%" height="500%"><feGaussianBlur stdDeviation="4" result="b"/><feFlood flood-color="#00ff9f" in="SourceGraphic" result="f"/><feComposite in="f" in2="b" operator="in"/></filter></defs><g mask="url(#satori_ms-id-0-0-0)" filter="url(#satori_s-id-0-0-0)" opacity="1"><path x="27" y="27" width="8" height="8" fill="#fff" stroke="#fff" stroke-width="0" d="M31,27 h0 a4,4 0 0 1 4,4 v0 a4,4 0 0 1 -4,4 h0 a4,4 0 0 1 -4,-4 v0 a4,4 0 0 1 4,-4"/></g><mask id="satori_om-id-0-0"><rect x="27" y="27" width="8" height="8" fill="#fff"/></mask><path x="27" y="27" width="8" height="8" fill="#00ff9f" d="M31,27 h0 a4,4 0 0 1 4,4 v0 a4,4 0 0 1 -4,4 h0 a4,4 0 0 1 -4,-4 v0 a4,4 0 0 1 4,-4"/><mask id="satori_om-id-0-1"><rect x="45" y="23" width="135" height="15" fill="#fff"/></mask><g  ><path fill="#667eea" d="M51.2 37.5L51.2 37.5Q49.9 37.5 48.8 37.1Q47.8 36.8 47.0 36.1Q46.3 35.4 45.9 34.3Q45.6 33.3 45.6 32.0L45.6 32.0Q45.6 30.7 45.9 29.7Q46.3 28.6 47.0 27.9Q47.7 27.1 48.8 26.7Q49.8 26.3 51.2 26.3L51.2 26.3Q52.4 26.3 53.5 26.7Q54.5 27.1 55.2 27.8Q55.9 28.4 56.3 29.4Q56.6 30.3 56.6 31.4L56.6 31.4Q56.6 32.1 56.5 32.7Q56.4 33.4 56.1 33.8Q55.8 34.3 55.3 34.6Q54.9 34.8 54.2 34.8L54.2 34.8Q53.8 34.8 53.5 34.7Q53.2 34.6 52.9 34.4Q52.7 34.2 52.6 33.9L52.6 33.9L52.6 33.9Q52.4 34.3 52.0 34.6Q51.5 34.8 50.8 34.8L50.8 34.8Q50.0 34.8 49.5 34.5Q48.9 34.1 48.6 33.5Q48.3 32.8 48.3 31.9L48.3 31.9Q48.3 31.1 48.6 30.4Q48.9 29.7 49.5 29.4Q50.1 29.0 50.9 29.0L50.9 29.0Q51.4 29.0 51.8 29.2Q52.3 29.4 52.4 29.7L52.4 29.7L52.5 29.7L52.5 29.1L53.7 29.1L53.7 33.1Q53.7 33.4 53.8 33.5Q54.0 33.7 54.2 33.7L54.2 33.7Q54.6 33.7 54.8 33.5Q55.0 33.2 55.1 32.7Q55.2 32.2 55.2 31.5L55.2 31.5Q55.2 30.6 55.0 29.9Q54.7 29.2 54.2 28.7Q53.7 28.2 53.0 27.9Q52.3 27.7 51.3 27.7L51.3 27.7Q50.2 27.7 49.5 28.0Q48.7 28.3 48.1 28.8Q47.6 29.4 47.3 30.1Q47.0 30.9 47.0 31.9L47.0 31.9Q47.0 33.0 47.3 33.7Q47.6 34.5 48.1 35.1Q48.7 35.6 49.5 35.9Q50.3 36.2 51.4 36.2L51.4 36.2Q51.8 36.2 52.3 36.1Q52.7 36.0 53.1 35.9Q53.4 35.8 53.7 35.7L53.7 35.7L54.1 36.9Q53.9 37.1 53.4 37.2Q52.9 37.3 52.4 37.4Q51.8 37.5 51.2 37.5ZM51.0 33.6L51.0 33.6Q51.5 33.6 51.8 33.4Q52.1 33.2 52.3 32.8Q52.4 32.5 52.4 31.9L52.4 31.9Q52.4 31.3 52.3 31.0Q52.1 30.6 51.8 30.5Q51.5 30.3 51.0 30.3L51.0 30.3Q50.6 30.3 50.2 30.5Q49.9 30.7 49.8 31.1Q49.6 31.4 49.6 31.9L49.6 31.9Q49.6 32.4 49.8 32.8Q49.9 33.2 50.2 33.4Q50.5 33.6 51.0 33.6ZM62.9 35.1L62.9 35.1Q61.9 35.1 61.2 34.7Q60.4 34.3 60.1 33.5Q59.7 32.8 59.7 31.8L59.7 31.8Q59.7 30.7 60.1 30.0Q60.4 29.2 61.2 28.8Q61.9 28.4 62.9 28.4L62.9 28.4Q63.9 28.4 64.6 28.8Q65.3 29.2 65.7 30.0Q66.1 30.7 66.1 31.8L66.1 31.8Q66.1 32.8 65.7 33.5Q65.3 34.3 64.6 34.7Q63.9 35.1 62.9 35.1ZM62.9 33.7L62.9 33.7Q63.3 33.7 63.7 33.5Q64.0 33.2 64.1 32.8Q64.3 32.3 64.3 31.7L64.3 31.7Q64.3 31.2 64.1 30.7Q64.0 30.3 63.7 30.0Q63.3 29.8 62.9 29.8L62.9 29.8Q62.4 29.8 62.1 30.0Q61.8 30.3 61.6 30.7Q61.5 31.2 61.5 31.7L61.5 31.7Q61.5 32.3 61.6 32.8Q61.8 33.2 62.1 33.5Q62.4 33.7 62.9 33.7ZM72.2 35.1L72.2 35.1Q71.2 35.1 70.5 34.7Q69.8 34.3 69.4 33.5Q69.0 32.8 69.0 31.8L69.0 31.8Q69.0 30.7 69.4 30.0Q69.8 29.2 70.5 28.8Q71.2 28.4 72.2 28.4L72.2 28.4Q72.8 28.4 73.3 28.5Q73.8 28.7 74.2 29.0Q74.6 29.2 74.8 29.6Q75.1 30.0 75.1 30.5L75.1 30.5L73.5 30.9Q73.5 30.6 73.3 30.4Q73.2 30.2 73.1 30.0Q72.9 29.9 72.7 29.8Q72.5 29.8 72.3 29.8L72.3 29.8Q71.8 29.8 71.5 30.0Q71.1 30.3 71.0 30.7Q70.8 31.2 70.8 31.7L70.8 31.7Q70.8 32.3 71.0 32.8Q71.1 33.2 71.5 33.5Q71.8 33.7 72.3 33.7L72.3 33.7Q72.5 33.7 72.7 33.7Q72.9 33.6 73.1 33.4Q73.3 33.3 73.4 33.1Q73.5 32.9 73.5 32.6L73.5 32.6L75.2 32.9Q75.1 33.4 74.8 33.8Q74.6 34.2 74.2 34.5Q73.8 34.8 73.3 35.0Q72.8 35.1 72.2 35.1ZM80.4 28.4L81.6 28.4L81.6 29.8L80.4 29.8L80.4 33.1Q80.4 33.4 80.5 33.5Q80.7 33.7 81.0 33.7L81.0 33.7Q81.1 33.7 81.3 33.7Q81.5 33.6 81.5 33.6L81.5 33.6L81.8 34.9Q81.5 35.0 81.2 35.1Q80.9 35.1 80.7 35.1L80.7 35.1Q79.7 35.1 79.2 34.6Q78.6 34.1 78.6 33.2L78.6 33.2L78.6 29.8L77.7 29.8L77.7 28.4L78.6 28.4L78.6 26.9L80.4 26.9L80.4 28.4ZM87.7 35.1L87.7 35.1Q86.7 35.1 86.0 34.7Q85.3 34.3 84.9 33.5Q84.5 32.8 84.5 31.8L84.5 31.8Q84.5 30.7 84.9 30.0Q85.3 29.2 86.0 28.8Q86.7 28.4 87.7 28.4L87.7 28.4Q88.7 28.4 89.4 28.8Q90.1 29.2 90.5 30.0Q90.9 30.7 90.9 31.8L90.9 31.8Q90.9 32.8 90.5 33.5Q90.1 34.3 89.4 34.7Q88.7 35.1 87.7 35.1ZM87.7 33.7L87.7 33.7Q88.2 33.7 88.5 33.5Q88.8 33.2 88.9 32.8Q89.1 32.3 89.1 31.7L89.1 31.7Q89.1 31.2 88.9 30.7Q88.8 30.3 88.5 30.0Q88.2 29.8 87.7 29.8L87.7 29.8Q87.2 29.8 86.9 30.0Q86.6 30.3 86.4 30.7Q86.3 31.2 86.3 31.7L86.3 31.7Q86.3 32.3 86.4 32.8Q86.6 33.2 86.9 33.5Q87.2 33.7 87.7 33.7ZM97.0 35.1L97.0 35.1Q96.1 35.1 95.3 34.7Q94.6 34.3 94.2 33.5Q93.8 32.8 93.8 31.8L93.8 31.8Q93.8 30.7 94.2 30.0Q94.6 29.2 95.3 28.8Q96.1 28.4 97.0 28.4L97.0 28.4Q97.6 28.4 98.1 28.5Q98.6 28.7 99.0 29.0Q99.4 29.2 99.6 29.6Q99.9 30.0 100.0 30.5L100.0 30.5L98.3 30.9Q98.3 30.6 98.2 30.4Q98.0 30.2 97.9 30.0Q97.7 29.9 97.5 29.8Q97.3 29.8 97.1 29.8L97.1 29.8Q96.6 29.8 96.3 30.0Q96.0 30.3 95.8 30.7Q95.6 31.2 95.6 31.7L95.6 31.7Q95.6 32.3 95.8 32.8Q96.0 33.2 96.3 33.5Q96.6 33.7 97.1 33.7L97.1 33.7Q97.3 33.7 97.5 33.7Q97.7 33.6 97.9 33.4Q98.1 33.3 98.2 33.1Q98.3 32.9 98.3 32.6L98.3 32.6L100.0 32.9Q99.9 33.4 99.6 33.8Q99.4 34.2 99.0 34.5Q98.6 34.8 98.1 35.0Q97.6 35.1 97.0 35.1ZM105.0 35.1L105.0 35.1Q104.4 35.1 103.9 34.9Q103.4 34.7 103.1 34.3Q102.8 33.8 102.8 33.2L102.8 33.2Q102.8 32.6 103.0 32.3Q103.2 31.9 103.6 31.7Q103.9 31.4 104.4 31.3Q104.8 31.2 105.3 31.2L105.3 31.2Q105.9 31.1 106.2 31.0Q106.6 31.0 106.7 30.9Q106.9 30.8 106.9 30.6L106.9 30.6L106.9 30.5Q106.9 30.3 106.8 30.1Q106.7 29.9 106.4 29.8Q106.2 29.7 105.9 29.7L105.9 29.7Q105.5 29.7 105.3 29.8Q105.0 29.9 104.9 30.0Q104.7 30.2 104.6 30.4L104.6 30.4L103.0 30.2Q103.2 29.6 103.6 29.2Q104.0 28.8 104.6 28.6Q105.1 28.4 105.9 28.4L105.9 28.4Q106.4 28.4 106.9 28.5Q107.4 28.6 107.8 28.9Q108.2 29.1 108.4 29.6Q108.6 30.0 108.6 30.6L108.6 30.6L108.6 35L107.0 35L107.0 34.1L106.9 34.1Q106.8 34.4 106.5 34.6Q106.2 34.9 105.9 35.0Q105.5 35.1 105.0 35.1ZM105.5 33.9L105.5 33.9Q105.9 33.9 106.2 33.7Q106.5 33.6 106.7 33.3Q106.9 33.0 106.9 32.7L106.9 32.7L106.9 31.9Q106.8 32.0 106.7 32.1Q106.5 32.1 106.3 32.1Q106.1 32.2 105.9 32.2Q105.7 32.2 105.6 32.2L105.6 32.2Q105.3 32.3 105.0 32.4Q104.8 32.5 104.6 32.7Q104.5 32.8 104.5 33.1L104.5 33.1Q104.5 33.4 104.6 33.5Q104.8 33.7 105.0 33.8Q105.2 33.9 105.5 33.9ZM114.2 28.4L115.4 28.4L115.4 29.8L114.2 29.8L114.2 33.1Q114.2 33.4 114.3 33.5Q114.4 33.7 114.8 33.7L114.8 33.7Q114.9 33.7 115.1 33.7Q115.2 33.6 115.3 33.6L115.3 33.6L115.6 34.9Q115.3 35.0 115.0 35.1Q114.7 35.1 114.4 35.1L114.4 35.1Q113.5 35.1 112.9 34.6Q112.4 34.1 112.4 33.2L112.4 33.2L112.4 29.8L111.5 29.8L111.5 28.4L112.4 28.4L112.4 26.9L114.2 26.9L114.2 28.4Z M125.6 25.9L127.1 25.9L124.3 36.3L122.8 36.3L125.6 25.9ZM132.3 25.9L133.8 25.9L131.0 36.3L129.5 36.3L132.3 25.9Z M144.1 35.1L144.1 35.1Q143.3 35.1 142.7 34.9Q142.1 34.7 141.7 34.2Q141.4 33.8 141.2 33.2L141.2 33.2L142.9 32.9Q143.0 33.4 143.3 33.6Q143.7 33.8 144.2 33.8L144.2 33.8Q144.7 33.8 145.0 33.6Q145.3 33.5 145.3 33.2L145.3 33.2Q145.3 32.9 145.1 32.7Q144.9 32.6 144.4 32.5L144.4 32.5L143.3 32.3Q142.4 32.1 141.9 31.6Q141.4 31.1 141.4 30.4L141.4 30.4Q141.4 29.8 141.8 29.3Q142.1 28.9 142.7 28.6Q143.3 28.4 144.2 28.4L144.2 28.4Q144.9 28.4 145.5 28.6Q146.1 28.8 146.4 29.2Q146.8 29.6 146.9 30.1L146.9 30.1L145.3 30.4Q145.2 30.1 145.0 29.8Q144.7 29.6 144.2 29.6L144.2 29.6Q143.8 29.6 143.5 29.8Q143.2 30.0 143.2 30.3L143.2 30.3Q143.2 30.5 143.4 30.7Q143.6 30.9 144.0 31.0L144.0 31.0L145.2 31.2Q146.1 31.4 146.6 31.8Q147.1 32.3 147.1 33.0L147.1 33.0Q147.1 33.6 146.7 34.1Q146.3 34.6 145.7 34.9Q145.0 35.1 144.1 35.1ZM152.3 28.4L153.5 28.4L153.5 29.8L152.3 29.8L152.3 33.1Q152.3 33.4 152.4 33.5Q152.6 33.7 152.9 33.7L152.9 33.7Q153.0 33.7 153.2 33.7Q153.3 33.6 153.4 33.6L153.4 33.6L153.7 34.9Q153.4 35.0 153.1 35.1Q152.8 35.1 152.6 35.1L152.6 35.1Q151.6 35.1 151.1 34.6Q150.5 34.1 150.5 33.2L150.5 33.2L150.5 29.8L149.6 29.8L149.6 28.4L150.5 28.4L150.5 26.9L152.3 26.9L152.3 28.4ZM158.5 35.1L158.5 35.1Q157.9 35.1 157.4 34.9Q156.9 34.7 156.6 34.3Q156.3 33.8 156.3 33.2L156.3 33.2Q156.3 32.6 156.5 32.3Q156.7 31.9 157.1 31.7Q157.4 31.4 157.8 31.3Q158.3 31.2 158.8 31.2L158.8 31.2Q159.3 31.1 159.7 31.0Q160.0 31.0 160.2 30.9Q160.4 30.8 160.4 30.6L160.4 30.6L160.4 30.5Q160.4 30.3 160.2 30.1Q160.1 29.9 159.9 29.8Q159.7 29.7 159.3 29.7L159.3 29.7Q159.0 29.7 158.7 29.8Q158.5 29.9 158.3 30.0Q158.2 30.2 158.1 30.4L158.1 30.4L156.5 30.2Q156.7 29.6 157.1 29.2Q157.4 28.8 158.0 28.6Q158.6 28.4 159.3 28.4L159.3 28.4Q159.9 28.4 160.4 28.5Q160.9 28.6 161.3 28.9Q161.7 29.1 161.9 29.6Q162.1 30.0 162.1 30.6L162.1 30.6L162.1 35L160.5 35L160.5 34.1L160.4 34.1Q160.2 34.4 160.0 34.6Q159.7 34.9 159.3 35.0Q159.0 35.1 158.5 35.1ZM159.0 33.9L159.0 33.9Q159.4 33.9 159.7 33.7Q160.0 33.6 160.2 33.3Q160.4 33.0 160.4 32.7L160.4 32.7L160.4 31.9Q160.3 32.0 160.1 32.1Q160.0 32.1 159.8 32.1Q159.6 32.2 159.4 32.2Q159.2 32.2 159.1 32.2L159.1 32.2Q158.8 32.3 158.5 32.4Q158.3 32.5 158.1 32.7Q158.0 32.8 158.0 33.1L158.0 33.1Q158.0 33.4 158.1 33.5Q158.2 33.7 158.5 33.8Q158.7 33.9 159.0 33.9ZM167.6 28.4L168.9 28.4L168.9 29.8L167.6 29.8L167.6 33.1Q167.6 33.4 167.8 33.5Q167.9 33.7 168.2 33.7L168.2 33.7Q168.3 33.7 168.5 33.7Q168.7 33.6 168.8 33.6L168.8 33.6L169.1 34.9Q168.8 35.0 168.5 35.1Q168.2 35.1 167.9 35.1L167.9 35.1Q166.9 35.1 166.4 34.6Q165.9 34.1 165.9 33.2L165.9 33.2L165.9 29.8L165.0 29.8L165.0 28.4L165.9 28.4L165.9 26.9L167.6 26.9L167.6 28.4ZM174.6 35.1L174.6 35.1Q173.8 35.1 173.2 34.9Q172.6 34.7 172.2 34.2Q171.8 33.8 171.7 33.2L171.7 33.2L173.4 32.9Q173.5 33.4 173.8 33.6Q174.1 33.8 174.7 33.8L174.7 33.8Q175.2 33.8 175.5 33.6Q175.8 33.5 175.8 33.2L175.8 33.2Q175.8 32.9 175.5 32.7Q175.3 32.6 174.9 32.5L174.9 32.5L173.8 32.3Q172.8 32.1 172.4 31.6Q171.9 31.1 171.9 30.4L171.9 30.4Q171.9 29.8 172.2 29.3Q172.6 28.9 173.2 28.6Q173.8 28.4 174.6 28.4L174.6 28.4Q175.4 28.4 176.0 28.6Q176.6 28.8 176.9 29.2Q177.3 29.6 177.4 30.1L177.4 30.1L175.8 30.4Q175.7 30.1 175.4 29.8Q175.2 29.6 174.7 29.6L174.7 29.6Q174.2 29.6 173.9 29.8Q173.7 30.0 173.7 30.3L173.7 30.3Q173.7 30.5 173.8 30.7Q174.0 30.9 174.5 31.0L174.5 31.0L175.7 31.2Q176.6 31.4 177.1 31.8Q177.5 32.3 177.5 33.0L177.5 33.0Q177.5 33.6 177.2 34.1Q176.8 34.6 176.1 34.9Q175.5 35.1 174.6 35.1Z "/></g><mask id="satori_om-id-0-2"><rect x="190" y="24" width="583" height="13" fill="#fff"/></mask><mask id="satori_om-id-0-2-0"><rect x="733" y="24" width="40" height="13" fill="#fff"/></mask><g  ><path fill="#33336e" d="M736.3 35.1L736.3 35.1Q735.5 35.1 734.9 34.7Q734.2 34.4 733.9 33.7Q733.6 33.0 733.6 32.0L733.6 32.0Q733.6 31.1 733.9 30.4Q734.2 29.7 734.9 29.3Q735.5 28.9 736.3 28.9L736.3 28.9Q737.1 28.9 737.7 29.3Q738.3 29.7 738.7 30.4Q739.0 31.1 739.0 32.0L739.0 32.0Q739.0 33.0 738.7 33.7Q738.3 34.4 737.7 34.7Q737.1 35.1 736.3 35.1ZM736.3 34.3L736.3 34.3Q736.9 34.3 737.3 34.0Q737.7 33.6 737.9 33.1Q738.1 32.6 738.1 32.0L738.1 32.0Q738.1 31.4 737.9 30.9Q737.7 30.4 737.3 30.1Q736.9 29.8 736.3 29.8L736.3 29.8Q735.7 29.8 735.3 30.1Q734.9 30.4 734.7 30.9Q734.5 31.4 734.5 32.0L734.5 32.0Q734.5 32.6 734.7 33.1Q734.9 33.6 735.3 34.0Q735.7 34.3 736.3 34.3ZM742.9 35.1L742.9 35.1Q742.1 35.1 741.5 34.7Q740.8 34.4 740.5 33.7Q740.2 33.0 740.2 32.0L740.2 32.0Q740.2 31.1 740.5 30.4Q740.8 29.7 741.5 29.3Q742.1 28.9 742.9 28.9L742.9 28.9Q743.3 28.9 743.7 29.0Q744.1 29.1 744.4 29.4Q744.7 29.6 745.0 29.9Q745.2 30.2 745.3 30.6L745.3 30.6L744.4 30.8Q744.3 30.6 744.2 30.4Q744.1 30.2 743.9 30.1Q743.7 29.9 743.4 29.9Q743.2 29.8 742.9 29.8L742.9 29.8Q742.3 29.8 741.9 30.1Q741.5 30.4 741.3 30.9Q741.1 31.4 741.1 32.0L741.1 32.0Q741.1 32.6 741.3 33.1Q741.5 33.6 741.9 34.0Q742.3 34.3 742.9 34.3L742.9 34.3Q743.2 34.3 743.4 34.2Q743.7 34.1 743.9 34.0Q744.1 33.8 744.2 33.6Q744.4 33.4 744.4 33.2L744.4 33.2L745.3 33.4Q745.2 33.8 745.0 34.1Q744.8 34.5 744.4 34.7Q744.1 34.9 743.7 35.0Q743.3 35.1 742.9 35.1ZM747.9 29.0L749.1 29.0L749.1 29.8L747.9 29.8L747.9 33.4Q747.9 33.8 748.0 34.0Q748.2 34.2 748.6 34.2L748.6 34.2Q748.7 34.2 748.8 34.2Q748.9 34.2 749.1 34.2L749.1 34.2L749.3 35.0Q749.1 35.0 748.9 35.0Q748.7 35.1 748.5 35.1L748.5 35.1Q747.8 35.1 747.3 34.7Q746.9 34.3 746.9 33.5L746.9 33.5L746.9 29.8L746.0 29.8L746.0 29.0L746.9 29.0L746.9 27.6L747.9 27.6L747.9 29.0ZM752.8 35.1L752.8 35.1Q752.0 35.1 751.3 34.7Q750.7 34.4 750.4 33.7Q750.0 33.0 750.0 32.0L750.0 32.0Q750.0 31.1 750.4 30.4Q750.7 29.7 751.3 29.3Q752.0 28.9 752.8 28.9L752.8 28.9Q753.6 28.9 754.2 29.3Q754.8 29.7 755.2 30.4Q755.5 31.1 755.5 32.0L755.5 32.0Q755.5 33.0 755.2 33.7Q754.8 34.4 754.2 34.7Q753.6 35.1 752.8 35.1ZM752.8 34.3L752.8 34.3Q753.4 34.3 753.8 34.0Q754.2 33.6 754.4 33.1Q754.5 32.6 754.5 32.0L754.5 32.0Q754.5 31.4 754.4 30.9Q754.2 30.4 753.8 30.1Q753.4 29.8 752.8 29.8L752.8 29.8Q752.2 29.8 751.8 30.1Q751.4 30.4 751.2 30.9Q751.0 31.4 751.0 32.0L751.0 32.0Q751.0 32.6 751.2 33.1Q751.4 33.6 751.8 34.0Q752.2 34.3 752.8 34.3ZM759.4 35.1L759.4 35.1Q758.6 35.1 757.9 34.7Q757.3 34.4 757.0 33.7Q756.6 33.0 756.6 32.0L756.6 32.0Q756.6 31.1 757.0 30.4Q757.3 29.7 757.9 29.3Q758.6 28.9 759.4 28.9L759.4 28.9Q759.8 28.9 760.2 29.0Q760.6 29.1 760.9 29.4Q761.2 29.6 761.4 29.9Q761.7 30.2 761.8 30.6L761.8 30.6L760.9 30.8Q760.8 30.6 760.7 30.4Q760.5 30.2 760.3 30.1Q760.2 29.9 759.9 29.9Q759.7 29.8 759.4 29.8L759.4 29.8Q758.8 29.8 758.4 30.1Q758.0 30.4 757.8 30.9Q757.6 31.4 757.6 32.0L757.6 32.0Q757.6 32.6 757.8 33.1Q758.0 33.6 758.4 34.0Q758.8 34.3 759.4 34.3L759.4 34.3Q759.7 34.3 759.9 34.2Q760.2 34.1 760.4 34.0Q760.6 33.8 760.7 33.6Q760.8 33.4 760.9 33.2L760.9 33.2L761.8 33.4Q761.7 33.8 761.5 34.1Q761.2 34.5 760.9 34.7Q760.6 34.9 760.2 35.0Q759.8 35.1 759.4 35.1ZM764.9 35.1L764.9 35.1Q764.3 35.1 763.9 34.9Q763.4 34.7 763.1 34.3Q762.8 33.9 762.8 33.3L762.8 33.3Q762.8 32.8 763.0 32.5Q763.3 32.1 763.6 31.9Q763.9 31.8 764.3 31.7Q764.8 31.6 765.2 31.5L765.2 31.5Q765.7 31.5 766.1 31.4Q766.4 31.4 766.6 31.3Q766.7 31.2 766.7 31.0L766.7 31.0L766.7 30.9Q766.7 30.6 766.6 30.3Q766.4 30.0 766.2 29.9Q765.9 29.8 765.5 29.8L765.5 29.8Q765.0 29.8 764.7 29.9Q764.4 30.0 764.2 30.2Q764.0 30.4 763.9 30.6L763.9 30.6L763.0 30.3Q763.2 29.8 763.6 29.5Q764.0 29.2 764.5 29.0Q765.0 28.9 765.4 28.9L765.4 28.9Q765.7 28.9 766.1 29.0Q766.5 29.1 766.9 29.3Q767.2 29.5 767.5 29.9Q767.7 30.3 767.7 31.0L767.7 31.0L767.7 35L766.7 35L766.7 34.2L766.7 34.2Q766.6 34.4 766.3 34.6Q766.1 34.8 765.8 35.0Q765.4 35.1 764.9 35.1ZM765.1 34.3L765.1 34.3Q765.6 34.3 766.0 34.1Q766.3 33.9 766.5 33.5Q766.7 33.2 766.7 32.8L766.7 32.8L766.7 32.0Q766.7 32.1 766.5 32.1Q766.3 32.2 766.0 32.2Q765.8 32.3 765.5 32.3Q765.3 32.3 765.1 32.3L765.1 32.3Q764.8 32.4 764.5 32.5Q764.2 32.6 764.0 32.8Q763.8 33.0 763.8 33.3L763.8 33.3Q763.8 33.7 764.0 33.9Q764.1 34.1 764.4 34.2Q764.7 34.3 765.1 34.3ZM770.5 29.0L771.7 29.0L771.7 29.8L770.5 29.8L770.5 33.4Q770.5 33.8 770.7 34.0Q770.8 34.2 771.2 34.2L771.2 34.2Q771.3 34.2 771.5 34.2Q771.6 34.2 771.7 34.2L771.7 34.2L771.9 35.0Q771.8 35.0 771.6 35.0Q771.4 35.1 771.2 35.1L771.2 35.1Q770.4 35.1 770.0 34.7Q769.5 34.3 769.5 33.5L769.5 33.5L769.5 29.8L768.6 29.8L768.6 29.0L769.5 29.0L769.5 27.6L770.5 27.6L770.5 29.0Z "/></g><mask id="satori_om-id-1"><rect x="27" y="54" width="746" height="88" fill="#fff"/></mask><defs><clipPath id="satori_bc-id-1-0"><path x="27" y="54" width="179" height="88" d="M41,54 h151 a14,14 0 0 1 14,14 v60 a14,14 0 0 1 -14,14 h-151 a14,14 0 0 1 -14,-14 v-60 a14,14 0 0 1 14,-14"/></clipPath></defs><mask id="satori_ms-id-1-0-0" maskUnits="userSpaceOnUse"><rect x="0" y="0" width="800" height="190" fill="#fff"/><path x="27" y="54" width="179" height="88" fill="#000"  stroke-width="0" d="M41,54 h151 a14,14 0 0 1 14,14 v60 a14,14 0 0 1 -14,14 h-151 a14,14 0 0 1 -14,-14 v-60 a14,14 0 0 1 14,-14"/></mask><defs><filter id="satori_s-id-1-0-0" x="-67.59776536312849%" y="-137.5%" width="235.19553072625698%" height="375%"><feGaussianBlur stdDeviation="11" result="b"/><feFlood flood-color="rgba(255,215,0,0.35)" in="SourceGraphic" result="f"/><feComposite in="f" in2="b" operator="in"/></filter></defs><g mask="url(#satori_ms-id-1-0-0)" filter="url(#satori_s-id-1-0-0)" opacity="1"><path x="27" y="54" width="179" height="88" fill="#fff" stroke="#fff" stroke-width="0" d="M41,54 h151 a14,14 0 0 1 14,14 v60 a14,14 0 0 1 -14,14 h-151 a14,14 0 0 1 -14,-14 v-60 a14,14 0 0 1 14,-14"/></g><mask id="satori_om-id-1-0"><rect x="28" y="55" width="177" height="86" fill="#fff"/><path width="179" height="88" fill="none" stroke="#000" stroke-width="2" d="M31.101,58.101 A14,14 0 0 1 41,54 h151 a14,14 0 0 1 14,14 v60 a14,14 0 0 1 -14,14 h-151 a14,14 0 0 1 -14,-14 v-60 A14,14 0 0 1 31.101,58.101"/></mask><path x="27" y="54" width="179" height="88" fill="#0a0a22" d="M41,54 h151 a14,14 0 0 1 14,14 v60 a14,14 0 0 1 -14,14 h-151 a14,14 0 0 1 -14,-14 v-60 a14,14 0 0 1 14,-14"/><path width="179" height="88" clip-path="url(#satori_bc-id-1-0)" fill="none" stroke="#1e1e4e" stroke-width="2" d="M31.101,58.101 A14,14 0 0 1 41,54 h151 a14,14 0 0 1 14,14 v60 a14,14 0 0 1 -14,14 h-151 a14,14 0 0 1 -14,-14 v-60 A14,14 0 0 1 31.101,58.101"/><mask id="satori_om-id-1-0-0"><rect x="93" y="75" width="48" height="28" fill="#fff"/></mask><g  ><path fill="#ffd700" d="M98.8 78.6L103.2 78.6L103.2 99L99.1 99L99.1 82.3L98.9 82.3L94.3 85.6L94.3 81.8L98.8 78.6ZM121.2 99L106.8 99L106.8 96.0L114.0 89.2Q114.9 88.3 115.6 87.6Q116.2 86.9 116.5 86.2Q116.9 85.5 116.9 84.6L116.9 84.6Q116.9 83.7 116.4 83.1Q116.0 82.4 115.3 82.0Q114.6 81.7 113.7 81.7L113.7 81.7Q112.8 81.7 112.0 82.1Q111.3 82.5 111.0 83.2Q110.6 83.9 110.6 84.9L110.6 84.9L106.6 84.9Q106.6 82.9 107.5 81.4Q108.4 80.0 110.0 79.2Q111.6 78.4 113.7 78.4L113.7 78.4Q115.9 78.4 117.5 79.1Q119.1 79.9 120.0 81.3Q120.9 82.6 120.9 84.4L120.9 84.4Q120.9 85.5 120.5 86.6Q120.0 87.7 118.9 89.1Q117.7 90.5 115.6 92.4L115.6 92.4L112.6 95.4L112.6 95.6L121.2 95.6L121.2 99ZM131.8 99.3L131.8 99.3Q129.5 99.3 127.8 98.5Q126.0 97.8 125.0 96.5Q124.0 95.2 124.0 93.5L124.0 93.5Q124.0 92.3 124.6 91.2Q125.2 90.1 126.1 89.4Q127.1 88.7 128.4 88.5L128.4 88.5L128.4 88.3Q126.8 88.0 125.7 86.8Q124.7 85.5 124.7 83.8L124.7 83.8Q124.7 82.3 125.6 81.0Q126.6 79.8 128.2 79.1Q129.8 78.4 131.8 78.4L131.8 78.4Q133.9 78.4 135.5 79.1Q137.1 79.8 138.0 81.0Q138.9 82.3 138.9 83.8L138.9 83.8Q138.9 85.5 137.9 86.8Q136.9 88.0 135.3 88.3L135.3 88.3L135.3 88.5Q136.5 88.7 137.5 89.4Q138.5 90.1 139.1 91.2Q139.7 92.3 139.7 93.5L139.7 93.5Q139.7 95.2 138.7 96.5Q137.6 97.8 135.9 98.5Q134.1 99.3 131.8 99.3ZM131.8 96.2L131.8 96.2Q132.9 96.2 133.6 95.8Q134.4 95.4 134.9 94.8Q135.3 94.1 135.3 93.2L135.3 93.2Q135.3 92.3 134.8 91.6Q134.4 90.9 133.6 90.5Q132.8 90.1 131.8 90.1L131.8 90.1Q130.8 90.1 130.0 90.5Q129.2 90.9 128.8 91.6Q128.3 92.3 128.3 93.2L128.3 93.2Q128.3 94.1 128.8 94.7Q129.2 95.4 130.0 95.8Q130.8 96.2 131.8 96.2ZM131.8 87.1L131.8 87.1Q132.7 87.1 133.4 86.7Q134.0 86.3 134.4 85.7Q134.8 85.1 134.8 84.3L134.8 84.3Q134.8 83.5 134.4 82.8Q134.1 82.2 133.4 81.9Q132.7 81.5 131.8 81.5L131.8 81.5Q130.9 81.5 130.2 81.9Q129.6 82.2 129.2 82.8Q128.8 83.5 128.8 84.3L128.8 84.3Q128.8 85.1 129.2 85.7Q129.6 86.3 130.3 86.7Q130.9 87.1 131.8 87.1Z "/></g><mask id="satori_om-id-1-0-1"><rect x="98" y="111" width="37" height="11" fill="#fff"/></mask><g  ><path fill="#44448a" d="M100.9 120.1L100.9 120.1Q100.2 120.1 99.7 119.9Q99.1 119.7 98.8 119.2Q98.5 118.8 98.5 118.3L98.5 118.3L99.4 118.3Q99.4 118.7 99.6 118.9Q99.8 119.1 100.2 119.3Q100.5 119.4 100.9 119.4L100.9 119.4Q101.3 119.4 101.7 119.2Q102.0 119.1 102.2 118.8Q102.5 118.5 102.5 118.2L102.5 118.2Q102.5 117.9 102.3 117.7Q102.1 117.5 101.8 117.4Q101.5 117.2 101.2 117.1L101.2 117.1L100.4 116.9Q99.6 116.7 99.1 116.3Q98.7 115.9 98.7 115.2L98.7 115.2Q98.7 114.7 99.0 114.2Q99.3 113.8 99.8 113.6Q100.3 113.4 100.9 113.4L100.9 113.4Q101.6 113.4 102.1 113.6Q102.6 113.8 102.9 114.2Q103.2 114.6 103.2 115.1L103.2 115.1L102.4 115.1Q102.3 114.6 101.9 114.4Q101.5 114.1 100.9 114.1L100.9 114.1Q100.5 114.1 100.2 114.2Q99.9 114.4 99.7 114.6Q99.5 114.9 99.5 115.2L99.5 115.2Q99.5 115.5 99.7 115.7Q99.9 115.9 100.2 116.0Q100.5 116.2 100.8 116.2L100.8 116.2L101.4 116.4Q101.7 116.5 102.0 116.6Q102.3 116.7 102.6 116.9Q102.9 117.1 103.1 117.4Q103.3 117.8 103.3 118.2L103.3 118.2Q103.3 118.8 103.0 119.2Q102.7 119.6 102.2 119.9Q101.6 120.1 100.9 120.1ZM107.8 114.2L105.7 114.2L105.7 113.5L110.7 113.5L110.7 114.2L108.6 114.2L108.6 120L107.8 120L107.8 114.2ZM113.7 120L112.8 120L115.2 113.5L116.2 113.5L118.6 120L117.7 120L117.0 118.2L114.3 118.2L113.7 120ZM114.6 117.4L116.8 117.4L116.3 116.1Q116.2 115.8 116.0 115.2L116.0 115.2Q115.9 114.8 115.7 114.1L115.7 114.1Q115.5 114.8 115.3 115.2L115.3 115.2Q115.2 115.8 115.0 116.1L115.0 116.1L114.6 117.4ZM121.9 120L121.1 120L121.1 113.5L123.3 113.5Q124.1 113.5 124.6 113.7Q125.1 114.0 125.3 114.4Q125.6 114.9 125.6 115.5Q125.6 116.1 125.3 116.5Q125.1 117.0 124.6 117.2L124.6 117.2Q124.5 117.3 124.3 117.3L124.3 117.3L125.8 120L124.8 120L123.5 117.5Q123.4 117.5 123.3 117.5L123.3 117.5L121.9 117.5L121.9 120ZM121.9 114.2L121.9 116.7L123.3 116.7Q123.8 116.7 124.1 116.6Q124.4 116.4 124.6 116.1Q124.7 115.9 124.7 115.5L124.7 115.5Q124.7 115.1 124.6 114.8Q124.4 114.5 124.1 114.3Q123.8 114.2 123.3 114.2L123.3 114.2L121.9 114.2ZM130.5 120.1L130.5 120.1Q129.8 120.1 129.2 119.9Q128.7 119.7 128.4 119.2Q128.1 118.8 128.1 118.3L128.1 118.3L129.0 118.3Q129.0 118.7 129.2 118.9Q129.4 119.1 129.8 119.3Q130.1 119.4 130.5 119.4L130.5 119.4Q130.9 119.4 131.3 119.2Q131.6 119.1 131.8 118.8Q132.0 118.5 132.0 118.2L132.0 118.2Q132.0 117.9 131.9 117.7Q131.7 117.5 131.4 117.4Q131.1 117.2 130.7 117.1L130.7 117.1L129.9 116.9Q129.2 116.7 128.7 116.3Q128.3 115.9 128.3 115.2L128.3 115.2Q128.3 114.7 128.6 114.2Q128.9 113.8 129.4 113.6Q129.9 113.4 130.5 113.4L130.5 113.4Q131.2 113.4 131.7 113.6Q132.2 113.8 132.5 114.2Q132.7 114.6 132.8 115.1L132.8 115.1L131.9 115.1Q131.9 114.6 131.5 114.4Q131.1 114.1 130.5 114.1L130.5 114.1Q130.1 114.1 129.8 114.2Q129.4 114.4 129.3 114.6Q129.1 114.9 129.1 115.2L129.1 115.2Q129.1 115.5 129.3 115.7Q129.5 115.9 129.8 116.0Q130.1 116.2 130.3 116.2L130.3 116.2L131.0 116.4Q131.3 116.5 131.6 116.6Q131.9 116.7 132.2 116.9Q132.5 117.1 132.7 117.4Q132.9 117.8 132.9 118.2L132.9 118.2Q132.9 118.8 132.6 119.2Q132.3 119.6 131.8 119.9Q131.2 120.1 130.5 120.1Z "/></g><defs><clipPath id="satori_bc-id-1-1"><path x="216" y="54" width="179" height="88" d="M230,54 h151 a14,14 0 0 1 14,14 v60 a14,14 0 0 1 -14,14 h-151 a14,14 0 0 1 -14,-14 v-60 a14,14 0 0 1 14,-14"/></clipPath></defs><mask id="satori_ms-id-1-1-0" maskUnits="userSpaceOnUse"><rect x="0" y="0" width="800" height="190" fill="#fff"/><path x="216" y="54" width="179" height="88" fill="#000"  stroke-width="0" d="M230,54 h151 a14,14 0 0 1 14,14 v60 a14,14 0 0 1 -14,14 h-151 a14,14 0 0 1 -14,-14 v-60 a14,14 0 0 1 14,-14"/></mask><defs><filter id="satori_s-id-1-1-0" x="-67.59776536312849%" y="-137.5%" width="235.19553072625698%" height="375%"><feGaussianBlur stdDeviation="11" result="b"/><feFlood flood-color="rgba(0,229,255,0.35)" in="SourceGraphic" result="f"/><feComposite in="f" in2="b" operator="in"/></filter></defs><g mask="url(#satori_ms-id-1-1-0)" filter="url(#satori_s-id-1-1-0)" opacity="1"><path x="216" y="54" width="179" height="88" fill="#fff" stroke="#fff" stroke-width="0" d="M230,54 h151 a14,14 0 0 1 14,14 v60 a14,14 0 0 1 -14,14 h-151 a14,14 0 0 1 -14,-14 v-60 a14,14 0 0 1 14,-14"/></g><mask id="satori_om-id-1-1"><rect x="217" y="55" width="177" height="86" fill="#fff"/><path width="179" height="88" fill="none" stroke="#000" stroke-width="2" d="M220.101,58.101 A14,14 0 0 1 230,54 h151 a14,14 0 0 1 14,14 v60 a14,14 0 0 1 -14,14 h-151 a14,14 0 0 1 -14,-14 v-60 A14,14 0 0 1 220.101,58.101"/></mask><path x="216" y="54" width="179" height="88" fill="#0a0a22" d="M230,54 h151 a14,14 0 0 1 14,14 v60 a14,14 0 0 1 -14,14 h-151 a14,14 0 0 1 -14,-14 v-60 a14,14 0 0 1 14,-14"/><path width="179" height="88" clip-path="url(#satori_bc-id-1-1)" fill="none" stroke="#1e1e4e" stroke-width="2" d="M220.101,58.101 A14,14 0 0 1 230,54 h151 a14,14 0 0 1 14,14 v60 a14,14 0 0 1 -14,14 h-151 a14,14 0 0 1 -14,-14 v-60 A14,14 0 0 1 220.101,58.101"/><mask id="satori_om-id-1-1-0"><rect x="273" y="75" width="65" height="28" fill="#fff"/></mask><g  ><path fill="#00e5ff" d="M278.8 78.6L283.2 78.6L283.2 99L279.1 99L279.1 82.3L278.9 82.3L274.3 85.6L274.3 81.8L278.8 78.6ZM293.7 99.3L293.7 99.3Q291.6 99.3 289.9 98.5Q288.3 97.7 287.3 96.4Q286.4 95.0 286.3 93.3L286.3 93.3L290.4 93.3Q290.5 94.1 290.9 94.7Q291.3 95.3 292.1 95.6Q292.8 96.0 293.7 96.0L293.7 96.0Q294.7 96.0 295.5 95.5Q296.3 95.0 296.7 94.2Q297.2 93.4 297.2 92.3L297.2 92.3Q297.2 91.2 296.7 90.4Q296.2 89.6 295.4 89.1Q294.6 88.6 293.6 88.6L293.6 88.6Q292.7 88.6 291.8 89.0Q291.0 89.4 290.5 90.0L290.5 90.0L286.8 89.3L287.8 78.6L300.1 78.6L300.1 82.1L291.2 82.1L290.7 87.2L290.8 87.2Q291.3 86.5 292.4 86.0Q293.5 85.5 294.8 85.5L294.8 85.5Q296.2 85.5 297.4 86.0Q298.5 86.5 299.4 87.4Q300.2 88.3 300.7 89.5Q301.2 90.8 301.2 92.2L301.2 92.2Q301.2 94.3 300.3 95.9Q299.3 97.5 297.6 98.4Q295.9 99.3 293.7 99.3ZM313.6 95.4L303.9 95.4L303.9 92.1L312.4 78.6L317.6 78.6L317.6 92.0L320.2 92.0L320.2 95.4L317.6 95.4L317.6 99L313.6 99L313.6 95.4ZM308.1 92.0L313.7 92.0L313.7 83.2L313.5 83.2L308.1 91.8L308.1 92.0ZM328.2 99L323.8 99L332.3 82.2L332.3 82.1L322.5 82.1L322.5 78.6L336.7 78.6L336.7 82.1L328.2 99Z "/></g><mask id="satori_om-id-1-1-1"><rect x="278" y="111" width="55" height="11" fill="#fff"/></mask><g  ><path fill="#44448a" d="M281.4 120.1L281.4 120.1Q280.6 120.1 279.9 119.7Q279.3 119.3 278.9 118.5Q278.5 117.8 278.5 116.7L278.5 116.7Q278.5 115.7 278.9 114.9Q279.3 114.2 279.9 113.8Q280.6 113.4 281.4 113.4L281.4 113.4Q281.9 113.4 282.4 113.5Q282.8 113.7 283.2 113.9Q283.5 114.2 283.8 114.6Q284.0 115.0 284.1 115.5L284.1 115.5L283.2 115.5Q283.2 115.2 283.0 114.9Q282.8 114.7 282.6 114.5Q282.4 114.3 282.1 114.2Q281.8 114.1 281.4 114.1L281.4 114.1Q280.9 114.1 280.4 114.4Q279.9 114.7 279.6 115.3Q279.3 115.9 279.3 116.7L279.3 116.7Q279.3 117.6 279.6 118.1Q279.9 118.7 280.4 119.0Q280.9 119.3 281.4 119.3L281.4 119.3Q281.8 119.3 282.1 119.2Q282.4 119.1 282.6 119.0Q282.8 118.8 283.0 118.5Q283.2 118.3 283.2 117.9L283.2 117.9L284.1 117.9Q284.0 118.4 283.8 118.8Q283.5 119.2 283.2 119.5Q282.8 119.8 282.4 119.9Q281.9 120.1 281.4 120.1ZM289.5 120.1L289.5 120.1Q288.7 120.1 288.0 119.7Q287.4 119.3 287.0 118.5Q286.6 117.8 286.6 116.7L286.6 116.7Q286.6 115.7 287.0 114.9Q287.4 114.2 288.0 113.8Q288.7 113.4 289.5 113.4L289.5 113.4Q290.4 113.4 291.0 113.8Q291.7 114.2 292.0 114.9Q292.4 115.7 292.4 116.7L292.4 116.7Q292.4 117.8 292.0 118.5Q291.7 119.3 291.0 119.7Q290.4 120.1 289.5 120.1ZM289.5 119.3L289.5 119.3Q290.1 119.3 290.6 119.0Q291.0 118.7 291.3 118.1Q291.6 117.6 291.6 116.7L291.6 116.7Q291.6 115.9 291.3 115.3Q291.0 114.7 290.6 114.4Q290.1 114.1 289.5 114.1L289.5 114.1Q288.9 114.1 288.5 114.4Q288.0 114.7 287.7 115.3Q287.4 115.9 287.4 116.7L287.4 116.7Q287.4 117.6 287.7 118.1Q288.0 118.7 288.5 119.0Q288.9 119.3 289.5 119.3ZM296.0 120L295.2 120L295.2 113.5L296.4 113.5L298.0 117.6Q298.1 117.7 298.2 117.9Q298.2 118.2 298.3 118.4Q298.4 118.7 298.5 118.9L298.5 118.9Q298.5 119.0 298.5 119.1L298.5 119.1Q298.5 119.0 298.6 118.9L298.6 118.9Q298.6 118.7 298.7 118.4Q298.8 118.2 298.9 118.0Q299.0 117.7 299.0 117.6L299.0 117.6L300.6 113.5L301.8 113.5L301.8 120L301.0 120L301.0 116.3Q301.0 116.1 301.0 115.8Q301.0 115.5 301.0 115.3Q301.0 115.0 301.0 114.7L301.0 114.7Q301.0 114.5 301.0 114.3L301.0 114.3Q300.9 114.5 300.9 114.7L300.9 114.7Q300.8 115.0 300.7 115.3Q300.6 115.6 300.5 115.9Q300.4 116.1 300.3 116.3L300.3 116.3L298.9 120L298.2 120L296.7 116.3Q296.6 116.1 296.5 115.9Q296.4 115.6 296.3 115.3Q296.2 115.1 296.1 114.7L296.1 114.7Q296.1 114.6 296.0 114.4L296.0 114.4Q296.0 114.5 296.0 114.6L296.0 114.6Q296.0 114.9 296.0 115.2Q296.0 115.5 296.0 115.8Q296.0 116.0 296.0 116.3L296.0 116.3L296.0 120ZM305.7 120L304.9 120L304.9 113.5L306.1 113.5L307.7 117.6Q307.7 117.7 307.8 117.9Q307.9 118.2 308.0 118.4Q308.0 118.7 308.1 118.9L308.1 118.9Q308.1 119.0 308.2 119.1L308.2 119.1Q308.2 119.0 308.2 118.9L308.2 118.9Q308.3 118.7 308.4 118.4Q308.4 118.2 308.5 118.0Q308.6 117.7 308.6 117.6L308.6 117.6L310.2 113.5L311.4 113.5L311.4 120L310.6 120L310.6 116.3Q310.6 116.1 310.6 115.8Q310.6 115.5 310.6 115.3Q310.6 115.0 310.6 114.7L310.6 114.7Q310.6 114.5 310.6 114.3L310.6 114.3Q310.6 114.5 310.5 114.7L310.5 114.7Q310.4 115.0 310.3 115.3Q310.2 115.6 310.1 115.9Q310.0 116.1 310.0 116.3L310.0 116.3L308.5 120L307.8 120L306.3 116.3Q306.2 116.1 306.2 115.9Q306.1 115.6 306.0 115.3Q305.9 115.1 305.8 114.7L305.8 114.7Q305.7 114.6 305.6 114.4L305.6 114.4Q305.6 114.5 305.7 114.6L305.7 114.6Q305.7 114.9 305.7 115.2Q305.7 115.5 305.7 115.8Q305.7 116.0 305.7 116.3L305.7 116.3L305.7 120ZM314.5 113.5L315.3 113.5L315.3 120L314.5 120L314.5 113.5ZM320.1 114.2L318.1 114.2L318.1 113.5L323.0 113.5L323.0 114.2L321.0 114.2L321.0 120L320.1 120L320.1 114.2ZM327.8 120.1L327.8 120.1Q327.1 120.1 326.6 119.9Q326.1 119.7 325.8 119.2Q325.5 118.8 325.5 118.3L325.5 118.3L326.3 118.3Q326.3 118.7 326.6 118.9Q326.8 119.1 327.1 119.3Q327.4 119.4 327.8 119.4L327.8 119.4Q328.3 119.4 328.6 119.2Q329.0 119.1 329.2 118.8Q329.4 118.5 329.4 118.2L329.4 118.2Q329.4 117.9 329.2 117.7Q329.0 117.5 328.7 117.4Q328.4 117.2 328.1 117.1L328.1 117.1L327.3 116.9Q326.5 116.7 326.1 116.3Q325.6 115.9 325.6 115.2L325.6 115.2Q325.6 114.7 325.9 114.2Q326.2 113.8 326.7 113.6Q327.3 113.4 327.9 113.4L327.9 113.4Q328.5 113.4 329.0 113.6Q329.5 113.8 329.8 114.2Q330.1 114.6 330.1 115.1L330.1 115.1L329.3 115.1Q329.2 114.6 328.8 114.4Q328.4 114.1 327.9 114.1L327.9 114.1Q327.4 114.1 327.1 114.2Q326.8 114.4 326.6 114.6Q326.4 114.9 326.4 115.2L326.4 115.2Q326.4 115.5 326.7 115.7Q326.9 115.9 327.2 116.0Q327.5 116.2 327.7 116.2L327.7 116.2L328.4 116.4Q328.6 116.5 328.9 116.6Q329.3 116.7 329.5 116.9Q329.8 117.1 330.0 117.4Q330.2 117.8 330.2 118.2L330.2 118.2Q330.2 118.8 329.9 119.2Q329.6 119.6 329.1 119.9Q328.6 120.1 327.8 120.1Z "/></g><defs><clipPath id="satori_bc-id-1-2"><path x="405" y="54" width="179" height="88" d="M419,54 h151 a14,14 0 0 1 14,14 v60 a14,14 0 0 1 -14,14 h-151 a14,14 0 0 1 -14,-14 v-60 a14,14 0 0 1 14,-14"/></clipPath></defs><mask id="satori_ms-id-1-2-0" maskUnits="userSpaceOnUse"><rect x="0" y="0" width="800" height="190" fill="#fff"/><path x="405" y="54" width="179" height="88" fill="#000"  stroke-width="0" d="M419,54 h151 a14,14 0 0 1 14,14 v60 a14,14 0 0 1 -14,14 h-151 a14,14 0 0 1 -14,-14 v-60 a14,14 0 0 1 14,-14"/></mask><defs><filter id="satori_s-id-1-2-0" x="-67.59776536312849%" y="-137.5%" width="235.19553072625698%" height="375%"><feGaussianBlur stdDeviation="11" result="b"/><feFlood flood-color="rgba(167,139,250,0.35)" in="SourceGraphic" result="f"/><feComposite in="f" in2="b" operator="in"/></filter></defs><g mask="url(#satori_ms-id-1-2-0)" filter="url(#satori_s-id-1-2-0)" opacity="1"><path x="405" y="54" width="179" height="88" fill="#fff" stroke="#fff" stroke-width="0" d="M419,54 h151 a14,14 0 0 1 14,14 v60 a14,14 0 0 1 -14,14 h-151 a14,14 0 0 1 -14,-14 v-60 a14,14 0 0 1 14,-14"/></g><mask id="satori_om-id-1-2"><rect x="406" y="55" width="177" height="86" fill="#fff"/><path width="179" height="88" fill="none" stroke="#000" stroke-width="2" d="M409.101,58.101 A14,14 0 0 1 419,54 h151 a14,14 0 0 1 14,14 v60 a14,14 0 0 1 -14,14 h-151 a14,14 0 0 1 -14,-14 v-60 A14,14 0 0 1 409.101,58.101"/></mask><path x="405" y="54" width="179" height="88" fill="#0a0a22" d="M419,54 h151 a14,14 0 0 1 14,14 v60 a14,14 0 0 1 -14,14 h-151 a14,14 0 0 1 -14,-14 v-60 a14,14 0 0 1 14,-14"/><path width="179" height="88" clip-path="url(#satori_bc-id-1-2)" fill="none" stroke="#1e1e4e" stroke-width="2" d="M409.101,58.101 A14,14 0 0 1 419,54 h151 a14,14 0 0 1 14,14 v60 a14,14 0 0 1 -14,14 h-151 a14,14 0 0 1 -14,-14 v-60 A14,14 0 0 1 409.101,58.101"/><mask id="satori_om-id-1-2-0"><rect x="477" y="75" width="36" height="28" fill="#fff"/></mask><g  ><path fill="#a78bfa" d="M493.1 99L478.7 99L478.7 96.0L485.9 89.2Q486.8 88.3 487.5 87.6Q488.1 86.9 488.5 86.2Q488.8 85.5 488.8 84.6L488.8 84.6Q488.8 83.7 488.4 83.1Q488.0 82.4 487.3 82.0Q486.5 81.7 485.6 81.7L485.6 81.7Q484.7 81.7 484.0 82.1Q483.3 82.5 482.9 83.2Q482.5 83.9 482.5 84.9L482.5 84.9L478.5 84.9Q478.5 82.9 479.4 81.4Q480.3 80.0 481.9 79.2Q483.5 78.4 485.7 78.4L485.7 78.4Q487.8 78.4 489.4 79.1Q491.0 79.9 491.9 81.3Q492.8 82.6 492.8 84.4L492.8 84.4Q492.8 85.5 492.4 86.6Q491.9 87.7 490.8 89.1Q489.7 90.5 487.6 92.4L487.6 92.4L484.5 95.4L484.5 95.6L493.1 95.6L493.1 99ZM503.2 99.3L503.2 99.3Q501.1 99.3 499.5 98.5Q497.9 97.7 496.9 96.4Q496.0 95.0 495.9 93.3L495.9 93.3L500.0 93.3Q500.0 94.1 500.5 94.7Q500.9 95.3 501.6 95.6Q502.4 96.0 503.2 96.0L503.2 96.0Q504.2 96.0 505.0 95.5Q505.8 95.0 506.3 94.2Q506.7 93.4 506.7 92.3L506.7 92.3Q506.7 91.2 506.3 90.4Q505.8 89.6 505.0 89.1Q504.2 88.6 503.2 88.6L503.2 88.6Q502.2 88.6 501.4 89.0Q500.6 89.4 500.1 90.0L500.1 90.0L496.3 89.3L497.3 78.6L509.6 78.6L509.6 82.1L500.8 82.1L500.3 87.2L500.4 87.2Q500.9 86.5 502.0 86.0Q503.1 85.5 504.4 85.5L504.4 85.5Q505.8 85.5 506.9 86.0Q508.1 86.5 509.0 87.4Q509.8 88.3 510.3 89.5Q510.8 90.8 510.8 92.2L510.8 92.2Q510.8 94.3 509.8 95.9Q508.9 97.5 507.2 98.4Q505.5 99.3 503.2 99.3Z "/></g><mask id="satori_om-id-1-2-1"><rect x="476" y="111" width="38" height="11" fill="#fff"/></mask><g  ><path fill="#44448a" d="M477.6 120L476.8 120L476.8 113.5L479.0 113.5Q479.8 113.5 480.3 113.7Q480.8 114.0 481.0 114.4Q481.3 114.9 481.3 115.5Q481.3 116.1 481.0 116.5Q480.8 117.0 480.3 117.2L480.3 117.2Q480.2 117.3 480.1 117.3L480.1 117.3L481.5 120L480.6 120L479.2 117.5Q479.1 117.5 479.0 117.5L479.0 117.5L477.6 117.5L477.6 120ZM477.6 114.2L477.6 116.7L479.0 116.7Q479.5 116.7 479.8 116.6Q480.1 116.4 480.3 116.1Q480.4 115.9 480.4 115.5L480.4 115.5Q480.4 115.1 480.3 114.8Q480.1 114.5 479.8 114.3Q479.5 114.2 479.0 114.2L479.0 114.2L477.6 114.2ZM488.1 120L484.1 120L484.1 113.5L488.1 113.5L488.1 114.2L484.9 114.2L484.9 116.3L487.9 116.3L487.9 117.1L484.9 117.1L484.9 119.3L488.1 119.3L488.1 120ZM491.8 120L491.0 120L491.0 113.5L493.2 113.5Q494.0 113.5 494.5 113.7Q495.0 114.0 495.2 114.5Q495.5 115.0 495.5 115.5Q495.5 116.1 495.2 116.6Q495.0 117.1 494.5 117.4Q494.0 117.6 493.2 117.6L493.2 117.6L491.8 117.6L491.8 120ZM491.8 114.2L491.8 116.9L493.2 116.9Q493.7 116.9 494.0 116.7Q494.4 116.5 494.5 116.2Q494.6 115.9 494.6 115.5Q494.6 115.1 494.5 114.8Q494.4 114.5 494.0 114.4Q493.7 114.2 493.2 114.2L493.2 114.2L491.8 114.2ZM500.9 120.1L500.9 120.1Q500.1 120.1 499.4 119.7Q498.7 119.3 498.4 118.5Q498.0 117.8 498.0 116.7L498.0 116.7Q498.0 115.7 498.4 114.9Q498.7 114.2 499.4 113.8Q500.1 113.4 500.9 113.4L500.9 113.4Q501.7 113.4 502.4 113.8Q503.0 114.2 503.4 114.9Q503.8 115.7 503.8 116.7L503.8 116.7Q503.8 117.8 503.4 118.5Q503.0 119.3 502.4 119.7Q501.7 120.1 500.9 120.1ZM500.9 119.3L500.9 119.3Q501.5 119.3 502.0 119.0Q502.4 118.7 502.7 118.1Q503.0 117.6 503.0 116.7L503.0 116.7Q503.0 115.9 502.7 115.3Q502.4 114.7 502.0 114.4Q501.5 114.1 500.9 114.1L500.9 114.1Q500.3 114.1 499.8 114.4Q499.4 114.7 499.1 115.3Q498.8 115.9 498.8 116.7L498.8 116.7Q498.8 117.6 499.1 118.1Q499.4 118.7 499.8 119.0Q500.3 119.3 500.9 119.3ZM508.7 120.1L508.7 120.1Q508.0 120.1 507.5 119.9Q507.0 119.7 506.7 119.2Q506.4 118.8 506.3 118.3L506.3 118.3L507.2 118.3Q507.2 118.7 507.4 118.9Q507.7 119.1 508.0 119.3Q508.3 119.4 508.7 119.4L508.7 119.4Q509.2 119.4 509.5 119.2Q509.9 119.1 510.1 118.8Q510.3 118.5 510.3 118.2L510.3 118.2Q510.3 117.9 510.1 117.7Q509.9 117.5 509.6 117.4Q509.3 117.2 509.0 117.1L509.0 117.1L508.2 116.9Q507.4 116.7 507.0 116.3Q506.5 115.9 506.5 115.2L506.5 115.2Q506.5 114.7 506.8 114.2Q507.1 113.8 507.6 113.6Q508.1 113.4 508.8 113.4L508.8 113.4Q509.4 113.4 509.9 113.6Q510.4 113.8 510.7 114.2Q511.0 114.6 511.0 115.1L511.0 115.1L510.2 115.1Q510.1 114.6 509.7 114.4Q509.3 114.1 508.7 114.1L508.7 114.1Q508.3 114.1 508.0 114.2Q507.7 114.4 507.5 114.6Q507.3 114.9 507.3 115.2L507.3 115.2Q507.3 115.5 507.6 115.7Q507.8 115.9 508.1 116.0Q508.3 116.2 508.6 116.2L508.6 116.2L509.2 116.4Q509.5 116.5 509.8 116.6Q510.1 116.7 510.4 116.9Q510.7 117.1 510.9 117.4Q511.1 117.8 511.1 118.2L511.1 118.2Q511.1 118.8 510.8 119.2Q510.5 119.6 510.0 119.9Q509.5 120.1 508.7 120.1Z "/></g><defs><clipPath id="satori_bc-id-1-3"><path x="594" y="54" width="179" height="88" d="M608,54 h151 a14,14 0 0 1 14,14 v60 a14,14 0 0 1 -14,14 h-151 a14,14 0 0 1 -14,-14 v-60 a14,14 0 0 1 14,-14"/></clipPath></defs><mask id="satori_ms-id-1-3-0" maskUnits="userSpaceOnUse"><rect x="0" y="0" width="800" height="190" fill="#fff"/><path x="594" y="54" width="179" height="88" fill="#000"  stroke-width="0" d="M608,54 h151 a14,14 0 0 1 14,14 v60 a14,14 0 0 1 -14,14 h-151 a14,14 0 0 1 -14,-14 v-60 a14,14 0 0 1 14,-14"/></mask><defs><filter id="satori_s-id-1-3-0" x="-67.59776536312849%" y="-137.5%" width="235.19553072625698%" height="375%"><feGaussianBlur stdDeviation="11" result="b"/><feFlood flood-color="rgba(244,114,182,0.35)" in="SourceGraphic" result="f"/><feComposite in="f" in2="b" operator="in"/></filter></defs><g mask="url(#satori_ms-id-1-3-0)" filter="url(#satori_s-id-1-3-0)" opacity="1"><path x="594" y="54" width="179" height="88" fill="#fff" stroke="#fff" stroke-width="0" d="M608,54 h151 a14,14 0 0 1 14,14 v60 a14,14 0 0 1 -14,14 h-151 a14,14 0 0 1 -14,-14 v-60 a14,14 0 0 1 14,-14"/></g><mask id="satori_om-id-1-3"><rect x="595" y="55" width="177" height="86" fill="#fff"/><path width="179" height="88" fill="none" stroke="#000" stroke-width="2" d="M598.101,58.101 A14,14 0 0 1 608,54 h151 a14,14 0 0 1 14,14 v60 a14,14 0 0 1 -14,14 h-151 a14,14 0 0 1 -14,-14 v-60 A14,14 0 0 1 598.101,58.101"/></mask><path x="594" y="54" width="179" height="88" fill="#0a0a22" d="M608,54 h151 a14,14 0 0 1 14,14 v60 a14,14 0 0 1 -14,14 h-151 a14,14 0 0 1 -14,-14 v-60 a14,14 0 0 1 14,-14"/><path width="179" height="88" clip-path="url(#satori_bc-id-1-3)" fill="none" stroke="#1e1e4e" stroke-width="2" d="M598.101,58.101 A14,14 0 0 1 608,54 h151 a14,14 0 0 1 14,14 v60 a14,14 0 0 1 -14,14 h-151 a14,14 0 0 1 -14,-14 v-60 A14,14 0 0 1 598.101,58.101"/><mask id="satori_om-id-1-3-0"><rect x="665" y="75" width="38" height="28" fill="#fff"/></mask><g  ><path fill="#f472b6" d="M674.0 99.3L674.0 99.3Q671.8 99.3 670.1 98.5Q668.4 97.8 667.4 96.4Q666.4 95.0 666.4 93.3L666.4 93.3L670.6 93.3Q670.6 94.1 671.0 94.6Q671.5 95.2 672.3 95.5Q673.1 95.8 674.0 95.8L674.0 95.8Q675.0 95.8 675.8 95.5Q676.6 95.1 677.0 94.5Q677.4 93.9 677.4 93.0L677.4 93.0Q677.4 92.2 677.0 91.5Q676.5 90.9 675.7 90.5Q674.8 90.2 673.6 90.2L673.6 90.2L671.8 90.2L671.8 87.1L673.6 87.1Q674.6 87.1 675.4 86.7Q676.1 86.4 676.6 85.8Q677.0 85.2 677.0 84.3L677.0 84.3Q677.0 83.5 676.6 82.9Q676.3 82.4 675.6 82.0Q674.9 81.7 674.1 81.7L674.1 81.7Q673.2 81.7 672.4 82.0Q671.7 82.3 671.2 82.9Q670.8 83.5 670.8 84.3L670.8 84.3L666.8 84.3Q666.8 82.5 667.7 81.2Q668.7 79.9 670.4 79.1Q672.0 78.4 674.1 78.4L674.1 78.4Q676.2 78.4 677.7 79.1Q679.3 79.9 680.2 81.2Q681.1 82.5 681.1 84.1L681.1 84.1Q681.1 85.8 680.0 86.9Q678.9 88.1 677.2 88.4L677.2 88.4L677.2 88.6Q678.7 88.7 679.7 89.4Q680.8 90.0 681.3 91.0Q681.8 92.0 681.8 93.3L681.8 93.3Q681.8 95.0 680.8 96.4Q679.8 97.7 678.0 98.5Q676.3 99.3 674.0 99.3ZM694.2 95.4L684.5 95.4L684.5 92.1L693.0 78.6L698.2 78.6L698.2 92.0L700.8 92.0L700.8 95.4L698.2 95.4L698.2 99L694.2 99L694.2 95.4ZM688.7 92.0L694.3 92.0L694.3 83.2L694.1 83.2L688.7 91.8L688.7 92.0Z "/></g><mask id="satori_om-id-1-3-1"><rect x="665" y="111" width="38" height="11" fill="#fff"/></mask><g  ><path fill="#44448a" d="M666.6 120L665.8 120L665.8 113.5L669.8 113.5L669.8 114.2L666.6 114.2L666.6 116.4L669.5 116.4L669.5 117.2L666.6 117.2L666.6 120ZM675.3 120.1L675.3 120.1Q674.4 120.1 673.8 119.7Q673.1 119.3 672.7 118.5Q672.3 117.8 672.3 116.7L672.3 116.7Q672.3 115.7 672.7 114.9Q673.1 114.2 673.8 113.8Q674.4 113.4 675.3 113.4L675.3 113.4Q676.1 113.4 676.8 113.8Q677.4 114.2 677.8 114.9Q678.2 115.7 678.2 116.7L678.2 116.7Q678.2 117.8 677.8 118.5Q677.4 119.3 676.8 119.7Q676.1 120.1 675.3 120.1ZM675.3 119.3L675.3 119.3Q675.8 119.3 676.3 119.0Q676.8 118.7 677.1 118.1Q677.3 117.6 677.3 116.7L677.3 116.7Q677.3 115.9 677.1 115.3Q676.8 114.7 676.3 114.4Q675.8 114.1 675.3 114.1L675.3 114.1Q674.7 114.1 674.2 114.4Q673.7 114.7 673.4 115.3Q673.2 115.9 673.2 116.7L673.2 116.7Q673.2 117.6 673.4 118.1Q673.7 118.7 674.2 119.0Q674.7 119.3 675.3 119.3ZM681.8 120L681.0 120L681.0 113.5L683.2 113.5Q684.0 113.5 684.5 113.7Q685.0 114.0 685.2 114.4Q685.5 114.9 685.5 115.5Q685.5 116.1 685.2 116.5Q685.0 117.0 684.5 117.2L684.5 117.2Q684.4 117.3 684.2 117.3L684.2 117.3L685.7 120L684.7 120L683.4 117.5Q683.3 117.5 683.2 117.5L683.2 117.5L681.8 117.5L681.8 120ZM681.8 114.2L681.8 116.7L683.2 116.7Q683.7 116.7 684.0 116.6Q684.3 116.4 684.5 116.1Q684.6 115.9 684.6 115.5L684.6 115.5Q684.6 115.1 684.5 114.8Q684.3 114.5 684.0 114.3Q683.7 114.2 683.2 114.2L683.2 114.2L681.8 114.2ZM689.1 120L688.3 120L688.3 113.5L689.1 113.5L689.1 115.7L689.1 116.9Q689.2 116.8 689.3 116.6L689.3 116.6Q689.5 116.4 689.8 116.1Q690.0 115.8 690.2 115.6L690.2 115.6L692.2 113.5L693.3 113.5L690.6 116.3L693.3 120L692.3 120L690.1 116.9L689.1 117.9L689.1 120ZM697.9 120.1L697.9 120.1Q697.2 120.1 696.7 119.9Q696.2 119.7 695.9 119.2Q695.6 118.8 695.5 118.3L695.5 118.3L696.4 118.3Q696.4 118.7 696.7 118.9Q696.9 119.1 697.2 119.3Q697.5 119.4 697.9 119.4L697.9 119.4Q698.4 119.4 698.7 119.2Q699.1 119.1 699.3 118.8Q699.5 118.5 699.5 118.2L699.5 118.2Q699.5 117.9 699.3 117.7Q699.1 117.5 698.8 117.4Q698.5 117.2 698.2 117.1L698.2 117.1L697.4 116.9Q696.6 116.7 696.2 116.3Q695.7 115.9 695.7 115.2L695.7 115.2Q695.7 114.7 696.0 114.2Q696.3 113.8 696.8 113.6Q697.3 113.4 698.0 113.4L698.0 113.4Q698.6 113.4 699.1 113.6Q699.6 113.8 699.9 114.2Q700.2 114.6 700.2 115.1L700.2 115.1L699.4 115.1Q699.3 114.6 698.9 114.4Q698.5 114.1 698.0 114.1L698.0 114.1Q697.5 114.1 697.2 114.2Q696.9 114.4 696.7 114.6Q696.5 114.9 696.5 115.2L696.5 115.2Q696.5 115.5 696.8 115.7Q697.0 115.9 697.3 116.0Q697.6 116.2 697.8 116.2L697.8 116.2L698.4 116.4Q698.7 116.5 699.0 116.6Q699.3 116.7 699.6 116.9Q699.9 117.1 700.1 117.4Q700.3 117.8 700.3 118.2L700.3 118.2Q700.3 118.8 700.0 119.2Q699.7 119.6 699.2 119.9Q698.7 120.1 697.9 120.1Z "/></g><mask id="satori_om-id-2"><rect x="27" y="156" width="746" height="11" fill="#fff"/></mask><mask id="satori_om-id-2-0"><rect x="27" y="156" width="57" height="11" fill="#fff"/></mask><mask id="satori_om-id-2-0-0"><rect x="27" y="159" width="6" height="6" fill="#fff"/></mask><path x="27" y="159" width="6" height="6" fill="#3178c6" d="M30,159 h0 a3,3 0 0 1 3,3 v0 a3,3 0 0 1 -3,3 h0 a3,3 0 0 1 -3,-3 v0 a3,3 0 0 1 3,-3"/><mask id="satori_om-id-2-0-1"><rect x="37" y="156" width="47" height="11" fill="#fff"/></mask><g  ><path fill="#44448a" d="M39.5 159.2L37.4 159.2L37.4 158.5L42.4 158.5L42.4 159.2L40.3 159.2L40.3 165L39.5 165L39.5 159.2ZM43.4 166.8L43.4 166.8L43.6 166.1L43.7 166.1Q44.0 166.2 44.1 166.1Q44.3 166.1 44.5 166.0Q44.7 165.8 44.8 165.4L44.8 165.4L44.9 165.0L43.0 160.1L43.9 160.1L45.0 163.0Q45.1 163.5 45.2 163.9L45.2 163.9Q45.3 164.1 45.3 164.3L45.3 164.3Q45.4 164.1 45.4 163.9L45.4 163.9Q45.6 163.5 45.7 163.0L45.7 163.0L46.8 160.1L47.6 160.1L45.5 165.7Q45.3 166.1 45.1 166.4Q44.9 166.6 44.6 166.8Q44.4 166.9 44.0 166.9L44.0 166.9Q43.8 166.9 43.6 166.8Q43.5 166.8 43.4 166.8ZM49.4 166.8L48.6 166.8L48.6 160.1L49.3 160.1L49.3 160.9L49.4 160.9Q49.5 160.7 49.6 160.5Q49.8 160.3 50.1 160.2Q50.4 160.0 50.8 160.0L50.8 160.0Q51.5 160.0 51.9 160.3Q52.4 160.6 52.7 161.2Q52.9 161.8 52.9 162.6L52.9 162.6Q52.9 163.3 52.7 163.9Q52.4 164.5 51.9 164.8Q51.5 165.1 50.8 165.1L50.8 165.1Q50.4 165.1 50.1 164.9Q49.8 164.8 49.7 164.6Q49.5 164.4 49.4 164.2L49.4 164.2L49.4 164.2L49.4 166.8ZM50.7 164.4L50.7 164.4Q51.2 164.4 51.5 164.1Q51.8 163.9 52.0 163.5Q52.1 163.1 52.1 162.5L52.1 162.5Q52.1 162.0 52.0 161.6Q51.8 161.2 51.5 161.0Q51.2 160.7 50.7 160.7L50.7 160.7Q50.3 160.7 50.0 161.0Q49.7 161.2 49.5 161.6Q49.3 162.0 49.3 162.5L49.3 162.5Q49.3 163.1 49.5 163.5Q49.7 163.9 50.0 164.2Q50.3 164.4 50.7 164.4ZM56.1 165.1L56.1 165.1Q55.4 165.1 54.9 164.8Q54.4 164.5 54.1 163.9Q53.8 163.3 53.8 162.6Q53.8 161.8 54.1 161.3Q54.4 160.7 54.9 160.4Q55.4 160.0 56.0 160.0L56.0 160.0Q56.4 160.0 56.8 160.2Q57.2 160.3 57.5 160.6Q57.8 160.9 58.0 161.3Q58.2 161.8 58.2 162.5L58.2 162.5L58.2 162.8L54.6 162.8Q54.7 163.3 54.8 163.6L54.8 163.6Q55.0 164.0 55.4 164.2Q55.7 164.4 56.1 164.4L56.1 164.4Q56.4 164.4 56.7 164.3Q56.9 164.2 57.1 164.1Q57.3 163.9 57.3 163.6L57.3 163.6L58.1 163.9Q58.0 164.2 57.7 164.5Q57.4 164.8 57.0 164.9Q56.6 165.1 56.1 165.1ZM54.6 162.1L54.6 162.1L57.4 162.1Q57.4 161.8 57.2 161.5L57.2 161.5Q57.1 161.2 56.8 160.9Q56.5 160.7 56.0 160.7Q55.6 160.7 55.3 160.9Q55.0 161.2 54.8 161.5L54.8 161.5Q54.7 161.8 54.6 162.1ZM61.5 165.1L61.5 165.1Q60.8 165.1 60.3 164.9Q59.8 164.7 59.5 164.2Q59.2 163.8 59.1 163.3L59.1 163.3L60.0 163.3Q60.0 163.7 60.2 163.9Q60.5 164.1 60.8 164.3Q61.1 164.4 61.5 164.4L61.5 164.4Q62.0 164.4 62.3 164.2Q62.7 164.1 62.9 163.8Q63.1 163.5 63.1 163.2L63.1 163.2Q63.1 162.9 62.9 162.7Q62.7 162.5 62.4 162.4Q62.1 162.2 61.8 162.1L61.8 162.1L61.0 161.9Q60.2 161.7 59.8 161.3Q59.3 160.9 59.3 160.2L59.3 160.2Q59.3 159.7 59.6 159.2Q59.9 158.8 60.4 158.6Q60.9 158.4 61.6 158.4L61.6 158.4Q62.2 158.4 62.7 158.6Q63.2 158.8 63.5 159.2Q63.8 159.6 63.8 160.1L63.8 160.1L63.0 160.1Q62.9 159.6 62.5 159.4Q62.1 159.1 61.5 159.1L61.5 159.1Q61.1 159.1 60.8 159.2Q60.5 159.4 60.3 159.6Q60.1 159.9 60.1 160.2L60.1 160.2Q60.1 160.5 60.3 160.7Q60.6 160.9 60.9 161.0Q61.1 161.2 61.4 161.2L61.4 161.2L62.0 161.4Q62.3 161.5 62.6 161.6Q62.9 161.7 63.2 161.9Q63.5 162.1 63.7 162.4Q63.9 162.8 63.9 163.2L63.9 163.2Q63.9 163.8 63.6 164.2Q63.3 164.6 62.8 164.9Q62.3 165.1 61.5 165.1ZM67.1 165.1L67.1 165.1Q66.4 165.1 65.9 164.8Q65.4 164.5 65.1 163.9Q64.9 163.3 64.9 162.6L64.9 162.6Q64.9 161.8 65.1 161.2Q65.4 160.7 65.9 160.3Q66.4 160.0 67.1 160.0L67.1 160.0Q67.4 160.0 67.8 160.1Q68.1 160.2 68.3 160.4Q68.6 160.6 68.8 160.8Q69.0 161.1 69.1 161.4L69.1 161.4L68.3 161.6Q68.3 161.4 68.2 161.3Q68.1 161.1 67.9 161.0Q67.7 160.9 67.5 160.8Q67.3 160.7 67.1 160.7L67.1 160.7Q66.6 160.7 66.3 161.0Q66.0 161.2 65.8 161.7Q65.7 162.1 65.7 162.6L65.7 162.6Q65.7 163.1 65.8 163.5Q66.0 163.9 66.3 164.1Q66.6 164.4 67.1 164.4L67.1 164.4Q67.3 164.4 67.5 164.3Q67.8 164.3 67.9 164.1Q68.1 164.0 68.2 163.9Q68.3 163.7 68.3 163.5L68.3 163.5L69.1 163.7Q69.0 164.0 68.8 164.3Q68.6 164.6 68.4 164.7Q68.1 164.9 67.8 165.0Q67.5 165.1 67.1 165.1ZM71.0 165L70.2 165L70.2 160.1L71.0 160.1L71.0 160.8L71.1 160.8Q71.2 160.5 71.5 160.2Q71.9 160.0 72.3 160.0L72.3 160.0Q72.4 160.0 72.5 160.0Q72.7 160.0 72.7 160.0L72.7 160.0L72.7 160.8Q72.7 160.8 72.6 160.8Q72.4 160.8 72.3 160.8L72.3 160.8Q71.9 160.8 71.6 160.9Q71.3 161.1 71.2 161.3Q71.0 161.6 71.0 161.9L71.0 161.9L71.0 165ZM74.4 165L73.6 165L73.6 160.1L74.4 160.1L74.4 165ZM74.0 159.3L74.0 159.3Q73.8 159.3 73.6 159.1Q73.5 159.0 73.5 158.8L73.5 158.8Q73.5 158.5 73.6 158.4Q73.8 158.2 74.0 158.2L74.0 158.2Q74.3 158.2 74.4 158.4Q74.6 158.5 74.6 158.8L74.6 158.8Q74.6 159.0 74.4 159.1Q74.3 159.3 74.0 159.3ZM76.6 166.8L75.8 166.8L75.8 160.1L76.6 160.1L76.6 160.9L76.7 160.9Q76.7 160.7 76.9 160.5Q77.0 160.3 77.3 160.2Q77.6 160.0 78.1 160.0L78.1 160.0Q78.7 160.0 79.2 160.3Q79.6 160.6 79.9 161.2Q80.2 161.8 80.2 162.6L80.2 162.6Q80.2 163.3 79.9 163.9Q79.6 164.5 79.2 164.8Q78.7 165.1 78.1 165.1L78.1 165.1Q77.6 165.1 77.3 164.9Q77.0 164.8 76.9 164.6Q76.7 164.4 76.7 164.2L76.7 164.2L76.6 164.2L76.6 166.8ZM78.0 164.4L78.0 164.4Q78.4 164.4 78.7 164.1Q79.0 163.9 79.2 163.5Q79.4 163.1 79.4 162.5L79.4 162.5Q79.4 162.0 79.2 161.6Q79.1 161.2 78.7 161.0Q78.4 160.7 78.0 160.7L78.0 160.7Q77.5 160.7 77.2 161.0Q76.9 161.2 76.7 161.6Q76.6 162.0 76.6 162.5L76.6 162.5Q76.6 163.1 76.7 163.5Q76.9 163.9 77.2 164.2Q77.5 164.4 78.0 164.4ZM82.2 160.1L83.2 160.1L83.2 160.8L82.2 160.8L82.2 163.7Q82.2 164.1 82.4 164.2Q82.5 164.4 82.8 164.4L82.8 164.4Q82.9 164.4 83.0 164.3Q83.1 164.3 83.2 164.3L83.2 164.3L83.4 165.0Q83.3 165.0 83.1 165.0Q82.9 165.1 82.8 165.1L82.8 165.1Q82.2 165.1 81.8 164.7Q81.4 164.4 81.4 163.8L81.4 163.8L81.4 160.8L80.7 160.8L80.7 160.1L81.4 160.1L81.4 158.9L82.2 158.9L82.2 160.1Z "/></g><mask id="satori_om-id-2-1"><rect x="96" y="156" width="56" height="11" fill="#fff"/></mask><mask id="satori_om-id-2-1-0"><rect x="96" y="159" width="6" height="6" fill="#fff"/></mask><path x="96" y="159" width="6" height="6" fill="#f1e05a" d="M99,159 h0 a3,3 0 0 1 3,3 v0 a3,3 0 0 1 -3,3 h0 a3,3 0 0 1 -3,-3 v0 a3,3 0 0 1 3,-3"/><mask id="satori_om-id-2-1-1"><rect x="106" y="156" width="46" height="11" fill="#fff"/></mask><g  ><path fill="#44448a" d="M108.4 165.1L108.4 165.1Q107.5 165.1 107.0 164.6Q106.4 164.1 106.4 163.1L106.4 163.1L106.4 162.8L107.3 162.8L107.3 163.1Q107.3 163.7 107.6 164.0Q107.9 164.4 108.4 164.4L108.4 164.4Q108.9 164.4 109.2 164.0Q109.5 163.7 109.5 163.1L109.5 163.1L109.5 158.5L110.3 158.5L110.3 163.1Q110.3 164.1 109.8 164.6Q109.3 165.1 108.4 165.1ZM113.2 165.1L113.2 165.1Q112.7 165.1 112.4 164.9Q112.0 164.8 111.8 164.4Q111.5 164.1 111.5 163.6L111.5 163.6Q111.5 163.2 111.7 162.9Q111.9 162.7 112.1 162.5Q112.4 162.4 112.8 162.3Q113.1 162.2 113.4 162.2L113.4 162.2Q113.9 162.1 114.2 162.1Q114.4 162.0 114.6 162.0Q114.7 161.9 114.7 161.7L114.7 161.7L114.7 161.7Q114.7 161.4 114.6 161.2Q114.5 160.9 114.2 160.8Q114.0 160.7 113.7 160.7L113.7 160.7Q113.3 160.7 113.1 160.8Q112.8 160.9 112.7 161.1Q112.5 161.3 112.4 161.4L112.4 161.4L111.7 161.2Q111.9 160.7 112.2 160.5Q112.5 160.2 112.9 160.1Q113.3 160.0 113.7 160.0L113.7 160.0Q113.9 160.0 114.2 160.1Q114.5 160.1 114.8 160.3Q115.1 160.5 115.3 160.8Q115.5 161.2 115.5 161.8L115.5 161.8L115.5 165L114.7 165L114.7 164.3L114.7 164.3Q114.6 164.5 114.4 164.7Q114.2 164.9 113.9 165.0Q113.6 165.1 113.2 165.1ZM113.3 164.4L113.3 164.4Q113.8 164.4 114.1 164.2Q114.4 164.1 114.5 163.8Q114.7 163.5 114.7 163.2L114.7 163.2L114.7 162.5Q114.7 162.6 114.5 162.6Q114.3 162.7 114.1 162.7Q113.9 162.8 113.7 162.8Q113.5 162.8 113.4 162.8L113.4 162.8Q113.1 162.9 112.9 162.9Q112.6 163.0 112.5 163.2Q112.3 163.4 112.3 163.6L112.3 163.6Q112.3 163.9 112.5 164.1Q112.6 164.2 112.8 164.3Q113.0 164.4 113.3 164.4ZM119.1 165L118.3 165L116.4 160.1L117.3 160.1L118.3 163.0Q118.5 163.5 118.6 163.9L118.6 163.9Q118.7 164.1 118.7 164.3L118.7 164.3Q118.8 164.1 118.8 163.9L118.8 163.9Q118.9 163.5 119.1 163.0L119.1 163.0L120.1 160.1L121.0 160.1L119.1 165ZM123.3 165.1L123.3 165.1Q122.9 165.1 122.5 164.9Q122.1 164.8 121.9 164.4Q121.6 164.1 121.6 163.6L121.6 163.6Q121.6 163.2 121.8 162.9Q122.0 162.7 122.3 162.5Q122.5 162.4 122.9 162.3Q123.2 162.2 123.6 162.2L123.6 162.2Q124.0 162.1 124.3 162.1Q124.5 162.0 124.7 162.0Q124.8 161.9 124.8 161.7L124.8 161.7L124.8 161.7Q124.8 161.4 124.7 161.2Q124.6 160.9 124.4 160.8Q124.1 160.7 123.8 160.7L123.8 160.7Q123.4 160.7 123.2 160.8Q122.9 160.9 122.8 161.1Q122.6 161.3 122.5 161.4L122.5 161.4L121.8 161.2Q122.0 160.7 122.3 160.5Q122.6 160.2 123.0 160.1Q123.4 160.0 123.8 160.0L123.8 160.0Q124.0 160.0 124.3 160.1Q124.6 160.1 124.9 160.3Q125.2 160.5 125.4 160.8Q125.6 161.2 125.6 161.8L125.6 161.8L125.6 165L124.8 165L124.8 164.3L124.8 164.3Q124.7 164.5 124.5 164.7Q124.3 164.9 124.0 165.0Q123.7 165.1 123.3 165.1ZM123.5 164.4L123.5 164.4Q123.9 164.4 124.2 164.2Q124.5 164.1 124.7 163.8Q124.8 163.5 124.8 163.2L124.8 163.2L124.8 162.5Q124.8 162.6 124.6 162.6Q124.4 162.7 124.2 162.7Q124.0 162.8 123.8 162.8Q123.6 162.8 123.5 162.8L123.5 162.8Q123.2 162.9 123.0 162.9Q122.7 163.0 122.6 163.2Q122.4 163.4 122.4 163.6L122.4 163.6Q122.4 163.9 122.6 164.1Q122.7 164.2 122.9 164.3Q123.2 164.4 123.5 164.4ZM129.2 165.1L129.2 165.1Q128.5 165.1 128.0 164.9Q127.4 164.7 127.1 164.2Q126.9 163.8 126.8 163.3L126.8 163.3L127.7 163.3Q127.7 163.7 127.9 163.9Q128.1 164.1 128.5 164.3Q128.8 164.4 129.2 164.4L129.2 164.4Q129.6 164.4 130.0 164.2Q130.3 164.1 130.5 163.8Q130.8 163.5 130.8 163.2L130.8 163.2Q130.8 162.9 130.6 162.7Q130.4 162.5 130.1 162.4Q129.8 162.2 129.5 162.1L129.5 162.1L128.7 161.9Q127.9 161.7 127.4 161.3Q127.0 160.9 127.0 160.2L127.0 160.2Q127.0 159.7 127.3 159.2Q127.6 158.8 128.1 158.6Q128.6 158.4 129.2 158.4L129.2 158.4Q129.9 158.4 130.4 158.6Q130.9 158.8 131.2 159.2Q131.5 159.6 131.5 160.1L131.5 160.1L130.7 160.1Q130.6 159.6 130.2 159.4Q129.8 159.1 129.2 159.1L129.2 159.1Q128.8 159.1 128.5 159.2Q128.2 159.4 128.0 159.6Q127.8 159.9 127.8 160.2L127.8 160.2Q127.8 160.5 128.0 160.7Q128.2 160.9 128.5 161.0Q128.8 161.2 129.1 161.2L129.1 161.2L129.7 161.4Q130.0 161.5 130.3 161.6Q130.6 161.7 130.9 161.9Q131.2 162.1 131.4 162.4Q131.6 162.8 131.6 163.2L131.6 163.2Q131.6 163.8 131.3 164.2Q131.0 164.6 130.5 164.9Q129.9 165.1 129.2 165.1ZM134.8 165.1L134.8 165.1Q134.1 165.1 133.6 164.8Q133.1 164.5 132.8 163.9Q132.5 163.3 132.5 162.6L132.5 162.6Q132.5 161.8 132.8 161.2Q133.1 160.7 133.6 160.3Q134.1 160.0 134.8 160.0L134.8 160.0Q135.1 160.0 135.4 160.1Q135.8 160.2 136.0 160.4Q136.3 160.6 136.5 160.8Q136.7 161.1 136.8 161.4L136.8 161.4L136.0 161.6Q135.9 161.4 135.8 161.3Q135.7 161.1 135.6 161.0Q135.4 160.9 135.2 160.8Q135.0 160.7 134.8 160.7L134.8 160.7Q134.3 160.7 134.0 161.0Q133.6 161.2 133.5 161.7Q133.3 162.1 133.3 162.6L133.3 162.6Q133.3 163.1 133.5 163.5Q133.6 163.9 134.0 164.1Q134.3 164.4 134.8 164.4L134.8 164.4Q135.0 164.4 135.2 164.3Q135.4 164.3 135.6 164.1Q135.8 164.0 135.9 163.9Q136.0 163.7 136.0 163.5L136.0 163.5L136.8 163.7Q136.7 164.0 136.5 164.3Q136.3 164.6 136.0 164.7Q135.8 164.9 135.5 165.0Q135.1 165.1 134.8 165.1ZM138.7 165L137.9 165L137.9 160.1L138.7 160.1L138.7 160.8L138.7 160.8Q138.9 160.5 139.2 160.2Q139.6 160.0 140.0 160.0L140.0 160.0Q140.1 160.0 140.2 160.0Q140.3 160.0 140.4 160.0L140.4 160.0L140.4 160.8Q140.4 160.8 140.2 160.8Q140.1 160.8 139.9 160.8L139.9 160.8Q139.6 160.8 139.3 160.9Q139.0 161.1 138.9 161.3Q138.7 161.6 138.7 161.9L138.7 161.9L138.7 165ZM142.1 165L141.3 165L141.3 160.1L142.1 160.1L142.1 165ZM141.7 159.3L141.7 159.3Q141.5 159.3 141.3 159.1Q141.2 159.0 141.2 158.8L141.2 158.8Q141.2 158.5 141.3 158.4Q141.5 158.2 141.7 158.2L141.7 158.2Q141.9 158.2 142.1 158.4Q142.3 158.5 142.3 158.8L142.3 158.8Q142.3 159.0 142.1 159.1Q141.9 159.3 141.7 159.3ZM144.3 166.8L143.5 166.8L143.5 160.1L144.2 160.1L144.2 160.9L144.3 160.9Q144.4 160.7 144.6 160.5Q144.7 160.3 145.0 160.2Q145.3 160.0 145.8 160.0L145.8 160.0Q146.4 160.0 146.8 160.3Q147.3 160.6 147.6 161.2Q147.8 161.8 147.8 162.6L147.8 162.6Q147.8 163.3 147.6 163.9Q147.3 164.5 146.8 164.8Q146.4 165.1 145.8 165.1L145.8 165.1Q145.3 165.1 145.0 164.9Q144.7 164.8 144.6 164.6Q144.4 164.4 144.3 164.2L144.3 164.2L144.3 164.2L144.3 166.8ZM145.6 164.4L145.6 164.4Q146.1 164.4 146.4 164.1Q146.7 163.9 146.9 163.5Q147.0 163.1 147.0 162.5L147.0 162.5Q147.0 162.0 146.9 161.6Q146.7 161.2 146.4 161.0Q146.1 160.7 145.6 160.7L145.6 160.7Q145.2 160.7 144.9 161.0Q144.6 161.2 144.4 161.6Q144.3 162.0 144.3 162.5L144.3 162.5Q144.3 163.1 144.4 163.5Q144.6 163.9 144.9 164.2Q145.2 164.4 145.6 164.4ZM149.9 160.1L150.9 160.1L150.9 160.8L149.9 160.8L149.9 163.7Q149.9 164.1 150.0 164.2Q150.2 164.4 150.5 164.4L150.5 164.4Q150.6 164.4 150.7 164.3Q150.8 164.3 150.9 164.3L150.9 164.3L151.1 165.0Q150.9 165.0 150.8 165.0Q150.6 165.1 150.5 165.1L150.5 165.1Q149.8 165.1 149.5 164.7Q149.1 164.4 149.1 163.8L149.1 163.8L149.1 160.8L148.4 160.8L148.4 160.1L149.1 160.1L149.1 158.9L149.9 158.9L149.9 160.1Z "/></g><mask id="satori_om-id-2-2"><rect x="164" y="156" width="40" height="11" fill="#fff"/></mask><mask id="satori_om-id-2-2-0"><rect x="164" y="159" width="6" height="6" fill="#fff"/></mask><path x="164" y="159" width="6" height="6" fill="#3572A5" d="M167,159 h0 a3,3 0 0 1 3,3 v0 a3,3 0 0 1 -3,3 h0 a3,3 0 0 1 -3,-3 v0 a3,3 0 0 1 3,-3"/><mask id="satori_om-id-2-2-1"><rect x="174" y="156" width="30" height="11" fill="#fff"/></mask><g  ><path fill="#44448a" d="M175.6 165L174.8 165L174.8 158.5L177.0 158.5Q177.8 158.5 178.3 158.7Q178.8 159.0 179.0 159.5Q179.3 160.0 179.3 160.5Q179.3 161.1 179.0 161.6Q178.8 162.1 178.3 162.4Q177.8 162.6 177.0 162.6L177.0 162.6L175.6 162.6L175.6 165ZM175.6 159.2L175.6 161.9L177.0 161.9Q177.5 161.9 177.8 161.7Q178.1 161.5 178.3 161.2Q178.4 160.9 178.4 160.5Q178.4 160.1 178.3 159.8Q178.1 159.5 177.8 159.4Q177.5 159.2 177.0 159.2L177.0 159.2L175.6 159.2ZM180.4 166.8L180.4 166.8L180.6 166.1L180.6 166.1Q180.9 166.2 181.1 166.1Q181.3 166.1 181.4 166.0Q181.6 165.8 181.7 165.4L181.7 165.4L181.9 165.0L180.0 160.1L180.9 160.1L181.9 163.0Q182.1 163.5 182.2 163.9L182.2 163.9Q182.2 164.1 182.3 164.3L182.3 164.3Q182.3 164.1 182.4 163.9L182.4 163.9Q182.5 163.5 182.7 163.0L182.7 163.0L183.7 160.1L184.6 160.1L182.4 165.7Q182.3 166.1 182.1 166.4Q181.8 166.6 181.6 166.8Q181.3 166.9 180.9 166.9L180.9 166.9Q180.7 166.9 180.6 166.8Q180.4 166.8 180.4 166.8ZM186.4 160.1L187.4 160.1L187.4 160.8L186.4 160.8L186.4 163.7Q186.4 164.1 186.6 164.2Q186.7 164.4 187.0 164.4L187.0 164.4Q187.1 164.4 187.2 164.3Q187.3 164.3 187.4 164.3L187.4 164.3L187.6 165.0Q187.4 165.0 187.3 165.0Q187.1 165.1 187.0 165.1L187.0 165.1Q186.3 165.1 186.0 164.7Q185.6 164.4 185.6 163.8L185.6 163.8L185.6 160.8L184.9 160.8L184.9 160.1L185.6 160.1L185.6 158.9L186.4 158.9L186.4 160.1ZM189.2 162.1L189.2 162.1L189.2 165L188.4 165L188.4 158.5L189.2 158.5L189.2 160.9Q189.4 160.5 189.7 160.3L189.7 160.3Q190.2 160.0 190.7 160.0L190.7 160.0Q191.2 160.0 191.6 160.2Q192.0 160.4 192.2 160.8Q192.4 161.3 192.4 161.9L192.4 161.9L192.4 165L191.6 165L191.6 161.9Q191.6 161.4 191.3 161.1Q191.0 160.7 190.5 160.7L190.5 160.7Q190.1 160.7 189.8 160.9Q189.6 161.0 189.4 161.3Q189.2 161.6 189.2 162.1ZM195.8 165.1L195.8 165.1Q195.1 165.1 194.6 164.8Q194.1 164.5 193.8 163.9Q193.5 163.3 193.5 162.6L193.5 162.6Q193.5 161.8 193.8 161.2Q194.1 160.7 194.6 160.3Q195.1 160.0 195.8 160.0L195.8 160.0Q196.4 160.0 196.9 160.3Q197.4 160.7 197.7 161.2Q198.0 161.8 198.0 162.6L198.0 162.6Q198.0 163.3 197.7 163.9Q197.4 164.5 196.9 164.8Q196.4 165.1 195.8 165.1ZM195.8 164.4L195.8 164.4Q196.3 164.4 196.6 164.1Q196.9 163.9 197.1 163.5Q197.2 163.1 197.2 162.6L197.2 162.6Q197.2 162.1 197.1 161.7Q196.9 161.2 196.6 161.0Q196.3 160.7 195.8 160.7L195.8 160.7Q195.3 160.7 195.0 161.0Q194.6 161.2 194.5 161.7Q194.3 162.1 194.3 162.6L194.3 162.6Q194.3 163.1 194.5 163.5Q194.6 163.9 195.0 164.1Q195.3 164.4 195.8 164.4ZM200.0 162.1L200.0 162.1L200.0 165L199.2 165L199.2 160.1L199.9 160.1L199.9 161.0Q200.1 160.5 200.5 160.3L200.5 160.3Q200.9 160.0 201.4 160.0L201.4 160.0Q201.9 160.0 202.3 160.2Q202.7 160.4 202.9 160.8Q203.1 161.3 203.1 161.9L203.1 161.9L203.1 165L202.3 165L202.3 161.9Q202.3 161.4 202.0 161.1Q201.7 160.7 201.2 160.7L201.2 160.7Q200.8 160.7 200.6 160.9Q200.3 161.0 200.1 161.3Q200.0 161.6 200.0 162.1Z "/></g><mask id="satori_om-id-2-3"><rect x="216" y="156" width="29" height="11" fill="#fff"/></mask><mask id="satori_om-id-2-3-0"><rect x="216" y="159" width="6" height="6" fill="#fff"/></mask><path x="216" y="159" width="6" height="6" fill="#dea584" d="M219,159 h0 a3,3 0 0 1 3,3 v0 a3,3 0 0 1 -3,3 h0 a3,3 0 0 1 -3,-3 v0 a3,3 0 0 1 3,-3"/><mask id="satori_om-id-2-3-1"><rect x="226" y="156" width="19" height="11" fill="#fff"/></mask><g  ><path fill="#44448a" d="M227.6 165L226.8 165L226.8 158.5L229.0 158.5Q229.8 158.5 230.3 158.7Q230.8 159.0 231.0 159.4Q231.3 159.9 231.3 160.5Q231.3 161.1 231.0 161.5Q230.8 162.0 230.3 162.2L230.3 162.2Q230.2 162.3 230.1 162.3L230.1 162.3L231.5 165L230.6 165L229.2 162.5Q229.1 162.5 229.0 162.5L229.0 162.5L227.6 162.5L227.6 165ZM227.6 159.2L227.6 161.7L229.0 161.7Q229.5 161.7 229.8 161.6Q230.1 161.4 230.3 161.1Q230.4 160.9 230.4 160.5L230.4 160.5Q230.4 160.1 230.3 159.8Q230.1 159.5 229.8 159.3Q229.5 159.2 229.0 159.2L229.0 159.2L227.6 159.2ZM234.2 165.1L234.2 165.1Q233.7 165.1 233.3 164.9Q232.9 164.7 232.7 164.2Q232.5 163.8 232.5 163.2L232.5 163.2L232.5 160.1L233.3 160.1L233.3 163.1Q233.3 163.7 233.6 164.0Q233.9 164.3 234.4 164.3L234.4 164.3Q234.7 164.3 235.0 164.2Q235.3 164.0 235.5 163.7Q235.6 163.4 235.6 163.0L235.6 163.0L235.6 160.1L236.4 160.1L236.4 165L235.7 165L235.7 164.1Q235.4 164.6 235.1 164.8L235.1 164.8Q234.7 165.1 234.2 165.1ZM239.5 165.1L239.5 165.1Q239.0 165.1 238.6 165.0Q238.2 164.8 237.9 164.5Q237.7 164.2 237.6 163.8L237.6 163.8L238.3 163.6Q238.4 164.0 238.7 164.2Q239.0 164.4 239.5 164.4L239.5 164.4Q240.0 164.4 240.3 164.2Q240.6 164.0 240.6 163.7L240.6 163.7Q240.6 163.4 240.4 163.2Q240.2 163.1 239.9 163.0L239.9 163.0L239.1 162.8Q238.4 162.6 238.1 162.3Q237.7 162.0 237.7 161.5L237.7 161.5Q237.7 161.0 238.0 160.7Q238.2 160.4 238.6 160.2Q239.0 160.0 239.6 160.0L239.6 160.0Q240.1 160.0 240.4 160.2Q240.8 160.3 241.0 160.6Q241.2 160.9 241.3 161.2L241.3 161.2L240.6 161.4Q240.5 161.1 240.3 160.9Q240.0 160.7 239.6 160.7L239.6 160.7Q239.1 160.7 238.8 160.9Q238.5 161.1 238.5 161.4L238.5 161.4Q238.5 161.7 238.7 161.8Q238.9 162.0 239.4 162.1L239.4 162.1L240.1 162.3Q240.8 162.4 241.1 162.8Q241.4 163.1 241.4 163.6L241.4 163.6Q241.4 164.0 241.2 164.4Q240.9 164.7 240.5 164.9Q240.1 165.1 239.5 165.1ZM243.5 160.1L244.5 160.1L244.5 160.8L243.5 160.8L243.5 163.7Q243.5 164.1 243.6 164.2Q243.7 164.4 244.1 164.4L244.1 164.4Q244.1 164.4 244.3 164.3Q244.4 164.3 244.5 164.3L244.5 164.3L244.6 165.0Q244.5 165.0 244.3 165.0Q244.2 165.1 244.0 165.1L244.0 165.1Q243.4 165.1 243.0 164.7Q242.7 164.4 242.7 163.8L242.7 163.8L242.7 160.8L242.0 160.8L242.0 160.1L242.7 160.1L242.7 158.9L243.5 158.9L243.5 160.1Z "/></g><mask id="satori_om-id-2-4"><rect x="257" y="156" width="23" height="11" fill="#fff"/></mask><mask id="satori_om-id-2-4-0"><rect x="257" y="159" width="6" height="6" fill="#fff"/></mask><path x="257" y="159" width="6" height="6" fill="#00ADD8" d="M260,159 h0 a3,3 0 0 1 3,3 v0 a3,3 0 0 1 -3,3 h0 a3,3 0 0 1 -3,-3 v0 a3,3 0 0 1 3,-3"/><mask id="satori_om-id-2-4-1"><rect x="267" y="156" width="13" height="11" fill="#fff"/></mask><g  ><path fill="#44448a" d="M270.5 165.1L270.5 165.1Q269.6 165.1 268.9 164.7Q268.3 164.3 267.9 163.5Q267.5 162.8 267.5 161.7L267.5 161.7Q267.5 160.7 267.9 159.9Q268.3 159.2 268.9 158.8Q269.6 158.4 270.4 158.4L270.4 158.4Q270.9 158.4 271.4 158.5Q271.8 158.7 272.2 159.0Q272.5 159.2 272.8 159.6Q273.0 160.0 273.1 160.5L273.1 160.5L272.2 160.5Q272.1 160.2 272.0 159.9Q271.8 159.7 271.6 159.5Q271.3 159.3 271.1 159.2Q270.8 159.1 270.4 159.1L270.4 159.1Q269.8 159.1 269.4 159.4Q268.9 159.7 268.6 160.3Q268.3 160.9 268.3 161.7L268.3 161.7Q268.3 162.6 268.6 163.1Q268.9 163.7 269.4 164.0Q269.9 164.3 270.5 164.3L270.5 164.3Q271.0 164.3 271.4 164.1Q271.9 163.8 272.1 163.4L272.1 163.4Q272.3 163.0 272.3 162.4L272.3 162.4L270.6 162.4L270.6 161.7L273.2 161.7L273.2 162.4Q273.2 163.2 272.8 163.8Q272.5 164.4 271.9 164.8Q271.2 165.1 270.5 165.1ZM276.4 165.1L276.4 165.1Q275.7 165.1 275.2 164.8Q274.7 164.5 274.5 163.9Q274.2 163.3 274.2 162.6L274.2 162.6Q274.2 161.8 274.5 161.2Q274.7 160.7 275.2 160.3Q275.7 160.0 276.4 160.0L276.4 160.0Q277.1 160.0 277.6 160.3Q278.1 160.7 278.4 161.2Q278.7 161.8 278.7 162.6L278.7 162.6Q278.7 163.3 278.4 163.9Q278.1 164.5 277.6 164.8Q277.1 165.1 276.4 165.1ZM276.4 164.4L276.4 164.4Q276.9 164.4 277.2 164.1Q277.5 163.9 277.7 163.5Q277.9 163.1 277.9 162.6L277.9 162.6Q277.9 162.1 277.7 161.7Q277.5 161.2 277.2 161.0Q276.9 160.7 276.4 160.7L276.4 160.7Q275.9 160.7 275.6 161.0Q275.3 161.2 275.1 161.7Q275.0 162.1 275.0 162.6L275.0 162.6Q275.0 163.1 275.1 163.5Q275.3 163.9 275.6 164.1Q275.9 164.4 276.4 164.4Z "/></g></svg>