<svg width="800" height="130" viewBox="0 0 800 130" xmlns="http://www.w3.org/2000/svg"><defs><clipPath id="satori_bc-id"><path x="0" y="0" width="800" height="130" d="M18,0 h764 a18,18 0 0 1 18,18 v94 a18,18 0 0 1 -18,18 h-764 a18,18 0 0 1 -18,-18 v-94 a18,18 0 0 1 18,-18"/></clipPath></defs><mask id="satori_om-id"><rect x="1" y="1" width="798" height="128" fill="#fff"/><path width="800" height="130" fill="none" stroke="#000" stroke-width="2" d="M5.272,5.272 A18,18 0 0 1 18,0 h764 a18,18 0 0 1 18,18 v94 a18,18 0 0 1 -18,18 h-764 a18,18 0 0 1 -18,-18 v-94 A18,18 0 0 1 5.272,5.272"/></mask><path x="0" y="0" width="800" height="130" fill="#0d0d1e" d="M18,0 h764 a18,18 0 0 1 18,18 v94 a18,18 0 0 1 -18,18 h-764 a18,18 0 0 1 -18,-18 v-94 a18,18 0 0 1 18,-18"/><path width="800" height="130" clip-path="url(#satori_bc-id)" fill="none" stroke="#1c1c4e" stroke-width="2" d="M5.272,5.272 A18,18 0 0 1 18,0 h764 a18,18 0 0 1 18,18 v94 a18,18 0 0 1 -18,18 h-764 a18,18 0 0 1 -18,-18 v-94 A18,18 0 0 1 5.272,5.272"/><defs><pattern id="satori_pattern_id-0_0" x="0" y="0" width="1" height="1" patternUnits="objectBoundingBox"><linearGradient id="satori_biid-0_0" x1="-5.075305255429287e-16" y1="5.075305255429298e-16" x2="1.0000000000000004" y2="0.9999999999999994" spreadMethod="pad"><stop offset="0%" stop-color="#667eea"/><stop offset="100%" stop-color="#764ba2"/></linearGradient><rect x="0" y="0" width="56" height="56" fill="url(#satori_biid-0_0)"/></pattern></defs><mask id="satori_ms-id-0-0" maskUnits="userSpaceOnUse"><rect x="0" y="0" width="800" height="130" fill="#fff"/><path x="29" y="37" width="56" height="56" fill="#000"  stroke-width="0" d="M57,37 h0 a28,28 0 0 1 28,28 v0 a28,28 0 0 1 -28,28 h0 a28,28 0 0 1 -28,-28 v0 a28,28 0 0 1 28,-28"/></mask><defs><filter id="satori_s-id-0-0" x="-178.57142857142858%" y="-178.57142857142858%" width="457.1428571428571%" height="457.1428571428571%"><feGaussianBlur stdDeviation="10" result="b"/><feFlood flood-color="rgba(102,126,234,0.5)" in="SourceGraphic" result="f"/><feComposite in="f" in2="b" operator="in"/></filter></defs><g mask="url(#satori_ms-id-0-0)" filter="url(#satori_s-id-0-0)" opacity="1"><path x="29" y="37" width="56" height="56" fill="#fff" stroke="#fff" stroke-width="0" d="M57,37 h0 a28,28 0 0 1 28,28 v0 a28,28 0 0 1 -28,28 h0 a28,28 0 0 1 -28,-28 v0 a28,28 0 0 1 28,-28"/></g><mask id="satori_om-id-0"><rect x="29" y="37" width="56" height="56" fill="#fff"/></mask><path x="29" y="37" width="56" height="56" fill="url(#satori_pattern_id-0_0)" d="M57,37 h0 a28,28 0 0 1 28,28 v0 a28,28 0 0 1 -28,28 h0 a28,28 0 0 1 -28,-28 v0 a28,28 0 0 1 28,-28"/><mask id="satori_om-id-0-0"><rect x="48" y="51" width="19" height="29" fill="#fff"/></mask><g  ><path fill="white" d="M57.2 74.2L57.2 74.2Q54.9 74.2 53.1 73.2Q51.2 72.1 50.2 70.1Q49.1 68.1 49.1 65.3L49.1 65.3Q49.1 62.4 50.2 60.4Q51.2 58.4 53.1 57.4Q54.9 56.3 57.2 56.3L57.2 56.3Q59.6 56.3 61.4 57.4Q63.2 58.4 64.3 60.4Q65.4 62.4 65.4 65.3L65.4 65.3Q65.4 68.1 64.3 70.1Q63.2 72.1 61.4 73.2Q59.6 74.2 57.2 74.2ZM57.2 71.1L57.2 71.1Q58.6 71.1 59.6 70.4Q60.6 69.7 61.2 68.4Q61.8 67.1 61.8 65.3L61.8 65.3Q61.8 63.4 61.2 62.1Q60.6 60.8 59.6 60.1Q58.6 59.5 57.2 59.5L57.2 59.5Q55.9 59.5 54.9 60.1Q53.9 60.8 53.3 62.1Q52.7 63.4 52.7 65.3L52.7 65.3Q52.7 67.1 53.3 68.4Q53.9 69.7 54.9 70.4Q55.9 71.1 57.2 71.1Z "/></g><mask id="satori_om-id-1"><rect x="105" y="44" width="464" height="42" fill="#fff"/></mask><mask id="satori_om-id-1-0"><rect x="105" y="44" width="464" height="24" fill="#fff"/></mask><g  ><path fill="white" d="M111.1 63.2L111.1 63.2Q109.5 63.2 108.3 62.5Q107.1 61.8 106.4 60.5Q105.8 59.3 105.8 57.6L105.8 57.6Q105.8 55.9 106.4 54.6Q107.1 53.4 108.3 52.7Q109.5 51.9 111.1 51.9L111.1 51.9Q112.8 51.9 114.0 52.7Q115.2 53.4 115.8 54.6Q116.5 55.9 116.5 57.6L116.5 57.6Q116.5 59.3 115.8 60.5Q115.2 61.8 114.0 62.5Q112.8 63.2 111.1 63.2ZM111.1 60.9L111.1 60.9Q111.9 60.9 112.4 60.5Q113.0 60.0 113.2 59.3Q113.5 58.5 113.5 57.6L113.5 57.6Q113.5 56.6 113.2 55.9Q113.0 55.1 112.4 54.7Q111.9 54.3 111.1 54.3L111.1 54.3Q110.4 54.3 109.8 54.7Q109.3 55.1 109.0 55.9Q108.8 56.6 108.8 57.6L108.8 57.6Q108.8 58.5 109.0 59.3Q109.3 60.0 109.8 60.5Q110.4 60.9 111.1 60.9ZM123.4 63.2L123.4 63.2Q121.7 63.2 120.6 62.5Q119.4 61.8 118.7 60.5Q118.1 59.3 118.1 57.6L118.1 57.6Q118.1 55.9 118.7 54.6Q119.4 53.4 120.6 52.7Q121.7 51.9 123.4 51.9L123.4 51.9Q124.4 51.9 125.2 52.2Q126.0 52.5 126.6 52.9Q127.3 53.4 127.7 54.1Q128.1 54.7 128.3 55.6L128.3 55.6L125.5 56.1Q125.4 55.7 125.3 55.3Q125.1 55.0 124.8 54.7Q124.5 54.5 124.2 54.4Q123.8 54.3 123.4 54.3L123.4 54.3Q122.6 54.3 122.1 54.7Q121.6 55.1 121.3 55.8Q121.0 56.6 121.0 57.6L121.0 57.6Q121.0 58.5 121.3 59.3Q121.6 60.1 122.1 60.5Q122.6 60.9 123.4 60.9L123.4 60.9Q123.8 60.9 124.2 60.8Q124.6 60.6 124.8 60.4Q125.1 60.1 125.3 59.8Q125.5 59.4 125.5 59.0L125.5 59.0L128.3 59.5Q128.1 60.4 127.7 61.1Q127.3 61.7 126.7 62.2Q126.0 62.7 125.2 63.0Q124.4 63.2 123.4 63.2ZM133.7 52.1L135.7 52.1L135.7 54.3L133.7 54.3L133.7 59.8Q133.7 60.3 133.9 60.6Q134.1 60.8 134.7 60.8L134.7 60.8Q134.8 60.8 135.1 60.8Q135.4 60.7 135.6 60.7L135.6 60.7L136.0 62.9Q135.5 63.0 135.0 63.1Q134.6 63.2 134.1 63.2L134.1 63.2Q132.5 63.2 131.6 62.4Q130.7 61.6 130.7 60.1L130.7 60.1L130.7 54.3L129.2 54.3L129.2 52.1L130.7 52.1L130.7 49.5L133.7 49.5L133.7 52.1ZM142.5 63.2L142.5 63.2Q140.8 63.2 139.6 62.5Q138.4 61.8 137.8 60.5Q137.1 59.3 137.1 57.6L137.1 57.6Q137.1 55.9 137.8 54.6Q138.4 53.4 139.6 52.7Q140.8 51.9 142.5 51.9L142.5 51.9Q144.1 51.9 145.3 52.7Q146.5 53.4 147.2 54.6Q147.8 55.9 147.8 57.6L147.8 57.6Q147.8 59.3 147.2 60.5Q146.5 61.8 145.3 62.5Q144.1 63.2 142.5 63.2ZM142.5 60.9L142.5 60.9Q143.3 60.9 143.8 60.5Q144.3 60.0 144.6 59.3Q144.9 58.5 144.9 57.6L144.9 57.6Q144.9 56.6 144.6 55.9Q144.3 55.1 143.8 54.7Q143.3 54.3 142.5 54.3L142.5 54.3Q141.7 54.3 141.2 54.7Q140.7 55.1 140.4 55.9Q140.1 56.6 140.1 57.6L140.1 57.6Q140.1 58.5 140.4 59.3Q140.7 60.0 141.2 60.5Q141.7 60.9 142.5 60.9ZM154.8 63.2L154.8 63.2Q153.1 63.2 151.9 62.5Q150.7 61.8 150.1 60.5Q149.4 59.3 149.4 57.6L149.4 57.6Q149.4 55.9 150.1 54.6Q150.7 53.4 151.9 52.7Q153.1 51.9 154.8 51.9L154.8 51.9Q155.7 51.9 156.5 52.2Q157.4 52.5 158.0 52.9Q158.6 53.4 159.0 54.1Q159.5 54.7 159.6 55.6L159.6 55.6L156.9 56.1Q156.8 55.7 156.6 55.3Q156.4 55.0 156.2 54.7Q155.9 54.5 155.6 54.4Q155.2 54.3 154.8 54.3L154.8 54.3Q154.0 54.3 153.5 54.7Q152.9 55.1 152.7 55.8Q152.4 56.6 152.4 57.6L152.4 57.6Q152.4 58.5 152.7 59.3Q152.9 60.1 153.5 60.5Q154.0 60.9 154.8 60.9L154.8 60.9Q155.2 60.9 155.6 60.8Q155.9 60.6 156.2 60.4Q156.5 60.1 156.6 59.8Q156.8 59.4 156.9 59.0L156.9 59.0L159.6 59.5Q159.5 60.4 159.1 61.1Q158.7 61.7 158.0 62.2Q157.4 62.7 156.6 63.0Q155.7 63.2 154.8 63.2ZM164.7 63.2L164.7 63.2Q163.7 63.2 162.8 62.8Q162.0 62.5 161.5 61.8Q161.1 61.0 161.1 59.9L161.1 59.9Q161.1 59.0 161.4 58.4Q161.7 57.8 162.3 57.4Q162.9 57.1 163.6 56.9Q164.4 56.7 165.2 56.6L165.2 56.6Q166.1 56.5 166.7 56.4Q167.3 56.3 167.6 56.1Q167.8 56.0 167.8 55.6L167.8 55.6L167.8 55.6Q167.8 55.1 167.6 54.8Q167.4 54.5 167.0 54.3Q166.7 54.1 166.1 54.1L166.1 54.1Q165.5 54.1 165.1 54.3Q164.7 54.5 164.4 54.7Q164.2 55.0 164.1 55.4L164.1 55.4L161.4 54.9Q161.7 54.0 162.3 53.3Q163.0 52.6 163.9 52.3Q164.9 51.9 166.1 51.9L166.1 51.9Q167.0 51.9 167.8 52.2Q168.7 52.4 169.3 52.8Q170.0 53.2 170.4 54.0Q170.8 54.7 170.8 55.6L170.8 55.6L170.8 63L168.0 63L168.0 61.5L167.9 61.5Q167.6 62.0 167.2 62.4Q166.7 62.8 166.1 63.0Q165.5 63.2 164.7 63.2ZM165.5 61.2L165.5 61.2Q166.2 61.2 166.7 60.9Q167.3 60.6 167.5 60.1Q167.8 59.7 167.8 59.1L167.8 59.1L167.8 57.9Q167.7 58.0 167.5 58.1Q167.2 58.2 166.9 58.2Q166.5 58.3 166.2 58.3Q165.9 58.4 165.7 58.4L165.7 58.4Q165.1 58.5 164.7 58.7Q164.3 58.8 164.1 59.1Q163.9 59.4 163.9 59.9L163.9 59.9Q163.9 60.3 164.1 60.6Q164.3 60.9 164.7 61.0Q165.0 61.2 165.5 61.2ZM176.6 52.1L178.7 52.1L178.7 54.3L176.6 54.3L176.6 59.8Q176.6 60.3 176.9 60.6Q177.1 60.8 177.6 60.8L177.6 60.8Q177.8 60.8 178.1 60.8Q178.4 60.7 178.6 60.7L178.6 60.7L179.0 62.9Q178.5 63.0 178.0 63.1Q177.5 63.2 177.1 63.2L177.1 63.2Q175.4 63.2 174.6 62.4Q173.7 61.6 173.7 60.1L173.7 60.1L173.7 54.3L172.2 54.3L172.2 52.1L173.7 52.1L173.7 49.5L176.6 49.5L176.6 52.1Z "/></g><mask id="satori_om-id-1-1"><rect x="105" y="71" width="464" height="15" fill="#fff"/></mask><g  ><path fill="#5555aa" d="M106.5 83L105.3 83L108.5 74.3L109.8 74.3L113.0 83L111.8 83L110.9 80.6L107.3 80.6L106.5 83ZM107.7 79.6L110.6 79.6L110.0 77.8Q109.8 77.3 109.6 76.6L109.6 76.6Q109.4 76.0 109.1 75.2L109.1 75.2Q108.9 76.0 108.7 76.6L108.7 76.6Q108.4 77.4 108.3 77.8L108.3 77.8L107.7 79.6Z M118.6 85.4L117.6 85.4L117.6 76.4L118.6 76.4L118.6 77.5L118.7 77.5Q118.8 77.3 119.0 77.1Q119.2 76.8 119.6 76.6Q120.0 76.4 120.6 76.4L120.6 76.4Q121.4 76.4 122.1 76.8Q122.7 77.2 123.0 77.9Q123.4 78.7 123.4 79.7L123.4 79.7Q123.4 80.8 123.0 81.5Q122.7 82.3 122.1 82.7Q121.4 83.1 120.6 83.1L120.6 83.1Q120 83.1 119.6 82.9Q119.2 82.7 119.0 82.4Q118.8 82.2 118.7 82.0L118.7 82.0L118.6 82.0L118.6 85.4ZM120.5 82.2L120.5 82.2Q121.1 82.2 121.5 81.9Q121.9 81.5 122.1 81.0Q122.3 80.4 122.3 79.7L122.3 79.7Q122.3 79.1 122.1 78.5Q121.9 78.0 121.5 77.6Q121.1 77.3 120.5 77.3L120.5 77.3Q119.9 77.3 119.4 77.6Q119.0 77.9 118.8 78.5Q118.6 79.0 118.6 79.7L118.6 79.7Q118.6 80.5 118.8 81.0Q119.0 81.6 119.5 81.9Q119.9 82.2 120.5 82.2ZM126.8 83.2L126.8 83.2Q126.1 83.2 125.6 82.9Q125.1 82.7 124.8 82.2Q124.5 81.8 124.5 81.1L124.5 81.1Q124.5 80.6 124.8 80.2Q125.0 79.9 125.3 79.7Q125.7 79.5 126.2 79.4Q126.6 79.3 127.1 79.2L127.1 79.2Q127.7 79.1 128.0 79.1Q128.4 79.1 128.6 79.0Q128.8 78.9 128.8 78.6L128.8 78.6L128.8 78.6Q128.8 78.2 128.6 77.9Q128.5 77.6 128.2 77.4Q127.8 77.3 127.4 77.3L127.4 77.3Q126.9 77.3 126.6 77.4Q126.3 77.6 126.0 77.8Q125.8 78.0 125.7 78.3L125.7 78.3L124.7 77.9Q125.0 77.3 125.4 77.0Q125.8 76.6 126.3 76.5Q126.9 76.4 127.4 76.4L127.4 76.4Q127.7 76.4 128.1 76.4Q128.5 76.5 128.9 76.8Q129.3 77.0 129.6 77.5Q129.8 77.9 129.8 78.7L129.8 78.7L129.8 83L128.8 83L128.8 82.1L128.7 82.1Q128.6 82.3 128.3 82.6Q128.1 82.8 127.7 83.0Q127.3 83.2 126.8 83.2ZM126.9 82.2L126.9 82.2Q127.5 82.2 127.9 82.0Q128.3 81.8 128.5 81.4Q128.8 81.0 128.8 80.6L128.8 80.6L128.8 79.7Q128.7 79.8 128.5 79.9Q128.3 79.9 128.0 80.0Q127.7 80.0 127.4 80.0Q127.2 80.1 127.0 80.1L127.0 80.1Q126.7 80.1 126.3 80.3Q126.0 80.4 125.8 80.6Q125.6 80.8 125.6 81.2L125.6 81.2Q125.6 81.5 125.8 81.8Q125.9 82.0 126.2 82.1Q126.6 82.2 126.9 82.2ZM133.9 83.1L133.9 83.1Q133.2 83.1 132.7 82.9Q132.2 82.7 131.8 82.4Q131.5 82.0 131.4 81.4L131.4 81.4L132.4 81.2Q132.5 81.7 132.9 82.0Q133.3 82.2 133.9 82.2L133.9 82.2Q134.6 82.2 135.0 81.9Q135.4 81.6 135.4 81.2L135.4 81.2Q135.4 80.9 135.1 80.7Q134.9 80.4 134.4 80.3L134.4 80.3L133.3 80.1Q132.4 79.9 132.0 79.4Q131.6 79.0 131.6 78.3L131.6 78.3Q131.6 77.7 131.9 77.3Q132.2 76.9 132.8 76.6Q133.3 76.4 134.0 76.4L134.0 76.4Q134.7 76.4 135.1 76.6Q135.6 76.8 135.9 77.1Q136.2 77.5 136.4 77.9L136.4 77.9L135.4 78.2Q135.3 77.8 135.0 77.6Q134.6 77.3 134.0 77.3L134.0 77.3Q133.4 77.3 133.0 77.5Q132.6 77.8 132.6 78.2L132.6 78.2Q132.6 78.6 132.9 78.8Q133.2 79.0 133.7 79.2L133.7 79.2L134.7 79.4Q135.6 79.6 136.0 80.0Q136.5 80.5 136.5 81.2L136.5 81.2Q136.5 81.7 136.2 82.2Q135.8 82.6 135.2 82.9Q134.7 83.1 133.9 83.1ZM140.2 83.1L140.2 83.1Q139.6 83.1 139.0 82.9Q138.5 82.7 138.2 82.4Q137.8 82.0 137.7 81.4L137.7 81.4L138.7 81.2Q138.8 81.7 139.2 82.0Q139.6 82.2 140.2 82.2L140.2 82.2Q140.9 82.2 141.3 81.9Q141.7 81.6 141.7 81.2L141.7 81.2Q141.7 80.9 141.5 80.7Q141.2 80.4 140.8 80.3L140.8 80.3L139.7 80.1Q138.8 79.9 138.3 79.4Q137.9 79.0 137.9 78.3L137.9 78.3Q137.9 77.7 138.2 77.3Q138.5 76.9 139.1 76.6Q139.6 76.4 140.3 76.4L140.3 76.4Q141.0 76.4 141.5 76.6Q141.9 76.8 142.2 77.1Q142.5 77.5 142.7 77.9L142.7 77.9L141.7 78.2Q141.6 77.8 141.3 77.6Q141.0 77.3 140.3 77.3L140.3 77.3Q139.8 77.3 139.4 77.5Q139.0 77.8 139.0 78.2L139.0 78.2Q139.0 78.6 139.2 78.8Q139.5 79.0 140.1 79.2L140.1 79.2L141.1 79.4Q142.0 79.6 142.4 80.0Q142.8 80.5 142.8 81.2L142.8 81.2Q142.8 81.7 142.5 82.2Q142.2 82.6 141.6 82.9Q141.0 83.1 140.2 83.1ZM145.4 83L144.3 83L144.3 76.4L145.4 76.4L145.4 83ZM144.9 75.4L144.9 75.4Q144.6 75.4 144.4 75.2Q144.1 75.0 144.1 74.7L144.1 74.7Q144.1 74.4 144.4 74.2Q144.6 74.0 144.9 74.0L144.9 74.0Q145.2 74.0 145.4 74.2Q145.6 74.4 145.6 74.7L145.6 74.7Q145.6 75.0 145.4 75.2Q145.2 75.4 144.9 75.4ZM149.9 83.1L149.9 83.1Q149.0 83.1 148.3 82.7Q147.7 82.3 147.3 81.5Q146.9 80.8 146.9 79.8L146.9 79.8Q146.9 78.7 147.3 78.0Q147.7 77.2 148.3 76.8Q149.0 76.4 149.9 76.4L149.9 76.4Q150.8 76.4 151.5 76.8Q152.2 77.2 152.5 78.0Q152.9 78.7 152.9 79.8L152.9 79.8Q152.9 80.8 152.5 81.5Q152.2 82.3 151.5 82.7Q150.8 83.1 149.9 83.1ZM149.9 82.2L149.9 82.2Q150.6 82.2 151.0 81.9Q151.4 81.5 151.6 81.0Q151.8 80.4 151.8 79.8L151.8 79.8Q151.8 79.1 151.6 78.6Q151.4 78.0 151.0 77.7Q150.6 77.3 149.9 77.3L149.9 77.3Q149.3 77.3 148.8 77.7Q148.4 78.0 148.2 78.6Q148.0 79.1 148.0 79.8L148.0 79.8Q148.0 80.4 148.2 81.0Q148.4 81.5 148.8 81.9Q149.3 82.2 149.9 82.2ZM155.5 79.1L155.5 79.1L155.5 83L154.4 83L154.4 76.4L155.4 76.4L155.5 77.7Q155.7 77.0 156.2 76.7L156.2 76.7Q156.7 76.4 157.5 76.4L157.5 76.4Q158.1 76.4 158.6 76.6Q159.1 76.9 159.4 77.5Q159.7 78.0 159.7 78.8L159.7 78.8L159.7 83L158.6 83L158.6 78.9Q158.6 78.2 158.2 77.7Q157.8 77.3 157.1 77.3L157.1 77.3Q156.7 77.3 156.3 77.5Q155.9 77.7 155.7 78.1Q155.5 78.5 155.5 79.1ZM163.4 83.2L163.4 83.2Q162.7 83.2 162.2 82.9Q161.7 82.7 161.4 82.2Q161.1 81.8 161.1 81.1L161.1 81.1Q161.1 80.6 161.3 80.2Q161.6 79.9 161.9 79.7Q162.3 79.5 162.8 79.4Q163.2 79.3 163.7 79.2L163.7 79.2Q164.3 79.1 164.6 79.1Q165 79.1 165.2 79.0Q165.4 78.9 165.4 78.6L165.4 78.6L165.4 78.6Q165.4 78.2 165.2 77.9Q165.1 77.6 164.7 77.4Q164.4 77.3 164.0 77.3L164.0 77.3Q163.5 77.3 163.2 77.4Q162.8 77.6 162.6 77.8Q162.4 78.0 162.3 78.3L162.3 78.3L161.3 77.9Q161.6 77.3 162.0 77.0Q162.4 76.6 162.9 76.5Q163.5 76.4 164.0 76.4L164.0 76.4Q164.3 76.4 164.7 76.4Q165.1 76.5 165.5 76.8Q165.9 77.0 166.2 77.5Q166.4 77.9 166.4 78.7L166.4 78.7L166.4 83L165.4 83L165.4 82.1L165.3 82.1Q165.2 82.3 164.9 82.6Q164.7 82.8 164.3 83.0Q163.9 83.2 163.4 83.2ZM163.5 82.2L163.5 82.2Q164.1 82.2 164.5 82.0Q164.9 81.8 165.1 81.4Q165.4 81.0 165.4 80.6L165.4 80.6L165.4 79.7Q165.3 79.8 165.1 79.9Q164.9 79.9 164.6 80.0Q164.3 80.0 164.0 80.0Q163.8 80.1 163.6 80.1L163.6 80.1Q163.2 80.1 162.9 80.3Q162.6 80.4 162.4 80.6Q162.2 80.8 162.2 81.2L162.2 81.2Q162.2 81.5 162.4 81.8Q162.5 82.0 162.8 82.1Q163.1 82.2 163.5 82.2ZM169.5 76.4L170.8 76.4L170.8 77.4L169.5 77.4L169.5 81.3Q169.5 81.7 169.7 81.9Q169.9 82.1 170.3 82.1L170.3 82.1Q170.4 82.1 170.5 82.1Q170.7 82.1 170.8 82.1L170.8 82.1L171.0 83.0Q170.9 83.0 170.7 83.1Q170.4 83.1 170.2 83.1L170.2 83.1Q169.4 83.1 168.9 82.6Q168.4 82.2 168.4 81.4L168.4 81.4L168.4 77.4L167.5 77.4L167.5 76.4L168.4 76.4L168.4 74.9L169.5 74.9L169.5 76.4ZM174.9 83.1L174.9 83.1Q174.0 83.1 173.3 82.7Q172.6 82.3 172.2 81.5Q171.9 80.8 171.9 79.8Q171.9 78.8 172.2 78.0Q172.6 77.2 173.3 76.8Q173.9 76.4 174.8 76.4L174.8 76.4Q175.3 76.4 175.8 76.5Q176.4 76.7 176.8 77.1Q177.2 77.5 177.4 78.1Q177.7 78.7 177.7 79.6L177.7 79.6L177.7 80.1L172.9 80.1Q173.0 80.7 173.2 81.2L173.2 81.2Q173.4 81.7 173.9 81.9Q174.4 82.2 174.9 82.2L174.9 82.2Q175.3 82.2 175.7 82.1Q176.0 82.0 176.2 81.8Q176.4 81.5 176.5 81.2L176.5 81.2L177.6 81.5Q177.4 82.0 177.1 82.3Q176.7 82.7 176.2 82.9Q175.6 83.1 174.9 83.1ZM172.9 79.2L172.9 79.2L176.6 79.2Q176.6 78.7 176.4 78.4L176.4 78.4Q176.2 77.9 175.8 77.6Q175.4 77.3 174.8 77.3Q174.2 77.3 173.8 77.6Q173.4 77.9 173.2 78.3L173.2 78.3Q173.0 78.7 172.9 79.2Z M185.0 83.1L185.0 83.1Q184.2 83.1 183.6 82.7Q182.9 82.3 182.6 81.5Q182.2 80.8 182.2 79.7L182.2 79.7Q182.2 78.7 182.6 77.9Q183.0 77.2 183.6 76.8Q184.2 76.4 185.0 76.4L185.0 76.4Q185.7 76.4 186.0 76.6Q186.4 76.8 186.6 77.1Q186.8 77.3 186.9 77.5L186.9 77.5L187.0 77.5L187.0 74.3L188.1 74.3L188.1 83L187.0 83L187.0 82.0L186.9 82.0Q186.8 82.2 186.6 82.4Q186.4 82.7 186.0 82.9Q185.6 83.1 185.0 83.1ZM185.2 82.2L185.2 82.2Q185.8 82.2 186.2 81.9Q186.6 81.6 186.8 81.0Q187.0 80.5 187.0 79.7L187.0 79.7Q187.0 79.0 186.8 78.5Q186.6 77.9 186.2 77.6Q185.8 77.3 185.2 77.3L185.2 77.3Q184.6 77.3 184.1 77.6Q183.7 78.0 183.5 78.5Q183.3 79.1 183.3 79.7L183.3 79.7Q183.3 80.4 183.5 81.0Q183.7 81.5 184.1 81.9Q184.6 82.2 185.2 82.2ZM192.7 83.1L192.7 83.1Q191.7 83.1 191.0 82.7Q190.3 82.3 190.0 81.5Q189.6 80.8 189.6 79.8Q189.6 78.8 190.0 78.0Q190.3 77.2 191.0 76.8Q191.6 76.4 192.5 76.4L192.5 76.4Q193.1 76.4 193.6 76.5Q194.1 76.7 194.5 77.1Q194.9 77.5 195.1 78.1Q195.4 78.7 195.4 79.6L195.4 79.6L195.4 80.1L190.7 80.1Q190.7 80.7 190.9 81.2L190.9 81.2Q191.2 81.7 191.6 81.9Q192.1 82.2 192.7 82.2L192.7 82.2Q193.1 82.2 193.4 82.1Q193.7 82.0 193.9 81.8Q194.1 81.5 194.3 81.2L194.3 81.2L195.3 81.5Q195.1 82.0 194.8 82.3Q194.4 82.7 193.9 82.9Q193.3 83.1 192.7 83.1ZM190.7 79.2L190.7 79.2L194.3 79.2Q194.3 78.7 194.1 78.4L194.1 78.4Q193.9 77.9 193.5 77.6Q193.1 77.3 192.5 77.3Q191.9 77.3 191.5 77.6Q191.1 77.9 190.9 78.3L190.9 78.3Q190.7 78.7 190.7 79.2ZM199.9 83L198.8 83L196.3 76.4L197.4 76.4L198.8 80.3Q199.1 80.9 199.2 81.5L199.2 81.5Q199.3 81.8 199.4 82.0L199.4 82.0Q199.4 81.8 199.5 81.5L199.5 81.5Q199.6 80.9 199.9 80.3L199.9 80.3L201.3 76.4L202.4 76.4L199.9 83ZM206.4 83.1L206.4 83.1Q205.5 83.1 204.8 82.7Q204.1 82.3 203.7 81.5Q203.3 80.8 203.3 79.8Q203.3 78.8 203.7 78.0Q204.1 77.2 204.7 76.8Q205.4 76.4 206.3 76.4L206.3 76.4Q206.8 76.4 207.3 76.5Q207.8 76.7 208.2 77.1Q208.6 77.5 208.9 78.1Q209.1 78.7 209.1 79.6L209.1 79.6L209.1 80.1L204.4 80.1Q204.4 80.7 204.7 81.2L204.7 81.2Q204.9 81.7 205.4 81.9Q205.8 82.2 206.4 82.2L206.4 82.2Q206.8 82.2 207.1 82.1Q207.4 82.0 207.7 81.8Q207.9 81.5 208.0 81.2L208.0 81.2L209.0 81.5Q208.9 82.0 208.5 82.3Q208.1 82.7 207.6 82.9Q207.1 83.1 206.4 83.1ZM204.4 79.2L204.4 79.2L208.1 79.2Q208.0 78.7 207.9 78.4L207.9 78.4Q207.7 77.9 207.3 77.6Q206.9 77.3 206.3 77.3Q205.7 77.3 205.3 77.6Q204.8 77.9 204.6 78.3L204.6 78.3Q204.4 78.7 204.4 79.2ZM210.6 74.3L211.7 74.3L211.7 83L210.6 83L210.6 74.3ZM216.2 83.1L216.2 83.1Q215.3 83.1 214.7 82.7Q214.0 82.3 213.6 81.5Q213.2 80.8 213.2 79.8L213.2 79.8Q213.2 78.7 213.6 78.0Q214.0 77.2 214.7 76.8Q215.3 76.4 216.2 76.4L216.2 76.4Q217.1 76.4 217.8 76.8Q218.5 77.2 218.8 78.0Q219.2 78.7 219.2 79.8L219.2 79.8Q219.2 80.8 218.8 81.5Q218.5 82.3 217.8 82.7Q217.1 83.1 216.2 83.1ZM216.2 82.2L216.2 82.2Q216.9 82.2 217.3 81.9Q217.7 81.5 217.9 81.0Q218.1 80.4 218.1 79.8L218.1 79.8Q218.1 79.1 217.9 78.6Q217.7 78.0 217.3 77.7Q216.9 77.3 216.2 77.3L216.2 77.3Q215.6 77.3 215.1 77.7Q214.7 78.0 214.5 78.6Q214.3 79.1 214.3 79.8L214.3 79.8Q214.3 80.4 214.5 81.0Q214.7 81.5 215.1 81.9Q215.6 82.2 216.2 82.2ZM221.8 85.4L220.7 85.4L220.7 76.4L221.8 76.4L221.8 77.5L221.9 77.5Q222.0 77.3 222.2 77.1Q222.4 76.8 222.8 76.6Q223.1 76.4 223.8 76.4L223.8 76.4Q224.6 76.4 225.2 76.8Q225.8 77.2 226.2 77.9Q226.6 78.7 226.6 79.7L226.6 79.7Q226.6 80.8 226.2 81.5Q225.9 82.3 225.2 82.7Q224.6 83.1 223.8 83.1L223.8 83.1Q223.2 83.1 222.8 82.9Q222.4 82.7 222.2 82.4Q222.0 82.2 221.9 82.0L221.9 82.0L221.8 82.0L221.8 85.4ZM223.6 82.2L223.6 82.2Q224.2 82.2 224.7 81.9Q225.1 81.5 225.3 81.0Q225.5 80.4 225.5 79.7L225.5 79.7Q225.5 79.1 225.3 78.5Q225.1 78.0 224.7 77.6Q224.3 77.3 223.6 77.3L223.6 77.3Q223.0 77.3 222.6 77.6Q222.2 77.9 222.0 78.5Q221.8 79.0 221.8 79.7L221.8 79.7Q221.8 80.5 222 81.0Q222.2 81.6 222.6 81.9Q223.0 82.2 223.6 82.2ZM230.8 83.1L230.8 83.1Q229.9 83.1 229.2 82.7Q228.5 82.3 228.1 81.5Q227.8 80.8 227.8 79.8Q227.8 78.8 228.1 78.0Q228.5 77.2 229.2 76.8Q229.8 76.4 230.7 76.4L230.7 76.4Q231.2 76.4 231.8 76.5Q232.3 76.7 232.7 77.1Q233.1 77.5 233.3 78.1Q233.6 78.7 233.6 79.6L233.6 79.6L233.6 80.1L228.8 80.1Q228.9 80.7 229.1 81.2L229.1 81.2Q229.3 81.7 229.8 81.9Q230.3 82.2 230.9 82.2L230.9 82.2Q231.2 82.2 231.6 82.1Q231.9 82.0 232.1 81.8Q232.3 81.5 232.5 81.2L232.5 81.2L233.5 81.5Q233.3 82.0 233.0 82.3Q232.6 82.7 232.1 82.9Q231.5 83.1 230.8 83.1ZM228.8 79.2L228.8 79.2L232.5 79.2Q232.5 78.7 232.3 78.4L232.3 78.4Q232.1 77.9 231.7 77.6Q231.3 77.3 230.7 77.3Q230.1 77.3 229.7 77.6Q229.3 77.9 229.1 78.3L229.1 78.3Q228.9 78.7 228.8 79.2ZM236.1 83L235.1 83L235.1 76.4L236.1 76.4L236.1 77.5L236.2 77.5Q236.4 77.0 236.8 76.7Q237.3 76.4 237.9 76.4L237.9 76.4Q238.0 76.4 238.2 76.4Q238.3 76.4 238.4 76.4L238.4 76.4L238.4 77.4Q238.4 77.4 238.2 77.4Q238.0 77.4 237.8 77.4L237.8 77.4Q237.3 77.4 236.9 77.6Q236.6 77.8 236.4 78.1Q236.1 78.5 236.1 78.9L236.1 78.9L236.1 83Z "/></g><mask id="satori_om-id-2"><rect x="589" y="46" width="182" height="39" fill="#fff"/></mask><mask id="satori_om-id-2-0"><rect x="589" y="46" width="38" height="39" fill="#fff"/></mask><mask id="satori_om-id-2-0-0"><rect x="589" y="46" width="38" height="27" fill="#fff"/></mask><g  ><path fill="#ffd700" d="M593.5 51.0L597.0 51.0L597.0 67L593.8 67L593.8 53.9L593.7 53.9L590.0 56.5L590.0 53.5L593.5 51.0ZM611.1 67L599.8 67L599.8 64.6L605.5 59.3Q606.2 58.6 606.7 58.0Q607.2 57.5 607.5 56.9Q607.7 56.4 607.7 55.7L607.7 55.7Q607.7 55.0 607.4 54.5Q607.1 54.0 606.5 53.7Q606.0 53.4 605.3 53.4L605.3 53.4Q604.5 53.4 604.0 53.7Q603.4 54.0 603.1 54.6Q602.8 55.1 602.8 55.9L602.8 55.9L599.7 55.9Q599.7 54.3 600.4 53.2Q601.1 52.0 602.4 51.4Q603.6 50.8 605.3 50.8L605.3 50.8Q607.0 50.8 608.3 51.4Q609.5 52.0 610.2 53.1Q610.9 54.1 610.9 55.5L610.9 55.5Q610.9 56.4 610.6 57.3Q610.2 58.1 609.3 59.2Q608.4 60.3 606.8 61.8L606.8 61.8L604.4 64.2L604.4 64.3L611.1 64.3L611.1 67ZM619.5 67.2L619.5 67.2Q617.7 67.2 616.3 66.6Q614.9 66.0 614.1 65.0Q613.4 64.0 613.4 62.7L613.4 62.7Q613.4 61.7 613.8 60.9Q614.3 60.0 615.0 59.5Q615.8 58.9 616.8 58.7L616.8 58.7L616.8 58.6Q615.5 58.4 614.7 57.4Q613.9 56.4 613.9 55.1L613.9 55.1Q613.9 53.8 614.7 52.9Q615.4 51.9 616.6 51.3Q617.9 50.8 619.5 50.8L619.5 50.8Q621.1 50.8 622.4 51.3Q623.6 51.9 624.3 52.9Q625.1 53.8 625.1 55.1L625.1 55.1Q625.1 56.4 624.3 57.4Q623.5 58.4 622.2 58.6L622.2 58.6L622.2 58.7Q623.2 58.9 623.9 59.5Q624.7 60.0 625.2 60.9Q625.7 61.7 625.7 62.7L625.7 62.7Q625.7 64.0 624.9 65.0Q624.1 66.0 622.7 66.6Q621.3 67.2 619.5 67.2ZM619.5 64.8L619.5 64.8Q620.3 64.8 620.9 64.5Q621.5 64.2 621.9 63.7Q622.2 63.1 622.2 62.4L622.2 62.4Q622.2 61.7 621.9 61.2Q621.5 60.7 620.9 60.3Q620.3 60.0 619.5 60.0L619.5 60.0Q618.7 60.0 618.1 60.3Q617.5 60.6 617.1 61.2Q616.8 61.7 616.8 62.4L616.8 62.4Q616.8 63.1 617.1 63.7Q617.4 64.2 618.1 64.5Q618.7 64.8 619.5 64.8ZM619.5 57.6L619.5 57.6Q620.2 57.6 620.7 57.3Q621.2 57.1 621.6 56.6Q621.9 56.1 621.9 55.4L621.9 55.4Q621.9 54.8 621.6 54.3Q621.3 53.8 620.7 53.6Q620.2 53.3 619.5 53.3L619.5 53.3Q618.8 53.3 618.3 53.6Q617.7 53.8 617.4 54.3Q617.1 54.8 617.1 55.4L617.1 55.4Q617.1 56.1 617.4 56.6Q617.7 57.1 618.3 57.3Q618.8 57.6 619.5 57.6Z "/></g><mask id="satori_om-id-2-0-1"><rect x="589" y="73" width="38" height="12" fill="#fff"/></mask><g  ><path fill="#44448a" d="M592.2 83.1L592.2 83.1Q591.4 83.1 590.8 82.9Q590.3 82.6 589.9 82.2Q589.6 81.7 589.6 81.1L589.6 81.1L590.5 81.1Q590.6 81.5 590.8 81.8Q591.0 82.0 591.4 82.2Q591.8 82.3 592.2 82.3L592.2 82.3Q592.7 82.3 593.1 82.1Q593.5 82.0 593.7 81.7Q593.9 81.4 593.9 81.0L593.9 81.0Q593.9 80.7 593.7 80.4Q593.6 80.2 593.2 80.1Q592.9 79.9 592.5 79.8L592.5 79.8L591.6 79.6Q590.7 79.3 590.3 78.9Q589.8 78.4 589.8 77.7L589.8 77.7Q589.8 77.1 590.1 76.6Q590.4 76.1 591.0 75.9Q591.6 75.6 592.3 75.6L592.3 75.6Q593.0 75.6 593.5 75.9Q594.1 76.1 594.4 76.6Q594.7 77.0 594.8 77.6L594.8 77.6L593.8 77.6Q593.8 77.0 593.3 76.7Q592.9 76.4 592.2 76.4L592.2 76.4Q591.8 76.4 591.4 76.6Q591.1 76.8 590.9 77.0Q590.7 77.3 590.7 77.6L590.7 77.6Q590.7 78.0 590.9 78.2Q591.1 78.5 591.5 78.6Q591.8 78.7 592.1 78.8L592.1 78.8L592.8 79.0Q593.1 79.1 593.4 79.2Q593.8 79.4 594.1 79.6Q594.4 79.8 594.6 80.2Q594.8 80.5 594.8 81.0L594.8 81.0Q594.8 81.6 594.5 82.1Q594.2 82.6 593.6 82.8Q593.0 83.1 592.2 83.1ZM599.2 76.5L596.9 76.5L596.9 75.7L602.4 75.7L602.4 76.5L600.1 76.5L600.1 83L599.2 83L599.2 76.5ZM605.1 83L604.1 83L606.8 75.7L607.8 75.7L610.5 83L609.5 83L608.8 81.0L605.8 81.0L605.1 83ZM606.1 80.2L608.5 80.2L608.0 78.7Q607.9 78.3 607.7 77.7L607.7 77.7Q607.5 77.2 607.3 76.5L607.3 76.5Q607.1 77.2 606.9 77.7L606.9 77.7Q606.7 78.3 606.6 78.7L606.6 78.7L606.1 80.2ZM613.6 83L612.6 83L612.6 75.7L615.1 75.7Q616.0 75.7 616.5 76.0Q617.1 76.3 617.4 76.8Q617.6 77.3 617.6 78.0Q617.6 78.6 617.4 79.1Q617.1 79.6 616.5 79.9L616.5 79.9Q616.4 80.0 616.3 80.0L616.3 80.0L617.9 83L616.8 83L615.3 80.2Q615.2 80.2 615.1 80.2L615.1 80.2L613.6 80.2L613.6 83ZM613.6 76.5L613.6 79.4L615.1 79.4Q615.7 79.4 616.0 79.2Q616.4 79.0 616.5 78.7Q616.7 78.4 616.7 78.0L616.7 78.0Q616.7 77.5 616.5 77.2Q616.4 76.9 616.0 76.7Q615.7 76.5 615.1 76.5L615.1 76.5L613.6 76.5ZM622.4 83.1L622.4 83.1Q621.6 83.1 621.0 82.9Q620.5 82.6 620.1 82.2Q619.8 81.7 619.8 81.1L619.8 81.1L620.7 81.1Q620.8 81.5 621.0 81.8Q621.2 82.0 621.6 82.2Q622.0 82.3 622.4 82.3L622.4 82.3Q622.9 82.3 623.3 82.1Q623.7 82.0 623.9 81.7Q624.2 81.4 624.2 81.0L624.2 81.0Q624.2 80.7 624.0 80.4Q623.8 80.2 623.4 80.1Q623.1 79.9 622.7 79.8L622.7 79.8L621.8 79.6Q621.0 79.3 620.5 78.9Q620.0 78.4 620.0 77.7L620.0 77.7Q620.0 77.1 620.3 76.6Q620.6 76.1 621.2 75.9Q621.8 75.6 622.5 75.6L622.5 75.6Q623.2 75.6 623.7 75.9Q624.3 76.1 624.6 76.6Q624.9 77.0 625.0 77.6L625.0 77.6L624.0 77.6Q624.0 77.0 623.5 76.7Q623.1 76.4 622.4 76.4L622.4 76.4Q622.0 76.4 621.6 76.6Q621.3 76.8 621.1 77.0Q620.9 77.3 620.9 77.6L620.9 77.6Q620.9 78.0 621.1 78.2Q621.4 78.5 621.7 78.6Q622.0 78.7 622.3 78.8L622.3 78.8L623.0 79.0Q623.3 79.1 623.6 79.2Q624.0 79.4 624.3 79.6Q624.6 79.8 624.8 80.2Q625.1 80.5 625.1 81.0L625.1 81.0Q625.1 81.6 624.7 82.1Q624.4 82.6 623.8 82.8Q623.3 83.1 622.4 83.1Z "/></g><mask id="satori_om-id-2-1"><rect x="639" y="46" width="1" height="39" fill="#fff"/></mask><rect x="639" y="46" width="1" height="39" fill="#1c1c4e"/><mask id="satori_om-id-2-2"><rect x="652" y="46" width="56" height="39" fill="#fff"/></mask><mask id="satori_om-id-2-2-0"><rect x="655" y="46" width="51" height="27" fill="#fff"/></mask><g  ><path fill="#00e5ff" d="M659.5 51.0L663.0 51.0L663.0 67L659.8 67L659.8 53.9L659.7 53.9L656.0 56.5L656.0 53.5L659.5 51.0ZM671.2 67.2L671.2 67.2Q669.6 67.2 668.3 66.6Q667.0 66.0 666.3 64.9Q665.5 63.9 665.5 62.5L665.5 62.5L668.7 62.5Q668.7 63.1 669.1 63.6Q669.4 64.1 670.0 64.4Q670.6 64.6 671.2 64.6L671.2 64.6Q672.0 64.6 672.7 64.3Q673.3 63.9 673.6 63.3Q674.0 62.6 674.0 61.8L674.0 61.8Q674.0 60.9 673.6 60.2Q673.3 59.6 672.6 59.2Q672.0 58.9 671.2 58.9L671.2 58.9Q670.5 58.9 669.8 59.1Q669.1 59.4 668.8 59.9L668.8 59.9L665.8 59.4L666.6 51.0L676.3 51.0L676.3 53.7L669.3 53.7L668.9 57.8L669.0 57.8Q669.4 57.2 670.3 56.8Q671.1 56.4 672.1 56.4L672.1 56.4Q673.2 56.4 674.1 56.8Q675.1 57.2 675.7 57.9Q676.4 58.6 676.8 59.6Q677.2 60.5 677.2 61.7L677.2 61.7Q677.2 63.3 676.4 64.5Q675.7 65.8 674.3 66.5Q673.0 67.2 671.2 67.2ZM686.9 64.2L679.3 64.2L679.3 61.6L685.9 51.0L690.1 51.0L690.1 61.5L692.1 61.5L692.1 64.2L690.1 64.2L690.1 67L686.9 67L686.9 64.2ZM682.6 61.5L687.0 61.5L687.0 54.6L686.9 54.6L682.6 61.4L682.6 61.5ZM698.4 67L695.0 67L701.6 53.8L701.6 53.7L693.9 53.7L693.9 51.0L705.0 51.0L705.0 53.7L698.4 67Z "/></g><mask id="satori_om-id-2-2-1"><rect x="652" y="73" width="56" height="12" fill="#fff"/></mask><g  ><path fill="#44448a" d="M655.8 83.1L655.8 83.1Q654.9 83.1 654.2 82.6Q653.4 82.2 653.0 81.4Q652.6 80.5 652.6 79.4L652.6 79.4Q652.6 78.2 653.0 77.4Q653.4 76.5 654.2 76.1Q654.9 75.6 655.8 75.6L655.8 75.6Q656.4 75.6 656.9 75.8Q657.4 75.9 657.7 76.3Q658.1 76.6 658.4 77.0Q658.7 77.5 658.8 78.0L658.8 78.0L657.8 78.0Q657.8 77.6 657.6 77.4Q657.4 77.1 657.1 76.9Q656.8 76.7 656.5 76.6Q656.2 76.5 655.8 76.5L655.8 76.5Q655.2 76.5 654.6 76.8Q654.1 77.2 653.8 77.8Q653.5 78.4 653.5 79.4L653.5 79.4Q653.5 80.3 653.8 80.9Q654.1 81.6 654.6 81.9Q655.2 82.2 655.8 82.2L655.8 82.2Q656.2 82.2 656.5 82.1Q656.8 82.0 657.1 81.8Q657.4 81.7 657.6 81.4Q657.8 81.1 657.8 80.7L657.8 80.7L658.8 80.7Q658.7 81.3 658.4 81.7Q658.1 82.1 657.8 82.5Q657.4 82.8 656.9 82.9Q656.4 83.1 655.8 83.1ZM664.1 83.1L664.1 83.1Q663.2 83.1 662.5 82.6Q661.7 82.2 661.3 81.4Q660.9 80.5 660.9 79.4L660.9 79.4Q660.9 78.2 661.3 77.4Q661.7 76.5 662.5 76.1Q663.2 75.6 664.1 75.6L664.1 75.6Q665.1 75.6 665.8 76.1Q666.5 76.5 666.9 77.4Q667.4 78.2 667.4 79.4L667.4 79.4Q667.4 80.5 666.9 81.4Q666.5 82.2 665.8 82.6Q665.1 83.1 664.1 83.1ZM664.1 82.2L664.1 82.2Q664.8 82.2 665.3 81.9Q665.8 81.6 666.1 80.9Q666.5 80.3 666.5 79.4L666.5 79.4Q666.5 78.4 666.1 77.8Q665.8 77.1 665.3 76.8Q664.8 76.5 664.1 76.5L664.1 76.5Q663.5 76.5 663.0 76.8Q662.4 77.2 662.1 77.8Q661.8 78.4 661.8 79.4L661.8 79.4Q661.8 80.3 662.1 80.9Q662.4 81.6 663.0 81.9Q663.5 82.2 664.1 82.2ZM670.7 83L669.8 83L669.8 75.7L671.1 75.7L672.9 80.3Q673.0 80.5 673.1 80.7Q673.2 81.0 673.3 81.2Q673.3 81.5 673.4 81.8L673.4 81.8Q673.5 81.9 673.5 82.0L673.5 82.0Q673.5 81.9 673.5 81.8L673.5 81.8Q673.6 81.5 673.7 81.3Q673.8 81.0 673.9 80.7Q674.0 80.5 674.0 80.3L674.0 80.3L675.8 75.7L677.1 75.7L677.1 83L676.2 83L676.2 78.8Q676.2 78.6 676.2 78.3Q676.2 78.0 676.2 77.7Q676.2 77.4 676.2 77.1L676.2 77.1Q676.2 76.9 676.2 76.7L676.2 76.7Q676.2 76.9 676.1 77.1L676.1 77.1Q676.0 77.5 675.9 77.8Q675.8 78.1 675.7 78.4Q675.6 78.7 675.5 78.8L675.5 78.8L673.9 83L673.1 83L671.4 78.8Q671.3 78.7 671.3 78.4Q671.2 78.2 671.0 77.8Q670.9 77.5 670.8 77.2L670.8 77.2Q670.8 76.9 670.7 76.7L670.7 76.7Q670.7 76.9 670.7 77.0L670.7 77.0Q670.7 77.4 670.7 77.7Q670.7 78.0 670.7 78.3Q670.7 78.6 670.7 78.8L670.7 78.8L670.7 83ZM680.7 83L679.9 83L679.9 75.7L681.2 75.7L683.0 80.3Q683.0 80.5 683.1 80.7Q683.2 81.0 683.3 81.2Q683.4 81.5 683.5 81.8L683.5 81.8Q683.5 81.9 683.5 82.0L683.5 82.0Q683.5 81.9 683.6 81.8L683.6 81.8Q683.6 81.5 683.7 81.3Q683.8 81.0 683.9 80.7Q684.0 80.5 684.0 80.3L684.0 80.3L685.8 75.7L687.1 75.7L687.1 83L686.2 83L686.2 78.8Q686.2 78.6 686.2 78.3Q686.2 78.0 686.2 77.7Q686.2 77.4 686.3 77.1L686.3 77.1Q686.3 76.9 686.3 76.7L686.3 76.7Q686.2 76.9 686.1 77.1L686.1 77.1Q686.0 77.5 685.9 77.8Q685.8 78.1 685.7 78.4Q685.6 78.7 685.5 78.8L685.5 78.8L683.9 83L683.1 83L681.4 78.8Q681.4 78.7 681.3 78.4Q681.2 78.2 681.1 77.8Q681.0 77.5 680.9 77.2L680.9 77.2Q680.8 76.9 680.7 76.7L680.7 76.7Q680.7 76.9 680.7 77.0L680.7 77.0Q680.7 77.4 680.7 77.7Q680.7 78.0 680.7 78.3Q680.7 78.6 680.7 78.8L680.7 78.8L680.7 83ZM689.9 75.7L690.8 75.7L690.8 83L689.9 83L689.9 75.7ZM695.5 76.5L693.2 76.5L693.2 75.7L698.7 75.7L698.7 76.5L696.4 76.5L696.4 83L695.5 83L695.5 76.5ZM703.4 83.1L703.4 83.1Q702.6 83.1 702.0 82.9Q701.4 82.6 701.1 82.2Q700.8 81.7 700.7 81.1L700.7 81.1L701.7 81.1Q701.7 81.5 702.0 81.8Q702.2 82.0 702.6 82.2Q702.9 82.3 703.4 82.3L703.4 82.3Q703.9 82.3 704.3 82.1Q704.6 82.0 704.9 81.7Q705.1 81.4 705.1 81.0L705.1 81.0Q705.1 80.7 704.9 80.4Q704.7 80.2 704.4 80.1Q704.1 79.9 703.7 79.8L703.7 79.8L702.8 79.6Q701.9 79.3 701.4 78.9Q700.9 78.4 700.9 77.7L700.9 77.7Q700.9 77.1 701.3 76.6Q701.6 76.1 702.2 75.9Q702.7 75.6 703.4 75.6L703.4 75.6Q704.1 75.6 704.7 75.9Q705.3 76.1 705.6 76.6Q705.9 77.0 705.9 77.6L705.9 77.6L705.0 77.6Q704.9 77.0 704.5 76.7Q704.0 76.4 703.4 76.4L703.4 76.4Q702.9 76.4 702.6 76.6Q702.2 76.8 702.0 77.0Q701.8 77.3 701.8 77.6L701.8 77.6Q701.8 78.0 702.1 78.2Q702.3 78.5 702.6 78.6Q703.0 78.7 703.2 78.8L703.2 78.8L703.9 79.0Q704.2 79.1 704.6 79.2Q704.9 79.4 705.3 79.6Q705.6 79.8 705.8 80.2Q706.0 80.5 706.0 81.0L706.0 81.0Q706.0 81.6 705.7 82.1Q705.4 82.6 704.8 82.8Q704.2 83.1 703.4 83.1Z "/></g><mask id="satori_om-id-2-3"><rect x="720" y="46" width="1" height="39" fill="#fff"/></mask><rect x="720" y="46" width="1" height="39" fill="#1c1c4e"/><mask id="satori_om-id-2-4"><rect x="733" y="46" width="38" height="39" fill="#fff"/></mask><mask id="satori_om-id-2-4-0"><rect x="738" y="46" width="28" height="27" fill="#fff"/></mask><g  ><path fill="#a78bfa" d="M750.7 67L739.3 67L739.3 64.6L745.0 59.3Q745.7 58.6 746.2 58.0Q746.7 57.5 747.0 56.9Q747.3 56.4 747.3 55.7L747.3 55.7Q747.3 55.0 746.9 54.5Q746.6 54.0 746.1 53.7Q745.5 53.4 744.8 53.4L744.8 53.4Q744.0 53.4 743.5 53.7Q742.9 54.0 742.6 54.6Q742.3 55.1 742.3 55.9L742.3 55.9L739.2 55.9Q739.2 54.3 739.9 53.2Q740.6 52.0 741.9 51.4Q743.1 50.8 744.8 50.8L744.8 50.8Q746.5 50.8 747.8 51.4Q749.0 52.0 749.7 53.1Q750.4 54.1 750.4 55.5L750.4 55.5Q750.4 56.4 750.1 57.3Q749.7 58.1 748.8 59.2Q747.9 60.3 746.3 61.8L746.3 61.8L743.9 64.2L743.9 64.3L750.7 64.3L750.7 67ZM758.6 67.2L758.6 67.2Q757.0 67.2 755.7 66.6Q754.4 66.0 753.6 64.9Q752.9 63.9 752.9 62.5L752.9 62.5L756.1 62.5Q756.1 63.1 756.4 63.6Q756.8 64.1 757.4 64.4Q757.9 64.6 758.6 64.6L758.6 64.6Q759.4 64.6 760.0 64.3Q760.6 63.9 761.0 63.3Q761.4 62.6 761.4 61.8L761.4 61.8Q761.4 60.9 761.0 60.2Q760.6 59.6 760.0 59.2Q759.4 58.9 758.5 58.9L758.5 58.9Q757.8 58.9 757.2 59.1Q756.5 59.4 756.1 59.9L756.1 59.9L753.2 59.4L754.0 51.0L763.7 51.0L763.7 53.7L756.7 53.7L756.3 57.8L756.4 57.8Q756.8 57.2 757.6 56.8Q758.5 56.4 759.5 56.4L759.5 56.4Q760.6 56.4 761.5 56.8Q762.4 57.2 763.1 57.9Q763.8 58.6 764.2 59.6Q764.5 60.5 764.5 61.7L764.5 61.7Q764.5 63.3 763.8 64.5Q763.0 65.8 761.7 66.5Q760.4 67.2 758.6 67.2Z "/></g><mask id="satori_om-id-2-4-1"><rect x="733" y="73" width="38" height="12" fill="#fff"/></mask><g  ><path fill="#44448a" d="M734.8 83L733.9 83L733.9 75.7L736.4 75.7Q737.2 75.7 737.8 76.0Q738.3 76.3 738.6 76.8Q738.8 77.3 738.8 78.0Q738.8 78.6 738.6 79.1Q738.3 79.6 737.8 79.9L737.8 79.9Q737.6 80.0 737.5 80.0L737.5 80.0L739.1 83L738.1 83L736.5 80.2Q736.5 80.2 736.4 80.2L736.4 80.2L734.8 80.2L734.8 83ZM734.8 76.5L734.8 79.4L736.3 79.4Q736.9 79.4 737.3 79.2Q737.6 79.0 737.8 78.7Q737.9 78.4 737.9 78.0L737.9 78.0Q737.9 77.5 737.8 77.2Q737.6 76.9 737.3 76.7Q736.9 76.5 736.3 76.5L736.3 76.5L734.8 76.5ZM745.8 83L741.3 83L741.3 75.7L745.7 75.7L745.7 76.5L742.2 76.5L742.2 78.9L745.5 78.9L745.5 79.7L742.2 79.7L742.2 82.2L745.8 82.2L745.8 83ZM749.3 83L748.3 83L748.3 75.7L750.8 75.7Q751.7 75.7 752.2 76.0Q752.8 76.3 753.0 76.9Q753.3 77.4 753.3 78.0Q753.3 78.7 753.0 79.2Q752.8 79.7 752.2 80.1Q751.7 80.4 750.8 80.4L750.8 80.4L749.3 80.4L749.3 83ZM749.3 76.5L749.3 79.6L750.8 79.6Q751.4 79.6 751.7 79.4Q752.1 79.2 752.2 78.8Q752.4 78.5 752.4 78.0Q752.4 77.6 752.2 77.3Q752.1 76.9 751.7 76.7Q751.3 76.5 750.8 76.5L750.8 76.5L749.3 76.5ZM758.7 83.1L758.7 83.1Q757.7 83.1 757.0 82.6Q756.3 82.2 755.8 81.4Q755.4 80.5 755.4 79.4L755.4 79.4Q755.4 78.2 755.8 77.4Q756.3 76.5 757.0 76.1Q757.7 75.6 758.7 75.6L758.7 75.6Q759.6 75.6 760.3 76.1Q761.0 76.5 761.5 77.4Q761.9 78.2 761.9 79.4L761.9 79.4Q761.9 80.5 761.5 81.4Q761.0 82.2 760.3 82.6Q759.6 83.1 758.7 83.1ZM758.7 82.2L758.7 82.2Q759.3 82.2 759.8 81.9Q760.4 81.6 760.7 80.9Q761.0 80.3 761.0 79.4L761.0 79.4Q761.0 78.4 760.7 77.8Q760.4 77.1 759.8 76.8Q759.3 76.5 758.7 76.5L758.7 76.5Q758.0 76.5 757.5 76.8Q757.0 77.2 756.6 77.8Q756.3 78.4 756.3 79.4L756.3 79.4Q756.3 80.3 756.6 80.9Q757.0 81.6 757.5 81.9Q758.0 82.2 758.7 82.2ZM766.7 83.1L766.7 83.1Q765.9 83.1 765.3 82.9Q764.7 82.6 764.4 82.2Q764.1 81.7 764.0 81.1L764.0 81.1L765.0 81.1Q765.0 81.5 765.3 81.8Q765.5 82.0 765.9 82.2Q766.3 82.3 766.7 82.3L766.7 82.3Q767.2 82.3 767.6 82.1Q768.0 82.0 768.2 81.7Q768.4 81.4 768.4 81.0L768.4 81.0Q768.4 80.7 768.2 80.4Q768.0 80.2 767.7 80.1Q767.4 79.9 767.0 79.8L767.0 79.8L766.1 79.6Q765.2 79.3 764.7 78.9Q764.3 78.4 764.3 77.7L764.3 77.7Q764.3 77.1 764.6 76.6Q764.9 76.1 765.5 75.9Q766.0 75.6 766.8 75.6L766.8 75.6Q767.5 75.6 768.0 75.9Q768.6 76.1 768.9 76.6Q769.2 77.0 769.2 77.6L769.2 77.6L768.3 77.6Q768.3 77.0 767.8 76.7Q767.4 76.4 766.7 76.4L766.7 76.4Q766.3 76.4 765.9 76.6Q765.5 76.8 765.3 77.0Q765.2 77.3 765.2 77.6L765.2 77.6Q765.2 78.0 765.4 78.2Q765.6 78.5 766.0 78.6Q766.3 78.7 766.5 78.8L766.5 78.8L767.3 79.0Q767.6 79.1 767.9 79.2Q768.3 79.4 768.6 79.6Q768.9 79.8 769.1 80.2Q769.3 80.5 769.3 81.0L769.3 81.0Q769.3 81.6 769.0 82.1Q768.7 82.6 768.1 82.8Q767.5 83.1 766.7 83.1Z "/></g></svg>