<!-- Generated by readme-aura https://github.com/collectioneur/readme-aura -->
<svg width="800" height="100" viewBox="0 0 800 100" xmlns="http://www.w3.org/2000/svg"><defs><clipPath id="satori_bc-id"><path x="0" y="0" width="800" height="100" d="M16,0 h768 a16,16 0 0 1 16,16 v68 a16,16 0 0 1 -16,16 h-768 a16,16 0 0 1 -16,-16 v-68 a16,16 0 0 1 16,-16"/></clipPath></defs><clipPath id="satori_cp-id"><path x="0" y="0" width="800" height="100" d="M16,0 h768 a16,16 0 0 1 16,16 v68 a16,16 0 0 1 -16,16 h-768 a16,16 0 0 1 -16,-16 v-68 a16,16 0 0 1 16,-16"/></clipPath><mask id="satori_om-id"><rect x="1" y="1" width="798" height="98" fill="#fff"/><path width="800" height="100" fill="none" stroke="#000" stroke-width="2" d="M4.686,4.686 A16,16 0 0 1 16,0 h768 a16,16 0 0 1 16,16 v68 a16,16 0 0 1 -16,16 h-768 a16,16 0 0 1 -16,-16 v-68 A16,16 0 0 1 4.686,4.686"/></mask><path x="0" y="0" width="800" height="100" fill="#06060a" d="M16,0 h768 a16,16 0 0 1 16,16 v68 a16,16 0 0 1 -16,16 h-768 a16,16 0 0 1 -16,-16 v-68 a16,16 0 0 1 16,-16"/><path width="800" height="100" clip-path="url(#satori_bc-id)" fill="none" stroke="rgba(110,80,220,0.15)" stroke-width="2" d="M4.686,4.686 A16,16 0 0 1 16,0 h768 a16,16 0 0 1 16,16 v68 a16,16 0 0 1 -16,16 h-768 a16,16 0 0 1 -16,-16 v-68 A16,16 0 0 1 4.686,4.686"/><clipPath id="satori_cp-id-0" clip-path="url(#satori_cp-id)"><rect x="1" y="1" width="800" height="100"/></clipPath><mask id="satori_om-id-0"><rect x="1" y="1" width="800" height="100" fill="#fff" mask="url(#satori_om-id)"/></mask><svg x="1" y="1" width="800" height="100" preserveAspectRatio="none" clip-path="url(#satori_cp-id-0)" mask="url(#satori_om-id-0)"><defs><radialGradient id="stg1" cx="50%" cy="50%" r="50%"><stop offset="0%" stop-color="rgba(120,40,220,0.5)"></stop><stop offset="100%" stop-color="rgba(120,40,220,0)"></stop></radialGradient><linearGradient id="st-scg" x1="0%" y1="0%" x2="100%" y2="0%"><stop offset="0%" stop-color="rgba(120,200,255,0)"></stop><stop offset="45%" stop-color="rgba(120,200,255,0.12)"></stop><stop offset="50%" stop-color="rgba(180,120,255,0.3)"></stop><stop offset="55%" stop-color="rgba(120,200,255,0.12)"></stop><stop offset="100%" stop-color="rgba(120,200,255,0)"></stop></linearGradient></defs><ellipse id="stat-g1" cx="400" cy="50" rx="250" ry="60" fill="url(#stg1)"></ellipse><rect id="stat-scan1" x="0" y="50" width="160" height="1" fill="url(#st-scg)"></rect><style>

      @keyframes stat-drift-r { 0%, 100% { transform: translate(0, 0); opacity: 0.7; } 50% { transform: translate(25px, -12px); opacity: 1; } }
      @keyframes stat-scan { 0% { transform: translate(-900px, 0); } 100% { transform: translate(900px, 0); } }
      #stat-g1 { animation: stat-drift-r 7s ease-in-out infinite; }
      #stat-scan1 { animation: stat-scan 4s linear infinite; }
    
</style>
</svg><mask id="satori_om-id-0-0"><rect x="1" y="1" width="0" height="100" fill="#fff" mask="url(#satori_om-id)"/></mask><mask id="satori_om-id-0-0-0"><rect x="1" y="1" width="0" height="100" fill="#fff" mask="url(#satori_om-id)"/></mask><mask id="satori_om-id-0-0-0-0"><rect x="1" y="1" width="0" height="100" fill="#fff" mask="url(#satori_om-id)"/></mask><mask id="satori_om-id-0-0-0-1"><rect x="1" y="1" width="0" height="100" fill="#fff" mask="url(#satori_om-id)"/></mask><mask id="satori_om-id-0-0-1"><rect x="1" y="1" width="0" height="100" fill="#fff" mask="url(#satori_om-id)"/></mask><mask id="satori_om-id-0-0-1-0"><rect x="1" y="1" width="0" height="100" fill="#fff" mask="url(#satori_om-id)"/></mask><mask id="satori_om-id-0-0-1-1"><rect x="1" y="1" width="0" height="100" fill="#fff" mask="url(#satori_om-id)"/></mask><mask id="satori_om-id-0-0-1-2"><rect x="1" y="1" width="0" height="100" fill="#fff" mask="url(#satori_om-id)"/></mask><mask id="satori_om-id-0-0-1-3"><rect x="1" y="1" width="0" height="100" fill="#fff" mask="url(#satori_om-id)"/></mask><mask id="satori_om-id-0-0-1-4"><rect x="1" y="1" width="0" height="100" fill="#fff" mask="url(#satori_om-id)"/></mask><mask id="satori_om-id-0-1"><rect x="1" y="1" width="0" height="100" fill="#fff" mask="url(#satori_om-id)"/></mask><mask id="satori_om-id-0-2"><rect x="1" y="1" width="0" height="100" fill="#fff" mask="url(#satori_om-id)"/></mask><mask id="satori_om-id-1"><rect x="211" y="28" width="379" height="45" fill="#fff" mask="url(#satori_om-id)"/></mask><mask id="satori_om-id-1-0"><rect x="211" y="28" width="44" height="45" fill="#fff" mask="url(#satori_om-id)"/></mask><mask id="satori_om-id-1-0-0"><rect x="212" y="28" width="42" height="29" fill="#fff" mask="url(#satori_om-id)"/></mask><g mask="url(#satori_om-id)" clip-path="url(#satori_cp-id)"><path fill="#ffffff" d="M216.9 33.5L220.8 33.5L220.8 51L217.2 51L217.2 36.7L217.1 36.7L213.1 39.5L213.1 36.2L216.9 33.5ZM236.2 51L223.8 51L223.8 48.4L230.0 42.6Q230.8 41.8 231.3 41.2Q231.9 40.6 232.2 40.0Q232.4 39.4 232.4 38.7L232.4 38.7Q232.4 37.9 232.1 37.3Q231.7 36.8 231.1 36.5Q230.5 36.2 229.7 36.2L229.7 36.2Q228.9 36.2 228.3 36.5Q227.7 36.8 227.4 37.4Q227.1 38.0 227.1 38.9L227.1 38.9L223.6 38.9Q223.6 37.2 224.4 35.9Q225.2 34.7 226.6 34.0Q228.0 33.3 229.8 33.3L229.8 33.3Q231.6 33.3 233 34.0Q234.4 34.6 235.2 35.8Q235.9 36.9 235.9 38.5L235.9 38.5Q235.9 39.4 235.5 40.4Q235.2 41.3 234.2 42.5Q233.2 43.7 231.4 45.3L231.4 45.3L228.8 47.9L228.8 48.1L236.2 48.1L236.2 51ZM245.3 51.2L245.3 51.2Q243.3 51.2 241.8 50.6Q240.3 49.9 239.4 48.8Q238.6 47.7 238.6 46.3L238.6 46.3Q238.6 45.2 239.1 44.3Q239.6 43.4 240.4 42.8Q241.3 42.2 242.3 42.0L242.3 42.0L242.3 41.9Q240.9 41.6 240.1 40.5Q239.2 39.4 239.2 38.0L239.2 38.0Q239.2 36.6 240.0 35.6Q240.8 34.5 242.1 33.9Q243.5 33.3 245.3 33.3L245.3 33.3Q247.0 33.3 248.4 33.9Q249.8 34.5 250.6 35.6Q251.4 36.6 251.4 38.0L251.4 38.0Q251.4 39.4 250.5 40.5Q249.6 41.6 248.2 41.9L248.2 41.9L248.2 42.0Q249.3 42.2 250.1 42.8Q251.0 43.4 251.5 44.3Q252.0 45.2 252.0 46.3L252.0 46.3Q252.0 47.7 251.1 48.8Q250.3 49.9 248.7 50.6Q247.2 51.2 245.3 51.2ZM245.3 48.6L245.3 48.6Q246.2 48.6 246.8 48.3Q247.5 47.9 247.9 47.4Q248.3 46.8 248.3 46.0L248.3 46.0Q248.3 45.3 247.9 44.7Q247.5 44.1 246.8 43.7Q246.1 43.4 245.3 43.4L245.3 43.4Q244.4 43.4 243.7 43.7Q243.1 44.1 242.7 44.7Q242.3 45.2 242.3 46.0L242.3 46.0Q242.3 46.8 242.7 47.4Q243.0 47.9 243.7 48.3Q244.4 48.6 245.3 48.6ZM245.3 40.8L245.3 40.8Q246.0 40.8 246.6 40.5Q247.2 40.1 247.5 39.6Q247.8 39.1 247.8 38.4L247.8 38.4Q247.8 37.7 247.5 37.1Q247.2 36.6 246.6 36.3Q246.0 36.0 245.3 36.0L245.3 36.0Q244.5 36.0 243.9 36.3Q243.3 36.6 243.0 37.1Q242.7 37.7 242.7 38.4L242.7 38.4Q242.7 39.1 243.0 39.6Q243.3 40.1 243.9 40.5Q244.5 40.8 245.3 40.8Z "/></g><mask id="satori_om-id-1-0-1"><rect x="211" y="61" width="44" height="12" fill="#fff" mask="url(#satori_om-id)"/></mask><g mask="url(#satori_om-id)" clip-path="url(#satori_cp-id)"><path fill="#b8860b" d="M214.3 71.1L214.3 71.1Q213.5 71.1 212.8 70.8Q212.2 70.6 211.8 70.0Q211.4 69.5 211.4 68.7L211.4 68.7L212.9 68.7Q212.9 69.1 213.1 69.4Q213.3 69.6 213.6 69.7Q213.9 69.8 214.3 69.8L214.3 69.8Q214.7 69.8 215.0 69.7Q215.3 69.6 215.5 69.4Q215.6 69.2 215.6 68.9L215.6 68.9Q215.6 68.7 215.5 68.5Q215.3 68.3 215.1 68.2Q214.8 68.1 214.4 68.0L214.4 68.0L213.6 67.8Q212.7 67.6 212.1 67.1Q211.6 66.6 211.6 65.8L211.6 65.8Q211.6 65.2 212.0 64.7Q212.3 64.2 212.9 63.9Q213.6 63.6 214.3 63.6L214.3 63.6Q215.2 63.6 215.8 63.9Q216.4 64.2 216.7 64.7Q217.0 65.2 217.0 65.8L217.0 65.8L215.6 65.8Q215.6 65.4 215.2 65.1Q214.9 64.9 214.3 64.9L214.3 64.9Q214.0 64.9 213.7 65.0Q213.4 65.1 213.3 65.3Q213.1 65.5 213.1 65.7L213.1 65.7Q213.1 66.0 213.3 66.2Q213.5 66.3 213.7 66.5Q214.0 66.6 214.3 66.6L214.3 66.6L215.0 66.8Q215.4 66.9 215.8 67.1Q216.2 67.3 216.5 67.5Q216.8 67.8 217.0 68.1Q217.1 68.5 217.1 68.9L217.1 68.9Q217.1 69.6 216.8 70.1Q216.5 70.6 215.8 70.8Q215.2 71.1 214.3 71.1ZM222.1 65.0L219.9 65.0L219.9 63.7L225.9 63.7L225.9 65.0L223.6 65.0L223.6 71L222.1 71L222.1 65.0ZM230.1 71L228.5 71L230.9 63.7L232.9 63.7L235.4 71L233.8 71L233.2 69.3L230.6 69.3L230.1 71ZM231.0 68.1L232.8 68.1L232.6 67.5Q232.4 66.8 232.2 66L232.2 66Q232.1 65.5 231.9 64.9L231.9 64.9Q231.8 65.5 231.6 66.0L231.6 66.0Q231.4 66.8 231.2 67.5L231.2 67.5L231.0 68.1ZM239.8 71L238.3 71L238.3 63.7L241.2 63.7Q242.0 63.7 242.6 64.0Q243.2 64.3 243.5 64.8Q243.8 65.4 243.8 66.1Q243.8 66.8 243.5 67.3Q243.2 67.9 242.6 68.1L242.6 68.1Q242.5 68.1 242.5 68.2L242.5 68.2L244.0 71L242.4 71L241.0 68.4L239.8 68.4L239.8 71ZM239.8 65.0L239.8 67.2L240.9 67.2Q241.4 67.2 241.7 67.1Q242.0 66.9 242.1 66.7Q242.2 66.5 242.2 66.1L242.2 66.1Q242.2 65.7 242.1 65.5Q242.0 65.2 241.7 65.1Q241.4 65.0 240.9 65.0L240.9 65.0L239.8 65.0ZM249.6 71.1L249.6 71.1Q248.7 71.1 248.1 70.8Q247.4 70.6 247.1 70.0Q246.7 69.5 246.7 68.7L246.7 68.7L248.1 68.7Q248.2 69.1 248.3 69.4Q248.5 69.6 248.8 69.7Q249.2 69.8 249.6 69.8L249.6 69.8Q250.0 69.8 250.3 69.7Q250.6 69.6 250.7 69.4Q250.9 69.2 250.9 68.9L250.9 68.9Q250.9 68.7 250.7 68.5Q250.6 68.3 250.3 68.2Q250.0 68.1 249.6 68.0L249.6 68.0L248.8 67.8Q247.9 67.6 247.4 67.1Q246.9 66.6 246.9 65.8L246.9 65.8Q246.9 65.2 247.2 64.7Q247.6 64.2 248.2 63.9Q248.8 63.6 249.6 63.6L249.6 63.6Q250.4 63.6 251.0 63.9Q251.6 64.2 251.9 64.7Q252.3 65.2 252.3 65.8L252.3 65.8L250.9 65.8Q250.8 65.4 250.5 65.1Q250.1 64.9 249.6 64.9L249.6 64.9Q249.2 64.9 248.9 65.0Q248.7 65.1 248.5 65.3Q248.4 65.5 248.4 65.7L248.4 65.7Q248.4 66.0 248.6 66.2Q248.7 66.3 249.0 66.5Q249.3 66.6 249.6 66.6L249.6 66.6L250.2 66.8Q250.7 66.9 251.1 67.1Q251.5 67.3 251.8 67.5Q252.1 67.8 252.2 68.1Q252.4 68.5 252.4 68.9L252.4 68.9Q252.4 69.6 252.1 70.1Q251.7 70.6 251.1 70.8Q250.5 71.1 249.6 71.1Z "/></g><mask id="satori_om-id-1-1"><rect x="285" y="31" width="1" height="40" fill="#fff" mask="url(#satori_om-id)"/></mask><rect x="285" y="31" width="1" height="40" fill="rgba(120,80,220,0.2)" clip-path="url(#satori_cp-id)" mask="url(#satori_om-id)"/><mask id="satori_om-id-1-2"><rect x="316" y="28" width="44" height="45" fill="#fff" mask="url(#satori_om-id)"/></mask><mask id="satori_om-id-1-2-0"><rect x="322" y="28" width="32" height="29" fill="#fff" mask="url(#satori_om-id)"/></mask><g mask="url(#satori_om-id)" clip-path="url(#satori_cp-id)"><path fill="#ffffff" d="M329.7 51.2L329.7 51.2Q327.8 51.2 326.4 50.6Q324.9 49.9 324.0 48.8Q323.2 47.6 323.2 46.1L323.2 46.1L326.8 46.1Q326.8 46.8 327.2 47.2Q327.6 47.7 328.2 48Q328.9 48.3 329.7 48.3L329.7 48.3Q330.6 48.3 331.3 48.0Q331.9 47.7 332.3 47.1Q332.7 46.6 332.7 45.9L332.7 45.9Q332.7 45.2 332.3 44.6Q331.9 44.1 331.2 43.7Q330.4 43.4 329.4 43.4L329.4 43.4L327.8 43.4L327.8 40.8L329.4 40.8Q330.3 40.8 330.9 40.5Q331.6 40.2 331.9 39.7Q332.3 39.1 332.3 38.4L332.3 38.4Q332.3 37.7 332.0 37.2Q331.7 36.7 331.1 36.5Q330.5 36.2 329.8 36.2L329.8 36.2Q329.0 36.2 328.4 36.4Q327.7 36.7 327.3 37.2Q327.0 37.7 326.9 38.4L326.9 38.4L323.5 38.4Q323.5 36.9 324.3 35.7Q325.2 34.6 326.6 33.9Q328.0 33.3 329.8 33.3L329.8 33.3Q331.6 33.3 332.9 34.0Q334.3 34.6 335.0 35.7Q335.8 36.8 335.8 38.2L335.8 38.2Q335.8 39.7 334.8 40.7Q333.9 41.6 332.5 41.9L332.5 41.9L332.5 42.0Q333.8 42.2 334.6 42.8Q335.5 43.3 335.9 44.2Q336.4 45.0 336.4 46.1L336.4 46.1Q336.4 47.6 335.5 48.8Q334.7 49.9 333.2 50.6Q331.7 51.2 329.7 51.2ZM347.0 47.9L338.7 47.9L338.7 45.1L346.0 33.5L350.5 33.5L350.5 45.0L352.6 45.0L352.6 47.9L350.5 47.9L350.5 51L347.0 51L347.0 47.9ZM342.3 45.0L347.1 45.0L347.1 37.5L347.0 37.5L342.3 44.9L342.3 45.0Z "/></g><mask id="satori_om-id-1-2-1"><rect x="316" y="61" width="44" height="12" fill="#fff" mask="url(#satori_om-id)"/></mask><g mask="url(#satori_om-id)" clip-path="url(#satori_cp-id)"><path fill="#8b7ec8" d="M318.1 71L316.7 71L316.7 63.7L321.4 63.7L321.4 65.0L318.1 65.0L318.1 67.0L321.1 67.0L321.1 68.2L318.1 68.2L318.1 71ZM327.7 71.1L327.7 71.1Q326.8 71.1 326.0 70.7Q325.2 70.2 324.8 69.4Q324.3 68.5 324.3 67.4L324.3 67.4Q324.3 66.2 324.8 65.3Q325.2 64.5 326.0 64.1Q326.8 63.6 327.7 63.6L327.7 63.6Q328.7 63.6 329.5 64.1Q330.2 64.5 330.7 65.3Q331.1 66.2 331.1 67.4L331.1 67.4Q331.1 68.5 330.7 69.4Q330.2 70.2 329.5 70.7Q328.7 71.1 327.7 71.1ZM327.7 69.8L327.7 69.8Q328.3 69.8 328.7 69.5Q329.1 69.2 329.4 68.7Q329.6 68.1 329.6 67.4L329.6 67.4Q329.6 66.6 329.4 66.0Q329.1 65.5 328.7 65.2Q328.3 65.0 327.7 65.0L327.7 65.0Q327.2 65.0 326.7 65.2Q326.3 65.5 326.1 66.0Q325.8 66.6 325.8 67.4L325.8 67.4Q325.8 68.1 326.1 68.7Q326.3 69.2 326.7 69.5Q327.2 69.8 327.7 69.8ZM335.7 71L334.2 71L334.2 63.7L337.1 63.7Q337.9 63.7 338.5 64.0Q339.1 64.3 339.4 64.8Q339.7 65.4 339.7 66.1Q339.7 66.8 339.4 67.3Q339.1 67.9 338.5 68.1L338.5 68.1Q338.4 68.1 338.4 68.2L338.4 68.2L339.9 71L338.3 71L336.9 68.4L335.7 68.4L335.7 71ZM335.7 65.0L335.7 67.2L336.8 67.2Q337.3 67.2 337.5 67.1Q337.8 66.9 338.0 66.7Q338.1 66.5 338.1 66.1L338.1 66.1Q338.1 65.7 338.0 65.5Q337.8 65.2 337.5 65.1Q337.3 65.0 336.8 65.0L336.8 65.0L335.7 65.0ZM344.3 71L342.8 71L342.8 63.7L344.3 63.7L344.3 65.7L344.3 67.4Q344.3 67.3 344.3 67.3L344.3 67.3Q344.6 66.9 344.8 66.6Q345.1 66.2 345.4 65.8L345.4 65.8L347.2 63.7L349.0 63.7L346.3 66.9L349.1 71L347.3 71L345.3 67.9L344.3 68.9L344.3 71ZM354.7 71.1L354.7 71.1Q353.8 71.1 353.1 70.8Q352.5 70.6 352.1 70.0Q351.8 69.5 351.7 68.7L351.7 68.7L353.2 68.7Q353.2 69.1 353.4 69.4Q353.6 69.6 353.9 69.7Q354.2 69.8 354.6 69.8L354.6 69.8Q355.0 69.8 355.3 69.7Q355.6 69.6 355.8 69.4Q356.0 69.2 356.0 68.9L356.0 68.9Q356.0 68.7 355.8 68.5Q355.7 68.3 355.4 68.2Q355.1 68.1 354.7 68.0L354.7 68.0L353.9 67.8Q353.0 67.6 352.5 67.1Q351.9 66.6 351.9 65.8L351.9 65.8Q351.9 65.2 352.3 64.7Q352.7 64.2 353.3 63.9Q353.9 63.6 354.7 63.6L354.7 63.6Q355.5 63.6 356.1 63.9Q356.7 64.2 357.0 64.7Q357.4 65.2 357.4 65.8L357.4 65.8L355.9 65.8Q355.9 65.4 355.6 65.1Q355.2 64.9 354.7 64.9L354.7 64.9Q354.3 64.9 354.0 65.0Q353.8 65.1 353.6 65.3Q353.5 65.5 353.5 65.7L353.5 65.7Q353.5 66.0 353.6 66.2Q353.8 66.3 354.1 66.5Q354.3 66.6 354.6 66.6L354.6 66.6L355.3 66.8Q355.8 66.9 356.1 67.1Q356.5 67.3 356.8 67.5Q357.1 67.8 357.3 68.1Q357.5 68.5 357.5 68.9L357.5 68.9Q357.5 69.6 357.1 70.1Q356.8 70.6 356.2 70.8Q355.5 71.1 354.7 71.1Z "/></g><mask id="satori_om-id-1-3"><rect x="390" y="31" width="1" height="40" fill="#fff" mask="url(#satori_om-id)"/></mask><rect x="390" y="31" width="1" height="40" fill="rgba(120,80,220,0.2)" clip-path="url(#satori_cp-id)" mask="url(#satori_om-id)"/><mask id="satori_om-id-1-4"><rect x="421" y="28" width="44" height="45" fill="#fff" mask="url(#satori_om-id)"/></mask><mask id="satori_om-id-1-4-0"><rect x="428" y="28" width="31" height="29" fill="#fff" mask="url(#satori_om-id)"/></mask><g mask="url(#satori_om-id)" clip-path="url(#satori_cp-id)"><path fill="#ffffff" d="M441.8 51L429.5 51L429.5 48.4L435.6 42.6Q436.4 41.8 437.0 41.2Q437.5 40.6 437.8 40.0Q438.1 39.4 438.1 38.7L438.1 38.7Q438.1 37.9 437.8 37.3Q437.4 36.8 436.8 36.5Q436.2 36.2 435.4 36.2L435.4 36.2Q434.6 36.2 434.0 36.5Q433.4 36.8 433.0 37.4Q432.7 38.0 432.7 38.9L432.7 38.9L429.3 38.9Q429.3 37.2 430.1 35.9Q430.8 34.7 432.2 34.0Q433.6 33.3 435.4 33.3L435.4 33.3Q437.3 33.3 438.7 34.0Q440.0 34.6 440.8 35.8Q441.6 36.9 441.6 38.5L441.6 38.5Q441.6 39.4 441.2 40.4Q440.8 41.3 439.8 42.5Q438.9 43.7 437.1 45.3L437.1 45.3L434.4 47.9L434.4 48.1L441.8 48.1L441.8 51ZM450.5 51.2L450.5 51.2Q448.7 51.2 447.3 50.6Q445.9 49.9 445.1 48.8Q444.3 47.6 444.2 46.1L444.2 46.1L447.7 46.1Q447.7 46.8 448.1 47.3Q448.5 47.8 449.1 48.1Q449.7 48.4 450.5 48.4L450.5 48.4Q451.4 48.4 452.0 48.0Q452.7 47.6 453.1 46.9Q453.5 46.2 453.5 45.3L453.5 45.3Q453.5 44.4 453.1 43.6Q452.7 42.9 452.0 42.5Q451.3 42.1 450.4 42.1L450.4 42.1Q449.6 42.1 448.9 42.4Q448.2 42.7 447.8 43.3L447.8 43.3L444.6 42.7L445.4 33.5L456.0 33.5L456.0 36.5L448.4 36.5L447.9 40.9L448.0 40.9Q448.5 40.3 449.4 39.9Q450.3 39.5 451.5 39.5L451.5 39.5Q452.6 39.5 453.6 39.9Q454.6 40.3 455.4 41.1Q456.1 41.8 456.5 42.9Q456.9 43.9 456.9 45.2L456.9 45.2Q456.9 47.0 456.1 48.3Q455.3 49.7 453.9 50.5Q452.4 51.2 450.5 51.2Z "/></g><mask id="satori_om-id-1-4-1"><rect x="421" y="61" width="44" height="12" fill="#fff" mask="url(#satori_om-id)"/></mask><g mask="url(#satori_om-id)" clip-path="url(#satori_cp-id)"><path fill="#5a9ca8" d="M423.1 71L421.7 71L421.7 63.7L424.5 63.7Q425.3 63.7 425.9 64.0Q426.5 64.3 426.8 64.8Q427.1 65.4 427.1 66.1Q427.1 66.8 426.8 67.3Q426.5 67.9 425.9 68.1L425.9 68.1Q425.8 68.1 425.8 68.2L425.8 68.2L427.4 71L425.7 71L424.3 68.4L423.1 68.4L423.1 71ZM423.1 65.0L423.1 67.2L424.2 67.2Q424.7 67.2 425.0 67.1Q425.3 66.9 425.4 66.7Q425.6 66.5 425.6 66.1L425.6 66.1Q425.6 65.7 425.4 65.5Q425.3 65.2 425.0 65.1Q424.7 65.0 424.2 65.0L424.2 65.0L423.1 65.0ZM435.1 71L430.2 71L430.2 63.7L435.1 63.7L435.1 65.0L431.7 65.0L431.7 66.7L434.8 66.7L434.8 67.9L431.7 67.9L431.7 69.8L435.1 69.8L435.1 71ZM439.8 71L438.3 71L438.3 63.7L441.1 63.7Q442.0 63.7 442.5 64.0Q443.1 64.4 443.4 64.9Q443.7 65.5 443.7 66.2L443.7 66.2Q443.7 66.9 443.4 67.5Q443.1 68.0 442.5 68.3Q441.9 68.6 441.1 68.6L441.1 68.6L439.8 68.6L439.8 71ZM439.8 65.0L439.8 67.4L440.9 67.4Q441.3 67.4 441.6 67.3Q441.9 67.1 442.1 66.8Q442.2 66.5 442.2 66.2Q442.2 65.8 442.1 65.5Q441.9 65.3 441.6 65.1Q441.3 65.0 440.9 65.0L440.9 65.0L439.8 65.0ZM450.0 71.1L450.0 71.1Q449.0 71.1 448.2 70.7Q447.5 70.2 447.0 69.4Q446.6 68.5 446.6 67.4L446.6 67.4Q446.6 66.2 447.0 65.3Q447.5 64.5 448.2 64.1Q449.0 63.6 450.0 63.6L450.0 63.6Q450.9 63.6 451.7 64.1Q452.5 64.5 452.9 65.3Q453.4 66.2 453.4 67.4L453.4 67.4Q453.4 68.5 452.9 69.4Q452.5 70.2 451.7 70.7Q450.9 71.1 450.0 71.1ZM450.0 69.8L450.0 69.8Q450.5 69.8 451.0 69.5Q451.4 69.2 451.6 68.7Q451.9 68.1 451.9 67.4L451.9 67.4Q451.9 66.6 451.6 66.0Q451.4 65.5 451.0 65.2Q450.5 65.0 450.0 65.0L450.0 65.0Q449.4 65.0 449.0 65.2Q448.6 65.5 448.3 66.0Q448.1 66.6 448.1 67.4L448.1 67.4Q448.1 68.1 448.3 68.7Q448.6 69.2 449.0 69.5Q449.4 69.8 450.0 69.8ZM459.2 71.1L459.2 71.1Q458.3 71.1 457.6 70.8Q457.0 70.6 456.6 70.0Q456.3 69.5 456.2 68.7L456.2 68.7L457.7 68.7Q457.7 69.1 457.9 69.4Q458.1 69.6 458.4 69.7Q458.7 69.8 459.1 69.8L459.1 69.8Q459.5 69.8 459.8 69.7Q460.1 69.6 460.3 69.4Q460.5 69.2 460.5 68.9L460.5 68.9Q460.5 68.7 460.3 68.5Q460.2 68.3 459.9 68.2Q459.6 68.1 459.2 68.0L459.2 68.0L458.4 67.8Q457.5 67.6 457.0 67.1Q456.4 66.6 456.4 65.8L456.4 65.8Q456.4 65.2 456.8 64.7Q457.1 64.2 457.8 63.9Q458.4 63.6 459.2 63.6L459.2 63.6Q460.0 63.6 460.6 63.9Q461.2 64.2 461.5 64.7Q461.9 65.2 461.9 65.8L461.9 65.8L460.4 65.8Q460.4 65.4 460.0 65.1Q459.7 64.9 459.2 64.9L459.2 64.9Q458.8 64.9 458.5 65.0Q458.2 65.1 458.1 65.3Q458.0 65.5 458.0 65.7L458.0 65.7Q458.0 66.0 458.1 66.2Q458.3 66.3 458.6 66.5Q458.8 66.6 459.1 66.6L459.1 66.6L459.8 66.8Q460.2 66.9 460.6 67.1Q461.0 67.3 461.3 67.5Q461.6 67.8 461.8 68.1Q462.0 68.5 462.0 68.9L462.0 68.9Q462.0 69.6 461.6 70.1Q461.3 70.6 460.7 70.8Q460.0 71.1 459.2 71.1Z "/></g><mask id="satori_om-id-1-5"><rect x="495" y="31" width="1" height="40" fill="#fff" mask="url(#satori_om-id)"/></mask><rect x="495" y="31" width="1" height="40" fill="rgba(120,80,220,0.2)" clip-path="url(#satori_cp-id)" mask="url(#satori_om-id)"/><mask id="satori_om-id-1-6"><rect x="526" y="28" width="64" height="45" fill="#fff" mask="url(#satori_om-id)"/></mask><mask id="satori_om-id-1-6-0"><rect x="530" y="28" width="56" height="29" fill="#fff" mask="url(#satori_om-id)"/></mask><g mask="url(#satori_om-id)" clip-path="url(#satori_cp-id)"><path fill="#ffffff" d="M534.9 33.5L538.8 33.5L538.8 51L535.2 51L535.2 36.7L535.1 36.7L531.1 39.5L531.1 36.2L534.9 33.5ZM547.7 51.2L547.7 51.2Q545.9 51.2 544.5 50.6Q543.1 49.9 542.3 48.8Q541.5 47.6 541.4 46.1L541.4 46.1L544.9 46.1Q545.0 46.8 545.3 47.3Q545.7 47.8 546.3 48.1Q547.0 48.4 547.7 48.4L547.7 48.4Q548.6 48.4 549.3 48.0Q549.9 47.6 550.3 46.9Q550.7 46.2 550.7 45.3L550.7 45.3Q550.7 44.4 550.3 43.6Q549.9 42.9 549.2 42.5Q548.6 42.1 547.6 42.1L547.6 42.1Q546.9 42.1 546.1 42.4Q545.4 42.7 545.0 43.3L545.0 43.3L541.8 42.7L542.6 33.5L553.2 33.5L553.2 36.5L545.6 36.5L545.2 40.9L545.3 40.9Q545.7 40.3 546.6 39.9Q547.6 39.5 548.7 39.5L548.7 39.5Q549.9 39.5 550.9 39.9Q551.9 40.3 552.6 41.1Q553.4 41.8 553.8 42.9Q554.2 43.9 554.2 45.2L554.2 45.2Q554.2 47.0 553.4 48.3Q552.5 49.7 551.1 50.5Q549.6 51.2 547.7 51.2ZM564.8 47.9L556.5 47.9L556.5 45.1L563.8 33.5L568.3 33.5L568.3 45.0L570.4 45.0L570.4 47.9L568.3 47.9L568.3 51L564.8 51L564.8 47.9ZM560.1 45.0L564.9 45.0L564.9 37.5L564.7 37.5L560.1 44.9L560.1 45.0ZM577.3 51L573.6 51L580.8 36.6L580.8 36.5L572.4 36.5L572.4 33.5L584.6 33.5L584.6 36.5L577.3 51Z "/></g><mask id="satori_om-id-1-6-1"><rect x="526" y="61" width="64" height="12" fill="#fff" mask="url(#satori_om-id)"/></mask><g mask="url(#satori_om-id)" clip-path="url(#satori_cp-id)"><path fill="#7ee7ff" d="M529.8 71.1L529.8 71.1Q528.9 71.1 528.1 70.7Q527.3 70.2 526.9 69.4Q526.5 68.5 526.5 67.4L526.5 67.4Q526.5 66.2 526.9 65.3Q527.3 64.5 528.1 64.1Q528.9 63.6 529.8 63.6L529.8 63.6Q530.5 63.6 531.0 63.8Q531.5 64.0 531.9 64.3Q532.4 64.6 532.6 65.1Q532.9 65.6 533.0 66.2L533.0 66.2L531.5 66.2Q531.4 65.9 531.3 65.7Q531.1 65.4 530.9 65.3Q530.7 65.1 530.4 65.0Q530.2 65.0 529.9 65.0L529.9 65.0Q529.3 65.0 528.9 65.2Q528.4 65.5 528.2 66.1Q528.0 66.6 528.0 67.4L528.0 67.4Q528.0 68.2 528.2 68.7Q528.5 69.2 528.9 69.5Q529.3 69.8 529.9 69.8L529.9 69.8Q530.2 69.8 530.4 69.7Q530.7 69.6 530.9 69.4Q531.1 69.3 531.3 69.0Q531.4 68.8 531.5 68.5L531.5 68.5L533.0 68.5Q532.9 69.0 532.7 69.5Q532.4 69.9 532.0 70.3Q531.6 70.7 531.1 70.9Q530.5 71.1 529.8 71.1ZM539.3 71.1L539.3 71.1Q538.3 71.1 537.5 70.7Q536.8 70.2 536.3 69.4Q535.9 68.5 535.9 67.4L535.9 67.4Q535.9 66.2 536.3 65.3Q536.8 64.5 537.5 64.1Q538.3 63.6 539.3 63.6L539.3 63.6Q540.2 63.6 541.0 64.1Q541.8 64.5 542.2 65.3Q542.6 66.2 542.6 67.4L542.6 67.4Q542.6 68.5 542.2 69.4Q541.8 70.2 541.0 70.7Q540.2 71.1 539.3 71.1ZM539.3 69.8L539.3 69.8Q539.8 69.8 540.2 69.5Q540.7 69.2 540.9 68.7Q541.1 68.1 541.1 67.4L541.1 67.4Q541.1 66.6 540.9 66.0Q540.7 65.5 540.2 65.2Q539.8 65.0 539.3 65.0L539.3 65.0Q538.7 65.0 538.3 65.2Q537.8 65.5 537.6 66.0Q537.4 66.6 537.4 67.4L537.4 67.4Q537.4 68.1 537.6 68.7Q537.8 69.2 538.3 69.5Q538.7 69.8 539.3 69.8ZM547.2 71L545.8 71L545.8 63.7L548.0 63.7L549.2 67.1Q549.3 67.3 549.4 67.7Q549.5 68.0 549.6 68.5L549.6 68.5Q549.7 68.9 549.8 69.3L549.8 69.3Q549.9 68.9 549.9 68.5L549.9 68.5Q550.0 68.1 550.1 67.7Q550.2 67.3 550.3 67.1L550.3 67.1L551.5 63.7L553.8 63.7L553.8 71L552.3 71L552.3 67.6Q552.3 67.3 552.3 67.0Q552.3 66.6 552.3 66.2Q552.3 65.8 552.3 65.4L552.3 65.4Q552.3 65.2 552.3 65.0L552.3 65.0Q552.3 65.2 552.2 65.4L552.2 65.4Q552.1 65.9 552.0 66.3Q551.9 66.7 551.8 67.0Q551.7 67.3 551.6 67.6L551.6 67.6L550.4 71L549.1 71L547.9 67.6Q547.8 67.3 547.7 67.0Q547.6 66.7 547.5 66.3Q547.4 65.9 547.3 65.4L547.3 65.4Q547.2 65.2 547.2 65.1L547.2 65.1Q547.2 65.2 547.2 65.4L547.2 65.4Q547.2 65.8 547.2 66.2Q547.2 66.6 547.2 67.0Q547.2 67.3 547.2 67.6L547.2 67.6L547.2 71ZM558.6 71L557.1 71L557.1 63.7L559.4 63.7L560.5 67.1Q560.6 67.3 560.7 67.7Q560.8 68.0 560.9 68.5L560.9 68.5Q561.0 68.9 561.1 69.3L561.1 69.3Q561.2 68.9 561.3 68.5L561.3 68.5Q561.4 68.1 561.5 67.7Q561.6 67.3 561.6 67.1L561.6 67.1L562.8 63.7L565.1 63.7L565.1 71L563.6 71L563.6 67.6Q563.6 67.3 563.6 67.0Q563.6 66.6 563.6 66.2Q563.6 65.8 563.6 65.4L563.6 65.4Q563.6 65.2 563.6 65.0L563.6 65.0Q563.6 65.2 563.5 65.4L563.5 65.4Q563.4 65.9 563.3 66.3Q563.2 66.7 563.1 67.0Q563.0 67.3 562.9 67.6L562.9 67.6L561.7 71L560.5 71L559.2 67.6Q559.2 67.3 559.1 67.0Q558.9 66.7 558.8 66.3Q558.7 65.9 558.6 65.4L558.6 65.4Q558.6 65.2 558.5 65.1L558.5 65.1Q558.5 65.2 558.5 65.4L558.5 65.4Q558.5 65.8 558.5 66.2Q558.5 66.6 558.6 67.0Q558.6 67.3 558.6 67.6L558.6 67.6L558.6 71ZM568.4 63.7L569.9 63.7L569.9 71L568.4 71L568.4 63.7ZM575.1 65.0L572.9 65.0L572.9 63.7L578.9 63.7L578.9 65.0L576.6 65.0L576.6 71L575.1 71L575.1 65.0ZM584.5 71.1L584.5 71.1Q583.7 71.1 583.0 70.8Q582.4 70.6 582.0 70.0Q581.7 69.5 581.6 68.7L581.6 68.7L583.1 68.7Q583.1 69.1 583.3 69.4Q583.5 69.6 583.8 69.7Q584.1 69.8 584.5 69.8L584.5 69.8Q584.9 69.8 585.2 69.7Q585.5 69.6 585.7 69.4Q585.9 69.2 585.9 68.9L585.9 68.9Q585.9 68.7 585.7 68.5Q585.6 68.3 585.3 68.2Q585.0 68.1 584.6 68.0L584.6 68.0L583.8 67.8Q582.9 67.6 582.4 67.1Q581.8 66.6 581.8 65.8L581.8 65.8Q581.8 65.2 582.2 64.7Q582.5 64.2 583.2 63.9Q583.8 63.6 584.6 63.6L584.6 63.6Q585.4 63.6 586.0 63.9Q586.6 64.2 586.9 64.7Q587.2 65.2 587.3 65.8L587.3 65.8L585.8 65.8Q585.8 65.4 585.4 65.1Q585.1 64.9 584.5 64.9L584.5 64.9Q584.2 64.9 583.9 65.0Q583.6 65.1 583.5 65.3Q583.4 65.5 583.4 65.7L583.4 65.7Q583.4 66.0 583.5 66.2Q583.7 66.3 583.9 66.5Q584.2 66.6 584.5 66.6L584.5 66.6L585.2 66.8Q585.6 66.9 586.0 67.1Q586.4 67.3 586.7 67.5Q587.0 67.8 587.2 68.1Q587.4 68.5 587.4 68.9L587.4 68.9Q587.4 69.6 587.0 70.1Q586.7 70.6 586.1 70.8Q585.4 71.1 584.5 71.1Z "/></g></svg>