<!-- Generated by readme-aura https://github.com/collectioneur/readme-aura -->
<svg width="800" height="70" viewBox="0 0 800 70" xmlns="http://www.w3.org/2000/svg"><defs><clipPath id="satori_bc-id"><path x="0" y="0" width="800" height="70" d="M30,0 h740 a30,30 0 0 1 30,30 v10 a30,30 0 0 1 -30,30 h-740 a30,30 0 0 1 -30,-30 v-10 a30,30 0 0 1 30,-30"/></clipPath></defs><clipPath id="satori_cp-id"><path x="0" y="0" width="800" height="70" d="M30,0 h740 a30,30 0 0 1 30,30 v10 a30,30 0 0 1 -30,30 h-740 a30,30 0 0 1 -30,-30 v-10 a30,30 0 0 1 30,-30"/></clipPath><mask id="satori_om-id"><rect x="1" y="1" width="798" height="68" fill="#fff"/><path width="800" height="70" fill="none" stroke="#000" stroke-width="2" d="M8.786999999999999,8.786999999999999 A30,30 0 0 1 30,0 h740 a30,30 0 0 1 30,30 v10 a30,30 0 0 1 -30,30 h-740 a30,30 0 0 1 -30,-30 v-10 A30,30 0 0 1 8.786999999999999,8.786999999999999"/></mask><path x="0" y="0" width="800" height="70" fill="#06060a" d="M30,0 h740 a30,30 0 0 1 30,30 v10 a30,30 0 0 1 -30,30 h-740 a30,30 0 0 1 -30,-30 v-10 a30,30 0 0 1 30,-30"/><path width="800" height="70" clip-path="url(#satori_bc-id)" fill="none" stroke="rgba(110,80,220,0.15)" stroke-width="2" d="M8.786999999999999,8.786999999999999 A30,30 0 0 1 30,0 h740 a30,30 0 0 1 30,30 v10 a30,30 0 0 1 -30,30 h-740 a30,30 0 0 1 -30,-30 v-10 A30,30 0 0 1 8.786999999999999,8.786999999999999"/><clipPath id="satori_cp-id-0" clip-path="url(#satori_cp-id)"><rect x="1" y="1" width="800" height="70"/></clipPath><mask id="satori_om-id-0"><rect x="1" y="1" width="800" height="70" fill="#fff" mask="url(#satori_om-id)"/></mask><svg x="1" y="1" width="800" height="70" preserveAspectRatio="none" clip-path="url(#satori_cp-id-0)" mask="url(#satori_om-id-0)"><defs><radialGradient id="tg1" cx="50%" cy="50%" r="50%"><stop offset="0%" stop-color="rgba(100,20,200,0.55)"></stop><stop offset="100%" stop-color="rgba(100,20,200,0)"></stop></radialGradient><radialGradient id="tg2" cx="50%" cy="50%" r="50%"><stop offset="0%" stop-color="rgba(30,80,255,0.5)"></stop><stop offset="100%" stop-color="rgba(30,80,255,0)"></stop></radialGradient><radialGradient id="tg3" cx="50%" cy="50%" r="50%"><stop offset="0%" stop-color="rgba(255,50,180,0.4)"></stop><stop offset="100%" stop-color="rgba(255,50,180,0)"></stop></radialGradient><radialGradient id="tg4" cx="50%" cy="50%" r="50%"><stop offset="0%" stop-color="rgba(0,200,200,0.4)"></stop><stop offset="100%" stop-color="rgba(0,200,200,0)"></stop></radialGradient><radialGradient id="tg5" cx="50%" cy="50%" r="50%"><stop offset="0%" stop-color="rgba(180,40,255,0.35)"></stop><stop offset="100%" stop-color="rgba(180,40,255,0)"></stop></radialGradient><linearGradient id="ts-scg" x1="0%" y1="0%" x2="100%" y2="0%"><stop offset="0%" stop-color="rgba(120,200,255,0)"></stop><stop offset="40%" stop-color="rgba(120,200,255,0.15)"></stop><stop offset="50%" stop-color="rgba(180,120,255,0.35)"></stop><stop offset="60%" stop-color="rgba(120,200,255,0.15)"></stop><stop offset="100%" stop-color="rgba(120,200,255,0)"></stop></linearGradient></defs><ellipse id="ts-g1" cx="500" cy="80" rx="150" ry="70" fill="url(#tg1)"></ellipse><ellipse id="ts-g2" cx="300" cy="75" rx="130" ry="65" fill="url(#tg2)"></ellipse><ellipse id="ts-g3" cx="650" cy="60" rx="100" ry="55" fill="url(#tg3)"></ellipse><ellipse id="ts-g4" cx="150" cy="70" rx="110" ry="60" fill="url(#tg4)"></ellipse><ellipse id="ts-g5" cx="400" cy="85" rx="90" ry="50" fill="url(#tg5)"></ellipse><rect id="ts-scan1" x="0" y="34" width="140" height="1" fill="url(#ts-scg)"></rect><style>

      @keyframes ts-drift-r { 0%, 100% { transform: translate(0, 0); opacity: 0.75; } 50% { transform: translate(30px, -10px); opacity: 1.1; } }
      @keyframes ts-drift-l { 0%, 100% { transform: translate(0, 0); opacity: 0.7; } 50% { transform: translate(-25px, 12px); opacity: 1; } }
      @keyframes ts-pulse { 0%, 100% { transform: scale(1); opacity: 0.75; } 50% { transform: scale(1.2); opacity: 0.5; } }
      @keyframes ts-scan { 0% { transform: translate(-900px, 0); } 100% { transform: translate(900px, 0); } }
      #ts-g1 { animation: ts-drift-r 7.5s ease-in-out infinite; }
      #ts-g2 { animation: ts-drift-l 8.3s ease-in-out infinite 0.2s; }
      #ts-g3 { animation: ts-pulse 5.8s ease-in-out infinite 0.4s; }
      #ts-g4 { animation: ts-drift-r 6.7s ease-in-out infinite 0.1s; }
      #ts-g5 { animation: ts-drift-l 9.2s ease-in-out infinite 0.3s; }
      #ts-scan1 { animation: ts-scan 3.5s linear infinite; }
    
</style>
</svg><mask id="satori_om-id-0-0"><rect x="1" y="1" width="0" height="70" fill="#fff" mask="url(#satori_om-id)"/></mask><mask id="satori_om-id-0-0-0"><rect x="1" y="1" width="0" height="70" fill="#fff" mask="url(#satori_om-id)"/></mask><mask id="satori_om-id-0-0-0-0"><rect x="1" y="1" width="0" height="70" fill="#fff" mask="url(#satori_om-id)"/></mask><mask id="satori_om-id-0-0-0-1"><rect x="1" y="1" width="0" height="70" fill="#fff" mask="url(#satori_om-id)"/></mask><mask id="satori_om-id-0-0-1"><rect x="1" y="1" width="0" height="70" fill="#fff" mask="url(#satori_om-id)"/></mask><mask id="satori_om-id-0-0-1-0"><rect x="1" y="1" width="0" height="70" fill="#fff" mask="url(#satori_om-id)"/></mask><mask id="satori_om-id-0-0-1-1"><rect x="1" y="1" width="0" height="70" fill="#fff" mask="url(#satori_om-id)"/></mask><mask id="satori_om-id-0-0-2"><rect x="1" y="1" width="0" height="70" fill="#fff" mask="url(#satori_om-id)"/></mask><mask id="satori_om-id-0-0-2-0"><rect x="1" y="1" width="0" height="70" fill="#fff" mask="url(#satori_om-id)"/></mask><mask id="satori_om-id-0-0-2-1"><rect x="1" y="1" width="0" height="70" fill="#fff" mask="url(#satori_om-id)"/></mask><mask id="satori_om-id-0-0-3"><rect x="1" y="1" width="0" height="70" fill="#fff" mask="url(#satori_om-id)"/></mask><mask id="satori_om-id-0-0-3-0"><rect x="1" y="1" width="0" height="70" fill="#fff" mask="url(#satori_om-id)"/></mask><mask id="satori_om-id-0-0-3-1"><rect x="1" y="1" width="0" height="70" fill="#fff" mask="url(#satori_om-id)"/></mask><mask id="satori_om-id-0-0-4"><rect x="1" y="1" width="0" height="70" fill="#fff" mask="url(#satori_om-id)"/></mask><mask id="satori_om-id-0-0-4-0"><rect x="1" y="1" width="0" height="70" fill="#fff" mask="url(#satori_om-id)"/></mask><mask id="satori_om-id-0-0-4-1"><rect x="1" y="1" width="0" height="70" fill="#fff" mask="url(#satori_om-id)"/></mask><mask id="satori_om-id-0-0-5"><rect x="1" y="1" width="0" height="70" fill="#fff" mask="url(#satori_om-id)"/></mask><mask id="satori_om-id-0-0-5-0"><rect x="1" y="1" width="0" height="70" fill="#fff" mask="url(#satori_om-id)"/></mask><mask id="satori_om-id-0-0-5-1"><rect x="1" y="1" width="0" height="70" fill="#fff" mask="url(#satori_om-id)"/></mask><mask id="satori_om-id-0-0-5-2"><rect x="1" y="1" width="0" height="70" fill="#fff" mask="url(#satori_om-id)"/></mask><mask id="satori_om-id-0-0-5-3"><rect x="1" y="1" width="0" height="70" fill="#fff" mask="url(#satori_om-id)"/></mask><mask id="satori_om-id-0-0-5-4"><rect x="1" y="1" width="0" height="70" fill="#fff" mask="url(#satori_om-id)"/></mask><mask id="satori_om-id-0-1"><rect x="1" y="1" width="0" height="70" fill="#fff" mask="url(#satori_om-id)"/></mask><mask id="satori_om-id-0-2"><rect x="1" y="1" width="0" height="70" fill="#fff" mask="url(#satori_om-id)"/></mask><mask id="satori_om-id-0-3"><rect x="1" y="1" width="0" height="70" fill="#fff" mask="url(#satori_om-id)"/></mask><mask id="satori_om-id-0-4"><rect x="1" y="1" width="0" height="70" fill="#fff" mask="url(#satori_om-id)"/></mask><mask id="satori_om-id-0-5"><rect x="1" y="1" width="0" height="70" fill="#fff" mask="url(#satori_om-id)"/></mask><mask id="satori_om-id-0-6"><rect x="1" y="1" width="0" height="70" fill="#fff" mask="url(#satori_om-id)"/></mask><defs><clipPath id="satori_bc-id-1" clip-path="url(#satori_cp-id)"><path x="67" y="21" width="44" height="28" d="M81,21 h16 a14,14 0 0 1 14,14 v0 a14,14 0 0 1 -14,14 h-16 a14,14 0 0 1 -14,-14 v0 a14,14 0 0 1 14,-14"/></clipPath></defs><mask id="satori_om-id-1"><rect x="68" y="22" width="42" height="26" fill="#fff" mask="url(#satori_om-id)"/><path width="44" height="28" fill="none" stroke="#000" stroke-width="2" d="M71.101,25.101 A14,14 0 0 1 81,21 h16 a14,14 0 0 1 14,14 v0 a14,14 0 0 1 -14,14 h-16 a14,14 0 0 1 -14,-14 v0 A14,14 0 0 1 71.101,25.101"/></mask><path x="67" y="21" width="44" height="28" fill="rgba(8,6,14,0.7)" d="M81,21 h16 a14,14 0 0 1 14,14 v0 a14,14 0 0 1 -14,14 h-16 a14,14 0 0 1 -14,-14 v0 a14,14 0 0 1 14,-14" clip-path="url(#satori_cp-id)" mask="url(#satori_om-id)"/><path width="44" height="28" clip-path="url(#satori_bc-id-1)" fill="none" stroke="rgba(100,80,220,0.25)" stroke-width="2" d="M71.101,25.101 A14,14 0 0 1 81,21 h16 a14,14 0 0 1 14,14 v0 a14,14 0 0 1 -14,14 h-16 a14,14 0 0 1 -14,-14 v0 A14,14 0 0 1 71.101,25.101"/><g mask="url(#satori_om-id)" clip-path="url(#satori_cp-id)"><path fill="#7eb8ff" d="M89.0 40.1L89.0 40.1Q87.7 40.1 86.7 39.6Q85.7 39.0 85.2 37.9Q84.6 36.8 84.6 35.3L84.6 35.3Q84.6 33.7 85.2 32.6Q85.8 31.6 86.7 31.0Q87.7 30.4 89.0 30.4L89.0 30.4Q89.8 30.4 90.5 30.6Q91.2 30.9 91.7 31.3Q92.3 31.7 92.6 32.4Q93.0 33.0 93.1 33.8L93.1 33.8L91.1 33.8Q91.0 33.4 90.9 33.1Q90.7 32.8 90.4 32.6Q90.1 32.4 89.8 32.2Q89.4 32.1 89.0 32.1L89.0 32.1Q88.3 32.1 87.7 32.5Q87.2 32.9 86.9 33.6Q86.6 34.3 86.6 35.3L86.6 35.3Q86.6 36.3 86.9 37.0Q87.2 37.7 87.7 38.1Q88.3 38.4 89.0 38.4L89.0 38.4Q89.4 38.4 89.8 38.3Q90.1 38.2 90.4 38.0Q90.7 37.8 90.9 37.5Q91.0 37.1 91.1 36.8L91.1 36.8L93.1 36.8Q93.0 37.4 92.7 38.0Q92.4 38.6 91.8 39.1Q91.3 39.6 90.6 39.9Q89.9 40.1 89.0 40.1Z "/></g><defs><clipPath id="satori_bc-id-2" clip-path="url(#satori_cp-id)"><path x="121" y="21" width="62" height="28" d="M135,21 h34 a14,14 0 0 1 14,14 v0 a14,14 0 0 1 -14,14 h-34 a14,14 0 0 1 -14,-14 v0 a14,14 0 0 1 14,-14"/></clipPath></defs><mask id="satori_om-id-2"><rect x="122" y="22" width="60" height="26" fill="#fff" mask="url(#satori_om-id)"/><path width="62" height="28" fill="none" stroke="#000" stroke-width="2" d="M125.101,25.101 A14,14 0 0 1 135,21 h34 a14,14 0 0 1 14,14 v0 a14,14 0 0 1 -14,14 h-34 a14,14 0 0 1 -14,-14 v0 A14,14 0 0 1 125.101,25.101"/></mask><path x="121" y="21" width="62" height="28" fill="rgba(8,6,14,0.7)" d="M135,21 h34 a14,14 0 0 1 14,14 v0 a14,14 0 0 1 -14,14 h-34 a14,14 0 0 1 -14,-14 v0 a14,14 0 0 1 14,-14" clip-path="url(#satori_cp-id)" mask="url(#satori_om-id)"/><path width="62" height="28" clip-path="url(#satori_bc-id-2)" fill="none" stroke="rgba(100,80,220,0.25)" stroke-width="2" d="M125.101,25.101 A14,14 0 0 1 135,21 h34 a14,14 0 0 1 14,14 v0 a14,14 0 0 1 -14,14 h-34 a14,14 0 0 1 -14,-14 v0 A14,14 0 0 1 125.101,25.101"/><g mask="url(#satori_om-id)" clip-path="url(#satori_cp-id)"><path fill="#78d4ff" d="M143.0 40.1L143.0 40.1Q141.7 40.1 140.7 39.6Q139.7 39.0 139.2 37.9Q138.6 36.8 138.6 35.3L138.6 35.3Q138.6 33.7 139.2 32.6Q139.8 31.6 140.7 31.0Q141.7 30.4 143.0 30.4L143.0 30.4Q143.8 30.4 144.5 30.6Q145.2 30.9 145.7 31.3Q146.3 31.7 146.6 32.4Q147.0 33.0 147.1 33.8L147.1 33.8L145.1 33.8Q145.0 33.4 144.9 33.1Q144.7 32.8 144.4 32.6Q144.1 32.4 143.8 32.2Q143.4 32.1 143.0 32.1L143.0 32.1Q142.3 32.1 141.7 32.5Q141.2 32.9 140.9 33.6Q140.6 34.3 140.6 35.3L140.6 35.3Q140.6 36.3 140.9 37.0Q141.2 37.7 141.7 38.1Q142.3 38.4 143.0 38.4L143.0 38.4Q143.4 38.4 143.8 38.3Q144.1 38.2 144.4 38.0Q144.7 37.8 144.9 37.5Q145.0 37.1 145.1 36.8L145.1 36.8L147.1 36.8Q147.0 37.4 146.7 38.0Q146.4 38.6 145.8 39.1Q145.3 39.6 144.6 39.9Q143.9 40.1 143.0 40.1ZM152.8 39.5L151.2 39.5L151.2 37.0L148.8 37.0L148.8 35.5L151.2 35.5L151.2 33.0L152.8 33.0L152.8 35.5L155.3 35.5L155.3 37.0L152.8 37.0L152.8 39.5ZM161.7 39.5L160.0 39.5L160.0 37.0L157.6 37.0L157.6 35.5L160.0 35.5L160.0 33.0L161.7 33.0L161.7 35.5L164.1 35.5L164.1 37.0L161.7 37.0L161.7 39.5Z "/></g><defs><clipPath id="satori_bc-id-3" clip-path="url(#satori_cp-id)"><path x="193" y="21" width="92" height="28" d="M207,21 h64 a14,14 0 0 1 14,14 v0 a14,14 0 0 1 -14,14 h-64 a14,14 0 0 1 -14,-14 v0 a14,14 0 0 1 14,-14"/></clipPath></defs><mask id="satori_om-id-3"><rect x="194" y="22" width="90" height="26" fill="#fff" mask="url(#satori_om-id)"/><path width="92" height="28" fill="none" stroke="#000" stroke-width="2" d="M197.101,25.101 A14,14 0 0 1 207,21 h64 a14,14 0 0 1 14,14 v0 a14,14 0 0 1 -14,14 h-64 a14,14 0 0 1 -14,-14 v0 A14,14 0 0 1 197.101,25.101"/></mask><path x="193" y="21" width="92" height="28" fill="rgba(8,6,14,0.7)" d="M207,21 h64 a14,14 0 0 1 14,14 v0 a14,14 0 0 1 -14,14 h-64 a14,14 0 0 1 -14,-14 v0 a14,14 0 0 1 14,-14" clip-path="url(#satori_cp-id)" mask="url(#satori_om-id)"/><path width="92" height="28" clip-path="url(#satori_bc-id-3)" fill="none" stroke="rgba(100,80,220,0.25)" stroke-width="2" d="M197.101,25.101 A14,14 0 0 1 207,21 h64 a14,14 0 0 1 14,14 v0 a14,14 0 0 1 -14,14 h-64 a14,14 0 0 1 -14,-14 v0 A14,14 0 0 1 197.101,25.101"/><g mask="url(#satori_om-id)" clip-path="url(#satori_cp-id)"><path fill="#b8a0ff" d="M212.3 40L210.3 40L212.6 36.4L210.4 32.9L212.5 32.9L213.1 34.0Q213.4 34.6 213.7 35.1L213.7 35.1Q213.7 35.3 213.8 35.4L213.8 35.4Q213.9 35.3 213.9 35.1L213.9 35.1Q214.2 34.6 214.5 34.0L214.5 34.0L215.2 32.9L217.2 32.9L215.0 36.4L217.3 40L215.2 40L214.4 38.7Q214.1 38.1 213.9 37.6L213.9 37.6Q213.8 37.4 213.7 37.3L213.7 37.3Q213.7 37.4 213.6 37.6L213.6 37.6Q213.4 38.1 213.1 38.7L213.1 38.7L212.3 40ZM221.8 40.1L221.8 40.1Q220.7 40.1 219.9 39.8Q219.1 39.4 218.6 38.8Q218.1 38.2 218.1 37.5L218.1 37.5Q218.1 36.9 218.4 36.4Q218.7 35.9 219.1 35.5Q219.6 35.2 220.2 35.1L220.2 35.1L220.2 35.1Q219.4 34.9 219.0 34.3Q218.5 33.7 218.5 33.0L218.5 33.0Q218.5 32.2 218.9 31.6Q219.3 31.1 220.1 30.7Q220.8 30.4 221.8 30.4L221.8 30.4Q222.7 30.4 223.5 30.7Q224.2 31.1 224.6 31.6Q225.1 32.2 225.1 33.0L225.1 33.0Q225.1 33.7 224.6 34.3Q224.1 34.9 223.4 35.1L223.4 35.1L223.4 35.1Q223.9 35.2 224.4 35.5Q224.9 35.9 225.1 36.4Q225.4 36.9 225.4 37.5L225.4 37.5Q225.4 38.2 224.9 38.8Q224.5 39.4 223.7 39.8Q222.8 40.1 221.8 40.1ZM221.8 38.7L221.8 38.7Q222.3 38.7 222.6 38.5Q223.0 38.3 223.2 38.0Q223.4 37.7 223.4 37.3L223.4 37.3Q223.4 36.9 223.2 36.6Q223.0 36.2 222.6 36.1Q222.2 35.9 221.8 35.9L221.8 35.9Q221.3 35.9 220.9 36.1Q220.6 36.2 220.4 36.6Q220.1 36.9 220.1 37.3L220.1 37.3Q220.1 37.7 220.3 38.0Q220.5 38.3 220.9 38.5Q221.3 38.7 221.8 38.7ZM221.8 34.5L221.8 34.5Q222.2 34.5 222.5 34.3Q222.8 34.1 223.0 33.8Q223.2 33.5 223.2 33.2L223.2 33.2Q223.2 32.8 223.0 32.5Q222.8 32.2 222.5 32.1Q222.2 31.9 221.8 31.9L221.8 31.9Q221.4 31.9 221.0 32.1Q220.7 32.2 220.5 32.5Q220.4 32.8 220.4 33.2L220.4 33.2Q220.4 33.5 220.5 33.8Q220.7 34.1 221.0 34.3Q221.4 34.5 221.8 34.5ZM230.3 40.1L230.3 40.1Q229.6 40.1 229.0 39.9Q228.3 39.6 227.8 39.1Q227.2 38.6 226.9 37.7Q226.6 36.8 226.6 35.5L226.6 35.5Q226.6 34.3 226.9 33.4Q227.1 32.4 227.6 31.8Q228.1 31.1 228.8 30.8Q229.5 30.4 230.4 30.4L230.4 30.4Q231.3 30.4 232.1 30.8Q232.8 31.1 233.2 31.8Q233.7 32.4 233.8 33.2L233.8 33.2L231.8 33.2Q231.7 32.7 231.4 32.4Q231.0 32.1 230.4 32.1L230.4 32.1Q229.8 32.1 229.4 32.5Q228.9 32.8 228.7 33.5Q228.5 34.2 228.5 35.1L228.5 35.1L228.6 35.1Q228.8 34.7 229.1 34.4Q229.5 34.1 230.0 33.9Q230.4 33.8 230.9 33.8L230.9 33.8Q231.8 33.8 232.4 34.2Q233.1 34.6 233.5 35.3Q233.9 36.0 233.9 36.8L233.9 36.8Q233.9 37.8 233.4 38.5Q233.0 39.3 232.2 39.7Q231.4 40.1 230.3 40.1ZM230.3 38.6L230.3 38.6Q230.8 38.6 231.2 38.4Q231.5 38.1 231.8 37.8Q232.0 37.4 232.0 36.9L232.0 36.9Q232.0 36.4 231.8 36.0Q231.6 35.7 231.2 35.4Q230.8 35.2 230.3 35.2L230.3 35.2Q230.0 35.2 229.7 35.3Q229.4 35.5 229.2 35.7Q228.9 35.9 228.8 36.2Q228.7 36.5 228.7 36.9L228.7 36.9Q228.7 37.4 228.9 37.7Q229.1 38.1 229.5 38.4Q229.9 38.6 230.3 38.6Z M240.0 40L237.8 40L241.1 30.5L243.6 30.5L246.9 40L244.8 40L244.0 37.8L240.7 37.8L240.0 40ZM241.2 36.3L243.5 36.3L243.2 35.4Q243.0 34.6 242.7 33.5L242.7 33.5Q242.5 32.8 242.3 32.1L242.3 32.1Q242.1 32.8 242.0 33.5L242.0 33.5Q241.7 34.6 241.4 35.4L241.4 35.4L241.2 36.3ZM251.6 40.1L251.6 40.1Q250.4 40.1 249.6 39.8Q248.7 39.4 248.3 38.8Q247.8 38.1 247.8 37.1L247.8 37.1L249.7 37.1Q249.7 37.5 249.9 37.9Q250.2 38.2 250.6 38.3Q251.0 38.5 251.5 38.5L251.5 38.5Q252.1 38.5 252.4 38.4Q252.8 38.2 253.0 37.9Q253.3 37.7 253.3 37.3L253.3 37.3Q253.3 37.0 253.1 36.8Q252.9 36.5 252.5 36.4Q252.1 36.2 251.6 36.1L251.6 36.1L250.6 35.8Q249.4 35.5 248.7 34.9Q248.0 34.3 248.0 33.3L248.0 33.3Q248.0 32.4 248.5 31.8Q248.9 31.1 249.7 30.8Q250.5 30.4 251.6 30.4L251.6 30.4Q252.6 30.4 253.4 30.8Q254.2 31.1 254.6 31.8Q255.1 32.4 255.1 33.2L255.1 33.2L253.2 33.2Q253.2 32.7 252.7 32.4Q252.3 32.0 251.6 32.0L251.6 32.0Q251.1 32.0 250.7 32.2Q250.4 32.3 250.2 32.6Q250.0 32.8 250.0 33.1L250.0 33.1Q250.0 33.5 250.2 33.7Q250.4 34.0 250.8 34.1Q251.1 34.2 251.5 34.3L251.5 34.3L252.4 34.5Q253.0 34.7 253.5 34.9Q254.0 35.1 254.4 35.5Q254.8 35.8 255.0 36.3Q255.2 36.7 255.2 37.3L255.2 37.3Q255.2 38.2 254.8 38.8Q254.3 39.4 253.5 39.8Q252.7 40.1 251.6 40.1ZM258.5 40L256.6 40L256.6 30.5L259.6 30.5L261.1 34.9Q261.2 35.2 261.3 35.7Q261.4 36.2 261.6 36.7L261.6 36.7Q261.7 37.3 261.8 37.8L261.8 37.8Q261.9 37.3 262.0 36.7L262.0 36.7Q262.2 36.2 262.3 35.7Q262.4 35.2 262.5 34.9L262.5 34.9L264.0 30.5L267.0 30.5L267.0 40L265.1 40L265.1 35.5Q265.1 35.2 265.1 34.8Q265.1 34.3 265.1 33.8Q265.1 33.2 265.1 32.7L265.1 32.7Q265.1 32.4 265.1 32.2L265.1 32.2Q265.1 32.5 265.0 32.8L265.0 32.8Q264.8 33.3 264.7 33.8Q264.5 34.4 264.4 34.8Q264.3 35.3 264.2 35.5L264.2 35.5L262.6 40L261.0 40L259.4 35.5Q259.3 35.3 259.2 34.8Q259.0 34.4 258.9 33.9Q258.7 33.3 258.6 32.8L258.6 32.8Q258.5 32.5 258.5 32.3L258.5 32.3Q258.5 32.5 258.5 32.7L258.5 32.7Q258.5 33.2 258.5 33.7Q258.5 34.3 258.5 34.8Q258.5 35.2 258.5 35.5L258.5 35.5L258.5 40Z "/></g><defs><clipPath id="satori_bc-id-4" clip-path="url(#satori_cp-id)"><path x="295" y="21" width="80" height="28" d="M309,21 h52 a14,14 0 0 1 14,14 v0 a14,14 0 0 1 -14,14 h-52 a14,14 0 0 1 -14,-14 v0 a14,14 0 0 1 14,-14"/></clipPath></defs><mask id="satori_om-id-4"><rect x="296" y="22" width="78" height="26" fill="#fff" mask="url(#satori_om-id)"/><path width="80" height="28" fill="none" stroke="#000" stroke-width="2" d="M299.101,25.101 A14,14 0 0 1 309,21 h52 a14,14 0 0 1 14,14 v0 a14,14 0 0 1 -14,14 h-52 a14,14 0 0 1 -14,-14 v0 A14,14 0 0 1 299.101,25.101"/></mask><path x="295" y="21" width="80" height="28" fill="rgba(8,6,14,0.7)" d="M309,21 h52 a14,14 0 0 1 14,14 v0 a14,14 0 0 1 -14,14 h-52 a14,14 0 0 1 -14,-14 v0 a14,14 0 0 1 14,-14" clip-path="url(#satori_cp-id)" mask="url(#satori_om-id)"/><path width="80" height="28" clip-path="url(#satori_bc-id-4)" fill="none" stroke="rgba(100,80,220,0.25)" stroke-width="2" d="M299.101,25.101 A14,14 0 0 1 309,21 h52 a14,14 0 0 1 14,14 v0 a14,14 0 0 1 -14,14 h-52 a14,14 0 0 1 -14,-14 v0 A14,14 0 0 1 299.101,25.101"/><g mask="url(#satori_om-id)" clip-path="url(#satori_cp-id)"><path fill="#9ee79e" d="M314.8 40L312.9 40L312.9 30.5L316.5 30.5Q317.6 30.5 318.4 31.0Q319.1 31.4 319.5 32.1Q319.9 32.8 319.9 33.7L319.9 33.7Q319.9 34.7 319.5 35.4Q319.1 36.1 318.4 36.5Q317.6 36.9 316.5 36.9L316.5 36.9L314.8 36.9L314.8 40ZM314.8 32.1L314.8 35.3L316.2 35.3Q316.8 35.3 317.2 35.1Q317.6 34.9 317.7 34.6Q317.9 34.2 317.9 33.7Q317.9 33.3 317.7 32.9Q317.6 32.5 317.2 32.3Q316.8 32.1 316.2 32.1L316.2 32.1L314.8 32.1ZM321.2 42.5L321.2 42.5L321.6 41.1L321.9 41.1Q322.2 41.2 322.5 41.2Q322.8 41.1 323.0 41.0Q323.2 40.8 323.2 40.4L323.2 40.4L323.3 40.0L320.6 32.9L322.6 32.9L323.8 36.6Q324.1 37.3 324.2 38.0L324.2 38.0Q324.2 38.2 324.3 38.5L324.3 38.5Q324.3 38.2 324.4 38.0L324.4 38.0Q324.6 37.3 324.8 36.6L324.8 36.6L326.0 32.9L328.0 32.9L325.0 40.8Q324.8 41.4 324.5 41.8Q324.1 42.2 323.6 42.5Q323.1 42.7 322.4 42.7L322.4 42.7Q322.0 42.7 321.7 42.7Q321.4 42.6 321.2 42.5ZM331.3 32.9L332.6 32.9L332.6 34.4L331.3 34.4L331.3 37.9Q331.3 38.3 331.4 38.4Q331.6 38.6 331.9 38.6L331.9 38.6Q332.0 38.6 332.2 38.6Q332.4 38.5 332.5 38.5L332.5 38.5L332.8 39.9Q332.5 40.0 332.2 40.1Q331.8 40.1 331.6 40.1L331.6 40.1Q330.5 40.1 329.9 39.6Q329.4 39.1 329.4 38.1L329.4 38.1L329.4 34.4L328.4 34.4L328.4 32.9L329.4 32.9L329.4 31.2L331.3 31.2L331.3 32.9ZM335.7 35.9L335.7 35.9L335.7 40L333.8 40L333.8 30.5L335.7 30.5L335.7 34.3Q336.0 33.7 336.4 33.3L336.4 33.3Q337.0 32.8 337.9 32.8L337.9 32.8Q338.6 32.8 339.1 33.1Q339.7 33.5 340.0 34.1Q340.3 34.7 340.3 35.5L340.3 35.5L340.3 40L338.4 40L338.4 35.8Q338.4 35.2 338.0 34.8Q337.7 34.4 337.1 34.4L337.1 34.4Q336.7 34.4 336.4 34.6Q336.1 34.8 335.9 35.1Q335.7 35.4 335.7 35.9ZM345.1 40.1L345.1 40.1Q344.0 40.1 343.2 39.7Q342.5 39.2 342.0 38.4Q341.6 37.6 341.6 36.5L341.6 36.5Q341.6 35.4 342.0 34.6Q342.5 33.7 343.2 33.3Q344.0 32.8 345.1 32.8L345.1 32.8Q346.2 32.8 346.9 33.3Q347.7 33.7 348.1 34.6Q348.6 35.4 348.6 36.5L348.6 36.5Q348.6 37.6 348.1 38.4Q347.7 39.2 346.9 39.7Q346.2 40.1 345.1 40.1ZM345.1 38.6L345.1 38.6Q345.6 38.6 345.9 38.4Q346.3 38.1 346.5 37.6Q346.6 37.1 346.6 36.5L346.6 36.5Q346.6 35.8 346.5 35.4Q346.3 34.9 345.9 34.6Q345.6 34.3 345.1 34.3L345.1 34.3Q344.6 34.3 344.2 34.6Q343.9 34.9 343.7 35.4Q343.6 35.8 343.6 36.5L343.6 36.5Q343.6 37.1 343.7 37.6Q343.9 38.1 344.2 38.4Q344.6 38.6 345.1 38.6ZM351.8 35.9L351.8 35.9L351.8 40L349.9 40L349.9 32.9L351.7 32.9L351.7 34.4Q352.0 33.7 352.5 33.3L352.5 33.3Q353.0 32.8 353.9 32.8L353.9 32.8Q354.7 32.8 355.2 33.1Q355.8 33.5 356.1 34.1Q356.4 34.7 356.4 35.5L356.4 35.5L356.4 40L354.5 40L354.5 35.8Q354.5 35.2 354.1 34.8Q353.8 34.4 353.2 34.4L353.2 34.4Q352.8 34.4 352.5 34.6Q352.1 34.8 352.0 35.1Q351.8 35.4 351.8 35.9Z "/></g><defs><clipPath id="satori_bc-id-5" clip-path="url(#satori_cp-id)"><path x="385" y="21" width="103" height="28" d="M399,21 h75 a14,14 0 0 1 14,14 v0 a14,14 0 0 1 -14,14 h-75 a14,14 0 0 1 -14,-14 v0 a14,14 0 0 1 14,-14"/></clipPath></defs><mask id="satori_om-id-5"><rect x="386" y="22" width="101" height="26" fill="#fff" mask="url(#satori_om-id)"/><path width="103" height="28" fill="none" stroke="#000" stroke-width="2" d="M389.101,25.101 A14,14 0 0 1 399,21 h75 a14,14 0 0 1 14,14 v0 a14,14 0 0 1 -14,14 h-75 a14,14 0 0 1 -14,-14 v0 A14,14 0 0 1 389.101,25.101"/></mask><path x="385" y="21" width="103" height="28" fill="rgba(8,6,14,0.7)" d="M399,21 h75 a14,14 0 0 1 14,14 v0 a14,14 0 0 1 -14,14 h-75 a14,14 0 0 1 -14,-14 v0 a14,14 0 0 1 14,-14" clip-path="url(#satori_cp-id)" mask="url(#satori_om-id)"/><path width="103" height="28" clip-path="url(#satori_bc-id-5)" fill="none" stroke="rgba(100,80,220,0.25)" stroke-width="2" d="M389.101,25.101 A14,14 0 0 1 399,21 h75 a14,14 0 0 1 14,14 v0 a14,14 0 0 1 -14,14 h-75 a14,14 0 0 1 -14,-14 v0 A14,14 0 0 1 389.101,25.101"/><g mask="url(#satori_om-id)" clip-path="url(#satori_cp-id)"><path fill="#ffcc88" d="M405.6 40.1L405.6 40.1Q404.1 40.1 403.3 39.4Q402.4 38.6 402.4 37.2L402.4 37.2L402.4 36.6L404.4 36.6L404.4 37.2Q404.4 37.9 404.7 38.2Q405.0 38.6 405.6 38.6L405.6 38.6Q406.2 38.6 406.5 38.2Q406.8 37.9 406.8 37.2L406.8 37.2L406.8 30.5L408.7 30.5L408.7 37.1Q408.7 38.6 407.9 39.4Q407.1 40.1 405.6 40.1ZM412.4 40.1L412.4 40.1Q411.7 40.1 411.2 39.9Q410.6 39.7 410.3 39.2Q410.0 38.7 410.0 38.0L410.0 38.0Q410.0 37.4 410.2 37.0Q410.5 36.6 410.8 36.4Q411.2 36.1 411.7 36.0Q412.2 35.9 412.7 35.8L412.7 35.8Q413.3 35.8 413.7 35.7Q414.1 35.7 414.3 35.5Q414.4 35.4 414.4 35.2L414.4 35.2L414.4 35.2Q414.4 34.9 414.3 34.7Q414.2 34.4 413.9 34.3Q413.7 34.2 413.3 34.2L413.3 34.2Q412.9 34.2 412.7 34.3Q412.4 34.4 412.2 34.6Q412.1 34.8 412.0 35.0L412.0 35.0L410.2 34.8Q410.4 34.1 410.8 33.7Q411.3 33.3 411.9 33.0Q412.5 32.8 413.3 32.8L413.3 32.8Q413.9 32.8 414.4 33.0Q415.0 33.1 415.4 33.4Q415.8 33.7 416.1 34.1Q416.3 34.6 416.3 35.2L416.3 35.2L416.3 40L414.5 40L414.5 39.0L414.5 39.0Q414.3 39.3 414.0 39.6Q413.7 39.8 413.3 40.0Q412.9 40.1 412.4 40.1ZM412.9 38.8L412.9 38.8Q413.4 38.8 413.7 38.6Q414.1 38.4 414.3 38.1Q414.4 37.8 414.4 37.5L414.4 37.5L414.4 36.7Q414.4 36.8 414.2 36.8Q414.0 36.9 413.8 36.9Q413.6 36.9 413.4 37.0Q413.2 37.0 413.0 37.0L413.0 37.0Q412.7 37.1 412.4 37.2Q412.1 37.3 412.0 37.5Q411.9 37.7 411.9 38.0L411.9 38.0Q411.9 38.2 412.0 38.4Q412.1 38.6 412.4 38.7Q412.6 38.8 412.9 38.8ZM422.1 40L420.0 40L417.3 32.9L419.4 32.9L420.6 36.6Q420.8 37.3 420.9 38.0L420.9 38.0Q421.0 38.3 421.1 38.5L421.1 38.5Q421.1 38.3 421.2 38.0L421.2 38.0Q421.3 37.3 421.6 36.6L421.6 36.6L422.7 32.9L424.7 32.9L422.1 40ZM427.7 40.1L427.7 40.1Q427.1 40.1 426.5 39.9Q426.0 39.7 425.7 39.2Q425.4 38.7 425.4 38.0L425.4 38.0Q425.4 37.4 425.6 37.0Q425.8 36.6 426.2 36.4Q426.6 36.1 427.0 36.0Q427.5 35.9 428.1 35.8L428.1 35.8Q428.7 35.8 429.0 35.7Q429.4 35.7 429.6 35.5Q429.8 35.4 429.8 35.2L429.8 35.2L429.8 35.2Q429.8 34.9 429.6 34.7Q429.5 34.4 429.3 34.3Q429.0 34.2 428.7 34.2L428.7 34.2Q428.3 34.2 428.0 34.3Q427.7 34.4 427.6 34.6Q427.4 34.8 427.3 35.0L427.3 35.0L425.6 34.8Q425.8 34.1 426.2 33.7Q426.6 33.3 427.2 33.0Q427.9 32.8 428.7 32.8L428.7 32.8Q429.2 32.8 429.8 33.0Q430.3 33.1 430.7 33.4Q431.2 33.7 431.4 34.1Q431.7 34.6 431.7 35.2L431.7 35.2L431.7 40L429.9 40L429.9 39.0L429.8 39.0Q429.6 39.3 429.4 39.6Q429.1 39.8 428.7 40.0Q428.3 40.1 427.7 40.1ZM428.3 38.8L428.3 38.8Q428.7 38.8 429.1 38.6Q429.4 38.4 429.6 38.1Q429.8 37.8 429.8 37.5L429.8 37.5L429.8 36.7Q429.7 36.8 429.5 36.8Q429.4 36.9 429.1 36.9Q428.9 36.9 428.7 37.0Q428.5 37.0 428.4 37.0L428.4 37.0Q428.0 37.1 427.8 37.2Q427.5 37.3 427.3 37.5Q427.2 37.7 427.2 38.0L427.2 38.0Q427.2 38.2 427.3 38.4Q427.5 38.6 427.7 38.7Q428.0 38.8 428.3 38.8ZM436.8 40.1L436.8 40.1Q435.7 40.1 434.8 39.8Q434.0 39.4 433.5 38.8Q433.1 38.1 433.0 37.1L433.0 37.1L434.9 37.1Q435.0 37.5 435.2 37.9Q435.4 38.2 435.9 38.3Q436.3 38.5 436.8 38.5L436.8 38.5Q437.3 38.5 437.7 38.4Q438.1 38.2 438.3 37.9Q438.5 37.7 438.5 37.3L438.5 37.3Q438.5 37.0 438.3 36.8Q438.1 36.5 437.8 36.4Q437.4 36.2 436.9 36.1L436.9 36.1L435.8 35.8Q434.6 35.5 434.0 34.9Q433.3 34.3 433.3 33.3L433.3 33.3Q433.3 32.4 433.7 31.8Q434.2 31.1 435.0 30.8Q435.8 30.4 436.8 30.4L436.8 30.4Q437.9 30.4 438.7 30.8Q439.4 31.1 439.9 31.8Q440.3 32.4 440.3 33.2L440.3 33.2L438.5 33.2Q438.4 32.7 438.0 32.4Q437.5 32.0 436.8 32.0L436.8 32.0Q436.3 32.0 436.0 32.2Q435.6 32.3 435.4 32.6Q435.3 32.8 435.3 33.1L435.3 33.1Q435.3 33.5 435.5 33.7Q435.7 34.0 436.0 34.1Q436.4 34.2 436.8 34.3L436.8 34.3L437.6 34.5Q438.2 34.7 438.7 34.9Q439.3 35.1 439.6 35.5Q440.0 35.8 440.2 36.3Q440.5 36.7 440.5 37.3L440.5 37.3Q440.5 38.2 440.0 38.8Q439.6 39.4 438.8 39.8Q438.0 40.1 436.8 40.1ZM445.0 40.1L445.0 40.1Q443.9 40.1 443.1 39.7Q442.4 39.2 441.9 38.4Q441.5 37.6 441.5 36.5L441.5 36.5Q441.5 35.4 441.9 34.6Q442.4 33.7 443.1 33.3Q443.9 32.8 445.0 32.8L445.0 32.8Q445.6 32.8 446.1 33.0Q446.7 33.1 447.1 33.4Q447.5 33.8 447.8 34.2Q448.0 34.6 448.1 35.2L448.1 35.2L446.4 35.5Q446.3 35.2 446.2 35.0Q446.1 34.8 445.9 34.6Q445.7 34.5 445.5 34.4Q445.3 34.3 445.0 34.3L445.0 34.3Q444.5 34.3 444.2 34.6Q443.8 34.9 443.6 35.3Q443.5 35.8 443.5 36.5L443.5 36.5Q443.5 37.1 443.6 37.6Q443.8 38.1 444.2 38.4Q444.5 38.6 445.0 38.6L445.0 38.6Q445.3 38.6 445.5 38.6Q445.7 38.5 445.9 38.3Q446.1 38.1 446.2 37.9Q446.3 37.7 446.4 37.4L446.4 37.4L448.2 37.7Q448.1 38.3 447.8 38.7Q447.5 39.2 447.1 39.5Q446.7 39.8 446.2 40.0Q445.6 40.1 445.0 40.1ZM451.4 40L449.5 40L449.5 32.9L451.3 32.9L451.3 34.1L451.4 34.1Q451.6 33.5 452.0 33.1Q452.5 32.8 453.1 32.8L453.1 32.8Q453.2 32.8 453.4 32.8Q453.6 32.8 453.7 32.9L453.7 32.9L453.7 34.6Q453.6 34.5 453.3 34.5Q453.1 34.5 452.9 34.5L452.9 34.5Q452.5 34.5 452.1 34.7Q451.8 34.9 451.6 35.2Q451.4 35.5 451.4 36.0L451.4 36.0L451.4 40ZM456.7 40L454.8 40L454.8 32.9L456.7 32.9L456.7 40ZM455.7 32.0L455.7 32.0Q455.3 32.0 455.0 31.7Q454.7 31.4 454.7 31.0L454.7 31.0Q454.7 30.6 455.0 30.3Q455.3 30.0 455.7 30.0L455.7 30.0Q456.1 30.0 456.4 30.3Q456.8 30.6 456.8 31.0L456.8 31.0Q456.8 31.4 456.4 31.7Q456.1 32.0 455.7 32.0ZM460.2 42.7L458.3 42.7L458.3 32.9L460.2 32.9L460.2 34.1L460.2 34.1Q460.4 33.8 460.6 33.5Q460.9 33.2 461.3 33.0Q461.7 32.8 462.3 32.8L462.3 32.8Q463.1 32.8 463.7 33.2Q464.4 33.6 464.7 34.4Q465.1 35.3 465.1 36.5L465.1 36.5Q465.1 37.6 464.8 38.5Q464.4 39.3 463.7 39.7Q463.1 40.1 462.3 40.1L462.3 40.1Q461.7 40.1 461.3 39.9Q460.9 39.7 460.6 39.4Q460.4 39.1 460.2 38.9L460.2 38.9L460.2 38.9L460.2 42.7ZM461.7 38.6L461.7 38.6Q462.2 38.6 462.5 38.3Q462.8 38.0 463.0 37.6Q463.2 37.1 463.2 36.5L463.2 36.5Q463.2 35.8 463.0 35.4Q462.8 34.9 462.5 34.6Q462.2 34.3 461.7 34.3L461.7 34.3Q461.2 34.3 460.8 34.6Q460.5 34.9 460.3 35.3Q460.1 35.8 460.1 36.5L460.1 36.5Q460.1 37.1 460.3 37.6Q460.5 38.1 460.8 38.3Q461.2 38.6 461.7 38.6ZM468.7 32.9L470.0 32.9L470.0 34.4L468.7 34.4L468.7 37.9Q468.7 38.3 468.8 38.4Q469.0 38.6 469.3 38.6L469.3 38.6Q469.4 38.6 469.6 38.6Q469.8 38.5 469.9 38.5L469.9 38.5L470.2 39.9Q469.9 40.0 469.6 40.1Q469.2 40.1 469.0 40.1L469.0 40.1Q467.9 40.1 467.3 39.6Q466.8 39.1 466.8 38.1L466.8 38.1L466.8 34.4L465.8 34.4L465.8 32.9L466.8 32.9L466.8 31.2L468.7 31.2L468.7 32.9Z "/></g><defs><clipPath id="satori_bc-id-6" clip-path="url(#satori_cp-id)"><path x="498" y="21" width="63" height="28" d="M512,21 h35 a14,14 0 0 1 14,14 v0 a14,14 0 0 1 -14,14 h-35 a14,14 0 0 1 -14,-14 v0 a14,14 0 0 1 14,-14"/></clipPath></defs><mask id="satori_om-id-6"><rect x="499" y="22" width="61" height="26" fill="#fff" mask="url(#satori_om-id)"/><path width="63" height="28" fill="none" stroke="#000" stroke-width="2" d="M502.101,25.101 A14,14 0 0 1 512,21 h35 a14,14 0 0 1 14,14 v0 a14,14 0 0 1 -14,14 h-35 a14,14 0 0 1 -14,-14 v0 A14,14 0 0 1 502.101,25.101"/></mask><path x="498" y="21" width="63" height="28" fill="rgba(8,6,14,0.7)" d="M512,21 h35 a14,14 0 0 1 14,14 v0 a14,14 0 0 1 -14,14 h-35 a14,14 0 0 1 -14,-14 v0 a14,14 0 0 1 14,-14" clip-path="url(#satori_cp-id)" mask="url(#satori_om-id)"/><path width="63" height="28" clip-path="url(#satori_bc-id-6)" fill="none" stroke="rgba(100,80,220,0.25)" stroke-width="2" d="M502.101,25.101 A14,14 0 0 1 512,21 h35 a14,14 0 0 1 14,14 v0 a14,14 0 0 1 -14,14 h-35 a14,14 0 0 1 -14,-14 v0 A14,14 0 0 1 502.101,25.101"/><g mask="url(#satori_om-id)" clip-path="url(#satori_cp-id)"><path fill="#ffb088" d="M517.8 40L515.9 40L515.9 30.5L519.5 30.5Q520.6 30.5 521.4 30.9Q522.1 31.3 522.5 32.0Q522.9 32.7 522.9 33.6Q522.9 34.6 522.5 35.2Q522.1 35.9 521.4 36.3L521.4 36.3Q521.3 36.3 521.3 36.3L521.3 36.3L523.3 40L521.1 40L519.3 36.6L517.8 36.6L517.8 40ZM517.8 32.1L517.8 35.1L519.2 35.1Q519.8 35.1 520.2 34.9Q520.5 34.7 520.7 34.4Q520.9 34.1 520.9 33.6L520.9 33.6Q520.9 33.1 520.7 32.8Q520.5 32.5 520.2 32.3Q519.8 32.1 519.2 32.1L519.2 32.1L517.8 32.1ZM526.8 40.1L526.8 40.1Q526.1 40.1 525.5 39.8Q525.0 39.4 524.7 38.8Q524.4 38.2 524.4 37.4L524.4 37.4L524.4 32.9L526.3 32.9L526.3 37.1Q526.3 37.7 526.6 38.1Q526.9 38.5 527.5 38.5L527.5 38.5Q527.9 38.5 528.3 38.3Q528.6 38.1 528.7 37.8Q528.9 37.5 528.9 37.0L528.9 37.0L528.9 32.9L530.8 32.9L530.8 40L529.0 40L529.0 38.5Q528.7 39.2 528.3 39.6L528.3 39.6Q527.7 40.1 526.8 40.1ZM535.3 40.1L535.3 40.1Q534.4 40.1 533.7 39.9Q533.1 39.7 532.7 39.2Q532.2 38.7 532.1 38.1L532.1 38.1L533.9 37.8Q534.0 38.2 534.4 38.5Q534.7 38.7 535.3 38.7L535.3 38.7Q535.9 38.7 536.2 38.5Q536.5 38.3 536.5 38.0L536.5 38.0Q536.5 37.7 536.3 37.6Q536.0 37.4 535.6 37.3L535.6 37.3L534.4 37.0Q533.3 36.8 532.8 36.3Q532.3 35.8 532.3 35.0L532.3 35.0Q532.3 34.3 532.7 33.8Q533.1 33.3 533.7 33.1Q534.4 32.8 535.3 32.8L535.3 32.8Q536.1 32.8 536.7 33.0Q537.4 33.3 537.7 33.7Q538.1 34.1 538.3 34.7L538.3 34.7L536.6 35.0Q536.5 34.6 536.1 34.4Q535.8 34.2 535.3 34.2L535.3 34.2Q534.8 34.2 534.5 34.4Q534.2 34.6 534.2 34.9L534.2 34.9Q534.2 35.2 534.4 35.4Q534.6 35.5 535.1 35.6L535.1 35.6L536.4 35.9Q537.4 36.1 537.9 36.6Q538.4 37.0 538.4 37.8L538.4 37.8Q538.4 38.5 538.0 39.0Q537.6 39.6 536.9 39.8Q536.2 40.1 535.3 40.1ZM541.9 32.9L543.2 32.9L543.2 34.4L541.9 34.4L541.9 37.9Q541.9 38.3 542.1 38.4Q542.2 38.6 542.6 38.6L542.6 38.6Q542.7 38.6 542.9 38.6Q543.1 38.5 543.2 38.5L543.2 38.5L543.4 39.9Q543.1 40.0 542.8 40.1Q542.5 40.1 542.2 40.1L542.2 40.1Q541.1 40.1 540.6 39.6Q540.0 39.1 540.0 38.1L540.0 38.1L540.0 34.4L539.0 34.4L539.0 32.9L540.0 32.9L540.0 31.2L541.9 31.2L541.9 32.9Z "/></g><defs><clipPath id="satori_bc-id-7" clip-path="url(#satori_cp-id)"><path x="571" y="21" width="67" height="28" d="M585,21 h39 a14,14 0 0 1 14,14 v0 a14,14 0 0 1 -14,14 h-39 a14,14 0 0 1 -14,-14 v0 a14,14 0 0 1 14,-14"/></clipPath></defs><mask id="satori_om-id-7"><rect x="572" y="22" width="65" height="26" fill="#fff" mask="url(#satori_om-id)"/><path width="67" height="28" fill="none" stroke="#000" stroke-width="2" d="M575.101,25.101 A14,14 0 0 1 585,21 h39 a14,14 0 0 1 14,14 v0 a14,14 0 0 1 -14,14 h-39 a14,14 0 0 1 -14,-14 v0 A14,14 0 0 1 575.101,25.101"/></mask><path x="571" y="21" width="67" height="28" fill="rgba(8,6,14,0.7)" d="M585,21 h39 a14,14 0 0 1 14,14 v0 a14,14 0 0 1 -14,14 h-39 a14,14 0 0 1 -14,-14 v0 a14,14 0 0 1 14,-14" clip-path="url(#satori_cp-id)" mask="url(#satori_om-id)"/><path width="67" height="28" clip-path="url(#satori_bc-id-7)" fill="none" stroke="rgba(100,80,220,0.25)" stroke-width="2" d="M575.101,25.101 A14,14 0 0 1 585,21 h39 a14,14 0 0 1 14,14 v0 a14,14 0 0 1 -14,14 h-39 a14,14 0 0 1 -14,-14 v0 A14,14 0 0 1 575.101,25.101"/><g mask="url(#satori_om-id)" clip-path="url(#satori_cp-id)"><path fill="#e8c8ff" d="M593.0 40.1L593.0 40.1Q591.7 40.1 590.7 39.5Q589.7 39.0 589.2 37.9Q588.6 36.8 588.6 35.3L588.6 35.3Q588.6 33.7 589.2 32.7Q589.8 31.6 590.8 31.0Q591.8 30.4 593.0 30.4L593.0 30.4Q593.8 30.4 594.5 30.6Q595.2 30.9 595.7 31.3Q596.3 31.7 596.6 32.3Q596.9 32.9 597.0 33.6L597.0 33.6L595.1 33.6Q595.0 33.3 594.8 33.0Q594.6 32.7 594.3 32.5Q594.1 32.3 593.8 32.2Q593.4 32.1 593.0 32.1L593.0 32.1Q592.3 32.1 591.7 32.5Q591.2 32.9 590.9 33.6Q590.6 34.3 590.6 35.3Q590.6 36.3 590.9 37.0Q591.2 37.7 591.7 38.0Q592.3 38.4 593.1 38.4L593.1 38.4Q593.7 38.4 594.2 38.2Q594.7 37.9 595.0 37.4L595.0 37.4Q595.2 37.0 595.2 36.4L595.2 36.4L593.2 36.4L593.2 35.0L597.1 35.0L597.1 36.1Q597.1 37.4 596.6 38.3Q596.1 39.2 595.2 39.6Q594.2 40.1 593.0 40.1ZM604.6 40L598.6 40L598.6 30.5L600.5 30.5L600.5 38.4L604.6 38.4L604.6 40ZM609.4 40.1L609.4 40.1Q608.3 40.1 607.5 39.8Q606.6 39.4 606.1 38.8Q605.7 38.1 605.6 37.1L605.6 37.1L607.5 37.1Q607.6 37.5 607.8 37.9Q608.1 38.2 608.5 38.3Q608.9 38.5 609.4 38.5L609.4 38.5Q609.9 38.5 610.3 38.4Q610.7 38.2 610.9 37.9Q611.1 37.7 611.1 37.3L611.1 37.3Q611.1 37.0 610.9 36.8Q610.7 36.5 610.4 36.4Q610.0 36.2 609.5 36.1L609.5 36.1L608.5 35.8Q607.3 35.5 606.6 34.9Q605.9 34.3 605.9 33.3L605.9 33.3Q605.9 32.4 606.4 31.8Q606.8 31.1 607.6 30.8Q608.4 30.4 609.5 30.4L609.5 30.4Q610.5 30.4 611.3 30.8Q612.1 31.1 612.5 31.8Q612.9 32.4 613.0 33.2L613.0 33.2L611.1 33.2Q611.0 32.7 610.6 32.4Q610.2 32.0 609.4 32.0L609.4 32.0Q608.9 32.0 608.6 32.2Q608.2 32.3 608.1 32.6Q607.9 32.8 607.9 33.1L607.9 33.1Q607.9 33.5 608.1 33.7Q608.3 34.0 608.7 34.1Q609.0 34.2 609.4 34.3L609.4 34.3L610.3 34.5Q610.9 34.7 611.4 34.9Q611.9 35.1 612.3 35.5Q612.7 35.8 612.9 36.3Q613.1 36.7 613.1 37.3L613.1 37.3Q613.1 38.2 612.6 38.8Q612.2 39.4 611.4 39.8Q610.6 40.1 609.4 40.1ZM620.5 40L614.5 40L614.5 30.5L616.4 30.5L616.4 38.4L620.5 38.4L620.5 40Z "/></g><defs><clipPath id="satori_bc-id-8" clip-path="url(#satori_cp-id)"><path x="648" y="21" width="86" height="28" d="M662,21 h58 a14,14 0 0 1 14,14 v0 a14,14 0 0 1 -14,14 h-58 a14,14 0 0 1 -14,-14 v0 a14,14 0 0 1 14,-14"/></clipPath></defs><mask id="satori_om-id-8"><rect x="649" y="22" width="84" height="26" fill="#fff" mask="url(#satori_om-id)"/><path width="86" height="28" fill="none" stroke="#000" stroke-width="2" d="M652.101,25.101 A14,14 0 0 1 662,21 h58 a14,14 0 0 1 14,14 v0 a14,14 0 0 1 -14,14 h-58 a14,14 0 0 1 -14,-14 v0 A14,14 0 0 1 652.101,25.101"/></mask><path x="648" y="21" width="86" height="28" fill="rgba(8,6,14,0.7)" d="M662,21 h58 a14,14 0 0 1 14,14 v0 a14,14 0 0 1 -14,14 h-58 a14,14 0 0 1 -14,-14 v0 a14,14 0 0 1 14,-14" clip-path="url(#satori_cp-id)" mask="url(#satori_om-id)"/><path width="86" height="28" clip-path="url(#satori_bc-id-8)" fill="none" stroke="rgba(100,80,220,0.25)" stroke-width="2" d="M652.101,25.101 A14,14 0 0 1 662,21 h58 a14,14 0 0 1 14,14 v0 a14,14 0 0 1 -14,14 h-58 a14,14 0 0 1 -14,-14 v0 A14,14 0 0 1 652.101,25.101"/><g mask="url(#satori_om-id)" clip-path="url(#satori_cp-id)"><path fill="#7ee7ff" d="M670.0 40.1L670.0 40.1Q668.8 40.1 667.8 39.6Q666.8 39.0 666.2 37.9Q665.6 36.8 665.6 35.3L665.6 35.3Q665.6 33.7 666.2 32.6Q666.8 31.6 667.8 31.0Q668.8 30.4 670.0 30.4L670.0 30.4Q671.3 30.4 672.3 31.0Q673.3 31.6 673.8 32.6Q674.4 33.7 674.4 35.3L674.4 35.3Q674.4 36.8 673.8 37.9Q673.3 39.0 672.3 39.6Q671.3 40.1 670.0 40.1ZM670.0 38.4L670.0 38.4Q670.7 38.4 671.3 38.0Q671.8 37.7 672.1 37.0Q672.5 36.3 672.5 35.3L672.5 35.3Q672.5 34.3 672.1 33.6Q671.8 32.9 671.3 32.5Q670.7 32.1 670.0 32.1L670.0 32.1Q669.3 32.1 668.7 32.5Q668.2 32.9 667.9 33.6Q667.6 34.3 667.6 35.3L667.6 35.3Q667.6 36.3 667.9 37.0Q668.2 37.7 668.7 38.0Q669.3 38.4 670.0 38.4ZM677.7 42.7L675.8 42.7L675.8 32.9L677.7 32.9L677.7 34.1L677.8 34.1Q677.9 33.8 678.2 33.5Q678.4 33.2 678.8 33.0Q679.2 32.8 679.8 32.8L679.8 32.8Q680.6 32.8 681.3 33.2Q681.9 33.6 682.3 34.4Q682.7 35.3 682.7 36.5L682.7 36.5Q682.7 37.6 682.3 38.5Q681.9 39.3 681.3 39.7Q680.6 40.1 679.8 40.1L679.8 40.1Q679.2 40.1 678.8 39.9Q678.4 39.7 678.2 39.4Q677.9 39.1 677.8 38.9L677.8 38.9L677.7 38.9L677.7 42.7ZM679.2 38.6L679.2 38.6Q679.7 38.6 680.1 38.3Q680.4 38.0 680.6 37.6Q680.7 37.1 680.7 36.5L680.7 36.5Q680.7 35.8 680.6 35.4Q680.4 34.9 680.1 34.6Q679.7 34.3 679.2 34.3L679.2 34.3Q678.7 34.3 678.4 34.6Q678.0 34.9 677.9 35.3Q677.7 35.8 677.7 36.5L677.7 36.5Q677.7 37.1 677.9 37.6Q678.1 38.1 678.4 38.3Q678.7 38.6 679.2 38.6ZM687.2 40.1L687.2 40.1Q686.1 40.1 685.4 39.7Q684.6 39.3 684.1 38.4Q683.7 37.6 683.7 36.5L683.7 36.5Q683.7 35.4 684.1 34.6Q684.6 33.7 685.3 33.3Q686.1 32.8 687.1 32.8L687.1 32.8Q687.8 32.8 688.4 33.0Q689.0 33.3 689.5 33.7Q690.0 34.2 690.2 34.8Q690.5 35.5 690.5 36.4L690.5 36.4L690.5 36.9L685.6 36.9Q685.6 37.5 685.8 37.9L685.8 37.9Q686.0 38.3 686.4 38.5Q686.8 38.7 687.3 38.7L687.3 38.7Q687.6 38.7 687.9 38.6Q688.1 38.5 688.3 38.3Q688.5 38.1 688.6 37.9L688.6 37.9L690.4 38.2Q690.2 38.8 689.8 39.2Q689.3 39.7 688.7 39.9Q688.1 40.1 687.2 40.1ZM685.6 35.8L685.6 35.8L688.6 35.8Q688.6 35.4 688.5 35.1L688.5 35.1Q688.3 34.7 688.0 34.5Q687.6 34.2 687.2 34.2L687.2 34.2Q686.7 34.2 686.3 34.5Q686.0 34.7 685.8 35.1L685.8 35.1Q685.7 35.4 685.6 35.8ZM693.7 35.9L693.7 35.9L693.7 40L691.8 40L691.8 32.9L693.6 32.9L693.6 34.4Q693.9 33.7 694.3 33.3L694.3 33.3Q694.9 32.8 695.8 32.8L695.8 32.8Q696.5 32.8 697.1 33.1Q697.6 33.5 697.9 34.1Q698.2 34.7 698.2 35.5L698.2 35.5L698.2 40L696.3 40L696.3 35.8Q696.3 35.2 696.0 34.8Q695.7 34.4 695.0 34.4L695.0 34.4Q694.6 34.4 694.3 34.6Q694.0 34.8 693.8 35.1Q693.7 35.4 693.7 35.9ZM704.1 40.1L704.1 40.1Q702.8 40.1 701.8 39.5Q700.8 39.0 700.2 37.9Q699.6 36.8 699.6 35.3L699.6 35.3Q699.6 33.7 700.2 32.7Q700.8 31.6 701.8 31.0Q702.8 30.4 704.1 30.4L704.1 30.4Q704.9 30.4 705.5 30.6Q706.2 30.9 706.8 31.3Q707.3 31.7 707.6 32.3Q708.0 32.9 708.1 33.6L708.1 33.6L706.1 33.6Q706.0 33.3 705.8 33.0Q705.7 32.7 705.4 32.5Q705.1 32.3 704.8 32.2Q704.5 32.1 704.1 32.1L704.1 32.1Q703.4 32.1 702.8 32.5Q702.2 32.9 701.9 33.6Q701.6 34.3 701.6 35.3Q701.6 36.3 701.9 37.0Q702.2 37.7 702.8 38.0Q703.3 38.4 704.1 38.4L704.1 38.4Q704.8 38.4 705.3 38.2Q705.8 37.9 706.0 37.4L706.0 37.4Q706.3 37.0 706.3 36.4L706.3 36.4L704.2 36.4L704.2 35.0L708.2 35.0L708.2 36.1Q708.2 37.4 707.6 38.3Q707.1 39.2 706.2 39.6Q705.3 40.1 704.1 40.1ZM715.7 40L709.7 40L709.7 30.5L711.6 30.5L711.6 38.4L715.7 38.4L715.7 40Z "/></g></svg>