<!-- Generated by readme-aura https://github.com/collectioneur/readme-aura -->
<svg width="800" height="260" viewBox="0 0 800 260" xmlns="http://www.w3.org/2000/svg"><defs><clipPath id="satori_bc-id"><path x="0" y="0" width="800" height="260" d="M20,0 h760 a20,20 0 0 1 20,20 v220 a20,20 0 0 1 -20,20 h-760 a20,20 0 0 1 -20,-20 v-220 a20,20 0 0 1 20,-20"/></clipPath></defs><clipPath id="satori_cp-id"><path x="0" y="0" width="800" height="260" d="M20,0 h760 a20,20 0 0 1 20,20 v220 a20,20 0 0 1 -20,20 h-760 a20,20 0 0 1 -20,-20 v-220 a20,20 0 0 1 20,-20"/></clipPath><mask id="satori_om-id"><rect x="1" y="1" width="798" height="258" fill="#fff"/><path width="800" height="260" fill="none" stroke="#000" stroke-width="2" d="M5.8580000000000005,5.8580000000000005 A20,20 0 0 1 20,0 h760 a20,20 0 0 1 20,20 v220 a20,20 0 0 1 -20,20 h-760 a20,20 0 0 1 -20,-20 v-220 A20,20 0 0 1 5.8580000000000005,5.8580000000000005"/></mask><path x="0" y="0" width="800" height="260" fill="#06060a" d="M20,0 h760 a20,20 0 0 1 20,20 v220 a20,20 0 0 1 -20,20 h-760 a20,20 0 0 1 -20,-20 v-220 a20,20 0 0 1 20,-20"/><path width="800" height="260" clip-path="url(#satori_bc-id)" fill="none" stroke="rgba(110,80,220,0.2)" stroke-width="2" d="M5.8580000000000005,5.8580000000000005 A20,20 0 0 1 20,0 h760 a20,20 0 0 1 20,20 v220 a20,20 0 0 1 -20,20 h-760 a20,20 0 0 1 -20,-20 v-220 A20,20 0 0 1 5.8580000000000005,5.8580000000000005"/><clipPath id="satori_cp-id-0" clip-path="url(#satori_cp-id)"><rect x="1" y="1" width="800" height="260"/></clipPath><mask id="satori_om-id-0"><rect x="1" y="1" width="800" height="260" fill="#fff" mask="url(#satori_om-id)"/></mask><svg x="1" y="1" width="800" height="260" preserveAspectRatio="none" clip-path="url(#satori_cp-id-0)" mask="url(#satori_om-id-0)"><defs><radialGradient id="hg1" cx="50%" cy="50%" r="50%"><stop offset="0%" stop-color="rgba(138,43,226,0.65)"></stop><stop offset="60%" stop-color="rgba(138,43,226,0.15)"></stop><stop offset="100%" stop-color="rgba(138,43,226,0)"></stop></radialGradient><radialGradient id="hg2" cx="50%" cy="50%" r="50%"><stop offset="0%" stop-color="rgba(20,80,255,0.6)"></stop><stop offset="60%" stop-color="rgba(20,80,255,0.12)"></stop><stop offset="100%" stop-color="rgba(20,80,255,0)"></stop></radialGradient><radialGradient id="hg3" cx="50%" cy="50%" r="50%"><stop offset="0%" stop-color="rgba(0,220,240,0.55)"></stop><stop offset="100%" stop-color="rgba(0,220,240,0)"></stop></radialGradient><radialGradient id="hg4" cx="50%" cy="50%" r="50%"><stop offset="0%" stop-color="rgba(220,40,255,0.5)"></stop><stop offset="100%" stop-color="rgba(220,40,255,0)"></stop></radialGradient><radialGradient id="hg5" cx="50%" cy="50%" r="50%"><stop offset="0%" stop-color="rgba(255,40,120,0.45)"></stop><stop offset="100%" stop-color="rgba(255,40,120,0)"></stop></radialGradient><radialGradient id="hg6" cx="50%" cy="50%" r="50%"><stop offset="0%" stop-color="rgba(60,50,255,0.5)"></stop><stop offset="100%" stop-color="rgba(60,50,255,0)"></stop></radialGradient><radialGradient id="hg7" cx="50%" cy="50%" r="50%"><stop offset="0%" stop-color="rgba(0,200,180,0.4)"></stop><stop offset="100%" stop-color="rgba(0,200,180,0)"></stop></radialGradient><radialGradient id="hg8" cx="50%" cy="50%" r="50%"><stop offset="0%" stop-color="rgba(200,20,200,0.5)"></stop><stop offset="100%" stop-color="rgba(200,20,200,0)"></stop></radialGradient><linearGradient id="hg-scan" x1="0%" y1="0%" x2="100%" y2="0%"><stop offset="0%" stop-color="rgba(120,200,255,0)"></stop><stop offset="40%" stop-color="rgba(120,200,255,0.15)"></stop><stop offset="50%" stop-color="rgba(120,200,255,0.4)"></stop><stop offset="60%" stop-color="rgba(120,200,255,0.15)"></stop><stop offset="100%" stop-color="rgba(120,200,255,0)"></stop></linearGradient><linearGradient id="hg-hline" x1="0%" y1="0%" x2="100%" y2="0%"><stop offset="0%" stop-color="rgba(138,43,226,0)"></stop><stop offset="15%" stop-color="rgba(100,60,255,0.25)"></stop><stop offset="50%" stop-color="rgba(80,200,255,0.5)"></stop><stop offset="85%" stop-color="rgba(200,50,255,0.25)"></stop><stop offset="100%" stop-color="rgba(200,50,255,0)"></stop></linearGradient></defs><ellipse id="hdr-g1" cx="80" cy="50" rx="180" ry="120" fill="url(#hg1)"></ellipse><ellipse id="hdr-g2" cx="720" cy="70" rx="160" ry="110" fill="url(#hg2)"></ellipse><ellipse id="hdr-g3" cx="400" cy="220" rx="200" ry="120" fill="url(#hg3)"></ellipse><ellipse id="hdr-g4" cx="220" cy="180" rx="130" ry="90" fill="url(#hg4)"></ellipse><ellipse id="hdr-g5" cx="620" cy="200" rx="140" ry="95" fill="url(#hg5)"></ellipse><ellipse id="hdr-g6" cx="30" cy="170" rx="110" ry="80" fill="url(#hg6)"></ellipse><ellipse id="hdr-g7" cx="770" cy="30" rx="120" ry="85" fill="url(#hg7)"></ellipse><ellipse id="hdr-g8" cx="350" cy="20" rx="100" ry="70" fill="url(#hg8)"></ellipse><circle id="hdr-ring1" cx="400" cy="110" r="80" fill="none" stroke="rgba(120,80,255,0.2)" stroke-width="1"></circle><circle id="hdr-ring2" cx="400" cy="110" r="120" fill="none" stroke="rgba(80,180,255,0.12)" stroke-width="1"></circle><rect id="hdr-scan1" x="0" y="90" width="200" height="1" fill="url(#hg-scan)"></rect><rect id="hdr-scan2" x="0" y="135" width="160" height="1" fill="url(#hg-scan)"></rect><path id="hdr-path1" d="M 50 240 Q 200 200 400 230 Q 600 260 750 220" fill="none" stroke="rgba(138,43,226,0.2)" stroke-width="1" stroke-dasharray="250 250" stroke-linecap="round"></path><path id="hdr-path2" d="M 50 20 Q 200 50 400 25 Q 600 0 750 40" fill="none" stroke="rgba(80,200,255,0.15)" stroke-width="1" stroke-dasharray="200 200" stroke-linecap="round"></path><circle id="hdr-dot1" cx="120" cy="45" r="2" fill="rgba(120,200,255,0.8)"></circle><circle id="hdr-dot2" cx="680" cy="55" r="1.5" fill="rgba(200,120,255,0.7)"></circle><circle id="hdr-dot3" cx="300" cy="200" r="2" fill="rgba(255,120,200,0.6)"></circle><circle id="hdr-dot4" cx="550" cy="30" r="1.5" fill="rgba(120,255,200,0.7)"></circle><circle id="hdr-dot5" cx="150" cy="180" r="2" fill="rgba(100,150,255,0.8)"></circle><circle id="hdr-dot6" cx="650" cy="190" r="1.5" fill="rgba(255,180,120,0.6)"></circle><circle id="hdr-dot7" cx="450" cy="240" r="2" fill="rgba(180,120,255,0.7)"></circle><circle id="hdr-dot8" cx="250" cy="25" r="1.5" fill="rgba(120,220,255,0.8)"></circle><rect id="hdr-hline1" x="80" y="148" width="640" height="1" fill="url(#hg-hline)" rx="1"></rect><rect id="hdr-hline2" x="150" y="152" width="500" height="1" fill="url(#hg-hline)" rx="1"></rect><rect id="hdr-hline3" x="250" y="156" width="300" height="1" fill="url(#hg-hline)" rx="1"></rect><style>

      @keyframes hdr-drift-r { 0%, 100% { transform: translate(0, 0); opacity: 0.7; } 50% { transform: translate(45px, -22px); opacity: 1.15; } }
      @keyframes hdr-drift-l { 0%, 100% { transform: translate(0, 0); opacity: 0.6; } 50% { transform: translate(-40px, 20px); opacity: 1.05; } }
      @keyframes hdr-drift-u { 0%, 100% { transform: translate(0, 0); opacity: 0.75; } 50% { transform: translate(30px, -30px); opacity: 1.1; } }
      @keyframes hdr-pulse { 0%, 100% { transform: scale(1); opacity: 0.6; } 50% { transform: scale(1.3); opacity: 0.35; } }
      @keyframes hdr-scan { 0% { transform: translate(-900px, 0); opacity: 0; } 10% { opacity: 1; } 90% { opacity: 1; } 100% { transform: translate(900px, 0); opacity: 0; } }
      @keyframes hdr-ring-pulse { 0%, 100% { transform: scale(0.9); opacity: 0.15; } 50% { transform: scale(1.1); opacity: 0.4; } }
      @keyframes hdr-ring2-pulse { 0%, 100% { transform: scale(1.1); opacity: 0.1; } 50% { transform: scale(0.85); opacity: 0.3; } }
      @keyframes hdr-draw { 0% { stroke-dashoffset: 500; } 100% { stroke-dashoffset: 0; } }
      @keyframes hdr-draw-rev { 0% { stroke-dashoffset: 0; } 100% { stroke-dashoffset: -400; } }
      @keyframes hdr-dot-float { 0%, 100% { transform: translate(0, 0); opacity: 0.4; } 50% { transform: translate(12px, -18px); opacity: 1; } }
      @keyframes hdr-dot-float2 { 0%, 100% { transform: translate(0, 0); opacity: 0.3; } 50% { transform: translate(-15px, 14px); opacity: 0.9; } }
      @keyframes hdr-dot-float3 { 0%, 100% { transform: translate(0, 0); opacity: 0.5; } 50% { transform: translate(8px, 20px); opacity: 0.8; } }
      @keyframes hdr-line-glow { 0%, 100% { opacity: 0.2; } 50% { opacity: 0.7; } }
      #hdr-g1 { animation: hdr-drift-r 6.5s ease-in-out infinite; }
      #hdr-g2 { animation: hdr-drift-l 8.2s ease-in-out infinite 0.4s; }
      #hdr-g3 { animation: hdr-drift-u 7.0s ease-in-out infinite 0.7s; }
      #hdr-g4 { animation: hdr-pulse 5.0s ease-in-out infinite; }
      #hdr-g5 { animation: hdr-drift-r 9.5s ease-in-out infinite 0.2s; }
      #hdr-g6 { animation: hdr-drift-l 6.8s ease-in-out infinite 0.6s; }
      #hdr-g7 { animation: hdr-drift-u 8.0s ease-in-out infinite 0.1s; }
      #hdr-g8 { animation: hdr-pulse 7.5s ease-in-out infinite 0.5s; }
      #hdr-scan1 { animation: hdr-scan 4s linear infinite; }
      #hdr-scan2 { animation: hdr-scan 4.5s linear infinite 2s; }
      #hdr-ring1 { animation: hdr-ring-pulse 4s ease-in-out infinite; }
      #hdr-ring2 { animation: hdr-ring2-pulse 5s ease-in-out infinite 0.5s; }
      #hdr-path1 { animation: hdr-draw 3s ease-in-out infinite; }
      #hdr-path2 { animation: hdr-draw-rev 4s ease-in-out infinite 0.5s; }
      #hdr-dot1 { animation: hdr-dot-float 3.5s ease-in-out infinite; }
      #hdr-dot2 { animation: hdr-dot-float2 4.2s ease-in-out infinite 0.3s; }
      #hdr-dot3 { animation: hdr-dot-float3 3.8s ease-in-out infinite 0.6s; }
      #hdr-dot4 { animation: hdr-dot-float 5s ease-in-out infinite 0.8s; }
      #hdr-dot5 { animation: hdr-dot-float2 4.5s ease-in-out infinite 1s; }
      #hdr-dot6 { animation: hdr-dot-float3 3.2s ease-in-out infinite 0.2s; }
      #hdr-dot7 { animation: hdr-dot-float 4.8s ease-in-out infinite 1.2s; }
      #hdr-dot8 { animation: hdr-dot-float2 3.6s ease-in-out infinite 0.4s; }
      #hdr-hline1 { animation: hdr-line-glow 3s ease-in-out infinite; }
      #hdr-hline2 { animation: hdr-line-glow 4s ease-in-out infinite 1s; }
      #hdr-hline3 { animation: hdr-line-glow 3.5s ease-in-out infinite 2s; }
    
</style>
</svg><mask id="satori_om-id-0-0"><rect x="1" y="1" width="0" height="260" fill="#fff" mask="url(#satori_om-id)"/></mask><mask id="satori_om-id-0-0-0"><rect x="1" y="1" width="0" height="260" fill="#fff" mask="url(#satori_om-id)"/></mask><mask id="satori_om-id-0-0-0-0"><rect x="1" y="1" width="0" height="260" fill="#fff" mask="url(#satori_om-id)"/></mask><mask id="satori_om-id-0-0-0-1"><rect x="1" y="1" width="0" height="260" fill="#fff" mask="url(#satori_om-id)"/></mask><mask id="satori_om-id-0-0-0-2"><rect x="1" y="1" width="0" height="260" fill="#fff" mask="url(#satori_om-id)"/></mask><mask id="satori_om-id-0-0-1"><rect x="1" y="1" width="0" height="260" fill="#fff" mask="url(#satori_om-id)"/></mask><mask id="satori_om-id-0-0-1-0"><rect x="1" y="1" width="0" height="260" fill="#fff" mask="url(#satori_om-id)"/></mask><mask id="satori_om-id-0-0-1-1"><rect x="1" y="1" width="0" height="260" fill="#fff" mask="url(#satori_om-id)"/></mask><mask id="satori_om-id-0-0-1-2"><rect x="1" y="1" width="0" height="260" fill="#fff" mask="url(#satori_om-id)"/></mask><mask id="satori_om-id-0-0-2"><rect x="1" y="1" width="0" height="260" fill="#fff" mask="url(#satori_om-id)"/></mask><mask id="satori_om-id-0-0-2-0"><rect x="1" y="1" width="0" height="260" fill="#fff" mask="url(#satori_om-id)"/></mask><mask id="satori_om-id-0-0-2-1"><rect x="1" y="1" width="0" height="260" fill="#fff" mask="url(#satori_om-id)"/></mask><mask id="satori_om-id-0-0-3"><rect x="1" y="1" width="0" height="260" fill="#fff" mask="url(#satori_om-id)"/></mask><mask id="satori_om-id-0-0-3-0"><rect x="1" y="1" width="0" height="260" fill="#fff" mask="url(#satori_om-id)"/></mask><mask id="satori_om-id-0-0-3-1"><rect x="1" y="1" width="0" height="260" fill="#fff" mask="url(#satori_om-id)"/></mask><mask id="satori_om-id-0-0-4"><rect x="1" y="1" width="0" height="260" fill="#fff" mask="url(#satori_om-id)"/></mask><mask id="satori_om-id-0-0-4-0"><rect x="1" y="1" width="0" height="260" fill="#fff" mask="url(#satori_om-id)"/></mask><mask id="satori_om-id-0-0-4-1"><rect x="1" y="1" width="0" height="260" fill="#fff" mask="url(#satori_om-id)"/></mask><mask id="satori_om-id-0-0-5"><rect x="1" y="1" width="0" height="260" fill="#fff" mask="url(#satori_om-id)"/></mask><mask id="satori_om-id-0-0-5-0"><rect x="1" y="1" width="0" height="260" fill="#fff" mask="url(#satori_om-id)"/></mask><mask id="satori_om-id-0-0-5-1"><rect x="1" y="1" width="0" height="260" fill="#fff" mask="url(#satori_om-id)"/></mask><mask id="satori_om-id-0-0-6"><rect x="1" y="1" width="0" height="260" fill="#fff" mask="url(#satori_om-id)"/></mask><mask id="satori_om-id-0-0-6-0"><rect x="1" y="1" width="0" height="260" fill="#fff" mask="url(#satori_om-id)"/></mask><mask id="satori_om-id-0-0-6-1"><rect x="1" y="1" width="0" height="260" fill="#fff" mask="url(#satori_om-id)"/></mask><mask id="satori_om-id-0-0-7"><rect x="1" y="1" width="0" height="260" fill="#fff" mask="url(#satori_om-id)"/></mask><mask id="satori_om-id-0-0-7-0"><rect x="1" y="1" width="0" height="260" fill="#fff" mask="url(#satori_om-id)"/></mask><mask id="satori_om-id-0-0-7-1"><rect x="1" y="1" width="0" height="260" fill="#fff" mask="url(#satori_om-id)"/></mask><mask id="satori_om-id-0-0-8"><rect x="1" y="1" width="0" height="260" fill="#fff" mask="url(#satori_om-id)"/></mask><mask id="satori_om-id-0-0-8-0"><rect x="1" y="1" width="0" height="260" fill="#fff" mask="url(#satori_om-id)"/></mask><mask id="satori_om-id-0-0-8-1"><rect x="1" y="1" width="0" height="260" fill="#fff" mask="url(#satori_om-id)"/></mask><mask id="satori_om-id-0-0-8-2"><rect x="1" y="1" width="0" height="260" fill="#fff" mask="url(#satori_om-id)"/></mask><mask id="satori_om-id-0-0-8-3"><rect x="1" y="1" width="0" height="260" fill="#fff" mask="url(#satori_om-id)"/></mask><mask id="satori_om-id-0-0-8-4"><rect x="1" y="1" width="0" height="260" fill="#fff" mask="url(#satori_om-id)"/></mask><mask id="satori_om-id-0-0-9"><rect x="1" y="1" width="0" height="260" fill="#fff" mask="url(#satori_om-id)"/></mask><mask id="satori_om-id-0-0-9-0"><rect x="1" y="1" width="0" height="260" fill="#fff" mask="url(#satori_om-id)"/></mask><mask id="satori_om-id-0-0-9-1"><rect x="1" y="1" width="0" height="260" fill="#fff" mask="url(#satori_om-id)"/></mask><mask id="satori_om-id-0-0-9-2"><rect x="1" y="1" width="0" height="260" fill="#fff" mask="url(#satori_om-id)"/></mask><mask id="satori_om-id-0-0-9-3"><rect x="1" y="1" width="0" height="260" fill="#fff" mask="url(#satori_om-id)"/></mask><mask id="satori_om-id-0-0-9-4"><rect x="1" y="1" width="0" height="260" fill="#fff" mask="url(#satori_om-id)"/></mask><mask id="satori_om-id-0-1"><rect x="1" y="1" width="0" height="260" fill="#fff" mask="url(#satori_om-id)"/></mask><mask id="satori_om-id-0-2"><rect x="1" y="1" width="0" height="260" fill="#fff" mask="url(#satori_om-id)"/></mask><mask id="satori_om-id-0-3"><rect x="1" y="1" width="0" height="260" fill="#fff" mask="url(#satori_om-id)"/></mask><mask id="satori_om-id-0-4"><rect x="1" y="1" width="0" height="260" fill="#fff" mask="url(#satori_om-id)"/></mask><mask id="satori_om-id-0-5"><rect x="1" y="1" width="0" height="260" fill="#fff" mask="url(#satori_om-id)"/></mask><mask id="satori_om-id-0-6"><rect x="1" y="1" width="0" height="260" fill="#fff" mask="url(#satori_om-id)"/></mask><mask id="satori_om-id-0-7"><rect x="1" y="1" width="0" height="260" fill="#fff" mask="url(#satori_om-id)"/></mask><mask id="satori_om-id-0-8"><rect x="1" y="1" width="0" height="260" fill="#fff" mask="url(#satori_om-id)"/></mask><mask id="satori_om-id-0-9"><rect x="1" y="1" width="0" height="260" fill="#fff" mask="url(#satori_om-id)"/></mask><mask id="satori_om-id-0-10"><rect x="1" y="1" width="0" height="260" fill="#fff" mask="url(#satori_om-id)"/></mask><mask id="satori_om-id-0-11"><rect x="1" y="1" width="0" height="260" fill="#fff" mask="url(#satori_om-id)"/></mask><mask id="satori_om-id-0-12"><rect x="1" y="1" width="0" height="260" fill="#fff" mask="url(#satori_om-id)"/></mask><mask id="satori_om-id-0-13"><rect x="1" y="1" width="0" height="260" fill="#fff" mask="url(#satori_om-id)"/></mask><mask id="satori_om-id-0-14"><rect x="1" y="1" width="0" height="260" fill="#fff" mask="url(#satori_om-id)"/></mask><mask id="satori_om-id-0-15"><rect x="1" y="1" width="0" height="260" fill="#fff" mask="url(#satori_om-id)"/></mask><mask id="satori_om-id-0-16"><rect x="1" y="1" width="0" height="260" fill="#fff" mask="url(#satori_om-id)"/></mask><mask id="satori_om-id-0-17"><rect x="1" y="1" width="0" height="260" fill="#fff" mask="url(#satori_om-id)"/></mask><mask id="satori_om-id-0-18"><rect x="1" y="1" width="0" height="260" fill="#fff" mask="url(#satori_om-id)"/></mask><mask id="satori_om-id-0-19"><rect x="1" y="1" width="0" height="260" fill="#fff" mask="url(#satori_om-id)"/></mask><mask id="satori_om-id-0-20"><rect x="1" y="1" width="0" height="260" fill="#fff" mask="url(#satori_om-id)"/></mask><mask id="satori_om-id-0-21"><rect x="1" y="1" width="0" height="260" fill="#fff" mask="url(#satori_om-id)"/></mask><mask id="satori_om-id-0-22"><rect x="1" y="1" width="0" height="260" fill="#fff" mask="url(#satori_om-id)"/></mask><mask id="satori_om-id-0-23"><rect x="1" y="1" width="0" height="260" fill="#fff" mask="url(#satori_om-id)"/></mask><mask id="satori_om-id-0-24"><rect x="1" y="1" width="0" height="260" fill="#fff" mask="url(#satori_om-id)"/></mask><mask id="satori_om-id-0-25"><rect x="1" y="1" width="0" height="260" fill="#fff" mask="url(#satori_om-id)"/></mask><mask id="satori_om-id-1"><rect x="145" y="43" width="511" height="125" fill="#fff" mask="url(#satori_om-id)"/></mask><clipPath id="satori_bct-id-1-0" clip-path="url(#satori_cp-id)"><path d="M331.1 105L320.5 105L336.4 58.4L348.9 58.4L365.3 105L354.7 105L351.1 94.2L334.5 94.2L331.1 105ZM336.9 86.7L348.6 86.7L347.2 82.5Q345.8 78.2 344.5 73L344.5 73Q343.6 69.7 342.6 65.9L342.6 65.9Q341.7 69.7 340.8 73.1L340.8 73.1Q339.5 78.3 338.3 82.5L338.3 82.5L336.9 86.7ZM401.3 105.6L401.3 105.6Q395.2 105.6 390.3 102.8Q385.4 100 382.5 94.7Q379.7 89.3 379.7 81.8L379.7 81.8Q379.7 74.2 382.6 68.8Q385.4 63.4 390.3 60.6Q395.2 57.8 401.3 57.8L401.3 57.8Q405.3 57.8 408.7 58.9Q412.2 60.0 414.8 62.2Q417.5 64.3 419.2 67.4Q420.8 70.4 421.4 74.4L421.4 74.4L411.7 74.4Q411.4 72.4 410.5 71.0Q409.6 69.5 408.3 68.4Q407.0 67.4 405.3 66.8Q403.5 66.3 401.5 66.3L401.5 66.3Q397.9 66.3 395.2 68.1Q392.4 69.9 390.9 73.4Q389.4 76.8 389.4 81.8L389.4 81.8Q389.4 86.8 390.9 90.2Q392.5 93.7 395.2 95.4Q397.9 97.2 401.5 97.2L401.5 97.2Q403.5 97.2 405.2 96.6Q406.9 96.1 408.3 95.0Q409.6 94.0 410.5 92.5Q411.4 91.0 411.8 89.1L411.8 89.1L421.4 89.1Q421.0 92.3 419.5 95.3Q417.9 98.3 415.4 100.6Q412.8 102.9 409.3 104.3Q405.8 105.6 401.3 105.6ZM469.6 105L438.3 105L438.3 58.4L469.5 58.4L469.5 66.3L447.9 66.3L447.9 77.6L467.9 77.6L467.9 85.4L447.9 85.4L447.9 97.1L469.6 97.1L469.6 105Z "/></clipPath><defs><pattern id="satori_pattern_id-1-0_0" x="0" y="0" width="1" height="1" patternUnits="objectBoundingBox"><linearGradient id="satori_biid-1-0_0" x1="-0.1020411271896421" y1="0.21733434881949787" x2="1.1020411271896422" y2="0.782665651180502" spreadMethod="pad"><stop offset="0%" stop-color="#ffffff"/><stop offset="30%" stop-color="#d0c0ff"/><stop offset="55.00000000000001%" stop-color="#7ee7ff"/><stop offset="80%" stop-color="#ff88cc"/><stop offset="100%" stop-color="#ffffff"/></linearGradient><rect x="0" y="0" width="164" height="77" fill="url(#satori_biid-1-0_0)"/></pattern></defs><mask id="satori_om-id-1-0"><rect x="319" y="43" width="164" height="77" fill="#fff" mask="url(#satori_om-id)"/></mask><rect x="319" y="43" width="164" height="77" fill="url(#satori_pattern_id-1-0_0)" clip-path="url(#satori_bct-id-1-0)" mask="url(#satori_om-id)"/><mask id="satori_om-id-1-1"><rect x="310" y="126" width="181" height="17" fill="#fff" mask="url(#satori_om-id)"/></mask><g mask="url(#satori_om-id)" clip-path="url(#satori_cp-id)"><path fill="#6a6a8a" d="M311.7 140L310.4 140L314.1 129.8L315.6 129.8L319.3 140L317.9 140L316.9 137.2L312.7 137.2L311.7 140ZM313.1 136.0L316.5 136.0L315.8 134.0Q315.6 133.4 315.3 132.6L315.3 132.6Q315.1 131.9 314.8 130.9L314.8 130.9Q314.5 131.9 314.3 132.6L314.3 132.6Q314.0 133.4 313.8 134.0L313.8 134.0L313.1 136.0ZM328.6 140L324.9 140L324.9 129.8L328.5 129.8Q329.6 129.8 330.3 130.2Q331.0 130.5 331.3 131.2Q331.6 131.8 331.6 132.5L331.6 132.5Q331.6 133.2 331.4 133.6Q331.2 134.0 330.8 134.3Q330.4 134.5 330.0 134.7L330.0 134.7L330.0 134.8Q330.4 134.8 330.9 135.1Q331.4 135.4 331.7 135.9Q332.0 136.5 332.0 137.3L332.0 137.3Q332.0 138.1 331.7 138.7Q331.3 139.3 330.6 139.6Q329.8 140 328.6 140L328.6 140ZM326.2 135.4L326.2 138.9L328.6 138.9Q329.8 138.9 330.3 138.4Q330.8 137.9 330.8 137.3L330.8 137.3Q330.8 136.8 330.5 136.3Q330.3 135.9 329.8 135.6Q329.3 135.4 328.6 135.4L328.6 135.4L326.2 135.4ZM326.2 131.0L326.2 134.3L328.4 134.3Q329.0 134.3 329.4 134.1Q329.9 133.9 330.1 133.5Q330.4 133.1 330.4 132.5L330.4 132.5Q330.4 131.9 329.9 131.4Q329.5 131.0 328.5 131.0L328.5 131.0L326.2 131.0ZM339.3 140L338.0 140L338.0 129.8L339.3 129.8L339.3 134.2L344.7 134.2L344.7 129.8L346.0 129.8L346.0 140L344.7 140L344.7 135.4L339.3 135.4L339.3 140ZM352.5 129.8L353.8 129.8L353.8 140L352.5 140L352.5 129.8ZM363.5 140.2L363.5 140.2Q362.4 140.2 361.6 139.8Q360.8 139.5 360.3 138.8Q359.8 138.2 359.8 137.3L359.8 137.3L361.1 137.3Q361.2 137.9 361.5 138.3Q361.8 138.7 362.4 138.8Q362.9 139.0 363.5 139.0L363.5 139.0Q364.2 139.0 364.7 138.8Q365.3 138.6 365.6 138.2Q365.9 137.7 365.9 137.2L365.9 137.2Q365.9 136.7 365.6 136.4Q365.4 136.1 364.9 135.9Q364.4 135.7 363.9 135.5L363.9 135.5L362.7 135.2Q361.4 134.9 360.7 134.2Q360.1 133.6 360.1 132.5L360.1 132.5Q360.1 131.7 360.5 131.0Q361.0 130.4 361.8 130.0Q362.6 129.7 363.6 129.7L363.6 129.7Q364.6 129.7 365.3 130.0Q366.1 130.4 366.6 131.0Q367.0 131.6 367.0 132.4L367.0 132.4L365.8 132.4Q365.7 131.6 365.1 131.2Q364.4 130.8 363.5 130.8L363.5 130.8Q362.9 130.8 362.4 131.0Q361.9 131.3 361.6 131.6Q361.3 132.0 361.3 132.5L361.3 132.5Q361.3 133.0 361.7 133.3Q362.0 133.7 362.4 133.8Q362.9 134.0 363.3 134.1L363.3 134.1L364.3 134.4Q364.7 134.5 365.2 134.7Q365.7 134.9 366.1 135.2Q366.6 135.5 366.9 136.0Q367.2 136.5 367.2 137.2L367.2 137.2Q367.2 138.1 366.7 138.7Q366.3 139.4 365.5 139.8Q364.7 140.2 363.5 140.2ZM374.5 140L373.2 140L373.2 129.8L374.5 129.8L374.5 134.2L379.8 134.2L379.8 129.8L381.1 129.8L381.1 140L379.8 140L379.8 135.4L374.5 135.4L374.5 140ZM393.9 140L387.6 140L387.6 129.8L393.8 129.8L393.8 131.0L388.9 131.0L388.9 134.3L393.5 134.3L393.5 135.4L388.9 135.4L388.9 138.9L393.9 138.9L393.9 140ZM401.3 140L400.0 140L400.0 129.8L401.3 129.8L401.3 133.3L401.3 135.2Q401.5 135.0 401.6 134.8L401.6 134.8Q401.9 134.3 402.3 133.9Q402.7 133.5 403.1 133.1L403.1 133.1L406.1 129.8L407.8 129.8L403.7 134.2L407.8 140L406.3 140L402.8 135.1L401.3 136.7L401.3 140Z M421.9 140L420.5 140L424.2 129.8L425.7 129.8L429.4 140L428.1 140L427.0 137.2L422.8 137.2L421.9 140ZM423.2 136.0L426.6 136.0L425.9 134.0Q425.7 133.4 425.4 132.6L425.4 132.6Q425.2 131.9 424.9 130.9L424.9 130.9Q424.6 131.9 424.4 132.6L424.4 132.6Q424.1 133.4 424.0 134.0L424.0 134.0L423.2 136.0ZM436.3 140L435.0 140L435.0 129.8L436.5 129.8L440.7 136.3Q440.9 136.6 441.1 137.0Q441.3 137.4 441.6 137.9L441.6 137.9Q441.7 138.2 441.9 138.5L441.9 138.5Q441.9 138.1 441.8 137.8L441.8 137.8Q441.8 137.3 441.8 136.8Q441.8 136.4 441.8 136.1L441.8 136.1L441.8 129.8L443.1 129.8L443.1 140L441.6 140L437.9 134.2Q437.6 133.8 437.4 133.4Q437.1 132.9 436.8 132.4L436.8 132.4Q436.5 131.9 436.2 131.4L436.2 131.4Q436.2 131.9 436.3 132.3L436.3 132.3Q436.3 133.0 436.3 133.4Q436.3 133.9 436.3 134.2L436.3 134.2L436.3 140ZM450.1 140L448.7 140L452.4 129.8L453.9 129.8L457.6 140L456.3 140L455.3 137.2L451.1 137.2L450.1 140ZM451.5 136.0L454.9 136.0L454.1 134.0Q453.9 133.4 453.7 132.6L453.7 132.6Q453.4 131.9 453.1 130.9L453.1 130.9Q452.8 131.9 452.6 132.6L452.6 132.6Q452.3 133.4 452.2 134.0L452.2 134.0L451.5 136.0ZM464.5 140L463.2 140L463.2 129.8L464.8 129.8L468.9 136.3Q469.1 136.6 469.3 137.0Q469.5 137.4 469.8 137.9L469.8 137.9Q470.0 138.2 470.1 138.5L470.1 138.5Q470.1 138.1 470.1 137.8L470.1 137.8Q470.0 137.3 470.0 136.8Q470.0 136.4 470.0 136.1L470.0 136.1L470.0 129.8L471.3 129.8L471.3 140L469.8 140L466.1 134.2Q465.8 133.8 465.6 133.4Q465.3 132.9 465.0 132.4L465.0 132.4Q464.7 131.9 464.4 131.4L464.4 131.4Q464.4 131.9 464.5 132.3L464.5 132.3Q464.5 133.0 464.5 133.4Q464.5 133.9 464.5 134.2L464.5 134.2L464.5 140ZM481.0 140L481.0 140L477.8 140L477.8 129.8L481.1 129.8Q482.6 129.8 483.6 130.4Q484.7 131.0 485.2 132.2Q485.8 133.3 485.8 134.9L485.8 134.9Q485.8 136.5 485.2 137.6Q484.7 138.8 483.6 139.4Q482.5 140 481.0 140ZM479.1 131.0L479.1 138.9L480.9 138.9Q482.1 138.9 482.9 138.4Q483.7 137.9 484.2 137.0Q484.6 136.1 484.6 134.9L484.6 134.9Q484.6 133.7 484.2 132.8Q483.8 131.9 483.0 131.4Q482.2 131.0 481.0 131.0L481.0 131.0L479.1 131.0Z "/></g><mask id="satori_om-id-1-2"><rect x="145" y="153" width="511" height="15" fill="#fff" mask="url(#satori_om-id)"/></mask><g mask="url(#satori_om-id)" clip-path="url(#satori_cp-id)"><path fill="#4a4a6a" d="M151.2 165L146.1 165L146.1 156.3L147.2 156.3L147.2 164.0L151.2 164.0L151.2 165ZM156.9 165.1L156.9 165.1Q156.0 165.1 155.3 164.7Q154.6 164.3 154.3 163.5Q153.9 162.8 153.9 161.8L153.9 161.8Q153.9 160.7 154.3 160.0Q154.6 159.2 155.3 158.8Q156.0 158.4 156.9 158.4L156.9 158.4Q157.8 158.4 158.4 158.8Q159.1 159.2 159.5 160.0Q159.9 160.7 159.9 161.8L159.9 161.8Q159.9 162.8 159.5 163.5Q159.1 164.3 158.4 164.7Q157.8 165.1 156.9 165.1ZM156.9 164.2L156.9 164.2Q157.5 164.2 158.0 163.9Q158.4 163.5 158.6 163.0Q158.8 162.4 158.8 161.8L158.8 161.8Q158.8 161.1 158.6 160.6Q158.4 160.0 158.0 159.7Q157.5 159.3 156.9 159.3L156.9 159.3Q156.2 159.3 155.8 159.7Q155.4 160.0 155.2 160.6Q155.0 161.1 155.0 161.8L155.0 161.8Q155.0 162.4 155.2 163.0Q155.4 163.5 155.8 163.9Q156.2 164.2 156.9 164.2ZM165.4 165L164.4 165L162.4 158.4L163.5 158.4L164.3 161.3Q164.5 161.9 164.7 162.6L164.7 162.6Q164.8 163.2 164.9 163.9L164.9 163.9Q165.1 163.2 165.2 162.7L165.2 162.7Q165.4 161.9 165.6 161.3L165.6 161.3L166.3 158.4L167.5 158.4L168.2 161.3Q168.4 161.9 168.6 162.7L168.6 162.7Q168.7 163.2 168.8 163.9L168.8 163.9Q169.0 163.2 169.1 162.7L169.1 162.7Q169.3 161.9 169.5 161.3L169.5 161.3L170.3 158.4L171.4 158.4L169.4 165L168.4 165L167.5 162.0Q167.4 161.6 167.3 161.1Q167.1 160.6 167.0 160.2L167.0 160.2Q167.0 159.9 166.9 159.6L166.9 159.6Q166.8 159.9 166.8 160.1L166.8 160.1Q166.7 160.6 166.5 161.1Q166.4 161.6 166.3 162.0L166.3 162.0L165.4 165ZM174.1 160.8L178.0 160.8L178.0 161.8L174.1 161.8L174.1 160.8ZM181.2 156.3L182.3 156.3L182.3 165L181.2 165L181.2 156.3ZM188.4 165.1L188.4 165.1Q187.5 165.1 186.8 164.7Q186.1 164.3 185.7 163.5Q185.3 162.8 185.3 161.8Q185.3 160.8 185.7 160.0Q186.1 159.2 186.7 158.8Q187.4 158.4 188.3 158.4L188.3 158.4Q188.8 158.4 189.3 158.5Q189.8 158.7 190.2 159.1Q190.6 159.5 190.9 160.1Q191.1 160.7 191.1 161.6L191.1 161.6L191.1 162.1L186.4 162.1Q186.4 162.7 186.7 163.2L186.7 163.2Q186.9 163.7 187.4 163.9Q187.8 164.2 188.4 164.2L188.4 164.2Q188.8 164.2 189.1 164.1Q189.4 164.0 189.7 163.8Q189.9 163.5 190.0 163.2L190.0 163.2L191.0 163.5Q190.9 164.0 190.5 164.3Q190.2 164.7 189.6 164.9Q189.1 165.1 188.4 165.1ZM186.4 161.2L186.4 161.2L190.1 161.2Q190.0 160.7 189.9 160.4L189.9 160.4Q189.7 159.9 189.3 159.6Q188.9 159.3 188.3 159.3Q187.7 159.3 187.3 159.6Q186.8 159.9 186.6 160.3L186.6 160.3Q186.4 160.7 186.4 161.2ZM197.1 165L196.0 165L193.5 158.4L194.7 158.4L196.1 162.3Q196.3 162.9 196.5 163.5L196.5 163.5Q196.5 163.8 196.6 164.0L196.6 164.0Q196.7 163.8 196.7 163.5L196.7 163.5Q196.9 162.9 197.1 162.3L197.1 162.3L198.5 158.4L199.7 158.4L197.1 165ZM205.1 165.1L205.1 165.1Q204.2 165.1 203.5 164.7Q202.8 164.3 202.4 163.5Q202.1 162.8 202.1 161.8Q202.1 160.8 202.4 160.0Q202.8 159.2 203.5 158.8Q204.1 158.4 205.0 158.4L205.0 158.4Q205.5 158.4 206.1 158.5Q206.6 158.7 207.0 159.1Q207.4 159.5 207.6 160.1Q207.9 160.7 207.9 161.6L207.9 161.6L207.9 162.1L203.1 162.1Q203.2 162.7 203.4 163.2L203.4 163.2Q203.6 163.7 204.1 163.9Q204.6 164.2 205.2 164.2L205.2 164.2Q205.5 164.2 205.9 164.1Q206.2 164.0 206.4 163.8Q206.6 163.5 206.8 163.2L206.8 163.2L207.8 163.5Q207.6 164.0 207.3 164.3Q206.9 164.7 206.4 164.9Q205.8 165.1 205.1 165.1ZM203.1 161.2L203.1 161.2L206.8 161.2Q206.8 160.7 206.6 160.4L206.6 160.4Q206.4 159.9 206.0 159.6Q205.6 159.3 205.0 159.3Q204.4 159.3 204.0 159.6Q203.6 159.9 203.4 160.3L203.4 160.3Q203.2 160.7 203.1 161.2ZM210.9 156.3L211.9 156.3L211.9 165L210.9 165L210.9 156.3Z M223.1 165.2L223.1 165.2Q222.2 165.2 221.5 164.8Q220.8 164.5 220.4 164.0Q220.0 163.4 219.9 162.7L219.9 162.7L221.1 162.7Q221.1 163.2 221.4 163.5Q221.7 163.8 222.1 164.0Q222.6 164.2 223.1 164.2L223.1 164.2Q223.7 164.2 224.2 164.0Q224.6 163.8 224.9 163.4Q225.2 163.1 225.2 162.6L225.2 162.6Q225.2 162.2 224.9 161.9Q224.7 161.7 224.3 161.5Q223.9 161.3 223.5 161.2L223.5 161.2L222.4 160.9Q221.3 160.6 220.8 160.0Q220.2 159.5 220.2 158.6L220.2 158.6Q220.2 157.9 220.6 157.3Q221.0 156.8 221.6 156.5Q222.3 156.2 223.2 156.2L223.2 156.2Q224.0 156.2 224.7 156.5Q225.4 156.8 225.7 157.3Q226.1 157.8 226.1 158.5L226.1 158.5L225.1 158.5Q225.0 157.8 224.4 157.5Q223.9 157.1 223.1 157.1L223.1 157.1Q222.6 157.1 222.1 157.3Q221.7 157.5 221.5 157.8Q221.3 158.1 221.3 158.6L221.3 158.6Q221.3 159.0 221.5 159.3Q221.8 159.6 222.2 159.7Q222.6 159.9 222.9 160.0L222.9 160.0L223.8 160.2Q224.1 160.3 224.6 160.5Q225.0 160.6 225.4 160.9Q225.8 161.2 226.0 161.6Q226.3 162.0 226.3 162.6L226.3 162.6Q226.3 163.3 225.9 163.9Q225.5 164.5 224.8 164.8Q224.1 165.2 223.1 165.2ZM229.3 167.4L229.3 167.4L229.5 166.5L229.6 166.5Q230.0 166.6 230.2 166.5Q230.5 166.5 230.7 166.3Q230.9 166.0 231.1 165.6L231.1 165.6L231.3 165.0L228.8 158.4L229.9 158.4L231.3 162.3Q231.5 162.9 231.7 163.5L231.7 163.5Q231.7 163.8 231.8 164.0L231.8 164.0Q231.9 163.8 231.9 163.5L231.9 163.5Q232.1 162.9 232.3 162.3L232.3 162.3L233.7 158.4L234.9 158.4L232.0 166.0Q231.8 166.5 231.5 166.8Q231.2 167.2 230.9 167.3Q230.5 167.5 230.0 167.5L230.0 167.5Q229.8 167.5 229.6 167.5Q229.3 167.4 229.3 167.4ZM239.8 165.1L239.8 165.1Q239.2 165.1 238.6 164.9Q238.1 164.7 237.8 164.4Q237.4 164.0 237.3 163.4L237.3 163.4L238.3 163.2Q238.5 163.7 238.9 164.0Q239.2 164.2 239.8 164.2L239.8 164.2Q240.5 164.2 240.9 163.9Q241.3 163.6 241.3 163.2L241.3 163.2Q241.3 162.9 241.1 162.7Q240.9 162.4 240.4 162.3L240.4 162.3L239.3 162.1Q238.4 161.9 238.0 161.4Q237.5 161.0 237.5 160.3L237.5 160.3Q237.5 159.7 237.8 159.3Q238.2 158.9 238.7 158.6Q239.2 158.4 239.9 158.4L239.9 158.4Q240.6 158.4 241.1 158.6Q241.6 158.8 241.9 159.1Q242.2 159.5 242.3 159.9L242.3 159.9L241.3 160.2Q241.2 159.8 240.9 159.6Q240.6 159.3 240.0 159.3L240.0 159.3Q239.4 159.3 239.0 159.5Q238.6 159.8 238.6 160.2L238.6 160.2Q238.6 160.6 238.8 160.8Q239.1 161.0 239.7 161.2L239.7 161.2L240.7 161.4Q241.6 161.6 242.0 162.0Q242.4 162.5 242.4 163.2L242.4 163.2Q242.4 163.7 242.1 164.2Q241.8 164.6 241.2 164.9Q240.6 165.1 239.8 165.1ZM246.7 158.4L248.0 158.4L248.0 159.4L246.7 159.4L246.7 163.3Q246.7 163.7 246.9 163.9Q247.0 164.1 247.5 164.1L247.5 164.1Q247.6 164.1 247.7 164.1Q247.9 164.1 248.0 164.1L248.0 164.1L248.2 165.0Q248.0 165.0 247.8 165.1Q247.6 165.1 247.4 165.1L247.4 165.1Q246.6 165.1 246.1 164.6Q245.6 164.2 245.6 163.4L245.6 163.4L245.6 159.4L244.6 159.4L244.6 158.4L245.6 158.4L245.6 156.9L246.7 156.9L246.7 158.4ZM253.6 165.1L253.6 165.1Q252.7 165.1 252.0 164.7Q251.3 164.3 250.9 163.5Q250.6 162.8 250.6 161.8Q250.6 160.8 250.9 160.0Q251.3 159.2 251.9 158.8Q252.6 158.4 253.5 158.4L253.5 158.4Q254.0 158.4 254.5 158.5Q255.0 158.7 255.5 159.1Q255.9 159.5 256.1 160.1Q256.4 160.7 256.4 161.6L256.4 161.6L256.4 162.1L251.6 162.1Q251.6 162.7 251.9 163.2L251.9 163.2Q252.1 163.7 252.6 163.9Q253.0 164.2 253.6 164.2L253.6 164.2Q254.0 164.2 254.3 164.1Q254.7 164.0 254.9 163.8Q255.1 163.5 255.2 163.2L255.2 163.2L256.3 163.5Q256.1 164.0 255.7 164.3Q255.4 164.7 254.8 164.9Q254.3 165.1 253.6 165.1ZM251.6 161.2L251.6 161.2L255.3 161.2Q255.2 160.7 255.1 160.4L255.1 160.4Q254.9 159.9 254.5 159.6Q254.1 159.3 253.5 159.3Q252.9 159.3 252.5 159.6Q252.1 159.9 251.8 160.3L251.8 160.3Q251.7 160.7 251.6 161.2ZM260.4 165L259.4 165L259.4 158.4L260.4 158.4L260.4 159.7Q260.5 159.3 260.7 159.0L260.7 159.0Q261.0 158.7 261.4 158.5Q261.8 158.3 262.2 158.3L262.2 158.3Q262.9 158.3 263.4 158.8L263.4 158.8Q263.8 159.1 263.9 159.7L263.9 159.7Q264.0 159.3 264.3 159.1L264.3 159.1Q264.6 158.7 265.0 158.5Q265.4 158.3 266.0 158.3L266.0 158.3Q266.5 158.3 267.0 158.6Q267.5 158.8 267.8 159.3Q268.0 159.8 268.0 160.6L268.0 160.6L268.0 165L267.0 165L267.0 160.6Q267.0 159.9 266.6 159.6Q266.2 159.3 265.7 159.3L265.7 159.3Q265.2 159.3 264.9 159.5Q264.6 159.7 264.4 160.0Q264.2 160.3 264.2 160.7L264.2 160.7L264.2 165L263.2 165L263.2 160.5Q263.2 160.0 262.8 159.6Q262.4 159.3 261.9 159.3L261.9 159.3Q261.5 159.3 261.2 159.5Q260.8 159.7 260.6 160.0Q260.4 160.4 260.4 160.9L260.4 160.9L260.4 165ZM273.6 165.1L273.6 165.1Q272.9 165.1 272.4 164.9Q271.9 164.7 271.5 164.4Q271.2 164.0 271.1 163.4L271.1 163.4L272.1 163.2Q272.2 163.7 272.6 164.0Q273.0 164.2 273.6 164.2L273.6 164.2Q274.3 164.2 274.7 163.9Q275.1 163.6 275.1 163.2L275.1 163.2Q275.1 162.9 274.9 162.7Q274.6 162.4 274.1 162.3L274.1 162.3L273.0 162.1Q272.2 161.9 271.7 161.4Q271.3 161.0 271.3 160.3L271.3 160.3Q271.3 159.7 271.6 159.3Q271.9 158.9 272.5 158.6Q273.0 158.4 273.7 158.4L273.7 158.4Q274.4 158.4 274.9 158.6Q275.3 158.8 275.6 159.1Q275.9 159.5 276.1 159.9L276.1 159.9L275.1 160.2Q275.0 159.8 274.7 159.6Q274.4 159.3 273.7 159.3L273.7 159.3Q273.1 159.3 272.7 159.5Q272.4 159.8 272.4 160.2L272.4 160.2Q272.4 160.6 272.6 160.8Q272.9 161.0 273.5 161.2L273.5 161.2L274.4 161.4Q275.3 161.6 275.8 162.0Q276.2 162.5 276.2 163.2L276.2 163.2Q276.2 163.7 275.9 164.2Q275.5 164.6 275.0 164.9Q274.4 165.1 273.6 165.1Z M285.3 165L284.2 165L284.2 156.3L287.2 156.3Q288.2 156.3 288.9 156.6Q289.5 157.0 289.9 157.6Q290.2 158.3 290.2 159.0Q290.2 159.8 289.9 160.5Q289.5 161.1 288.9 161.5Q288.2 161.8 287.2 161.8L287.2 161.8L285.3 161.8L285.3 165ZM285.3 157.2L285.3 160.9L287.2 160.9Q287.9 160.9 288.3 160.6Q288.7 160.4 288.9 160.0Q289.1 159.6 289.1 159.0Q289.1 158.5 288.9 158.1Q288.7 157.7 288.3 157.5Q287.8 157.2 287.1 157.2L287.1 157.2L285.3 157.2ZM294.3 165L293.3 165L293.3 158.4L294.3 158.4L294.3 159.5L294.3 159.5Q294.5 159.0 295.0 158.7Q295.5 158.4 296.0 158.4L296.0 158.4Q296.2 158.4 296.3 158.4Q296.5 158.4 296.6 158.4L296.6 158.4L296.6 159.4Q296.5 159.4 296.3 159.4Q296.2 159.4 295.9 159.4L295.9 159.4Q295.5 159.4 295.1 159.6Q294.7 159.8 294.5 160.1Q294.3 160.5 294.3 160.9L294.3 160.9L294.3 165ZM301.9 165.1L301.9 165.1Q301.0 165.1 300.4 164.7Q299.7 164.3 299.3 163.5Q299.0 162.8 299.0 161.8L299.0 161.8Q299.0 160.7 299.3 160.0Q299.7 159.2 300.4 158.8Q301.0 158.4 301.9 158.4L301.9 158.4Q302.8 158.4 303.5 158.8Q304.2 159.2 304.6 160.0Q304.9 160.7 304.9 161.8L304.9 161.8Q304.9 162.8 304.6 163.5Q304.2 164.3 303.5 164.7Q302.8 165.1 301.9 165.1ZM301.9 164.2L301.9 164.2Q302.6 164.2 303.0 163.9Q303.5 163.5 303.7 163.0Q303.9 162.4 303.9 161.8L303.9 161.8Q303.9 161.1 303.7 160.6Q303.5 160.0 303.0 159.7Q302.6 159.3 301.9 159.3L301.9 159.3Q301.3 159.3 300.9 159.7Q300.4 160.0 300.2 160.6Q300.0 161.1 300.0 161.8L300.0 161.8Q300.0 162.4 300.2 163.0Q300.4 163.5 300.9 163.9Q301.3 164.2 301.9 164.2ZM310.6 167.6L310.6 167.6Q309.9 167.6 309.4 167.4Q308.8 167.2 308.5 166.9Q308.1 166.6 307.9 166.3L307.9 166.3L308.8 165.7Q308.9 165.9 309.1 166.1Q309.3 166.3 309.7 166.5Q310.0 166.7 310.6 166.7L310.6 166.7Q311.4 166.7 311.9 166.3Q312.4 165.9 312.4 165.1L312.4 165.1L312.4 163.8L312.3 163.8Q312.2 164.0 312.0 164.2Q311.8 164.5 311.4 164.7Q311.0 164.9 310.4 164.9L310.4 164.9Q309.6 164.9 309.0 164.5Q308.4 164.2 308.0 163.4Q307.7 162.7 307.7 161.7L307.7 161.7Q307.7 160.7 308.0 159.9Q308.4 159.2 309.0 158.8Q309.6 158.4 310.4 158.4L310.4 158.4Q311.1 158.4 311.5 158.6Q311.8 158.8 312.0 159.1Q312.2 159.3 312.3 159.5L312.3 159.5L312.4 159.5L312.4 158.4L313.5 158.4L313.5 165.2Q313.5 166.0 313.1 166.5Q312.7 167.1 312.1 167.3Q311.4 167.6 310.6 167.6ZM310.6 164.0L310.6 164.0Q311.2 164.0 311.6 163.7Q312.0 163.4 312.2 162.9Q312.4 162.4 312.4 161.7L312.4 161.7Q312.4 161.0 312.2 160.4Q312.0 159.9 311.6 159.6Q311.2 159.3 310.6 159.3L310.6 159.3Q310.0 159.3 309.6 159.6Q309.1 159.9 308.9 160.5Q308.7 161.0 308.7 161.7L308.7 161.7Q308.7 162.3 308.9 162.9Q309.1 163.4 309.6 163.7Q310.0 164.0 310.6 164.0ZM317.9 165L316.8 165L316.8 158.4L317.8 158.4L317.8 159.5L317.9 159.5Q318.1 159.0 318.6 158.7Q319.0 158.4 319.6 158.4L319.6 158.4Q319.7 158.4 319.9 158.4Q320.1 158.4 320.1 158.4L320.1 158.4L320.1 159.4Q320.1 159.4 319.9 159.4Q319.7 159.4 319.5 159.4L319.5 159.4Q319.0 159.4 318.7 159.6Q318.3 159.8 318.1 160.1Q317.9 160.5 317.9 160.9L317.9 160.9L317.9 165ZM324.7 165.2L324.7 165.2Q324.1 165.2 323.5 164.9Q323.0 164.7 322.7 164.2Q322.4 163.8 322.4 163.1L322.4 163.1Q322.4 162.6 322.7 162.2Q322.9 161.9 323.3 161.7Q323.6 161.5 324.1 161.4Q324.5 161.3 325.0 161.2L325.0 161.2Q325.6 161.1 325.9 161.1Q326.3 161.1 326.5 161.0Q326.7 160.9 326.7 160.6L326.7 160.6L326.7 160.6Q326.7 160.2 326.5 159.9Q326.4 159.6 326.1 159.4Q325.8 159.3 325.3 159.3L325.3 159.3Q324.8 159.3 324.5 159.4Q324.2 159.6 324.0 159.8Q323.8 160.0 323.6 160.3L323.6 160.3L322.6 159.9Q322.9 159.3 323.3 159.0Q323.7 158.6 324.3 158.5Q324.8 158.4 325.3 158.4L325.3 158.4Q325.6 158.4 326.0 158.4Q326.4 158.5 326.8 158.8Q327.2 159.0 327.5 159.5Q327.7 159.9 327.7 160.7L327.7 160.7L327.7 165L326.7 165L326.7 164.1L326.6 164.1Q326.5 164.3 326.3 164.6Q326.0 164.8 325.6 165.0Q325.2 165.2 324.7 165.2ZM324.9 164.2L324.9 164.2Q325.4 164.2 325.8 164.0Q326.3 163.8 326.5 163.4Q326.7 163.0 326.7 162.6L326.7 162.6L326.7 161.7Q326.6 161.8 326.4 161.9Q326.2 161.9 325.9 162.0Q325.6 162.0 325.4 162.0Q325.1 162.1 324.9 162.1L324.9 162.1Q324.6 162.1 324.2 162.3Q323.9 162.4 323.7 162.6Q323.5 162.8 323.5 163.2L323.5 163.2Q323.5 163.5 323.7 163.8Q323.9 164.0 324.2 164.1Q324.5 164.2 324.9 164.2ZM332.1 165L331.1 165L331.1 158.4L332.1 158.4L332.1 159.7Q332.2 159.3 332.5 159.0L332.5 159.0Q332.7 158.7 333.1 158.5Q333.5 158.3 333.9 158.3L333.9 158.3Q334.7 158.3 335.1 158.8L335.1 158.8Q335.5 159.1 335.6 159.7L335.6 159.7Q335.7 159.3 336.0 159.1L336.0 159.1Q336.3 158.7 336.7 158.5Q337.2 158.3 337.7 158.3L337.7 158.3Q338.2 158.3 338.7 158.6Q339.2 158.8 339.5 159.3Q339.7 159.8 339.7 160.6L339.7 160.6L339.7 165L338.7 165L338.7 160.6Q338.7 159.9 338.3 159.6Q337.9 159.3 337.4 159.3L337.4 159.3Q336.9 159.3 336.6 159.5Q336.3 159.7 336.1 160.0Q335.9 160.3 335.9 160.7L335.9 160.7L335.9 165L334.9 165L334.9 160.5Q334.9 160.0 334.5 159.6Q334.2 159.3 333.6 159.3L333.6 159.3Q333.2 159.3 332.9 159.5Q332.5 159.7 332.3 160.0Q332.1 160.4 332.1 160.9L332.1 160.9L332.1 165ZM344.1 165L343.1 165L343.1 158.4L344.1 158.4L344.1 159.7Q344.3 159.3 344.5 159.0L344.5 159.0Q344.8 158.7 345.1 158.5Q345.5 158.3 346.0 158.3L346.0 158.3Q346.7 158.3 347.1 158.8L347.1 158.8Q347.5 159.1 347.6 159.7L347.6 159.7Q347.8 159.3 348.0 159.1L348.0 159.1Q348.3 158.7 348.7 158.5Q349.2 158.3 349.7 158.3L349.7 158.3Q350.3 158.3 350.7 158.6Q351.2 158.8 351.5 159.3Q351.8 159.8 351.8 160.6L351.8 160.6L351.8 165L350.7 165L350.7 160.6Q350.7 159.9 350.3 159.6Q349.9 159.3 349.4 159.3L349.4 159.3Q348.9 159.3 348.6 159.5Q348.3 159.7 348.1 160.0Q348.0 160.3 348.0 160.7L348.0 160.7L348.0 165L346.9 165L346.9 160.5Q346.9 160.0 346.5 159.6Q346.2 159.3 345.6 159.3L345.6 159.3Q345.2 159.3 344.9 159.5Q344.6 159.7 344.4 160.0Q344.1 160.4 344.1 160.9L344.1 160.9L344.1 165ZM357.9 165.1L357.9 165.1Q356.9 165.1 356.2 164.7Q355.5 164.3 355.2 163.5Q354.8 162.8 354.8 161.8Q354.8 160.8 355.2 160.0Q355.5 159.2 356.2 158.8Q356.8 158.4 357.7 158.4L357.7 158.4Q358.3 158.4 358.8 158.5Q359.3 158.7 359.7 159.1Q360.1 159.5 360.3 160.1Q360.6 160.7 360.6 161.6L360.6 161.6L360.6 162.1L355.9 162.1Q355.9 162.7 356.1 163.2L356.1 163.2Q356.4 163.7 356.8 163.9Q357.3 164.2 357.9 164.2L357.9 164.2Q358.3 164.2 358.6 164.1Q358.9 164.0 359.1 163.8Q359.3 163.5 359.5 163.2L359.5 163.2L360.5 163.5Q360.3 164.0 360.0 164.3Q359.6 164.7 359.1 164.9Q358.5 165.1 357.9 165.1ZM355.9 161.2L355.9 161.2L359.5 161.2Q359.5 160.7 359.3 160.4L359.3 160.4Q359.1 159.9 358.7 159.6Q358.3 159.3 357.7 159.3Q357.1 159.3 356.7 159.6Q356.3 159.9 356.1 160.3L356.1 160.3Q355.9 160.7 355.9 161.2ZM364.7 165L363.6 165L363.6 158.4L364.6 158.4L364.6 159.5L364.7 159.5Q364.9 159.0 365.3 158.7Q365.8 158.4 366.4 158.4L366.4 158.4Q366.5 158.4 366.7 158.4Q366.8 158.4 366.9 158.4L366.9 158.4L366.9 159.4Q366.9 159.4 366.7 159.4Q366.5 159.4 366.3 159.4L366.3 159.4Q365.8 159.4 365.5 159.6Q365.1 159.8 364.9 160.1Q364.7 160.5 364.7 160.9L364.7 160.9L364.7 165Z M375.1 153.5L376.0 153.5L376.0 167.8L375.1 167.8L375.1 153.5Z M386.1 165L385.0 165L385.0 156.3L388.0 156.3Q389.0 156.3 389.7 156.6Q390.3 157.0 390.6 157.6Q391.0 158.3 391.0 159.0Q391.0 159.8 390.6 160.5Q390.3 161.1 389.7 161.5Q389.0 161.8 388.0 161.8L388.0 161.8L386.1 161.8L386.1 165ZM386.1 157.2L386.1 160.9L387.9 160.9Q388.6 160.9 389.0 160.6Q389.5 160.4 389.7 160.0Q389.8 159.6 389.8 159.0Q389.8 158.5 389.7 158.1Q389.5 157.7 389.0 157.5Q388.6 157.2 387.9 157.2L387.9 157.2L386.1 157.2ZM396.8 165.1L396.8 165.1Q395.8 165.1 395.1 164.7Q394.5 164.3 394.1 163.5Q393.7 162.8 393.7 161.8Q393.7 160.8 394.1 160.0Q394.4 159.2 395.1 158.8Q395.8 158.4 396.7 158.4L396.7 158.4Q397.2 158.4 397.7 158.5Q398.2 158.7 398.6 159.1Q399.0 159.5 399.3 160.1Q399.5 160.7 399.5 161.6L399.5 161.6L399.5 162.1L394.8 162.1Q394.8 162.7 395.0 163.2L395.0 163.2Q395.3 163.7 395.7 163.9Q396.2 164.2 396.8 164.2L396.8 164.2Q397.2 164.2 397.5 164.1Q397.8 164.0 398.0 163.8Q398.3 163.5 398.4 163.2L398.4 163.2L399.4 163.5Q399.3 164.0 398.9 164.3Q398.5 164.7 398.0 164.9Q397.5 165.1 396.8 165.1ZM394.8 161.2L394.8 161.2L398.4 161.2Q398.4 160.7 398.2 160.4L398.2 160.4Q398.0 159.9 397.6 159.6Q397.2 159.3 396.7 159.3Q396.1 159.3 395.6 159.6Q395.2 159.9 395.0 160.3L395.0 160.3Q394.8 160.7 394.8 161.2ZM403.6 165L402.5 165L402.5 158.4L403.5 158.4L403.5 159.5L403.6 159.5Q403.8 159.0 404.3 158.7Q404.7 158.4 405.3 158.4L405.3 158.4Q405.4 158.4 405.6 158.4Q405.7 158.4 405.8 158.4L405.8 158.4L405.8 159.4Q405.8 159.4 405.6 159.4Q405.4 159.4 405.2 159.4L405.2 159.4Q404.7 159.4 404.4 159.6Q404.0 159.8 403.8 160.1Q403.6 160.5 403.6 160.9L403.6 160.9L403.6 165ZM410.1 158.4L411.6 158.4L411.6 159.4L410.1 159.4L410.1 165L409.0 165L409.0 159.4L407.7 159.4L407.7 158.4L409.0 158.4L409.0 157.6Q409.0 157.0 409.3 156.6Q409.6 156.2 410.0 156.1Q410.4 155.9 410.9 155.9L410.9 155.9Q411.3 155.9 411.5 155.9Q411.7 156.0 411.9 156.0L411.9 156.0L411.6 156.9Q411.5 156.9 411.4 156.9Q411.2 156.8 411.0 156.8L411.0 156.8Q410.5 156.8 410.3 157.1Q410.1 157.3 410.1 157.8L410.1 157.8L410.1 158.4ZM417.1 165.1L417.1 165.1Q416.3 165.1 415.6 164.7Q414.9 164.3 414.5 163.5Q414.2 162.8 414.2 161.8L414.2 161.8Q414.2 160.7 414.5 160.0Q414.9 159.2 415.6 158.8Q416.3 158.4 417.1 158.4L417.1 158.4Q418.0 158.4 418.7 158.8Q419.4 159.2 419.8 160.0Q420.1 160.7 420.1 161.8L420.1 161.8Q420.1 162.8 419.8 163.5Q419.4 164.3 418.7 164.7Q418.0 165.1 417.1 165.1ZM417.1 164.2L417.1 164.2Q417.8 164.2 418.2 163.9Q418.7 163.5 418.9 163.0Q419.1 162.4 419.1 161.8L419.1 161.8Q419.1 161.1 418.9 160.6Q418.7 160.0 418.2 159.7Q417.8 159.3 417.1 159.3L417.1 159.3Q416.5 159.3 416.1 159.7Q415.6 160.0 415.4 160.6Q415.2 161.1 415.2 161.8L415.2 161.8Q415.2 162.4 415.4 163.0Q415.6 163.5 416.1 163.9Q416.5 164.2 417.1 164.2ZM424.2 165L423.2 165L423.2 158.4L424.2 158.4L424.2 159.5L424.3 159.5Q424.4 159.0 424.9 158.7Q425.4 158.4 426.0 158.4L426.0 158.4Q426.1 158.4 426.2 158.4Q426.4 158.4 426.5 158.4L426.5 158.4L426.5 159.4Q426.4 159.4 426.3 159.4Q426.1 159.4 425.9 159.4L425.9 159.4Q425.4 159.4 425.0 159.6Q424.7 159.8 424.4 160.1Q424.2 160.5 424.2 160.9L424.2 160.9L424.2 165ZM430.2 165L429.2 165L429.2 158.4L430.2 158.4L430.2 159.7Q430.4 159.3 430.6 159.0L430.6 159.0Q430.9 158.7 431.2 158.5Q431.6 158.3 432.1 158.3L432.1 158.3Q432.8 158.3 433.2 158.8L433.2 158.8Q433.6 159.1 433.7 159.7L433.7 159.7Q433.8 159.3 434.1 159.1L434.1 159.1Q434.4 158.7 434.8 158.5Q435.3 158.3 435.8 158.3L435.8 158.3Q436.4 158.3 436.8 158.6Q437.3 158.8 437.6 159.3Q437.9 159.8 437.9 160.6L437.9 160.6L437.9 165L436.8 165L436.8 160.6Q436.8 159.9 436.4 159.6Q436 159.3 435.5 159.3L435.5 159.3Q435.0 159.3 434.7 159.5Q434.4 159.7 434.2 160.0Q434.0 160.3 434.0 160.7L434.0 160.7L434.0 165L433.0 165L433.0 160.5Q433.0 160.0 432.6 159.6Q432.3 159.3 431.7 159.3L431.7 159.3Q431.3 159.3 431.0 159.5Q430.7 159.7 430.5 160.0Q430.2 160.4 430.2 160.9L430.2 160.9L430.2 165ZM443.0 165.2L443.0 165.2Q442.4 165.2 441.9 164.9Q441.4 164.7 441.1 164.2Q440.8 163.8 440.8 163.1L440.8 163.1Q440.8 162.6 441.0 162.2Q441.3 161.9 441.6 161.7Q442.0 161.5 442.4 161.4Q442.9 161.3 443.4 161.2L443.4 161.2Q443.9 161.1 444.3 161.1Q444.7 161.1 444.9 161.0Q445.0 160.9 445.0 160.6L445.0 160.6L445.0 160.6Q445.0 160.2 444.9 159.9Q444.7 159.6 444.4 159.4Q444.1 159.3 443.7 159.3L443.7 159.3Q443.2 159.3 442.9 159.4Q442.5 159.6 442.3 159.8Q442.1 160.0 442.0 160.3L442.0 160.3L441.0 159.9Q441.2 159.3 441.7 159.0Q442.1 158.6 442.6 158.5Q443.1 158.4 443.6 158.4L443.6 158.4Q444.0 158.4 444.4 158.4Q444.8 158.5 445.2 158.8Q445.6 159.0 445.8 159.5Q446.1 159.9 446.1 160.7L446.1 160.7L446.1 165L445.1 165L445.1 164.1L445.0 164.1Q444.9 164.3 444.6 164.6Q444.4 164.8 444.0 165.0Q443.6 165.2 443.0 165.2ZM443.2 164.2L443.2 164.2Q443.8 164.2 444.2 164.0Q444.6 163.8 444.8 163.4Q445.0 163.0 445.0 162.6L445.0 162.6L445.0 161.7Q445.0 161.8 444.8 161.9Q444.5 161.9 444.3 162.0Q444.0 162.0 443.7 162.0Q443.5 162.1 443.3 162.1L443.3 162.1Q442.9 162.1 442.6 162.3Q442.3 162.4 442.1 162.6Q441.9 162.8 441.9 163.2L441.9 163.2Q441.9 163.5 442.0 163.8Q442.2 164.0 442.5 164.1Q442.8 164.2 443.2 164.2ZM450.5 161.1L450.5 161.1L450.5 165L449.4 165L449.4 158.4L450.5 158.4L450.5 159.7Q450.7 159.0 451.2 158.7L451.2 158.7Q451.7 158.4 452.5 158.4L452.5 158.4Q453.1 158.4 453.6 158.6Q454.1 158.9 454.4 159.5Q454.7 160.0 454.7 160.8L454.7 160.8L454.7 165L453.6 165L453.6 160.9Q453.6 160.2 453.2 159.7Q452.8 159.3 452.1 159.3L452.1 159.3Q451.7 159.3 451.3 159.5Q450.9 159.7 450.7 160.1Q450.5 160.5 450.5 161.1ZM460.7 165.1L460.7 165.1Q459.8 165.1 459.1 164.7Q458.5 164.3 458.1 163.5Q457.7 162.8 457.7 161.8L457.7 161.8Q457.7 160.7 458.1 160.0Q458.5 159.2 459.1 158.8Q459.8 158.4 460.7 158.4L460.7 158.4Q461.2 158.4 461.6 158.5Q462.0 158.6 462.4 158.8Q462.7 159.1 463.0 159.4Q463.2 159.8 463.4 160.2L463.4 160.2L462.3 160.5Q462.3 160.2 462.1 160.0Q462.0 159.8 461.8 159.6Q461.6 159.5 461.3 159.4Q461.0 159.3 460.7 159.3L460.7 159.3Q460.0 159.3 459.6 159.7Q459.2 160.0 459.0 160.6Q458.8 161.1 458.8 161.8L458.8 161.8Q458.8 162.4 459.0 163.0Q459.2 163.5 459.6 163.9Q460.0 164.2 460.7 164.2L460.7 164.2Q461.0 164.2 461.3 164.1Q461.6 164.0 461.8 163.9Q462.0 163.7 462.2 163.5Q462.3 163.3 462.4 163.0L462.4 163.0L463.4 163.3Q463.2 163.7 463.0 164.1Q462.7 164.4 462.4 164.6Q462.0 164.9 461.6 165.0Q461.2 165.1 460.7 165.1ZM469.1 165.1L469.1 165.1Q468.2 165.1 467.5 164.7Q466.8 164.3 466.4 163.5Q466.1 162.8 466.1 161.8Q466.1 160.8 466.4 160.0Q466.8 159.2 467.5 158.8Q468.1 158.4 469.0 158.4L469.0 158.4Q469.5 158.4 470.0 158.5Q470.6 158.7 471.0 159.1Q471.4 159.5 471.6 160.1Q471.9 160.7 471.9 161.6L471.9 161.6L471.9 162.1L467.1 162.1Q467.2 162.7 467.4 163.2L467.4 163.2Q467.6 163.7 468.1 163.9Q468.5 164.2 469.1 164.2L469.1 164.2Q469.5 164.2 469.8 164.1Q470.2 164.0 470.4 163.8Q470.6 163.5 470.7 163.2L470.7 163.2L471.8 163.5Q471.6 164.0 471.3 164.3Q470.9 164.7 470.4 164.9Q469.8 165.1 469.1 165.1ZM467.1 161.2L467.1 161.2L470.8 161.2Q470.8 160.7 470.6 160.4L470.6 160.4Q470.4 159.9 470.0 159.6Q469.6 159.3 469.0 159.3Q468.4 159.3 468.0 159.6Q467.6 159.9 467.4 160.3L467.4 160.3Q467.2 160.7 467.1 161.2Z M485.3 165L479.9 165L479.9 156.3L485.2 156.3L485.2 157.3L481 157.3L481 160.1L484.9 160.1L484.9 161.1L481 161.1L481 164.0L485.3 164.0L485.3 165ZM489.5 161.1L489.5 161.1L489.5 165L488.5 165L488.5 158.4L489.5 158.4L489.5 159.7Q489.8 159.0 490.2 158.7L490.2 158.7Q490.8 158.4 491.5 158.4L491.5 158.4Q492.2 158.4 492.7 158.6Q493.2 158.9 493.4 159.5Q493.7 160.0 493.7 160.8L493.7 160.8L493.7 165L492.7 165L492.7 160.9Q492.7 160.2 492.3 159.7Q491.9 159.3 491.2 159.3L491.2 159.3Q490.7 159.3 490.3 159.5Q490.0 159.7 489.7 160.1Q489.5 160.5 489.5 161.1ZM499.7 167.6L499.7 167.6Q499.0 167.6 498.5 167.4Q497.9 167.2 497.6 166.9Q497.2 166.6 497.0 166.3L497.0 166.3L497.9 165.7Q498.0 165.9 498.2 166.1Q498.4 166.3 498.8 166.5Q499.1 166.7 499.7 166.7L499.7 166.7Q500.5 166.7 501.0 166.3Q501.5 165.9 501.5 165.1L501.5 165.1L501.5 163.8L501.4 163.8Q501.3 164.0 501.1 164.2Q500.9 164.5 500.5 164.7Q500.1 164.9 499.5 164.9L499.5 164.9Q498.7 164.9 498.1 164.5Q497.5 164.2 497.1 163.4Q496.7 162.7 496.7 161.7L496.7 161.7Q496.7 160.7 497.1 159.9Q497.5 159.2 498.1 158.8Q498.7 158.4 499.5 158.4L499.5 158.4Q500.2 158.4 500.5 158.6Q500.9 158.8 501.1 159.1Q501.3 159.3 501.4 159.5L501.4 159.5L501.5 159.5L501.5 158.4L502.6 158.4L502.6 165.2Q502.6 166.0 502.2 166.5Q501.8 167.1 501.2 167.3Q500.5 167.6 499.7 167.6ZM499.7 164.0L499.7 164.0Q500.3 164.0 500.7 163.7Q501.1 163.4 501.3 162.9Q501.5 162.4 501.5 161.7L501.5 161.7Q501.5 161.0 501.3 160.4Q501.1 159.9 500.7 159.6Q500.3 159.3 499.7 159.3L499.7 159.3Q499.1 159.3 498.6 159.6Q498.2 159.9 498.0 160.5Q497.8 161.0 497.8 161.7L497.8 161.7Q497.8 162.3 498.0 162.9Q498.2 163.4 498.7 163.7Q499.1 164.0 499.7 164.0ZM507.0 165L505.9 165L505.9 158.4L507.0 158.4L507.0 165ZM506.5 157.4L506.5 157.4Q506.2 157.4 505.9 157.2Q505.7 157.0 505.7 156.7L505.7 156.7Q505.7 156.4 505.9 156.2Q506.2 156.0 506.5 156.0L506.5 156.0Q506.8 156.0 507.0 156.2Q507.2 156.4 507.2 156.7L507.2 156.7Q507.2 157.0 507.0 157.2Q506.8 157.4 506.5 157.4ZM511.4 161.1L511.4 161.1L511.4 165L510.3 165L510.3 158.4L511.3 158.4L511.3 159.7Q511.6 159.0 512.1 158.7L512.1 158.7Q512.6 158.4 513.3 158.4L513.3 158.4Q514.0 158.4 514.5 158.6Q515.0 158.9 515.3 159.5Q515.6 160.0 515.6 160.8L515.6 160.8L515.6 165L514.5 165L514.5 160.9Q514.5 160.2 514.1 159.7Q513.7 159.3 513.0 159.3L513.0 159.3Q512.6 159.3 512.2 159.5Q511.8 159.7 511.6 160.1Q511.4 160.5 511.4 161.1ZM521.7 165.1L521.7 165.1Q520.7 165.1 520.0 164.7Q519.3 164.3 519.0 163.5Q518.6 162.8 518.6 161.8Q518.6 160.8 519.0 160.0Q519.3 159.2 520.0 158.8Q520.7 158.4 521.5 158.4L521.5 158.4Q522.1 158.4 522.6 158.5Q523.1 158.7 523.5 159.1Q523.9 159.5 524.2 160.1Q524.4 160.7 524.4 161.6L524.4 161.6L524.4 162.1L519.7 162.1Q519.7 162.7 519.9 163.2L519.9 163.2Q520.2 163.7 520.6 163.9Q521.1 164.2 521.7 164.2L521.7 164.2Q522.1 164.2 522.4 164.1Q522.7 164.0 522.9 163.8Q523.2 163.5 523.3 163.2L523.3 163.2L524.3 163.5Q524.1 164.0 523.8 164.3Q523.4 164.7 522.9 164.9Q522.3 165.1 521.7 165.1ZM519.7 161.2L519.7 161.2L523.3 161.2Q523.3 160.7 523.1 160.4L523.1 160.4Q522.9 159.9 522.5 159.6Q522.1 159.3 521.5 159.3Q521.0 159.3 520.5 159.6Q520.1 159.9 519.9 160.3L519.9 160.3Q519.7 160.7 519.7 161.2ZM530.2 165.1L530.2 165.1Q529.2 165.1 528.5 164.7Q527.8 164.3 527.5 163.5Q527.1 162.8 527.1 161.8Q527.1 160.8 527.5 160.0Q527.8 159.2 528.5 158.8Q529.2 158.4 530.0 158.4L530.0 158.4Q530.6 158.4 531.1 158.5Q531.6 158.7 532.0 159.1Q532.4 159.5 532.7 160.1Q532.9 160.7 532.9 161.6L532.9 161.6L532.9 162.1L528.2 162.1Q528.2 162.7 528.4 163.2L528.4 163.2Q528.7 163.7 529.1 163.9Q529.6 164.2 530.2 164.2L530.2 164.2Q530.6 164.2 530.9 164.1Q531.2 164.0 531.4 163.8Q531.6 163.5 531.8 163.2L531.8 163.2L532.8 163.5Q532.6 164.0 532.3 164.3Q531.9 164.7 531.4 164.9Q530.8 165.1 530.2 165.1ZM528.2 161.2L528.2 161.2L531.8 161.2Q531.8 160.7 531.6 160.4L531.6 160.4Q531.4 159.9 531.0 159.6Q530.6 159.3 530.0 159.3Q529.5 159.3 529.0 159.6Q528.6 159.9 528.4 160.3L528.4 160.3Q528.2 160.7 528.2 161.2ZM537.0 165L535.9 165L535.9 158.4L536.9 158.4L536.9 159.5L537.0 159.5Q537.2 159.0 537.6 158.7Q538.1 158.4 538.7 158.4L538.7 158.4Q538.8 158.4 539.0 158.4Q539.1 158.4 539.2 158.4L539.2 158.4L539.2 159.4Q539.2 159.4 539.0 159.4Q538.8 159.4 538.6 159.4L538.6 159.4Q538.1 159.4 537.8 159.6Q537.4 159.8 537.2 160.1Q537.0 160.5 537.0 160.9L537.0 160.9L537.0 165ZM543.0 165L541.9 165L541.9 158.4L543.0 158.4L543.0 165ZM542.5 157.4L542.5 157.4Q542.2 157.4 541.9 157.2Q541.7 157.0 541.7 156.7L541.7 156.7Q541.7 156.4 541.9 156.2Q542.2 156.0 542.5 156.0L542.5 156.0Q542.8 156.0 543.0 156.2Q543.2 156.4 543.2 156.7L543.2 156.7Q543.2 157.0 543.0 157.2Q542.8 157.4 542.5 157.4ZM547.4 161.1L547.4 161.1L547.4 165L546.3 165L546.3 158.4L547.3 158.4L547.4 159.7Q547.6 159.0 548.1 158.7L548.1 158.7Q548.6 158.4 549.4 158.4L549.4 158.4Q550.0 158.4 550.5 158.6Q551.0 158.9 551.3 159.5Q551.6 160.0 551.6 160.8L551.6 160.8L551.6 165L550.5 165L550.5 160.9Q550.5 160.2 550.1 159.7Q549.7 159.3 549.0 159.3L549.0 159.3Q548.6 159.3 548.2 159.5Q547.8 159.7 547.6 160.1Q547.4 160.5 547.4 161.1ZM557.6 167.6L557.6 167.6Q556.8 167.6 556.3 167.4Q555.8 167.2 555.4 166.9Q555.1 166.6 554.9 166.3L554.9 166.3L555.7 165.7Q555.9 165.9 556.1 166.1Q556.3 166.3 556.6 166.5Q557.0 166.7 557.6 166.7L557.6 166.7Q558.4 166.7 558.9 166.3Q559.4 165.9 559.4 165.1L559.4 165.1L559.4 163.8L559.3 163.8Q559.2 164.0 559.0 164.2Q558.8 164.5 558.4 164.7Q558.0 164.9 557.4 164.9L557.4 164.9Q556.6 164.9 556.0 164.5Q555.3 164.2 555.0 163.4Q554.6 162.7 554.6 161.7L554.6 161.7Q554.6 160.7 555.0 159.9Q555.3 159.2 556.0 158.8Q556.6 158.4 557.4 158.4L557.4 158.4Q558.0 158.4 558.4 158.6Q558.8 158.8 559.0 159.1Q559.2 159.3 559.3 159.5L559.3 159.5L559.4 159.5L559.4 158.4L560.4 158.4L560.4 165.2Q560.4 166.0 560.0 166.5Q559.7 167.1 559.0 167.3Q558.4 167.6 557.6 167.6ZM557.5 164.0L557.5 164.0Q558.1 164.0 558.6 163.7Q559.0 163.4 559.2 162.9Q559.4 162.4 559.4 161.7L559.4 161.7Q559.4 161.0 559.2 160.4Q559.0 159.9 558.6 159.6Q558.2 159.3 557.5 159.3L557.5 159.3Q556.9 159.3 556.5 159.6Q556.1 159.9 555.9 160.5Q555.7 161.0 555.7 161.7L555.7 161.7Q555.7 162.3 555.9 162.9Q556.1 163.4 556.5 163.7Q556.9 164.0 557.5 164.0Z M569.3 153.5L570.2 153.5L570.2 167.8L569.3 167.8L569.3 153.5Z M582.3 165L579.2 165L579.2 156.3L582.2 156.3Q583.2 156.3 583.8 156.6Q584.3 156.9 584.6 157.4Q584.9 157.9 584.9 158.6L584.9 158.6Q584.9 159.1 584.7 159.5Q584.5 159.9 584.2 160.1Q583.9 160.3 583.5 160.4L583.5 160.4L583.5 160.5Q583.9 160.5 584.3 160.8Q584.7 161.0 585.0 161.5Q585.3 162.0 585.3 162.7L585.3 162.7Q585.3 163.3 585.0 163.9Q584.7 164.4 584.0 164.7Q583.4 165 582.3 165L582.3 165ZM580.3 161.0L580.3 164.0L582.3 164.0Q583.3 164.0 583.8 163.6Q584.2 163.2 584.2 162.7L584.2 162.7Q584.2 162.2 584.0 161.9Q583.8 161.5 583.3 161.3Q582.9 161.0 582.4 161.0L582.4 161.0L580.3 161.0ZM580.3 157.3L580.3 160.1L582.2 160.1Q582.7 160.1 583.0 159.9Q583.4 159.7 583.6 159.4Q583.9 159.1 583.9 158.6L583.9 158.6Q583.9 158.0 583.5 157.6Q583.1 157.3 582.2 157.3L582.2 157.3L580.3 157.3ZM590.2 165.2L590.2 165.2Q589.6 165.2 589.1 164.9Q588.6 164.7 588.3 164.2Q588.0 163.8 588.0 163.1L588.0 163.1Q588.0 162.6 588.2 162.2Q588.4 161.9 588.8 161.7Q589.2 161.5 589.6 161.4Q590.1 161.3 590.5 161.2L590.5 161.2Q591.1 161.1 591.5 161.1Q591.8 161.1 592.0 161.0Q592.2 160.9 592.2 160.6L592.2 160.6L592.2 160.6Q592.2 160.2 592.1 159.9Q591.9 159.6 591.6 159.4Q591.3 159.3 590.8 159.3L590.8 159.3Q590.4 159.3 590.0 159.4Q589.7 159.6 589.5 159.8Q589.3 160.0 589.2 160.3L589.2 160.3L588.2 159.9Q588.4 159.3 588.8 159.0Q589.3 158.6 589.8 158.5Q590.3 158.4 590.8 158.4L590.8 158.4Q591.1 158.4 591.6 158.4Q592.0 158.5 592.4 158.8Q592.8 159.0 593.0 159.5Q593.3 159.9 593.3 160.7L593.3 160.7L593.3 165L592.2 165L592.2 164.1L592.2 164.1Q592.0 164.3 591.8 164.6Q591.5 164.8 591.2 165.0Q590.8 165.2 590.2 165.2ZM590.4 164.2L590.4 164.2Q591.0 164.2 591.4 164.0Q591.8 163.8 592.0 163.4Q592.2 163.0 592.2 162.6L592.2 162.6L592.2 161.7Q592.1 161.8 591.9 161.9Q591.7 161.9 591.4 162.0Q591.2 162.0 590.9 162.0Q590.6 162.1 590.5 162.1L590.5 162.1Q590.1 162.1 589.8 162.3Q589.4 162.4 589.2 162.6Q589.0 162.8 589.0 163.2L589.0 163.2Q589.0 163.5 589.2 163.8Q589.4 164.0 589.7 164.1Q590.0 164.2 590.4 164.2ZM597.7 165L596.6 165L596.6 158.4L597.6 158.4L597.6 159.5L597.7 159.5Q597.9 159.0 598.3 158.7Q598.8 158.4 599.4 158.4L599.4 158.4Q599.5 158.4 599.7 158.4Q599.8 158.4 599.9 158.4L599.9 158.4L599.9 159.4Q599.9 159.4 599.7 159.4Q599.5 159.4 599.3 159.4L599.3 159.4Q598.8 159.4 598.5 159.6Q598.1 159.8 597.9 160.1Q597.7 160.5 597.7 160.9L597.7 160.9L597.7 165ZM605.4 165.1L605.4 165.1Q604.4 165.1 603.7 164.7Q603.1 164.3 602.7 163.5Q602.3 162.8 602.3 161.8Q602.3 160.8 602.7 160.0Q603.0 159.2 603.7 158.8Q604.4 158.4 605.3 158.4L605.3 158.4Q605.8 158.4 606.3 158.5Q606.8 158.7 607.2 159.1Q607.6 159.5 607.9 160.1Q608.1 160.7 608.1 161.6L608.1 161.6L608.1 162.1L603.4 162.1Q603.4 162.7 603.6 163.2L603.6 163.2Q603.9 163.7 604.3 163.9Q604.8 164.2 605.4 164.2L605.4 164.2Q605.8 164.2 606.1 164.1Q606.4 164.0 606.6 163.8Q606.9 163.5 607.0 163.2L607.0 163.2L608.0 163.5Q607.9 164.0 607.5 164.3Q607.1 164.7 606.6 164.9Q606.1 165.1 605.4 165.1ZM603.4 161.2L603.4 161.2L607.0 161.2Q607 160.7 606.9 160.4L606.9 160.4Q606.6 159.9 606.3 159.6Q605.9 159.3 605.3 159.3Q604.7 159.3 604.2 159.6Q603.8 159.9 603.6 160.3L603.6 160.3Q603.4 160.7 603.4 161.2ZM611.0 160.8L614.9 160.8L614.9 161.8L611.0 161.8L611.0 160.8ZM619.2 165L618.1 165L618.1 158.4L619.2 158.4L619.2 159.7Q619.3 159.3 619.5 159.0L619.5 159.0Q619.8 158.7 620.2 158.5Q620.6 158.3 621.0 158.3L621.0 158.3Q621.7 158.3 622.2 158.8L622.2 158.8Q622.5 159.1 622.7 159.7L622.7 159.7Q622.8 159.3 623.0 159.1L623.0 159.1Q623.3 158.7 623.8 158.5Q624.2 158.3 624.7 158.3L624.7 158.3Q625.3 158.3 625.8 158.6Q626.2 158.8 626.5 159.3Q626.8 159.8 626.8 160.6L626.8 160.6L626.8 165L625.8 165L625.8 160.6Q625.8 159.9 625.4 159.6Q625.0 159.3 624.4 159.3L624.4 159.3Q624.0 159.3 623.7 159.5Q623.3 159.7 623.2 160.0Q623.0 160.3 623.0 160.7L623.0 160.7L623.0 165L621.9 165L621.9 160.5Q621.9 160.0 621.6 159.6Q621.2 159.3 620.7 159.3L620.7 159.3Q620.3 159.3 619.9 159.5Q619.6 159.7 619.4 160.0Q619.2 160.4 619.2 160.9L619.2 160.9L619.2 165ZM632.9 165.1L632.9 165.1Q632.0 165.1 631.3 164.7Q630.6 164.3 630.2 163.5Q629.8 162.8 629.8 161.8Q629.8 160.8 630.2 160.0Q630.6 159.2 631.2 158.8Q631.9 158.4 632.8 158.4L632.8 158.4Q633.3 158.4 633.8 158.5Q634.3 158.7 634.7 159.1Q635.1 159.5 635.4 160.1Q635.6 160.7 635.6 161.6L635.6 161.6L635.6 162.1L630.9 162.1Q630.9 162.7 631.2 163.2L631.2 163.2Q631.4 163.7 631.9 163.9Q632.3 164.2 632.9 164.2L632.9 164.2Q633.3 164.2 633.6 164.1Q633.9 164.0 634.2 163.8Q634.4 163.5 634.5 163.2L634.5 163.2L635.5 163.5Q635.4 164.0 635.0 164.3Q634.7 164.7 634.1 164.9Q633.6 165.1 632.9 165.1ZM630.9 161.2L630.9 161.2L634.6 161.2Q634.5 160.7 634.4 160.4L634.4 160.4Q634.2 159.9 633.8 159.6Q633.4 159.3 632.8 159.3Q632.2 159.3 631.8 159.6Q631.4 159.9 631.1 160.3L631.1 160.3Q630.9 160.7 630.9 161.2ZM639.9 158.4L641.2 158.4L641.2 159.4L639.9 159.4L639.9 163.3Q639.9 163.7 640.1 163.9Q640.2 164.1 640.7 164.1L640.7 164.1Q640.8 164.1 640.9 164.1Q641.1 164.1 641.2 164.1L641.2 164.1L641.4 165.0Q641.2 165.0 641.0 165.1Q640.8 165.1 640.6 165.1L640.6 165.1Q639.8 165.1 639.3 164.6Q638.8 164.2 638.8 163.4L638.8 163.4L638.8 159.4L637.8 159.4L637.8 158.4L638.8 158.4L638.8 156.9L639.9 156.9L639.9 158.4ZM645.9 165.2L645.9 165.2Q645.3 165.2 644.8 164.9Q644.3 164.7 644.0 164.2Q643.7 163.8 643.7 163.1L643.7 163.1Q643.7 162.6 643.9 162.2Q644.1 161.9 644.5 161.7Q644.9 161.5 645.3 161.4Q645.8 161.3 646.2 161.2L646.2 161.2Q646.8 161.1 647.2 161.1Q647.6 161.1 647.7 161.0Q647.9 160.9 647.9 160.6L647.9 160.6L647.9 160.6Q647.9 160.2 647.8 159.9Q647.6 159.6 647.3 159.4Q647.0 159.3 646.5 159.3L646.5 159.3Q646.1 159.3 645.7 159.4Q645.4 159.6 645.2 159.8Q645.0 160.0 644.9 160.3L644.9 160.3L643.9 159.9Q644.1 159.3 644.5 159.0Q645.0 158.6 645.5 158.5Q646.0 158.4 646.5 158.4L646.5 158.4Q646.8 158.4 647.3 158.4Q647.7 158.5 648.1 158.8Q648.5 159.0 648.7 159.5Q649.0 159.9 649.0 160.7L649.0 160.7L649.0 165L647.9 165L647.9 164.1L647.9 164.1Q647.7 164.3 647.5 164.6Q647.3 164.8 646.9 165.0Q646.5 165.2 645.9 165.2ZM646.1 164.2L646.1 164.2Q646.7 164.2 647.1 164.0Q647.5 163.8 647.7 163.4Q647.9 163.0 647.9 162.6L647.9 162.6L647.9 161.7Q647.8 161.8 647.6 161.9Q647.4 161.9 647.1 162.0Q646.9 162.0 646.6 162.0Q646.3 162.1 646.2 162.1L646.2 162.1Q645.8 162.1 645.5 162.3Q645.1 162.4 644.9 162.6Q644.7 162.8 644.7 163.2L644.7 163.2Q644.7 163.5 644.9 163.8Q645.1 164.0 645.4 164.1Q645.7 164.2 646.1 164.2ZM652.3 156.3L653.4 156.3L653.4 165L652.3 165L652.3 156.3Z "/></g><mask id="satori_om-id-2"><rect x="178" y="190" width="444" height="27" fill="#fff" mask="url(#satori_om-id)"/></mask><defs><clipPath id="satori_bc-id-2-0" clip-path="url(#satori_cp-id)"><path x="178" y="190" width="82" height="27" d="M191.5,190 h55 a13.5,13.5 0 0 1 13.5,13.5 v0 a13.5,13.5 0 0 1 -13.5,13.5 h-55 a13.5,13.5 0 0 1 -13.5,-13.5 v0 a13.5,13.5 0 0 1 13.5,-13.5"/></clipPath></defs><mask id="satori_om-id-2-0"><rect x="179" y="191" width="80" height="25" fill="#fff" mask="url(#satori_om-id)"/><path width="82" height="27" fill="none" stroke="#000" stroke-width="2" d="M181.954,193.954 A13.5,13.5 0 0 1 191.5,190 h55 a13.5,13.5 0 0 1 13.5,13.5 v0 a13.5,13.5 0 0 1 -13.5,13.5 h-55 a13.5,13.5 0 0 1 -13.5,-13.5 v0 A13.5,13.5 0 0 1 181.954,193.954"/></mask><path x="178" y="190" width="82" height="27" fill="rgba(8,6,14,0.7)" d="M191.5,190 h55 a13.5,13.5 0 0 1 13.5,13.5 v0 a13.5,13.5 0 0 1 -13.5,13.5 h-55 a13.5,13.5 0 0 1 -13.5,-13.5 v0 a13.5,13.5 0 0 1 13.5,-13.5" clip-path="url(#satori_cp-id)" mask="url(#satori_om-id)"/><path width="82" height="27" clip-path="url(#satori_bc-id-2-0)" fill="none" stroke="rgba(120,200,255,0.2)" stroke-width="2" d="M181.954,193.954 A13.5,13.5 0 0 1 191.5,190 h55 a13.5,13.5 0 0 1 13.5,13.5 v0 a13.5,13.5 0 0 1 -13.5,13.5 h-55 a13.5,13.5 0 0 1 -13.5,-13.5 v0 A13.5,13.5 0 0 1 181.954,193.954"/><g mask="url(#satori_om-id)" clip-path="url(#satori_cp-id)"><path fill="#7ee7ff" d="M199.6 208.1L199.6 208.1Q198.5 208.1 197.5 207.6Q196.6 207.1 196.1 206.1Q195.6 205.1 195.6 203.6L195.6 203.6Q195.6 202.2 196.1 201.2Q196.6 200.2 197.5 199.7Q198.5 199.2 199.6 199.2L199.6 199.2Q200.8 199.2 201.7 199.7Q202.6 200.2 203.2 201.2Q203.7 202.2 203.7 203.6L203.7 203.6Q203.7 205.1 203.2 206.1Q202.6 207.1 201.7 207.6Q200.8 208.1 199.6 208.1ZM199.6 206.5L199.6 206.5Q200.3 206.5 200.8 206.2Q201.3 205.9 201.6 205.2Q201.9 204.6 201.9 203.6L201.9 203.6Q201.9 202.7 201.6 202.0Q201.3 201.4 200.8 201.1Q200.3 200.7 199.6 200.7L199.6 200.7Q198.9 200.7 198.4 201.1Q197.9 201.4 197.6 202.1Q197.4 202.7 197.4 203.6L197.4 203.6Q197.4 204.6 197.6 205.2Q197.9 205.9 198.4 206.2Q198.9 206.5 199.6 206.5ZM209.2 208.1L209.2 208.1Q208.2 208.1 207.4 207.8Q206.6 207.5 206.2 206.9Q205.8 206.2 205.7 205.3L205.7 205.3L207.5 205.3Q207.5 205.7 207.7 206.0Q208.0 206.3 208.4 206.5Q208.7 206.6 209.2 206.6L209.2 206.6Q209.7 206.6 210.1 206.5Q210.4 206.3 210.6 206.1Q210.8 205.8 210.8 205.5L210.8 205.5Q210.8 205.2 210.6 205.0Q210.4 204.8 210.1 204.7Q209.8 204.5 209.3 204.4L209.3 204.4L208.3 204.2Q207.2 203.9 206.6 203.3Q206.0 202.7 206.0 201.8L206.0 201.8Q206.0 201.0 206.4 200.4Q206.8 199.8 207.6 199.5Q208.3 199.2 209.3 199.2L209.3 199.2Q210.2 199.2 210.9 199.5Q211.7 199.8 212.1 200.4Q212.5 201.0 212.5 201.8L212.5 201.8L210.8 201.8Q210.7 201.2 210.3 200.9Q209.9 200.7 209.2 200.7L209.2 200.7Q208.8 200.7 208.5 200.8Q208.1 200.9 208.0 201.1Q207.8 201.4 207.8 201.7L207.8 201.7Q207.8 202.0 208.0 202.2Q208.2 202.4 208.5 202.5Q208.8 202.7 209.2 202.8L209.2 202.8L210.0 203.0Q210.5 203.1 211.0 203.3Q211.5 203.5 211.9 203.8Q212.2 204.1 212.4 204.5Q212.6 205.0 212.6 205.5L212.6 205.5Q212.6 206.3 212.2 206.9Q211.8 207.5 211.1 207.8Q210.3 208.1 209.2 208.1ZM218.0 208L218.0 208L214.9 208L214.9 199.3L218.0 199.3Q219.3 199.3 220.3 199.8Q221.2 200.3 221.7 201.3Q222.2 202.3 222.2 203.6L222.2 203.6Q222.2 205.0 221.7 206.0Q221.2 207.0 220.2 207.5Q219.3 208 218.0 208ZM216.7 200.8L216.7 206.5L217.9 206.5Q218.7 206.5 219.3 206.2Q219.9 205.9 220.2 205.2Q220.4 204.6 220.4 203.6L220.4 203.6Q220.4 202.7 220.1 202.0Q219.9 201.4 219.3 201.1Q218.7 200.8 217.9 200.8L217.9 200.8L216.7 200.8ZM230.4 208L224.6 208L224.6 199.3L230.4 199.3L230.4 200.8L226.3 200.8L226.3 202.9L230.1 202.9L230.1 204.3L226.3 204.3L226.3 206.5L230.4 206.5L230.4 208ZM237.7 208L235.4 208L232.3 199.3L234.3 199.3L235.7 203.5Q236.0 204.3 236.2 205.2L236.2 205.2Q236.4 205.9 236.6 206.6L236.6 206.6Q236.8 205.9 236.9 205.2L236.9 205.2Q237.2 204.3 237.4 203.5L237.4 203.5L238.8 199.3L240.7 199.3L237.7 208Z "/></g><defs><clipPath id="satori_bc-id-2-1" clip-path="url(#satori_cp-id)"><path x="268" y="190" width="122" height="27" d="M281.5,190 h95 a13.5,13.5 0 0 1 13.5,13.5 v0 a13.5,13.5 0 0 1 -13.5,13.5 h-95 a13.5,13.5 0 0 1 -13.5,-13.5 v0 a13.5,13.5 0 0 1 13.5,-13.5"/></clipPath></defs><mask id="satori_om-id-2-1"><rect x="269" y="191" width="120" height="25" fill="#fff" mask="url(#satori_om-id)"/><path width="122" height="27" fill="none" stroke="#000" stroke-width="2" d="M271.954,193.954 A13.5,13.5 0 0 1 281.5,190 h95 a13.5,13.5 0 0 1 13.5,13.5 v0 a13.5,13.5 0 0 1 -13.5,13.5 h-95 a13.5,13.5 0 0 1 -13.5,-13.5 v0 A13.5,13.5 0 0 1 271.954,193.954"/></mask><path x="268" y="190" width="122" height="27" fill="rgba(8,6,14,0.7)" d="M281.5,190 h95 a13.5,13.5 0 0 1 13.5,13.5 v0 a13.5,13.5 0 0 1 -13.5,13.5 h-95 a13.5,13.5 0 0 1 -13.5,-13.5 v0 a13.5,13.5 0 0 1 13.5,-13.5" clip-path="url(#satori_cp-id)" mask="url(#satori_om-id)"/><path width="122" height="27" clip-path="url(#satori_bc-id-2-1)" fill="none" stroke="rgba(200,120,255,0.2)" stroke-width="2" d="M271.954,193.954 A13.5,13.5 0 0 1 281.5,190 h95 a13.5,13.5 0 0 1 13.5,13.5 v0 a13.5,13.5 0 0 1 -13.5,13.5 h-95 a13.5,13.5 0 0 1 -13.5,-13.5 v0 A13.5,13.5 0 0 1 271.954,193.954"/><g mask="url(#satori_om-id)" clip-path="url(#satori_cp-id)"><path fill="#e8c8ff" d="M287.6 208L285.8 208L285.8 199.3L289.2 199.3Q290.2 199.3 290.9 199.6Q291.6 200.0 292.0 200.7Q292.3 201.4 292.3 202.2L292.3 202.2Q292.3 203.1 291.9 203.7Q291.6 204.4 290.9 204.8Q290.2 205.1 289.2 205.1L289.2 205.1L287.6 205.1L287.6 208ZM287.6 200.7L287.6 203.7L288.9 203.7Q289.4 203.7 289.8 203.5Q290.1 203.3 290.3 203.0Q290.5 202.7 290.5 202.2Q290.5 201.8 290.3 201.4Q290.1 201.1 289.8 200.9Q289.4 200.7 288.9 200.7L288.9 200.7L287.6 200.7ZM297.5 208.1L297.5 208.1Q296.5 208.1 295.8 207.7Q295.0 207.3 294.6 206.6Q294.3 205.8 294.3 204.8L294.3 204.8Q294.3 203.7 294.6 203.0Q295.0 202.2 295.7 201.8Q296.4 201.4 297.4 201.4L297.4 201.4Q298.0 201.4 298.6 201.6Q299.2 201.8 299.6 202.2Q300.0 202.6 300.2 203.2Q300.5 203.8 300.5 204.7L300.5 204.7L300.5 205.2L296.0 205.2Q296.0 205.7 296.2 206.0L296.2 206.0Q296.4 206.4 296.7 206.6Q297.1 206.8 297.5 206.8L297.5 206.8Q297.8 206.8 298.1 206.7Q298.3 206.6 298.5 206.5Q298.7 206.3 298.8 206.0L298.8 206.0L300.4 206.3Q300.2 206.9 299.8 207.3Q299.4 207.7 298.8 207.9Q298.3 208.1 297.5 208.1ZM296.0 204.1L296.0 204.1L298.8 204.1Q298.7 203.8 298.6 203.5L298.6 203.5Q298.5 203.1 298.2 202.9Q297.9 202.7 297.4 202.7L297.4 202.7Q297.0 202.7 296.6 202.9Q296.3 203.1 296.2 203.5L296.2 203.5Q296.0 203.7 296.0 204.1ZM304.4 208L302.7 208L302.7 201.4L304.4 201.4L304.4 202.6L304.4 202.6Q304.6 202.0 305.0 201.7Q305.5 201.4 306.0 201.4L306.0 201.4Q306.2 201.4 306.3 201.4Q306.5 201.4 306.6 201.4L306.6 201.4L306.6 203.0Q306.5 202.9 306.3 202.9Q306.0 202.9 305.8 202.9L305.8 202.9Q305.4 202.9 305.1 203.1Q304.8 203.2 304.6 203.6Q304.4 203.9 304.4 204.3L304.4 204.3L304.4 208ZM310.8 201.4L312.2 201.4L312.2 202.8L310.8 202.8L310.8 208L309.1 208L309.1 202.8L307.9 202.8L307.9 201.4L309.1 201.4L309.1 200.9Q309.1 200.2 309.4 199.8Q309.6 199.3 310.1 199.1Q310.6 198.9 311.2 198.9L311.2 198.9Q311.6 198.9 312.0 198.9Q312.3 199.0 312.5 199.0L312.5 199.0L312.2 200.4Q312.0 200.3 311.9 200.3Q311.7 200.3 311.6 200.3L311.6 200.3Q311.2 200.3 311.0 200.5Q310.8 200.7 310.8 201.0L310.8 201.0L310.8 201.4ZM317.3 208.1L317.3 208.1Q316.3 208.1 315.6 207.7Q314.8 207.3 314.5 206.5Q314.1 205.8 314.1 204.8L314.1 204.8Q314.1 203.7 314.5 203.0Q314.8 202.2 315.6 201.8Q316.3 201.4 317.3 201.4L317.3 201.4Q318.3 201.4 319.0 201.8Q319.7 202.2 320.1 203.0Q320.5 203.7 320.5 204.8L320.5 204.8Q320.5 205.8 320.1 206.5Q319.7 207.3 319.0 207.7Q318.3 208.1 317.3 208.1ZM317.3 206.7L317.3 206.7Q317.7 206.7 318.1 206.5Q318.4 206.2 318.5 205.8Q318.7 205.3 318.7 204.7L318.7 204.7Q318.7 204.2 318.5 203.7Q318.4 203.3 318.1 203.0Q317.7 202.8 317.3 202.8L317.3 202.8Q316.8 202.8 316.5 203.0Q316.2 203.3 316.0 203.7Q315.9 204.2 315.9 204.7L315.9 204.7Q315.9 205.3 316.0 205.8Q316.2 206.2 316.5 206.5Q316.8 206.7 317.3 206.7ZM324.5 208L322.7 208L322.7 201.4L324.4 201.4L324.4 202.6L324.5 202.6Q324.6 202.0 325.1 201.7Q325.5 201.4 326.0 201.4L326.0 201.4Q326.2 201.4 326.3 201.4Q326.5 201.4 326.6 201.4L326.6 201.4L326.6 203.0Q326.5 202.9 326.3 202.9Q326.1 202.9 325.9 202.9L325.9 202.9Q325.5 202.9 325.1 203.1Q324.8 203.2 324.6 203.6Q324.5 203.9 324.5 204.3L324.5 204.3L324.5 208ZM330.3 208L328.6 208L328.6 201.4L330.2 201.4L330.3 202.7Q330.4 202.4 330.6 202.1L330.6 202.1Q330.9 201.7 331.3 201.5Q331.7 201.3 332.2 201.3L332.2 201.3Q332.9 201.3 333.3 201.8L333.3 201.8Q333.6 202.2 333.8 202.8L333.8 202.8Q334.0 202.4 334.2 202.1L334.2 202.1Q334.5 201.7 335.0 201.5Q335.4 201.3 335.9 201.3L335.9 201.3Q336.5 201.3 337.0 201.6Q337.5 201.9 337.8 202.4Q338.0 202.9 338.0 203.6L338.0 203.6L338.0 208L336.3 208L336.3 203.9Q336.3 203.4 336.0 203.1Q335.7 202.8 335.2 202.8L335.2 202.8Q334.9 202.8 334.7 203.0Q334.4 203.1 334.3 203.4Q334.2 203.6 334.2 204.0L334.2 204.0L334.2 208L332.5 208L332.5 203.9Q332.5 203.4 332.2 203.1Q331.9 202.8 331.4 202.8L331.4 202.8Q331.1 202.8 330.9 203.0Q330.6 203.1 330.5 203.4Q330.3 203.6 330.3 204.0L330.3 204.0L330.3 208ZM342.4 208.1L342.4 208.1Q341.7 208.1 341.2 207.9Q340.8 207.7 340.5 207.3Q340.2 206.8 340.2 206.2L340.2 206.2Q340.2 205.6 340.4 205.3Q340.6 204.9 340.9 204.7Q341.3 204.4 341.7 204.3Q342.2 204.2 342.7 204.2L342.7 204.2Q343.2 204.1 343.6 204.0Q343.9 204.0 344.1 203.9Q344.2 203.8 344.2 203.6L344.2 203.6L344.2 203.5Q344.2 203.3 344.1 203.1Q344.0 202.9 343.8 202.8Q343.5 202.7 343.2 202.7L343.2 202.7Q342.9 202.7 342.6 202.8Q342.4 202.9 342.2 203.0Q342.1 203.2 342.0 203.4L342.0 203.4L340.4 203.2Q340.5 202.6 340.9 202.2Q341.3 201.8 341.9 201.6Q342.5 201.4 343.2 201.4L343.2 201.4Q343.8 201.4 344.2 201.5Q344.7 201.6 345.1 201.9Q345.5 202.1 345.8 202.6Q346 203.0 346 203.6L346 203.6L346 208L344.3 208L344.3 207.1L344.3 207.1Q344.1 207.4 343.9 207.6Q343.6 207.9 343.2 208.0Q342.8 208.1 342.4 208.1ZM342.9 206.9L342.9 206.9Q343.3 206.9 343.6 206.7Q343.9 206.6 344.1 206.3Q344.3 206.0 344.3 205.7L344.3 205.7L344.3 204.9Q344.2 205.0 344.0 205.1Q343.9 205.1 343.7 205.1Q343.5 205.2 343.3 205.2Q343.1 205.2 343.0 205.2L343.0 205.2Q342.6 205.3 342.4 205.4Q342.1 205.5 342.0 205.7Q341.9 205.8 341.9 206.1L341.9 206.1Q341.9 206.4 342.0 206.5Q342.1 206.7 342.3 206.8Q342.6 206.9 342.9 206.9ZM350.3 204.2L350.3 204.2L350.3 208L348.5 208L348.5 201.4L350.2 201.4L350.2 202.8Q350.4 202.2 350.9 201.8L350.9 201.8Q351.4 201.4 352.2 201.4L352.2 201.4Q352.9 201.4 353.4 201.7Q353.9 202.0 354.2 202.5Q354.5 203.1 354.5 203.8L354.5 203.8L354.5 208L352.7 208L352.7 204.1Q352.7 203.5 352.4 203.2Q352.1 202.8 351.5 202.8L351.5 202.8Q351.2 202.8 350.9 203.0Q350.6 203.2 350.4 203.5Q350.3 203.8 350.3 204.2ZM359.9 208.1L359.9 208.1Q358.9 208.1 358.2 207.7Q357.5 207.3 357.1 206.5Q356.7 205.8 356.7 204.8L356.7 204.8Q356.7 203.7 357.1 203.0Q357.5 202.2 358.2 201.8Q358.9 201.4 359.9 201.4L359.9 201.4Q360.5 201.4 361.0 201.5Q361.5 201.7 361.8 202.0Q362.2 202.2 362.5 202.6Q362.7 203.0 362.8 203.5L362.8 203.5L361.2 203.9Q361.1 203.6 361.0 203.4Q360.9 203.2 360.7 203.0Q360.6 202.9 360.4 202.8Q360.2 202.8 359.9 202.8L359.9 202.8Q359.4 202.8 359.1 203.0Q358.8 203.3 358.6 203.7Q358.5 204.2 358.5 204.7L358.5 204.7Q358.5 205.3 358.6 205.8Q358.8 206.2 359.1 206.5Q359.4 206.7 359.9 206.7L359.9 206.7Q360.2 206.7 360.4 206.7Q360.6 206.6 360.8 206.4Q360.9 206.3 361.0 206.1Q361.1 205.9 361.2 205.6L361.2 205.6L362.8 205.9Q362.7 206.4 362.5 206.8Q362.2 207.2 361.9 207.5Q361.5 207.8 361.0 208.0Q360.5 208.1 359.9 208.1ZM368.0 208.1L368.0 208.1Q367.0 208.1 366.3 207.7Q365.5 207.3 365.1 206.6Q364.8 205.8 364.8 204.8L364.8 204.8Q364.8 203.7 365.1 203.0Q365.5 202.2 366.2 201.8Q366.9 201.4 367.9 201.4L367.9 201.4Q368.5 201.4 369.1 201.6Q369.7 201.8 370.1 202.2Q370.5 202.6 370.7 203.2Q371.0 203.8 371.0 204.7L371.0 204.7L371.0 205.2L366.5 205.2Q366.5 205.7 366.7 206.0L366.7 206.0Q366.9 206.4 367.2 206.6Q367.6 206.8 368.0 206.8L368.0 206.8Q368.3 206.8 368.6 206.7Q368.8 206.6 369.0 206.5Q369.2 206.3 369.3 206.0L369.3 206.0L370.9 206.3Q370.7 206.9 370.3 207.3Q369.9 207.7 369.3 207.9Q368.8 208.1 368.0 208.1ZM366.5 204.1L366.5 204.1L369.3 204.1Q369.3 203.8 369.1 203.5L369.1 203.5Q369.0 203.1 368.7 202.9Q368.4 202.7 367.9 202.7L367.9 202.7Q367.5 202.7 367.1 202.9Q366.8 203.1 366.7 203.5L366.7 203.5Q366.5 203.7 366.5 204.1Z "/></g><defs><clipPath id="satori_bc-id-2-2" clip-path="url(#satori_cp-id)"><path x="398" y="190" width="97" height="27" d="M411.5,190 h70 a13.5,13.5 0 0 1 13.5,13.5 v0 a13.5,13.5 0 0 1 -13.5,13.5 h-70 a13.5,13.5 0 0 1 -13.5,-13.5 v0 a13.5,13.5 0 0 1 13.5,-13.5"/></clipPath></defs><mask id="satori_om-id-2-2"><rect x="399" y="191" width="95" height="25" fill="#fff" mask="url(#satori_om-id)"/><path width="97" height="27" fill="none" stroke="#000" stroke-width="2" d="M401.954,193.954 A13.5,13.5 0 0 1 411.5,190 h70 a13.5,13.5 0 0 1 13.5,13.5 v0 a13.5,13.5 0 0 1 -13.5,13.5 h-70 a13.5,13.5 0 0 1 -13.5,-13.5 v0 A13.5,13.5 0 0 1 401.954,193.954"/></mask><path x="398" y="190" width="97" height="27" fill="rgba(8,6,14,0.7)" d="M411.5,190 h70 a13.5,13.5 0 0 1 13.5,13.5 v0 a13.5,13.5 0 0 1 -13.5,13.5 h-70 a13.5,13.5 0 0 1 -13.5,-13.5 v0 a13.5,13.5 0 0 1 13.5,-13.5" clip-path="url(#satori_cp-id)" mask="url(#satori_om-id)"/><path width="97" height="27" clip-path="url(#satori_bc-id-2-2)" fill="none" stroke="rgba(255,100,180,0.2)" stroke-width="2" d="M401.954,193.954 A13.5,13.5 0 0 1 411.5,190 h70 a13.5,13.5 0 0 1 13.5,13.5 v0 a13.5,13.5 0 0 1 -13.5,13.5 h-70 a13.5,13.5 0 0 1 -13.5,-13.5 v0 A13.5,13.5 0 0 1 401.954,193.954"/><g mask="url(#satori_om-id)" clip-path="url(#satori_cp-id)"><path fill="#ff88cc" d="M417.1 208L415.2 208L417.4 204.6L415.4 201.4L417.3 201.4L417.9 202.5Q418.1 203.0 418.4 203.5L418.4 203.5Q418.4 203.6 418.5 203.8L418.5 203.8Q418.6 203.6 418.6 203.5L418.6 203.5Q418.8 203.0 419.1 202.5L419.1 202.5L419.8 201.4L421.6 201.4L419.6 204.7L421.7 208L419.8 208L419.1 206.8Q418.8 206.3 418.6 205.8L418.6 205.8Q418.5 205.6 418.5 205.5L418.5 205.5Q418.4 205.6 418.3 205.8L418.3 205.8Q418.1 206.3 417.8 206.8L417.8 206.8L417.1 208ZM426.9 208.1L426.9 208.1Q425.9 208.1 425.1 207.8Q424.4 207.5 423.9 206.9Q423.5 206.4 423.5 205.7L423.5 205.7Q423.5 205.1 423.8 204.7Q424.0 204.2 424.4 203.9Q424.9 203.6 425.4 203.5L425.4 203.5L425.4 203.4Q424.7 203.3 424.3 202.8Q423.8 202.2 423.8 201.5L423.8 201.5Q423.8 200.8 424.2 200.3Q424.6 199.8 425.3 199.5Q426.0 199.2 426.9 199.2L426.9 199.2Q427.7 199.2 428.4 199.5Q429.1 199.8 429.5 200.3Q429.9 200.8 429.9 201.5L429.9 201.5Q429.9 202.2 429.5 202.8Q429.0 203.3 428.3 203.4L428.3 203.4L428.3 203.5Q428.9 203.6 429.3 203.9Q429.7 204.2 430.0 204.7Q430.2 205.1 430.2 205.7L430.2 205.7Q430.2 206.4 429.8 206.9Q429.4 207.5 428.6 207.8Q427.8 208.1 426.9 208.1ZM426.9 206.8L426.9 206.8Q427.3 206.8 427.6 206.6Q428.0 206.5 428.2 206.2Q428.4 205.9 428.4 205.5L428.4 205.5Q428.4 205.1 428.2 204.8Q428.0 204.5 427.6 204.4Q427.3 204.2 426.9 204.2L426.9 204.2Q426.4 204.2 426.1 204.4Q425.8 204.5 425.6 204.8Q425.4 205.1 425.4 205.5L425.4 205.5Q425.4 205.9 425.6 206.2Q425.7 206.5 426.1 206.6Q426.4 206.8 426.9 206.8ZM426.9 202.9L426.9 202.9Q427.2 202.9 427.5 202.7Q427.8 202.6 428.0 202.3Q428.2 202.0 428.2 201.7L428.2 201.7Q428.2 201.3 428.0 201.1Q427.8 200.8 427.5 200.7Q427.2 200.5 426.9 200.5L426.9 200.5Q426.5 200.5 426.2 200.7Q425.9 200.8 425.7 201.1Q425.6 201.3 425.6 201.7L425.6 201.7Q425.6 202.0 425.7 202.3Q425.9 202.6 426.2 202.7Q426.5 202.9 426.9 202.9ZM435.8 208.1L435.8 208.1Q435.1 208.1 434.5 207.9Q433.9 207.7 433.4 207.2Q432.9 206.7 432.6 205.9Q432.3 205.0 432.3 203.8L432.3 203.8Q432.3 202.7 432.6 201.9Q432.8 201.0 433.3 200.4Q433.7 199.8 434.4 199.5Q435.0 199.2 435.8 199.2L435.8 199.2Q436.7 199.2 437.4 199.5Q438.0 199.8 438.4 200.4Q438.8 201.0 438.9 201.7L438.9 201.7L437.2 201.7Q437.1 201.2 436.7 201.0Q436.4 200.7 435.8 200.7L435.8 200.7Q435.3 200.7 434.9 201.0Q434.5 201.4 434.3 202.0Q434.1 202.6 434.1 203.5L434.1 203.5L434.1 203.5Q434.3 203.1 434.7 202.8Q435 202.6 435.4 202.4Q435.9 202.3 436.3 202.3L436.3 202.3Q437.1 202.3 437.7 202.6Q438.3 203.0 438.7 203.6Q439.0 204.3 439.0 205.1L439.0 205.1Q439.0 206.0 438.6 206.7Q438.2 207.3 437.5 207.7Q436.7 208.1 435.8 208.1ZM435.8 206.7L435.8 206.7Q436.2 206.7 436.5 206.5Q436.9 206.3 437.1 205.9Q437.3 205.6 437.3 205.1L437.3 205.1Q437.3 204.7 437.1 204.3Q436.9 204.0 436.6 203.8Q436.2 203.6 435.8 203.6L435.8 203.6Q435.5 203.6 435.2 203.7Q434.9 203.8 434.7 204.0Q434.5 204.3 434.4 204.5Q434.3 204.8 434.3 205.1L434.3 205.1Q434.3 205.6 434.5 205.9Q434.6 206.3 435.0 206.5Q435.3 206.7 435.8 206.7ZM443.5 198.9L445.1 198.9L442.3 209.3L440.7 209.3L443.5 198.9ZM448.5 208L446.5 208L449.5 199.3L451.8 199.3L454.9 208L452.9 208L452.2 206.0L449.1 206.0L448.5 208ZM449.6 204.6L451.8 204.6L451.5 203.8Q451.3 203.0 451.0 202L451.0 202Q450.8 201.4 450.6 200.7L450.6 200.7Q450.5 201.4 450.3 202.0L450.3 202.0Q450.1 203.0 449.8 203.8L449.8 203.8L449.6 204.6ZM458.8 208L457.0 208L457.0 199.3L460.4 199.3Q461.4 199.3 462.1 199.6Q462.8 200.0 463.1 200.6Q463.5 201.3 463.5 202.1Q463.5 203.0 463.1 203.6Q462.8 204.2 462.1 204.5L462.1 204.5Q462 204.6 462.0 204.6L462.0 204.6L463.8 208L461.8 208L460.2 204.9L458.8 204.9L458.8 208ZM458.8 200.7L458.8 203.4L460.0 203.4Q460.6 203.4 461.0 203.3Q461.3 203.1 461.5 202.8Q461.7 202.5 461.7 202.1L461.7 202.1Q461.7 201.7 461.5 201.4Q461.3 201.1 460.9 200.9Q460.6 200.7 460.0 200.7L460.0 200.7L458.8 200.7ZM467.6 208L465.9 208L465.9 199.3L468.6 199.3L470.0 203.3Q470.1 203.6 470.2 204.0Q470.3 204.4 470.4 205.0L470.4 205.0Q470.6 205.5 470.7 205.9L470.7 205.9Q470.8 205.5 470.9 205.0L470.9 205.0Q471.0 204.5 471.1 204.0Q471.2 203.6 471.3 203.3L471.3 203.3L472.7 199.3L475.5 199.3L475.5 208L473.7 208L473.7 203.9Q473.7 203.6 473.7 203.2Q473.7 202.7 473.7 202.2Q473.7 201.8 473.7 201.3L473.7 201.3Q473.7 201.0 473.7 200.8L473.7 200.8Q473.7 201.1 473.6 201.3L473.6 201.3Q473.5 201.8 473.3 202.3Q473.2 202.8 473.1 203.2Q472.9 203.6 472.9 203.9L472.9 203.9L471.4 208L469.9 208L468.4 203.9Q468.3 203.6 468.2 203.2Q468.1 202.8 468.0 202.3Q467.8 201.8 467.7 201.3L467.7 201.3Q467.6 201.1 467.6 200.9L467.6 200.9Q467.6 201.0 467.6 201.2L467.6 201.2Q467.6 201.7 467.6 202.2Q467.6 202.7 467.6 203.2Q467.6 203.6 467.6 203.9L467.6 203.9L467.6 208Z "/></g><defs><clipPath id="satori_bc-id-2-3" clip-path="url(#satori_cp-id)"><path x="503" y="190" width="119" height="27" d="M516.5,190 h92 a13.5,13.5 0 0 1 13.5,13.5 v0 a13.5,13.5 0 0 1 -13.5,13.5 h-92 a13.5,13.5 0 0 1 -13.5,-13.5 v0 a13.5,13.5 0 0 1 13.5,-13.5"/></clipPath></defs><mask id="satori_om-id-2-3"><rect x="504" y="191" width="117" height="25" fill="#fff" mask="url(#satori_om-id)"/><path width="119" height="27" fill="none" stroke="#000" stroke-width="2" d="M506.954,193.954 A13.5,13.5 0 0 1 516.5,190 h92 a13.5,13.5 0 0 1 13.5,13.5 v0 a13.5,13.5 0 0 1 -13.5,13.5 h-92 a13.5,13.5 0 0 1 -13.5,-13.5 v0 A13.5,13.5 0 0 1 506.954,193.954"/></mask><path x="503" y="190" width="119" height="27" fill="rgba(8,6,14,0.7)" d="M516.5,190 h92 a13.5,13.5 0 0 1 13.5,13.5 v0 a13.5,13.5 0 0 1 -13.5,13.5 h-92 a13.5,13.5 0 0 1 -13.5,-13.5 v0 a13.5,13.5 0 0 1 13.5,-13.5" clip-path="url(#satori_cp-id)" mask="url(#satori_om-id)"/><path width="119" height="27" clip-path="url(#satori_bc-id-2-3)" fill="none" stroke="rgba(120,220,120,0.2)" stroke-width="2" d="M506.954,193.954 A13.5,13.5 0 0 1 516.5,190 h92 a13.5,13.5 0 0 1 13.5,13.5 v0 a13.5,13.5 0 0 1 -13.5,13.5 h-92 a13.5,13.5 0 0 1 -13.5,-13.5 v0 A13.5,13.5 0 0 1 506.954,193.954"/><g mask="url(#satori_om-id)" clip-path="url(#satori_cp-id)"><path fill="#9ee79e" d="M523.7 208.1L523.7 208.1Q522.7 208.1 522.0 207.7Q521.3 207.3 520.9 206.5Q520.5 205.8 520.5 204.8L520.5 204.8Q520.5 203.7 520.9 203.0Q521.3 202.2 522.0 201.8Q522.7 201.4 523.7 201.4L523.7 201.4Q524.7 201.4 525.4 201.8Q526.1 202.2 526.5 203.0Q526.9 203.7 526.9 204.8L526.9 204.8Q526.9 205.8 526.5 206.5Q526.1 207.3 525.4 207.7Q524.7 208.1 523.7 208.1ZM523.7 206.7L523.7 206.7Q524.1 206.7 524.5 206.5Q524.8 206.2 524.9 205.8Q525.1 205.3 525.1 204.7L525.1 204.7Q525.1 204.2 524.9 203.7Q524.8 203.3 524.5 203.0Q524.1 202.8 523.7 202.8L523.7 202.8Q523.2 202.8 522.9 203.0Q522.6 203.3 522.4 203.7Q522.3 204.2 522.3 204.7L522.3 204.7Q522.3 205.3 522.4 205.8Q522.6 206.2 522.9 206.5Q523.2 206.7 523.7 206.7ZM530.9 210.4L529.1 210.4L529.1 201.4L530.8 201.4L530.8 202.6L530.9 202.6Q531.0 202.3 531.3 202.0Q531.5 201.7 531.9 201.6Q532.2 201.4 532.8 201.4L532.8 201.4Q533.5 201.4 534.1 201.7Q534.7 202.1 535.1 202.9Q535.4 203.6 535.4 204.7L535.4 204.7Q535.4 205.8 535.1 206.6Q534.7 207.3 534.1 207.7Q533.5 208.1 532.8 208.1L532.8 208.1Q532.2 208.1 531.9 207.9Q531.5 207.7 531.3 207.5Q531.0 207.2 530.9 207.0L530.9 207.0L530.9 207.0L530.9 210.4ZM532.2 206.7L532.2 206.7Q532.7 206.7 533.0 206.4Q533.3 206.2 533.5 205.8Q533.6 205.3 533.6 204.7L533.6 204.7Q533.6 204.2 533.5 203.7Q533.3 203.3 533.0 203.0Q532.7 202.8 532.2 202.8L532.2 202.8Q531.8 202.8 531.5 203.0Q531.2 203.3 531.0 203.7Q530.8 204.1 530.8 204.7L530.8 204.7Q530.8 205.3 531.0 205.8Q531.2 206.2 531.5 206.5Q531.8 206.7 532.2 206.7ZM540.6 208.1L540.6 208.1Q539.6 208.1 538.9 207.7Q538.2 207.3 537.8 206.6Q537.4 205.8 537.4 204.8L537.4 204.8Q537.4 203.7 537.8 203.0Q538.2 202.2 538.9 201.8Q539.6 201.4 540.5 201.4L540.5 201.4Q541.2 201.4 541.7 201.6Q542.3 201.8 542.7 202.2Q543.1 202.6 543.4 203.2Q543.6 203.8 543.6 204.7L543.6 204.7L543.6 205.2L539.1 205.2Q539.2 205.7 539.3 206.0L539.3 206.0Q539.5 206.4 539.9 206.6Q540.2 206.8 540.7 206.8L540.7 206.8Q541.0 206.8 541.2 206.7Q541.5 206.6 541.7 206.5Q541.8 206.3 541.9 206.0L541.9 206.0L543.5 206.3Q543.4 206.9 543.0 207.3Q542.6 207.7 542.0 207.9Q541.4 208.1 540.6 208.1ZM539.2 204.1L539.2 204.1L541.9 204.1Q541.9 203.8 541.8 203.5L541.8 203.5Q541.6 203.1 541.3 202.9Q541.0 202.7 540.6 202.7L540.6 202.7Q540.1 202.7 539.8 202.9Q539.5 203.1 539.3 203.5L539.3 203.5Q539.2 203.7 539.2 204.1ZM547.6 204.2L547.6 204.2L547.6 208L545.8 208L545.8 201.4L547.5 201.4L547.5 202.8Q547.8 202.2 548.2 201.8L548.2 201.8Q548.7 201.4 549.5 201.4L549.5 201.4Q550.2 201.4 550.7 201.7Q551.2 202.0 551.5 202.5Q551.8 203.1 551.8 203.8L551.8 203.8L551.8 208L550.0 208L550.0 204.1Q550.0 203.5 549.7 203.2Q549.4 202.8 548.9 202.8L548.9 202.8Q548.5 202.8 548.2 203.0Q547.9 203.2 547.7 203.5Q547.6 203.8 547.6 204.2Z M560.7 208.1L560.7 208.1Q559.9 208.1 559.3 207.9Q558.7 207.7 558.3 207.2Q558.0 206.8 557.8 206.2L557.8 206.2L559.5 205.9Q559.6 206.4 559.9 206.6Q560.3 206.8 560.8 206.8L560.8 206.8Q561.3 206.8 561.6 206.6Q561.9 206.5 561.9 206.2L561.9 206.2Q561.9 205.9 561.7 205.7Q561.5 205.6 561.0 205.5L561.0 205.5L559.9 205.3Q558.9 205.1 558.5 204.6Q558.0 204.1 558.0 203.4L558.0 203.4Q558.0 202.8 558.4 202.3Q558.7 201.9 559.3 201.6Q559.9 201.4 560.8 201.4L560.8 201.4Q561.5 201.4 562.1 201.6Q562.7 201.8 563.0 202.2Q563.4 202.6 563.5 203.1L563.5 203.1L561.9 203.4Q561.8 203.1 561.6 202.8Q561.3 202.6 560.8 202.6L560.8 202.6Q560.4 202.6 560.1 202.8Q559.8 203.0 559.8 203.3L559.8 203.3Q559.8 203.5 560.0 203.7Q560.2 203.9 560.6 204.0L560.6 204.0L561.8 204.2Q562.7 204.4 563.2 204.8Q563.7 205.3 563.7 206.0L563.7 206.0Q563.7 206.6 563.3 207.1Q562.9 207.6 562.3 207.9Q561.6 208.1 560.7 208.1ZM568.8 208.1L568.8 208.1Q567.8 208.1 567.1 207.7Q566.4 207.3 566.0 206.5Q565.6 205.8 565.6 204.8L565.6 204.8Q565.6 203.7 566.0 203.0Q566.4 202.2 567.1 201.8Q567.8 201.4 568.8 201.4L568.8 201.4Q569.8 201.4 570.5 201.8Q571.2 202.2 571.6 203.0Q572.0 203.7 572.0 204.8L572.0 204.8Q572.0 205.8 571.6 206.5Q571.2 207.3 570.5 207.7Q569.8 208.1 568.8 208.1ZM568.8 206.7L568.8 206.7Q569.3 206.7 569.6 206.5Q569.9 206.2 570.0 205.8Q570.2 205.3 570.2 204.7L570.2 204.7Q570.2 204.2 570.0 203.7Q569.9 203.3 569.6 203.0Q569.3 202.8 568.8 202.8L568.8 202.8Q568.3 202.8 568.0 203.0Q567.7 203.3 567.5 203.7Q567.4 204.2 567.4 204.7L567.4 204.7Q567.4 205.3 567.5 205.8Q567.7 206.2 568.0 206.5Q568.3 206.7 568.8 206.7ZM576.5 208.1L576.5 208.1Q575.8 208.1 575.3 207.8Q574.8 207.5 574.5 206.9Q574.2 206.4 574.2 205.6L574.2 205.6L574.2 201.4L576.0 201.4L576.0 205.3Q576.0 205.9 576.3 206.3Q576.6 206.6 577.2 206.6L577.2 206.6Q577.5 206.6 577.8 206.5Q578.1 206.3 578.3 206.0Q578.4 205.7 578.4 205.2L578.4 205.2L578.4 201.4L580.2 201.4L580.2 208L578.5 208L578.5 206.6Q578.3 207.3 577.8 207.6L577.8 207.6Q577.3 208.1 576.5 208.1ZM584.4 208L582.7 208L582.7 201.4L584.4 201.4L584.4 202.6L584.5 202.6Q584.6 202.0 585.1 201.7Q585.5 201.4 586.0 201.4L586.0 201.4Q586.2 201.4 586.3 201.4Q586.5 201.4 586.6 201.4L586.6 201.4L586.6 203.0Q586.5 202.9 586.3 202.9Q586.0 202.9 585.8 202.9L585.8 202.9Q585.4 202.9 585.1 203.1Q584.8 203.2 584.6 203.6Q584.4 203.9 584.4 204.3L584.4 204.3L584.4 208ZM591.5 208.1L591.5 208.1Q590.5 208.1 589.8 207.7Q589.1 207.3 588.7 206.5Q588.3 205.8 588.3 204.8L588.3 204.8Q588.3 203.7 588.7 203.0Q589.1 202.2 589.8 201.8Q590.5 201.4 591.5 201.4L591.5 201.4Q592.1 201.4 592.6 201.5Q593.1 201.7 593.4 202.0Q593.8 202.2 594.1 202.6Q594.3 203.0 594.4 203.5L594.4 203.5L592.8 203.9Q592.7 203.6 592.6 203.4Q592.5 203.2 592.3 203.0Q592.2 202.9 592.0 202.8Q591.8 202.8 591.5 202.8L591.5 202.8Q591.1 202.8 590.7 203.0Q590.4 203.3 590.3 203.7Q590.1 204.2 590.1 204.7L590.1 204.7Q590.1 205.3 590.3 205.8Q590.4 206.2 590.7 206.5Q591.1 206.7 591.5 206.7L591.5 206.7Q591.8 206.7 592.0 206.7Q592.2 206.6 592.4 206.4Q592.5 206.3 592.6 206.1Q592.7 205.9 592.8 205.6L592.8 205.6L594.4 205.9Q594.3 206.4 594.1 206.8Q593.8 207.2 593.5 207.5Q593.1 207.8 592.6 208.0Q592.1 208.1 591.5 208.1ZM599.6 208.1L599.6 208.1Q598.6 208.1 597.9 207.7Q597.1 207.3 596.7 206.6Q596.4 205.8 596.4 204.8L596.4 204.8Q596.4 203.7 596.7 203.0Q597.1 202.2 597.8 201.8Q598.5 201.4 599.5 201.4L599.5 201.4Q600.1 201.4 600.7 201.6Q601.3 201.8 601.7 202.2Q602.1 202.6 602.3 203.2Q602.6 203.8 602.6 204.7L602.6 204.7L602.6 205.2L598.1 205.2Q598.1 205.7 598.3 206.0L598.3 206.0Q598.5 206.4 598.8 206.6Q599.2 206.8 599.6 206.8L599.6 206.8Q599.9 206.8 600.2 206.7Q600.4 206.6 600.6 206.5Q600.8 206.3 600.9 206.0L600.9 206.0L602.5 206.3Q602.3 206.9 601.9 207.3Q601.5 207.7 600.9 207.9Q600.4 208.1 599.6 208.1ZM598.1 204.1L598.1 204.1L600.9 204.1Q600.9 203.8 600.7 203.5L600.7 203.5Q600.6 203.1 600.3 202.9Q600.0 202.7 599.5 202.7L599.5 202.7Q599.1 202.7 598.7 202.9Q598.4 203.1 598.3 203.5L598.3 203.5Q598.1 203.7 598.1 204.1Z "/></g></svg>