<!-- Generated by readme-aura https://github.com/collectioneur/readme-aura -->
<svg width="800" height="180" viewBox="0 0 800 180" xmlns="http://www.w3.org/2000/svg"><defs><clipPath id="satori_bc-id"><path x="0" y="0" width="800" height="180" d="M16,0 h768 a16,16 0 0 1 16,16 v148 a16,16 0 0 1 -16,16 h-768 a16,16 0 0 1 -16,-16 v-148 a16,16 0 0 1 16,-16"/></clipPath></defs><clipPath id="satori_cp-id"><path x="0" y="0" width="800" height="180" d="M16,0 h768 a16,16 0 0 1 16,16 v148 a16,16 0 0 1 -16,16 h-768 a16,16 0 0 1 -16,-16 v-148 a16,16 0 0 1 16,-16"/></clipPath><mask id="satori_om-id"><rect x="1" y="1" width="798" height="178" fill="#fff"/><path width="800" height="180" fill="none" stroke="#000" stroke-width="2" d="M4.686,4.686 A16,16 0 0 1 16,0 h768 a16,16 0 0 1 16,16 v148 a16,16 0 0 1 -16,16 h-768 a16,16 0 0 1 -16,-16 v-148 A16,16 0 0 1 4.686,4.686"/></mask><path x="0" y="0" width="800" height="180" fill="#06060a" d="M16,0 h768 a16,16 0 0 1 16,16 v148 a16,16 0 0 1 -16,16 h-768 a16,16 0 0 1 -16,-16 v-148 a16,16 0 0 1 16,-16"/><path width="800" height="180" clip-path="url(#satori_bc-id)" fill="none" stroke="rgba(110,80,220,0.15)" stroke-width="2" d="M4.686,4.686 A16,16 0 0 1 16,0 h768 a16,16 0 0 1 16,16 v148 a16,16 0 0 1 -16,16 h-768 a16,16 0 0 1 -16,-16 v-148 A16,16 0 0 1 4.686,4.686"/><clipPath id="satori_cp-id-0" clip-path="url(#satori_cp-id)"><rect x="1" y="1" width="800" height="180"/></clipPath><mask id="satori_om-id-0"><rect x="1" y="1" width="800" height="180" fill="#fff" mask="url(#satori_om-id)"/></mask><svg x="1" y="1" width="800" height="180" preserveAspectRatio="none" clip-path="url(#satori_cp-id-0)" mask="url(#satori_om-id-0)"><defs><radialGradient id="lng1" cx="50%" cy="50%" r="50%"><stop offset="0%" stop-color="rgba(80,40,200,0.4)"></stop><stop offset="100%" stop-color="rgba(80,40,200,0)"></stop></radialGradient><radialGradient id="lng2" cx="50%" cy="50%" r="50%"><stop offset="0%" stop-color="rgba(0,160,220,0.35)"></stop><stop offset="100%" stop-color="rgba(0,160,220,0)"></stop></radialGradient></defs><ellipse id="lang-g1" cx="650" cy="90" rx="180" ry="100" fill="url(#lng1)"></ellipse><ellipse id="lang-g2" cx="150" cy="100" rx="160" ry="90" fill="url(#lng2)"></ellipse><style>

      @keyframes lang-drift-r { 0%, 100% { transform: translate(0, 0); opacity: 0.6; } 50% { transform: translate(30px, -15px); opacity: 1; } }
      @keyframes lang-drift-l { 0%, 100% { transform: translate(0, 0); opacity: 0.55; } 50% { transform: translate(-25px, 12px); opacity: 0.9; } }
      #lang-g1 { animation: lang-drift-r 8s ease-in-out infinite; }
      #lang-g2 { animation: lang-drift-l 7s ease-in-out infinite 0.3s; }
    
</style>
</svg><mask id="satori_om-id-0-0"><rect x="1" y="1" width="0" height="180" fill="#fff" mask="url(#satori_om-id)"/></mask><mask id="satori_om-id-0-0-0"><rect x="1" y="1" width="0" height="180" fill="#fff" mask="url(#satori_om-id)"/></mask><mask id="satori_om-id-0-0-0-0"><rect x="1" y="1" width="0" height="180" fill="#fff" mask="url(#satori_om-id)"/></mask><mask id="satori_om-id-0-0-0-1"><rect x="1" y="1" width="0" height="180" fill="#fff" mask="url(#satori_om-id)"/></mask><mask id="satori_om-id-0-0-1"><rect x="1" y="1" width="0" height="180" fill="#fff" mask="url(#satori_om-id)"/></mask><mask id="satori_om-id-0-0-1-0"><rect x="1" y="1" width="0" height="180" fill="#fff" mask="url(#satori_om-id)"/></mask><mask id="satori_om-id-0-0-1-1"><rect x="1" y="1" width="0" height="180" fill="#fff" mask="url(#satori_om-id)"/></mask><mask id="satori_om-id-0-1"><rect x="1" y="1" width="0" height="180" fill="#fff" mask="url(#satori_om-id)"/></mask><mask id="satori_om-id-0-2"><rect x="1" y="1" width="0" height="180" fill="#fff" mask="url(#satori_om-id)"/></mask><mask id="satori_om-id-1"><rect x="25" y="25" width="750" height="12" fill="#fff" mask="url(#satori_om-id)"/></mask><g mask="url(#satori_om-id)" clip-path="url(#satori_cp-id)"><path fill="rgba(120,200,255,0.7)" d="M27.1 35L25.7 35L25.7 27.7L27.9 27.7L29.1 31.1Q29.2 31.3 29.3 31.7Q29.4 32.0 29.5 32.5L29.5 32.5Q29.6 32.9 29.7 33.3L29.7 33.3Q29.8 32.9 29.8 32.5L29.8 32.5Q29.9 32.1 30.0 31.7Q30.1 31.3 30.2 31.1L30.2 31.1L31.4 27.7L33.7 27.7L33.7 35L32.2 35L32.2 31.6Q32.2 31.3 32.2 31.0Q32.2 30.6 32.2 30.2Q32.2 29.8 32.2 29.4L32.2 29.4Q32.2 29.2 32.2 29.0L32.2 29.0Q32.2 29.2 32.1 29.4L32.1 29.4Q32.0 29.9 31.9 30.3Q31.8 30.7 31.7 31.0Q31.6 31.3 31.5 31.6L31.5 31.6L30.3 35L29.0 35L27.8 31.6Q27.7 31.3 27.6 31.0Q27.5 30.7 27.4 30.3Q27.3 29.9 27.2 29.4L27.2 29.4Q27.1 29.2 27.1 29.1L27.1 29.1Q27.1 29.2 27.1 29.4L27.1 29.4Q27.1 29.8 27.1 30.2Q27.1 30.6 27.1 31.0Q27.1 31.3 27.1 31.6L27.1 31.6L27.1 35ZM41.2 35.1L41.2 35.1Q40.2 35.1 39.4 34.7Q38.7 34.2 38.2 33.4Q37.8 32.5 37.8 31.4L37.8 31.4Q37.8 30.2 38.2 29.3Q38.7 28.5 39.4 28.1Q40.2 27.6 41.2 27.6L41.2 27.6Q42.1 27.6 42.9 28.1Q43.7 28.5 44.1 29.3Q44.6 30.2 44.6 31.4L44.6 31.4Q44.6 32.5 44.1 33.4Q43.7 34.2 42.9 34.7Q42.1 35.1 41.2 35.1ZM41.2 33.8L41.2 33.8Q41.7 33.8 42.2 33.5Q42.6 33.2 42.8 32.7Q43.0 32.1 43.0 31.4L43.0 31.4Q43.0 30.6 42.8 30.0Q42.6 29.5 42.2 29.2Q41.7 29.0 41.2 29.0L41.2 29.0Q40.6 29.0 40.2 29.2Q39.8 29.5 39.5 30.0Q39.3 30.6 39.3 31.4L39.3 31.4Q39.3 32.1 39.5 32.7Q39.8 33.2 40.2 33.5Q40.6 33.8 41.2 33.8ZM51.3 35.1L51.3 35.1Q50.5 35.1 49.8 34.8Q49.2 34.6 48.8 34.0Q48.5 33.5 48.4 32.7L48.4 32.7L49.9 32.7Q49.9 33.1 50.1 33.4Q50.3 33.6 50.6 33.7Q50.9 33.8 51.3 33.8L51.3 33.8Q51.7 33.8 52.0 33.7Q52.3 33.6 52.5 33.4Q52.7 33.2 52.7 32.9L52.7 32.9Q52.7 32.7 52.5 32.5Q52.4 32.3 52.1 32.2Q51.8 32.1 51.4 32.0L51.4 32.0L50.6 31.8Q49.7 31.6 49.2 31.1Q48.6 30.6 48.6 29.8L48.6 29.8Q48.6 29.2 49.0 28.7Q49.3 28.2 50.0 27.9Q50.6 27.6 51.4 27.6L51.4 27.6Q52.2 27.6 52.8 27.9Q53.4 28.2 53.7 28.7Q54.0 29.2 54.1 29.8L54.1 29.8L52.6 29.8Q52.6 29.4 52.2 29.1Q51.9 28.9 51.4 28.9L51.4 28.9Q51.0 28.9 50.7 29.0Q50.4 29.1 50.3 29.3Q50.2 29.5 50.2 29.7L50.2 29.7Q50.2 30.0 50.3 30.2Q50.5 30.3 50.8 30.5Q51.0 30.6 51.3 30.6L51.3 30.6L52.0 30.8Q52.4 30.9 52.8 31.1Q53.2 31.3 53.5 31.5Q53.8 31.8 54.0 32.1Q54.2 32.5 54.2 32.9L54.2 32.9Q54.2 33.6 53.8 34.1Q53.5 34.6 52.9 34.8Q52.2 35.1 51.3 35.1ZM60.2 29.0L57.9 29.0L57.9 27.7L63.9 27.7L63.9 29.0L61.7 29.0L61.7 35L60.2 35L60.2 29.0Z M76.3 35.1L76.3 35.1Q75.4 35.1 74.7 34.8Q74.0 34.4 73.6 33.8Q73.3 33.2 73.3 32.4L73.3 32.4L73.3 27.7L74.8 27.7L74.8 32.3Q74.8 32.7 74.9 33.1Q75.1 33.4 75.5 33.6Q75.8 33.8 76.3 33.8L76.3 33.8Q76.7 33.8 77.1 33.6Q77.4 33.4 77.6 33.1Q77.8 32.7 77.8 32.3L77.8 32.3L77.8 27.7L79.3 27.7L79.3 32.4Q79.3 33.2 78.9 33.8Q78.5 34.4 77.8 34.8Q77.2 35.1 76.3 35.1ZM86.3 35.1L86.3 35.1Q85.4 35.1 84.7 34.8Q84.1 34.6 83.7 34.0Q83.4 33.5 83.3 32.7L83.3 32.7L84.8 32.7Q84.8 33.1 85.0 33.4Q85.2 33.6 85.5 33.7Q85.8 33.8 86.2 33.8L86.2 33.8Q86.6 33.8 86.9 33.7Q87.2 33.6 87.4 33.4Q87.6 33.2 87.6 32.9L87.6 32.9Q87.6 32.7 87.4 32.5Q87.3 32.3 87.0 32.2Q86.7 32.1 86.3 32.0L86.3 32.0L85.5 31.8Q84.6 31.6 84.1 31.1Q83.5 30.6 83.5 29.8L83.5 29.8Q83.5 29.2 83.9 28.7Q84.3 28.2 84.9 27.9Q85.5 27.6 86.3 27.6L86.3 27.6Q87.1 27.6 87.7 27.9Q88.3 28.2 88.6 28.7Q89.0 29.2 89.0 29.8L89.0 29.8L87.5 29.8Q87.5 29.4 87.2 29.1Q86.8 28.9 86.3 28.9L86.3 28.9Q85.9 28.9 85.6 29.0Q85.3 29.1 85.2 29.3Q85.1 29.5 85.1 29.7L85.1 29.7Q85.1 30.0 85.2 30.2Q85.4 30.3 85.7 30.5Q85.9 30.6 86.2 30.6L86.2 30.6L86.9 30.8Q87.4 30.9 87.7 31.1Q88.1 31.3 88.4 31.5Q88.7 31.8 88.9 32.1Q89.1 32.5 89.1 32.9L89.1 32.9Q89.1 33.6 88.7 34.1Q88.4 34.6 87.8 34.8Q87.1 35.1 86.3 35.1ZM98.0 35L93.1 35L93.1 27.7L98.0 27.7L98.0 29.0L94.6 29.0L94.6 30.7L97.8 30.7L97.8 31.9L94.6 31.9L94.6 33.8L98.0 33.8L98.0 35ZM104.8 35L104.8 35L102.2 35L102.2 27.7L104.8 27.7Q105.9 27.7 106.7 28.2Q107.5 28.6 107.9 29.4Q108.3 30.2 108.3 31.4L108.3 31.4Q108.3 32.5 107.9 33.3Q107.5 34.1 106.7 34.6Q105.9 35 104.8 35ZM103.7 29.0L103.7 33.7L104.7 33.7Q105.4 33.7 105.9 33.5Q106.4 33.2 106.6 32.7Q106.8 32.2 106.8 31.4L106.8 31.4Q106.8 30.5 106.6 30.0Q106.3 29.5 105.9 29.3Q105.4 29.0 104.7 29.0L104.7 29.0L103.7 29.0Z M122.4 35L117.8 35L117.8 27.7L119.3 27.7L119.3 33.8L122.4 33.8L122.4 35ZM127.7 35L126.0 35L128.5 27.7L130.5 27.7L133.0 35L131.4 35L130.8 33.3L128.2 33.3L127.7 35ZM128.6 32.1L130.4 32.1L130.2 31.5Q130.0 30.8 129.8 30L129.8 30Q129.6 29.5 129.5 28.9L129.5 28.9Q129.3 29.5 129.2 30.0L129.2 30.0Q129.0 30.8 128.8 31.5L128.8 31.5L128.6 32.1ZM138.4 35L136.9 35L136.9 27.7L138.6 27.7L140.9 31.4Q141.1 31.7 141.2 32.0Q141.4 32.4 141.6 32.8L141.6 32.8Q141.7 33.0 141.8 33.2L141.8 33.2Q141.8 33.0 141.8 32.8L141.8 32.8Q141.7 32.3 141.7 31.9Q141.7 31.5 141.7 31.2L141.7 31.2L141.7 27.7L143.2 27.7L143.2 35L141.6 35L139.5 31.7Q139.2 31.3 139.0 30.9Q138.9 30.6 138.6 30.1L138.6 30.1Q138.5 29.9 138.3 29.6L138.3 29.6Q138.4 29.9 138.4 30.1L138.4 30.1Q138.4 30.6 138.4 31.0Q138.4 31.4 138.4 31.7L138.4 31.7L138.4 35ZM150.8 35.1L150.8 35.1Q149.7 35.1 149.0 34.6Q148.2 34.2 147.8 33.4Q147.3 32.5 147.3 31.4L147.3 31.4Q147.3 30.2 147.8 29.4Q148.2 28.5 149.0 28.1Q149.8 27.6 150.7 27.6L150.7 27.6Q151.3 27.6 151.9 27.8Q152.4 28.0 152.8 28.3Q153.2 28.6 153.5 29.1Q153.8 29.5 153.8 30.1L153.8 30.1L152.3 30.1Q152.2 29.8 152.1 29.6Q152.0 29.4 151.8 29.2Q151.6 29.1 151.3 29.0Q151.1 29.0 150.8 29.0L150.8 29.0Q150.2 29.0 149.8 29.2Q149.3 29.5 149.1 30.0Q148.9 30.6 148.9 31.4Q148.9 32.1 149.1 32.7Q149.3 33.2 149.8 33.5Q150.2 33.8 150.8 33.8L150.8 33.8Q151.3 33.8 151.7 33.6Q152.1 33.4 152.3 33.0L152.3 33.0Q152.5 32.7 152.5 32.3L152.5 32.3L150.9 32.3L150.9 31.1L153.9 31.1L153.9 32.0Q153.9 33.0 153.5 33.7Q153.1 34.4 152.4 34.7Q151.7 35.1 150.8 35.1ZM161.0 35.1L161.0 35.1Q160.1 35.1 159.5 34.8Q158.8 34.4 158.4 33.8Q158.0 33.2 158.0 32.4L158.0 32.4L158.0 27.7L159.5 27.7L159.5 32.3Q159.5 32.7 159.7 33.1Q159.9 33.4 160.3 33.6Q160.6 33.8 161.0 33.8L161.0 33.8Q161.5 33.8 161.8 33.6Q162.2 33.4 162.4 33.1Q162.6 32.7 162.6 32.3L162.6 32.3L162.6 27.7L164.1 27.7L164.1 32.4Q164.1 33.2 163.7 33.8Q163.3 34.4 162.6 34.8Q162.0 35.1 161.0 35.1ZM169.6 35L167.9 35L170.4 27.7L172.4 27.7L174.9 35L173.3 35L172.7 33.3L170.1 33.3L169.6 35ZM170.5 32.1L172.3 32.1L172.1 31.5Q171.9 30.8 171.7 30L171.7 30Q171.5 29.5 171.4 28.9L171.4 28.9Q171.3 29.5 171.1 30.0L171.1 30.0Q170.9 30.8 170.7 31.5L170.7 31.5L170.5 32.1ZM182.1 35.1L182.1 35.1Q181.0 35.1 180.3 34.6Q179.5 34.2 179.1 33.4Q178.6 32.5 178.6 31.4L178.6 31.4Q178.6 30.2 179.1 29.4Q179.5 28.5 180.3 28.1Q181.1 27.6 182.0 27.6L182.0 27.6Q182.6 27.6 183.2 27.8Q183.7 28.0 184.1 28.3Q184.5 28.6 184.8 29.1Q185.0 29.5 185.1 30.1L185.1 30.1L183.6 30.1Q183.5 29.8 183.4 29.6Q183.3 29.4 183.1 29.2Q182.9 29.1 182.6 29.0Q182.4 29.0 182.0 29.0L182.0 29.0Q181.5 29.0 181.1 29.2Q180.6 29.5 180.4 30.0Q180.1 30.6 180.1 31.4Q180.1 32.1 180.4 32.7Q180.6 33.2 181.1 33.5Q181.5 33.8 182.1 33.8L182.1 33.8Q182.6 33.8 183.0 33.6Q183.3 33.4 183.6 33.0L183.6 33.0Q183.7 32.7 183.8 32.3L183.8 32.3L182.2 32.3L182.2 31.1L185.2 31.1L185.2 32.0Q185.2 33.0 184.8 33.7Q184.4 34.4 183.7 34.7Q183.0 35.1 182.1 35.1ZM194.2 35L189.3 35L189.3 27.7L194.2 27.7L194.2 29.0L190.8 29.0L190.8 30.7L194.0 30.7L194.0 31.9L190.8 31.9L190.8 33.8L194.2 33.8L194.2 35ZM201.1 35.1L201.1 35.1Q200.2 35.1 199.6 34.8Q198.9 34.6 198.6 34.0Q198.2 33.5 198.2 32.7L198.2 32.7L199.6 32.7Q199.6 33.1 199.8 33.4Q200.0 33.6 200.3 33.7Q200.7 33.8 201.1 33.8L201.1 33.8Q201.5 33.8 201.8 33.7Q202.1 33.6 202.2 33.4Q202.4 33.2 202.4 32.9L202.4 32.9Q202.4 32.7 202.2 32.5Q202.1 32.3 201.8 32.2Q201.5 32.1 201.1 32.0L201.1 32.0L200.3 31.8Q199.4 31.6 198.9 31.1Q198.4 30.6 198.4 29.8L198.4 29.8Q198.4 29.2 198.7 28.7Q199.1 28.2 199.7 27.9Q200.3 27.6 201.1 27.6L201.1 27.6Q201.9 27.6 202.5 27.9Q203.1 28.2 203.4 28.7Q203.8 29.2 203.8 29.8L203.8 29.8L202.3 29.8Q202.3 29.4 202.0 29.1Q201.6 28.9 201.1 28.9L201.1 28.9Q200.7 28.9 200.4 29.0Q200.2 29.1 200.0 29.3Q199.9 29.5 199.9 29.7L199.9 29.7Q199.9 30.0 200.1 30.2Q200.2 30.3 200.5 30.5Q200.8 30.6 201.1 30.6L201.1 30.6L201.7 30.8Q202.2 30.9 202.6 31.1Q203.0 31.3 203.3 31.5Q203.6 31.8 203.7 32.1Q203.9 32.5 203.9 32.9L203.9 32.9Q203.9 33.6 203.6 34.1Q203.2 34.6 202.6 34.8Q202.0 35.1 201.1 35.1Z "/></g><clipPath id="satori_cp-id-2" clip-path="url(#satori_cp-id)"><path x="25" y="53" width="750" height="6" d="M28,53 h744 a3,3 0 0 1 3,3 v0 a3,3 0 0 1 -3,3 h-744 a3,3 0 0 1 -3,-3 v0 a3,3 0 0 1 3,-3"/></clipPath><mask id="satori_om-id-2"><rect x="25" y="53" width="750" height="6" fill="#fff" mask="url(#satori_om-id)"/></mask><path x="25" y="53" width="750" height="6" fill="rgba(255,255,255,0.05)" d="M28,53 h744 a3,3 0 0 1 3,3 v0 a3,3 0 0 1 -3,3 h-744 a3,3 0 0 1 -3,-3 v0 a3,3 0 0 1 3,-3" clip-path="url(#satori_cp-id)" mask="url(#satori_om-id)"/><mask id="satori_om-id-2-0"><rect x="25" y="53" width="338" height="6" fill="#fff" mask="url(#satori_om-id-2)"/></mask><rect x="25" y="53" width="338" height="6" fill="#3178c6" clip-path="url(#satori_cp-id-2)" mask="url(#satori_om-id-2)"/><mask id="satori_om-id-2-1"><rect x="363" y="53" width="187" height="6" fill="#fff" mask="url(#satori_om-id-2)"/></mask><rect x="363" y="53" width="187" height="6" fill="#f1e05a" clip-path="url(#satori_cp-id-2)" mask="url(#satori_om-id-2)"/><mask id="satori_om-id-2-2"><rect x="550" y="53" width="113" height="6" fill="#fff" mask="url(#satori_om-id-2)"/></mask><rect x="550" y="53" width="113" height="6" fill="#3572A5" clip-path="url(#satori_cp-id-2)" mask="url(#satori_om-id-2)"/><mask id="satori_om-id-2-3"><rect x="663" y="53" width="75" height="6" fill="#fff" mask="url(#satori_om-id-2)"/></mask><rect x="663" y="53" width="75" height="6" fill="#dea584" clip-path="url(#satori_cp-id-2)" mask="url(#satori_om-id-2)"/><mask id="satori_om-id-2-4"><rect x="738" y="53" width="37" height="6" fill="#fff" mask="url(#satori_om-id-2)"/></mask><rect x="738" y="53" width="37" height="6" fill="#00ADD8" clip-path="url(#satori_cp-id-2)" mask="url(#satori_om-id-2)"/><mask id="satori_om-id-3"><rect x="25" y="75" width="750" height="16" fill="#fff" mask="url(#satori_om-id)"/></mask><mask id="satori_om-id-3-0"><rect x="25" y="75" width="120" height="16" fill="#fff" mask="url(#satori_om-id)"/></mask><mask id="satori_ms-id-3-0-0-0" maskUnits="userSpaceOnUse"><rect x="0" y="0" width="800" height="180" fill="#fff"/><path x="25" y="78" width="10" height="10" fill="#000"  stroke-width="0" d="M30,78 h0 a5,5 0 0 1 5,5 v0 a5,5 0 0 1 -5,5 h0 a5,5 0 0 1 -5,-5 v0 a5,5 0 0 1 5,-5" clip-path="url(#satori_cp-id)" mask="url(#satori_om-id)"/></mask><defs><filter id="satori_s-id-3-0-0-0" x="-90%" y="-90%" width="280%" height="280%"><feGaussianBlur stdDeviation="3" result="b"/><feFlood flood-color="#3178c640" in="SourceGraphic" result="f"/><feComposite in="f" in2="b" operator="in"/></filter></defs><g mask="url(#satori_ms-id-3-0-0-0)" filter="url(#satori_s-id-3-0-0-0)" opacity="1"><path x="25" y="78" width="10" height="10" fill="#fff" stroke="#fff" stroke-width="0" d="M30,78 h0 a5,5 0 0 1 5,5 v0 a5,5 0 0 1 -5,5 h0 a5,5 0 0 1 -5,-5 v0 a5,5 0 0 1 5,-5" clip-path="url(#satori_cp-id)" mask="url(#satori_om-id)"/></g><mask id="satori_om-id-3-0-0"><rect x="25" y="78" width="10" height="10" fill="#fff" mask="url(#satori_om-id)"/></mask><path x="25" y="78" width="10" height="10" fill="#3178c6" d="M30,78 h0 a5,5 0 0 1 5,5 v0 a5,5 0 0 1 -5,5 h0 a5,5 0 0 1 -5,-5 v0 a5,5 0 0 1 5,-5" clip-path="url(#satori_cp-id)" mask="url(#satori_om-id)"/><mask id="satori_om-id-3-0-1"><rect x="41" y="75" width="68" height="16" fill="#fff" mask="url(#satori_om-id)"/></mask><g mask="url(#satori_om-id)" clip-path="url(#satori_cp-id)"><path fill="#e0e0f0" d="M44.6 79.6L41.6 79.6L41.6 78.5L48.8 78.5L48.8 79.6L45.8 79.6L45.8 88L44.6 88L44.6 79.6ZM50.3 90.6L50.3 90.6L50.6 89.6L50.7 89.6Q51.0 89.7 51.3 89.7Q51.6 89.6 51.8 89.4Q52.1 89.1 52.2 88.6L52.2 88.6L52.4 88.0L49.7 80.9L51.0 80.9L52.5 85.1Q52.7 85.8 52.9 86.4L52.9 86.4Q53.0 86.7 53.0 87.0L53.0 87.0Q53.1 86.7 53.2 86.4L53.2 86.4Q53.4 85.8 53.6 85.1L53.6 85.1L55.1 80.9L56.4 80.9L53.2 89.1Q53.0 89.6 52.7 90.0Q52.4 90.4 52.0 90.5Q51.6 90.7 51.1 90.7L51.1 90.7Q50.8 90.7 50.6 90.7Q50.4 90.6 50.3 90.6ZM58.8 90.7L57.7 90.7L57.7 80.9L58.8 80.9L58.8 82.0L58.9 82.0Q59.1 81.8 59.3 81.6Q59.5 81.3 59.9 81.0Q60.3 80.8 61.0 80.8L61.0 80.8Q61.9 80.8 62.6 81.3Q63.2 81.7 63.6 82.5Q64.0 83.3 64.0 84.5L64.0 84.5Q64.0 85.6 63.6 86.4Q63.2 87.3 62.6 87.7Q61.9 88.2 61.0 88.2L61.0 88.2Q60.3 88.2 59.9 87.9Q59.5 87.7 59.3 87.4Q59.1 87.1 58.9 86.9L58.9 86.9L58.8 86.9L58.8 90.7ZM60.8 87.1L60.8 87.1Q61.5 87.1 61.9 86.8Q62.4 86.4 62.6 85.8Q62.8 85.2 62.8 84.5L62.8 84.5Q62.8 83.7 62.6 83.1Q62.4 82.5 61.9 82.2Q61.5 81.8 60.8 81.8L60.8 81.8Q60.2 81.8 59.7 82.2Q59.3 82.5 59.1 83.1Q58.8 83.7 58.8 84.5L58.8 84.5Q58.8 85.2 59.1 85.8Q59.3 86.5 59.7 86.8Q60.2 87.1 60.8 87.1ZM68.6 88.2L68.6 88.2Q67.6 88.2 66.9 87.7Q66.1 87.2 65.7 86.4Q65.3 85.6 65.3 84.5Q65.3 83.4 65.7 82.6Q66.1 81.8 66.8 81.3Q67.5 80.8 68.5 80.8L68.5 80.8Q69.1 80.8 69.6 81.0Q70.2 81.2 70.6 81.6Q71.1 82.0 71.3 82.7Q71.6 83.4 71.6 84.4L71.6 84.4L71.6 84.8L66.5 84.8Q66.5 85.5 66.7 86.0L66.7 86.0Q67.0 86.6 67.5 86.9Q68.0 87.1 68.7 87.1L68.7 87.1Q69.1 87.1 69.4 87.0Q69.8 86.9 70.0 86.7Q70.3 86.4 70.4 86.0L70.4 86.0L71.5 86.3Q71.3 86.9 70.9 87.3Q70.5 87.7 70.0 87.9Q69.4 88.2 68.6 88.2ZM66.5 83.9L66.5 83.9L70.4 83.9Q70.4 83.4 70.2 83.0L70.2 83.0Q70.0 82.4 69.6 82.1Q69.2 81.8 68.5 81.8Q67.9 81.8 67.4 82.1Q67.0 82.5 66.7 83.0L66.7 83.0Q66.5 83.4 66.5 83.9ZM76.4 88.2L76.4 88.2Q75.4 88.2 74.6 87.8Q73.9 87.5 73.5 86.9Q73.0 86.3 73.0 85.5L73.0 85.5L74.2 85.5Q74.3 86.1 74.6 86.4Q74.9 86.7 75.4 86.9Q75.9 87.1 76.4 87.1L76.4 87.1Q77.0 87.1 77.6 86.9Q78.1 86.7 78.4 86.3Q78.7 85.9 78.7 85.4L78.7 85.4Q78.7 84.9 78.4 84.7Q78.2 84.4 77.7 84.2Q77.3 84.0 76.8 83.9L76.8 83.9L75.7 83.5Q74.5 83.2 73.9 82.6Q73.2 82.0 73.2 81.1L73.2 81.1Q73.2 80.3 73.7 79.7Q74.1 79.1 74.8 78.7Q75.6 78.4 76.5 78.4L76.5 78.4Q77.4 78.4 78.1 78.7Q78.9 79.1 79.3 79.6Q79.7 80.2 79.7 80.9L79.7 80.9L78.5 80.9Q78.5 80.2 77.9 79.9Q77.3 79.5 76.5 79.5L76.5 79.5Q75.8 79.5 75.4 79.7Q74.9 79.9 74.7 80.2Q74.4 80.6 74.4 81.0L74.4 81.0Q74.4 81.5 74.7 81.8Q75.0 82.1 75.5 82.3Q75.9 82.5 76.2 82.5L76.2 82.5L77.2 82.8Q77.5 82.9 78.0 83.1Q78.5 83.3 78.9 83.6Q79.3 83.9 79.6 84.3Q79.8 84.8 79.8 85.4L79.8 85.4Q79.8 86.2 79.4 86.8Q79.0 87.4 78.3 87.8Q77.5 88.2 76.4 88.2ZM84.5 88.2L84.5 88.2Q83.5 88.2 82.8 87.7Q82.1 87.2 81.6 86.4Q81.2 85.6 81.2 84.5L81.2 84.5Q81.2 83.4 81.6 82.6Q82.1 81.7 82.8 81.3Q83.5 80.8 84.5 80.8L84.5 80.8Q85.0 80.8 85.4 80.9Q85.9 81.1 86.3 81.3Q86.7 81.6 86.9 81.9Q87.2 82.3 87.3 82.8L87.3 82.8L86.2 83.1Q86.2 82.8 86.0 82.6Q85.9 82.4 85.6 82.2Q85.4 82.0 85.1 81.9Q84.8 81.8 84.5 81.8L84.5 81.8Q83.8 81.8 83.3 82.2Q82.8 82.6 82.6 83.2Q82.4 83.8 82.4 84.5L82.4 84.5Q82.4 85.2 82.6 85.8Q82.8 86.4 83.3 86.8Q83.8 87.1 84.5 87.1L84.5 87.1Q84.8 87.1 85.1 87.0Q85.4 86.9 85.7 86.8Q85.9 86.6 86.0 86.3Q86.2 86.1 86.3 85.8L86.3 85.8L87.4 86.1Q87.2 86.6 87.0 87.0Q86.7 87.4 86.3 87.6Q85.9 87.9 85.5 88.0Q85.0 88.2 84.5 88.2ZM90.1 88L89.0 88L89.0 80.9L90.1 80.9L90.1 82.0L90.2 82.0Q90.4 81.5 90.9 81.1Q91.4 80.8 92.0 80.8L92.0 80.8Q92.2 80.8 92.3 80.8Q92.5 80.8 92.6 80.8L92.6 80.8L92.6 82.0Q92.6 82.0 92.4 81.9Q92.1 81.9 91.9 81.9L91.9 81.9Q91.4 81.9 91.0 82.1Q90.6 82.3 90.4 82.7Q90.1 83.1 90.1 83.6L90.1 83.6L90.1 88ZM95.0 88L93.9 88L93.9 80.9L95.0 80.9L95.0 88ZM94.5 79.7L94.5 79.7Q94.2 79.7 93.9 79.5Q93.7 79.3 93.7 79.0L93.7 79.0Q93.7 78.7 93.9 78.4Q94.2 78.2 94.5 78.2L94.5 78.2Q94.8 78.2 95.0 78.4Q95.3 78.7 95.3 79.0L95.3 79.0Q95.3 79.3 95.0 79.5Q94.8 79.7 94.5 79.7ZM98.2 90.7L97.0 90.7L97.0 80.9L98.2 80.9L98.2 82.0L98.3 82.0Q98.4 81.8 98.6 81.6Q98.8 81.3 99.2 81.0Q99.6 80.8 100.3 80.8L100.3 80.8Q101.2 80.8 101.9 81.3Q102.6 81.7 103.0 82.5Q103.3 83.3 103.3 84.5L103.3 84.5Q103.3 85.6 103.0 86.4Q102.6 87.3 101.9 87.7Q101.2 88.2 100.3 88.2L100.3 88.2Q99.7 88.2 99.3 87.9Q98.8 87.7 98.6 87.4Q98.4 87.1 98.3 86.9L98.3 86.9L98.2 86.9L98.2 90.7ZM100.2 87.1L100.2 87.1Q100.8 87.1 101.3 86.8Q101.7 86.4 102.0 85.8Q102.2 85.2 102.2 84.5L102.2 84.5Q102.2 83.7 102.0 83.1Q101.7 82.5 101.3 82.2Q100.8 81.8 100.2 81.8L100.2 81.8Q99.5 81.8 99.1 82.2Q98.6 82.5 98.4 83.1Q98.2 83.7 98.2 84.5L98.2 84.5Q98.2 85.2 98.4 85.8Q98.6 86.5 99.1 86.8Q99.5 87.1 100.2 87.1ZM106.3 80.9L107.8 80.9L107.8 81.9L106.3 81.9L106.3 86.2Q106.3 86.6 106.5 86.9Q106.7 87.1 107.2 87.1L107.2 87.1Q107.3 87.1 107.5 87.0Q107.6 87.0 107.8 87.0L107.8 87.0L108.0 88.0Q107.8 88.0 107.6 88.1Q107.4 88.1 107.1 88.1L107.1 88.1Q106.2 88.1 105.7 87.6Q105.2 87.1 105.2 86.2L105.2 86.2L105.2 81.9L104.1 81.9L104.1 80.9L105.2 80.9L105.2 79.2L106.3 79.2L106.3 80.9Z "/></g><mask id="satori_om-id-3-0-2"><rect x="115" y="77" width="25" height="13" fill="#fff" mask="url(#satori_om-id)"/></mask><g mask="url(#satori_om-id)" clip-path="url(#satori_cp-id)"><path fill="#6a6a8a" d="M119.4 86.4L115.6 86.4L115.6 85.5L119.1 80.0L120.4 80.0L120.4 85.5L121.5 85.5L121.5 86.4L120.4 86.4L120.4 88L119.4 88L119.4 86.4ZM116.7 85.5L119.4 85.5L119.4 81.3L119.4 81.3L116.7 85.4L116.7 85.5ZM125.3 88.1L125.3 88.1Q124.6 88.1 124.0 87.8Q123.5 87.6 123.2 87.1Q122.8 86.6 122.8 86.0L122.8 86.0L123.8 86.0Q123.8 86.3 124.0 86.6Q124.2 86.9 124.6 87.1Q124.9 87.2 125.3 87.2L125.3 87.2Q125.8 87.2 126.2 87.0Q126.5 86.8 126.8 86.4Q127.0 86.0 127.0 85.5L127.0 85.5Q127.0 84.9 126.8 84.5Q126.5 84.1 126.1 83.9Q125.7 83.7 125.2 83.7L125.2 83.7Q124.9 83.7 124.5 83.8Q124.1 83.9 123.9 84.1L123.9 84.1L122.9 84.0L123.4 80.0L127.6 80.0L127.6 80.9L124.2 80.9L124.0 83.2L124.0 83.2Q124.3 83.0 124.6 82.9Q125.0 82.8 125.4 82.8L125.4 82.8Q126.0 82.8 126.4 83.0Q126.9 83.2 127.3 83.5Q127.6 83.9 127.8 84.4Q128.0 84.9 128.0 85.4L128.0 85.4Q128.0 86.2 127.6 86.8Q127.3 87.4 126.7 87.8Q126.1 88.1 125.3 88.1ZM131.4 83.5L131.4 83.5Q130.9 83.5 130.6 83.3Q130.2 83.1 130.0 82.7Q129.9 82.3 129.9 81.9L129.9 81.9L129.9 81.5Q129.9 81.0 130.0 80.7Q130.2 80.3 130.6 80.1Q130.9 79.9 131.4 79.9L131.4 79.9Q132.0 79.9 132.3 80.1Q132.6 80.3 132.8 80.7Q133.0 81.0 133.0 81.5L133.0 81.5L133.0 81.9Q133.0 82.3 132.8 82.7Q132.6 83.1 132.3 83.3Q132.0 83.5 131.4 83.5ZM131.4 82.8L131.4 82.8Q131.8 82.8 132.0 82.6Q132.2 82.3 132.2 81.9L132.2 81.9L132.2 81.5Q132.2 81.1 132.0 80.9Q131.9 80.6 131.4 80.6L131.4 80.6Q131.0 80.6 130.9 80.9Q130.7 81.1 130.7 81.5L130.7 81.5L130.7 81.9Q130.7 82.3 130.9 82.6Q131.0 82.8 131.4 82.8ZM136.6 88.2L136.6 88.2Q136.1 88.2 135.8 87.9Q135.4 87.7 135.2 87.3Q135.1 87.0 135.1 86.5L135.1 86.5L135.1 86.1Q135.1 85.7 135.2 85.3Q135.4 84.9 135.8 84.7Q136.1 84.5 136.6 84.5L136.6 84.5Q137.2 84.5 137.5 84.7Q137.8 84.9 138.0 85.3Q138.2 85.7 138.2 86.1L138.2 86.1L138.2 86.5Q138.2 87.0 138.0 87.3Q137.8 87.7 137.5 87.9Q137.1 88.2 136.6 88.2ZM136.6 87.5L136.6 87.5Q137.0 87.5 137.2 87.2Q137.4 86.9 137.4 86.5L137.4 86.5L137.4 86.1Q137.4 85.8 137.2 85.5Q137.1 85.2 136.6 85.2L136.6 85.2Q136.2 85.2 136.1 85.5Q135.9 85.8 135.9 86.1L135.9 86.1L135.9 86.5Q135.9 86.9 136.1 87.2Q136.2 87.5 136.6 87.5ZM131.7 88L130.8 88L136.3 80.0L137.2 80.0L131.7 88Z "/></g><mask id="satori_om-id-3-1"><rect x="159" y="75" width="120" height="16" fill="#fff" mask="url(#satori_om-id)"/></mask><mask id="satori_ms-id-3-1-0-0" maskUnits="userSpaceOnUse"><rect x="0" y="0" width="800" height="180" fill="#fff"/><path x="159" y="78" width="10" height="10" fill="#000"  stroke-width="0" d="M164,78 h0 a5,5 0 0 1 5,5 v0 a5,5 0 0 1 -5,5 h0 a5,5 0 0 1 -5,-5 v0 a5,5 0 0 1 5,-5" clip-path="url(#satori_cp-id)" mask="url(#satori_om-id)"/></mask><defs><filter id="satori_s-id-3-1-0-0" x="-90%" y="-90%" width="280%" height="280%"><feGaussianBlur stdDeviation="3" result="b"/><feFlood flood-color="#f1e05a40" in="SourceGraphic" result="f"/><feComposite in="f" in2="b" operator="in"/></filter></defs><g mask="url(#satori_ms-id-3-1-0-0)" filter="url(#satori_s-id-3-1-0-0)" opacity="1"><path x="159" y="78" width="10" height="10" fill="#fff" stroke="#fff" stroke-width="0" d="M164,78 h0 a5,5 0 0 1 5,5 v0 a5,5 0 0 1 -5,5 h0 a5,5 0 0 1 -5,-5 v0 a5,5 0 0 1 5,-5" clip-path="url(#satori_cp-id)" mask="url(#satori_om-id)"/></g><mask id="satori_om-id-3-1-0"><rect x="159" y="78" width="10" height="10" fill="#fff" mask="url(#satori_om-id)"/></mask><path x="159" y="78" width="10" height="10" fill="#f1e05a" d="M164,78 h0 a5,5 0 0 1 5,5 v0 a5,5 0 0 1 -5,5 h0 a5,5 0 0 1 -5,-5 v0 a5,5 0 0 1 5,-5" clip-path="url(#satori_cp-id)" mask="url(#satori_om-id)"/><mask id="satori_om-id-3-1-1"><rect x="175" y="75" width="66" height="16" fill="#fff" mask="url(#satori_om-id)"/></mask><g mask="url(#satori_om-id)" clip-path="url(#satori_cp-id)"><path fill="#e0e0f0" d="M178.5 88.1L178.5 88.1Q177.2 88.1 176.4 87.4Q175.6 86.7 175.6 85.3L175.6 85.3L175.6 84.8L176.8 84.8L176.8 85.3Q176.8 86.2 177.3 86.6Q177.7 87.1 178.5 87.1L178.5 87.1Q179.2 87.1 179.6 86.6Q180.1 86.2 180.1 85.3L180.1 85.3L180.1 78.5L181.3 78.5L181.3 85.3Q181.3 86.7 180.5 87.4Q179.7 88.1 178.5 88.1ZM185.4 88.2L185.4 88.2Q184.7 88.2 184.2 87.9Q183.6 87.7 183.3 87.2Q183.0 86.7 183.0 86.0L183.0 86.0Q183.0 85.4 183.2 85.0Q183.5 84.6 183.9 84.4Q184.3 84.2 184.8 84.1Q185.3 84.0 185.8 83.9L185.8 83.9Q186.4 83.8 186.8 83.8Q187.2 83.7 187.4 83.6Q187.6 83.5 187.6 83.2L187.6 83.2L187.6 83.2Q187.6 82.8 187.4 82.5Q187.2 82.1 186.9 82.0Q186.6 81.8 186.1 81.8L186.1 81.8Q185.6 81.8 185.2 82.0Q184.9 82.1 184.6 82.4Q184.4 82.6 184.3 82.9L184.3 82.9L183.2 82.5Q183.5 81.8 183.9 81.5Q184.4 81.1 185.0 81.0Q185.5 80.8 186.1 80.8L186.1 80.8Q186.4 80.8 186.9 80.9Q187.3 81.0 187.7 81.2Q188.2 81.5 188.4 82.0Q188.7 82.5 188.7 83.3L188.7 83.3L188.7 88L187.6 88L187.6 87.0L187.5 87.0Q187.4 87.3 187.1 87.5Q186.9 87.8 186.4 88.0Q186.0 88.2 185.4 88.2ZM185.6 87.2L185.6 87.2Q186.2 87.2 186.7 86.9Q187.1 86.7 187.3 86.3Q187.6 85.9 187.6 85.4L187.6 85.4L187.6 84.5Q187.5 84.5 187.3 84.6Q187.0 84.7 186.7 84.7Q186.4 84.8 186.1 84.8Q185.9 84.8 185.7 84.9L185.7 84.9Q185.3 84.9 184.9 85.0Q184.6 85.2 184.4 85.4Q184.1 85.6 184.1 86.0L184.1 86.0Q184.1 86.4 184.3 86.7Q184.5 86.9 184.9 87.0Q185.2 87.2 185.6 87.2ZM194.0 88L192.8 88L190.1 80.9L191.3 80.9L192.8 85.1Q193.1 85.8 193.2 86.4L193.2 86.4Q193.3 86.7 193.4 87.0L193.4 87.0Q193.4 86.7 193.5 86.4L193.5 86.4Q193.7 85.8 193.9 85.1L193.9 85.1L195.4 80.9L196.7 80.9L194.0 88ZM200.0 88.2L200.0 88.2Q199.3 88.2 198.8 87.9Q198.2 87.7 197.9 87.2Q197.6 86.7 197.6 86.0L197.6 86.0Q197.6 85.4 197.8 85.0Q198.1 84.6 198.5 84.4Q198.9 84.2 199.4 84.1Q199.9 84.0 200.4 83.9L200.4 83.9Q201.0 83.8 201.4 83.8Q201.8 83.7 202.0 83.6Q202.2 83.5 202.2 83.2L202.2 83.2L202.2 83.2Q202.2 82.8 202.0 82.5Q201.9 82.1 201.5 82.0Q201.2 81.8 200.7 81.8L200.7 81.8Q200.2 81.8 199.8 82.0Q199.5 82.1 199.2 82.4Q199.0 82.6 198.9 82.9L198.9 82.9L197.8 82.5Q198.1 81.8 198.5 81.5Q199.0 81.1 199.6 81.0Q200.1 80.8 200.7 80.8L200.7 80.8Q201.0 80.8 201.5 80.9Q201.9 81.0 202.3 81.2Q202.8 81.5 203.0 82.0Q203.3 82.5 203.3 83.3L203.3 83.3L203.3 88L202.2 88L202.2 87.0L202.1 87.0Q202.0 87.3 201.7 87.5Q201.5 87.8 201.0 88.0Q200.6 88.2 200.0 88.2ZM200.2 87.2L200.2 87.2Q200.8 87.2 201.3 86.9Q201.7 86.7 202.0 86.3Q202.2 85.9 202.2 85.4L202.2 85.4L202.2 84.5Q202.1 84.5 201.9 84.6Q201.6 84.7 201.3 84.7Q201.0 84.8 200.8 84.8Q200.5 84.8 200.3 84.9L200.3 84.9Q199.9 84.9 199.5 85.0Q199.2 85.2 199.0 85.4Q198.7 85.6 198.7 86.0L198.7 86.0Q198.7 86.4 198.9 86.7Q199.1 86.9 199.5 87.0Q199.8 87.2 200.2 87.2ZM208.5 88.2L208.5 88.2Q207.5 88.2 206.7 87.8Q206.0 87.5 205.5 86.9Q205.1 86.3 205.1 85.5L205.1 85.5L206.3 85.5Q206.4 86.1 206.7 86.4Q207.0 86.7 207.5 86.9Q207.9 87.1 208.5 87.1L208.5 87.1Q209.1 87.1 209.6 86.9Q210.2 86.7 210.5 86.3Q210.8 85.9 210.8 85.4L210.8 85.4Q210.8 84.9 210.5 84.7Q210.2 84.4 209.8 84.2Q209.4 84.0 208.9 83.9L208.9 83.9L207.7 83.5Q206.6 83.2 206.0 82.6Q205.3 82.0 205.3 81.1L205.3 81.1Q205.3 80.3 205.8 79.7Q206.2 79.1 206.9 78.7Q207.7 78.4 208.6 78.4L208.6 78.4Q209.5 78.4 210.2 78.7Q210.9 79.1 211.4 79.6Q211.8 80.2 211.8 80.9L211.8 80.9L210.6 80.9Q210.5 80.2 210.0 79.9Q209.4 79.5 208.5 79.5L208.5 79.5Q207.9 79.5 207.5 79.7Q207.0 79.9 206.8 80.2Q206.5 80.6 206.5 81.0L206.5 81.0Q206.5 81.5 206.8 81.8Q207.1 82.1 207.5 82.3Q208.0 82.5 208.3 82.5L208.3 82.5L209.3 82.8Q209.6 82.9 210.1 83.1Q210.6 83.3 211.0 83.6Q211.4 83.9 211.7 84.3Q211.9 84.8 211.9 85.4L211.9 85.4Q211.9 86.2 211.5 86.8Q211.1 87.4 210.4 87.8Q209.6 88.2 208.5 88.2ZM216.6 88.2L216.6 88.2Q215.6 88.2 214.9 87.7Q214.1 87.2 213.7 86.4Q213.3 85.6 213.3 84.5L213.3 84.5Q213.3 83.4 213.7 82.6Q214.1 81.7 214.9 81.3Q215.6 80.8 216.6 80.8L216.6 80.8Q217.1 80.8 217.5 80.9Q218.0 81.1 218.4 81.3Q218.7 81.6 219.0 81.9Q219.3 82.3 219.4 82.8L219.4 82.8L218.3 83.1Q218.3 82.8 218.1 82.6Q217.9 82.4 217.7 82.2Q217.5 82.0 217.2 81.9Q216.9 81.8 216.6 81.8L216.6 81.8Q215.8 81.8 215.4 82.2Q214.9 82.6 214.7 83.2Q214.5 83.8 214.5 84.5L214.5 84.5Q214.5 85.2 214.7 85.8Q214.9 86.4 215.4 86.8Q215.8 87.1 216.6 87.1L216.6 87.1Q216.9 87.1 217.2 87.0Q217.5 86.9 217.7 86.8Q218.0 86.6 218.1 86.3Q218.3 86.1 218.4 85.8L218.4 85.8L219.5 86.1Q219.3 86.6 219.0 87.0Q218.8 87.4 218.4 87.6Q218.0 87.9 217.5 88.0Q217.1 88.2 216.6 88.2ZM222.2 88L221.1 88L221.1 80.9L222.2 80.9L222.2 82.0L222.3 82.0Q222.5 81.5 223.0 81.1Q223.5 80.8 224.1 80.8L224.1 80.8Q224.2 80.8 224.4 80.8Q224.6 80.8 224.7 80.8L224.7 80.8L224.7 82.0Q224.6 82.0 224.4 81.9Q224.2 81.9 224.0 81.9L224.0 81.9Q223.5 81.9 223.1 82.1Q222.7 82.3 222.5 82.7Q222.2 83.1 222.2 83.6L222.2 83.6L222.2 88ZM227.1 88L226.0 88L226.0 80.9L227.1 80.9L227.1 88ZM226.6 79.7L226.6 79.7Q226.2 79.7 226.0 79.5Q225.8 79.3 225.8 79.0L225.8 79.0Q225.8 78.7 226.0 78.4Q226.2 78.2 226.6 78.2L226.6 78.2Q226.9 78.2 227.1 78.4Q227.4 78.7 227.4 79.0L227.4 79.0Q227.4 79.3 227.1 79.5Q226.9 79.7 226.6 79.7ZM230.3 90.7L229.1 90.7L229.1 80.9L230.2 80.9L230.2 82.0L230.4 82.0Q230.5 81.8 230.7 81.6Q230.9 81.3 231.3 81.0Q231.7 80.8 232.4 80.8L232.4 80.8Q233.3 80.8 234.0 81.3Q234.7 81.7 235.1 82.5Q235.4 83.3 235.4 84.5L235.4 84.5Q235.4 85.6 235.1 86.4Q234.7 87.3 234.0 87.7Q233.3 88.2 232.4 88.2L232.4 88.2Q231.8 88.2 231.3 87.9Q230.9 87.7 230.7 87.4Q230.5 87.1 230.4 86.9L230.4 86.9L230.3 86.9L230.3 90.7ZM232.3 87.1L232.3 87.1Q232.9 87.1 233.4 86.8Q233.8 86.4 234.0 85.8Q234.3 85.2 234.3 84.5L234.3 84.5Q234.3 83.7 234.1 83.1Q233.8 82.5 233.4 82.2Q232.9 81.8 232.3 81.8L232.3 81.8Q231.6 81.8 231.2 82.2Q230.7 82.5 230.5 83.1Q230.3 83.7 230.3 84.5L230.3 84.5Q230.3 85.2 230.5 85.8Q230.7 86.5 231.2 86.8Q231.6 87.1 232.3 87.1ZM238.4 80.9L239.9 80.9L239.9 81.9L238.4 81.9L238.4 86.2Q238.4 86.6 238.6 86.9Q238.8 87.1 239.3 87.1L239.3 87.1Q239.4 87.1 239.5 87.0Q239.7 87.0 239.9 87.0L239.9 87.0L240.1 88.0Q239.9 88.0 239.7 88.1Q239.5 88.1 239.2 88.1L239.2 88.1Q238.3 88.1 237.8 87.6Q237.3 87.1 237.3 86.2L237.3 86.2L237.3 81.9L236.2 81.9L236.2 80.9L237.3 80.9L237.3 79.2L238.4 79.2L238.4 80.9Z "/></g><mask id="satori_om-id-3-1-2"><rect x="247" y="77" width="25" height="13" fill="#fff" mask="url(#satori_om-id)"/></mask><g mask="url(#satori_om-id)" clip-path="url(#satori_cp-id)"><path fill="#6a6a8a" d="M252.9 88L247.8 88L247.8 87.3L250.5 84.4Q250.9 83.9 251.2 83.5Q251.5 83.2 251.7 82.8Q251.8 82.5 251.8 82.1L251.8 82.1Q251.8 81.7 251.6 81.4Q251.4 81.1 251.1 80.9Q250.7 80.8 250.3 80.8L250.3 80.8Q249.9 80.8 249.5 81.0Q249.2 81.1 249.0 81.5Q248.8 81.8 248.8 82.3L248.8 82.3L247.8 82.3Q247.8 81.6 248.2 81.0Q248.5 80.5 249.1 80.2Q249.6 79.9 250.3 79.9L250.3 79.9Q251.1 79.9 251.6 80.2Q252.2 80.5 252.5 81.0Q252.8 81.5 252.8 82.1L252.8 82.1Q252.8 82.6 252.6 83.0Q252.5 83.4 252.1 83.9Q251.7 84.4 251.0 85.2L251.0 85.2L249.2 87.0L249.2 87.1L252.9 87.1L252.9 88ZM256.9 88.1L256.9 88.1Q256.2 88.1 255.6 87.8Q255.1 87.6 254.8 87.1Q254.4 86.6 254.4 86.0L254.4 86.0L255.4 86.0Q255.4 86.3 255.6 86.6Q255.8 86.9 256.2 87.1Q256.5 87.2 256.9 87.2L256.9 87.2Q257.4 87.2 257.8 87.0Q258.2 86.8 258.4 86.4Q258.6 86.0 258.6 85.5L258.6 85.5Q258.6 84.9 258.4 84.5Q258.1 84.1 257.7 83.9Q257.4 83.7 256.8 83.7L256.8 83.7Q256.5 83.7 256.1 83.8Q255.7 83.9 255.5 84.1L255.5 84.1L254.5 84.0L255.0 80.0L259.2 80.0L259.2 80.9L255.9 80.9L255.6 83.2L255.6 83.2Q255.9 83.0 256.2 82.9Q256.6 82.8 257.0 82.8L257.0 82.8Q257.6 82.8 258.0 83.0Q258.5 83.2 258.9 83.5Q259.2 83.9 259.4 84.4Q259.6 84.9 259.6 85.4L259.6 85.4Q259.6 86.2 259.2 86.8Q258.9 87.4 258.3 87.8Q257.7 88.1 256.9 88.1ZM263.0 83.5L263.0 83.5Q262.5 83.5 262.2 83.3Q261.8 83.1 261.6 82.7Q261.5 82.3 261.5 81.9L261.5 81.9L261.5 81.5Q261.5 81.0 261.7 80.7Q261.8 80.3 262.2 80.1Q262.5 79.9 263.0 79.9L263.0 79.9Q263.6 79.9 263.9 80.1Q264.3 80.3 264.4 80.7Q264.6 81.0 264.6 81.5L264.6 81.5L264.6 81.9Q264.6 82.3 264.4 82.7Q264.2 83.1 263.9 83.3Q263.6 83.5 263.0 83.5ZM263.0 82.8L263.0 82.8Q263.5 82.8 263.6 82.6Q263.8 82.3 263.8 81.9L263.8 81.9L263.8 81.5Q263.8 81.1 263.6 80.9Q263.5 80.6 263.0 80.6L263.0 80.6Q262.6 80.6 262.5 80.9Q262.3 81.1 262.3 81.5L262.3 81.5L262.3 81.9Q262.3 82.3 262.5 82.6Q262.6 82.8 263.0 82.8ZM268.2 88.2L268.2 88.2Q267.7 88.2 267.4 87.9Q267.0 87.7 266.8 87.3Q266.7 87.0 266.7 86.5L266.7 86.5L266.7 86.1Q266.7 85.7 266.8 85.3Q267.0 84.9 267.4 84.7Q267.7 84.5 268.2 84.5L268.2 84.5Q268.8 84.5 269.1 84.7Q269.5 84.9 269.6 85.3Q269.8 85.7 269.8 86.1L269.8 86.1L269.8 86.5Q269.8 87.0 269.6 87.3Q269.4 87.7 269.1 87.9Q268.7 88.2 268.2 88.2ZM268.2 87.5L268.2 87.5Q268.6 87.5 268.8 87.2Q269.0 86.9 269.0 86.5L269.0 86.5L269.0 86.1Q269.0 85.8 268.8 85.5Q268.7 85.2 268.2 85.2L268.2 85.2Q267.8 85.2 267.7 85.5Q267.5 85.8 267.5 86.1L267.5 86.1L267.5 86.5Q267.5 86.9 267.7 87.2Q267.8 87.5 268.2 87.5ZM263.3 88L262.4 88L267.9 80.0L268.8 80.0L263.3 88Z "/></g><mask id="satori_om-id-3-2"><rect x="293" y="75" width="120" height="16" fill="#fff" mask="url(#satori_om-id)"/></mask><mask id="satori_ms-id-3-2-0-0" maskUnits="userSpaceOnUse"><rect x="0" y="0" width="800" height="180" fill="#fff"/><path x="293" y="78" width="10" height="10" fill="#000"  stroke-width="0" d="M298,78 h0 a5,5 0 0 1 5,5 v0 a5,5 0 0 1 -5,5 h0 a5,5 0 0 1 -5,-5 v0 a5,5 0 0 1 5,-5" clip-path="url(#satori_cp-id)" mask="url(#satori_om-id)"/></mask><defs><filter id="satori_s-id-3-2-0-0" x="-90%" y="-90%" width="280%" height="280%"><feGaussianBlur stdDeviation="3" result="b"/><feFlood flood-color="#3572A540" in="SourceGraphic" result="f"/><feComposite in="f" in2="b" operator="in"/></filter></defs><g mask="url(#satori_ms-id-3-2-0-0)" filter="url(#satori_s-id-3-2-0-0)" opacity="1"><path x="293" y="78" width="10" height="10" fill="#fff" stroke="#fff" stroke-width="0" d="M298,78 h0 a5,5 0 0 1 5,5 v0 a5,5 0 0 1 -5,5 h0 a5,5 0 0 1 -5,-5 v0 a5,5 0 0 1 5,-5" clip-path="url(#satori_cp-id)" mask="url(#satori_om-id)"/></g><mask id="satori_om-id-3-2-0"><rect x="293" y="78" width="10" height="10" fill="#fff" mask="url(#satori_om-id)"/></mask><path x="293" y="78" width="10" height="10" fill="#3572A5" d="M298,78 h0 a5,5 0 0 1 5,5 v0 a5,5 0 0 1 -5,5 h0 a5,5 0 0 1 -5,-5 v0 a5,5 0 0 1 5,-5" clip-path="url(#satori_cp-id)" mask="url(#satori_om-id)"/><mask id="satori_om-id-3-2-1"><rect x="309" y="75" width="44" height="16" fill="#fff" mask="url(#satori_om-id)"/></mask><g mask="url(#satori_om-id)" clip-path="url(#satori_cp-id)"><path fill="#e0e0f0" d="M311.3 88L310.1 88L310.1 78.5L313.4 78.5Q314.5 78.5 315.2 78.9Q315.9 79.3 316.3 80.0Q316.6 80.7 316.6 81.6Q316.6 82.4 316.3 83.1Q315.9 83.8 315.2 84.2Q314.5 84.6 313.4 84.6L313.4 84.6L311.3 84.6L311.3 88ZM311.3 79.6L311.3 83.5L313.3 83.5Q314.1 83.5 314.5 83.3Q315.0 83.0 315.2 82.6Q315.4 82.1 315.4 81.6Q315.4 81.0 315.2 80.6Q315.0 80.1 314.5 79.9Q314.1 79.6 313.3 79.6L313.3 79.6L311.3 79.6ZM318.2 90.6L318.2 90.6L318.5 89.6L318.6 89.6Q319.0 89.7 319.2 89.7Q319.5 89.6 319.8 89.4Q320.0 89.1 320.2 88.6L320.2 88.6L320.4 88.0L317.6 80.9L318.9 80.9L320.4 85.1Q320.6 85.8 320.8 86.4L320.8 86.4Q320.9 86.7 321.0 87.0L321.0 87.0Q321.0 86.7 321.1 86.4L321.1 86.4Q321.3 85.8 321.5 85.1L321.5 85.1L323.0 80.9L324.3 80.9L321.1 89.1Q320.9 89.6 320.6 90.0Q320.3 90.4 319.9 90.5Q319.5 90.7 319.0 90.7L319.0 90.7Q318.7 90.7 318.5 90.7Q318.3 90.6 318.2 90.6ZM326.9 80.9L328.4 80.9L328.4 81.9L326.9 81.9L326.9 86.2Q326.9 86.6 327.1 86.9Q327.3 87.1 327.8 87.1L327.8 87.1Q327.9 87.1 328.1 87.0Q328.2 87.0 328.4 87.0L328.4 87.0L328.6 88.0Q328.4 88.0 328.2 88.1Q328.0 88.1 327.8 88.1L327.8 88.1Q326.8 88.1 326.3 87.6Q325.8 87.1 325.8 86.2L325.8 86.2L325.8 81.9L324.7 81.9L324.7 80.9L325.8 80.9L325.8 79.2L326.9 79.2L326.9 80.9ZM331.0 83.7L331.0 83.7L331.0 88L329.9 88L329.9 78.5L331.0 78.5L331.0 82.1Q331.3 81.5 331.7 81.2L331.7 81.2Q332.3 80.8 333.1 80.8L333.1 80.8Q333.9 80.8 334.4 81.1Q334.9 81.4 335.2 82.0Q335.5 82.6 335.5 83.5L335.5 83.5L335.5 88L334.4 88L334.4 83.6Q334.4 82.8 334.0 82.3Q333.5 81.8 332.8 81.8L332.8 81.8Q332.3 81.8 331.9 82.1Q331.5 82.3 331.2 82.7Q331.0 83.1 331.0 83.7ZM340.4 88.2L340.4 88.2Q339.5 88.2 338.7 87.7Q338.0 87.2 337.6 86.4Q337.2 85.6 337.2 84.5L337.2 84.5Q337.2 83.4 337.6 82.6Q338.0 81.7 338.7 81.3Q339.5 80.8 340.4 80.8L340.4 80.8Q341.4 80.8 342.1 81.3Q342.9 81.7 343.3 82.6Q343.7 83.4 343.7 84.5L343.7 84.5Q343.7 85.6 343.3 86.4Q342.9 87.2 342.1 87.7Q341.4 88.2 340.4 88.2ZM340.4 87.1L340.4 87.1Q341.2 87.1 341.6 86.8Q342.1 86.4 342.3 85.8Q342.5 85.2 342.5 84.5L342.5 84.5Q342.5 83.8 342.3 83.2Q342.1 82.6 341.6 82.2Q341.2 81.8 340.4 81.8L340.4 81.8Q339.7 81.8 339.3 82.2Q338.8 82.6 338.6 83.2Q338.4 83.8 338.4 84.5L338.4 84.5Q338.4 85.2 338.6 85.8Q338.8 86.4 339.3 86.8Q339.7 87.1 340.4 87.1ZM346.5 83.7L346.5 83.7L346.5 88L345.3 88L345.3 80.9L346.4 80.9L346.5 82.2Q346.7 81.6 347.2 81.2L347.2 81.2Q347.8 80.8 348.6 80.8L348.6 80.8Q349.3 80.8 349.9 81.1Q350.4 81.4 350.7 82.0Q351.0 82.6 351.0 83.5L351.0 83.5L351.0 88L349.9 88L349.9 83.6Q349.9 82.8 349.5 82.3Q349.0 81.8 348.3 81.8L348.3 81.8Q347.8 81.8 347.4 82.1Q347.0 82.3 346.7 82.7Q346.5 83.1 346.5 83.7Z "/></g><mask id="satori_om-id-3-2-2"><rect x="359" y="77" width="22" height="13" fill="#fff" mask="url(#satori_om-id)"/></mask><g mask="url(#satori_om-id)" clip-path="url(#satori_cp-id)"><path fill="#6a6a8a" d="M361.3 80.0L362.5 80.0L362.5 88L361.5 88L361.5 80.9L361.4 80.9L359.5 82.4L359.5 81.3L361.3 80.0ZM366.7 88.1L366.7 88.1Q366.0 88.1 365.4 87.8Q364.9 87.6 364.5 87.1Q364.2 86.6 364.2 86.0L364.2 86.0L365.1 86.0Q365.2 86.3 365.4 86.6Q365.6 86.9 365.9 87.1Q366.3 87.2 366.7 87.2L366.7 87.2Q367.2 87.2 367.5 87.0Q367.9 86.8 368.1 86.4Q368.3 86.0 368.3 85.5L368.3 85.5Q368.3 84.9 368.1 84.5Q367.9 84.1 367.5 83.9Q367.1 83.7 366.6 83.7L366.6 83.7Q366.2 83.7 365.9 83.8Q365.5 83.9 365.2 84.1L365.2 84.1L364.3 84.0L364.8 80.0L369.0 80.0L369.0 80.9L365.6 80.9L365.3 83.2L365.4 83.2Q365.6 83.0 366.0 82.9Q366.4 82.8 366.8 82.8L366.8 82.8Q367.3 82.8 367.8 83.0Q368.3 83.2 368.6 83.5Q369.0 83.9 369.2 84.4Q369.3 84.9 369.3 85.4L369.3 85.4Q369.3 86.2 369.0 86.8Q368.7 87.4 368.1 87.8Q367.4 88.1 366.7 88.1ZM372.8 83.5L372.8 83.5Q372.3 83.5 371.9 83.3Q371.6 83.1 371.4 82.7Q371.2 82.3 371.2 81.9L371.2 81.9L371.2 81.5Q371.2 81.0 371.4 80.7Q371.6 80.3 372.0 80.1Q372.3 79.9 372.8 79.9L372.8 79.9Q373.3 79.9 373.7 80.1Q374.0 80.3 374.2 80.7Q374.4 81.0 374.4 81.5L374.4 81.5L374.4 81.9Q374.4 82.3 374.2 82.7Q374.0 83.1 373.7 83.3Q373.3 83.5 372.8 83.5ZM372.8 82.8L372.8 82.8Q373.2 82.8 373.4 82.6Q373.6 82.3 373.6 81.9L373.6 81.9L373.6 81.5Q373.6 81.1 373.4 80.9Q373.2 80.6 372.8 80.6L372.8 80.6Q372.4 80.6 372.2 80.9Q372.1 81.1 372.1 81.5L372.1 81.5L372.1 81.9Q372.1 82.3 372.2 82.6Q372.4 82.8 372.8 82.8ZM378.0 88.2L378.0 88.2Q377.5 88.2 377.1 87.9Q376.8 87.7 376.6 87.3Q376.4 87.0 376.4 86.5L376.4 86.5L376.4 86.1Q376.4 85.7 376.6 85.3Q376.8 84.9 377.1 84.7Q377.5 84.5 378.0 84.5L378.0 84.5Q378.5 84.5 378.9 84.7Q379.2 84.9 379.4 85.3Q379.6 85.7 379.6 86.1L379.6 86.1L379.6 86.5Q379.6 87.0 379.4 87.3Q379.2 87.7 378.9 87.9Q378.5 88.2 378.0 88.2ZM378.0 87.5L378.0 87.5Q378.4 87.5 378.6 87.2Q378.7 86.9 378.7 86.5L378.7 86.5L378.7 86.1Q378.7 85.8 378.6 85.5Q378.4 85.2 378.0 85.2L378.0 85.2Q377.6 85.2 377.4 85.5Q377.3 85.8 377.3 86.1L377.3 86.1L377.3 86.5Q377.3 86.9 377.4 87.2Q377.6 87.5 378.0 87.5ZM373.1 88L372.2 88L377.7 80.0L378.6 80.0L373.1 88Z "/></g><mask id="satori_om-id-3-3"><rect x="427" y="75" width="120" height="16" fill="#fff" mask="url(#satori_om-id)"/></mask><mask id="satori_ms-id-3-3-0-0" maskUnits="userSpaceOnUse"><rect x="0" y="0" width="800" height="180" fill="#fff"/><path x="427" y="78" width="10" height="10" fill="#000"  stroke-width="0" d="M432,78 h0 a5,5 0 0 1 5,5 v0 a5,5 0 0 1 -5,5 h0 a5,5 0 0 1 -5,-5 v0 a5,5 0 0 1 5,-5" clip-path="url(#satori_cp-id)" mask="url(#satori_om-id)"/></mask><defs><filter id="satori_s-id-3-3-0-0" x="-90%" y="-90%" width="280%" height="280%"><feGaussianBlur stdDeviation="3" result="b"/><feFlood flood-color="#dea58440" in="SourceGraphic" result="f"/><feComposite in="f" in2="b" operator="in"/></filter></defs><g mask="url(#satori_ms-id-3-3-0-0)" filter="url(#satori_s-id-3-3-0-0)" opacity="1"><path x="427" y="78" width="10" height="10" fill="#fff" stroke="#fff" stroke-width="0" d="M432,78 h0 a5,5 0 0 1 5,5 v0 a5,5 0 0 1 -5,5 h0 a5,5 0 0 1 -5,-5 v0 a5,5 0 0 1 5,-5" clip-path="url(#satori_cp-id)" mask="url(#satori_om-id)"/></g><mask id="satori_om-id-3-3-0"><rect x="427" y="78" width="10" height="10" fill="#fff" mask="url(#satori_om-id)"/></mask><path x="427" y="78" width="10" height="10" fill="#dea584" d="M432,78 h0 a5,5 0 0 1 5,5 v0 a5,5 0 0 1 -5,5 h0 a5,5 0 0 1 -5,-5 v0 a5,5 0 0 1 5,-5" clip-path="url(#satori_cp-id)" mask="url(#satori_om-id)"/><mask id="satori_om-id-3-3-1"><rect x="443" y="75" width="28" height="16" fill="#fff" mask="url(#satori_om-id)"/></mask><g mask="url(#satori_om-id)" clip-path="url(#satori_cp-id)"><path fill="#e0e0f0" d="M445.3 88L444.1 88L444.1 78.5L447.4 78.5Q448.5 78.5 449.2 78.9Q449.9 79.3 450.3 80.0Q450.6 80.6 450.6 81.5Q450.6 82.3 450.3 83.0Q449.9 83.6 449.2 84.0L449.2 84.0Q449.0 84.1 448.9 84.1L448.9 84.1L451.0 88L449.6 88L447.6 84.3Q447.5 84.3 447.4 84.3L447.4 84.3L445.3 84.3L445.3 88ZM445.3 79.6L445.3 83.3L447.3 83.3Q448.1 83.3 448.5 83.0Q449.0 82.8 449.2 82.4Q449.4 82.0 449.4 81.5L449.4 81.5Q449.4 80.9 449.2 80.5Q449.0 80.1 448.5 79.8Q448.1 79.6 447.3 79.6L447.3 79.6L445.3 79.6ZM454.8 88.1L454.8 88.1Q454.1 88.1 453.5 87.8Q453.0 87.5 452.7 86.9Q452.4 86.3 452.4 85.4L452.4 85.4L452.4 80.9L453.5 80.9L453.5 85.3Q453.5 86.1 453.9 86.6Q454.4 87.1 455.1 87.1L455.1 87.1Q455.6 87.1 456.0 86.8Q456.4 86.6 456.7 86.2Q456.9 85.8 456.9 85.2L456.9 85.2L456.9 80.9L458.1 80.9L458.1 88L456.9 88L456.9 86.7Q456.6 87.4 456.2 87.7L456.2 87.7Q455.6 88.1 454.8 88.1ZM462.5 88.2L462.5 88.2Q461.7 88.2 461.2 87.9Q460.6 87.7 460.2 87.3Q459.9 86.9 459.7 86.3L459.7 86.3L460.8 86.0Q461.0 86.6 461.4 86.9Q461.8 87.1 462.5 87.1L462.5 87.1Q463.2 87.1 463.6 86.8Q464.1 86.5 464.1 86.1L464.1 86.1Q464.1 85.7 463.8 85.5Q463.6 85.2 463.0 85.1L463.0 85.1L461.9 84.8Q460.9 84.6 460.4 84.1Q460.0 83.6 460.0 82.9L460.0 82.9Q460.0 82.3 460.3 81.8Q460.6 81.3 461.2 81.1Q461.8 80.8 462.6 80.8L462.6 80.8Q463.3 80.8 463.8 81.0Q464.3 81.3 464.7 81.6Q465.0 82.0 465.1 82.5L465.1 82.5L464.1 82.8Q464.0 82.4 463.6 82.1Q463.3 81.8 462.6 81.8L462.6 81.8Q462.0 81.8 461.5 82.1Q461.1 82.4 461.1 82.8L461.1 82.8Q461.1 83.2 461.4 83.4Q461.7 83.7 462.3 83.8L462.3 83.8L463.4 84.1Q464.3 84.3 464.8 84.8Q465.3 85.3 465.3 86.0L465.3 86.0Q465.3 86.6 464.9 87.1Q464.6 87.6 463.9 87.9Q463.3 88.2 462.5 88.2ZM468.3 80.9L469.7 80.9L469.7 81.9L468.3 81.9L468.3 86.2Q468.3 86.6 468.4 86.9Q468.6 87.1 469.1 87.1L469.1 87.1Q469.2 87.1 469.4 87.0Q469.5 87.0 469.7 87.0L469.7 87.0L469.9 88.0Q469.7 88.0 469.5 88.1Q469.3 88.1 469.1 88.1L469.1 88.1Q468.1 88.1 467.6 87.6Q467.1 87.1 467.1 86.2L467.1 86.2L467.1 81.9L466.0 81.9L466.0 80.9L467.1 80.9L467.1 79.2L468.3 79.2L468.3 80.9Z "/></g><mask id="satori_om-id-3-3-2"><rect x="477" y="77" width="23" height="13" fill="#fff" mask="url(#satori_om-id)"/></mask><g mask="url(#satori_om-id)" clip-path="url(#satori_cp-id)"><path fill="#6a6a8a" d="M479.3 80.0L480.5 80.0L480.5 88L479.5 88L479.5 80.9L479.4 80.9L477.5 82.4L477.5 81.3L479.3 80.0ZM484.9 88.1L484.9 88.1Q484.1 88.1 483.4 87.6Q482.8 87.1 482.5 86.2Q482.1 85.3 482.1 84.0L482.1 84.0Q482.1 82.7 482.5 81.8Q482.8 80.9 483.4 80.4Q484.1 79.9 484.9 79.9L484.9 79.9Q485.8 79.9 486.5 80.4Q487.1 80.9 487.4 81.8Q487.8 82.7 487.8 84.0L487.8 84.0Q487.8 85.3 487.4 86.2Q487.1 87.1 486.5 87.6Q485.8 88.1 484.9 88.1ZM484.9 87.2L484.9 87.2Q485.5 87.2 485.9 86.8Q486.3 86.5 486.6 85.7Q486.8 85.0 486.8 84.0L486.8 84.0Q486.8 83.0 486.6 82.3Q486.3 81.5 485.9 81.2Q485.5 80.8 484.9 80.8L484.9 80.8Q484.4 80.8 484.0 81.2Q483.5 81.5 483.3 82.3Q483.1 83.0 483.1 84.0L483.1 84.0Q483.1 85.0 483.3 85.7Q483.5 86.5 484.0 86.8Q484.4 87.2 484.9 87.2ZM491.2 83.5L491.2 83.5Q490.7 83.5 490.4 83.3Q490.0 83.1 489.8 82.7Q489.6 82.3 489.6 81.9L489.6 81.9L489.6 81.5Q489.6 81.0 489.8 80.7Q490.0 80.3 490.4 80.1Q490.7 79.9 491.2 79.9L491.2 79.9Q491.7 79.9 492.1 80.1Q492.4 80.3 492.6 80.7Q492.8 81.0 492.8 81.5L492.8 81.5L492.8 81.9Q492.8 82.3 492.6 82.7Q492.4 83.1 492.1 83.3Q491.7 83.5 491.2 83.5ZM491.2 82.8L491.2 82.8Q491.6 82.8 491.8 82.6Q492.0 82.3 492.0 81.9L492.0 81.9L492.0 81.5Q492.0 81.1 491.8 80.9Q491.6 80.6 491.2 80.6L491.2 80.6Q490.8 80.6 490.6 80.9Q490.5 81.1 490.5 81.5L490.5 81.5L490.5 81.9Q490.5 82.3 490.6 82.6Q490.8 82.8 491.2 82.8ZM496.4 88.2L496.4 88.2Q495.9 88.2 495.6 87.9Q495.2 87.7 495.0 87.3Q494.8 87.0 494.8 86.5L494.8 86.5L494.8 86.1Q494.8 85.7 495.0 85.3Q495.2 84.9 495.6 84.7Q495.9 84.5 496.4 84.5L496.4 84.5Q496.9 84.5 497.3 84.7Q497.6 84.9 497.8 85.3Q498.0 85.7 498.0 86.1L498.0 86.1L498.0 86.5Q498.0 87.0 497.8 87.3Q497.6 87.7 497.3 87.9Q496.9 88.2 496.4 88.2ZM496.4 87.5L496.4 87.5Q496.8 87.5 497.0 87.2Q497.2 86.9 497.2 86.5L497.2 86.5L497.2 86.1Q497.2 85.8 497.0 85.5Q496.8 85.2 496.4 85.2L496.4 85.2Q496.0 85.2 495.8 85.5Q495.7 85.8 495.7 86.1L495.7 86.1L495.7 86.5Q495.7 86.9 495.8 87.2Q496.0 87.5 496.4 87.5ZM491.5 88L490.6 88L496.1 80.0L497.0 80.0L491.5 88Z "/></g><mask id="satori_om-id-3-4"><rect x="561" y="75" width="120" height="16" fill="#fff" mask="url(#satori_om-id)"/></mask><mask id="satori_ms-id-3-4-0-0" maskUnits="userSpaceOnUse"><rect x="0" y="0" width="800" height="180" fill="#fff"/><path x="561" y="78" width="10" height="10" fill="#000"  stroke-width="0" d="M566,78 h0 a5,5 0 0 1 5,5 v0 a5,5 0 0 1 -5,5 h0 a5,5 0 0 1 -5,-5 v0 a5,5 0 0 1 5,-5" clip-path="url(#satori_cp-id)" mask="url(#satori_om-id)"/></mask><defs><filter id="satori_s-id-3-4-0-0" x="-90%" y="-90%" width="280%" height="280%"><feGaussianBlur stdDeviation="3" result="b"/><feFlood flood-color="#00ADD840" in="SourceGraphic" result="f"/><feComposite in="f" in2="b" operator="in"/></filter></defs><g mask="url(#satori_ms-id-3-4-0-0)" filter="url(#satori_s-id-3-4-0-0)" opacity="1"><path x="561" y="78" width="10" height="10" fill="#fff" stroke="#fff" stroke-width="0" d="M566,78 h0 a5,5 0 0 1 5,5 v0 a5,5 0 0 1 -5,5 h0 a5,5 0 0 1 -5,-5 v0 a5,5 0 0 1 5,-5" clip-path="url(#satori_cp-id)" mask="url(#satori_om-id)"/></g><mask id="satori_om-id-3-4-0"><rect x="561" y="78" width="10" height="10" fill="#fff" mask="url(#satori_om-id)"/></mask><path x="561" y="78" width="10" height="10" fill="#00ADD8" d="M566,78 h0 a5,5 0 0 1 5,5 v0 a5,5 0 0 1 -5,5 h0 a5,5 0 0 1 -5,-5 v0 a5,5 0 0 1 5,-5" clip-path="url(#satori_cp-id)" mask="url(#satori_om-id)"/><mask id="satori_om-id-3-4-1"><rect x="577" y="75" width="18" height="16" fill="#fff" mask="url(#satori_om-id)"/></mask><g mask="url(#satori_om-id)" clip-path="url(#satori_cp-id)"><path fill="#e0e0f0" d="M582.0 88.1L582.0 88.1Q580.7 88.1 579.8 87.5Q578.8 86.9 578.3 85.9Q577.8 84.8 577.8 83.3L577.8 83.3Q577.8 81.8 578.3 80.7Q578.8 79.6 579.8 79.0Q580.7 78.4 581.9 78.4L581.9 78.4Q582.7 78.4 583.3 78.6Q584.0 78.9 584.5 79.3Q585.0 79.7 585.4 80.3Q585.7 80.8 585.8 81.5L585.8 81.5L584.6 81.5Q584.4 81.0 584.2 80.7Q583.9 80.3 583.6 80.1Q583.3 79.8 582.9 79.7Q582.4 79.5 581.9 79.5L581.9 79.5Q581.1 79.5 580.4 80.0Q579.7 80.4 579.3 81.2Q578.9 82.1 578.9 83.3L578.9 83.3Q578.9 84.5 579.4 85.3Q579.8 86.1 580.4 86.6Q581.1 87.0 582.0 87.0L582.0 87.0Q582.8 87.0 583.4 86.7Q584.0 86.3 584.4 85.7L584.4 85.7Q584.7 85.1 584.7 84.3L584.7 84.3L582.3 84.3L582.3 83.2L585.9 83.2L585.9 84.3Q585.9 85.5 585.4 86.3Q584.9 87.2 584.0 87.7Q583.1 88.1 582.0 88.1ZM590.6 88.2L590.6 88.2Q589.6 88.2 588.9 87.7Q588.2 87.2 587.8 86.4Q587.4 85.6 587.4 84.5L587.4 84.5Q587.4 83.4 587.8 82.6Q588.2 81.7 588.9 81.3Q589.6 80.8 590.6 80.8L590.6 80.8Q591.6 80.8 592.3 81.3Q593.0 81.7 593.4 82.6Q593.8 83.4 593.8 84.5L593.8 84.5Q593.8 85.6 593.4 86.4Q593.0 87.2 592.3 87.7Q591.6 88.2 590.6 88.2ZM590.6 87.1L590.6 87.1Q591.3 87.1 591.8 86.8Q592.2 86.4 592.5 85.8Q592.7 85.2 592.7 84.5L592.7 84.5Q592.7 83.8 592.5 83.2Q592.2 82.6 591.8 82.2Q591.3 81.8 590.6 81.8L590.6 81.8Q589.9 81.8 589.4 82.2Q589.0 82.6 588.7 83.2Q588.5 83.8 588.5 84.5L588.5 84.5Q588.5 85.2 588.7 85.8Q589.0 86.4 589.4 86.8Q589.9 87.1 590.6 87.1Z "/></g><mask id="satori_om-id-3-4-2"><rect x="601" y="77" width="18" height="13" fill="#fff" mask="url(#satori_om-id)"/></mask><g mask="url(#satori_om-id)" clip-path="url(#satori_cp-id)"><path fill="#6a6a8a" d="M604.2 88.1L604.2 88.1Q603.5 88.1 602.9 87.8Q602.4 87.6 602.0 87.1Q601.7 86.6 601.7 86.0L601.7 86.0L602.7 86.0Q602.7 86.3 602.9 86.6Q603.1 86.9 603.5 87.1Q603.8 87.2 604.2 87.2L604.2 87.2Q604.7 87.2 605.1 87.0Q605.4 86.8 605.7 86.4Q605.9 86.0 605.9 85.5L605.9 85.5Q605.9 84.9 605.6 84.5Q605.4 84.1 605.0 83.9Q604.6 83.7 604.1 83.7L604.1 83.7Q603.8 83.7 603.4 83.8Q603.0 83.9 602.8 84.1L602.8 84.1L601.8 84.0L602.3 80.0L606.5 80.0L606.5 80.9L603.1 80.9L602.9 83.2L602.9 83.2Q603.2 83.0 603.5 82.9Q603.9 82.8 604.3 82.8L604.3 82.8Q604.9 82.8 605.3 83.0Q605.8 83.2 606.1 83.5Q606.5 83.9 606.7 84.4Q606.9 84.9 606.9 85.4L606.9 85.4Q606.9 86.2 606.5 86.8Q606.2 87.4 605.6 87.8Q605.0 88.1 604.2 88.1ZM610.3 83.5L610.3 83.5Q609.8 83.5 609.5 83.3Q609.1 83.1 608.9 82.7Q608.8 82.3 608.8 81.9L608.8 81.9L608.8 81.5Q608.8 81.0 608.9 80.7Q609.1 80.3 609.5 80.1Q609.8 79.9 610.3 79.9L610.3 79.9Q610.9 79.9 611.2 80.1Q611.5 80.3 611.7 80.7Q611.9 81.0 611.9 81.5L611.9 81.5L611.9 81.9Q611.9 82.3 611.7 82.7Q611.5 83.1 611.2 83.3Q610.8 83.5 610.3 83.5ZM610.3 82.8L610.3 82.8Q610.7 82.8 610.9 82.6Q611.1 82.3 611.1 81.9L611.1 81.9L611.1 81.5Q611.1 81.1 610.9 80.9Q610.8 80.6 610.3 80.6L610.3 80.6Q609.9 80.6 609.8 80.9Q609.6 81.1 609.6 81.5L609.6 81.5L609.6 81.9Q609.6 82.3 609.8 82.6Q609.9 82.8 610.3 82.8ZM615.5 88.2L615.5 88.2Q615.0 88.2 614.7 87.9Q614.3 87.7 614.1 87.3Q614.0 87.0 614.0 86.5L614.0 86.5L614.0 86.1Q614.0 85.7 614.1 85.3Q614.3 84.9 614.7 84.7Q615.0 84.5 615.5 84.5L615.5 84.5Q616.0 84.5 616.4 84.7Q616.7 84.9 616.9 85.3Q617.1 85.7 617.1 86.1L617.1 86.1L617.1 86.5Q617.1 87.0 616.9 87.3Q616.7 87.7 616.4 87.9Q616.0 88.2 615.5 88.2ZM615.5 87.5L615.5 87.5Q615.9 87.5 616.1 87.2Q616.3 86.9 616.3 86.5L616.3 86.5L616.3 86.1Q616.3 85.8 616.1 85.5Q615.9 85.2 615.5 85.2L615.5 85.2Q615.1 85.2 615.0 85.5Q614.8 85.8 614.8 86.1L614.8 86.1L614.8 86.5Q614.8 86.9 614.9 87.2Q615.1 87.5 615.5 87.5ZM610.6 88L609.7 88L615.2 80.0L616.1 80.0L610.6 88Z "/></g></svg>