<!-- Generated by readme-aura https://github.com/collectioneur/readme-aura -->
<svg width="400" height="120" viewBox="0 0 400 120" xmlns="http://www.w3.org/2000/svg"><clipPath id="satori_cp-id"><path x="0" y="0" width="400" height="120" d="M12,0 h376 a12,12 0 0 1 12,12 v96 a12,12 0 0 1 -12,12 h-376 a12,12 0 0 1 -12,-12 v-96 a12,12 0 0 1 12,-12"/></clipPath><mask id="satori_om-id"><rect x="0" y="0" width="400" height="120" fill="#fff"/></mask><path x="0" y="0" width="400" height="120" fill="#0a0a12" d="M12,0 h376 a12,12 0 0 1 12,12 v96 a12,12 0 0 1 -12,12 h-376 a12,12 0 0 1 -12,-12 v-96 a12,12 0 0 1 12,-12"/><clipPath id="satori_cp-id-0" clip-path="url(#satori_cp-id)"><rect x="0" y="0" width="400" height="120"/></clipPath><mask id="satori_om-id-0"><rect x="0" y="0" width="400" height="120" fill="#fff" mask="url(#satori_om-id)"/></mask><svg x="0" y="0" width="400" height="120" preserveAspectRatio="none" clip-path="url(#satori_cp-id-0)" mask="url(#satori_om-id-0)"><defs><radialGradient id="ag1" cx="50%" cy="50%" r="50%"><stop offset="0%" stop-color="rgba(102,126,234,0.8)"></stop><stop offset="70%" stop-color="rgba(102,126,234,0)"></stop></radialGradient><radialGradient id="ag2" cx="50%" cy="50%" r="50%"><stop offset="0%" stop-color="rgba(118,75,162,0.6)"></stop><stop offset="70%" stop-color="rgba(118,75,162,0)"></stop></radialGradient></defs><ellipse id="orb1" cx="120" cy="60" rx="70" ry="50" fill="url(#ag1)"></ellipse><ellipse id="orb2" cx="280" cy="60" rx="60" ry="45" fill="url(#ag2)"></ellipse><style>

      @keyframes pulse { 0%, 100% { opacity: 0.6; transform: scale(1); } 50% { opacity: 1; transform: scale(1.2); } }
      @keyframes float { 0%, 100% { transform: translateX(0) translateY(0); } 50% { transform: translateX(15px) translateY(-10px); } }
      #orb1 { animation: pulse 2s ease-in-out infinite; }
      #orb2 { animation: float 3s ease-in-out infinite; }
    
</style>
</svg><mask id="satori_om-id-0-0"><rect x="0" y="0" width="0" height="120" fill="#fff" mask="url(#satori_om-id)"/></mask><mask id="satori_om-id-0-0-0"><rect x="0" y="0" width="0" height="120" fill="#fff" mask="url(#satori_om-id)"/></mask><mask id="satori_om-id-0-0-0-0"><rect x="0" y="0" width="0" height="120" fill="#fff" mask="url(#satori_om-id)"/></mask><mask id="satori_om-id-0-0-0-1"><rect x="0" y="0" width="0" height="120" fill="#fff" mask="url(#satori_om-id)"/></mask><mask id="satori_om-id-0-0-1"><rect x="0" y="0" width="0" height="120" fill="#fff" mask="url(#satori_om-id)"/></mask><mask id="satori_om-id-0-0-1-0"><rect x="0" y="0" width="0" height="120" fill="#fff" mask="url(#satori_om-id)"/></mask><mask id="satori_om-id-0-0-1-1"><rect x="0" y="0" width="0" height="120" fill="#fff" mask="url(#satori_om-id)"/></mask><mask id="satori_om-id-0-1"><rect x="0" y="0" width="0" height="120" fill="#fff" mask="url(#satori_om-id)"/></mask><mask id="satori_om-id-0-2"><rect x="0" y="0" width="0" height="120" fill="#fff" mask="url(#satori_om-id)"/></mask><clipPath id="satori_bct-id-1" clip-path="url(#satori_cp-id)"><path d="M116.8 66.1L116.8 66.1Q115.3 66.1 114.2 65.5Q113.0 64.8 112.4 63.6Q111.7 62.3 111.7 60.6L111.7 60.6Q111.7 58.8 112.4 57.5Q113.0 56.3 114.2 55.6Q115.3 54.9 116.8 54.9L116.8 54.9Q117.7 54.9 118.5 55.2Q119.3 55.5 119.9 56.0Q120.5 56.5 120.9 57.2Q121.3 57.9 121.5 58.8L121.5 58.8L119.2 58.8Q119.1 58.4 118.9 58.0Q118.7 57.7 118.4 57.4Q118.1 57.2 117.7 57.1Q117.3 56.9 116.8 56.9L116.8 56.9Q116.0 56.9 115.3 57.4Q114.7 57.8 114.3 58.6Q114.0 59.4 114.0 60.6L114.0 60.6Q114.0 61.7 114.3 62.5Q114.7 63.3 115.3 63.8Q116.0 64.2 116.8 64.2L116.8 64.2Q117.3 64.2 117.7 64.0Q118.1 63.9 118.4 63.7Q118.7 63.4 118.9 63.1Q119.1 62.7 119.2 62.3L119.2 62.3L121.5 62.3Q121.4 63.0 121.0 63.7Q120.6 64.4 120.0 65.0Q119.4 65.5 118.6 65.8Q117.8 66.1 116.8 66.1ZM127.1 66.2L127.1 66.2Q125.8 66.2 124.8 65.8Q123.8 65.4 123.3 64.6Q122.7 63.8 122.7 62.6L122.7 62.6L124.9 62.6Q124.9 63.2 125.2 63.5Q125.5 63.9 126.0 64.1Q126.5 64.3 127.1 64.3L127.1 64.3Q127.7 64.3 128.1 64.1Q128.5 63.9 128.8 63.6Q129.0 63.3 129.0 62.9L129.0 62.9Q129.0 62.5 128.8 62.3Q128.6 62.0 128.2 61.8Q127.8 61.6 127.2 61.5L127.2 61.5L126.0 61.2Q124.6 60.9 123.8 60.1Q123.0 59.4 123.0 58.2L123.0 58.2Q123.0 57.2 123.5 56.5Q124.1 55.8 125.0 55.4Q125.9 54.9 127.1 54.9L127.1 54.9Q128.3 54.9 129.2 55.4Q130.1 55.8 130.6 56.5Q131.1 57.2 131.1 58.2L131.1 58.2L129.0 58.2Q128.9 57.5 128.4 57.2Q127.9 56.8 127.1 56.8L127.1 56.8Q126.5 56.8 126.1 57.0Q125.7 57.1 125.5 57.4Q125.3 57.7 125.3 58.1L125.3 58.1Q125.3 58.5 125.5 58.8Q125.8 59.0 126.2 59.2Q126.6 59.3 127.0 59.5L127.0 59.5L128.0 59.7Q128.7 59.9 129.3 60.1Q129.9 60.4 130.4 60.8Q130.8 61.2 131.1 61.7Q131.3 62.2 131.3 62.9L131.3 62.9Q131.3 63.9 130.8 64.6Q130.3 65.4 129.4 65.8Q128.4 66.2 127.1 66.2ZM136.9 66.2L136.9 66.2Q135.6 66.2 134.6 65.8Q133.7 65.4 133.1 64.6Q132.6 63.8 132.5 62.6L132.5 62.6L134.7 62.6Q134.8 63.2 135.0 63.5Q135.3 63.9 135.8 64.1Q136.3 64.3 136.9 64.3L136.9 64.3Q137.5 64.3 137.9 64.1Q138.4 63.9 138.6 63.6Q138.9 63.3 138.9 62.9L138.9 62.9Q138.9 62.5 138.6 62.3Q138.4 62.0 138.0 61.8Q137.6 61.6 137.0 61.5L137.0 61.5L135.8 61.2Q134.4 60.9 133.6 60.1Q132.8 59.4 132.8 58.2L132.8 58.2Q132.8 57.2 133.4 56.5Q133.9 55.8 134.8 55.4Q135.7 54.9 136.9 54.9L136.9 54.9Q138.1 54.9 139.0 55.4Q139.9 55.8 140.5 56.5Q141.0 57.2 141.0 58.2L141.0 58.2L138.8 58.2Q138.8 57.5 138.2 57.2Q137.7 56.8 136.9 56.8L136.9 56.8Q136.3 56.8 135.9 57.0Q135.5 57.1 135.3 57.4Q135.1 57.7 135.1 58.1L135.1 58.1Q135.1 58.5 135.4 58.8Q135.6 59.0 136.0 59.2Q136.4 59.3 136.9 59.5L136.9 59.5L137.9 59.7Q138.5 59.9 139.1 60.1Q139.7 60.4 140.2 60.8Q140.6 61.2 140.9 61.7Q141.1 62.2 141.1 62.9L141.1 62.9Q141.1 63.9 140.6 64.6Q140.1 65.4 139.2 65.8Q138.2 66.2 136.9 66.2Z M153.1 69.1L153.1 69.1Q151.4 69.1 150.1 68.7Q148.8 68.2 147.8 67.3Q146.9 66.4 146.5 65.2Q146.0 63.9 146.0 62.2L146.0 62.2Q146.0 60.6 146.4 59.3Q146.9 58.1 147.8 57.1Q148.7 56.2 150.0 55.7Q151.3 55.2 153.0 55.2L153.0 55.2Q154.6 55.2 155.9 55.6Q157.1 56.1 158.0 57.0Q158.9 57.8 159.4 59.0Q159.8 60.1 159.8 61.5L159.8 61.5Q159.8 62.4 159.7 63.2Q159.5 63.9 159.1 64.5Q158.8 65.1 158.2 65.5Q157.6 65.8 156.8 65.8L156.8 65.8Q156.3 65.8 155.9 65.7Q155.5 65.5 155.2 65.3Q154.9 65.0 154.8 64.6L154.8 64.6L154.8 64.6Q154.6 65.1 154.0 65.5Q153.4 65.8 152.6 65.8L152.6 65.8Q151.6 65.8 150.9 65.3Q150.2 64.9 149.8 64.1Q149.4 63.2 149.4 62.1L149.4 62.1Q149.4 61.1 149.8 60.2Q150.2 59.4 150.9 59.0Q151.7 58.5 152.6 58.5L152.6 58.5Q153.3 58.5 153.9 58.7Q154.4 59.0 154.6 59.4L154.6 59.4L154.7 59.4L154.7 58.7L156.2 58.7L156.2 63.6Q156.2 64.0 156.3 64.2Q156.5 64.4 156.8 64.4L156.8 64.4Q157.3 64.4 157.6 64.1Q157.8 63.8 157.9 63.2Q158.1 62.6 158.1 61.6L158.1 61.6Q158.1 60.5 157.8 59.7Q157.5 58.8 156.8 58.1Q156.2 57.5 155.3 57.2Q154.4 56.8 153.1 56.8L153.1 56.8Q151.8 56.8 150.9 57.2Q149.9 57.6 149.2 58.3Q148.5 58.9 148.2 59.9Q147.8 60.9 147.8 62.2L147.8 62.2Q147.8 63.5 148.2 64.4Q148.5 65.4 149.2 66.1Q149.9 66.8 150.9 67.1Q151.9 67.5 153.2 67.5L153.2 67.5Q153.8 67.5 154.4 67.4Q154.9 67.3 155.4 67.1Q155.8 67.0 156.1 66.9L156.1 66.9L156.7 68.4Q156.4 68.6 155.8 68.8Q155.2 68.9 154.5 69.0Q153.8 69.1 153.1 69.1ZM152.8 64.2L152.8 64.2Q153.4 64.2 153.8 64.0Q154.2 63.8 154.4 63.3Q154.6 62.8 154.6 62.1L154.6 62.1Q154.6 61.4 154.4 61.0Q154.2 60.6 153.8 60.4Q153.4 60.2 152.8 60.2L152.8 60.2Q152.2 60.2 151.9 60.4Q151.5 60.7 151.3 61.1Q151.0 61.5 151.0 62.1L151.0 62.1Q151.0 62.7 151.2 63.2Q151.4 63.7 151.8 64.0Q152.2 64.2 152.8 64.2ZM163.7 66L161.5 66L161.5 55.1L163.7 55.1L163.7 61.0L163.8 61.0L166.5 57.8L169.0 57.8L166.0 61.4L169.2 66L166.6 66L164.3 62.7L163.7 63.4L163.7 66ZM173.9 66.2L173.9 66.2Q172.6 66.2 171.7 65.6Q170.8 65.1 170.3 64.2Q169.8 63.2 169.8 61.9L169.8 61.9Q169.8 60.7 170.3 59.7Q170.8 58.8 171.7 58.2Q172.6 57.7 173.8 57.7L173.8 57.7Q174.6 57.7 175.3 58.0Q176.0 58.2 176.5 58.7Q177.0 59.3 177.3 60.0Q177.6 60.8 177.6 61.9L177.6 61.9L177.6 62.5L172.0 62.5Q172.0 63.1 172.2 63.5L172.2 63.5Q172.5 64.0 172.9 64.3Q173.3 64.5 173.9 64.5L173.9 64.5Q174.3 64.5 174.6 64.4Q174.9 64.3 175.1 64.1Q175.4 63.9 175.5 63.5L175.5 63.5L177.5 63.9Q177.3 64.6 176.8 65.1Q176.3 65.6 175.6 65.9Q174.8 66.2 173.9 66.2ZM172.0 61.1L172.0 61.1L175.5 61.1Q175.4 60.7 175.3 60.4L175.3 60.4Q175.1 59.9 174.7 59.6Q174.3 59.4 173.8 59.4L173.8 59.4Q173.2 59.4 172.8 59.6Q172.4 59.9 172.2 60.3L172.2 60.3Q172.1 60.7 172.0 61.1ZM179.0 68.9L179.0 68.9L179.6 67.2L179.8 67.3Q180.3 67.4 180.6 67.4Q181.0 67.3 181.2 67.1Q181.4 66.9 181.4 66.5L181.4 66.5L181.5 66.0L178.4 57.8L180.7 57.8L182.1 62.1Q182.4 62.9 182.5 63.7L182.5 63.7Q182.6 63.9 182.6 64.2L182.6 64.2Q182.7 63.9 182.8 63.7L182.8 63.7Q183.0 62.9 183.2 62.1L183.2 62.1L184.7 57.8L187.0 57.8L183.5 67.0Q183.2 67.6 182.9 68.1Q182.5 68.6 181.9 68.9Q181.3 69.1 180.5 69.1L180.5 69.1Q180.0 69.1 179.7 69.1Q179.3 69.0 179.0 68.9ZM191.0 57.8L192.7 57.8L192.7 59.5L191.0 59.5L191.0 66L188.8 66L188.8 59.5L187.3 59.5L187.3 57.8L188.8 57.8L188.8 57.2Q188.8 56.3 189.1 55.7Q189.5 55.2 190.1 54.9Q190.7 54.6 191.4 54.6L191.4 54.6Q192.0 54.6 192.4 54.7Q192.8 54.7 193.0 54.8L193.0 54.8L192.6 56.5Q192.5 56.4 192.3 56.4Q192.1 56.3 191.9 56.3L191.9 56.3Q191.4 56.3 191.2 56.6Q191.0 56.8 191.0 57.3L191.0 57.3L191.0 57.8ZM196.3 66L194.1 66L194.1 57.8L196.2 57.8L196.2 59.2L196.3 59.2Q196.5 58.5 197.1 58.1Q197.6 57.7 198.3 57.7L198.3 57.7Q198.5 57.7 198.7 57.7Q198.9 57.7 199.0 57.8L199.0 57.8L199.0 59.7Q198.9 59.7 198.6 59.7Q198.3 59.6 198.1 59.6L198.1 59.6Q197.6 59.6 197.2 59.8Q196.8 60.1 196.5 60.4Q196.3 60.8 196.3 61.3L196.3 61.3L196.3 66ZM202.5 66.2L202.5 66.2Q201.7 66.2 201.1 65.9Q200.5 65.6 200.1 65.1Q199.8 64.5 199.8 63.7L199.8 63.7Q199.8 63.0 200.0 62.6Q200.3 62.1 200.7 61.8Q201.2 61.5 201.7 61.4Q202.3 61.3 202.9 61.2L202.9 61.2Q203.6 61.1 204.0 61.1Q204.4 61.0 204.7 60.9Q204.9 60.7 204.9 60.5L204.9 60.5L204.9 60.4Q204.9 60.1 204.7 59.8Q204.6 59.6 204.3 59.5Q204.0 59.3 203.6 59.3L203.6 59.3Q203.1 59.3 202.8 59.5Q202.5 59.6 202.3 59.8Q202.1 60.0 202.0 60.3L202.0 60.3L200.0 60.0Q200.2 59.2 200.7 58.7Q201.2 58.2 201.9 58.0Q202.7 57.7 203.6 57.7L203.6 57.7Q204.2 57.7 204.9 57.9Q205.5 58.0 206.0 58.4Q206.5 58.7 206.8 59.2Q207.0 59.7 207.0 60.5L207.0 60.5L207.0 66L205.0 66L205.0 64.9L204.9 64.9Q204.7 65.2 204.4 65.5Q204.0 65.8 203.6 66.0Q203.1 66.2 202.5 66.2ZM203.1 64.6L203.1 64.6Q203.6 64.6 204.0 64.4Q204.4 64.2 204.6 63.9Q204.9 63.5 204.9 63.1L204.9 63.1L204.9 62.2Q204.8 62.3 204.6 62.3Q204.4 62.4 204.1 62.4Q203.9 62.5 203.7 62.5Q203.4 62.5 203.2 62.6L203.2 62.6Q202.8 62.6 202.5 62.7Q202.2 62.9 202.1 63.1Q201.9 63.3 201.9 63.6L201.9 63.6Q201.9 64.0 202.0 64.2Q202.2 64.4 202.5 64.5Q202.8 64.6 203.1 64.6ZM211.1 66L208.9 66L208.9 57.8L211.0 57.8L211.0 59.4Q211.2 58.9 211.5 58.6L211.5 58.6Q211.8 58.1 212.3 57.9Q212.8 57.7 213.4 57.7L213.4 57.7Q214.3 57.7 214.8 58.2L214.8 58.2Q215.2 58.7 215.5 59.5L215.5 59.5Q215.7 59.0 216.0 58.7L216.0 58.7Q216.4 58.2 216.9 57.9Q217.5 57.7 218.1 57.7L218.1 57.7Q218.9 57.7 219.5 58.0Q220.1 58.3 220.4 59.0Q220.7 59.6 220.7 60.5L220.7 60.5L220.7 66L218.5 66L218.5 60.9Q218.5 60.2 218.2 59.9Q217.8 59.5 217.2 59.5L217.2 59.5Q216.8 59.5 216.5 59.7Q216.2 59.9 216.1 60.2Q215.9 60.5 215.9 61.0L215.9 61.0L215.9 66L213.8 66L213.8 60.8Q213.8 60.2 213.4 59.9Q213.1 59.5 212.5 59.5L212.5 59.5Q212.1 59.5 211.8 59.7Q211.5 59.9 211.3 60.2Q211.1 60.6 211.1 61.0L211.1 61.0L211.1 66ZM226.3 66.2L226.3 66.2Q225.1 66.2 224.2 65.6Q223.2 65.1 222.8 64.2Q222.3 63.2 222.3 61.9L222.3 61.9Q222.3 60.7 222.8 59.7Q223.2 58.8 224.1 58.2Q225.0 57.7 226.2 57.7L226.2 57.7Q227.0 57.7 227.7 58.0Q228.4 58.2 228.9 58.7Q229.5 59.3 229.8 60.0Q230.0 60.8 230.0 61.9L230.0 61.9L230.0 62.5L224.4 62.5Q224.5 63.1 224.7 63.5L224.7 63.5Q224.9 64.0 225.3 64.3Q225.8 64.5 226.3 64.5L226.3 64.5Q226.7 64.5 227.1 64.4Q227.4 64.3 227.6 64.1Q227.8 63.9 227.9 63.5L227.9 63.5L229.9 63.9Q229.7 64.6 229.2 65.1Q228.7 65.6 228.0 65.9Q227.3 66.2 226.3 66.2ZM224.5 61.1L224.5 61.1L227.9 61.1Q227.9 60.7 227.8 60.4L227.8 60.4Q227.6 59.9 227.2 59.6Q226.8 59.4 226.2 59.4L226.2 59.4Q225.7 59.4 225.3 59.6Q224.9 59.9 224.6 60.3L224.6 60.3Q224.5 60.7 224.5 61.1ZM234.8 66.2L234.8 66.2Q233.8 66.2 233.1 65.9Q232.3 65.6 231.8 65.1Q231.3 64.5 231.2 63.8L231.2 63.8L233.2 63.4Q233.4 64.0 233.8 64.3Q234.2 64.5 234.9 64.5L234.9 64.5Q235.5 64.5 235.9 64.3Q236.2 64.1 236.2 63.7L236.2 63.7Q236.2 63.4 236.0 63.2Q235.7 63.0 235.2 62.9L235.2 62.9L233.8 62.6Q232.6 62.3 232.0 61.7Q231.4 61.2 231.4 60.3L231.4 60.3Q231.4 59.5 231.8 58.9Q232.3 58.3 233.0 58.0Q233.8 57.7 234.8 57.7L234.8 57.7Q235.8 57.7 236.5 58.0Q237.2 58.2 237.7 58.7Q238.1 59.2 238.3 59.9L238.3 59.9L236.3 60.2Q236.2 59.8 235.8 59.6Q235.5 59.3 234.9 59.3L234.9 59.3Q234.3 59.3 234.0 59.5Q233.6 59.7 233.6 60.1L233.6 60.1Q233.6 60.4 233.8 60.6Q234.1 60.9 234.6 61.0L234.6 61.0L236.1 61.3Q237.3 61.5 237.9 62.0Q238.5 62.6 238.5 63.5L238.5 63.5Q238.5 64.3 238.0 64.9Q237.5 65.5 236.7 65.8Q235.9 66.2 234.8 66.2Z M248.6 65.4L246.7 65.4L246.7 62.5L243.9 62.5L243.9 60.8L246.7 60.8L246.7 57.9L248.6 57.9L248.6 60.8L251.4 60.8L251.4 62.5L248.6 62.5L248.6 65.4Z M261.3 66.2L261.3 66.2Q260.0 66.2 259.0 65.8Q258.0 65.4 257.5 64.6Q256.9 63.8 256.9 62.6L256.9 62.6L259.1 62.6Q259.1 63.2 259.4 63.5Q259.7 63.9 260.2 64.1Q260.7 64.3 261.3 64.3L261.3 64.3Q261.9 64.3 262.3 64.1Q262.8 63.9 263.0 63.6Q263.2 63.3 263.2 62.9L263.2 62.9Q263.2 62.5 263.0 62.3Q262.8 62.0 262.4 61.8Q262.0 61.6 261.4 61.5L261.4 61.5L260.2 61.2Q258.8 60.9 258.0 60.1Q257.2 59.4 257.2 58.2L257.2 58.2Q257.2 57.2 257.7 56.5Q258.3 55.8 259.2 55.4Q260.1 54.9 261.3 54.9L261.3 54.9Q262.5 54.9 263.4 55.4Q264.3 55.8 264.8 56.5Q265.3 57.2 265.4 58.2L265.4 58.2L263.2 58.2Q263.1 57.5 262.6 57.2Q262.1 56.8 261.3 56.8L261.3 56.8Q260.7 56.8 260.3 57.0Q259.9 57.1 259.7 57.4Q259.5 57.7 259.5 58.1L259.5 58.1Q259.5 58.5 259.7 58.8Q260.0 59.0 260.4 59.2Q260.8 59.3 261.2 59.5L261.2 59.5L262.2 59.7Q262.9 59.9 263.5 60.1Q264.1 60.4 264.6 60.8Q265.0 61.2 265.3 61.7Q265.5 62.2 265.5 62.9L265.5 62.9Q265.5 63.9 265.0 64.6Q264.5 65.4 263.6 65.8Q262.6 66.2 261.3 66.2ZM273.2 66L270.3 66L266.5 55.1L269.0 55.1L270.7 60.4Q271.0 61.3 271.3 62.5L271.3 62.5Q271.6 63.3 271.8 64.2L271.8 64.2Q272.0 63.3 272.2 62.5L272.2 62.5Q272.5 61.3 272.8 60.4L272.8 60.4L274.5 55.1L277.0 55.1L273.2 66ZM283.1 66.1L283.1 66.1Q281.6 66.1 280.5 65.5Q279.3 64.8 278.7 63.5Q278.0 62.3 278.0 60.6L278.0 60.6Q278.0 58.8 278.7 57.5Q279.4 56.3 280.5 55.6Q281.7 54.9 283.1 54.9L283.1 54.9Q284.0 54.9 284.8 55.2Q285.6 55.5 286.2 56.0Q286.8 56.5 287.2 57.1Q287.6 57.8 287.7 58.6L287.7 58.6L285.5 58.6Q285.4 58.2 285.1 57.9Q284.9 57.6 284.6 57.4Q284.3 57.2 284.0 57.0Q283.6 56.9 283.1 56.9L283.1 56.9Q282.3 56.9 281.6 57.3Q281.0 57.8 280.6 58.6Q280.3 59.4 280.3 60.5Q280.3 61.7 280.6 62.5Q281.0 63.3 281.6 63.7Q282.3 64.2 283.2 64.2L283.2 64.2Q283.9 64.2 284.5 63.9Q285.1 63.6 285.4 63.1L285.4 63.1Q285.7 62.6 285.7 61.9L285.7 61.9L283.3 61.9L283.3 60.2L287.9 60.2L287.9 61.5Q287.9 63.0 287.2 64.0Q286.6 65.0 285.6 65.6Q284.5 66.1 283.1 66.1Z "/></clipPath><defs><pattern id="satori_pattern_id-1_0" x="0" y="0" width="1" height="1" patternUnits="objectBoundingBox"><linearGradient id="satori_biid-1_0" x1="0" y1="0" x2="1" y2="0" spreadMethod="pad"><stop offset="0%" stop-color="#ffffff"/><stop offset="50%" stop-color="#ffe4ec"/><stop offset="100%" stop-color="#ffb6c1"/></linearGradient><rect x="0" y="0" width="178" height="18" fill="url(#satori_biid-1_0)"/></pattern></defs><mask id="satori_om-id-1"><rect x="111" y="51" width="178" height="18" fill="#fff" mask="url(#satori_om-id)"/></mask><rect x="111" y="51" width="178" height="18" fill="url(#satori_pattern_id-1_0)" clip-path="url(#satori_bct-id-1)" mask="url(#satori_om-id)"/></svg>