<!-- Generated by readme-aura https://github.com/collectioneur/readme-aura -->
<svg width="800" height="180" viewBox="0 0 800 180" xmlns="http://www.w3.org/2000/svg"><defs><clipPath id="satori_bc-id"><path x="0" y="0" width="800" height="180" d="M20,0 h760 a20,20 0 0 1 20,20 v140 a20,20 0 0 1 -20,20 h-760 a20,20 0 0 1 -20,-20 v-140 a20,20 0 0 1 20,-20"/></clipPath></defs><clipPath id="satori_cp-id"><path x="0" y="0" width="800" height="180" d="M20,0 h760 a20,20 0 0 1 20,20 v140 a20,20 0 0 1 -20,20 h-760 a20,20 0 0 1 -20,-20 v-140 a20,20 0 0 1 20,-20"/></clipPath><mask id="satori_om-id"><rect x="1" y="1" width="798" height="178" fill="#fff"/><path width="800" height="180" fill="none" stroke="#000" stroke-width="2" d="M5.8580000000000005,5.8580000000000005 A20,20 0 0 1 20,0 h760 a20,20 0 0 1 20,20 v140 a20,20 0 0 1 -20,20 h-760 a20,20 0 0 1 -20,-20 v-140 A20,20 0 0 1 5.8580000000000005,5.8580000000000005"/></mask><path x="0" y="0" width="800" height="180" fill="#08080c" d="M20,0 h760 a20,20 0 0 1 20,20 v140 a20,20 0 0 1 -20,20 h-760 a20,20 0 0 1 -20,-20 v-140 a20,20 0 0 1 20,-20"/><path width="800" height="180" clip-path="url(#satori_bc-id)" fill="none" stroke="rgba(110,80,220,0.18)" stroke-width="2" d="M5.8580000000000005,5.8580000000000005 A20,20 0 0 1 20,0 h760 a20,20 0 0 1 20,20 v140 a20,20 0 0 1 -20,20 h-760 a20,20 0 0 1 -20,-20 v-140 A20,20 0 0 1 5.8580000000000005,5.8580000000000005"/><clipPath id="satori_cp-id-0" clip-path="url(#satori_cp-id)"><rect x="1" y="1" width="800" height="180"/></clipPath><mask id="satori_om-id-0"><rect x="1" y="1" width="800" height="180" fill="#fff" mask="url(#satori_om-id)"/></mask><svg x="1" y="1" width="800" height="180" preserveAspectRatio="none" clip-path="url(#satori_cp-id-0)" mask="url(#satori_om-id-0)"><defs><radialGradient id="bng1" cx="50%" cy="50%" r="50%"><stop offset="0%" stop-color="rgba(110,20,210,0.65)"></stop><stop offset="70%" stop-color="rgba(110,20,210,0)"></stop></radialGradient><radialGradient id="bng2" cx="50%" cy="50%" r="50%"><stop offset="0%" stop-color="rgba(40,70,255,0.55)"></stop><stop offset="70%" stop-color="rgba(40,70,255,0)"></stop></radialGradient><radialGradient id="bng3" cx="50%" cy="50%" r="50%"><stop offset="0%" stop-color="rgba(255,50,180,0.5)"></stop><stop offset="70%" stop-color="rgba(255,50,180,0)"></stop></radialGradient><radialGradient id="bng4" cx="50%" cy="50%" r="50%"><stop offset="0%" stop-color="rgba(160,30,255,0.5)"></stop><stop offset="70%" stop-color="rgba(160,30,255,0)"></stop></radialGradient><radialGradient id="bng5" cx="50%" cy="50%" r="50%"><stop offset="0%" stop-color="rgba(0,140,255,0.45)"></stop><stop offset="70%" stop-color="rgba(0,140,255,0)"></stop></radialGradient><radialGradient id="bng6" cx="50%" cy="50%" r="50%"><stop offset="0%" stop-color="rgba(200,30,200,0.45)"></stop><stop offset="70%" stop-color="rgba(200,30,200,0)"></stop></radialGradient><radialGradient id="bng7" cx="50%" cy="50%" r="50%"><stop offset="0%" stop-color="rgba(100,25,205,0.42)"></stop><stop offset="70%" stop-color="rgba(100,25,205,0)"></stop></radialGradient><radialGradient id="bng8" cx="50%" cy="50%" r="50%"><stop offset="0%" stop-color="rgba(60,80,255,0.38)"></stop><stop offset="70%" stop-color="rgba(60,80,255,0)"></stop></radialGradient></defs><ellipse id="bn-tl1" cx="-100" cy="60" rx="140" ry="10" fill="url(#bng1)"></ellipse><ellipse id="bn-tl2" cx="840" cy="50" rx="120" ry="20" fill="url(#bng2)"></ellipse><ellipse id="bn-tr1" cx="720" cy="55" rx="130" ry="25" fill="url(#bng3)"></ellipse><ellipse id="bn-tr2" cx="660" cy="65" rx="110" ry="15" fill="url(#bng4)"></ellipse><ellipse id="bn-br1" cx="700" cy="130" rx="140" ry="10" fill="url(#bng5)"></ellipse><ellipse id="bn-br2" cx="740" cy="140" rx="100" ry="10" fill="url(#bng6)"></ellipse><ellipse id="bn-bl1" cx="100" cy="125" rx="130" ry="15" fill="url(#bng7)"></ellipse><ellipse id="bn-bl2" cx="60" cy="135" rx="110" ry="15" fill="url(#bng8)"></ellipse><ellipse id="bn-tl1" cx="-50" cy="60" rx="140" ry="10" fill="url(#bng1)"></ellipse><ellipse id="bn-tl2" cx="800" cy="50" rx="120" ry="10" fill="url(#bng2)"></ellipse><ellipse id="bn-tr1" cx="230" cy="55" rx="130" ry="25" fill="url(#bng3)"></ellipse><ellipse id="bn-tr2" cx="400" cy="65" rx="110" ry="15" fill="url(#bng4)"></ellipse><ellipse id="bn-br1" cx="500" cy="130" rx="140" ry="20" fill="url(#bng5)"></ellipse><ellipse id="bn-br2" cx="40" cy="140" rx="100" ry="10" fill="url(#bng6)"></ellipse><ellipse id="bn-bl1" cx="100" cy="125" rx="130" ry="15" fill="url(#bng7)"></ellipse><ellipse id="bn-bl2" cx="240" cy="135" rx="110" ry="15" fill="url(#bng8)"></ellipse><style>

      @keyframes bn-drift-r { 0% { transform: translate(0, 0); opacity: 0.8; } 100% { transform: translate(1056px, 0); opacity: 1.05; } }
      @keyframes bn-drift-l { 0% { transform: translate(0, 0); opacity: 0.75; } 100% { transform: translate(-1003px, 0); opacity: 1; } }
      @keyframes bn-drift-u { 0% { transform: translate(0, 0); opacity: 0.85; } 100% { transform: translate(1000px, 0); opacity: 1; } }
      @keyframes bn-pulse { 0% { transform: scale(1); opacity: 0.8; } 100% { transform: translate(-1044px, 0); opacity: 0.5; } }
      #bn-tl1 { animation: bn-drift-r 0.8s infinite; }
      #bn-tl2 { animation: bn-drift-l 1.0s  infinite; }
      #bn-tr1 { animation: bn-drift-l 0.9s infinite 0.3s; }
      #bn-tr2 { animation: bn-drift-r 1.0s  infinite 0.1s; }
      #bn-br1 { animation: bn-drift-r 1.2s infinite 0.5s; }
      #bn-br2 { animation: bn-pulse 1s infinite; }
      #bn-bl1 { animation: bn-drift-l 1.3s infinite 0.2s; }
      #bn-bl2 { animation: bn-drift-u 0.7s infinite 0.4s; }
    
</style>
</svg><mask id="satori_om-id-0-0"><rect x="1" y="1" width="0" height="180" fill="#fff" mask="url(#satori_om-id)"/></mask><mask id="satori_om-id-0-0-0"><rect x="1" y="1" width="0" height="180" fill="#fff" mask="url(#satori_om-id)"/></mask><mask id="satori_om-id-0-0-0-0"><rect x="1" y="1" width="0" height="180" fill="#fff" mask="url(#satori_om-id)"/></mask><mask id="satori_om-id-0-0-0-1"><rect x="1" y="1" width="0" height="180" fill="#fff" mask="url(#satori_om-id)"/></mask><mask id="satori_om-id-0-0-1"><rect x="1" y="1" width="0" height="180" fill="#fff" mask="url(#satori_om-id)"/></mask><mask id="satori_om-id-0-0-1-0"><rect x="1" y="1" width="0" height="180" fill="#fff" mask="url(#satori_om-id)"/></mask><mask id="satori_om-id-0-0-1-1"><rect x="1" y="1" width="0" height="180" fill="#fff" mask="url(#satori_om-id)"/></mask><mask id="satori_om-id-0-0-2"><rect x="1" y="1" width="0" height="180" fill="#fff" mask="url(#satori_om-id)"/></mask><mask id="satori_om-id-0-0-2-0"><rect x="1" y="1" width="0" height="180" fill="#fff" mask="url(#satori_om-id)"/></mask><mask id="satori_om-id-0-0-2-1"><rect x="1" y="1" width="0" height="180" fill="#fff" mask="url(#satori_om-id)"/></mask><mask id="satori_om-id-0-0-3"><rect x="1" y="1" width="0" height="180" fill="#fff" mask="url(#satori_om-id)"/></mask><mask id="satori_om-id-0-0-3-0"><rect x="1" y="1" width="0" height="180" fill="#fff" mask="url(#satori_om-id)"/></mask><mask id="satori_om-id-0-0-3-1"><rect x="1" y="1" width="0" height="180" fill="#fff" mask="url(#satori_om-id)"/></mask><mask id="satori_om-id-0-0-4"><rect x="1" y="1" width="0" height="180" fill="#fff" mask="url(#satori_om-id)"/></mask><mask id="satori_om-id-0-0-4-0"><rect x="1" y="1" width="0" height="180" fill="#fff" mask="url(#satori_om-id)"/></mask><mask id="satori_om-id-0-0-4-1"><rect x="1" y="1" width="0" height="180" fill="#fff" mask="url(#satori_om-id)"/></mask><mask id="satori_om-id-0-0-5"><rect x="1" y="1" width="0" height="180" fill="#fff" mask="url(#satori_om-id)"/></mask><mask id="satori_om-id-0-0-5-0"><rect x="1" y="1" width="0" height="180" fill="#fff" mask="url(#satori_om-id)"/></mask><mask id="satori_om-id-0-0-5-1"><rect x="1" y="1" width="0" height="180" fill="#fff" mask="url(#satori_om-id)"/></mask><mask id="satori_om-id-0-0-6"><rect x="1" y="1" width="0" height="180" fill="#fff" mask="url(#satori_om-id)"/></mask><mask id="satori_om-id-0-0-6-0"><rect x="1" y="1" width="0" height="180" fill="#fff" mask="url(#satori_om-id)"/></mask><mask id="satori_om-id-0-0-6-1"><rect x="1" y="1" width="0" height="180" fill="#fff" mask="url(#satori_om-id)"/></mask><mask id="satori_om-id-0-0-7"><rect x="1" y="1" width="0" height="180" fill="#fff" mask="url(#satori_om-id)"/></mask><mask id="satori_om-id-0-0-7-0"><rect x="1" y="1" width="0" height="180" fill="#fff" mask="url(#satori_om-id)"/></mask><mask id="satori_om-id-0-0-7-1"><rect x="1" y="1" width="0" height="180" fill="#fff" mask="url(#satori_om-id)"/></mask><mask id="satori_om-id-0-1"><rect x="1" y="1" width="0" height="180" fill="#fff" mask="url(#satori_om-id)"/></mask><mask id="satori_om-id-0-2"><rect x="1" y="1" width="0" height="180" fill="#fff" mask="url(#satori_om-id)"/></mask><mask id="satori_om-id-0-3"><rect x="1" y="1" width="0" height="180" fill="#fff" mask="url(#satori_om-id)"/></mask><mask id="satori_om-id-0-4"><rect x="1" y="1" width="0" height="180" fill="#fff" mask="url(#satori_om-id)"/></mask><mask id="satori_om-id-0-5"><rect x="1" y="1" width="0" height="180" fill="#fff" mask="url(#satori_om-id)"/></mask><mask id="satori_om-id-0-6"><rect x="1" y="1" width="0" height="180" fill="#fff" mask="url(#satori_om-id)"/></mask><mask id="satori_om-id-0-7"><rect x="1" y="1" width="0" height="180" fill="#fff" mask="url(#satori_om-id)"/></mask><mask id="satori_om-id-0-8"><rect x="1" y="1" width="0" height="180" fill="#fff" mask="url(#satori_om-id)"/></mask><mask id="satori_om-id-0-9"><rect x="1" y="1" width="0" height="180" fill="#fff" mask="url(#satori_om-id)"/></mask><mask id="satori_om-id-0-10"><rect x="1" y="1" width="0" height="180" fill="#fff" mask="url(#satori_om-id)"/></mask><mask id="satori_om-id-0-11"><rect x="1" y="1" width="0" height="180" fill="#fff" mask="url(#satori_om-id)"/></mask><mask id="satori_om-id-0-12"><rect x="1" y="1" width="0" height="180" fill="#fff" mask="url(#satori_om-id)"/></mask><mask id="satori_om-id-0-13"><rect x="1" y="1" width="0" height="180" fill="#fff" mask="url(#satori_om-id)"/></mask><mask id="satori_om-id-0-14"><rect x="1" y="1" width="0" height="180" fill="#fff" mask="url(#satori_om-id)"/></mask><mask id="satori_om-id-0-15"><rect x="1" y="1" width="0" height="180" fill="#fff" mask="url(#satori_om-id)"/></mask><mask id="satori_om-id-0-16"><rect x="1" y="1" width="0" height="180" fill="#fff" mask="url(#satori_om-id)"/></mask><mask id="satori_om-id-1"><rect x="215" y="37" width="370" height="62" fill="#fff" mask="url(#satori_om-id)"/></mask><defs><clipPath id="satori_bc-id-1-0" clip-path="url(#satori_cp-id)"><path x="215" y="44" width="48" height="48" d="M227,44 h24 a12,12 0 0 1 12,12 v24 a12,12 0 0 1 -12,12 h-24 a12,12 0 0 1 -12,-12 v-24 a12,12 0 0 1 12,-12"/></clipPath></defs><mask id="satori_om-id-1-0"><rect x="216" y="45" width="46" height="46" fill="#fff" mask="url(#satori_om-id)"/><path width="48" height="48" fill="none" stroke="#000" stroke-width="2" d="M218.515,47.515 A12,12 0 0 1 227,44 h24 a12,12 0 0 1 12,12 v24 a12,12 0 0 1 -12,12 h-24 a12,12 0 0 1 -12,-12 v-24 A12,12 0 0 1 218.515,47.515"/></mask><path x="215" y="44" width="48" height="48" fill="rgba(12,10,20,0.6)" d="M227,44 h24 a12,12 0 0 1 12,12 v24 a12,12 0 0 1 -12,12 h-24 a12,12 0 0 1 -12,-12 v-24 a12,12 0 0 1 12,-12" clip-path="url(#satori_cp-id)" mask="url(#satori_om-id)"/><path width="48" height="48" clip-path="url(#satori_bc-id-1-0)" fill="none" stroke="rgba(120,80,220,0.2)" stroke-width="2" d="M218.515,47.515 A12,12 0 0 1 227,44 h24 a12,12 0 0 1 12,12 v24 a12,12 0 0 1 -12,12 h-24 a12,12 0 0 1 -12,-12 v-24 A12,12 0 0 1 218.515,47.515"/><mask id="satori_om-id-1-1"><rect x="279" y="37" width="306" height="62" fill="#fff" mask="url(#satori_om-id)"/></mask><mask id="satori_om-id-1-1-0"><rect x="279" y="37" width="306" height="39" fill="#fff" mask="url(#satori_om-id)"/></mask><g mask="url(#satori_om-id)" clip-path="url(#satori_cp-id)"><path fill="white" d="M285.7 68L281 68L281 50.5L285.5 50.5L285.5 53.6L285.7 53.6Q286.2 52.0 287.3 51.1Q288.5 50.3 289.9 50.3L289.9 50.3Q290.3 50.3 290.7 50.3Q291.1 50.4 291.5 50.5L291.5 50.5L291.5 54.6Q291.1 54.5 290.5 54.5Q290.0 54.4 289.4 54.4L289.4 54.4Q288.4 54.4 287.5 54.9Q286.6 55.3 286.2 56.1Q285.7 57.0 285.7 58.1L285.7 58.1L285.7 68ZM301.9 68.3L301.9 68.3Q299.3 68.3 297.3 67.3Q295.4 66.2 294.3 64.1Q293.3 62.1 293.3 59.4L293.3 59.4Q293.3 56.7 294.3 54.6Q295.4 52.6 297.3 51.5Q299.1 50.3 301.7 50.3L301.7 50.3Q303.4 50.3 304.9 50.9Q306.4 51.4 307.5 52.5Q308.6 53.6 309.3 55.3Q309.9 56.9 309.9 59.2L309.9 59.2L309.9 60.5L297.9 60.5Q298.0 61.8 298.5 62.8L298.5 62.8Q299.0 63.8 299.9 64.3Q300.8 64.8 302 64.8L302 64.8Q302.8 64.8 303.5 64.6Q304.2 64.3 304.6 63.9Q305.1 63.4 305.4 62.8L305.4 62.8L309.6 63.5Q309.2 65.0 308.2 66.1Q307.1 67.2 305.5 67.8Q304.0 68.3 301.9 68.3ZM298.0 57.5L298.0 57.5L305.4 57.5Q305.3 56.7 305 56.0L305 56.0Q304.6 55.0 303.8 54.4Q302.9 53.8 301.7 53.8L301.7 53.8Q300.5 53.8 299.7 54.4Q298.8 55.0 298.4 55.9L298.4 55.9Q298.0 56.7 298.0 57.5ZM318.0 68.3L318.0 68.3Q316.3 68.3 315.0 67.8Q313.7 67.2 312.9 66.0Q312.2 64.8 312.2 63.1L312.2 63.1Q312.2 61.7 312.7 60.7Q313.2 59.7 314.2 59.1Q315.1 58.5 316.3 58.2Q317.5 57.9 318.8 57.8L318.8 57.8Q320.3 57.6 321.2 57.5Q322.1 57.3 322.6 57.0Q323.0 56.8 323.0 56.2L323.0 56.2L323.0 56.1Q323.0 55.4 322.7 54.8Q322.4 54.3 321.7 54.1Q321.1 53.8 320.3 53.8L320.3 53.8Q319.3 53.8 318.7 54.1Q318 54.3 317.6 54.8Q317.2 55.2 317.0 55.8L317.0 55.8L312.7 55.1Q313.1 53.6 314.2 52.5Q315.2 51.4 316.8 50.9Q318.3 50.3 320.3 50.3L320.3 50.3Q321.7 50.3 323 50.6Q324.3 51.0 325.4 51.7Q326.4 52.4 327.1 53.5Q327.7 54.7 327.7 56.2L327.7 56.2L327.7 68L323.2 68L323.2 65.6L323.1 65.6Q322.7 66.4 322.0 67.0Q321.3 67.6 320.3 68.0Q319.3 68.3 318.0 68.3ZM319.3 65.0L319.3 65.0Q320.4 65.0 321.2 64.6Q322.1 64.2 322.5 63.4Q323.0 62.7 323.0 61.8L323.0 61.8L323.0 59.9Q322.8 60.0 322.4 60.1Q322.0 60.3 321.5 60.4Q320.9 60.5 320.4 60.5Q319.9 60.6 319.5 60.7L319.5 60.7Q318.7 60.8 318.0 61.1Q317.4 61.3 317.0 61.8Q316.7 62.3 316.7 63.0L316.7 63.0Q316.7 63.7 317 64.1Q317.3 64.6 317.9 64.8Q318.5 65.0 319.3 65.0ZM338.0 68.3L338.0 68.3Q336.0 68.3 334.4 67.3Q332.8 66.2 331.9 64.2Q330.9 62.2 330.9 59.3L330.9 59.3Q330.9 56.3 331.9 54.3Q332.9 52.3 334.5 51.3Q336.1 50.3 338.0 50.3L338.0 50.3Q339.5 50.3 340.5 50.8Q341.5 51.3 342.1 52.0Q342.7 52.8 343 53.5L343 53.5L343.2 53.5L343.2 44.7L347.8 44.7L347.8 68L343.2 68L343.2 65.2L343 65.2Q342.7 65.9 342.1 66.6Q341.5 67.3 340.5 67.8Q339.5 68.3 338.0 68.3ZM339.5 64.5L339.5 64.5Q340.7 64.5 341.5 63.9Q342.4 63.2 342.8 62.0Q343.3 60.9 343.3 59.3L343.3 59.3Q343.3 57.7 342.8 56.5Q342.4 55.4 341.5 54.7Q340.7 54.1 339.5 54.1L339.5 54.1Q338.3 54.1 337.4 54.7Q336.6 55.4 336.2 56.6Q335.8 57.8 335.8 59.3L335.8 59.3Q335.8 60.8 336.2 62Q336.6 63.2 337.4 63.9Q338.3 64.5 339.5 64.5ZM356.5 68L351.8 68L351.8 50.5L356.2 50.5L356.4 53.9Q356.7 53.0 357.3 52.3L357.3 52.3Q358.1 51.2 359.1 50.8Q360.2 50.3 361.4 50.3L361.4 50.3Q363.3 50.3 364.4 51.5L364.4 51.5Q365.3 52.4 365.9 54.2L365.9 54.2Q366.2 53.1 366.8 52.4L366.8 52.4Q367.7 51.3 368.9 50.8Q370.1 50.3 371.5 50.3L371.5 50.3Q373.1 50.3 374.3 51.0Q375.6 51.7 376.3 53.0Q377.0 54.3 377.0 56.2L377.0 56.2L377.0 68L372.4 68L372.4 57.1Q372.4 55.6 371.6 54.9Q370.8 54.2 369.6 54.2L369.6 54.2Q368.7 54.2 368.1 54.6Q367.4 55.0 367.1 55.6Q366.7 56.3 366.7 57.3L366.7 57.3L366.7 68L362.2 68L362.2 57.0Q362.2 55.7 361.4 54.9Q360.7 54.2 359.5 54.2L359.5 54.2Q358.6 54.2 358.0 54.6Q357.3 54.9 356.9 55.7Q356.5 56.4 356.5 57.4L356.5 57.4L356.5 68ZM388.9 68.3L388.9 68.3Q386.3 68.3 384.3 67.3Q382.4 66.2 381.4 64.1Q380.3 62.1 380.3 59.4L380.3 59.4Q380.3 56.7 381.3 54.6Q382.4 52.6 384.3 51.5Q386.2 50.3 388.7 50.3L388.7 50.3Q390.4 50.3 391.9 50.9Q393.4 51.4 394.5 52.5Q395.6 53.6 396.3 55.3Q396.9 56.9 396.9 59.2L396.9 59.2L396.9 60.5L385.0 60.5Q385 61.8 385.5 62.8L385.5 62.8Q386.0 63.8 386.9 64.3Q387.8 64.8 389.0 64.8L389.0 64.8Q389.8 64.8 390.5 64.6Q391.2 64.3 391.7 63.9Q392.1 63.4 392.4 62.8L392.4 62.8L396.6 63.5Q396.2 65.0 395.2 66.1Q394.1 67.2 392.6 67.8Q391.0 68.3 388.9 68.3ZM385.0 57.5L385.0 57.5L392.4 57.5Q392.3 56.7 392.0 56.0L392.0 56.0Q391.6 55.0 390.8 54.4Q390.0 53.8 388.8 53.8L388.8 53.8Q387.5 53.8 386.7 54.4Q385.8 55.0 385.4 55.9L385.4 55.9Q385.1 56.7 385.0 57.5ZM400.3 56.5L410.9 56.5L410.9 60.3L400.3 60.3L400.3 56.5ZM420.0 68.3L420.0 68.3Q418.3 68.3 417.0 67.8Q415.7 67.2 414.9 66.0Q414.1 64.8 414.1 63.1L414.1 63.1Q414.1 61.7 414.7 60.7Q415.2 59.7 416.1 59.1Q417.1 58.5 418.3 58.2Q419.4 57.9 420.7 57.8L420.7 57.8Q422.3 57.6 423.2 57.5Q424.1 57.3 424.5 57.0Q425.0 56.8 425.0 56.2L425.0 56.2L425.0 56.1Q425.0 55.4 424.7 54.8Q424.3 54.3 423.7 54.1Q423.1 53.8 422.2 53.8L422.2 53.8Q421.3 53.8 420.7 54.1Q420.0 54.3 419.6 54.8Q419.1 55.2 418.9 55.8L418.9 55.8L414.6 55.1Q415.1 53.6 416.1 52.5Q417.2 51.4 418.7 50.9Q420.3 50.3 422.3 50.3L422.3 50.3Q423.7 50.3 425.0 50.6Q426.3 51.0 427.4 51.7Q428.4 52.4 429.0 53.5Q429.7 54.7 429.7 56.2L429.7 56.2L429.7 68L425.2 68L425.2 65.6L425.1 65.6Q424.6 66.4 423.9 67.0Q423.2 67.6 422.2 68.0Q421.3 68.3 420.0 68.3ZM421.3 65.0L421.3 65.0Q422.4 65.0 423.2 64.6Q424.1 64.2 424.5 63.4Q425 62.7 425 61.8L425 61.8L425 59.9Q424.8 60.0 424.4 60.1Q424.0 60.3 423.4 60.4Q422.9 60.5 422.4 60.5Q421.9 60.6 421.5 60.7L421.5 60.7Q420.7 60.8 420.0 61.1Q419.4 61.3 419 61.8Q418.6 62.3 418.6 63.0L418.6 63.0Q418.6 63.7 419.0 64.1Q419.3 64.6 419.9 64.8Q420.5 65.0 421.3 65.0ZM439.7 68.2L439.7 68.2Q437.9 68.2 436.5 67.4Q435.1 66.6 434.4 65.2Q433.7 63.7 433.7 61.6L433.7 61.6L433.7 50.5L438.3 50.5L438.3 60.8Q438.3 62.5 439.2 63.4Q440.0 64.3 441.5 64.3L441.5 64.3Q442.5 64.3 443.3 63.9Q444.0 63.4 444.5 62.6Q444.9 61.8 444.9 60.6L444.9 60.6L444.9 50.5L449.6 50.5L449.6 68L445.2 68L445.1 64.4Q444.4 66.0 443.3 67.0L443.3 67.0Q441.8 68.2 439.7 68.2ZM458.3 68L453.6 68L453.6 50.5L458.1 50.5L458.1 53.6L458.3 53.6Q458.8 52.0 459.9 51.1Q461.0 50.3 462.5 50.3L462.5 50.3Q462.9 50.3 463.3 50.3Q463.7 50.4 464.0 50.5L464.0 50.5L464.0 54.6Q463.7 54.5 463.1 54.5Q462.5 54.4 462 54.4L462 54.4Q460.9 54.4 460.1 54.9Q459.2 55.3 458.7 56.1Q458.3 57.0 458.3 58.1L458.3 58.1L458.3 68ZM471.5 68.3L471.5 68.3Q469.8 68.3 468.5 67.8Q467.2 67.2 466.4 66.0Q465.7 64.8 465.7 63.1L465.7 63.1Q465.7 61.7 466.2 60.7Q466.8 59.7 467.7 59.1Q468.6 58.5 469.8 58.2Q471.0 57.9 472.3 57.8L472.3 57.8Q473.8 57.6 474.7 57.5Q475.6 57.3 476.1 57.0Q476.5 56.8 476.5 56.2L476.5 56.2L476.5 56.1Q476.5 55.4 476.2 54.8Q475.9 54.3 475.3 54.1Q474.6 53.8 473.8 53.8L473.8 53.8Q472.9 53.8 472.2 54.1Q471.5 54.3 471.1 54.8Q470.7 55.2 470.5 55.8L470.5 55.8L466.2 55.1Q466.6 53.6 467.7 52.5Q468.7 51.4 470.3 50.9Q471.8 50.3 473.8 50.3L473.8 50.3Q475.2 50.3 476.5 50.6Q477.8 51.0 478.9 51.7Q480.0 52.4 480.6 53.5Q481.2 54.7 481.2 56.2L481.2 56.2L481.2 68L476.8 68L476.8 65.6L476.6 65.6Q476.2 66.4 475.5 67.0Q474.8 67.6 473.8 68.0Q472.8 68.3 471.5 68.3ZM472.8 65.0L472.8 65.0Q473.9 65.0 474.8 64.6Q475.6 64.2 476.1 63.4Q476.5 62.7 476.5 61.8L476.5 61.8L476.5 59.9Q476.3 60.0 475.9 60.1Q475.5 60.3 475.0 60.4Q474.5 60.5 474.0 60.5Q473.5 60.6 473.1 60.7L473.1 60.7Q472.2 60.8 471.5 61.1Q470.9 61.3 470.5 61.8Q470.2 62.3 470.2 63.0L470.2 63.0Q470.2 63.7 470.5 64.1Q470.9 64.6 471.5 64.8Q472.0 65.0 472.8 65.0Z "/></g><mask id="satori_om-id-1-1-1"><rect x="279" y="80" width="306" height="19" fill="#fff" mask="url(#satori_om-id)"/></mask><g mask="url(#satori_om-id)" clip-path="url(#satori_cp-id)"><path fill="#a0a0b8" d="M281.9 96L280.4 96L280.4 84.4L282.2 84.4L286.9 91.8Q287.1 92.1 287.3 92.5Q287.6 93 287.9 93.6L287.9 93.6Q288.1 93.9 288.3 94.2L288.3 94.2Q288.2 93.9 288.2 93.5L288.2 93.5Q288.2 92.9 288.2 92.4Q288.2 91.9 288.2 91.5L288.2 91.5L288.2 84.4L289.6 84.4L289.6 96L287.9 96L283.7 89.4Q283.4 88.9 283.1 88.4Q282.8 87.9 282.4 87.3L282.4 87.3Q282.1 86.8 281.8 86.1L281.8 86.1Q281.8 86.7 281.8 87.2L281.8 87.2Q281.9 88.0 281.9 88.5Q281.9 89.0 281.9 89.4L281.9 89.4L281.9 96ZM296.0 96.2L296.0 96.2Q294.7 96.2 293.8 95.6Q292.9 95.1 292.4 94.1Q291.9 93.0 291.9 91.7Q291.9 90.4 292.4 89.3Q292.8 88.3 293.7 87.7Q294.6 87.2 295.8 87.2L295.8 87.2Q296.5 87.2 297.2 87.4Q297.8 87.6 298.4 88.1Q298.9 88.6 299.3 89.5Q299.6 90.3 299.6 91.5L299.6 91.5L299.6 92.1L293.3 92.1Q293.3 93.0 293.6 93.6L293.6 93.6Q294.0 94.2 294.6 94.6Q295.2 94.9 296.0 94.9L296.0 94.9Q296.5 94.9 296.9 94.8Q297.3 94.6 297.6 94.3Q297.9 94.0 298.1 93.6L298.1 93.6L299.5 94.0Q299.3 94.6 298.8 95.1Q298.3 95.6 297.6 95.9Q296.9 96.2 296.0 96.2ZM293.3 90.9L293.3 90.9L298.2 90.9Q298.1 90.3 297.9 89.8L297.9 89.8Q297.6 89.2 297.1 88.8Q296.6 88.4 295.8 88.4Q295.0 88.4 294.4 88.8Q293.9 89.2 293.6 89.8L293.6 89.8Q293.3 90.3 293.3 90.9ZM302.5 96L300.9 96L304.0 91.5L301.1 87.3L302.7 87.3L303.8 89.0Q304.2 89.6 304.5 90.2L304.5 90.2Q304.7 90.4 304.8 90.7L304.8 90.7Q304.9 90.4 305.0 90.2L305.0 90.2Q305.3 89.6 305.8 89.0L305.8 89.0L306.9 87.3L308.5 87.3L305.5 91.6L308.6 96L307.0 96L305.7 94.0Q305.3 93.4 305.0 92.8L305.0 92.8Q304.9 92.6 304.7 92.4L304.7 92.4Q304.6 92.6 304.5 92.8L304.5 92.8Q304.2 93.4 303.8 94.0L303.8 94.0L302.5 96ZM312.0 87.3L313.8 87.3L313.8 88.5L312.0 88.5L312.0 93.7Q312.0 94.3 312.2 94.6Q312.5 94.9 313.0 94.9L313.0 94.9Q313.2 94.9 313.4 94.8Q313.6 94.8 313.7 94.8L313.7 94.8L314.0 96.0Q313.8 96.0 313.5 96.1Q313.3 96.1 313.0 96.1L313.0 96.1Q311.9 96.1 311.2 95.5Q310.6 94.9 310.6 93.8L310.6 93.8L310.6 88.5L309.3 88.5L309.3 87.3L310.6 87.3L310.6 85.2L312.0 85.2L312.0 87.3ZM315.5 90.4L320.6 90.4L320.6 91.7L315.5 91.7L315.5 90.4ZM327.9 96.2L327.9 96.2Q326.3 96.2 325.1 95.4Q324.0 94.7 323.3 93.4Q322.7 92.0 322.7 90.2L322.7 90.2Q322.7 88.3 323.3 87.0Q324.0 85.7 325.1 84.9Q326.3 84.2 327.8 84.2L327.8 84.2Q328.7 84.2 329.5 84.5Q330.3 84.8 330.9 85.3Q331.6 85.8 332.0 86.5Q332.4 87.2 332.6 88.0L332.6 88.0L331.0 88.0Q330.9 87.4 330.6 87Q330.3 86.6 329.8 86.2Q329.4 85.9 328.9 85.7Q328.4 85.6 327.8 85.6L327.8 85.6Q326.8 85.6 325.9 86.1Q325.1 86.6 324.6 87.7Q324.1 88.7 324.1 90.2L324.1 90.2Q324.1 91.7 324.6 92.7Q325.1 93.7 326.0 94.3Q326.8 94.8 327.9 94.8L327.9 94.8Q328.9 94.8 329.6 94.4Q330.4 93.9 330.8 93.2L330.8 93.2Q331.2 92.4 331.2 91.4L331.2 91.4L328.2 91.4L328.2 90.1L332.6 90.1L332.6 91.4Q332.6 92.9 332.0 93.9Q331.4 95.0 330.3 95.6Q329.3 96.2 327.9 96.2ZM338.6 96.2L338.6 96.2Q337.3 96.2 336.4 95.6Q335.5 95.1 335.0 94.1Q334.5 93.0 334.5 91.7Q334.5 90.4 334.9 89.3Q335.4 88.3 336.3 87.7Q337.2 87.2 338.4 87.2L338.4 87.2Q339.1 87.2 339.8 87.4Q340.4 87.6 341.0 88.1Q341.5 88.6 341.9 89.5Q342.2 90.3 342.2 91.5L342.2 91.5L342.2 92.1L335.9 92.1Q335.9 93.0 336.2 93.6L336.2 93.6Q336.6 94.2 337.2 94.6Q337.8 94.9 338.6 94.9L338.6 94.9Q339.1 94.9 339.5 94.8Q339.9 94.6 340.2 94.3Q340.5 94.0 340.7 93.6L340.7 93.6L342.1 94.0Q341.9 94.6 341.4 95.1Q340.9 95.6 340.2 95.9Q339.5 96.2 338.6 96.2ZM335.9 90.9L335.9 90.9L340.8 90.9Q340.7 90.3 340.5 89.8L340.5 89.8Q340.2 89.2 339.7 88.8Q339.2 88.4 338.4 88.4Q337.6 88.4 337.0 88.8Q336.5 89.2 336.2 89.8L336.2 89.8Q335.9 90.3 335.9 90.9ZM345.6 90.8L345.6 90.8L345.6 96L344.2 96L344.2 87.3L345.6 87.3L345.6 88.9Q345.9 88.1 346.5 87.7L346.5 87.7Q347.3 87.2 348.2 87.2L348.2 87.2Q349.1 87.2 349.8 87.5Q350.5 87.9 350.8 88.6Q351.2 89.3 351.2 90.5L351.2 90.5L351.2 96L349.8 96L349.8 90.6Q349.8 89.6 349.3 89.0Q348.7 88.4 347.8 88.4L347.8 88.4Q347.2 88.4 346.7 88.7Q346.2 89.0 345.9 89.5Q345.6 90.0 345.6 90.8Z M359.8 96L358.3 96L358.3 84.4L362.3 84.4Q363.7 84.4 364.6 84.8Q365.4 85.3 365.9 86.1Q366.3 86.9 366.3 88.0Q366.3 89.0 365.9 89.8Q365.4 90.6 364.6 91.0L364.6 91.0Q364.4 91.1 364.1 91.2L364.1 91.2L366.7 96L365.0 96L362.6 91.5Q362.5 91.5 362.3 91.5L362.3 91.5L359.8 91.5L359.8 96ZM359.8 85.7L359.8 90.2L362.3 90.2Q363.2 90.2 363.7 89.9Q364.3 89.6 364.6 89.1Q364.8 88.6 364.8 88.0L364.8 88.0Q364.8 87.3 364.6 86.7Q364.3 86.2 363.7 85.9Q363.2 85.7 362.2 85.7L362.2 85.7L359.8 85.7ZM375.8 96L368.6 96L368.6 84.4L375.7 84.4L375.7 85.7L370.1 85.7L370.1 89.5L375.3 89.5L375.3 90.8L370.1 90.8L370.1 94.7L375.8 94.7L375.8 96ZM378.8 96L377.3 96L381.5 84.4L383.2 84.4L387.5 96L385.9 96L384.8 92.8L380.0 92.8L378.8 96ZM380.4 91.5L384.3 91.5L383.4 89.1Q383.2 88.5 382.9 87.5L382.9 87.5Q382.7 86.7 382.3 85.5L382.3 85.5Q382.0 86.7 381.7 87.5L381.7 87.5Q381.4 88.5 381.2 89.1L381.2 89.1L380.4 91.5ZM392.9 96L392.9 96L389.3 96L389.3 84.4L393.1 84.4Q394.8 84.4 396.0 85.1Q397.2 85.8 397.8 87.1Q398.5 88.4 398.5 90.2L398.5 90.2Q398.5 92.0 397.8 93.3Q397.2 94.6 395.9 95.3Q394.7 96 392.9 96ZM390.8 85.7L390.8 94.7L392.8 94.7Q394.3 94.7 395.2 94.1Q396.1 93.6 396.6 92.6Q397.0 91.6 397.0 90.2L397.0 90.2Q397.0 88.8 396.6 87.8Q396.1 86.8 395.2 86.2Q394.3 85.7 393.0 85.7L393.0 85.7L390.8 85.7ZM402.3 96L400.8 96L400.8 84.4L402.9 84.4L405.8 91.7Q405.9 92.0 406.0 92.3Q406.2 92.7 406.3 93.2Q406.5 93.6 406.6 94.1L406.6 94.1Q406.6 94.2 406.7 94.4L406.7 94.4Q406.7 94.2 406.7 94.1L406.7 94.1Q406.9 93.7 407.0 93.2Q407.2 92.8 407.3 92.4Q407.4 92.0 407.5 91.7L407.5 91.7L410.4 84.4L412.5 84.4L412.5 96L411.0 96L411.0 89.4Q411.0 89.0 411.0 88.5Q411.0 88.1 411.0 87.6Q411.0 87.1 411.1 86.5L411.1 86.5Q411.1 86.2 411.1 85.9L411.1 85.9Q411.0 86.3 410.9 86.6L410.9 86.6Q410.7 87.2 410.5 87.7Q410.3 88.2 410.2 88.6Q410.0 89.1 409.9 89.4L409.9 89.4L407.3 96L406.0 96L403.4 89.4Q403.3 89.1 403.1 88.7Q403.0 88.2 402.8 87.7Q402.6 87.2 402.4 86.6L402.4 86.6Q402.3 86.3 402.2 86.0L402.2 86.0Q402.2 86.2 402.2 86.5L402.2 86.5Q402.2 87.0 402.2 87.5Q402.2 88.0 402.2 88.5Q402.3 89.0 402.3 89.4L402.3 89.4L402.3 96ZM422.5 96L415.3 96L415.3 84.4L422.4 84.4L422.4 85.7L416.8 85.7L416.8 89.5L422 89.5L422 90.8L416.8 90.8L416.8 94.7L422.5 94.7L422.5 96Z M432.8 99.5L432.8 99.5Q431.8 99.5 431.1 99.2Q430.4 99.0 429.9 98.6Q429.5 98.1 429.2 97.7L429.2 97.7L430.3 96.9Q430.5 97.2 430.8 97.5Q431.1 97.8 431.5 98.0Q432.0 98.2 432.8 98.2L432.8 98.2Q433.8 98.2 434.5 97.7Q435.2 97.2 435.2 96.1L435.2 96.1L435.2 94.4L435.0 94.4Q434.9 94.6 434.6 95.0Q434.4 95.3 433.8 95.6Q433.3 95.9 432.5 95.9L432.5 95.9Q431.5 95.9 430.6 95.4Q429.8 94.9 429.3 93.9Q428.8 93.0 428.8 91.6L428.8 91.6Q428.8 90.2 429.3 89.2Q429.8 88.3 430.6 87.7Q431.4 87.2 432.5 87.2L432.5 87.2Q433.4 87.2 433.9 87.4Q434.4 87.7 434.7 88.1Q434.9 88.4 435.1 88.7L435.1 88.7L435.2 88.7L435.2 87.3L436.6 87.3L436.6 96.2Q436.6 97.4 436.1 98.1Q435.6 98.8 434.7 99.1Q433.8 99.5 432.8 99.5ZM432.7 94.6L432.7 94.6Q433.5 94.6 434.1 94.2Q434.6 93.9 434.9 93.2Q435.2 92.5 435.2 91.6L435.2 91.6Q435.2 90.6 434.9 89.9Q434.6 89.2 434.1 88.8Q433.5 88.4 432.7 88.4L432.7 88.4Q431.9 88.4 431.4 88.8Q430.8 89.3 430.5 90.0Q430.2 90.7 430.2 91.6L430.2 91.6Q430.2 92.5 430.5 93.1Q430.8 93.8 431.4 94.2Q431.9 94.6 432.7 94.6ZM442.7 96.2L442.7 96.2Q441.5 96.2 440.5 95.6Q439.6 95.1 439.1 94.1Q438.6 93.0 438.6 91.7Q438.6 90.4 439.1 89.3Q439.6 88.3 440.5 87.7Q441.4 87.2 442.6 87.2L442.6 87.2Q443.3 87.2 443.9 87.4Q444.6 87.6 445.2 88.1Q445.7 88.6 446.0 89.5Q446.4 90.3 446.4 91.5L446.4 91.5L446.4 92.1L440.0 92.1Q440.1 93.0 440.4 93.6L440.4 93.6Q440.7 94.2 441.3 94.6Q441.9 94.9 442.7 94.9L442.7 94.9Q443.2 94.9 443.7 94.8Q444.1 94.6 444.4 94.3Q444.7 94.0 444.9 93.6L444.9 93.6L446.2 94.0Q446.0 94.6 445.5 95.1Q445.0 95.6 444.3 95.9Q443.6 96.2 442.7 96.2ZM440.1 90.9L440.1 90.9L444.9 90.9Q444.9 90.3 444.7 89.8L444.7 89.8Q444.4 89.2 443.9 88.8Q443.3 88.4 442.6 88.4Q441.8 88.4 441.2 88.8Q440.6 89.2 440.3 89.8L440.3 89.8Q440.1 90.3 440.1 90.9ZM449.8 90.8L449.8 90.8L449.8 96L448.4 96L448.4 87.3L449.7 87.3L449.7 88.9Q450.1 88.1 450.7 87.7L450.7 87.7Q451.4 87.2 452.4 87.2L452.4 87.2Q453.3 87.2 454.0 87.5Q454.6 87.9 455.0 88.6Q455.4 89.3 455.4 90.5L455.4 90.5L455.4 96L454.0 96L454.0 90.6Q454.0 89.6 453.4 89.0Q452.9 88.4 452.0 88.4L452.0 88.4Q451.4 88.4 450.9 88.7Q450.4 89.0 450.1 89.5Q449.8 90.0 449.8 90.8ZM461.5 96.2L461.5 96.2Q460.2 96.2 459.3 95.6Q458.4 95.1 457.9 94.1Q457.4 93.0 457.4 91.7Q457.4 90.4 457.9 89.3Q458.4 88.3 459.3 87.7Q460.1 87.2 461.3 87.2L461.3 87.2Q462.0 87.2 462.7 87.4Q463.4 87.6 463.9 88.1Q464.5 88.6 464.8 89.5Q465.1 90.3 465.1 91.5L465.1 91.5L465.1 92.1L458.8 92.1Q458.9 93.0 459.2 93.6L459.2 93.6Q459.5 94.2 460.1 94.6Q460.7 94.9 461.5 94.9L461.5 94.9Q462.0 94.9 462.4 94.8Q462.9 94.6 463.2 94.3Q463.5 94.0 463.6 93.6L463.6 93.6L465 94.0Q464.8 94.6 464.3 95.1Q463.8 95.6 463.1 95.9Q462.4 96.2 461.5 96.2ZM458.8 90.9L458.8 90.9L463.7 90.9Q463.7 90.3 463.5 89.8L463.5 89.8Q463.2 89.2 462.7 88.8Q462.1 88.4 461.3 88.4Q460.5 88.4 460.0 88.8Q459.4 89.2 459.1 89.8L459.1 89.8Q458.9 90.3 458.8 90.9ZM468.6 96L467.2 96L467.2 87.3L468.5 87.3L468.5 88.6L468.6 88.6Q468.9 87.9 469.5 87.5Q470.1 87.1 470.9 87.1L470.9 87.1Q471.0 87.1 471.2 87.1Q471.5 87.2 471.6 87.2L471.6 87.2L471.6 88.6Q471.5 88.6 471.3 88.5Q471.0 88.5 470.7 88.5L470.7 88.5Q470.1 88.5 469.6 88.8Q469.1 89.0 468.8 89.5Q468.6 89.9 468.6 90.5L468.6 90.5L468.6 96ZM475.6 96.2L475.6 96.2Q474.8 96.2 474.1 95.9Q473.4 95.6 473.0 95.0Q472.6 94.4 472.6 93.5L472.6 93.5Q472.6 92.8 472.9 92.3Q473.2 91.8 473.7 91.6Q474.2 91.3 474.8 91.2Q475.4 91.0 476.0 90.9L476.0 90.9Q476.8 90.8 477.3 90.8Q477.8 90.7 478.1 90.6Q478.3 90.5 478.3 90.1L478.3 90.1L478.3 90.1Q478.3 89.6 478.1 89.2Q477.9 88.8 477.5 88.6Q477.1 88.4 476.5 88.4L476.5 88.4Q475.8 88.4 475.4 88.6Q474.9 88.8 474.7 89.1Q474.4 89.4 474.3 89.7L474.3 89.7L472.9 89.2Q473.2 88.4 473.8 88.0Q474.4 87.5 475.1 87.3Q475.8 87.2 476.4 87.2L476.4 87.2Q476.9 87.2 477.4 87.3Q478.0 87.4 478.5 87.7Q479.0 88.0 479.4 88.6Q479.7 89.2 479.7 90.2L479.7 90.2L479.7 96L478.3 96L478.3 94.8L478.2 94.8Q478.1 95.1 477.7 95.4Q477.4 95.8 476.9 96.0Q476.4 96.2 475.6 96.2ZM475.9 95.0L475.9 95.0Q476.6 95.0 477.2 94.7Q477.7 94.4 478.0 93.9Q478.3 93.4 478.3 92.8L478.3 92.8L478.3 91.6Q478.2 91.7 477.9 91.8Q477.6 91.9 477.3 92.0Q476.9 92.0 476.5 92.1Q476.2 92.1 476.0 92.1L476.0 92.1Q475.5 92.2 475.0 92.3Q474.6 92.5 474.3 92.8Q474.1 93.1 474.1 93.6L474.1 93.6Q474.1 94.0 474.3 94.3Q474.5 94.6 474.9 94.8Q475.3 95.0 475.9 95.0ZM483.8 87.3L485.6 87.3L485.6 88.5L483.8 88.5L483.8 93.7Q483.8 94.3 484.0 94.6Q484.3 94.9 484.8 94.9L484.8 94.9Q485.0 94.9 485.2 94.8Q485.4 94.8 485.6 94.8L485.6 94.8L485.8 96.0Q485.6 96.0 485.3 96.1Q485.1 96.1 484.8 96.1L484.8 96.1Q483.7 96.1 483.0 95.5Q482.4 94.9 482.4 93.8L482.4 93.8L482.4 88.5L481.1 88.5L481.1 87.3L482.4 87.3L482.4 85.2L483.8 85.2L483.8 87.3ZM491.0 96.2L491.0 96.2Q489.8 96.2 488.9 95.6Q488.0 95.1 487.5 94.0Q487.0 93.0 487.0 91.7L487.0 91.7Q487.0 90.3 487.5 89.3Q488.0 88.3 488.9 87.7Q489.8 87.2 491.0 87.2L491.0 87.2Q492.1 87.2 493.0 87.7Q493.9 88.3 494.4 89.3Q494.9 90.3 494.9 91.7L494.9 91.7Q494.9 93.0 494.4 94.0Q493.9 95.1 493.0 95.6Q492.1 96.2 491.0 96.2ZM491.0 94.9L491.0 94.9Q491.8 94.9 492.4 94.5Q493.0 94.0 493.3 93.3Q493.5 92.5 493.5 91.7L493.5 91.7Q493.5 90.8 493.3 90.1Q493.0 89.3 492.4 88.9Q491.8 88.4 491.0 88.4L491.0 88.4Q490.1 88.4 489.5 88.9Q489.0 89.3 488.7 90.1Q488.4 90.8 488.4 91.7L488.4 91.7Q488.4 92.5 488.7 93.3Q489.0 94.0 489.5 94.5Q490.1 94.9 491.0 94.9ZM498.4 96L497.0 96L497.0 87.3L498.4 87.3L498.4 88.6L498.4 88.6Q498.7 87.9 499.3 87.5Q499.9 87.1 500.7 87.1L500.7 87.1Q500.9 87.1 501.1 87.1Q501.3 87.2 501.4 87.2L501.4 87.2L501.4 88.6Q501.4 88.6 501.1 88.5Q500.9 88.5 500.6 88.5L500.6 88.5Q500.0 88.5 499.5 88.8Q499.0 89.0 498.7 89.5Q498.4 89.9 498.4 90.5L498.4 90.5L498.4 96Z M509.6 87.3L511.6 87.3L511.6 88.5L509.6 88.5L509.6 96L508.2 96L508.2 88.5L506.4 88.5L506.4 87.3L508.2 87.3L508.2 86.1Q508.2 85.3 508.5 84.8Q508.9 84.3 509.4 84.1Q510.0 83.8 510.6 83.8L510.6 83.8Q511.1 83.8 511.5 83.9Q511.8 84.0 512.0 84.0L512.0 84.0L511.6 85.3Q511.5 85.2 511.3 85.2Q511.1 85.1 510.8 85.1L510.8 85.1Q510.2 85.1 509.9 85.4Q509.6 85.8 509.6 86.4L509.6 86.4L509.6 87.3ZM517.0 96.2L517.0 96.2Q515.8 96.2 514.9 95.6Q514.0 95.1 513.5 94.0Q513.0 93.0 513.0 91.7L513.0 91.7Q513.0 90.3 513.5 89.3Q514.0 88.3 514.9 87.7Q515.8 87.2 517.0 87.2L517.0 87.2Q518.2 87.2 519.1 87.7Q520.0 88.3 520.5 89.3Q521.0 90.3 521.0 91.7L521.0 91.7Q521.0 93.0 520.5 94.0Q520.0 95.1 519.1 95.6Q518.2 96.2 517.0 96.2ZM517.0 94.9L517.0 94.9Q517.9 94.9 518.4 94.5Q519.0 94.0 519.3 93.3Q519.6 92.5 519.6 91.7L519.6 91.7Q519.6 90.8 519.3 90.1Q519.0 89.3 518.4 88.9Q517.9 88.4 517.0 88.4L517.0 88.4Q516.1 88.4 515.6 88.9Q515.0 89.3 514.7 90.1Q514.4 90.8 514.4 91.7L514.4 91.7Q514.4 92.5 514.7 93.3Q515.0 94.0 515.6 94.5Q516.1 94.9 517.0 94.9ZM524.4 96L523.0 96L523.0 87.3L524.4 87.3L524.4 88.6L524.5 88.6Q524.7 87.9 525.3 87.5Q526.0 87.1 526.8 87.1L526.8 87.1Q526.9 87.1 527.1 87.1Q527.3 87.2 527.5 87.2L527.5 87.2L527.5 88.6Q527.4 88.6 527.1 88.5Q526.9 88.5 526.6 88.5L526.6 88.5Q526.0 88.5 525.5 88.8Q525 89.0 524.7 89.5Q524.4 89.9 524.4 90.5L524.4 90.5L524.4 96Z M538.5 96.2L538.5 96.2Q536.9 96.2 535.8 95.4Q534.6 94.7 533.9 93.4Q533.3 92.0 533.3 90.2L533.3 90.2Q533.3 88.3 533.9 87.0Q534.6 85.7 535.7 84.9Q536.9 84.2 538.4 84.2L538.4 84.2Q539.3 84.2 540.1 84.5Q540.9 84.8 541.5 85.3Q542.2 85.8 542.6 86.5Q543.0 87.2 543.2 88.0L543.2 88.0L541.6 88.0Q541.5 87.4 541.2 87Q540.9 86.6 540.5 86.2Q540.0 85.9 539.5 85.7Q539.0 85.6 538.4 85.6L538.4 85.6Q537.4 85.6 536.5 86.1Q535.7 86.6 535.2 87.7Q534.7 88.7 534.7 90.2L534.7 90.2Q534.7 91.7 535.2 92.7Q535.7 93.7 536.6 94.3Q537.4 94.8 538.5 94.8L538.5 94.8Q539.5 94.8 540.2 94.4Q541.0 93.9 541.4 93.2L541.4 93.2Q541.8 92.4 541.8 91.4L541.8 91.4L538.8 91.4L538.8 90.1L543.3 90.1L543.3 91.4Q543.3 92.9 542.6 93.9Q542.0 95.0 540.9 95.6Q539.9 96.2 538.5 96.2ZM546.9 96L545.5 96L545.5 87.3L546.9 87.3L546.9 96ZM546.2 85.8L546.2 85.8Q545.8 85.8 545.5 85.6Q545.2 85.3 545.2 84.9L545.2 84.9Q545.2 84.5 545.5 84.2Q545.8 84.0 546.2 84.0L546.2 84.0Q546.6 84.0 546.9 84.2Q547.2 84.5 547.2 84.9L547.2 84.9Q547.2 85.3 546.9 85.6Q546.6 85.8 546.2 85.8ZM551.0 87.3L552.8 87.3L552.8 88.5L551.0 88.5L551.0 93.7Q551.0 94.3 551.2 94.6Q551.5 94.9 552.0 94.9L552.0 94.9Q552.2 94.9 552.4 94.8Q552.6 94.8 552.8 94.8L552.8 94.8L553.0 96.0Q552.8 96.0 552.6 96.1Q552.3 96.1 552 96.1L552 96.1Q550.9 96.1 550.2 95.5Q549.6 94.9 549.6 93.8L549.6 93.8L549.6 88.5L548.3 88.5L548.3 87.3L549.6 87.3L549.6 85.2L551.0 85.2L551.0 87.3ZM556.3 96L554.8 96L554.8 84.4L556.3 84.4L556.3 89.4L562.4 89.4L562.4 84.4L563.9 84.4L563.9 96L562.4 96L562.4 90.7L556.3 90.7L556.3 96ZM569.5 96.1L569.5 96.1Q568.6 96.1 567.9 95.7Q567.2 95.4 566.9 94.6Q566.5 93.9 566.5 92.8L566.5 92.8L566.5 87.3L567.9 87.3L567.9 92.7Q567.9 93.7 568.4 94.3Q569.0 94.8 569.9 94.8L569.9 94.8Q570.5 94.8 571.0 94.6Q571.5 94.3 571.8 93.8Q572.1 93.2 572.1 92.5L572.1 92.5L572.1 87.3L573.5 87.3L573.5 96L572.1 96L572.1 94.4Q571.8 95.2 571.2 95.6L571.2 95.6Q570.4 96.1 569.5 96.1ZM580.0 96.2L580.0 96.2Q579.2 96.2 578.7 95.9Q578.2 95.6 577.9 95.3Q577.6 94.9 577.5 94.6L577.5 94.6L577.3 94.6L577.3 96L576.0 96L576.0 84.4L577.4 84.4L577.4 88.7L577.5 88.7Q577.6 88.4 577.9 88.1Q578.1 87.7 578.6 87.4Q579.1 87.2 580 87.2L580 87.2Q581.1 87.2 581.9 87.7Q582.8 88.3 583.2 89.3Q583.7 90.3 583.7 91.7L583.7 91.7Q583.7 93.0 583.2 94.1Q582.8 95.1 581.9 95.6Q581.1 96.2 580.0 96.2ZM579.8 94.9L579.8 94.9Q580.6 94.9 581.2 94.5Q581.7 94.0 582.0 93.3Q582.3 92.6 582.3 91.6L582.3 91.6Q582.3 90.7 582 90.0Q581.7 89.3 581.2 88.8Q580.6 88.4 579.8 88.4L579.8 88.4Q579.0 88.4 578.4 88.8Q577.9 89.2 577.6 89.9Q577.3 90.7 577.3 91.6L577.3 91.6Q577.3 92.6 577.6 93.4Q577.9 94.1 578.5 94.5Q579.0 94.9 579.8 94.9Z "/></g><mask id="satori_om-id-2"><rect x="237" y="119" width="327" height="25" fill="#fff" mask="url(#satori_om-id)"/></mask><defs><clipPath id="satori_bc-id-2-0" clip-path="url(#satori_cp-id)"><path x="237" y="119" width="86" height="25" d="M249,119 h62 a12,12 0 0 1 12,12 v1 a12,12 0 0 1 -12,12 h-62 a12,12 0 0 1 -12,-12 v-1 a12,12 0 0 1 12,-12"/></clipPath></defs><mask id="satori_om-id-2-0"><rect x="238" y="120" width="84" height="23" fill="#fff" mask="url(#satori_om-id)"/><path width="86" height="25" fill="none" stroke="#000" stroke-width="2" d="M240.515,122.515 A12,12 0 0 1 249,119 h62 a12,12 0 0 1 12,12 v1 a12,12 0 0 1 -12,12 h-62 a12,12 0 0 1 -12,-12 v-1 A12,12 0 0 1 240.515,122.515"/></mask><path x="237" y="119" width="86" height="25" fill="rgba(12,10,20,0.6)" d="M249,119 h62 a12,12 0 0 1 12,12 v1 a12,12 0 0 1 -12,12 h-62 a12,12 0 0 1 -12,-12 v-1 a12,12 0 0 1 12,-12" clip-path="url(#satori_cp-id)" mask="url(#satori_om-id)"/><path width="86" height="25" clip-path="url(#satori_bc-id-2-0)" fill="none" stroke="rgba(120,80,220,0.2)" stroke-width="2" d="M240.515,122.515 A12,12 0 0 1 249,119 h62 a12,12 0 0 1 12,12 v1 a12,12 0 0 1 -12,12 h-62 a12,12 0 0 1 -12,-12 v-1 A12,12 0 0 1 240.515,122.515"/><g mask="url(#satori_om-id)" clip-path="url(#satori_cp-id)"><path fill="#7eb8ff" d="M252.2 136L251.1 136L251.1 127.3L254.0 127.3Q255.1 127.3 255.7 127.6Q256.4 128.0 256.7 128.6Q257.0 129.2 257.0 130.0Q257.0 130.7 256.7 131.3Q256.4 131.9 255.7 132.3L255.7 132.3Q255.6 132.4 255.4 132.4L255.4 132.4L257.4 136L256.1 136L254.3 132.6Q254.2 132.6 254.0 132.6L254.0 132.6L252.2 132.6L252.2 136ZM252.2 128.2L252.2 131.6L254.0 131.6Q254.7 131.6 255.1 131.4Q255.5 131.2 255.7 130.8Q255.9 130.5 255.9 130.0L255.9 130.0Q255.9 129.4 255.7 129.1Q255.5 128.7 255.1 128.5Q254.7 128.2 254.0 128.2L254.0 128.2L252.2 128.2ZM261.4 136.1L261.4 136.1Q260.5 136.1 259.8 135.7Q259.1 135.3 258.7 134.5Q258.3 133.8 258.3 132.8Q258.3 131.8 258.7 131.0Q259.1 130.2 259.7 129.8Q260.4 129.4 261.3 129.4L261.3 129.4Q261.8 129.4 262.3 129.5Q262.8 129.7 263.2 130.1Q263.6 130.5 263.9 131.1Q264.1 131.7 264.1 132.6L264.1 132.6L264.1 133.1L259.4 133.1Q259.4 133.7 259.7 134.2L259.7 134.2Q259.9 134.7 260.4 134.9Q260.8 135.2 261.4 135.2L261.4 135.2Q261.8 135.2 262.1 135.1Q262.4 135.0 262.7 134.8Q262.9 134.5 263.0 134.2L263.0 134.2L264.0 134.5Q263.9 135.0 263.5 135.3Q263.1 135.7 262.6 135.9Q262.1 136.1 261.4 136.1ZM259.4 132.2L259.4 132.2L263.1 132.2Q263.0 131.7 262.9 131.4L262.9 131.4Q262.7 130.9 262.3 130.6Q261.9 130.3 261.3 130.3Q260.7 130.3 260.3 130.6Q259.8 130.9 259.6 131.3L259.6 131.3Q259.4 131.7 259.4 132.2ZM267.5 136.2L267.5 136.2Q266.9 136.2 266.4 135.9Q265.8 135.7 265.5 135.2Q265.2 134.8 265.2 134.1L265.2 134.1Q265.2 133.6 265.5 133.2Q265.7 132.9 266.1 132.7Q266.4 132.5 266.9 132.4Q267.3 132.3 267.8 132.2L267.8 132.2Q268.4 132.1 268.8 132.1Q269.1 132.1 269.3 132.0Q269.5 131.9 269.5 131.6L269.5 131.6L269.5 131.6Q269.5 131.2 269.3 130.9Q269.2 130.6 268.9 130.4Q268.6 130.3 268.1 130.3L268.1 130.3Q267.6 130.3 267.3 130.4Q267.0 130.6 266.8 130.8Q266.6 131.0 266.4 131.3L266.4 131.3L265.4 130.9Q265.7 130.3 266.1 130.0Q266.5 129.6 267.1 129.5Q267.6 129.4 268.1 129.4L268.1 129.4Q268.4 129.4 268.8 129.4Q269.2 129.5 269.6 129.8Q270.0 130.0 270.3 130.5Q270.5 130.9 270.5 131.7L270.5 131.7L270.5 136L269.5 136L269.5 135.1L269.4 135.1Q269.3 135.3 269.1 135.6Q268.8 135.8 268.4 136.0Q268.0 136.2 267.5 136.2ZM267.7 135.2L267.7 135.2Q268.2 135.2 268.7 135.0Q269.1 134.8 269.3 134.4Q269.5 134.0 269.5 133.6L269.5 133.6L269.5 132.7Q269.4 132.8 269.2 132.9Q269.0 132.9 268.7 133.0Q268.4 133.0 268.2 133.0Q267.9 133.1 267.7 133.1L267.7 133.1Q267.4 133.1 267.0 133.3Q266.7 133.4 266.5 133.6Q266.3 133.8 266.3 134.2L266.3 134.2Q266.3 134.5 266.5 134.8Q266.7 135.0 267.0 135.1Q267.3 135.2 267.7 135.2ZM275.0 136.1L275.0 136.1Q274.2 136.1 273.5 135.7Q272.8 135.3 272.4 134.5Q272.1 133.8 272.1 132.8L272.1 132.8Q272.1 131.7 272.4 131.0Q272.8 130.2 273.5 129.8Q274.2 129.4 275.0 129.4L275.0 129.4Q275.5 129.4 275.9 129.5Q276.4 129.6 276.7 129.8Q277.1 130.1 277.3 130.4Q277.6 130.8 277.7 131.2L277.7 131.2L276.7 131.5Q276.6 131.2 276.5 131.0Q276.3 130.8 276.1 130.6Q275.9 130.5 275.6 130.4Q275.4 130.3 275.0 130.3L275.0 130.3Q274.4 130.3 274.0 130.7Q273.5 131.0 273.3 131.6Q273.1 132.1 273.1 132.8L273.1 132.8Q273.1 133.4 273.3 134.0Q273.5 134.5 274.0 134.9Q274.4 135.2 275.0 135.2L275.0 135.2Q275.4 135.2 275.7 135.1Q275.9 135.0 276.1 134.9Q276.4 134.7 276.5 134.5Q276.6 134.3 276.7 134.0L276.7 134.0L277.7 134.3Q277.6 134.7 277.3 135.1Q277.1 135.4 276.7 135.6Q276.4 135.9 276.0 136.0Q275.5 136.1 275.0 136.1ZM280.5 129.4L281.8 129.4L281.8 130.4L280.5 130.4L280.5 134.3Q280.5 134.7 280.6 134.9Q280.8 135.1 281.2 135.1L281.2 135.1Q281.3 135.1 281.5 135.1Q281.7 135.1 281.8 135.1L281.8 135.1L282.0 136.0Q281.8 136.0 281.6 136.1Q281.4 136.1 281.2 136.1L281.2 136.1Q280.4 136.1 279.9 135.6Q279.4 135.2 279.4 134.4L279.4 134.4L279.4 130.4L278.4 130.4L278.4 129.4L279.4 129.4L279.4 127.9L280.5 127.9L280.5 129.4ZM285.3 126.9L286.3 126.9L283.5 137.3L282.5 137.3L285.3 126.9ZM289.8 136.1L289.8 136.1Q288.6 136.1 287.9 135.4Q287.1 134.8 287.1 133.5L287.1 133.5L287.1 133.0L288.3 133.0L288.3 133.5Q288.3 134.3 288.7 134.7Q289.1 135.1 289.8 135.1L289.8 135.1Q290.4 135.1 290.8 134.7Q291.2 134.3 291.2 133.5L291.2 133.5L291.2 127.3L292.4 127.3L292.4 133.5Q292.4 134.8 291.6 135.4Q290.9 136.1 289.8 136.1ZM297.3 136.2L297.3 136.2Q296.3 136.2 295.6 135.8Q294.9 135.5 294.5 135.0Q294.1 134.4 294.1 133.7L294.1 133.7L295.2 133.7Q295.3 134.2 295.6 134.5Q295.9 134.8 296.3 135.0Q296.8 135.2 297.3 135.2L297.3 135.2Q297.9 135.2 298.3 135.0Q298.8 134.8 299.1 134.4Q299.3 134.1 299.3 133.6L299.3 133.6Q299.3 133.2 299.1 132.9Q298.9 132.7 298.5 132.5Q298.1 132.3 297.6 132.2L297.6 132.2L296.6 131.9Q295.5 131.6 294.9 131.0Q294.3 130.5 294.3 129.6L294.3 129.6Q294.3 128.9 294.7 128.3Q295.1 127.8 295.8 127.5Q296.5 127.2 297.3 127.2L297.3 127.2Q298.2 127.2 298.9 127.5Q299.5 127.8 299.9 128.3Q300.3 128.8 300.3 129.5L300.3 129.5L299.2 129.5Q299.1 128.8 298.6 128.5Q298.1 128.1 297.3 128.1L297.3 128.1Q296.7 128.1 296.3 128.3Q295.9 128.5 295.7 128.8Q295.4 129.1 295.4 129.6L295.4 129.6Q295.4 130.0 295.7 130.3Q296.0 130.6 296.4 130.7Q296.8 130.9 297.1 131.0L297.1 131.0L298.0 131.2Q298.3 131.3 298.7 131.5Q299.2 131.6 299.5 131.9Q299.9 132.2 300.2 132.6Q300.4 133.0 300.4 133.6L300.4 133.6Q300.4 134.3 300.1 134.9Q299.7 135.5 299.0 135.8Q298.3 136.2 297.3 136.2ZM302.7 136L301.4 136L304.6 131.5L301.6 127.3L302.9 127.3L304.2 129.1Q304.5 129.5 304.6 129.8Q304.8 130.1 305.0 130.4L305.0 130.4Q305.1 130.6 305.2 130.8L305.2 130.8Q305.3 130.6 305.5 130.4L305.5 130.4Q305.6 130.1 305.8 129.8Q306.0 129.5 306.3 129.1L306.3 129.1L307.5 127.3L308.8 127.3L305.9 131.5L309.0 136L307.7 136L306.2 133.8Q305.9 133.4 305.7 133.2Q305.6 132.9 305.4 132.6L305.4 132.6Q305.3 132.5 305.2 132.3L305.2 132.3Q305.1 132.5 305.0 132.6L305.0 132.6Q304.9 132.9 304.7 133.1Q304.5 133.4 304.3 133.8L304.3 133.8L302.7 136Z "/></g><defs><clipPath id="satori_bc-id-2-1" clip-path="url(#satori_cp-id)"><path x="331" y="119" width="113" height="25" d="M343,119 h89 a12,12 0 0 1 12,12 v1 a12,12 0 0 1 -12,12 h-89 a12,12 0 0 1 -12,-12 v-1 a12,12 0 0 1 12,-12"/></clipPath></defs><mask id="satori_om-id-2-1"><rect x="332" y="120" width="111" height="23" fill="#fff" mask="url(#satori_om-id)"/><path width="113" height="25" fill="none" stroke="#000" stroke-width="2" d="M334.515,122.515 A12,12 0 0 1 343,119 h89 a12,12 0 0 1 12,12 v1 a12,12 0 0 1 -12,12 h-89 a12,12 0 0 1 -12,-12 v-1 A12,12 0 0 1 334.515,122.515"/></mask><path x="331" y="119" width="113" height="25" fill="rgba(12,10,20,0.6)" d="M343,119 h89 a12,12 0 0 1 12,12 v1 a12,12 0 0 1 -12,12 h-89 a12,12 0 0 1 -12,-12 v-1 a12,12 0 0 1 12,-12" clip-path="url(#satori_cp-id)" mask="url(#satori_om-id)"/><path width="113" height="25" clip-path="url(#satori_bc-id-2-1)" fill="none" stroke="rgba(120,80,220,0.2)" stroke-width="2" d="M334.515,122.515 A12,12 0 0 1 343,119 h89 a12,12 0 0 1 12,12 v1 a12,12 0 0 1 -12,12 h-89 a12,12 0 0 1 -12,-12 v-1 A12,12 0 0 1 334.515,122.515"/><g mask="url(#satori_om-id)" clip-path="url(#satori_cp-id)"><path fill="#e8c8ff" d="M347.8 136.2L347.8 136.2Q346.9 136.2 346.2 135.8Q345.5 135.5 345.1 135.0Q344.7 134.4 344.7 133.7L344.7 133.7L345.8 133.7Q345.9 134.2 346.2 134.5Q346.4 134.8 346.9 135.0Q347.3 135.2 347.8 135.2L347.8 135.2Q348.4 135.2 348.9 135.0Q349.4 134.8 349.7 134.4Q349.9 134.1 349.9 133.6L349.9 133.6Q349.9 133.2 349.7 132.9Q349.5 132.7 349.1 132.5Q348.7 132.3 348.2 132.2L348.2 132.2L347.2 131.9Q346.1 131.6 345.5 131.0Q344.9 130.5 344.9 129.6L344.9 129.6Q344.9 128.9 345.3 128.3Q345.7 127.8 346.4 127.5Q347.1 127.2 347.9 127.2L347.9 127.2Q348.8 127.2 349.4 127.5Q350.1 127.8 350.5 128.3Q350.9 128.8 350.9 129.5L350.9 129.5L349.8 129.5Q349.7 128.8 349.2 128.5Q348.7 128.1 347.9 128.1L347.9 128.1Q347.3 128.1 346.9 128.3Q346.5 128.5 346.2 128.8Q346.0 129.1 346.0 129.6L346.0 129.6Q346.0 130.0 346.3 130.3Q346.6 130.6 347.0 130.7Q347.4 130.9 347.7 131.0L347.7 131.0L348.5 131.2Q348.9 131.3 349.3 131.5Q349.7 131.6 350.1 131.9Q350.5 132.2 350.8 132.6Q351.0 133.0 351.0 133.6L351.0 133.6Q351.0 134.3 350.6 134.9Q350.3 135.5 349.6 135.8Q348.9 136.2 347.8 136.2ZM356.5 136L355.2 136L352.0 127.3L353.2 127.3L355.0 132.4Q355.2 132.9 355.4 133.6L355.4 133.6Q355.6 134.2 355.9 135.1L355.9 135.1Q356.1 134.2 356.3 133.6L356.3 133.6Q356.5 132.9 356.7 132.4L356.7 132.4L358.5 127.3L359.7 127.3L356.5 136ZM364.6 136.1L364.6 136.1Q363.4 136.1 362.6 135.6Q361.7 135.0 361.2 134.0Q360.7 133.0 360.7 131.6L360.7 131.6Q360.7 130.3 361.2 129.2Q361.7 128.2 362.5 127.7Q363.4 127.2 364.5 127.2L364.5 127.2Q365.2 127.2 365.8 127.4Q366.4 127.6 366.9 127.9Q367.4 128.3 367.7 128.8Q368 129.4 368.1 130.0L368.1 130.0L367.0 130.0Q366.8 129.6 366.6 129.3Q366.4 128.9 366.1 128.7Q365.8 128.4 365.4 128.3Q365 128.2 364.5 128.2L364.5 128.2Q363.8 128.2 363.1 128.6Q362.5 129.0 362.1 129.7Q361.8 130.5 361.8 131.6L361.8 131.6Q361.8 132.8 362.1 133.5Q362.5 134.3 363.2 134.7Q363.8 135.1 364.6 135.1L364.6 135.1Q365.3 135.1 365.9 134.8Q366.5 134.5 366.8 133.9L366.8 133.9Q367.1 133.3 367.1 132.6L367.1 132.6L364.8 132.6L364.8 131.6L368.2 131.6L368.2 132.6Q368.2 133.7 367.7 134.4Q367.3 135.2 366.5 135.7Q365.6 136.1 364.6 136.1Z M374.5 136L373.4 136L373.4 127.3L376.3 127.3Q377.4 127.3 378.0 127.6Q378.7 128.0 379.0 128.6Q379.3 129.2 379.3 130.0Q379.3 130.7 379.0 131.3Q378.7 131.9 378.0 132.3L378.0 132.3Q377.9 132.4 377.7 132.4L377.7 132.4L379.7 136L378.4 136L376.6 132.6Q376.5 132.6 376.4 132.6L376.4 132.6L374.5 132.6L374.5 136ZM374.5 128.2L374.5 131.6L376.3 131.6Q377.0 131.6 377.4 131.4Q377.8 131.2 378.0 130.8Q378.2 130.5 378.2 130.0L378.2 130.0Q378.2 129.4 378.0 129.1Q377.8 128.7 377.4 128.5Q377.0 128.2 376.3 128.2L376.3 128.2L374.5 128.2ZM383.7 136.1L383.7 136.1Q382.8 136.1 382.1 135.7Q381.4 135.3 381.0 134.5Q380.6 133.8 380.6 132.8Q380.6 131.8 381.0 131.0Q381.4 130.2 382.0 129.8Q382.7 129.4 383.6 129.4L383.6 129.4Q384.1 129.4 384.6 129.5Q385.1 129.7 385.5 130.1Q385.9 130.5 386.2 131.1Q386.4 131.7 386.4 132.6L386.4 132.6L386.4 133.1L381.7 133.1Q381.7 133.7 382.0 134.2L382.0 134.2Q382.2 134.7 382.7 134.9Q383.1 135.2 383.7 135.2L383.7 135.2Q384.1 135.2 384.4 135.1Q384.7 135.0 385.0 134.8Q385.2 134.5 385.3 134.2L385.3 134.2L386.3 134.5Q386.2 135.0 385.8 135.3Q385.5 135.7 384.9 135.9Q384.4 136.1 383.7 136.1ZM381.7 132.2L381.7 132.2L385.4 132.2Q385.3 131.7 385.2 131.4L385.2 131.4Q385.0 130.9 384.6 130.6Q384.2 130.3 383.6 130.3Q383.0 130.3 382.6 130.6Q382.2 130.9 381.9 131.3L381.9 131.3Q381.7 131.7 381.7 132.2ZM389.0 132.1L389.0 132.1L389.0 136L388.0 136L388.0 129.4L389.0 129.4L389.0 130.7Q389.2 130.0 389.7 129.7L389.7 129.7Q390.2 129.4 391.0 129.4L391.0 129.4Q391.6 129.4 392.1 129.6Q392.6 129.9 392.9 130.5Q393.2 131.0 393.2 131.8L393.2 131.8L393.2 136L392.1 136L392.1 131.9Q392.1 131.2 391.7 130.7Q391.3 130.3 390.7 130.3L390.7 130.3Q390.2 130.3 389.8 130.5Q389.4 130.7 389.2 131.1Q389.0 131.5 389.0 132.1ZM397.5 136.1L397.5 136.1Q396.7 136.1 396.1 135.7Q395.4 135.3 395.1 134.5Q394.7 133.8 394.7 132.7L394.7 132.7Q394.7 131.7 395.1 130.9Q395.4 130.2 396.1 129.8Q396.7 129.4 397.5 129.4L397.5 129.4Q398.1 129.4 398.5 129.6Q398.9 129.8 399.1 130.1Q399.3 130.3 399.4 130.5L399.4 130.5L399.5 130.5L399.5 127.3L400.5 127.3L400.5 136L399.5 136L399.5 135.0L399.4 135.0Q399.3 135.2 399.1 135.4Q398.9 135.7 398.5 135.9Q398.1 136.1 397.5 136.1ZM397.7 135.2L397.7 135.2Q398.3 135.2 398.7 134.9Q399.1 134.6 399.3 134.0Q399.5 133.5 399.5 132.7L399.5 132.7Q399.5 132.0 399.3 131.5Q399.1 130.9 398.7 130.6Q398.3 130.3 397.7 130.3L397.7 130.3Q397.0 130.3 396.6 130.6Q396.2 131.0 396.0 131.5Q395.8 132.1 395.8 132.7L395.8 132.7Q395.8 133.4 396.0 134.0Q396.2 134.5 396.6 134.9Q397.0 135.2 397.7 135.2ZM405.1 136.1L405.1 136.1Q404.2 136.1 403.5 135.7Q402.8 135.3 402.4 134.5Q402.1 133.8 402.1 132.8Q402.1 131.8 402.4 131.0Q402.8 130.2 403.5 129.8Q404.1 129.4 405.0 129.4L405.0 129.4Q405.5 129.4 406.0 129.5Q406.6 129.7 407.0 130.1Q407.4 130.5 407.6 131.1Q407.9 131.7 407.9 132.6L407.9 132.6L407.9 133.1L403.1 133.1Q403.2 133.7 403.4 134.2L403.4 134.2Q403.6 134.7 404.1 134.9Q404.6 135.2 405.1 135.2L405.1 135.2Q405.5 135.2 405.9 135.1Q406.2 135.0 406.4 134.8Q406.6 134.5 406.7 134.2L406.7 134.2L407.8 134.5Q407.6 135.0 407.3 135.3Q406.9 135.7 406.4 135.9Q405.8 136.1 405.1 136.1ZM403.1 132.2L403.1 132.2L406.8 132.2Q406.8 131.7 406.6 131.4L406.6 131.4Q406.4 130.9 406.0 130.6Q405.6 130.3 405.0 130.3Q404.4 130.3 404.0 130.6Q403.6 130.9 403.4 131.3L403.4 131.3Q403.2 131.7 403.1 132.2ZM410.4 136L409.4 136L409.4 129.4L410.4 129.4L410.4 130.5L410.5 130.5Q410.7 130.0 411.1 129.7Q411.6 129.4 412.2 129.4L412.2 129.4Q412.3 129.4 412.5 129.4Q412.6 129.4 412.7 129.4L412.7 129.4L412.7 130.4Q412.7 130.4 412.5 130.4Q412.3 130.4 412.1 130.4L412.1 130.4Q411.6 130.4 411.2 130.6Q410.9 130.8 410.7 131.1Q410.4 131.5 410.4 131.9L410.4 131.9L410.4 136ZM415.0 136L413.9 136L413.9 129.4L415.0 129.4L415.0 136ZM414.4 128.4L414.4 128.4Q414.1 128.4 413.9 128.2Q413.7 128.0 413.7 127.7L413.7 127.7Q413.7 127.4 413.9 127.2Q414.1 127.0 414.4 127.0L414.4 127.0Q414.7 127.0 415.0 127.2Q415.2 127.4 415.2 127.7L415.2 127.7Q415.2 128.0 415.0 128.2Q414.7 128.4 414.4 128.4ZM417.9 132.1L417.9 132.1L417.9 136L416.8 136L416.8 129.4L417.8 129.4L417.8 130.7Q418.1 130.0 418.5 129.7L418.5 129.7Q419.1 129.4 419.8 129.4L419.8 129.4Q420.5 129.4 421.0 129.6Q421.5 129.9 421.8 130.5Q422.0 131.0 422.0 131.8L422.0 131.8L422.0 136L421.0 136L421.0 131.9Q421.0 131.2 420.6 130.7Q420.2 130.3 419.5 130.3L419.5 130.3Q419.0 130.3 418.7 130.5Q418.3 130.7 418.1 131.1Q417.9 131.5 417.9 132.1ZM426.6 138.6L426.6 138.6Q425.8 138.6 425.3 138.4Q424.8 138.2 424.4 137.9Q424.1 137.6 423.9 137.3L423.9 137.3L424.7 136.7Q424.9 136.9 425.1 137.1Q425.3 137.3 425.6 137.5Q426.0 137.7 426.6 137.7L426.6 137.7Q427.3 137.7 427.8 137.3Q428.4 136.9 428.4 136.1L428.4 136.1L428.4 134.8L428.3 134.8Q428.1 135.0 427.9 135.2Q427.7 135.5 427.4 135.7Q427.0 135.9 426.3 135.9L426.3 135.9Q425.6 135.9 424.9 135.5Q424.3 135.2 423.9 134.4Q423.6 133.7 423.6 132.7L423.6 132.7Q423.6 131.7 423.9 130.9Q424.3 130.2 424.9 129.8Q425.6 129.4 426.4 129.4L426.4 129.4Q427.0 129.4 427.4 129.6Q427.8 129.8 428.0 130.1Q428.2 130.3 428.3 130.5L428.3 130.5L428.4 130.5L428.4 129.4L429.4 129.4L429.4 136.2Q429.4 137.0 429.0 137.5Q428.6 138.1 428.0 138.3Q427.3 138.6 426.6 138.6ZM426.5 135.0L426.5 135.0Q427.1 135.0 427.5 134.7Q427.9 134.4 428.2 133.9Q428.4 133.4 428.4 132.7L428.4 132.7Q428.4 132.0 428.2 131.4Q427.9 130.9 427.5 130.6Q427.1 130.3 426.5 130.3L426.5 130.3Q425.9 130.3 425.5 130.6Q425.1 130.9 424.9 131.5Q424.7 132.0 424.7 132.7L424.7 132.7Q424.7 133.3 424.9 133.9Q425.1 134.4 425.5 134.7Q425.9 135.0 426.5 135.0Z "/></g><defs><clipPath id="satori_bc-id-2-2" clip-path="url(#satori_cp-id)"><path x="452" y="119" width="112" height="25" d="M464,119 h88 a12,12 0 0 1 12,12 v1 a12,12 0 0 1 -12,12 h-88 a12,12 0 0 1 -12,-12 v-1 a12,12 0 0 1 12,-12"/></clipPath></defs><mask id="satori_om-id-2-2"><rect x="453" y="120" width="110" height="23" fill="#fff" mask="url(#satori_om-id)"/><path width="112" height="25" fill="none" stroke="#000" stroke-width="2" d="M455.515,122.515 A12,12 0 0 1 464,119 h88 a12,12 0 0 1 12,12 v1 a12,12 0 0 1 -12,12 h-88 a12,12 0 0 1 -12,-12 v-1 A12,12 0 0 1 455.515,122.515"/></mask><path x="452" y="119" width="112" height="25" fill="rgba(12,10,20,0.6)" d="M464,119 h88 a12,12 0 0 1 12,12 v1 a12,12 0 0 1 -12,12 h-88 a12,12 0 0 1 -12,-12 v-1 a12,12 0 0 1 12,-12" clip-path="url(#satori_cp-id)" mask="url(#satori_om-id)"/><path width="112" height="25" clip-path="url(#satori_bc-id-2-2)" fill="none" stroke="rgba(120,80,220,0.2)" stroke-width="2" d="M455.515,122.515 A12,12 0 0 1 464,119 h88 a12,12 0 0 1 12,12 v1 a12,12 0 0 1 -12,12 h-88 a12,12 0 0 1 -12,-12 v-1 A12,12 0 0 1 455.515,122.515"/><g mask="url(#satori_om-id)" clip-path="url(#satori_cp-id)"><path fill="#a0a0ff" d="M469.6 136.1L469.6 136.1Q468.5 136.1 467.6 135.6Q466.7 135.0 466.2 134.0Q465.7 133.0 465.7 131.6L465.7 131.6Q465.7 130.3 466.2 129.2Q466.7 128.2 467.6 127.7Q468.4 127.2 469.6 127.2L469.6 127.2Q470.2 127.2 470.8 127.4Q471.4 127.6 471.9 127.9Q472.4 128.3 472.7 128.8Q473.0 129.4 473.1 130.0L473.1 130.0L472.0 130.0Q471.9 129.6 471.6 129.3Q471.4 128.9 471.1 128.7Q470.8 128.4 470.4 128.3Q470.0 128.2 469.6 128.2L469.6 128.2Q468.8 128.2 468.2 128.6Q467.5 129.0 467.2 129.7Q466.8 130.5 466.8 131.6L466.8 131.6Q466.8 132.8 467.2 133.5Q467.5 134.3 468.2 134.7Q468.8 135.1 469.6 135.1L469.6 135.1Q470.4 135.1 470.9 134.8Q471.5 134.5 471.8 133.9L471.8 133.9Q472.1 133.3 472.1 132.6L472.1 132.6L469.9 132.6L469.9 131.6L473.2 131.6L473.2 132.6Q473.2 133.7 472.7 134.4Q472.3 135.2 471.5 135.7Q470.7 136.1 469.6 136.1ZM475.9 136L474.9 136L474.9 129.4L475.9 129.4L475.9 136ZM475.4 128.4L475.4 128.4Q475.1 128.4 474.9 128.2Q474.7 128.0 474.7 127.7L474.7 127.7Q474.7 127.4 474.9 127.2Q475.1 127.0 475.4 127.0L475.4 127.0Q475.7 127.0 475.9 127.2Q476.2 127.4 476.2 127.7L476.2 127.7Q476.2 128.0 475.9 128.2Q475.7 128.4 475.4 128.4ZM479.0 129.4L480.4 129.4L480.4 130.4L479.0 130.4L479.0 134.3Q479.0 134.7 479.2 134.9Q479.4 135.1 479.8 135.1L479.8 135.1Q479.9 135.1 480.0 135.1Q480.2 135.1 480.3 135.1L480.3 135.1L480.5 136.0Q480.4 136.0 480.2 136.1Q480.0 136.1 479.8 136.1L479.8 136.1Q478.9 136.1 478.4 135.6Q478.0 135.2 478.0 134.4L478.0 134.4L478.0 130.4L477.0 130.4L477.0 129.4L478.0 129.4L478.0 127.9L479.0 127.9L479.0 129.4ZM483.0 136L481.8 136L481.8 127.3L483.0 127.3L483.0 131.0L487.5 131.0L487.5 127.3L488.6 127.3L488.6 136L487.5 136L487.5 132.0L483.0 132.0L483.0 136ZM492.8 136.1L492.8 136.1Q492.2 136.1 491.7 135.8Q491.2 135.5 490.9 135.0Q490.6 134.4 490.6 133.6L490.6 133.6L490.6 129.4L491.7 129.4L491.7 133.5Q491.7 134.3 492.1 134.7Q492.5 135.1 493.2 135.1L493.2 135.1Q493.6 135.1 494.0 134.9Q494.4 134.7 494.6 134.3Q494.8 133.9 494.8 133.4L494.8 133.4L494.8 129.4L495.9 129.4L495.9 136L494.9 136L494.9 134.8Q494.6 135.4 494.1 135.7L494.1 135.7Q493.6 136.1 492.8 136.1ZM500.8 136.1L500.8 136.1Q500.1 136.1 499.8 135.9Q499.4 135.7 499.2 135.4Q499.0 135.2 498.9 135.0L498.9 135.0L498.7 135.0L498.7 136L497.7 136L497.7 127.3L498.8 127.3L498.8 130.5L498.9 130.5Q499.0 130.3 499.2 130.1Q499.4 129.8 499.7 129.6Q500.1 129.4 500.8 129.4L500.8 129.4Q501.6 129.4 502.2 129.8Q502.8 130.2 503.2 130.9Q503.5 131.7 503.5 132.7L503.5 132.7Q503.5 133.8 503.2 134.5Q502.8 135.3 502.2 135.7Q501.6 136.1 500.8 136.1ZM500.6 135.2L500.6 135.2Q501.2 135.2 501.6 134.9Q502.0 134.5 502.3 134.0Q502.5 133.4 502.5 132.7L502.5 132.7Q502.5 132.1 502.3 131.5Q502.1 131.0 501.6 130.6Q501.2 130.3 500.6 130.3L500.6 130.3Q500.0 130.3 499.6 130.6Q499.2 130.9 499.0 131.5Q498.8 132.0 498.8 132.7L498.8 132.7Q498.8 133.5 499.0 134.0Q499.2 134.6 499.6 134.9Q500.0 135.2 500.6 135.2Z M509.0 136L507.8 136L511.0 127.3L512.3 127.3L515.5 136L514.3 136L513.5 133.6L509.9 133.6L509.0 136ZM510.2 132.6L513.1 132.6L512.5 130.8Q512.3 130.3 512.1 129.6L512.1 129.6Q511.9 129.0 511.6 128.2L511.6 128.2Q511.4 129.0 511.2 129.6L511.2 129.6Q511.0 130.4 510.8 130.8L510.8 130.8L510.2 132.6ZM519.4 136.1L519.4 136.1Q518.5 136.1 517.8 135.7Q517.2 135.3 516.8 134.5Q516.4 133.8 516.4 132.8L516.4 132.8Q516.4 131.7 516.8 131.0Q517.2 130.2 517.8 129.8Q518.5 129.4 519.4 129.4L519.4 129.4Q519.9 129.4 520.3 129.5Q520.7 129.6 521.1 129.8Q521.4 130.1 521.7 130.4Q521.9 130.8 522.0 131.2L522.0 131.2L521.0 131.5Q521.0 131.2 520.8 131.0Q520.7 130.8 520.5 130.6Q520.3 130.5 520.0 130.4Q519.7 130.3 519.4 130.3L519.4 130.3Q518.7 130.3 518.3 130.7Q517.9 131.0 517.7 131.6Q517.5 132.1 517.5 132.8L517.5 132.8Q517.5 133.4 517.7 134.0Q517.9 134.5 518.3 134.9Q518.7 135.2 519.4 135.2L519.4 135.2Q519.7 135.2 520.0 135.1Q520.3 135.0 520.5 134.9Q520.7 134.7 520.8 134.5Q521.0 134.3 521.1 134.0L521.1 134.0L522.1 134.3Q521.9 134.7 521.7 135.1Q521.4 135.4 521.1 135.6Q520.7 135.9 520.3 136.0Q519.9 136.1 519.4 136.1ZM524.8 129.4L526.2 129.4L526.2 130.4L524.8 130.4L524.8 134.3Q524.8 134.7 525.0 134.9Q525.2 135.1 525.6 135.1L525.6 135.1Q525.7 135.1 525.8 135.1Q526.0 135.1 526.1 135.1L526.1 135.1L526.3 136.0Q526.2 136.0 526.0 136.1Q525.8 136.1 525.6 136.1L525.6 136.1Q524.7 136.1 524.2 135.6Q523.8 135.2 523.8 134.4L523.8 134.4L523.8 130.4L522.8 130.4L522.8 129.4L523.8 129.4L523.8 127.9L524.8 127.9L524.8 129.4ZM528.6 136L527.5 136L527.5 129.4L528.6 129.4L528.6 136ZM528.0 128.4L528.0 128.4Q527.7 128.4 527.5 128.2Q527.3 128.0 527.3 127.7L527.3 127.7Q527.3 127.4 527.5 127.2Q527.7 127.0 528.0 127.0L528.0 127.0Q528.3 127.0 528.6 127.2Q528.8 127.4 528.8 127.7L528.8 127.7Q528.8 128.0 528.6 128.2Q528.3 128.4 528.0 128.4ZM533.1 136.1L533.1 136.1Q532.2 136.1 531.5 135.7Q530.8 135.3 530.5 134.5Q530.1 133.8 530.1 132.8L530.1 132.8Q530.1 131.7 530.5 131.0Q530.8 130.2 531.5 129.8Q532.2 129.4 533.1 129.4L533.1 129.4Q534.0 129.4 534.7 129.8Q535.3 130.2 535.7 131.0Q536.1 131.7 536.1 132.8L536.1 132.8Q536.1 133.8 535.7 134.5Q535.3 135.3 534.7 135.7Q534.0 136.1 533.1 136.1ZM533.1 135.2L533.1 135.2Q533.7 135.2 534.2 134.9Q534.6 134.5 534.8 134.0Q535.0 133.4 535.0 132.8L535.0 132.8Q535.0 132.1 534.8 131.6Q534.6 131.0 534.2 130.7Q533.7 130.3 533.1 130.3L533.1 130.3Q532.4 130.3 532.0 130.7Q531.6 131.0 531.4 131.6Q531.2 132.1 531.2 132.8L531.2 132.8Q531.2 133.4 531.4 134.0Q531.6 134.5 532.0 134.9Q532.4 135.2 533.1 135.2ZM538.7 132.1L538.7 132.1L538.7 136L537.6 136L537.6 129.4L538.6 129.4L538.6 130.7Q538.9 130.0 539.3 129.7L539.3 129.7Q539.9 129.4 540.6 129.4L540.6 129.4Q541.3 129.4 541.8 129.6Q542.3 129.9 542.6 130.5Q542.8 131.0 542.8 131.8L542.8 131.8L542.8 136L541.8 136L541.8 131.9Q541.8 131.2 541.4 130.7Q541.0 130.3 540.3 130.3L540.3 130.3Q539.8 130.3 539.5 130.5Q539.1 130.7 538.9 131.1Q538.7 131.5 538.7 132.1ZM546.9 136.1L546.9 136.1Q546.3 136.1 545.7 135.9Q545.2 135.7 544.9 135.4Q544.5 135.0 544.4 134.4L544.4 134.4L545.4 134.2Q545.5 134.7 545.9 135.0Q546.3 135.2 546.9 135.2L546.9 135.2Q547.6 135.2 548.0 134.9Q548.4 134.6 548.4 134.2L548.4 134.2Q548.4 133.9 548.2 133.7Q547.9 133.4 547.5 133.3L547.5 133.3L546.4 133.1Q545.5 132.9 545.0 132.4Q544.6 132.0 544.6 131.3L544.6 131.3Q544.6 130.7 544.9 130.3Q545.2 129.9 545.8 129.6Q546.3 129.4 547.0 129.4L547.0 129.4Q547.7 129.4 548.2 129.6Q548.6 129.8 548.9 130.1Q549.2 130.5 549.4 130.9L549.4 130.9L548.4 131.2Q548.3 130.8 548.0 130.6Q547.7 130.3 547.0 130.3L547.0 130.3Q546.5 130.3 546.1 130.5Q545.7 130.8 545.7 131.2L545.7 131.2Q545.7 131.6 545.9 131.8Q546.2 132.0 546.8 132.2L546.8 132.2L547.8 132.4Q548.7 132.6 549.1 133.0Q549.5 133.5 549.5 134.2L549.5 134.2Q549.5 134.7 549.2 135.2Q548.9 135.6 548.3 135.9Q547.7 136.1 546.9 136.1Z "/></g></svg>