<!-- Generated by readme-aura https://github.com/collectioneur/readme-aura -->
<svg width="800" height="180" viewBox="0 0 800 180" xmlns="http://www.w3.org/2000/svg"><defs><clipPath id="satori_bc-id"><path x="0" y="0" width="800" height="180" d="M20,0 h760 a20,20 0 0 1 20,20 v140 a20,20 0 0 1 -20,20 h-760 a20,20 0 0 1 -20,-20 v-140 a20,20 0 0 1 20,-20"/></clipPath></defs><clipPath id="satori_cp-id"><path x="0" y="0" width="800" height="180" d="M20,0 h760 a20,20 0 0 1 20,20 v140 a20,20 0 0 1 -20,20 h-760 a20,20 0 0 1 -20,-20 v-140 a20,20 0 0 1 20,-20"/></clipPath><mask id="satori_om-id"><rect x="1" y="1" width="798" height="178" fill="#fff"/><path width="800" height="180" fill="none" stroke="#000" stroke-width="2" d="M5.8580000000000005,5.8580000000000005 A20,20 0 0 1 20,0 h760 a20,20 0 0 1 20,20 v140 a20,20 0 0 1 -20,20 h-760 a20,20 0 0 1 -20,-20 v-140 A20,20 0 0 1 5.8580000000000005,5.8580000000000005"/></mask><path x="0" y="0" width="800" height="180" fill="#08080c" d="M20,0 h760 a20,20 0 0 1 20,20 v140 a20,20 0 0 1 -20,20 h-760 a20,20 0 0 1 -20,-20 v-140 a20,20 0 0 1 20,-20"/><path width="800" height="180" clip-path="url(#satori_bc-id)" fill="none" stroke="rgba(110,80,220,0.18)" stroke-width="2" d="M5.8580000000000005,5.8580000000000005 A20,20 0 0 1 20,0 h760 a20,20 0 0 1 20,20 v140 a20,20 0 0 1 -20,20 h-760 a20,20 0 0 1 -20,-20 v-140 A20,20 0 0 1 5.8580000000000005,5.8580000000000005"/><clipPath id="satori_cp-id-0" clip-path="url(#satori_cp-id)"><rect x="1" y="1" width="800" height="180"/></clipPath><mask id="satori_om-id-0"><rect x="1" y="1" width="800" height="180" fill="#fff" mask="url(#satori_om-id)"/></mask><svg x="1" y="1" width="800" height="180" preserveAspectRatio="none" clip-path="url(#satori_cp-id-0)" mask="url(#satori_om-id-0)"><defs><radialGradient id="bng1" cx="50%" cy="50%" r="50%"><stop offset="0%" stop-color="rgba(110,20,210,0.65)"></stop><stop offset="70%" stop-color="rgba(110,20,210,0)"></stop></radialGradient><radialGradient id="bng2" cx="50%" cy="50%" r="50%"><stop offset="0%" stop-color="rgba(40,70,255,0.55)"></stop><stop offset="70%" stop-color="rgba(40,70,255,0)"></stop></radialGradient><radialGradient id="bng3" cx="50%" cy="50%" r="50%"><stop offset="0%" stop-color="rgba(255,50,180,0.5)"></stop><stop offset="70%" stop-color="rgba(255,50,180,0)"></stop></radialGradient><radialGradient id="bng4" cx="50%" cy="50%" r="50%"><stop offset="0%" stop-color="rgba(160,30,255,0.5)"></stop><stop offset="70%" stop-color="rgba(160,30,255,0)"></stop></radialGradient><radialGradient id="bng5" cx="50%" cy="50%" r="50%"><stop offset="0%" stop-color="rgba(0,140,255,0.45)"></stop><stop offset="70%" stop-color="rgba(0,140,255,0)"></stop></radialGradient><radialGradient id="bng6" cx="50%" cy="50%" r="50%"><stop offset="0%" stop-color="rgba(200,30,200,0.45)"></stop><stop offset="70%" stop-color="rgba(200,30,200,0)"></stop></radialGradient><radialGradient id="bng7" cx="50%" cy="50%" r="50%"><stop offset="0%" stop-color="rgba(100,25,205,0.42)"></stop><stop offset="70%" stop-color="rgba(100,25,205,0)"></stop></radialGradient><radialGradient id="bng8" cx="50%" cy="50%" r="50%"><stop offset="0%" stop-color="rgba(60,80,255,0.38)"></stop><stop offset="70%" stop-color="rgba(60,80,255,0)"></stop></radialGradient></defs><ellipse id="bn-tl1" cx="-100" cy="60" rx="140" ry="10" fill="url(#bng1)"></ellipse><ellipse id="bn-tl2" cx="840" cy="50" rx="120" ry="20" fill="url(#bng2)"></ellipse><ellipse id="bn-tr1" cx="720" cy="55" rx="130" ry="25" fill="url(#bng3)"></ellipse><ellipse id="bn-tr2" cx="660" cy="65" rx="110" ry="15" fill="url(#bng4)"></ellipse><ellipse id="bn-br1" cx="700" cy="130" rx="140" ry="10" fill="url(#bng5)"></ellipse><ellipse id="bn-br2" cx="740" cy="140" rx="100" ry="10" fill="url(#bng6)"></ellipse><ellipse id="bn-bl1" cx="100" cy="125" rx="130" ry="15" fill="url(#bng7)"></ellipse><ellipse id="bn-bl2" cx="60" cy="135" rx="110" ry="15" fill="url(#bng8)"></ellipse><ellipse id="bn-tl1" cx="-50" cy="60" rx="140" ry="10" fill="url(#bng1)"></ellipse><ellipse id="bn-tl2" cx="800" cy="50" rx="120" ry="10" fill="url(#bng2)"></ellipse><ellipse id="bn-tr1" cx="230" cy="55" rx="130" ry="25" fill="url(#bng3)"></ellipse><ellipse id="bn-tr2" cx="400" cy="65" rx="110" ry="15" fill="url(#bng4)"></ellipse><ellipse id="bn-br1" cx="500" cy="130" rx="140" ry="20" fill="url(#bng5)"></ellipse><ellipse id="bn-br2" cx="40" cy="140" rx="100" ry="10" fill="url(#bng6)"></ellipse><ellipse id="bn-bl1" cx="100" cy="125" rx="130" ry="15" fill="url(#bng7)"></ellipse><ellipse id="bn-bl2" cx="240" cy="135" rx="110" ry="15" fill="url(#bng8)"></ellipse><style>

      @keyframes bn-drift-r { 0% { transform: translate(0, 0); opacity: 0.8; } 100% { transform: translate(1056px, 0); opacity: 1.05; } }
      @keyframes bn-drift-l { 0% { transform: translate(0, 0); opacity: 0.75; } 100% { transform: translate(-1003px, 0); opacity: 1; } }
      @keyframes bn-drift-u { 0% { transform: translate(0, 0); opacity: 0.85; } 100% { transform: translate(1000px, 0); opacity: 1; } }
      @keyframes bn-pulse { 0% { transform: scale(1); opacity: 0.8; } 100% { transform: translate(-1044px, 0); opacity: 0.5; } }
      #bn-tl1 { animation: bn-drift-r 0.8s infinite; }
      #bn-tl2 { animation: bn-drift-l 1.0s  infinite; }
      #bn-tr1 { animation: bn-drift-l 0.9s infinite 0.3s; }
      #bn-tr2 { animation: bn-drift-r 1.0s  infinite 0.1s; }
      #bn-br1 { animation: bn-drift-r 1.2s infinite 0.5s; }
      #bn-br2 { animation: bn-pulse 1s infinite; }
      #bn-bl1 { animation: bn-drift-l 1.3s infinite 0.2s; }
      #bn-bl2 { animation: bn-drift-u 0.7s infinite 0.4s; }
    
</style>
</svg><mask id="satori_om-id-0-0"><rect x="1" y="1" width="0" height="180" fill="#fff" mask="url(#satori_om-id)"/></mask><mask id="satori_om-id-0-0-0"><rect x="1" y="1" width="0" height="180" fill="#fff" mask="url(#satori_om-id)"/></mask><mask id="satori_om-id-0-0-0-0"><rect x="1" y="1" width="0" height="180" fill="#fff" mask="url(#satori_om-id)"/></mask><mask id="satori_om-id-0-0-0-1"><rect x="1" y="1" width="0" height="180" fill="#fff" mask="url(#satori_om-id)"/></mask><mask id="satori_om-id-0-0-1"><rect x="1" y="1" width="0" height="180" fill="#fff" mask="url(#satori_om-id)"/></mask><mask id="satori_om-id-0-0-1-0"><rect x="1" y="1" width="0" height="180" fill="#fff" mask="url(#satori_om-id)"/></mask><mask id="satori_om-id-0-0-1-1"><rect x="1" y="1" width="0" height="180" fill="#fff" mask="url(#satori_om-id)"/></mask><mask id="satori_om-id-0-0-2"><rect x="1" y="1" width="0" height="180" fill="#fff" mask="url(#satori_om-id)"/></mask><mask id="satori_om-id-0-0-2-0"><rect x="1" y="1" width="0" height="180" fill="#fff" mask="url(#satori_om-id)"/></mask><mask id="satori_om-id-0-0-2-1"><rect x="1" y="1" width="0" height="180" fill="#fff" mask="url(#satori_om-id)"/></mask><mask id="satori_om-id-0-0-3"><rect x="1" y="1" width="0" height="180" fill="#fff" mask="url(#satori_om-id)"/></mask><mask id="satori_om-id-0-0-3-0"><rect x="1" y="1" width="0" height="180" fill="#fff" mask="url(#satori_om-id)"/></mask><mask id="satori_om-id-0-0-3-1"><rect x="1" y="1" width="0" height="180" fill="#fff" mask="url(#satori_om-id)"/></mask><mask id="satori_om-id-0-0-4"><rect x="1" y="1" width="0" height="180" fill="#fff" mask="url(#satori_om-id)"/></mask><mask id="satori_om-id-0-0-4-0"><rect x="1" y="1" width="0" height="180" fill="#fff" mask="url(#satori_om-id)"/></mask><mask id="satori_om-id-0-0-4-1"><rect x="1" y="1" width="0" height="180" fill="#fff" mask="url(#satori_om-id)"/></mask><mask id="satori_om-id-0-0-5"><rect x="1" y="1" width="0" height="180" fill="#fff" mask="url(#satori_om-id)"/></mask><mask id="satori_om-id-0-0-5-0"><rect x="1" y="1" width="0" height="180" fill="#fff" mask="url(#satori_om-id)"/></mask><mask id="satori_om-id-0-0-5-1"><rect x="1" y="1" width="0" height="180" fill="#fff" mask="url(#satori_om-id)"/></mask><mask id="satori_om-id-0-0-6"><rect x="1" y="1" width="0" height="180" fill="#fff" mask="url(#satori_om-id)"/></mask><mask id="satori_om-id-0-0-6-0"><rect x="1" y="1" width="0" height="180" fill="#fff" mask="url(#satori_om-id)"/></mask><mask id="satori_om-id-0-0-6-1"><rect x="1" y="1" width="0" height="180" fill="#fff" mask="url(#satori_om-id)"/></mask><mask id="satori_om-id-0-0-7"><rect x="1" y="1" width="0" height="180" fill="#fff" mask="url(#satori_om-id)"/></mask><mask id="satori_om-id-0-0-7-0"><rect x="1" y="1" width="0" height="180" fill="#fff" mask="url(#satori_om-id)"/></mask><mask id="satori_om-id-0-0-7-1"><rect x="1" y="1" width="0" height="180" fill="#fff" mask="url(#satori_om-id)"/></mask><mask id="satori_om-id-0-1"><rect x="1" y="1" width="0" height="180" fill="#fff" mask="url(#satori_om-id)"/></mask><mask id="satori_om-id-0-2"><rect x="1" y="1" width="0" height="180" fill="#fff" mask="url(#satori_om-id)"/></mask><mask id="satori_om-id-0-3"><rect x="1" y="1" width="0" height="180" fill="#fff" mask="url(#satori_om-id)"/></mask><mask id="satori_om-id-0-4"><rect x="1" y="1" width="0" height="180" fill="#fff" mask="url(#satori_om-id)"/></mask><mask id="satori_om-id-0-5"><rect x="1" y="1" width="0" height="180" fill="#fff" mask="url(#satori_om-id)"/></mask><mask id="satori_om-id-0-6"><rect x="1" y="1" width="0" height="180" fill="#fff" mask="url(#satori_om-id)"/></mask><mask id="satori_om-id-0-7"><rect x="1" y="1" width="0" height="180" fill="#fff" mask="url(#satori_om-id)"/></mask><mask id="satori_om-id-0-8"><rect x="1" y="1" width="0" height="180" fill="#fff" mask="url(#satori_om-id)"/></mask><mask id="satori_om-id-0-9"><rect x="1" y="1" width="0" height="180" fill="#fff" mask="url(#satori_om-id)"/></mask><mask id="satori_om-id-0-10"><rect x="1" y="1" width="0" height="180" fill="#fff" mask="url(#satori_om-id)"/></mask><mask id="satori_om-id-0-11"><rect x="1" y="1" width="0" height="180" fill="#fff" mask="url(#satori_om-id)"/></mask><mask id="satori_om-id-0-12"><rect x="1" y="1" width="0" height="180" fill="#fff" mask="url(#satori_om-id)"/></mask><mask id="satori_om-id-0-13"><rect x="1" y="1" width="0" height="180" fill="#fff" mask="url(#satori_om-id)"/></mask><mask id="satori_om-id-0-14"><rect x="1" y="1" width="0" height="180" fill="#fff" mask="url(#satori_om-id)"/></mask><mask id="satori_om-id-0-15"><rect x="1" y="1" width="0" height="180" fill="#fff" mask="url(#satori_om-id)"/></mask><mask id="satori_om-id-0-16"><rect x="1" y="1" width="0" height="180" fill="#fff" mask="url(#satori_om-id)"/></mask><mask id="satori_om-id-1"><rect x="247" y="37" width="306" height="62" fill="#fff" mask="url(#satori_om-id)"/></mask><mask id="satori_om-id-1-0"><rect x="247" y="37" width="306" height="62" fill="#fff" mask="url(#satori_om-id)"/></mask><mask id="satori_om-id-1-0-0"><rect x="247" y="37" width="306" height="39" fill="#fff" mask="url(#satori_om-id)"/></mask><g mask="url(#satori_om-id)" clip-path="url(#satori_cp-id)"><path fill="white" d="M253.7 68L249 68L249 50.5L253.5 50.5L253.5 53.6L253.7 53.6Q254.2 52.0 255.3 51.1Q256.5 50.3 257.9 50.3L257.9 50.3Q258.3 50.3 258.7 50.3Q259.1 50.4 259.5 50.5L259.5 50.5L259.5 54.6Q259.1 54.5 258.5 54.5Q258.0 54.4 257.4 54.4L257.4 54.4Q256.4 54.4 255.5 54.9Q254.6 55.3 254.2 56.1Q253.7 57.0 253.7 58.1L253.7 58.1L253.7 68ZM269.9 68.3L269.9 68.3Q267.3 68.3 265.3 67.3Q263.4 66.2 262.3 64.1Q261.3 62.1 261.3 59.4L261.3 59.4Q261.3 56.7 262.3 54.6Q263.4 52.6 265.3 51.5Q267.1 50.3 269.7 50.3L269.7 50.3Q271.4 50.3 272.9 50.9Q274.4 51.4 275.5 52.5Q276.6 53.6 277.3 55.3Q277.9 56.9 277.9 59.2L277.9 59.2L277.9 60.5L265.9 60.5Q266.0 61.8 266.5 62.8L266.5 62.8Q267.0 63.8 267.9 64.3Q268.8 64.8 270 64.8L270 64.8Q270.8 64.8 271.5 64.6Q272.2 64.3 272.6 63.9Q273.1 63.4 273.4 62.8L273.4 62.8L277.6 63.5Q277.2 65.0 276.2 66.1Q275.1 67.2 273.5 67.8Q272.0 68.3 269.9 68.3ZM266.0 57.5L266.0 57.5L273.4 57.5Q273.3 56.7 273 56.0L273 56.0Q272.6 55.0 271.8 54.4Q270.9 53.8 269.7 53.8L269.7 53.8Q268.5 53.8 267.7 54.4Q266.8 55.0 266.4 55.9L266.4 55.9Q266.0 56.7 266.0 57.5ZM286.0 68.3L286.0 68.3Q284.3 68.3 283.0 67.8Q281.7 67.2 280.9 66.0Q280.2 64.8 280.2 63.1L280.2 63.1Q280.2 61.7 280.7 60.7Q281.2 59.7 282.2 59.1Q283.1 58.5 284.3 58.2Q285.5 57.9 286.8 57.8L286.8 57.8Q288.3 57.6 289.2 57.5Q290.1 57.3 290.6 57.0Q291.0 56.8 291.0 56.2L291.0 56.2L291.0 56.1Q291.0 55.4 290.7 54.8Q290.4 54.3 289.7 54.1Q289.1 53.8 288.3 53.8L288.3 53.8Q287.3 53.8 286.7 54.1Q286 54.3 285.6 54.8Q285.2 55.2 285.0 55.8L285.0 55.8L280.7 55.1Q281.1 53.6 282.2 52.5Q283.2 51.4 284.8 50.9Q286.3 50.3 288.3 50.3L288.3 50.3Q289.7 50.3 291 50.6Q292.3 51.0 293.4 51.7Q294.4 52.4 295.1 53.5Q295.7 54.7 295.7 56.2L295.7 56.2L295.7 68L291.2 68L291.2 65.6L291.1 65.6Q290.7 66.4 290.0 67.0Q289.3 67.6 288.3 68.0Q287.3 68.3 286.0 68.3ZM287.3 65.0L287.3 65.0Q288.4 65.0 289.2 64.6Q290.1 64.2 290.5 63.4Q291.0 62.7 291.0 61.8L291.0 61.8L291.0 59.9Q290.8 60.0 290.4 60.1Q290.0 60.3 289.5 60.4Q288.9 60.5 288.4 60.5Q287.9 60.6 287.5 60.7L287.5 60.7Q286.7 60.8 286.0 61.1Q285.4 61.3 285.0 61.8Q284.7 62.3 284.7 63.0L284.7 63.0Q284.7 63.7 285 64.1Q285.3 64.6 285.9 64.8Q286.5 65.0 287.3 65.0ZM306.0 68.3L306.0 68.3Q304.0 68.3 302.4 67.3Q300.8 66.2 299.9 64.2Q298.9 62.2 298.9 59.3L298.9 59.3Q298.9 56.3 299.9 54.3Q300.9 52.3 302.5 51.3Q304.1 50.3 306.0 50.3L306.0 50.3Q307.5 50.3 308.5 50.8Q309.5 51.3 310.1 52.0Q310.7 52.8 311 53.5L311 53.5L311.2 53.5L311.2 44.7L315.8 44.7L315.8 68L311.2 68L311.2 65.2L311 65.2Q310.7 65.9 310.1 66.6Q309.5 67.3 308.5 67.8Q307.5 68.3 306.0 68.3ZM307.5 64.5L307.5 64.5Q308.7 64.5 309.5 63.9Q310.4 63.2 310.8 62.0Q311.3 60.9 311.3 59.3L311.3 59.3Q311.3 57.7 310.8 56.5Q310.4 55.4 309.5 54.7Q308.7 54.1 307.5 54.1L307.5 54.1Q306.3 54.1 305.4 54.7Q304.6 55.4 304.2 56.6Q303.8 57.8 303.8 59.3L303.8 59.3Q303.8 60.8 304.2 62Q304.6 63.2 305.4 63.9Q306.3 64.5 307.5 64.5ZM324.5 68L319.8 68L319.8 50.5L324.2 50.5L324.4 53.9Q324.7 53.0 325.3 52.3L325.3 52.3Q326.1 51.2 327.1 50.8Q328.2 50.3 329.4 50.3L329.4 50.3Q331.3 50.3 332.4 51.5L332.4 51.5Q333.3 52.4 333.9 54.2L333.9 54.2Q334.2 53.1 334.8 52.4L334.8 52.4Q335.7 51.3 336.9 50.8Q338.1 50.3 339.5 50.3L339.5 50.3Q341.1 50.3 342.3 51.0Q343.6 51.7 344.3 53.0Q345.0 54.3 345.0 56.2L345.0 56.2L345.0 68L340.4 68L340.4 57.1Q340.4 55.6 339.6 54.9Q338.8 54.2 337.6 54.2L337.6 54.2Q336.7 54.2 336.1 54.6Q335.4 55.0 335.1 55.6Q334.7 56.3 334.7 57.3L334.7 57.3L334.7 68L330.2 68L330.2 57.0Q330.2 55.7 329.4 54.9Q328.7 54.2 327.5 54.2L327.5 54.2Q326.6 54.2 326.0 54.6Q325.3 54.9 324.9 55.7Q324.5 56.4 324.5 57.4L324.5 57.4L324.5 68ZM356.9 68.3L356.9 68.3Q354.3 68.3 352.3 67.3Q350.4 66.2 349.4 64.1Q348.3 62.1 348.3 59.4L348.3 59.4Q348.3 56.7 349.3 54.6Q350.4 52.6 352.3 51.5Q354.2 50.3 356.7 50.3L356.7 50.3Q358.4 50.3 359.9 50.9Q361.4 51.4 362.5 52.5Q363.6 53.6 364.3 55.3Q364.9 56.9 364.9 59.2L364.9 59.2L364.9 60.5L353.0 60.5Q353 61.8 353.5 62.8L353.5 62.8Q354.0 63.8 354.9 64.3Q355.8 64.8 357.0 64.8L357.0 64.8Q357.8 64.8 358.5 64.6Q359.2 64.3 359.7 63.9Q360.1 63.4 360.4 62.8L360.4 62.8L364.6 63.5Q364.2 65.0 363.2 66.1Q362.1 67.2 360.6 67.8Q359.0 68.3 356.9 68.3ZM353.0 57.5L353.0 57.5L360.4 57.5Q360.3 56.7 360.0 56.0L360.0 56.0Q359.6 55.0 358.8 54.4Q358.0 53.8 356.8 53.8L356.8 53.8Q355.5 53.8 354.7 54.4Q353.8 55.0 353.4 55.9L353.4 55.9Q353.1 56.7 353.0 57.5ZM368.3 56.5L378.9 56.5L378.9 60.3L368.3 60.3L368.3 56.5ZM388.0 68.3L388.0 68.3Q386.3 68.3 385.0 67.8Q383.7 67.2 382.9 66.0Q382.1 64.8 382.1 63.1L382.1 63.1Q382.1 61.7 382.7 60.7Q383.2 59.7 384.1 59.1Q385.1 58.5 386.3 58.2Q387.4 57.9 388.7 57.8L388.7 57.8Q390.3 57.6 391.2 57.5Q392.1 57.3 392.5 57.0Q393.0 56.8 393.0 56.2L393.0 56.2L393.0 56.1Q393.0 55.4 392.7 54.8Q392.3 54.3 391.7 54.1Q391.1 53.8 390.2 53.8L390.2 53.8Q389.3 53.8 388.7 54.1Q388.0 54.3 387.6 54.8Q387.1 55.2 386.9 55.8L386.9 55.8L382.6 55.1Q383.1 53.6 384.1 52.5Q385.2 51.4 386.7 50.9Q388.3 50.3 390.3 50.3L390.3 50.3Q391.7 50.3 393.0 50.6Q394.3 51.0 395.4 51.7Q396.4 52.4 397.0 53.5Q397.7 54.7 397.7 56.2L397.7 56.2L397.7 68L393.2 68L393.2 65.6L393.1 65.6Q392.6 66.4 391.9 67.0Q391.2 67.6 390.2 68.0Q389.3 68.3 388.0 68.3ZM389.3 65.0L389.3 65.0Q390.4 65.0 391.2 64.6Q392.1 64.2 392.5 63.4Q393 62.7 393 61.8L393 61.8L393 59.9Q392.8 60.0 392.4 60.1Q392.0 60.3 391.4 60.4Q390.9 60.5 390.4 60.5Q389.9 60.6 389.5 60.7L389.5 60.7Q388.7 60.8 388.0 61.1Q387.4 61.3 387 61.8Q386.6 62.3 386.6 63.0L386.6 63.0Q386.6 63.7 387.0 64.1Q387.3 64.6 387.9 64.8Q388.5 65.0 389.3 65.0ZM407.7 68.2L407.7 68.2Q405.9 68.2 404.5 67.4Q403.1 66.6 402.4 65.2Q401.7 63.7 401.7 61.6L401.7 61.6L401.7 50.5L406.3 50.5L406.3 60.8Q406.3 62.5 407.2 63.4Q408.0 64.3 409.5 64.3L409.5 64.3Q410.5 64.3 411.3 63.9Q412.0 63.4 412.5 62.6Q412.9 61.8 412.9 60.6L412.9 60.6L412.9 50.5L417.6 50.5L417.6 68L413.2 68L413.1 64.4Q412.4 66.0 411.3 67.0L411.3 67.0Q409.8 68.2 407.7 68.2ZM426.3 68L421.6 68L421.6 50.5L426.1 50.5L426.1 53.6L426.3 53.6Q426.8 52.0 427.9 51.1Q429.0 50.3 430.5 50.3L430.5 50.3Q430.9 50.3 431.3 50.3Q431.7 50.4 432.0 50.5L432.0 50.5L432.0 54.6Q431.7 54.5 431.1 54.5Q430.5 54.4 430 54.4L430 54.4Q428.9 54.4 428.1 54.9Q427.2 55.3 426.7 56.1Q426.3 57.0 426.3 58.1L426.3 58.1L426.3 68ZM439.5 68.3L439.5 68.3Q437.8 68.3 436.5 67.8Q435.2 67.2 434.4 66.0Q433.7 64.8 433.7 63.1L433.7 63.1Q433.7 61.7 434.2 60.7Q434.8 59.7 435.7 59.1Q436.6 58.5 437.8 58.2Q439.0 57.9 440.3 57.8L440.3 57.8Q441.8 57.6 442.7 57.5Q443.6 57.3 444.1 57.0Q444.5 56.8 444.5 56.2L444.5 56.2L444.5 56.1Q444.5 55.4 444.2 54.8Q443.9 54.3 443.3 54.1Q442.6 53.8 441.8 53.8L441.8 53.8Q440.9 53.8 440.2 54.1Q439.5 54.3 439.1 54.8Q438.7 55.2 438.5 55.8L438.5 55.8L434.2 55.1Q434.6 53.6 435.7 52.5Q436.7 51.4 438.3 50.9Q439.8 50.3 441.8 50.3L441.8 50.3Q443.2 50.3 444.5 50.6Q445.8 51.0 446.9 51.7Q448.0 52.4 448.6 53.5Q449.2 54.7 449.2 56.2L449.2 56.2L449.2 68L444.8 68L444.8 65.6L444.6 65.6Q444.2 66.4 443.5 67.0Q442.8 67.6 441.8 68.0Q440.8 68.3 439.5 68.3ZM440.8 65.0L440.8 65.0Q441.9 65.0 442.8 64.6Q443.6 64.2 444.1 63.4Q444.5 62.7 444.5 61.8L444.5 61.8L444.5 59.9Q444.3 60.0 443.9 60.1Q443.5 60.3 443.0 60.4Q442.5 60.5 442.0 60.5Q441.5 60.6 441.1 60.7L441.1 60.7Q440.2 60.8 439.5 61.1Q438.9 61.3 438.5 61.8Q438.2 62.3 438.2 63.0L438.2 63.0Q438.2 63.7 438.5 64.1Q438.9 64.6 439.5 64.8Q440.0 65.0 440.8 65.0Z "/></g><mask id="satori_om-id-1-0-1"><rect x="247" y="80" width="306" height="19" fill="#fff" mask="url(#satori_om-id)"/></mask><g mask="url(#satori_om-id)" clip-path="url(#satori_cp-id)"><path fill="#a0a0b8" d="M249.9 96L248.4 96L248.4 84.4L250.2 84.4L254.9 91.8Q255.1 92.1 255.3 92.5Q255.6 93 255.9 93.6L255.9 93.6Q256.1 93.9 256.3 94.2L256.3 94.2Q256.2 93.9 256.2 93.5L256.2 93.5Q256.2 92.9 256.2 92.4Q256.2 91.9 256.2 91.5L256.2 91.5L256.2 84.4L257.6 84.4L257.6 96L255.9 96L251.7 89.4Q251.4 88.9 251.1 88.4Q250.8 87.9 250.4 87.3L250.4 87.3Q250.1 86.8 249.8 86.1L249.8 86.1Q249.8 86.7 249.8 87.2L249.8 87.2Q249.9 88.0 249.9 88.5Q249.9 89.0 249.9 89.4L249.9 89.4L249.9 96ZM264.0 96.2L264.0 96.2Q262.7 96.2 261.8 95.6Q260.9 95.1 260.4 94.1Q259.9 93.0 259.9 91.7Q259.9 90.4 260.4 89.3Q260.8 88.3 261.7 87.7Q262.6 87.2 263.8 87.2L263.8 87.2Q264.5 87.2 265.2 87.4Q265.8 87.6 266.4 88.1Q266.9 88.6 267.3 89.5Q267.6 90.3 267.6 91.5L267.6 91.5L267.6 92.1L261.3 92.1Q261.3 93.0 261.6 93.6L261.6 93.6Q262.0 94.2 262.6 94.6Q263.2 94.9 264.0 94.9L264.0 94.9Q264.5 94.9 264.9 94.8Q265.3 94.6 265.6 94.3Q265.9 94.0 266.1 93.6L266.1 93.6L267.5 94.0Q267.3 94.6 266.8 95.1Q266.3 95.6 265.6 95.9Q264.9 96.2 264.0 96.2ZM261.3 90.9L261.3 90.9L266.2 90.9Q266.1 90.3 265.9 89.8L265.9 89.8Q265.6 89.2 265.1 88.8Q264.6 88.4 263.8 88.4Q263.0 88.4 262.4 88.8Q261.9 89.2 261.6 89.8L261.6 89.8Q261.3 90.3 261.3 90.9ZM270.5 96L268.9 96L272.0 91.5L269.1 87.3L270.7 87.3L271.8 89.0Q272.2 89.6 272.5 90.2L272.5 90.2Q272.7 90.4 272.8 90.7L272.8 90.7Q272.9 90.4 273.0 90.2L273.0 90.2Q273.3 89.6 273.8 89.0L273.8 89.0L274.9 87.3L276.5 87.3L273.5 91.6L276.6 96L275.0 96L273.7 94.0Q273.3 93.4 273.0 92.8L273.0 92.8Q272.9 92.6 272.7 92.4L272.7 92.4Q272.6 92.6 272.5 92.8L272.5 92.8Q272.2 93.4 271.8 94.0L271.8 94.0L270.5 96ZM280.0 87.3L281.8 87.3L281.8 88.5L280.0 88.5L280.0 93.7Q280.0 94.3 280.2 94.6Q280.5 94.9 281.0 94.9L281.0 94.9Q281.2 94.9 281.4 94.8Q281.6 94.8 281.7 94.8L281.7 94.8L282.0 96.0Q281.8 96.0 281.5 96.1Q281.3 96.1 281.0 96.1L281.0 96.1Q279.9 96.1 279.2 95.5Q278.6 94.9 278.6 93.8L278.6 93.8L278.6 88.5L277.3 88.5L277.3 87.3L278.6 87.3L278.6 85.2L280.0 85.2L280.0 87.3ZM283.5 90.4L288.6 90.4L288.6 91.7L283.5 91.7L283.5 90.4ZM295.9 96.2L295.9 96.2Q294.3 96.2 293.1 95.4Q292.0 94.7 291.3 93.4Q290.7 92.0 290.7 90.2L290.7 90.2Q290.7 88.3 291.3 87.0Q292.0 85.7 293.1 84.9Q294.3 84.2 295.8 84.2L295.8 84.2Q296.7 84.2 297.5 84.5Q298.3 84.8 298.9 85.3Q299.6 85.8 300.0 86.5Q300.4 87.2 300.6 88.0L300.6 88.0L299.0 88.0Q298.9 87.4 298.6 87Q298.3 86.6 297.8 86.2Q297.4 85.9 296.9 85.7Q296.4 85.6 295.8 85.6L295.8 85.6Q294.8 85.6 293.9 86.1Q293.1 86.6 292.6 87.7Q292.1 88.7 292.1 90.2L292.1 90.2Q292.1 91.7 292.6 92.7Q293.1 93.7 294.0 94.3Q294.8 94.8 295.9 94.8L295.9 94.8Q296.9 94.8 297.6 94.4Q298.4 93.9 298.8 93.2L298.8 93.2Q299.2 92.4 299.2 91.4L299.2 91.4L296.2 91.4L296.2 90.1L300.6 90.1L300.6 91.4Q300.6 92.9 300.0 93.9Q299.4 95.0 298.3 95.6Q297.3 96.2 295.9 96.2ZM306.6 96.2L306.6 96.2Q305.3 96.2 304.4 95.6Q303.5 95.1 303.0 94.1Q302.5 93.0 302.5 91.7Q302.5 90.4 302.9 89.3Q303.4 88.3 304.3 87.7Q305.2 87.2 306.4 87.2L306.4 87.2Q307.1 87.2 307.8 87.4Q308.4 87.6 309.0 88.1Q309.5 88.6 309.9 89.5Q310.2 90.3 310.2 91.5L310.2 91.5L310.2 92.1L303.9 92.1Q303.9 93.0 304.2 93.6L304.2 93.6Q304.6 94.2 305.2 94.6Q305.8 94.9 306.6 94.9L306.6 94.9Q307.1 94.9 307.5 94.8Q307.9 94.6 308.2 94.3Q308.5 94.0 308.7 93.6L308.7 93.6L310.1 94.0Q309.9 94.6 309.4 95.1Q308.9 95.6 308.2 95.9Q307.5 96.2 306.6 96.2ZM303.9 90.9L303.9 90.9L308.8 90.9Q308.7 90.3 308.5 89.8L308.5 89.8Q308.2 89.2 307.7 88.8Q307.2 88.4 306.4 88.4Q305.6 88.4 305.0 88.8Q304.5 89.2 304.2 89.8L304.2 89.8Q303.9 90.3 303.9 90.9ZM313.6 90.8L313.6 90.8L313.6 96L312.2 96L312.2 87.3L313.6 87.3L313.6 88.9Q313.9 88.1 314.5 87.7L314.5 87.7Q315.3 87.2 316.2 87.2L316.2 87.2Q317.1 87.2 317.8 87.5Q318.5 87.9 318.8 88.6Q319.2 89.3 319.2 90.5L319.2 90.5L319.2 96L317.8 96L317.8 90.6Q317.8 89.6 317.3 89.0Q316.7 88.4 315.8 88.4L315.8 88.4Q315.2 88.4 314.7 88.7Q314.2 89.0 313.9 89.5Q313.6 90.0 313.6 90.8Z M327.8 96L326.3 96L326.3 84.4L330.3 84.4Q331.7 84.4 332.6 84.8Q333.4 85.3 333.9 86.1Q334.3 86.9 334.3 88.0Q334.3 89.0 333.9 89.8Q333.4 90.6 332.6 91.0L332.6 91.0Q332.4 91.1 332.1 91.2L332.1 91.2L334.7 96L333.0 96L330.6 91.5Q330.5 91.5 330.3 91.5L330.3 91.5L327.8 91.5L327.8 96ZM327.8 85.7L327.8 90.2L330.3 90.2Q331.2 90.2 331.7 89.9Q332.3 89.6 332.6 89.1Q332.8 88.6 332.8 88.0L332.8 88.0Q332.8 87.3 332.6 86.7Q332.3 86.2 331.7 85.9Q331.2 85.7 330.2 85.7L330.2 85.7L327.8 85.7ZM343.8 96L336.6 96L336.6 84.4L343.7 84.4L343.7 85.7L338.1 85.7L338.1 89.5L343.3 89.5L343.3 90.8L338.1 90.8L338.1 94.7L343.8 94.7L343.8 96ZM346.8 96L345.3 96L349.5 84.4L351.2 84.4L355.5 96L353.9 96L352.8 92.8L348.0 92.8L346.8 96ZM348.4 91.5L352.3 91.5L351.4 89.1Q351.2 88.5 350.9 87.5L350.9 87.5Q350.7 86.7 350.3 85.5L350.3 85.5Q350.0 86.7 349.7 87.5L349.7 87.5Q349.4 88.5 349.2 89.1L349.2 89.1L348.4 91.5ZM360.9 96L360.9 96L357.3 96L357.3 84.4L361.1 84.4Q362.8 84.4 364.0 85.1Q365.2 85.8 365.8 87.1Q366.5 88.4 366.5 90.2L366.5 90.2Q366.5 92.0 365.8 93.3Q365.2 94.6 363.9 95.3Q362.7 96 360.9 96ZM358.8 85.7L358.8 94.7L360.8 94.7Q362.3 94.7 363.2 94.1Q364.1 93.6 364.6 92.6Q365.0 91.6 365.0 90.2L365.0 90.2Q365.0 88.8 364.6 87.8Q364.1 86.8 363.2 86.2Q362.3 85.7 361.0 85.7L361.0 85.7L358.8 85.7ZM370.3 96L368.8 96L368.8 84.4L370.9 84.4L373.8 91.7Q373.9 92.0 374.0 92.3Q374.2 92.7 374.3 93.2Q374.5 93.6 374.6 94.1L374.6 94.1Q374.6 94.2 374.7 94.4L374.7 94.4Q374.7 94.2 374.7 94.1L374.7 94.1Q374.9 93.7 375.0 93.2Q375.2 92.8 375.3 92.4Q375.4 92.0 375.5 91.7L375.5 91.7L378.4 84.4L380.5 84.4L380.5 96L379.0 96L379.0 89.4Q379.0 89.0 379.0 88.5Q379.0 88.1 379.0 87.6Q379.0 87.1 379.1 86.5L379.1 86.5Q379.1 86.2 379.1 85.9L379.1 85.9Q379.0 86.3 378.9 86.6L378.9 86.6Q378.7 87.2 378.5 87.7Q378.3 88.2 378.2 88.6Q378.0 89.1 377.9 89.4L377.9 89.4L375.3 96L374.0 96L371.4 89.4Q371.3 89.1 371.1 88.7Q371.0 88.2 370.8 87.7Q370.6 87.2 370.4 86.6L370.4 86.6Q370.3 86.3 370.2 86.0L370.2 86.0Q370.2 86.2 370.2 86.5L370.2 86.5Q370.2 87.0 370.2 87.5Q370.2 88.0 370.2 88.5Q370.3 89.0 370.3 89.4L370.3 89.4L370.3 96ZM390.5 96L383.3 96L383.3 84.4L390.4 84.4L390.4 85.7L384.8 85.7L384.8 89.5L390 89.5L390 90.8L384.8 90.8L384.8 94.7L390.5 94.7L390.5 96Z M400.8 99.5L400.8 99.5Q399.8 99.5 399.1 99.2Q398.4 99.0 397.9 98.6Q397.5 98.1 397.2 97.7L397.2 97.7L398.3 96.9Q398.5 97.2 398.8 97.5Q399.1 97.8 399.5 98.0Q400.0 98.2 400.8 98.2L400.8 98.2Q401.8 98.2 402.5 97.7Q403.2 97.2 403.2 96.1L403.2 96.1L403.2 94.4L403.0 94.4Q402.9 94.6 402.6 95.0Q402.4 95.3 401.8 95.6Q401.3 95.9 400.5 95.9L400.5 95.9Q399.5 95.9 398.6 95.4Q397.8 94.9 397.3 93.9Q396.8 93.0 396.8 91.6L396.8 91.6Q396.8 90.2 397.3 89.2Q397.8 88.3 398.6 87.7Q399.4 87.2 400.5 87.2L400.5 87.2Q401.4 87.2 401.9 87.4Q402.4 87.7 402.7 88.1Q402.9 88.4 403.1 88.7L403.1 88.7L403.2 88.7L403.2 87.3L404.6 87.3L404.6 96.2Q404.6 97.4 404.1 98.1Q403.6 98.8 402.7 99.1Q401.8 99.5 400.8 99.5ZM400.7 94.6L400.7 94.6Q401.5 94.6 402.1 94.2Q402.6 93.9 402.9 93.2Q403.2 92.5 403.2 91.6L403.2 91.6Q403.2 90.6 402.9 89.9Q402.6 89.2 402.1 88.8Q401.5 88.4 400.7 88.4L400.7 88.4Q399.9 88.4 399.4 88.8Q398.8 89.3 398.5 90.0Q398.2 90.7 398.2 91.6L398.2 91.6Q398.2 92.5 398.5 93.1Q398.8 93.8 399.4 94.2Q399.9 94.6 400.7 94.6ZM410.7 96.2L410.7 96.2Q409.5 96.2 408.5 95.6Q407.6 95.1 407.1 94.1Q406.6 93.0 406.6 91.7Q406.6 90.4 407.1 89.3Q407.6 88.3 408.5 87.7Q409.4 87.2 410.6 87.2L410.6 87.2Q411.3 87.2 411.9 87.4Q412.6 87.6 413.2 88.1Q413.7 88.6 414.0 89.5Q414.4 90.3 414.4 91.5L414.4 91.5L414.4 92.1L408.0 92.1Q408.1 93.0 408.4 93.6L408.4 93.6Q408.7 94.2 409.3 94.6Q409.9 94.9 410.7 94.9L410.7 94.9Q411.2 94.9 411.7 94.8Q412.1 94.6 412.4 94.3Q412.7 94.0 412.9 93.6L412.9 93.6L414.2 94.0Q414.0 94.6 413.5 95.1Q413.0 95.6 412.3 95.9Q411.6 96.2 410.7 96.2ZM408.1 90.9L408.1 90.9L412.9 90.9Q412.9 90.3 412.7 89.8L412.7 89.8Q412.4 89.2 411.9 88.8Q411.3 88.4 410.6 88.4Q409.8 88.4 409.2 88.8Q408.6 89.2 408.3 89.8L408.3 89.8Q408.1 90.3 408.1 90.9ZM417.8 90.8L417.8 90.8L417.8 96L416.4 96L416.4 87.3L417.7 87.3L417.7 88.9Q418.1 88.1 418.7 87.7L418.7 87.7Q419.4 87.2 420.4 87.2L420.4 87.2Q421.3 87.2 422.0 87.5Q422.6 87.9 423.0 88.6Q423.4 89.3 423.4 90.5L423.4 90.5L423.4 96L422.0 96L422.0 90.6Q422.0 89.6 421.4 89.0Q420.9 88.4 420.0 88.4L420.0 88.4Q419.4 88.4 418.9 88.7Q418.4 89.0 418.1 89.5Q417.8 90.0 417.8 90.8ZM429.5 96.2L429.5 96.2Q428.2 96.2 427.3 95.6Q426.4 95.1 425.9 94.1Q425.4 93.0 425.4 91.7Q425.4 90.4 425.9 89.3Q426.4 88.3 427.3 87.7Q428.1 87.2 429.3 87.2L429.3 87.2Q430.0 87.2 430.7 87.4Q431.4 87.6 431.9 88.1Q432.5 88.6 432.8 89.5Q433.1 90.3 433.1 91.5L433.1 91.5L433.1 92.1L426.8 92.1Q426.9 93.0 427.2 93.6L427.2 93.6Q427.5 94.2 428.1 94.6Q428.7 94.9 429.5 94.9L429.5 94.9Q430.0 94.9 430.4 94.8Q430.9 94.6 431.2 94.3Q431.5 94.0 431.6 93.6L431.6 93.6L433 94.0Q432.8 94.6 432.3 95.1Q431.8 95.6 431.1 95.9Q430.4 96.2 429.5 96.2ZM426.8 90.9L426.8 90.9L431.7 90.9Q431.7 90.3 431.5 89.8L431.5 89.8Q431.2 89.2 430.7 88.8Q430.1 88.4 429.3 88.4Q428.5 88.4 428.0 88.8Q427.4 89.2 427.1 89.8L427.1 89.8Q426.9 90.3 426.8 90.9ZM436.6 96L435.2 96L435.2 87.3L436.5 87.3L436.5 88.6L436.6 88.6Q436.9 87.9 437.5 87.5Q438.1 87.1 438.9 87.1L438.9 87.1Q439.0 87.1 439.2 87.1Q439.5 87.2 439.6 87.2L439.6 87.2L439.6 88.6Q439.5 88.6 439.3 88.5Q439.0 88.5 438.7 88.5L438.7 88.5Q438.1 88.5 437.6 88.8Q437.1 89.0 436.8 89.5Q436.6 89.9 436.6 90.5L436.6 90.5L436.6 96ZM443.6 96.2L443.6 96.2Q442.8 96.2 442.1 95.9Q441.4 95.6 441.0 95.0Q440.6 94.4 440.6 93.5L440.6 93.5Q440.6 92.8 440.9 92.3Q441.2 91.8 441.7 91.6Q442.2 91.3 442.8 91.2Q443.4 91.0 444.0 90.9L444.0 90.9Q444.8 90.8 445.3 90.8Q445.8 90.7 446.1 90.6Q446.3 90.5 446.3 90.1L446.3 90.1L446.3 90.1Q446.3 89.6 446.1 89.2Q445.9 88.8 445.5 88.6Q445.1 88.4 444.5 88.4L444.5 88.4Q443.8 88.4 443.4 88.6Q442.9 88.8 442.7 89.1Q442.4 89.4 442.3 89.7L442.3 89.7L440.9 89.2Q441.2 88.4 441.8 88.0Q442.4 87.5 443.1 87.3Q443.8 87.2 444.4 87.2L444.4 87.2Q444.9 87.2 445.4 87.3Q446.0 87.4 446.5 87.7Q447.0 88.0 447.4 88.6Q447.7 89.2 447.7 90.2L447.7 90.2L447.7 96L446.3 96L446.3 94.8L446.2 94.8Q446.1 95.1 445.7 95.4Q445.4 95.8 444.9 96.0Q444.4 96.2 443.6 96.2ZM443.9 95.0L443.9 95.0Q444.6 95.0 445.2 94.7Q445.7 94.4 446.0 93.9Q446.3 93.4 446.3 92.8L446.3 92.8L446.3 91.6Q446.2 91.7 445.9 91.8Q445.6 91.9 445.3 92.0Q444.9 92.0 444.5 92.1Q444.2 92.1 444.0 92.1L444.0 92.1Q443.5 92.2 443.0 92.3Q442.6 92.5 442.3 92.8Q442.1 93.1 442.1 93.6L442.1 93.6Q442.1 94.0 442.3 94.3Q442.5 94.6 442.9 94.8Q443.3 95.0 443.9 95.0ZM451.8 87.3L453.6 87.3L453.6 88.5L451.8 88.5L451.8 93.7Q451.8 94.3 452.0 94.6Q452.3 94.9 452.8 94.9L452.8 94.9Q453.0 94.9 453.2 94.8Q453.4 94.8 453.6 94.8L453.6 94.8L453.8 96.0Q453.6 96.0 453.3 96.1Q453.1 96.1 452.8 96.1L452.8 96.1Q451.7 96.1 451.0 95.5Q450.4 94.9 450.4 93.8L450.4 93.8L450.4 88.5L449.1 88.5L449.1 87.3L450.4 87.3L450.4 85.2L451.8 85.2L451.8 87.3ZM459.0 96.2L459.0 96.2Q457.8 96.2 456.9 95.6Q456.0 95.1 455.5 94.0Q455.0 93.0 455.0 91.7L455.0 91.7Q455.0 90.3 455.5 89.3Q456.0 88.3 456.9 87.7Q457.8 87.2 459.0 87.2L459.0 87.2Q460.1 87.2 461.0 87.7Q461.9 88.3 462.4 89.3Q462.9 90.3 462.9 91.7L462.9 91.7Q462.9 93.0 462.4 94.0Q461.9 95.1 461.0 95.6Q460.1 96.2 459.0 96.2ZM459.0 94.9L459.0 94.9Q459.8 94.9 460.4 94.5Q461.0 94.0 461.3 93.3Q461.5 92.5 461.5 91.7L461.5 91.7Q461.5 90.8 461.3 90.1Q461.0 89.3 460.4 88.9Q459.8 88.4 459.0 88.4L459.0 88.4Q458.1 88.4 457.5 88.9Q457.0 89.3 456.7 90.1Q456.4 90.8 456.4 91.7L456.4 91.7Q456.4 92.5 456.7 93.3Q457.0 94.0 457.5 94.5Q458.1 94.9 459.0 94.9ZM466.4 96L465.0 96L465.0 87.3L466.4 87.3L466.4 88.6L466.4 88.6Q466.7 87.9 467.3 87.5Q467.9 87.1 468.7 87.1L468.7 87.1Q468.9 87.1 469.1 87.1Q469.3 87.2 469.4 87.2L469.4 87.2L469.4 88.6Q469.4 88.6 469.1 88.5Q468.9 88.5 468.6 88.5L468.6 88.5Q468.0 88.5 467.5 88.8Q467.0 89.0 466.7 89.5Q466.4 89.9 466.4 90.5L466.4 90.5L466.4 96Z M477.6 87.3L479.6 87.3L479.6 88.5L477.6 88.5L477.6 96L476.2 96L476.2 88.5L474.4 88.5L474.4 87.3L476.2 87.3L476.2 86.1Q476.2 85.3 476.5 84.8Q476.9 84.3 477.4 84.1Q478.0 83.8 478.6 83.8L478.6 83.8Q479.1 83.8 479.5 83.9Q479.8 84.0 480.0 84.0L480.0 84.0L479.6 85.3Q479.5 85.2 479.3 85.2Q479.1 85.1 478.8 85.1L478.8 85.1Q478.2 85.1 477.9 85.4Q477.6 85.8 477.6 86.4L477.6 86.4L477.6 87.3ZM485.0 96.2L485.0 96.2Q483.8 96.2 482.9 95.6Q482.0 95.1 481.5 94.0Q481.0 93.0 481.0 91.7L481.0 91.7Q481.0 90.3 481.5 89.3Q482.0 88.3 482.9 87.7Q483.8 87.2 485.0 87.2L485.0 87.2Q486.2 87.2 487.1 87.7Q488.0 88.3 488.5 89.3Q489.0 90.3 489.0 91.7L489.0 91.7Q489.0 93.0 488.5 94.0Q488.0 95.1 487.1 95.6Q486.2 96.2 485.0 96.2ZM485.0 94.9L485.0 94.9Q485.9 94.9 486.4 94.5Q487.0 94.0 487.3 93.3Q487.6 92.5 487.6 91.7L487.6 91.7Q487.6 90.8 487.3 90.1Q487.0 89.3 486.4 88.9Q485.9 88.4 485.0 88.4L485.0 88.4Q484.1 88.4 483.6 88.9Q483.0 89.3 482.7 90.1Q482.4 90.8 482.4 91.7L482.4 91.7Q482.4 92.5 482.7 93.3Q483.0 94.0 483.6 94.5Q484.1 94.9 485.0 94.9ZM492.4 96L491.0 96L491.0 87.3L492.4 87.3L492.4 88.6L492.5 88.6Q492.7 87.9 493.3 87.5Q494.0 87.1 494.8 87.1L494.8 87.1Q494.9 87.1 495.1 87.1Q495.3 87.2 495.5 87.2L495.5 87.2L495.5 88.6Q495.4 88.6 495.1 88.5Q494.9 88.5 494.6 88.5L494.6 88.5Q494.0 88.5 493.5 88.8Q493 89.0 492.7 89.5Q492.4 89.9 492.4 90.5L492.4 90.5L492.4 96Z M506.5 96.2L506.5 96.2Q504.9 96.2 503.8 95.4Q502.6 94.7 501.9 93.4Q501.3 92.0 501.3 90.2L501.3 90.2Q501.3 88.3 501.9 87.0Q502.6 85.7 503.7 84.9Q504.9 84.2 506.4 84.2L506.4 84.2Q507.3 84.2 508.1 84.5Q508.9 84.8 509.5 85.3Q510.2 85.8 510.6 86.5Q511.0 87.2 511.2 88.0L511.2 88.0L509.6 88.0Q509.5 87.4 509.2 87Q508.9 86.6 508.5 86.2Q508.0 85.9 507.5 85.7Q507.0 85.6 506.4 85.6L506.4 85.6Q505.4 85.6 504.5 86.1Q503.7 86.6 503.2 87.7Q502.7 88.7 502.7 90.2L502.7 90.2Q502.7 91.7 503.2 92.7Q503.7 93.7 504.6 94.3Q505.4 94.8 506.5 94.8L506.5 94.8Q507.5 94.8 508.2 94.4Q509.0 93.9 509.4 93.2L509.4 93.2Q509.8 92.4 509.8 91.4L509.8 91.4L506.8 91.4L506.8 90.1L511.3 90.1L511.3 91.4Q511.3 92.9 510.6 93.9Q510.0 95.0 508.9 95.6Q507.9 96.2 506.5 96.2ZM514.9 96L513.5 96L513.5 87.3L514.9 87.3L514.9 96ZM514.2 85.8L514.2 85.8Q513.8 85.8 513.5 85.6Q513.2 85.3 513.2 84.9L513.2 84.9Q513.2 84.5 513.5 84.2Q513.8 84.0 514.2 84.0L514.2 84.0Q514.6 84.0 514.9 84.2Q515.2 84.5 515.2 84.9L515.2 84.9Q515.2 85.3 514.9 85.6Q514.6 85.8 514.2 85.8ZM519.0 87.3L520.8 87.3L520.8 88.5L519.0 88.5L519.0 93.7Q519.0 94.3 519.2 94.6Q519.5 94.9 520.0 94.9L520.0 94.9Q520.2 94.9 520.4 94.8Q520.6 94.8 520.8 94.8L520.8 94.8L521.0 96.0Q520.8 96.0 520.6 96.1Q520.3 96.1 520 96.1L520 96.1Q518.9 96.1 518.2 95.5Q517.6 94.9 517.6 93.8L517.6 93.8L517.6 88.5L516.3 88.5L516.3 87.3L517.6 87.3L517.6 85.2L519.0 85.2L519.0 87.3ZM524.3 96L522.8 96L522.8 84.4L524.3 84.4L524.3 89.4L530.4 89.4L530.4 84.4L531.9 84.4L531.9 96L530.4 96L530.4 90.7L524.3 90.7L524.3 96ZM537.5 96.1L537.5 96.1Q536.6 96.1 535.9 95.7Q535.2 95.4 534.9 94.6Q534.5 93.9 534.5 92.8L534.5 92.8L534.5 87.3L535.9 87.3L535.9 92.7Q535.9 93.7 536.4 94.3Q537.0 94.8 537.9 94.8L537.9 94.8Q538.5 94.8 539.0 94.6Q539.5 94.3 539.8 93.8Q540.1 93.2 540.1 92.5L540.1 92.5L540.1 87.3L541.5 87.3L541.5 96L540.1 96L540.1 94.4Q539.8 95.2 539.2 95.6L539.2 95.6Q538.4 96.1 537.5 96.1ZM548.0 96.2L548.0 96.2Q547.2 96.2 546.7 95.9Q546.2 95.6 545.9 95.3Q545.6 94.9 545.5 94.6L545.5 94.6L545.3 94.6L545.3 96L544.0 96L544.0 84.4L545.4 84.4L545.4 88.7L545.5 88.7Q545.6 88.4 545.9 88.1Q546.1 87.7 546.6 87.4Q547.1 87.2 548 87.2L548 87.2Q549.1 87.2 549.9 87.7Q550.8 88.3 551.2 89.3Q551.7 90.3 551.7 91.7L551.7 91.7Q551.7 93.0 551.2 94.1Q550.8 95.1 549.9 95.6Q549.1 96.2 548.0 96.2ZM547.8 94.9L547.8 94.9Q548.6 94.9 549.2 94.5Q549.7 94.0 550.0 93.3Q550.3 92.6 550.3 91.6L550.3 91.6Q550.3 90.7 550 90.0Q549.7 89.3 549.2 88.8Q548.6 88.4 547.8 88.4L547.8 88.4Q547.0 88.4 546.4 88.8Q545.9 89.2 545.6 89.9Q545.3 90.7 545.3 91.6L545.3 91.6Q545.3 92.6 545.6 93.4Q545.9 94.1 546.5 94.5Q547.0 94.9 547.8 94.9Z "/></g><mask id="satori_om-id-2"><rect x="237" y="119" width="327" height="25" fill="#fff" mask="url(#satori_om-id)"/></mask><defs><clipPath id="satori_bc-id-2-0" clip-path="url(#satori_cp-id)"><path x="237" y="119" width="86" height="25" d="M249,119 h62 a12,12 0 0 1 12,12 v1 a12,12 0 0 1 -12,12 h-62 a12,12 0 0 1 -12,-12 v-1 a12,12 0 0 1 12,-12"/></clipPath></defs><mask id="satori_om-id-2-0"><rect x="238" y="120" width="84" height="23" fill="#fff" mask="url(#satori_om-id)"/><path width="86" height="25" fill="none" stroke="#000" stroke-width="2" d="M240.515,122.515 A12,12 0 0 1 249,119 h62 a12,12 0 0 1 12,12 v1 a12,12 0 0 1 -12,12 h-62 a12,12 0 0 1 -12,-12 v-1 A12,12 0 0 1 240.515,122.515"/></mask><path x="237" y="119" width="86" height="25" fill="rgba(12,10,20,0.6)" d="M249,119 h62 a12,12 0 0 1 12,12 v1 a12,12 0 0 1 -12,12 h-62 a12,12 0 0 1 -12,-12 v-1 a12,12 0 0 1 12,-12" clip-path="url(#satori_cp-id)" mask="url(#satori_om-id)"/><path width="86" height="25" clip-path="url(#satori_bc-id-2-0)" fill="none" stroke="rgba(120,80,220,0.2)" stroke-width="2" d="M240.515,122.515 A12,12 0 0 1 249,119 h62 a12,12 0 0 1 12,12 v1 a12,12 0 0 1 -12,12 h-62 a12,12 0 0 1 -12,-12 v-1 A12,12 0 0 1 240.515,122.515"/><g mask="url(#satori_om-id)" clip-path="url(#satori_cp-id)"><path fill="#7eb8ff" d="M252.2 136L251.1 136L251.1 127.3L254.0 127.3Q255.1 127.3 255.7 127.6Q256.4 128.0 256.7 128.6Q257.0 129.2 257.0 130.0Q257.0 130.7 256.7 131.3Q256.4 131.9 255.7 132.3L255.7 132.3Q255.6 132.4 255.4 132.4L255.4 132.4L257.4 136L256.1 136L254.3 132.6Q254.2 132.6 254.0 132.6L254.0 132.6L252.2 132.6L252.2 136ZM252.2 128.2L252.2 131.6L254.0 131.6Q254.7 131.6 255.1 131.4Q255.5 131.2 255.7 130.8Q255.9 130.5 255.9 130.0L255.9 130.0Q255.9 129.4 255.7 129.1Q255.5 128.7 255.1 128.5Q254.7 128.2 254.0 128.2L254.0 128.2L252.2 128.2ZM261.4 136.1L261.4 136.1Q260.5 136.1 259.8 135.7Q259.1 135.3 258.7 134.5Q258.3 133.8 258.3 132.8Q258.3 131.8 258.7 131.0Q259.1 130.2 259.7 129.8Q260.4 129.4 261.3 129.4L261.3 129.4Q261.8 129.4 262.3 129.5Q262.8 129.7 263.2 130.1Q263.6 130.5 263.9 131.1Q264.1 131.7 264.1 132.6L264.1 132.6L264.1 133.1L259.4 133.1Q259.4 133.7 259.7 134.2L259.7 134.2Q259.9 134.7 260.4 134.9Q260.8 135.2 261.4 135.2L261.4 135.2Q261.8 135.2 262.1 135.1Q262.4 135.0 262.7 134.8Q262.9 134.5 263.0 134.2L263.0 134.2L264.0 134.5Q263.9 135.0 263.5 135.3Q263.1 135.7 262.6 135.9Q262.1 136.1 261.4 136.1ZM259.4 132.2L259.4 132.2L263.1 132.2Q263.0 131.7 262.9 131.4L262.9 131.4Q262.7 130.9 262.3 130.6Q261.9 130.3 261.3 130.3Q260.7 130.3 260.3 130.6Q259.8 130.9 259.6 131.3L259.6 131.3Q259.4 131.7 259.4 132.2ZM267.5 136.2L267.5 136.2Q266.9 136.2 266.4 135.9Q265.8 135.7 265.5 135.2Q265.2 134.8 265.2 134.1L265.2 134.1Q265.2 133.6 265.5 133.2Q265.7 132.9 266.1 132.7Q266.4 132.5 266.9 132.4Q267.3 132.3 267.8 132.2L267.8 132.2Q268.4 132.1 268.8 132.1Q269.1 132.1 269.3 132.0Q269.5 131.9 269.5 131.6L269.5 131.6L269.5 131.6Q269.5 131.2 269.3 130.9Q269.2 130.6 268.9 130.4Q268.6 130.3 268.1 130.3L268.1 130.3Q267.6 130.3 267.3 130.4Q267.0 130.6 266.8 130.8Q266.6 131.0 266.4 131.3L266.4 131.3L265.4 130.9Q265.7 130.3 266.1 130.0Q266.5 129.6 267.1 129.5Q267.6 129.4 268.1 129.4L268.1 129.4Q268.4 129.4 268.8 129.4Q269.2 129.5 269.6 129.8Q270.0 130.0 270.3 130.5Q270.5 130.9 270.5 131.7L270.5 131.7L270.5 136L269.5 136L269.5 135.1L269.4 135.1Q269.3 135.3 269.1 135.6Q268.8 135.8 268.4 136.0Q268.0 136.2 267.5 136.2ZM267.7 135.2L267.7 135.2Q268.2 135.2 268.7 135.0Q269.1 134.8 269.3 134.4Q269.5 134.0 269.5 133.6L269.5 133.6L269.5 132.7Q269.4 132.8 269.2 132.9Q269.0 132.9 268.7 133.0Q268.4 133.0 268.2 133.0Q267.9 133.1 267.7 133.1L267.7 133.1Q267.4 133.1 267.0 133.3Q266.7 133.4 266.5 133.6Q266.3 133.8 266.3 134.2L266.3 134.2Q266.3 134.5 266.5 134.8Q266.7 135.0 267.0 135.1Q267.3 135.2 267.7 135.2ZM275.0 136.1L275.0 136.1Q274.2 136.1 273.5 135.7Q272.8 135.3 272.4 134.5Q272.1 133.8 272.1 132.8L272.1 132.8Q272.1 131.7 272.4 131.0Q272.8 130.2 273.5 129.8Q274.2 129.4 275.0 129.4L275.0 129.4Q275.5 129.4 275.9 129.5Q276.4 129.6 276.7 129.8Q277.1 130.1 277.3 130.4Q277.6 130.8 277.7 131.2L277.7 131.2L276.7 131.5Q276.6 131.2 276.5 131.0Q276.3 130.8 276.1 130.6Q275.9 130.5 275.6 130.4Q275.4 130.3 275.0 130.3L275.0 130.3Q274.4 130.3 274.0 130.7Q273.5 131.0 273.3 131.6Q273.1 132.1 273.1 132.8L273.1 132.8Q273.1 133.4 273.3 134.0Q273.5 134.5 274.0 134.9Q274.4 135.2 275.0 135.2L275.0 135.2Q275.4 135.2 275.7 135.1Q275.9 135.0 276.1 134.9Q276.4 134.7 276.5 134.5Q276.6 134.3 276.7 134.0L276.7 134.0L277.7 134.3Q277.6 134.7 277.3 135.1Q277.1 135.4 276.7 135.6Q276.4 135.9 276.0 136.0Q275.5 136.1 275.0 136.1ZM280.5 129.4L281.8 129.4L281.8 130.4L280.5 130.4L280.5 134.3Q280.5 134.7 280.6 134.9Q280.8 135.1 281.2 135.1L281.2 135.1Q281.3 135.1 281.5 135.1Q281.7 135.1 281.8 135.1L281.8 135.1L282.0 136.0Q281.8 136.0 281.6 136.1Q281.4 136.1 281.2 136.1L281.2 136.1Q280.4 136.1 279.9 135.6Q279.4 135.2 279.4 134.4L279.4 134.4L279.4 130.4L278.4 130.4L278.4 129.4L279.4 129.4L279.4 127.9L280.5 127.9L280.5 129.4ZM285.3 126.9L286.3 126.9L283.5 137.3L282.5 137.3L285.3 126.9ZM289.8 136.1L289.8 136.1Q288.6 136.1 287.9 135.4Q287.1 134.8 287.1 133.5L287.1 133.5L287.1 133.0L288.3 133.0L288.3 133.5Q288.3 134.3 288.7 134.7Q289.1 135.1 289.8 135.1L289.8 135.1Q290.4 135.1 290.8 134.7Q291.2 134.3 291.2 133.5L291.2 133.5L291.2 127.3L292.4 127.3L292.4 133.5Q292.4 134.8 291.6 135.4Q290.9 136.1 289.8 136.1ZM297.3 136.2L297.3 136.2Q296.3 136.2 295.6 135.8Q294.9 135.5 294.5 135.0Q294.1 134.4 294.1 133.7L294.1 133.7L295.2 133.7Q295.3 134.2 295.6 134.5Q295.9 134.8 296.3 135.0Q296.8 135.2 297.3 135.2L297.3 135.2Q297.9 135.2 298.3 135.0Q298.8 134.8 299.1 134.4Q299.3 134.1 299.3 133.6L299.3 133.6Q299.3 133.2 299.1 132.9Q298.9 132.7 298.5 132.5Q298.1 132.3 297.6 132.2L297.6 132.2L296.6 131.9Q295.5 131.6 294.9 131.0Q294.3 130.5 294.3 129.6L294.3 129.6Q294.3 128.9 294.7 128.3Q295.1 127.8 295.8 127.5Q296.5 127.2 297.3 127.2L297.3 127.2Q298.2 127.2 298.9 127.5Q299.5 127.8 299.9 128.3Q300.3 128.8 300.3 129.5L300.3 129.5L299.2 129.5Q299.1 128.8 298.6 128.5Q298.1 128.1 297.3 128.1L297.3 128.1Q296.7 128.1 296.3 128.3Q295.9 128.5 295.7 128.8Q295.4 129.1 295.4 129.6L295.4 129.6Q295.4 130.0 295.7 130.3Q296.0 130.6 296.4 130.7Q296.8 130.9 297.1 131.0L297.1 131.0L298.0 131.2Q298.3 131.3 298.7 131.5Q299.2 131.6 299.5 131.9Q299.9 132.2 300.2 132.6Q300.4 133.0 300.4 133.6L300.4 133.6Q300.4 134.3 300.1 134.9Q299.7 135.5 299.0 135.8Q298.3 136.2 297.3 136.2ZM302.7 136L301.4 136L304.6 131.5L301.6 127.3L302.9 127.3L304.2 129.1Q304.5 129.5 304.6 129.8Q304.8 130.1 305.0 130.4L305.0 130.4Q305.1 130.6 305.2 130.8L305.2 130.8Q305.3 130.6 305.5 130.4L305.5 130.4Q305.6 130.1 305.8 129.8Q306.0 129.5 306.3 129.1L306.3 129.1L307.5 127.3L308.8 127.3L305.9 131.5L309.0 136L307.7 136L306.2 133.8Q305.9 133.4 305.7 133.2Q305.6 132.9 305.4 132.6L305.4 132.6Q305.3 132.5 305.2 132.3L305.2 132.3Q305.1 132.5 305.0 132.6L305.0 132.6Q304.9 132.9 304.7 133.1Q304.5 133.4 304.3 133.8L304.3 133.8L302.7 136Z "/></g><defs><clipPath id="satori_bc-id-2-1" clip-path="url(#satori_cp-id)"><path x="331" y="119" width="113" height="25" d="M343,119 h89 a12,12 0 0 1 12,12 v1 a12,12 0 0 1 -12,12 h-89 a12,12 0 0 1 -12,-12 v-1 a12,12 0 0 1 12,-12"/></clipPath></defs><mask id="satori_om-id-2-1"><rect x="332" y="120" width="111" height="23" fill="#fff" mask="url(#satori_om-id)"/><path width="113" height="25" fill="none" stroke="#000" stroke-width="2" d="M334.515,122.515 A12,12 0 0 1 343,119 h89 a12,12 0 0 1 12,12 v1 a12,12 0 0 1 -12,12 h-89 a12,12 0 0 1 -12,-12 v-1 A12,12 0 0 1 334.515,122.515"/></mask><path x="331" y="119" width="113" height="25" fill="rgba(12,10,20,0.6)" d="M343,119 h89 a12,12 0 0 1 12,12 v1 a12,12 0 0 1 -12,12 h-89 a12,12 0 0 1 -12,-12 v-1 a12,12 0 0 1 12,-12" clip-path="url(#satori_cp-id)" mask="url(#satori_om-id)"/><path width="113" height="25" clip-path="url(#satori_bc-id-2-1)" fill="none" stroke="rgba(120,80,220,0.2)" stroke-width="2" d="M334.515,122.515 A12,12 0 0 1 343,119 h89 a12,12 0 0 1 12,12 v1 a12,12 0 0 1 -12,12 h-89 a12,12 0 0 1 -12,-12 v-1 A12,12 0 0 1 334.515,122.515"/><g mask="url(#satori_om-id)" clip-path="url(#satori_cp-id)"><path fill="#e8c8ff" d="M347.8 136.2L347.8 136.2Q346.9 136.2 346.2 135.8Q345.5 135.5 345.1 135.0Q344.7 134.4 344.7 133.7L344.7 133.7L345.8 133.7Q345.9 134.2 346.2 134.5Q346.4 134.8 346.9 135.0Q347.3 135.2 347.8 135.2L347.8 135.2Q348.4 135.2 348.9 135.0Q349.4 134.8 349.7 134.4Q349.9 134.1 349.9 133.6L349.9 133.6Q349.9 133.2 349.7 132.9Q349.5 132.7 349.1 132.5Q348.7 132.3 348.2 132.2L348.2 132.2L347.2 131.9Q346.1 131.6 345.5 131.0Q344.9 130.5 344.9 129.6L344.9 129.6Q344.9 128.9 345.3 128.3Q345.7 127.8 346.4 127.5Q347.1 127.2 347.9 127.2L347.9 127.2Q348.8 127.2 349.4 127.5Q350.1 127.8 350.5 128.3Q350.9 128.8 350.9 129.5L350.9 129.5L349.8 129.5Q349.7 128.8 349.2 128.5Q348.7 128.1 347.9 128.1L347.9 128.1Q347.3 128.1 346.9 128.3Q346.5 128.5 346.2 128.8Q346.0 129.1 346.0 129.6L346.0 129.6Q346.0 130.0 346.3 130.3Q346.6 130.6 347.0 130.7Q347.4 130.9 347.7 131.0L347.7 131.0L348.5 131.2Q348.9 131.3 349.3 131.5Q349.7 131.6 350.1 131.9Q350.5 132.2 350.8 132.6Q351.0 133.0 351.0 133.6L351.0 133.6Q351.0 134.3 350.6 134.9Q350.3 135.5 349.6 135.8Q348.9 136.2 347.8 136.2ZM356.5 136L355.2 136L352.0 127.3L353.2 127.3L355.0 132.4Q355.2 132.9 355.4 133.6L355.4 133.6Q355.6 134.2 355.9 135.1L355.9 135.1Q356.1 134.2 356.3 133.6L356.3 133.6Q356.5 132.9 356.7 132.4L356.7 132.4L358.5 127.3L359.7 127.3L356.5 136ZM364.6 136.1L364.6 136.1Q363.4 136.1 362.6 135.6Q361.7 135.0 361.2 134.0Q360.7 133.0 360.7 131.6L360.7 131.6Q360.7 130.3 361.2 129.2Q361.7 128.2 362.5 127.7Q363.4 127.2 364.5 127.2L364.5 127.2Q365.2 127.2 365.8 127.4Q366.4 127.6 366.9 127.9Q367.4 128.3 367.7 128.8Q368 129.4 368.1 130.0L368.1 130.0L367.0 130.0Q366.8 129.6 366.6 129.3Q366.4 128.9 366.1 128.7Q365.8 128.4 365.4 128.3Q365 128.2 364.5 128.2L364.5 128.2Q363.8 128.2 363.1 128.6Q362.5 129.0 362.1 129.7Q361.8 130.5 361.8 131.6L361.8 131.6Q361.8 132.8 362.1 133.5Q362.5 134.3 363.2 134.7Q363.8 135.1 364.6 135.1L364.6 135.1Q365.3 135.1 365.9 134.8Q366.5 134.5 366.8 133.9L366.8 133.9Q367.1 133.3 367.1 132.6L367.1 132.6L364.8 132.6L364.8 131.6L368.2 131.6L368.2 132.6Q368.2 133.7 367.7 134.4Q367.3 135.2 366.5 135.7Q365.6 136.1 364.6 136.1Z M374.5 136L373.4 136L373.4 127.3L376.3 127.3Q377.4 127.3 378.0 127.6Q378.7 128.0 379.0 128.6Q379.3 129.2 379.3 130.0Q379.3 130.7 379.0 131.3Q378.7 131.9 378.0 132.3L378.0 132.3Q377.9 132.4 377.7 132.4L377.7 132.4L379.7 136L378.4 136L376.6 132.6Q376.5 132.6 376.4 132.6L376.4 132.6L374.5 132.6L374.5 136ZM374.5 128.2L374.5 131.6L376.3 131.6Q377.0 131.6 377.4 131.4Q377.8 131.2 378.0 130.8Q378.2 130.5 378.2 130.0L378.2 130.0Q378.2 129.4 378.0 129.1Q377.8 128.7 377.4 128.5Q377.0 128.2 376.3 128.2L376.3 128.2L374.5 128.2ZM383.7 136.1L383.7 136.1Q382.8 136.1 382.1 135.7Q381.4 135.3 381.0 134.5Q380.6 133.8 380.6 132.8Q380.6 131.8 381.0 131.0Q381.4 130.2 382.0 129.8Q382.7 129.4 383.6 129.4L383.6 129.4Q384.1 129.4 384.6 129.5Q385.1 129.7 385.5 130.1Q385.9 130.5 386.2 131.1Q386.4 131.7 386.4 132.6L386.4 132.6L386.4 133.1L381.7 133.1Q381.7 133.7 382.0 134.2L382.0 134.2Q382.2 134.7 382.7 134.9Q383.1 135.2 383.7 135.2L383.7 135.2Q384.1 135.2 384.4 135.1Q384.7 135.0 385.0 134.8Q385.2 134.5 385.3 134.2L385.3 134.2L386.3 134.5Q386.2 135.0 385.8 135.3Q385.5 135.7 384.9 135.9Q384.4 136.1 383.7 136.1ZM381.7 132.2L381.7 132.2L385.4 132.2Q385.3 131.7 385.2 131.4L385.2 131.4Q385.0 130.9 384.6 130.6Q384.2 130.3 383.6 130.3Q383.0 130.3 382.6 130.6Q382.2 130.9 381.9 131.3L381.9 131.3Q381.7 131.7 381.7 132.2ZM389.0 132.1L389.0 132.1L389.0 136L388.0 136L388.0 129.4L389.0 129.4L389.0 130.7Q389.2 130.0 389.7 129.7L389.7 129.7Q390.2 129.4 391.0 129.4L391.0 129.4Q391.6 129.4 392.1 129.6Q392.6 129.9 392.9 130.5Q393.2 131.0 393.2 131.8L393.2 131.8L393.2 136L392.1 136L392.1 131.9Q392.1 131.2 391.7 130.7Q391.3 130.3 390.7 130.3L390.7 130.3Q390.2 130.3 389.8 130.5Q389.4 130.7 389.2 131.1Q389.0 131.5 389.0 132.1ZM397.5 136.1L397.5 136.1Q396.7 136.1 396.1 135.7Q395.4 135.3 395.1 134.5Q394.7 133.8 394.7 132.7L394.7 132.7Q394.7 131.7 395.1 130.9Q395.4 130.2 396.1 129.8Q396.7 129.4 397.5 129.4L397.5 129.4Q398.1 129.4 398.5 129.6Q398.9 129.8 399.1 130.1Q399.3 130.3 399.4 130.5L399.4 130.5L399.5 130.5L399.5 127.3L400.5 127.3L400.5 136L399.5 136L399.5 135.0L399.4 135.0Q399.3 135.2 399.1 135.4Q398.9 135.7 398.5 135.9Q398.1 136.1 397.5 136.1ZM397.7 135.2L397.7 135.2Q398.3 135.2 398.7 134.9Q399.1 134.6 399.3 134.0Q399.5 133.5 399.5 132.7L399.5 132.7Q399.5 132.0 399.3 131.5Q399.1 130.9 398.7 130.6Q398.3 130.3 397.7 130.3L397.7 130.3Q397.0 130.3 396.6 130.6Q396.2 131.0 396.0 131.5Q395.8 132.1 395.8 132.7L395.8 132.7Q395.8 133.4 396.0 134.0Q396.2 134.5 396.6 134.9Q397.0 135.2 397.7 135.2ZM405.1 136.1L405.1 136.1Q404.2 136.1 403.5 135.7Q402.8 135.3 402.4 134.5Q402.1 133.8 402.1 132.8Q402.1 131.8 402.4 131.0Q402.8 130.2 403.5 129.8Q404.1 129.4 405.0 129.4L405.0 129.4Q405.5 129.4 406.0 129.5Q406.6 129.7 407.0 130.1Q407.4 130.5 407.6 131.1Q407.9 131.7 407.9 132.6L407.9 132.6L407.9 133.1L403.1 133.1Q403.2 133.7 403.4 134.2L403.4 134.2Q403.6 134.7 404.1 134.9Q404.6 135.2 405.1 135.2L405.1 135.2Q405.5 135.2 405.9 135.1Q406.2 135.0 406.4 134.8Q406.6 134.5 406.7 134.2L406.7 134.2L407.8 134.5Q407.6 135.0 407.3 135.3Q406.9 135.7 406.4 135.9Q405.8 136.1 405.1 136.1ZM403.1 132.2L403.1 132.2L406.8 132.2Q406.8 131.7 406.6 131.4L406.6 131.4Q406.4 130.9 406.0 130.6Q405.6 130.3 405.0 130.3Q404.4 130.3 404.0 130.6Q403.6 130.9 403.4 131.3L403.4 131.3Q403.2 131.7 403.1 132.2ZM410.4 136L409.4 136L409.4 129.4L410.4 129.4L410.4 130.5L410.5 130.5Q410.7 130.0 411.1 129.7Q411.6 129.4 412.2 129.4L412.2 129.4Q412.3 129.4 412.5 129.4Q412.6 129.4 412.7 129.4L412.7 129.4L412.7 130.4Q412.7 130.4 412.5 130.4Q412.3 130.4 412.1 130.4L412.1 130.4Q411.6 130.4 411.2 130.6Q410.9 130.8 410.7 131.1Q410.4 131.5 410.4 131.9L410.4 131.9L410.4 136ZM415.0 136L413.9 136L413.9 129.4L415.0 129.4L415.0 136ZM414.4 128.4L414.4 128.4Q414.1 128.4 413.9 128.2Q413.7 128.0 413.7 127.7L413.7 127.7Q413.7 127.4 413.9 127.2Q414.1 127.0 414.4 127.0L414.4 127.0Q414.7 127.0 415.0 127.2Q415.2 127.4 415.2 127.7L415.2 127.7Q415.2 128.0 415.0 128.2Q414.7 128.4 414.4 128.4ZM417.9 132.1L417.9 132.1L417.9 136L416.8 136L416.8 129.4L417.8 129.4L417.8 130.7Q418.1 130.0 418.5 129.7L418.5 129.7Q419.1 129.4 419.8 129.4L419.8 129.4Q420.5 129.4 421.0 129.6Q421.5 129.9 421.8 130.5Q422.0 131.0 422.0 131.8L422.0 131.8L422.0 136L421.0 136L421.0 131.9Q421.0 131.2 420.6 130.7Q420.2 130.3 419.5 130.3L419.5 130.3Q419.0 130.3 418.7 130.5Q418.3 130.7 418.1 131.1Q417.9 131.5 417.9 132.1ZM426.6 138.6L426.6 138.6Q425.8 138.6 425.3 138.4Q424.8 138.2 424.4 137.9Q424.1 137.6 423.9 137.3L423.9 137.3L424.7 136.7Q424.9 136.9 425.1 137.1Q425.3 137.3 425.6 137.5Q426.0 137.7 426.6 137.7L426.6 137.7Q427.3 137.7 427.8 137.3Q428.4 136.9 428.4 136.1L428.4 136.1L428.4 134.8L428.3 134.8Q428.1 135.0 427.9 135.2Q427.7 135.5 427.4 135.7Q427.0 135.9 426.3 135.9L426.3 135.9Q425.6 135.9 424.9 135.5Q424.3 135.2 423.9 134.4Q423.6 133.7 423.6 132.7L423.6 132.7Q423.6 131.7 423.9 130.9Q424.3 130.2 424.9 129.8Q425.6 129.4 426.4 129.4L426.4 129.4Q427.0 129.4 427.4 129.6Q427.8 129.8 428.0 130.1Q428.2 130.3 428.3 130.5L428.3 130.5L428.4 130.5L428.4 129.4L429.4 129.4L429.4 136.2Q429.4 137.0 429.0 137.5Q428.6 138.1 428.0 138.3Q427.3 138.6 426.6 138.6ZM426.5 135.0L426.5 135.0Q427.1 135.0 427.5 134.7Q427.9 134.4 428.2 133.9Q428.4 133.4 428.4 132.7L428.4 132.7Q428.4 132.0 428.2 131.4Q427.9 130.9 427.5 130.6Q427.1 130.3 426.5 130.3L426.5 130.3Q425.9 130.3 425.5 130.6Q425.1 130.9 424.9 131.5Q424.7 132.0 424.7 132.7L424.7 132.7Q424.7 133.3 424.9 133.9Q425.1 134.4 425.5 134.7Q425.9 135.0 426.5 135.0Z "/></g><defs><clipPath id="satori_bc-id-2-2" clip-path="url(#satori_cp-id)"><path x="452" y="119" width="112" height="25" d="M464,119 h88 a12,12 0 0 1 12,12 v1 a12,12 0 0 1 -12,12 h-88 a12,12 0 0 1 -12,-12 v-1 a12,12 0 0 1 12,-12"/></clipPath></defs><mask id="satori_om-id-2-2"><rect x="453" y="120" width="110" height="23" fill="#fff" mask="url(#satori_om-id)"/><path width="112" height="25" fill="none" stroke="#000" stroke-width="2" d="M455.515,122.515 A12,12 0 0 1 464,119 h88 a12,12 0 0 1 12,12 v1 a12,12 0 0 1 -12,12 h-88 a12,12 0 0 1 -12,-12 v-1 A12,12 0 0 1 455.515,122.515"/></mask><path x="452" y="119" width="112" height="25" fill="rgba(12,10,20,0.6)" d="M464,119 h88 a12,12 0 0 1 12,12 v1 a12,12 0 0 1 -12,12 h-88 a12,12 0 0 1 -12,-12 v-1 a12,12 0 0 1 12,-12" clip-path="url(#satori_cp-id)" mask="url(#satori_om-id)"/><path width="112" height="25" clip-path="url(#satori_bc-id-2-2)" fill="none" stroke="rgba(120,80,220,0.2)" stroke-width="2" d="M455.515,122.515 A12,12 0 0 1 464,119 h88 a12,12 0 0 1 12,12 v1 a12,12 0 0 1 -12,12 h-88 a12,12 0 0 1 -12,-12 v-1 A12,12 0 0 1 455.515,122.515"/><g mask="url(#satori_om-id)" clip-path="url(#satori_cp-id)"><path fill="#a0a0ff" d="M469.6 136.1L469.6 136.1Q468.5 136.1 467.6 135.6Q466.7 135.0 466.2 134.0Q465.7 133.0 465.7 131.6L465.7 131.6Q465.7 130.3 466.2 129.2Q466.7 128.2 467.6 127.7Q468.4 127.2 469.6 127.2L469.6 127.2Q470.2 127.2 470.8 127.4Q471.4 127.6 471.9 127.9Q472.4 128.3 472.7 128.8Q473.0 129.4 473.1 130.0L473.1 130.0L472.0 130.0Q471.9 129.6 471.6 129.3Q471.4 128.9 471.1 128.7Q470.8 128.4 470.4 128.3Q470.0 128.2 469.6 128.2L469.6 128.2Q468.8 128.2 468.2 128.6Q467.5 129.0 467.2 129.7Q466.8 130.5 466.8 131.6L466.8 131.6Q466.8 132.8 467.2 133.5Q467.5 134.3 468.2 134.7Q468.8 135.1 469.6 135.1L469.6 135.1Q470.4 135.1 470.9 134.8Q471.5 134.5 471.8 133.9L471.8 133.9Q472.1 133.3 472.1 132.6L472.1 132.6L469.9 132.6L469.9 131.6L473.2 131.6L473.2 132.6Q473.2 133.7 472.7 134.4Q472.3 135.2 471.5 135.7Q470.7 136.1 469.6 136.1ZM475.9 136L474.9 136L474.9 129.4L475.9 129.4L475.9 136ZM475.4 128.4L475.4 128.4Q475.1 128.4 474.9 128.2Q474.7 128.0 474.7 127.7L474.7 127.7Q474.7 127.4 474.9 127.2Q475.1 127.0 475.4 127.0L475.4 127.0Q475.7 127.0 475.9 127.2Q476.2 127.4 476.2 127.7L476.2 127.7Q476.2 128.0 475.9 128.2Q475.7 128.4 475.4 128.4ZM479.0 129.4L480.4 129.4L480.4 130.4L479.0 130.4L479.0 134.3Q479.0 134.7 479.2 134.9Q479.4 135.1 479.8 135.1L479.8 135.1Q479.9 135.1 480.0 135.1Q480.2 135.1 480.3 135.1L480.3 135.1L480.5 136.0Q480.4 136.0 480.2 136.1Q480.0 136.1 479.8 136.1L479.8 136.1Q478.9 136.1 478.4 135.6Q478.0 135.2 478.0 134.4L478.0 134.4L478.0 130.4L477.0 130.4L477.0 129.4L478.0 129.4L478.0 127.9L479.0 127.9L479.0 129.4ZM483.0 136L481.8 136L481.8 127.3L483.0 127.3L483.0 131.0L487.5 131.0L487.5 127.3L488.6 127.3L488.6 136L487.5 136L487.5 132.0L483.0 132.0L483.0 136ZM492.8 136.1L492.8 136.1Q492.2 136.1 491.7 135.8Q491.2 135.5 490.9 135.0Q490.6 134.4 490.6 133.6L490.6 133.6L490.6 129.4L491.7 129.4L491.7 133.5Q491.7 134.3 492.1 134.7Q492.5 135.1 493.2 135.1L493.2 135.1Q493.6 135.1 494.0 134.9Q494.4 134.7 494.6 134.3Q494.8 133.9 494.8 133.4L494.8 133.4L494.8 129.4L495.9 129.4L495.9 136L494.9 136L494.9 134.8Q494.6 135.4 494.1 135.7L494.1 135.7Q493.6 136.1 492.8 136.1ZM500.8 136.1L500.8 136.1Q500.1 136.1 499.8 135.9Q499.4 135.7 499.2 135.4Q499.0 135.2 498.9 135.0L498.9 135.0L498.7 135.0L498.7 136L497.7 136L497.7 127.3L498.8 127.3L498.8 130.5L498.9 130.5Q499.0 130.3 499.2 130.1Q499.4 129.8 499.7 129.6Q500.1 129.4 500.8 129.4L500.8 129.4Q501.6 129.4 502.2 129.8Q502.8 130.2 503.2 130.9Q503.5 131.7 503.5 132.7L503.5 132.7Q503.5 133.8 503.2 134.5Q502.8 135.3 502.2 135.7Q501.6 136.1 500.8 136.1ZM500.6 135.2L500.6 135.2Q501.2 135.2 501.6 134.9Q502.0 134.5 502.3 134.0Q502.5 133.4 502.5 132.7L502.5 132.7Q502.5 132.1 502.3 131.5Q502.1 131.0 501.6 130.6Q501.2 130.3 500.6 130.3L500.6 130.3Q500.0 130.3 499.6 130.6Q499.2 130.9 499.0 131.5Q498.8 132.0 498.8 132.7L498.8 132.7Q498.8 133.5 499.0 134.0Q499.2 134.6 499.6 134.9Q500.0 135.2 500.6 135.2Z M509.0 136L507.8 136L511.0 127.3L512.3 127.3L515.5 136L514.3 136L513.5 133.6L509.9 133.6L509.0 136ZM510.2 132.6L513.1 132.6L512.5 130.8Q512.3 130.3 512.1 129.6L512.1 129.6Q511.9 129.0 511.6 128.2L511.6 128.2Q511.4 129.0 511.2 129.6L511.2 129.6Q511.0 130.4 510.8 130.8L510.8 130.8L510.2 132.6ZM519.4 136.1L519.4 136.1Q518.5 136.1 517.8 135.7Q517.2 135.3 516.8 134.5Q516.4 133.8 516.4 132.8L516.4 132.8Q516.4 131.7 516.8 131.0Q517.2 130.2 517.8 129.8Q518.5 129.4 519.4 129.4L519.4 129.4Q519.9 129.4 520.3 129.5Q520.7 129.6 521.1 129.8Q521.4 130.1 521.7 130.4Q521.9 130.8 522.0 131.2L522.0 131.2L521.0 131.5Q521.0 131.2 520.8 131.0Q520.7 130.8 520.5 130.6Q520.3 130.5 520.0 130.4Q519.7 130.3 519.4 130.3L519.4 130.3Q518.7 130.3 518.3 130.7Q517.9 131.0 517.7 131.6Q517.5 132.1 517.5 132.8L517.5 132.8Q517.5 133.4 517.7 134.0Q517.9 134.5 518.3 134.9Q518.7 135.2 519.4 135.2L519.4 135.2Q519.7 135.2 520.0 135.1Q520.3 135.0 520.5 134.9Q520.7 134.7 520.8 134.5Q521.0 134.3 521.1 134.0L521.1 134.0L522.1 134.3Q521.9 134.7 521.7 135.1Q521.4 135.4 521.1 135.6Q520.7 135.9 520.3 136.0Q519.9 136.1 519.4 136.1ZM524.8 129.4L526.2 129.4L526.2 130.4L524.8 130.4L524.8 134.3Q524.8 134.7 525.0 134.9Q525.2 135.1 525.6 135.1L525.6 135.1Q525.7 135.1 525.8 135.1Q526.0 135.1 526.1 135.1L526.1 135.1L526.3 136.0Q526.2 136.0 526.0 136.1Q525.8 136.1 525.6 136.1L525.6 136.1Q524.7 136.1 524.2 135.6Q523.8 135.2 523.8 134.4L523.8 134.4L523.8 130.4L522.8 130.4L522.8 129.4L523.8 129.4L523.8 127.9L524.8 127.9L524.8 129.4ZM528.6 136L527.5 136L527.5 129.4L528.6 129.4L528.6 136ZM528.0 128.4L528.0 128.4Q527.7 128.4 527.5 128.2Q527.3 128.0 527.3 127.7L527.3 127.7Q527.3 127.4 527.5 127.2Q527.7 127.0 528.0 127.0L528.0 127.0Q528.3 127.0 528.6 127.2Q528.8 127.4 528.8 127.7L528.8 127.7Q528.8 128.0 528.6 128.2Q528.3 128.4 528.0 128.4ZM533.1 136.1L533.1 136.1Q532.2 136.1 531.5 135.7Q530.8 135.3 530.5 134.5Q530.1 133.8 530.1 132.8L530.1 132.8Q530.1 131.7 530.5 131.0Q530.8 130.2 531.5 129.8Q532.2 129.4 533.1 129.4L533.1 129.4Q534.0 129.4 534.7 129.8Q535.3 130.2 535.7 131.0Q536.1 131.7 536.1 132.8L536.1 132.8Q536.1 133.8 535.7 134.5Q535.3 135.3 534.7 135.7Q534.0 136.1 533.1 136.1ZM533.1 135.2L533.1 135.2Q533.7 135.2 534.2 134.9Q534.6 134.5 534.8 134.0Q535.0 133.4 535.0 132.8L535.0 132.8Q535.0 132.1 534.8 131.6Q534.6 131.0 534.2 130.7Q533.7 130.3 533.1 130.3L533.1 130.3Q532.4 130.3 532.0 130.7Q531.6 131.0 531.4 131.6Q531.2 132.1 531.2 132.8L531.2 132.8Q531.2 133.4 531.4 134.0Q531.6 134.5 532.0 134.9Q532.4 135.2 533.1 135.2ZM538.7 132.1L538.7 132.1L538.7 136L537.6 136L537.6 129.4L538.6 129.4L538.6 130.7Q538.9 130.0 539.3 129.7L539.3 129.7Q539.9 129.4 540.6 129.4L540.6 129.4Q541.3 129.4 541.8 129.6Q542.3 129.9 542.6 130.5Q542.8 131.0 542.8 131.8L542.8 131.8L542.8 136L541.8 136L541.8 131.9Q541.8 131.2 541.4 130.7Q541.0 130.3 540.3 130.3L540.3 130.3Q539.8 130.3 539.5 130.5Q539.1 130.7 538.9 131.1Q538.7 131.5 538.7 132.1ZM546.9 136.1L546.9 136.1Q546.3 136.1 545.7 135.9Q545.2 135.7 544.9 135.4Q544.5 135.0 544.4 134.4L544.4 134.4L545.4 134.2Q545.5 134.7 545.9 135.0Q546.3 135.2 546.9 135.2L546.9 135.2Q547.6 135.2 548.0 134.9Q548.4 134.6 548.4 134.2L548.4 134.2Q548.4 133.9 548.2 133.7Q547.9 133.4 547.5 133.3L547.5 133.3L546.4 133.1Q545.5 132.9 545.0 132.4Q544.6 132.0 544.6 131.3L544.6 131.3Q544.6 130.7 544.9 130.3Q545.2 129.9 545.8 129.6Q546.3 129.4 547.0 129.4L547.0 129.4Q547.7 129.4 548.2 129.6Q548.6 129.8 548.9 130.1Q549.2 130.5 549.4 130.9L549.4 130.9L548.4 131.2Q548.3 130.8 548.0 130.6Q547.7 130.3 547.0 130.3L547.0 130.3Q546.5 130.3 546.1 130.5Q545.7 130.8 545.7 131.2L545.7 131.2Q545.7 131.6 545.9 131.8Q546.2 132.0 546.8 132.2L546.8 132.2L547.8 132.4Q548.7 132.6 549.1 133.0Q549.5 133.5 549.5 134.2L549.5 134.2Q549.5 134.7 549.2 135.2Q548.9 135.6 548.3 135.9Q547.7 136.1 546.9 136.1Z "/></g></svg>