<!-- Generated by readme-aura https://github.com/collectioneur/readme-aura -->
<svg width="800" height="180" viewBox="0 0 800 180" xmlns="http://www.w3.org/2000/svg"><defs><pattern id="satori_pattern_id_0" x="0" y="0" width="1" height="1" patternUnits="objectBoundingBox"><linearGradient id="satori_biid_0" x1="-0.08298631766805462" y1="0.3688280785246879" x2="1.0829863176680548" y2="0.6311719214753121" spreadMethod="pad"><stop offset="0%" stop-color="#0f0c29"/><stop offset="50%" stop-color="#302b63"/><stop offset="100%" stop-color="#24243e"/></linearGradient><rect x="0" y="0" width="800" height="180" fill="url(#satori_biid_0)"/></pattern></defs><mask id="satori_om-id"><rect x="0" y="0" width="800" height="180" fill="#fff"/></mask><path x="0" y="0" width="800" height="180" fill="url(#satori_pattern_id_0)" d="M20,0 h760 a20,20 0 0 1 20,20 v140 a20,20 0 0 1 -20,20 h-760 a20,20 0 0 1 -20,-20 v-140 a20,20 0 0 1 20,-20"/><mask id="satori_om-id-0"><rect x="215" y="37" width="370" height="62" fill="#fff"/></mask><defs><pattern id="satori_pattern_id-0-0_0" x="0" y="0" width="1" height="1" patternUnits="objectBoundingBox"><linearGradient id="satori_biid-0-0_0" x1="-4.810966440042345e-16" y1="4.810966440042355e-16" x2="1.0000000000000004" y2="0.9999999999999994" spreadMethod="pad"><stop offset="0%" stop-color="#667eea"/><stop offset="100%" stop-color="#764ba2"/></linearGradient><rect x="0" y="0" width="48" height="48" fill="url(#satori_biid-0-0_0)"/></pattern></defs><mask id="satori_om-id-0-0"><rect x="215" y="44" width="48" height="48" fill="#fff"/></mask><path x="215" y="44" width="48" height="48" fill="url(#satori_pattern_id-0-0_0)" d="M227,44 h24 a12,12 0 0 1 12,12 v24 a12,12 0 0 1 -12,12 h-24 a12,12 0 0 1 -12,-12 v-24 a12,12 0 0 1 12,-12"/><mask id="satori_om-id-0-0-0"><rect x="229" y="51" width="20" height="34" fill="#fff"/></mask><g  ><path fill="white" d="M232.5 78L229.7 78L237.1 57.6L240.1 57.6L247.6 78L244.9 78L242.8 72.3L234.4 72.3L232.5 78ZM235.2 70.0L242.0 70.0L240.6 65.9Q240.2 64.8 239.6 63.1L239.6 63.1Q239.2 61.7 238.6 59.7L238.6 59.7Q238.0 61.8 237.6 63.2L237.6 63.2Q237.0 64.9 236.7 65.9L236.7 65.9L235.2 70.0Z "/></g><mask id="satori_om-id-0-1"><rect x="279" y="37" width="306" height="62" fill="#fff"/></mask><mask id="satori_om-id-0-1-0"><rect x="279" y="37" width="306" height="39" fill="#fff"/></mask><g  ><path fill="white" d="M285.7 68L281 68L281 50.5L285.5 50.5L285.5 53.6L285.7 53.6Q286.2 52.0 287.3 51.1Q288.5 50.3 289.9 50.3L289.9 50.3Q290.3 50.3 290.7 50.3Q291.1 50.4 291.5 50.5L291.5 50.5L291.5 54.6Q291.1 54.5 290.5 54.5Q290.0 54.4 289.4 54.4L289.4 54.4Q288.4 54.4 287.5 54.9Q286.6 55.3 286.2 56.1Q285.7 57.0 285.7 58.1L285.7 58.1L285.7 68ZM301.9 68.3L301.9 68.3Q299.3 68.3 297.3 67.3Q295.4 66.2 294.3 64.1Q293.3 62.1 293.3 59.4L293.3 59.4Q293.3 56.7 294.3 54.6Q295.4 52.6 297.3 51.5Q299.1 50.3 301.7 50.3L301.7 50.3Q303.4 50.3 304.9 50.9Q306.4 51.4 307.5 52.5Q308.6 53.6 309.3 55.3Q309.9 56.9 309.9 59.2L309.9 59.2L309.9 60.5L297.9 60.5Q298.0 61.8 298.5 62.8L298.5 62.8Q299.0 63.8 299.9 64.3Q300.8 64.8 302 64.8L302 64.8Q302.8 64.8 303.5 64.6Q304.2 64.3 304.6 63.9Q305.1 63.4 305.4 62.8L305.4 62.8L309.6 63.5Q309.2 65.0 308.2 66.1Q307.1 67.2 305.5 67.8Q304.0 68.3 301.9 68.3ZM298.0 57.5L298.0 57.5L305.4 57.5Q305.3 56.7 305 56.0L305 56.0Q304.6 55.0 303.8 54.4Q302.9 53.8 301.7 53.8L301.7 53.8Q300.5 53.8 299.7 54.4Q298.8 55.0 298.4 55.9L298.4 55.9Q298.0 56.7 298.0 57.5ZM318.0 68.3L318.0 68.3Q316.3 68.3 315.0 67.8Q313.7 67.2 312.9 66.0Q312.2 64.8 312.2 63.1L312.2 63.1Q312.2 61.7 312.7 60.7Q313.2 59.7 314.2 59.1Q315.1 58.5 316.3 58.2Q317.5 57.9 318.8 57.8L318.8 57.8Q320.3 57.6 321.2 57.5Q322.1 57.3 322.6 57.0Q323.0 56.8 323.0 56.2L323.0 56.2L323.0 56.1Q323.0 55.4 322.7 54.8Q322.4 54.3 321.7 54.1Q321.1 53.8 320.3 53.8L320.3 53.8Q319.3 53.8 318.7 54.1Q318 54.3 317.6 54.8Q317.2 55.2 317.0 55.8L317.0 55.8L312.7 55.1Q313.1 53.6 314.2 52.5Q315.2 51.4 316.8 50.9Q318.3 50.3 320.3 50.3L320.3 50.3Q321.7 50.3 323 50.6Q324.3 51.0 325.4 51.7Q326.4 52.4 327.1 53.5Q327.7 54.7 327.7 56.2L327.7 56.2L327.7 68L323.2 68L323.2 65.6L323.1 65.6Q322.7 66.4 322.0 67.0Q321.3 67.6 320.3 68.0Q319.3 68.3 318.0 68.3ZM319.3 65.0L319.3 65.0Q320.4 65.0 321.2 64.6Q322.1 64.2 322.5 63.4Q323.0 62.7 323.0 61.8L323.0 61.8L323.0 59.9Q322.8 60.0 322.4 60.1Q322.0 60.3 321.5 60.4Q320.9 60.5 320.4 60.5Q319.9 60.6 319.5 60.7L319.5 60.7Q318.7 60.8 318.0 61.1Q317.4 61.3 317.0 61.8Q316.7 62.3 316.7 63.0L316.7 63.0Q316.7 63.7 317 64.1Q317.3 64.6 317.9 64.8Q318.5 65.0 319.3 65.0ZM338.0 68.3L338.0 68.3Q336.0 68.3 334.4 67.3Q332.8 66.2 331.9 64.2Q330.9 62.2 330.9 59.3L330.9 59.3Q330.9 56.3 331.9 54.3Q332.9 52.3 334.5 51.3Q336.1 50.3 338.0 50.3L338.0 50.3Q339.5 50.3 340.5 50.8Q341.5 51.3 342.1 52.0Q342.7 52.8 343 53.5L343 53.5L343.2 53.5L343.2 44.7L347.8 44.7L347.8 68L343.2 68L343.2 65.2L343 65.2Q342.7 65.9 342.1 66.6Q341.5 67.3 340.5 67.8Q339.5 68.3 338.0 68.3ZM339.5 64.5L339.5 64.5Q340.7 64.5 341.5 63.9Q342.4 63.2 342.8 62.0Q343.3 60.9 343.3 59.3L343.3 59.3Q343.3 57.7 342.8 56.5Q342.4 55.4 341.5 54.7Q340.7 54.1 339.5 54.1L339.5 54.1Q338.3 54.1 337.4 54.7Q336.6 55.4 336.2 56.6Q335.8 57.8 335.8 59.3L335.8 59.3Q335.8 60.8 336.2 62Q336.6 63.2 337.4 63.9Q338.3 64.5 339.5 64.5ZM356.5 68L351.8 68L351.8 50.5L356.2 50.5L356.4 53.9Q356.7 53.0 357.3 52.3L357.3 52.3Q358.1 51.2 359.1 50.8Q360.2 50.3 361.4 50.3L361.4 50.3Q363.3 50.3 364.4 51.5L364.4 51.5Q365.3 52.4 365.9 54.2L365.9 54.2Q366.2 53.1 366.8 52.4L366.8 52.4Q367.7 51.3 368.9 50.8Q370.1 50.3 371.5 50.3L371.5 50.3Q373.1 50.3 374.3 51.0Q375.6 51.7 376.3 53.0Q377.0 54.3 377.0 56.2L377.0 56.2L377.0 68L372.4 68L372.4 57.1Q372.4 55.6 371.6 54.9Q370.8 54.2 369.6 54.2L369.6 54.2Q368.7 54.2 368.1 54.6Q367.4 55.0 367.1 55.6Q366.7 56.3 366.7 57.3L366.7 57.3L366.7 68L362.2 68L362.2 57.0Q362.2 55.7 361.4 54.9Q360.7 54.2 359.5 54.2L359.5 54.2Q358.6 54.2 358.0 54.6Q357.3 54.9 356.9 55.7Q356.5 56.4 356.5 57.4L356.5 57.4L356.5 68ZM388.9 68.3L388.9 68.3Q386.3 68.3 384.3 67.3Q382.4 66.2 381.4 64.1Q380.3 62.1 380.3 59.4L380.3 59.4Q380.3 56.7 381.3 54.6Q382.4 52.6 384.3 51.5Q386.2 50.3 388.7 50.3L388.7 50.3Q390.4 50.3 391.9 50.9Q393.4 51.4 394.5 52.5Q395.6 53.6 396.3 55.3Q396.9 56.9 396.9 59.2L396.9 59.2L396.9 60.5L385.0 60.5Q385 61.8 385.5 62.8L385.5 62.8Q386.0 63.8 386.9 64.3Q387.8 64.8 389.0 64.8L389.0 64.8Q389.8 64.8 390.5 64.6Q391.2 64.3 391.7 63.9Q392.1 63.4 392.4 62.8L392.4 62.8L396.6 63.5Q396.2 65.0 395.2 66.1Q394.1 67.2 392.6 67.8Q391.0 68.3 388.9 68.3ZM385.0 57.5L385.0 57.5L392.4 57.5Q392.3 56.7 392.0 56.0L392.0 56.0Q391.6 55.0 390.8 54.4Q390.0 53.8 388.8 53.8L388.8 53.8Q387.5 53.8 386.7 54.4Q385.8 55.0 385.4 55.9L385.4 55.9Q385.1 56.7 385.0 57.5ZM400.3 56.5L410.9 56.5L410.9 60.3L400.3 60.3L400.3 56.5ZM420.0 68.3L420.0 68.3Q418.3 68.3 417.0 67.8Q415.7 67.2 414.9 66.0Q414.1 64.8 414.1 63.1L414.1 63.1Q414.1 61.7 414.7 60.7Q415.2 59.7 416.1 59.1Q417.1 58.5 418.3 58.2Q419.4 57.9 420.7 57.8L420.7 57.8Q422.3 57.6 423.2 57.5Q424.1 57.3 424.5 57.0Q425.0 56.8 425.0 56.2L425.0 56.2L425.0 56.1Q425.0 55.4 424.7 54.8Q424.3 54.3 423.7 54.1Q423.1 53.8 422.2 53.8L422.2 53.8Q421.3 53.8 420.7 54.1Q420.0 54.3 419.6 54.8Q419.1 55.2 418.9 55.8L418.9 55.8L414.6 55.1Q415.1 53.6 416.1 52.5Q417.2 51.4 418.7 50.9Q420.3 50.3 422.3 50.3L422.3 50.3Q423.7 50.3 425.0 50.6Q426.3 51.0 427.4 51.7Q428.4 52.4 429.0 53.5Q429.7 54.7 429.7 56.2L429.7 56.2L429.7 68L425.2 68L425.2 65.6L425.1 65.6Q424.6 66.4 423.9 67.0Q423.2 67.6 422.2 68.0Q421.3 68.3 420.0 68.3ZM421.3 65.0L421.3 65.0Q422.4 65.0 423.2 64.6Q424.1 64.2 424.5 63.4Q425 62.7 425 61.8L425 61.8L425 59.9Q424.8 60.0 424.4 60.1Q424.0 60.3 423.4 60.4Q422.9 60.5 422.4 60.5Q421.9 60.6 421.5 60.7L421.5 60.7Q420.7 60.8 420.0 61.1Q419.4 61.3 419 61.8Q418.6 62.3 418.6 63.0L418.6 63.0Q418.6 63.7 419.0 64.1Q419.3 64.6 419.9 64.8Q420.5 65.0 421.3 65.0ZM439.7 68.2L439.7 68.2Q437.9 68.2 436.5 67.4Q435.1 66.6 434.4 65.2Q433.7 63.7 433.7 61.6L433.7 61.6L433.7 50.5L438.3 50.5L438.3 60.8Q438.3 62.5 439.2 63.4Q440.0 64.3 441.5 64.3L441.5 64.3Q442.5 64.3 443.3 63.9Q444.0 63.4 444.5 62.6Q444.9 61.8 444.9 60.6L444.9 60.6L444.9 50.5L449.6 50.5L449.6 68L445.2 68L445.1 64.4Q444.4 66.0 443.3 67.0L443.3 67.0Q441.8 68.2 439.7 68.2ZM458.3 68L453.6 68L453.6 50.5L458.1 50.5L458.1 53.6L458.3 53.6Q458.8 52.0 459.9 51.1Q461.0 50.3 462.5 50.3L462.5 50.3Q462.9 50.3 463.3 50.3Q463.7 50.4 464.0 50.5L464.0 50.5L464.0 54.6Q463.7 54.5 463.1 54.5Q462.5 54.4 462 54.4L462 54.4Q460.9 54.4 460.1 54.9Q459.2 55.3 458.7 56.1Q458.3 57.0 458.3 58.1L458.3 58.1L458.3 68ZM471.5 68.3L471.5 68.3Q469.8 68.3 468.5 67.8Q467.2 67.2 466.4 66.0Q465.7 64.8 465.7 63.1L465.7 63.1Q465.7 61.7 466.2 60.7Q466.8 59.7 467.7 59.1Q468.6 58.5 469.8 58.2Q471.0 57.9 472.3 57.8L472.3 57.8Q473.8 57.6 474.7 57.5Q475.6 57.3 476.1 57.0Q476.5 56.8 476.5 56.2L476.5 56.2L476.5 56.1Q476.5 55.4 476.2 54.8Q475.9 54.3 475.3 54.1Q474.6 53.8 473.8 53.8L473.8 53.8Q472.9 53.8 472.2 54.1Q471.5 54.3 471.1 54.8Q470.7 55.2 470.5 55.8L470.5 55.8L466.2 55.1Q466.6 53.6 467.7 52.5Q468.7 51.4 470.3 50.9Q471.8 50.3 473.8 50.3L473.8 50.3Q475.2 50.3 476.5 50.6Q477.8 51.0 478.9 51.7Q480.0 52.4 480.6 53.5Q481.2 54.7 481.2 56.2L481.2 56.2L481.2 68L476.8 68L476.8 65.6L476.6 65.6Q476.2 66.4 475.5 67.0Q474.8 67.6 473.8 68.0Q472.8 68.3 471.5 68.3ZM472.8 65.0L472.8 65.0Q473.9 65.0 474.8 64.6Q475.6 64.2 476.1 63.4Q476.5 62.7 476.5 61.8L476.5 61.8L476.5 59.9Q476.3 60.0 475.9 60.1Q475.5 60.3 475.0 60.4Q474.5 60.5 474.0 60.5Q473.5 60.6 473.1 60.7L473.1 60.7Q472.2 60.8 471.5 61.1Q470.9 61.3 470.5 61.8Q470.2 62.3 470.2 63.0L470.2 63.0Q470.2 63.7 470.5 64.1Q470.9 64.6 471.5 64.8Q472.0 65.0 472.8 65.0Z "/></g><mask id="satori_om-id-0-1-1"><rect x="279" y="80" width="306" height="19" fill="#fff"/></mask><g  ><path fill="#a0a0b8" d="M281.9 96L280.4 96L280.4 84.4L282.2 84.4L286.9 91.8Q287.1 92.1 287.3 92.5Q287.6 93 287.9 93.6L287.9 93.6Q288.1 93.9 288.3 94.2L288.3 94.2Q288.2 93.9 288.2 93.5L288.2 93.5Q288.2 92.9 288.2 92.4Q288.2 91.9 288.2 91.5L288.2 91.5L288.2 84.4L289.6 84.4L289.6 96L287.9 96L283.7 89.4Q283.4 88.9 283.1 88.4Q282.8 87.9 282.4 87.3L282.4 87.3Q282.1 86.8 281.8 86.1L281.8 86.1Q281.8 86.7 281.8 87.2L281.8 87.2Q281.9 88.0 281.9 88.5Q281.9 89.0 281.9 89.4L281.9 89.4L281.9 96ZM296.0 96.2L296.0 96.2Q294.7 96.2 293.8 95.6Q292.9 95.1 292.4 94.1Q291.9 93.0 291.9 91.7Q291.9 90.4 292.4 89.3Q292.8 88.3 293.7 87.7Q294.6 87.2 295.8 87.2L295.8 87.2Q296.5 87.2 297.2 87.4Q297.8 87.6 298.4 88.1Q298.9 88.6 299.3 89.5Q299.6 90.3 299.6 91.5L299.6 91.5L299.6 92.1L293.3 92.1Q293.3 93.0 293.6 93.6L293.6 93.6Q294.0 94.2 294.6 94.6Q295.2 94.9 296.0 94.9L296.0 94.9Q296.5 94.9 296.9 94.8Q297.3 94.6 297.6 94.3Q297.9 94.0 298.1 93.6L298.1 93.6L299.5 94.0Q299.3 94.6 298.8 95.1Q298.3 95.6 297.6 95.9Q296.9 96.2 296.0 96.2ZM293.3 90.9L293.3 90.9L298.2 90.9Q298.1 90.3 297.9 89.8L297.9 89.8Q297.6 89.2 297.1 88.8Q296.6 88.4 295.8 88.4Q295.0 88.4 294.4 88.8Q293.9 89.2 293.6 89.8L293.6 89.8Q293.3 90.3 293.3 90.9ZM302.5 96L300.9 96L304.0 91.5L301.1 87.3L302.7 87.3L303.8 89.0Q304.2 89.6 304.5 90.2L304.5 90.2Q304.7 90.4 304.8 90.7L304.8 90.7Q304.9 90.4 305.0 90.2L305.0 90.2Q305.3 89.6 305.8 89.0L305.8 89.0L306.9 87.3L308.5 87.3L305.5 91.6L308.6 96L307.0 96L305.7 94.0Q305.3 93.4 305.0 92.8L305.0 92.8Q304.9 92.6 304.7 92.4L304.7 92.4Q304.6 92.6 304.5 92.8L304.5 92.8Q304.2 93.4 303.8 94.0L303.8 94.0L302.5 96ZM312.0 87.3L313.8 87.3L313.8 88.5L312.0 88.5L312.0 93.7Q312.0 94.3 312.2 94.6Q312.5 94.9 313.0 94.9L313.0 94.9Q313.2 94.9 313.4 94.8Q313.6 94.8 313.7 94.8L313.7 94.8L314.0 96.0Q313.8 96.0 313.5 96.1Q313.3 96.1 313.0 96.1L313.0 96.1Q311.9 96.1 311.2 95.5Q310.6 94.9 310.6 93.8L310.6 93.8L310.6 88.5L309.3 88.5L309.3 87.3L310.6 87.3L310.6 85.2L312.0 85.2L312.0 87.3ZM315.5 90.4L320.6 90.4L320.6 91.7L315.5 91.7L315.5 90.4ZM327.9 96.2L327.9 96.2Q326.3 96.2 325.1 95.4Q324.0 94.7 323.3 93.4Q322.7 92.0 322.7 90.2L322.7 90.2Q322.7 88.3 323.3 87.0Q324.0 85.7 325.1 84.9Q326.3 84.2 327.8 84.2L327.8 84.2Q328.7 84.2 329.5 84.5Q330.3 84.8 330.9 85.3Q331.6 85.8 332.0 86.5Q332.4 87.2 332.6 88.0L332.6 88.0L331.0 88.0Q330.9 87.4 330.6 87Q330.3 86.6 329.8 86.2Q329.4 85.9 328.9 85.7Q328.4 85.6 327.8 85.6L327.8 85.6Q326.8 85.6 325.9 86.1Q325.1 86.6 324.6 87.7Q324.1 88.7 324.1 90.2L324.1 90.2Q324.1 91.7 324.6 92.7Q325.1 93.7 326.0 94.3Q326.8 94.8 327.9 94.8L327.9 94.8Q328.9 94.8 329.6 94.4Q330.4 93.9 330.8 93.2L330.8 93.2Q331.2 92.4 331.2 91.4L331.2 91.4L328.2 91.4L328.2 90.1L332.6 90.1L332.6 91.4Q332.6 92.9 332.0 93.9Q331.4 95.0 330.3 95.6Q329.3 96.2 327.9 96.2ZM338.6 96.2L338.6 96.2Q337.3 96.2 336.4 95.6Q335.5 95.1 335.0 94.1Q334.5 93.0 334.5 91.7Q334.5 90.4 334.9 89.3Q335.4 88.3 336.3 87.7Q337.2 87.2 338.4 87.2L338.4 87.2Q339.1 87.2 339.8 87.4Q340.4 87.6 341.0 88.1Q341.5 88.6 341.9 89.5Q342.2 90.3 342.2 91.5L342.2 91.5L342.2 92.1L335.9 92.1Q335.9 93.0 336.2 93.6L336.2 93.6Q336.6 94.2 337.2 94.6Q337.8 94.9 338.6 94.9L338.6 94.9Q339.1 94.9 339.5 94.8Q339.9 94.6 340.2 94.3Q340.5 94.0 340.7 93.6L340.7 93.6L342.1 94.0Q341.9 94.6 341.4 95.1Q340.9 95.6 340.2 95.9Q339.5 96.2 338.6 96.2ZM335.9 90.9L335.9 90.9L340.8 90.9Q340.7 90.3 340.5 89.8L340.5 89.8Q340.2 89.2 339.7 88.8Q339.2 88.4 338.4 88.4Q337.6 88.4 337.0 88.8Q336.5 89.2 336.2 89.8L336.2 89.8Q335.9 90.3 335.9 90.9ZM345.6 90.8L345.6 90.8L345.6 96L344.2 96L344.2 87.3L345.6 87.3L345.6 88.9Q345.9 88.1 346.5 87.7L346.5 87.7Q347.3 87.2 348.2 87.2L348.2 87.2Q349.1 87.2 349.8 87.5Q350.5 87.9 350.8 88.6Q351.2 89.3 351.2 90.5L351.2 90.5L351.2 96L349.8 96L349.8 90.6Q349.8 89.6 349.3 89.0Q348.7 88.4 347.8 88.4L347.8 88.4Q347.2 88.4 346.7 88.7Q346.2 89.0 345.9 89.5Q345.6 90.0 345.6 90.8Z M359.8 96L358.3 96L358.3 84.4L362.3 84.4Q363.7 84.4 364.6 84.8Q365.4 85.3 365.9 86.1Q366.3 86.9 366.3 88.0Q366.3 89.0 365.9 89.8Q365.4 90.6 364.6 91.0L364.6 91.0Q364.4 91.1 364.1 91.2L364.1 91.2L366.7 96L365.0 96L362.6 91.5Q362.5 91.5 362.3 91.5L362.3 91.5L359.8 91.5L359.8 96ZM359.8 85.7L359.8 90.2L362.3 90.2Q363.2 90.2 363.7 89.9Q364.3 89.6 364.6 89.1Q364.8 88.6 364.8 88.0L364.8 88.0Q364.8 87.3 364.6 86.7Q364.3 86.2 363.7 85.9Q363.2 85.7 362.2 85.7L362.2 85.7L359.8 85.7ZM375.8 96L368.6 96L368.6 84.4L375.7 84.4L375.7 85.7L370.1 85.7L370.1 89.5L375.3 89.5L375.3 90.8L370.1 90.8L370.1 94.7L375.8 94.7L375.8 96ZM378.8 96L377.3 96L381.5 84.4L383.2 84.4L387.5 96L385.9 96L384.8 92.8L380.0 92.8L378.8 96ZM380.4 91.5L384.3 91.5L383.4 89.1Q383.2 88.5 382.9 87.5L382.9 87.5Q382.7 86.7 382.3 85.5L382.3 85.5Q382.0 86.7 381.7 87.5L381.7 87.5Q381.4 88.5 381.2 89.1L381.2 89.1L380.4 91.5ZM392.9 96L392.9 96L389.3 96L389.3 84.4L393.1 84.4Q394.8 84.4 396.0 85.1Q397.2 85.8 397.8 87.1Q398.5 88.4 398.5 90.2L398.5 90.2Q398.5 92.0 397.8 93.3Q397.2 94.6 395.9 95.3Q394.7 96 392.9 96ZM390.8 85.7L390.8 94.7L392.8 94.7Q394.3 94.7 395.2 94.1Q396.1 93.6 396.6 92.6Q397.0 91.6 397.0 90.2L397.0 90.2Q397.0 88.8 396.6 87.8Q396.1 86.8 395.2 86.2Q394.3 85.7 393.0 85.7L393.0 85.7L390.8 85.7ZM402.3 96L400.8 96L400.8 84.4L402.9 84.4L405.8 91.7Q405.9 92.0 406.0 92.3Q406.2 92.7 406.3 93.2Q406.5 93.6 406.6 94.1L406.6 94.1Q406.6 94.2 406.7 94.4L406.7 94.4Q406.7 94.2 406.7 94.1L406.7 94.1Q406.9 93.7 407.0 93.2Q407.2 92.8 407.3 92.4Q407.4 92.0 407.5 91.7L407.5 91.7L410.4 84.4L412.5 84.4L412.5 96L411.0 96L411.0 89.4Q411.0 89.0 411.0 88.5Q411.0 88.1 411.0 87.6Q411.0 87.1 411.1 86.5L411.1 86.5Q411.1 86.2 411.1 85.9L411.1 85.9Q411.0 86.3 410.9 86.6L410.9 86.6Q410.7 87.2 410.5 87.7Q410.3 88.2 410.2 88.6Q410.0 89.1 409.9 89.4L409.9 89.4L407.3 96L406.0 96L403.4 89.4Q403.3 89.1 403.1 88.7Q403.0 88.2 402.8 87.7Q402.6 87.2 402.4 86.6L402.4 86.6Q402.3 86.3 402.2 86.0L402.2 86.0Q402.2 86.2 402.2 86.5L402.2 86.5Q402.2 87.0 402.2 87.5Q402.2 88.0 402.2 88.5Q402.3 89.0 402.3 89.4L402.3 89.4L402.3 96ZM422.5 96L415.3 96L415.3 84.4L422.4 84.4L422.4 85.7L416.8 85.7L416.8 89.5L422 89.5L422 90.8L416.8 90.8L416.8 94.7L422.5 94.7L422.5 96Z M432.8 99.5L432.8 99.5Q431.8 99.5 431.1 99.2Q430.4 99.0 429.9 98.6Q429.5 98.1 429.2 97.7L429.2 97.7L430.3 96.9Q430.5 97.2 430.8 97.5Q431.1 97.8 431.5 98.0Q432.0 98.2 432.8 98.2L432.8 98.2Q433.8 98.2 434.5 97.7Q435.2 97.2 435.2 96.1L435.2 96.1L435.2 94.4L435.0 94.4Q434.9 94.6 434.6 95.0Q434.4 95.3 433.8 95.6Q433.3 95.9 432.5 95.9L432.5 95.9Q431.5 95.9 430.6 95.4Q429.8 94.9 429.3 93.9Q428.8 93.0 428.8 91.6L428.8 91.6Q428.8 90.2 429.3 89.2Q429.8 88.3 430.6 87.7Q431.4 87.2 432.5 87.2L432.5 87.2Q433.4 87.2 433.9 87.4Q434.4 87.7 434.7 88.1Q434.9 88.4 435.1 88.7L435.1 88.7L435.2 88.7L435.2 87.3L436.6 87.3L436.6 96.2Q436.6 97.4 436.1 98.1Q435.6 98.8 434.7 99.1Q433.8 99.5 432.8 99.5ZM432.7 94.6L432.7 94.6Q433.5 94.6 434.1 94.2Q434.6 93.9 434.9 93.2Q435.2 92.5 435.2 91.6L435.2 91.6Q435.2 90.6 434.9 89.9Q434.6 89.2 434.1 88.8Q433.5 88.4 432.7 88.4L432.7 88.4Q431.9 88.4 431.4 88.8Q430.8 89.3 430.5 90.0Q430.2 90.7 430.2 91.6L430.2 91.6Q430.2 92.5 430.5 93.1Q430.8 93.8 431.4 94.2Q431.9 94.6 432.7 94.6ZM442.7 96.2L442.7 96.2Q441.5 96.2 440.5 95.6Q439.6 95.1 439.1 94.1Q438.6 93.0 438.6 91.7Q438.6 90.4 439.1 89.3Q439.6 88.3 440.5 87.7Q441.4 87.2 442.6 87.2L442.6 87.2Q443.3 87.2 443.9 87.4Q444.6 87.6 445.2 88.1Q445.7 88.6 446.0 89.5Q446.4 90.3 446.4 91.5L446.4 91.5L446.4 92.1L440.0 92.1Q440.1 93.0 440.4 93.6L440.4 93.6Q440.7 94.2 441.3 94.6Q441.9 94.9 442.7 94.9L442.7 94.9Q443.2 94.9 443.7 94.8Q444.1 94.6 444.4 94.3Q444.7 94.0 444.9 93.6L444.9 93.6L446.2 94.0Q446.0 94.6 445.5 95.1Q445.0 95.6 444.3 95.9Q443.6 96.2 442.7 96.2ZM440.1 90.9L440.1 90.9L444.9 90.9Q444.9 90.3 444.7 89.8L444.7 89.8Q444.4 89.2 443.9 88.8Q443.3 88.4 442.6 88.4Q441.8 88.4 441.2 88.8Q440.6 89.2 440.3 89.8L440.3 89.8Q440.1 90.3 440.1 90.9ZM449.8 90.8L449.8 90.8L449.8 96L448.4 96L448.4 87.3L449.7 87.3L449.7 88.9Q450.1 88.1 450.7 87.7L450.7 87.7Q451.4 87.2 452.4 87.2L452.4 87.2Q453.3 87.2 454.0 87.5Q454.6 87.9 455.0 88.6Q455.4 89.3 455.4 90.5L455.4 90.5L455.4 96L454.0 96L454.0 90.6Q454.0 89.6 453.4 89.0Q452.9 88.4 452.0 88.4L452.0 88.4Q451.4 88.4 450.9 88.7Q450.4 89.0 450.1 89.5Q449.8 90.0 449.8 90.8ZM461.5 96.2L461.5 96.2Q460.2 96.2 459.3 95.6Q458.4 95.1 457.9 94.1Q457.4 93.0 457.4 91.7Q457.4 90.4 457.9 89.3Q458.4 88.3 459.3 87.7Q460.1 87.2 461.3 87.2L461.3 87.2Q462.0 87.2 462.7 87.4Q463.4 87.6 463.9 88.1Q464.5 88.6 464.8 89.5Q465.1 90.3 465.1 91.5L465.1 91.5L465.1 92.1L458.8 92.1Q458.9 93.0 459.2 93.6L459.2 93.6Q459.5 94.2 460.1 94.6Q460.7 94.9 461.5 94.9L461.5 94.9Q462.0 94.9 462.4 94.8Q462.9 94.6 463.2 94.3Q463.5 94.0 463.6 93.6L463.6 93.6L465 94.0Q464.8 94.6 464.3 95.1Q463.8 95.6 463.1 95.9Q462.4 96.2 461.5 96.2ZM458.8 90.9L458.8 90.9L463.7 90.9Q463.7 90.3 463.5 89.8L463.5 89.8Q463.2 89.2 462.7 88.8Q462.1 88.4 461.3 88.4Q460.5 88.4 460.0 88.8Q459.4 89.2 459.1 89.8L459.1 89.8Q458.9 90.3 458.8 90.9ZM468.6 96L467.2 96L467.2 87.3L468.5 87.3L468.5 88.6L468.6 88.6Q468.9 87.9 469.5 87.5Q470.1 87.1 470.9 87.1L470.9 87.1Q471.0 87.1 471.2 87.1Q471.5 87.2 471.6 87.2L471.6 87.2L471.6 88.6Q471.5 88.6 471.3 88.5Q471.0 88.5 470.7 88.5L470.7 88.5Q470.1 88.5 469.6 88.8Q469.1 89.0 468.8 89.5Q468.6 89.9 468.6 90.5L468.6 90.5L468.6 96ZM475.6 96.2L475.6 96.2Q474.8 96.2 474.1 95.9Q473.4 95.6 473.0 95.0Q472.6 94.4 472.6 93.5L472.6 93.5Q472.6 92.8 472.9 92.3Q473.2 91.8 473.7 91.6Q474.2 91.3 474.8 91.2Q475.4 91.0 476.0 90.9L476.0 90.9Q476.8 90.8 477.3 90.8Q477.8 90.7 478.1 90.6Q478.3 90.5 478.3 90.1L478.3 90.1L478.3 90.1Q478.3 89.6 478.1 89.2Q477.9 88.8 477.5 88.6Q477.1 88.4 476.5 88.4L476.5 88.4Q475.8 88.4 475.4 88.6Q474.9 88.8 474.7 89.1Q474.4 89.4 474.3 89.7L474.3 89.7L472.9 89.2Q473.2 88.4 473.8 88.0Q474.4 87.5 475.1 87.3Q475.8 87.2 476.4 87.2L476.4 87.2Q476.9 87.2 477.4 87.3Q478.0 87.4 478.5 87.7Q479.0 88.0 479.4 88.6Q479.7 89.2 479.7 90.2L479.7 90.2L479.7 96L478.3 96L478.3 94.8L478.2 94.8Q478.1 95.1 477.7 95.4Q477.4 95.8 476.9 96.0Q476.4 96.2 475.6 96.2ZM475.9 95.0L475.9 95.0Q476.6 95.0 477.2 94.7Q477.7 94.4 478.0 93.9Q478.3 93.4 478.3 92.8L478.3 92.8L478.3 91.6Q478.2 91.7 477.9 91.8Q477.6 91.9 477.3 92.0Q476.9 92.0 476.5 92.1Q476.2 92.1 476.0 92.1L476.0 92.1Q475.5 92.2 475.0 92.3Q474.6 92.5 474.3 92.8Q474.1 93.1 474.1 93.6L474.1 93.6Q474.1 94.0 474.3 94.3Q474.5 94.6 474.9 94.8Q475.3 95.0 475.9 95.0ZM483.8 87.3L485.6 87.3L485.6 88.5L483.8 88.5L483.8 93.7Q483.8 94.3 484.0 94.6Q484.3 94.9 484.8 94.9L484.8 94.9Q485.0 94.9 485.2 94.8Q485.4 94.8 485.6 94.8L485.6 94.8L485.8 96.0Q485.6 96.0 485.3 96.1Q485.1 96.1 484.8 96.1L484.8 96.1Q483.7 96.1 483.0 95.5Q482.4 94.9 482.4 93.8L482.4 93.8L482.4 88.5L481.1 88.5L481.1 87.3L482.4 87.3L482.4 85.2L483.8 85.2L483.8 87.3ZM491.0 96.2L491.0 96.2Q489.8 96.2 488.9 95.6Q488.0 95.1 487.5 94.0Q487.0 93.0 487.0 91.7L487.0 91.7Q487.0 90.3 487.5 89.3Q488.0 88.3 488.9 87.7Q489.8 87.2 491.0 87.2L491.0 87.2Q492.1 87.2 493.0 87.7Q493.9 88.3 494.4 89.3Q494.9 90.3 494.9 91.7L494.9 91.7Q494.9 93.0 494.4 94.0Q493.9 95.1 493.0 95.6Q492.1 96.2 491.0 96.2ZM491.0 94.9L491.0 94.9Q491.8 94.9 492.4 94.5Q493.0 94.0 493.3 93.3Q493.5 92.5 493.5 91.7L493.5 91.7Q493.5 90.8 493.3 90.1Q493.0 89.3 492.4 88.9Q491.8 88.4 491.0 88.4L491.0 88.4Q490.1 88.4 489.5 88.9Q489.0 89.3 488.7 90.1Q488.4 90.8 488.4 91.7L488.4 91.7Q488.4 92.5 488.7 93.3Q489.0 94.0 489.5 94.5Q490.1 94.9 491.0 94.9ZM498.4 96L497.0 96L497.0 87.3L498.4 87.3L498.4 88.6L498.4 88.6Q498.7 87.9 499.3 87.5Q499.9 87.1 500.7 87.1L500.7 87.1Q500.9 87.1 501.1 87.1Q501.3 87.2 501.4 87.2L501.4 87.2L501.4 88.6Q501.4 88.6 501.1 88.5Q500.9 88.5 500.6 88.5L500.6 88.5Q500.0 88.5 499.5 88.8Q499.0 89.0 498.7 89.5Q498.4 89.9 498.4 90.5L498.4 90.5L498.4 96Z M509.6 87.3L511.6 87.3L511.6 88.5L509.6 88.5L509.6 96L508.2 96L508.2 88.5L506.4 88.5L506.4 87.3L508.2 87.3L508.2 86.1Q508.2 85.3 508.5 84.8Q508.9 84.3 509.4 84.1Q510.0 83.8 510.6 83.8L510.6 83.8Q511.1 83.8 511.5 83.9Q511.8 84.0 512.0 84.0L512.0 84.0L511.6 85.3Q511.5 85.2 511.3 85.2Q511.1 85.1 510.8 85.1L510.8 85.1Q510.2 85.1 509.9 85.4Q509.6 85.8 509.6 86.4L509.6 86.4L509.6 87.3ZM517.0 96.2L517.0 96.2Q515.8 96.2 514.9 95.6Q514.0 95.1 513.5 94.0Q513.0 93.0 513.0 91.7L513.0 91.7Q513.0 90.3 513.5 89.3Q514.0 88.3 514.9 87.7Q515.8 87.2 517.0 87.2L517.0 87.2Q518.2 87.2 519.1 87.7Q520.0 88.3 520.5 89.3Q521.0 90.3 521.0 91.7L521.0 91.7Q521.0 93.0 520.5 94.0Q520.0 95.1 519.1 95.6Q518.2 96.2 517.0 96.2ZM517.0 94.9L517.0 94.9Q517.9 94.9 518.4 94.5Q519.0 94.0 519.3 93.3Q519.6 92.5 519.6 91.7L519.6 91.7Q519.6 90.8 519.3 90.1Q519.0 89.3 518.4 88.9Q517.9 88.4 517.0 88.4L517.0 88.4Q516.1 88.4 515.6 88.9Q515.0 89.3 514.7 90.1Q514.4 90.8 514.4 91.7L514.4 91.7Q514.4 92.5 514.7 93.3Q515.0 94.0 515.6 94.5Q516.1 94.9 517.0 94.9ZM524.4 96L523.0 96L523.0 87.3L524.4 87.3L524.4 88.6L524.5 88.6Q524.7 87.9 525.3 87.5Q526.0 87.1 526.8 87.1L526.8 87.1Q526.9 87.1 527.1 87.1Q527.3 87.2 527.5 87.2L527.5 87.2L527.5 88.6Q527.4 88.6 527.1 88.5Q526.9 88.5 526.6 88.5L526.6 88.5Q526.0 88.5 525.5 88.8Q525 89.0 524.7 89.5Q524.4 89.9 524.4 90.5L524.4 90.5L524.4 96Z M538.5 96.2L538.5 96.2Q536.9 96.2 535.8 95.4Q534.6 94.7 533.9 93.4Q533.3 92.0 533.3 90.2L533.3 90.2Q533.3 88.3 533.9 87.0Q534.6 85.7 535.7 84.9Q536.9 84.2 538.4 84.2L538.4 84.2Q539.3 84.2 540.1 84.5Q540.9 84.8 541.5 85.3Q542.2 85.8 542.6 86.5Q543.0 87.2 543.2 88.0L543.2 88.0L541.6 88.0Q541.5 87.4 541.2 87Q540.9 86.6 540.5 86.2Q540.0 85.9 539.5 85.7Q539.0 85.6 538.4 85.6L538.4 85.6Q537.4 85.6 536.5 86.1Q535.7 86.6 535.2 87.7Q534.7 88.7 534.7 90.2L534.7 90.2Q534.7 91.7 535.2 92.7Q535.7 93.7 536.6 94.3Q537.4 94.8 538.5 94.8L538.5 94.8Q539.5 94.8 540.2 94.4Q541.0 93.9 541.4 93.2L541.4 93.2Q541.8 92.4 541.8 91.4L541.8 91.4L538.8 91.4L538.8 90.1L543.3 90.1L543.3 91.4Q543.3 92.9 542.6 93.9Q542.0 95.0 540.9 95.6Q539.9 96.2 538.5 96.2ZM546.9 96L545.5 96L545.5 87.3L546.9 87.3L546.9 96ZM546.2 85.8L546.2 85.8Q545.8 85.8 545.5 85.6Q545.2 85.3 545.2 84.9L545.2 84.9Q545.2 84.5 545.5 84.2Q545.8 84.0 546.2 84.0L546.2 84.0Q546.6 84.0 546.9 84.2Q547.2 84.5 547.2 84.9L547.2 84.9Q547.2 85.3 546.9 85.6Q546.6 85.8 546.2 85.8ZM551.0 87.3L552.8 87.3L552.8 88.5L551.0 88.5L551.0 93.7Q551.0 94.3 551.2 94.6Q551.5 94.9 552.0 94.9L552.0 94.9Q552.2 94.9 552.4 94.8Q552.6 94.8 552.8 94.8L552.8 94.8L553.0 96.0Q552.8 96.0 552.6 96.1Q552.3 96.1 552 96.1L552 96.1Q550.9 96.1 550.2 95.5Q549.6 94.9 549.6 93.8L549.6 93.8L549.6 88.5L548.3 88.5L548.3 87.3L549.6 87.3L549.6 85.2L551.0 85.2L551.0 87.3ZM556.3 96L554.8 96L554.8 84.4L556.3 84.4L556.3 89.4L562.4 89.4L562.4 84.4L563.9 84.4L563.9 96L562.4 96L562.4 90.7L556.3 90.7L556.3 96ZM569.5 96.1L569.5 96.1Q568.6 96.1 567.9 95.7Q567.2 95.4 566.9 94.6Q566.5 93.9 566.5 92.8L566.5 92.8L566.5 87.3L567.9 87.3L567.9 92.7Q567.9 93.7 568.4 94.3Q569.0 94.8 569.9 94.8L569.9 94.8Q570.5 94.8 571.0 94.6Q571.5 94.3 571.8 93.8Q572.1 93.2 572.1 92.5L572.1 92.5L572.1 87.3L573.5 87.3L573.5 96L572.1 96L572.1 94.4Q571.8 95.2 571.2 95.6L571.2 95.6Q570.4 96.1 569.5 96.1ZM580.0 96.2L580.0 96.2Q579.2 96.2 578.7 95.9Q578.2 95.6 577.9 95.3Q577.6 94.9 577.5 94.6L577.5 94.6L577.3 94.6L577.3 96L576.0 96L576.0 84.4L577.4 84.4L577.4 88.7L577.5 88.7Q577.6 88.4 577.9 88.1Q578.1 87.7 578.6 87.4Q579.1 87.2 580 87.2L580 87.2Q581.1 87.2 581.9 87.7Q582.8 88.3 583.2 89.3Q583.7 90.3 583.7 91.7L583.7 91.7Q583.7 93.0 583.2 94.1Q582.8 95.1 581.9 95.6Q581.1 96.2 580.0 96.2ZM579.8 94.9L579.8 94.9Q580.6 94.9 581.2 94.5Q581.7 94.0 582.0 93.3Q582.3 92.6 582.3 91.6L582.3 91.6Q582.3 90.7 582 90.0Q581.7 89.3 581.2 88.8Q580.6 88.4 579.8 88.4L579.8 88.4Q579.0 88.4 578.4 88.8Q577.9 89.2 577.6 89.9Q577.3 90.7 577.3 91.6L577.3 91.6Q577.3 92.6 577.6 93.4Q577.9 94.1 578.5 94.5Q579.0 94.9 579.8 94.9Z "/></g><mask id="satori_om-id-1"><rect x="239" y="119" width="323" height="25" fill="#fff"/></mask><mask id="satori_om-id-1-0"><rect x="239" y="119" width="84" height="25" fill="#fff"/></mask><path x="239" y="119" width="84" height="25" fill="#667eea" d="M251,119 h60 a12,12 0 0 1 12,12 v1 a12,12 0 0 1 -12,12 h-60 a12,12 0 0 1 -12,-12 v-1 a12,12 0 0 1 12,-12"/><g  ><path fill="white" d="M253.2 135L252.1 135L252.1 126.3L255.0 126.3Q256.1 126.3 256.7 126.6Q257.4 127.0 257.7 127.6Q258.0 128.2 258.0 129.0Q258.0 129.7 257.7 130.3Q257.4 130.9 256.7 131.3L256.7 131.3Q256.6 131.4 256.4 131.4L256.4 131.4L258.4 135L257.1 135L255.3 131.6Q255.2 131.6 255.0 131.6L255.0 131.6L253.2 131.6L253.2 135ZM253.2 127.2L253.2 130.6L255.0 130.6Q255.7 130.6 256.1 130.4Q256.5 130.2 256.7 129.8Q256.9 129.5 256.9 129.0L256.9 129.0Q256.9 128.4 256.7 128.1Q256.5 127.7 256.1 127.5Q255.7 127.2 255.0 127.2L255.0 127.2L253.2 127.2ZM262.4 135.1L262.4 135.1Q261.5 135.1 260.8 134.7Q260.1 134.3 259.7 133.5Q259.3 132.8 259.3 131.8Q259.3 130.8 259.7 130.0Q260.1 129.2 260.7 128.8Q261.4 128.4 262.3 128.4L262.3 128.4Q262.8 128.4 263.3 128.5Q263.8 128.7 264.2 129.1Q264.6 129.5 264.9 130.1Q265.1 130.7 265.1 131.6L265.1 131.6L265.1 132.1L260.4 132.1Q260.4 132.7 260.7 133.2L260.7 133.2Q260.9 133.7 261.4 133.9Q261.8 134.2 262.4 134.2L262.4 134.2Q262.8 134.2 263.1 134.1Q263.4 134.0 263.7 133.8Q263.9 133.5 264.0 133.2L264.0 133.2L265.0 133.5Q264.9 134.0 264.5 134.3Q264.1 134.7 263.6 134.9Q263.1 135.1 262.4 135.1ZM260.4 131.2L260.4 131.2L264.1 131.2Q264.0 130.7 263.9 130.4L263.9 130.4Q263.7 129.9 263.3 129.6Q262.9 129.3 262.3 129.3Q261.7 129.3 261.3 129.6Q260.8 129.9 260.6 130.3L260.6 130.3Q260.4 130.7 260.4 131.2ZM268.5 135.2L268.5 135.2Q267.9 135.2 267.4 134.9Q266.8 134.7 266.5 134.2Q266.2 133.8 266.2 133.1L266.2 133.1Q266.2 132.6 266.5 132.2Q266.7 131.9 267.1 131.7Q267.4 131.5 267.9 131.4Q268.3 131.3 268.8 131.2L268.8 131.2Q269.4 131.1 269.8 131.1Q270.1 131.1 270.3 131.0Q270.5 130.9 270.5 130.6L270.5 130.6L270.5 130.6Q270.5 130.2 270.3 129.9Q270.2 129.6 269.9 129.4Q269.6 129.3 269.1 129.3L269.1 129.3Q268.6 129.3 268.3 129.4Q268.0 129.6 267.8 129.8Q267.6 130.0 267.4 130.3L267.4 130.3L266.4 129.9Q266.7 129.3 267.1 129.0Q267.5 128.6 268.1 128.5Q268.6 128.4 269.1 128.4L269.1 128.4Q269.4 128.4 269.8 128.4Q270.2 128.5 270.6 128.8Q271.0 129.0 271.3 129.5Q271.5 129.9 271.5 130.7L271.5 130.7L271.5 135L270.5 135L270.5 134.1L270.4 134.1Q270.3 134.3 270.1 134.6Q269.8 134.8 269.4 135.0Q269.0 135.2 268.5 135.2ZM268.7 134.2L268.7 134.2Q269.2 134.2 269.7 134.0Q270.1 133.8 270.3 133.4Q270.5 133.0 270.5 132.6L270.5 132.6L270.5 131.7Q270.4 131.8 270.2 131.9Q270.0 131.9 269.7 132.0Q269.4 132.0 269.2 132.0Q268.9 132.1 268.7 132.1L268.7 132.1Q268.4 132.1 268.0 132.3Q267.7 132.4 267.5 132.6Q267.3 132.8 267.3 133.2L267.3 133.2Q267.3 133.5 267.5 133.8Q267.7 134.0 268.0 134.1Q268.3 134.2 268.7 134.2ZM276.0 135.1L276.0 135.1Q275.2 135.1 274.5 134.7Q273.8 134.3 273.4 133.5Q273.1 132.8 273.1 131.8L273.1 131.8Q273.1 130.7 273.4 130.0Q273.8 129.2 274.5 128.8Q275.2 128.4 276.0 128.4L276.0 128.4Q276.5 128.4 276.9 128.5Q277.4 128.6 277.7 128.8Q278.1 129.1 278.3 129.4Q278.6 129.8 278.7 130.2L278.7 130.2L277.7 130.5Q277.6 130.2 277.5 130.0Q277.3 129.8 277.1 129.6Q276.9 129.5 276.6 129.4Q276.4 129.3 276.0 129.3L276.0 129.3Q275.4 129.3 275.0 129.7Q274.5 130.0 274.3 130.6Q274.1 131.1 274.1 131.8L274.1 131.8Q274.1 132.4 274.3 133.0Q274.5 133.5 275.0 133.9Q275.4 134.2 276.0 134.2L276.0 134.2Q276.4 134.2 276.7 134.1Q276.9 134.0 277.1 133.9Q277.4 133.7 277.5 133.5Q277.6 133.3 277.7 133.0L277.7 133.0L278.7 133.3Q278.6 133.7 278.3 134.1Q278.1 134.4 277.7 134.6Q277.4 134.9 277.0 135.0Q276.5 135.1 276.0 135.1ZM281.5 128.4L282.8 128.4L282.8 129.4L281.5 129.4L281.5 133.3Q281.5 133.7 281.6 133.9Q281.8 134.1 282.2 134.1L282.2 134.1Q282.3 134.1 282.5 134.1Q282.7 134.1 282.8 134.1L282.8 134.1L283.0 135.0Q282.8 135.0 282.6 135.1Q282.4 135.1 282.2 135.1L282.2 135.1Q281.4 135.1 280.9 134.6Q280.4 134.2 280.4 133.4L280.4 133.4L280.4 129.4L279.4 129.4L279.4 128.4L280.4 128.4L280.4 126.9L281.5 126.9L281.5 128.4ZM286.3 125.9L287.3 125.9L284.5 136.3L283.5 136.3L286.3 125.9ZM290.8 135.1L290.8 135.1Q289.6 135.1 288.9 134.4Q288.1 133.8 288.1 132.5L288.1 132.5L288.1 132.0L289.3 132.0L289.3 132.5Q289.3 133.3 289.7 133.7Q290.1 134.1 290.8 134.1L290.8 134.1Q291.4 134.1 291.8 133.7Q292.2 133.3 292.2 132.5L292.2 132.5L292.2 126.3L293.4 126.3L293.4 132.5Q293.4 133.8 292.6 134.4Q291.9 135.1 290.8 135.1ZM298.3 135.2L298.3 135.2Q297.3 135.2 296.6 134.8Q295.9 134.5 295.5 134.0Q295.1 133.4 295.1 132.7L295.1 132.7L296.2 132.7Q296.3 133.2 296.6 133.5Q296.9 133.8 297.3 134.0Q297.8 134.2 298.3 134.2L298.3 134.2Q298.9 134.2 299.3 134.0Q299.8 133.8 300.1 133.4Q300.3 133.1 300.3 132.6L300.3 132.6Q300.3 132.2 300.1 131.9Q299.9 131.7 299.5 131.5Q299.1 131.3 298.6 131.2L298.6 131.2L297.6 130.9Q296.5 130.6 295.9 130.0Q295.3 129.5 295.3 128.6L295.3 128.6Q295.3 127.9 295.7 127.3Q296.1 126.8 296.8 126.5Q297.5 126.2 298.3 126.2L298.3 126.2Q299.2 126.2 299.9 126.5Q300.5 126.8 300.9 127.3Q301.3 127.8 301.3 128.5L301.3 128.5L300.2 128.5Q300.1 127.8 299.6 127.5Q299.1 127.1 298.3 127.1L298.3 127.1Q297.7 127.1 297.3 127.3Q296.9 127.5 296.7 127.8Q296.4 128.1 296.4 128.6L296.4 128.6Q296.4 129.0 296.7 129.3Q297.0 129.6 297.4 129.7Q297.8 129.9 298.1 130.0L298.1 130.0L299.0 130.2Q299.3 130.3 299.7 130.5Q300.2 130.6 300.5 130.9Q300.9 131.2 301.2 131.6Q301.4 132.0 301.4 132.6L301.4 132.6Q301.4 133.3 301.1 133.9Q300.7 134.5 300.0 134.8Q299.3 135.2 298.3 135.2ZM303.7 135L302.4 135L305.6 130.5L302.6 126.3L303.9 126.3L305.2 128.1Q305.5 128.5 305.6 128.8Q305.8 129.1 306.0 129.4L306.0 129.4Q306.1 129.6 306.2 129.8L306.2 129.8Q306.3 129.6 306.5 129.4L306.5 129.4Q306.6 129.1 306.8 128.8Q307.0 128.5 307.3 128.1L307.3 128.1L308.5 126.3L309.8 126.3L306.9 130.5L310.0 135L308.7 135L307.2 132.8Q306.9 132.4 306.7 132.2Q306.6 131.9 306.4 131.6L306.4 131.6Q306.3 131.5 306.2 131.3L306.2 131.3Q306.1 131.5 306.0 131.6L306.0 131.6Q305.9 131.9 305.7 132.1Q305.5 132.4 305.3 132.8L305.3 132.8L303.7 135Z "/></g><mask id="satori_om-id-1-1"><rect x="331" y="119" width="111" height="25" fill="#fff"/></mask><path x="331" y="119" width="111" height="25" fill="#764ba2" d="M343,119 h87 a12,12 0 0 1 12,12 v1 a12,12 0 0 1 -12,12 h-87 a12,12 0 0 1 -12,-12 v-1 a12,12 0 0 1 12,-12"/><g  ><path fill="white" d="M346.8 135.2L346.8 135.2Q345.9 135.2 345.2 134.8Q344.5 134.5 344.1 134.0Q343.7 133.4 343.7 132.7L343.7 132.7L344.8 132.7Q344.9 133.2 345.2 133.5Q345.4 133.8 345.9 134.0Q346.3 134.2 346.8 134.2L346.8 134.2Q347.4 134.2 347.9 134.0Q348.4 133.8 348.7 133.4Q348.9 133.1 348.9 132.6L348.9 132.6Q348.9 132.2 348.7 131.9Q348.5 131.7 348.1 131.5Q347.7 131.3 347.2 131.2L347.2 131.2L346.2 130.9Q345.1 130.6 344.5 130.0Q343.9 129.5 343.9 128.6L343.9 128.6Q343.9 127.9 344.3 127.3Q344.7 126.8 345.4 126.5Q346.1 126.2 346.9 126.2L346.9 126.2Q347.8 126.2 348.4 126.5Q349.1 126.8 349.5 127.3Q349.9 127.8 349.9 128.5L349.9 128.5L348.8 128.5Q348.7 127.8 348.2 127.5Q347.7 127.1 346.9 127.1L346.9 127.1Q346.3 127.1 345.9 127.3Q345.5 127.5 345.2 127.8Q345.0 128.1 345.0 128.6L345.0 128.6Q345.0 129.0 345.3 129.3Q345.6 129.6 346.0 129.7Q346.4 129.9 346.7 130.0L346.7 130.0L347.5 130.2Q347.9 130.3 348.3 130.5Q348.7 130.6 349.1 130.9Q349.5 131.2 349.8 131.6Q350.0 132.0 350.0 132.6L350.0 132.6Q350.0 133.3 349.6 133.9Q349.3 134.5 348.6 134.8Q347.9 135.2 346.8 135.2ZM355.5 135L354.2 135L351.0 126.3L352.2 126.3L354.0 131.4Q354.2 131.9 354.4 132.6L354.4 132.6Q354.6 133.2 354.9 134.1L354.9 134.1Q355.1 133.2 355.3 132.6L355.3 132.6Q355.5 131.9 355.7 131.4L355.7 131.4L357.5 126.3L358.7 126.3L355.5 135ZM363.6 135.1L363.6 135.1Q362.4 135.1 361.6 134.6Q360.7 134.0 360.2 133.0Q359.7 132.0 359.7 130.6L359.7 130.6Q359.7 129.3 360.2 128.2Q360.7 127.2 361.5 126.7Q362.4 126.2 363.5 126.2L363.5 126.2Q364.2 126.2 364.8 126.4Q365.4 126.6 365.9 126.9Q366.4 127.3 366.7 127.8Q367 128.4 367.1 129.0L367.1 129.0L366.0 129.0Q365.8 128.6 365.6 128.3Q365.4 127.9 365.1 127.7Q364.8 127.4 364.4 127.3Q364 127.2 363.5 127.2L363.5 127.2Q362.8 127.2 362.1 127.6Q361.5 128.0 361.1 128.7Q360.8 129.5 360.8 130.6L360.8 130.6Q360.8 131.8 361.1 132.5Q361.5 133.3 362.2 133.7Q362.8 134.1 363.6 134.1L363.6 134.1Q364.3 134.1 364.9 133.8Q365.5 133.5 365.8 132.9L365.8 132.9Q366.1 132.3 366.1 131.6L366.1 131.6L363.8 131.6L363.8 130.6L367.2 130.6L367.2 131.6Q367.2 132.7 366.7 133.4Q366.3 134.2 365.5 134.7Q364.6 135.1 363.6 135.1Z M373.5 135L372.4 135L372.4 126.3L375.3 126.3Q376.4 126.3 377.0 126.6Q377.7 127.0 378.0 127.6Q378.3 128.2 378.3 129.0Q378.3 129.7 378.0 130.3Q377.7 130.9 377.0 131.3L377.0 131.3Q376.9 131.4 376.7 131.4L376.7 131.4L378.7 135L377.4 135L375.6 131.6Q375.5 131.6 375.4 131.6L375.4 131.6L373.5 131.6L373.5 135ZM373.5 127.2L373.5 130.6L375.3 130.6Q376.0 130.6 376.4 130.4Q376.8 130.2 377.0 129.8Q377.2 129.5 377.2 129.0L377.2 129.0Q377.2 128.4 377.0 128.1Q376.8 127.7 376.4 127.5Q376.0 127.2 375.3 127.2L375.3 127.2L373.5 127.2ZM382.7 135.1L382.7 135.1Q381.8 135.1 381.1 134.7Q380.4 134.3 380.0 133.5Q379.6 132.8 379.6 131.8Q379.6 130.8 380.0 130.0Q380.4 129.2 381.0 128.8Q381.7 128.4 382.6 128.4L382.6 128.4Q383.1 128.4 383.6 128.5Q384.1 128.7 384.5 129.1Q384.9 129.5 385.2 130.1Q385.4 130.7 385.4 131.6L385.4 131.6L385.4 132.1L380.7 132.1Q380.7 132.7 381.0 133.2L381.0 133.2Q381.2 133.7 381.7 133.9Q382.1 134.2 382.7 134.2L382.7 134.2Q383.1 134.2 383.4 134.1Q383.7 134.0 384.0 133.8Q384.2 133.5 384.3 133.2L384.3 133.2L385.3 133.5Q385.2 134.0 384.8 134.3Q384.5 134.7 383.9 134.9Q383.4 135.1 382.7 135.1ZM380.7 131.2L380.7 131.2L384.4 131.2Q384.3 130.7 384.2 130.4L384.2 130.4Q384.0 129.9 383.6 129.6Q383.2 129.3 382.6 129.3Q382.0 129.3 381.6 129.6Q381.2 129.9 380.9 130.3L380.9 130.3Q380.7 130.7 380.7 131.2ZM388.0 131.1L388.0 131.1L388.0 135L387.0 135L387.0 128.4L388.0 128.4L388.0 129.7Q388.2 129.0 388.7 128.7L388.7 128.7Q389.2 128.4 390.0 128.4L390.0 128.4Q390.6 128.4 391.1 128.6Q391.6 128.9 391.9 129.5Q392.2 130.0 392.2 130.8L392.2 130.8L392.2 135L391.1 135L391.1 130.9Q391.1 130.2 390.7 129.7Q390.3 129.3 389.7 129.3L389.7 129.3Q389.2 129.3 388.8 129.5Q388.4 129.7 388.2 130.1Q388.0 130.5 388.0 131.1ZM396.5 135.1L396.5 135.1Q395.7 135.1 395.1 134.7Q394.4 134.3 394.1 133.5Q393.7 132.8 393.7 131.7L393.7 131.7Q393.7 130.7 394.1 129.9Q394.4 129.2 395.1 128.8Q395.7 128.4 396.5 128.4L396.5 128.4Q397.1 128.4 397.5 128.6Q397.9 128.8 398.1 129.1Q398.3 129.3 398.4 129.5L398.4 129.5L398.5 129.5L398.5 126.3L399.5 126.3L399.5 135L398.5 135L398.5 134.0L398.4 134.0Q398.3 134.2 398.1 134.4Q397.9 134.7 397.5 134.9Q397.1 135.1 396.5 135.1ZM396.7 134.2L396.7 134.2Q397.3 134.2 397.7 133.9Q398.1 133.6 398.3 133.0Q398.5 132.5 398.5 131.7L398.5 131.7Q398.5 131.0 398.3 130.5Q398.1 129.9 397.7 129.6Q397.3 129.3 396.7 129.3L396.7 129.3Q396.0 129.3 395.6 129.6Q395.2 130.0 395.0 130.5Q394.8 131.1 394.8 131.7L394.8 131.7Q394.8 132.4 395.0 133.0Q395.2 133.5 395.6 133.9Q396.0 134.2 396.7 134.2ZM404.1 135.1L404.1 135.1Q403.2 135.1 402.5 134.7Q401.8 134.3 401.4 133.5Q401.1 132.8 401.1 131.8Q401.1 130.8 401.4 130.0Q401.8 129.2 402.5 128.8Q403.1 128.4 404.0 128.4L404.0 128.4Q404.5 128.4 405.0 128.5Q405.6 128.7 406.0 129.1Q406.4 129.5 406.6 130.1Q406.9 130.7 406.9 131.6L406.9 131.6L406.9 132.1L402.1 132.1Q402.2 132.7 402.4 133.2L402.4 133.2Q402.6 133.7 403.1 133.9Q403.6 134.2 404.1 134.2L404.1 134.2Q404.5 134.2 404.9 134.1Q405.2 134.0 405.4 133.8Q405.6 133.5 405.7 133.2L405.7 133.2L406.8 133.5Q406.6 134.0 406.3 134.3Q405.9 134.7 405.4 134.9Q404.8 135.1 404.1 135.1ZM402.1 131.2L402.1 131.2L405.8 131.2Q405.8 130.7 405.6 130.4L405.6 130.4Q405.4 129.9 405.0 129.6Q404.6 129.3 404.0 129.3Q403.4 129.3 403.0 129.6Q402.6 129.9 402.4 130.3L402.4 130.3Q402.2 130.7 402.1 131.2ZM409.4 135L408.4 135L408.4 128.4L409.4 128.4L409.4 129.5L409.5 129.5Q409.7 129.0 410.1 128.7Q410.6 128.4 411.2 128.4L411.2 128.4Q411.3 128.4 411.5 128.4Q411.6 128.4 411.7 128.4L411.7 128.4L411.7 129.4Q411.7 129.4 411.5 129.4Q411.3 129.4 411.1 129.4L411.1 129.4Q410.6 129.4 410.2 129.6Q409.9 129.8 409.7 130.1Q409.4 130.5 409.4 130.9L409.4 130.9L409.4 135ZM414.0 135L412.9 135L412.9 128.4L414.0 128.4L414.0 135ZM413.4 127.4L413.4 127.4Q413.1 127.4 412.9 127.2Q412.7 127.0 412.7 126.7L412.7 126.7Q412.7 126.4 412.9 126.2Q413.1 126.0 413.4 126.0L413.4 126.0Q413.7 126.0 414.0 126.2Q414.2 126.4 414.2 126.7L414.2 126.7Q414.2 127.0 414.0 127.2Q413.7 127.4 413.4 127.4ZM416.9 131.1L416.9 131.1L416.9 135L415.8 135L415.8 128.4L416.8 128.4L416.8 129.7Q417.1 129.0 417.5 128.7L417.5 128.7Q418.1 128.4 418.8 128.4L418.8 128.4Q419.5 128.4 420.0 128.6Q420.5 128.9 420.8 129.5Q421.0 130.0 421.0 130.8L421.0 130.8L421.0 135L420.0 135L420.0 130.9Q420.0 130.2 419.6 129.7Q419.2 129.3 418.5 129.3L418.5 129.3Q418.0 129.3 417.7 129.5Q417.3 129.7 417.1 130.1Q416.9 130.5 416.9 131.1ZM425.6 137.6L425.6 137.6Q424.8 137.6 424.3 137.4Q423.8 137.2 423.4 136.9Q423.1 136.6 422.9 136.3L422.9 136.3L423.7 135.7Q423.9 135.9 424.1 136.1Q424.3 136.3 424.6 136.5Q425.0 136.7 425.6 136.7L425.6 136.7Q426.3 136.7 426.8 136.3Q427.4 135.9 427.4 135.1L427.4 135.1L427.4 133.8L427.3 133.8Q427.1 134.0 426.9 134.2Q426.7 134.5 426.4 134.7Q426.0 134.9 425.3 134.9L425.3 134.9Q424.6 134.9 423.9 134.5Q423.3 134.2 422.9 133.4Q422.6 132.7 422.6 131.7L422.6 131.7Q422.6 130.7 422.9 129.9Q423.3 129.2 423.9 128.8Q424.6 128.4 425.4 128.4L425.4 128.4Q426.0 128.4 426.4 128.6Q426.8 128.8 427.0 129.1Q427.2 129.3 427.3 129.5L427.3 129.5L427.4 129.5L427.4 128.4L428.4 128.4L428.4 135.2Q428.4 136.0 428.0 136.5Q427.6 137.1 427.0 137.3Q426.3 137.6 425.6 137.6ZM425.5 134.0L425.5 134.0Q426.1 134.0 426.5 133.7Q426.9 133.4 427.2 132.9Q427.4 132.4 427.4 131.7L427.4 131.7Q427.4 131.0 427.2 130.4Q426.9 129.9 426.5 129.6Q426.1 129.3 425.5 129.3L425.5 129.3Q424.9 129.3 424.5 129.6Q424.1 129.9 423.9 130.5Q423.7 131.0 423.7 131.7L423.7 131.7Q423.7 132.3 423.9 132.9Q424.1 133.4 424.5 133.7Q424.9 134.0 425.5 134.0Z "/></g><defs><clipPath id="satori_bc-id-1-2"><path x="450" y="119" width="112" height="25" d="M462,119 h88 a12,12 0 0 1 12,12 v1 a12,12 0 0 1 -12,12 h-88 a12,12 0 0 1 -12,-12 v-1 a12,12 0 0 1 12,-12"/></clipPath></defs><mask id="satori_om-id-1-2"><rect x="451" y="120" width="110" height="23" fill="#fff"/><path width="112" height="25" fill="none" stroke="#000" stroke-width="2" d="M453.515,122.515 A12,12 0 0 1 462,119 h88 a12,12 0 0 1 12,12 v1 a12,12 0 0 1 -12,12 h-88 a12,12 0 0 1 -12,-12 v-1 A12,12 0 0 1 453.515,122.515"/></mask><path x="450" y="119" width="112" height="25" fill="#302b63" d="M462,119 h88 a12,12 0 0 1 12,12 v1 a12,12 0 0 1 -12,12 h-88 a12,12 0 0 1 -12,-12 v-1 a12,12 0 0 1 12,-12"/><path width="112" height="25" clip-path="url(#satori_bc-id-1-2)" fill="none" stroke="#667eea" stroke-width="2" d="M453.515,122.515 A12,12 0 0 1 462,119 h88 a12,12 0 0 1 12,12 v1 a12,12 0 0 1 -12,12 h-88 a12,12 0 0 1 -12,-12 v-1 A12,12 0 0 1 453.515,122.515"/><g  ><path fill="#a0a0ff" d="M467.6 136.1L467.6 136.1Q466.5 136.1 465.6 135.6Q464.7 135.0 464.2 134.0Q463.7 133.0 463.7 131.6L463.7 131.6Q463.7 130.3 464.2 129.2Q464.7 128.2 465.6 127.7Q466.4 127.2 467.6 127.2L467.6 127.2Q468.2 127.2 468.8 127.4Q469.4 127.6 469.9 127.9Q470.4 128.3 470.7 128.8Q471.0 129.4 471.1 130.0L471.1 130.0L470.0 130.0Q469.9 129.6 469.6 129.3Q469.4 128.9 469.1 128.7Q468.8 128.4 468.4 128.3Q468.0 128.2 467.6 128.2L467.6 128.2Q466.8 128.2 466.2 128.6Q465.5 129.0 465.2 129.7Q464.8 130.5 464.8 131.6L464.8 131.6Q464.8 132.8 465.2 133.5Q465.5 134.3 466.2 134.7Q466.8 135.1 467.6 135.1L467.6 135.1Q468.4 135.1 468.9 134.8Q469.5 134.5 469.8 133.9L469.8 133.9Q470.1 133.3 470.1 132.6L470.1 132.6L467.9 132.6L467.9 131.6L471.2 131.6L471.2 132.6Q471.2 133.7 470.7 134.4Q470.3 135.2 469.5 135.7Q468.7 136.1 467.6 136.1ZM473.9 136L472.9 136L472.9 129.4L473.9 129.4L473.9 136ZM473.4 128.4L473.4 128.4Q473.1 128.4 472.9 128.2Q472.7 128.0 472.7 127.7L472.7 127.7Q472.7 127.4 472.9 127.2Q473.1 127.0 473.4 127.0L473.4 127.0Q473.7 127.0 473.9 127.2Q474.2 127.4 474.2 127.7L474.2 127.7Q474.2 128.0 473.9 128.2Q473.7 128.4 473.4 128.4ZM477.0 129.4L478.4 129.4L478.4 130.4L477.0 130.4L477.0 134.3Q477.0 134.7 477.2 134.9Q477.4 135.1 477.8 135.1L477.8 135.1Q477.9 135.1 478.0 135.1Q478.2 135.1 478.3 135.1L478.3 135.1L478.5 136.0Q478.4 136.0 478.2 136.1Q478.0 136.1 477.8 136.1L477.8 136.1Q476.9 136.1 476.4 135.6Q476.0 135.2 476.0 134.4L476.0 134.4L476.0 130.4L475.0 130.4L475.0 129.4L476.0 129.4L476.0 127.9L477.0 127.9L477.0 129.4ZM481.0 136L479.8 136L479.8 127.3L481.0 127.3L481.0 131.0L485.5 131.0L485.5 127.3L486.6 127.3L486.6 136L485.5 136L485.5 132.0L481.0 132.0L481.0 136ZM490.8 136.1L490.8 136.1Q490.2 136.1 489.7 135.8Q489.2 135.5 488.9 135.0Q488.6 134.4 488.6 133.6L488.6 133.6L488.6 129.4L489.7 129.4L489.7 133.5Q489.7 134.3 490.1 134.7Q490.5 135.1 491.2 135.1L491.2 135.1Q491.6 135.1 492.0 134.9Q492.4 134.7 492.6 134.3Q492.8 133.9 492.8 133.4L492.8 133.4L492.8 129.4L493.9 129.4L493.9 136L492.9 136L492.9 134.8Q492.6 135.4 492.1 135.7L492.1 135.7Q491.6 136.1 490.8 136.1ZM498.8 136.1L498.8 136.1Q498.1 136.1 497.8 135.9Q497.4 135.7 497.2 135.4Q497.0 135.2 496.9 135.0L496.9 135.0L496.7 135.0L496.7 136L495.7 136L495.7 127.3L496.8 127.3L496.8 130.5L496.9 130.5Q497.0 130.3 497.2 130.1Q497.4 129.8 497.7 129.6Q498.1 129.4 498.8 129.4L498.8 129.4Q499.6 129.4 500.2 129.8Q500.8 130.2 501.2 130.9Q501.5 131.7 501.5 132.7L501.5 132.7Q501.5 133.8 501.2 134.5Q500.8 135.3 500.2 135.7Q499.6 136.1 498.8 136.1ZM498.6 135.2L498.6 135.2Q499.2 135.2 499.6 134.9Q500.0 134.5 500.3 134.0Q500.5 133.4 500.5 132.7L500.5 132.7Q500.5 132.1 500.3 131.5Q500.1 131.0 499.6 130.6Q499.2 130.3 498.6 130.3L498.6 130.3Q498.0 130.3 497.6 130.6Q497.2 130.9 497.0 131.5Q496.8 132.0 496.8 132.7L496.8 132.7Q496.8 133.5 497.0 134.0Q497.2 134.6 497.6 134.9Q498.0 135.2 498.6 135.2Z M507.0 136L505.8 136L509.0 127.3L510.3 127.3L513.5 136L512.3 136L511.5 133.6L507.9 133.6L507.0 136ZM508.2 132.6L511.1 132.6L510.5 130.8Q510.3 130.3 510.1 129.6L510.1 129.6Q509.9 129.0 509.6 128.2L509.6 128.2Q509.4 129.0 509.2 129.6L509.2 129.6Q509.0 130.4 508.8 130.8L508.8 130.8L508.2 132.6ZM517.4 136.1L517.4 136.1Q516.5 136.1 515.8 135.7Q515.2 135.3 514.8 134.5Q514.4 133.8 514.4 132.8L514.4 132.8Q514.4 131.7 514.8 131.0Q515.2 130.2 515.8 129.8Q516.5 129.4 517.4 129.4L517.4 129.4Q517.9 129.4 518.3 129.5Q518.7 129.6 519.1 129.8Q519.4 130.1 519.7 130.4Q519.9 130.8 520.0 131.2L520.0 131.2L519.0 131.5Q519.0 131.2 518.8 131.0Q518.7 130.8 518.5 130.6Q518.3 130.5 518.0 130.4Q517.7 130.3 517.4 130.3L517.4 130.3Q516.7 130.3 516.3 130.7Q515.9 131.0 515.7 131.6Q515.5 132.1 515.5 132.8L515.5 132.8Q515.5 133.4 515.7 134.0Q515.9 134.5 516.3 134.9Q516.7 135.2 517.4 135.2L517.4 135.2Q517.7 135.2 518.0 135.1Q518.3 135.0 518.5 134.9Q518.7 134.7 518.8 134.5Q519.0 134.3 519.1 134.0L519.1 134.0L520.1 134.3Q519.9 134.7 519.7 135.1Q519.4 135.4 519.1 135.6Q518.7 135.9 518.3 136.0Q517.9 136.1 517.4 136.1ZM522.8 129.4L524.2 129.4L524.2 130.4L522.8 130.4L522.8 134.3Q522.8 134.7 523.0 134.9Q523.2 135.1 523.6 135.1L523.6 135.1Q523.7 135.1 523.8 135.1Q524.0 135.1 524.1 135.1L524.1 135.1L524.3 136.0Q524.2 136.0 524.0 136.1Q523.8 136.1 523.6 136.1L523.6 136.1Q522.7 136.1 522.2 135.6Q521.8 135.2 521.8 134.4L521.8 134.4L521.8 130.4L520.8 130.4L520.8 129.4L521.8 129.4L521.8 127.9L522.8 127.9L522.8 129.4ZM526.6 136L525.5 136L525.5 129.4L526.6 129.4L526.6 136ZM526.0 128.4L526.0 128.4Q525.7 128.4 525.5 128.2Q525.3 128.0 525.3 127.7L525.3 127.7Q525.3 127.4 525.5 127.2Q525.7 127.0 526.0 127.0L526.0 127.0Q526.3 127.0 526.6 127.2Q526.8 127.4 526.8 127.7L526.8 127.7Q526.8 128.0 526.6 128.2Q526.3 128.4 526.0 128.4ZM531.1 136.1L531.1 136.1Q530.2 136.1 529.5 135.7Q528.8 135.3 528.5 134.5Q528.1 133.8 528.1 132.8L528.1 132.8Q528.1 131.7 528.5 131.0Q528.8 130.2 529.5 129.8Q530.2 129.4 531.1 129.4L531.1 129.4Q532.0 129.4 532.7 129.8Q533.3 130.2 533.7 131.0Q534.1 131.7 534.1 132.8L534.1 132.8Q534.1 133.8 533.7 134.5Q533.3 135.3 532.7 135.7Q532.0 136.1 531.1 136.1ZM531.1 135.2L531.1 135.2Q531.7 135.2 532.2 134.9Q532.6 134.5 532.8 134.0Q533.0 133.4 533.0 132.8L533.0 132.8Q533.0 132.1 532.8 131.6Q532.6 131.0 532.2 130.7Q531.7 130.3 531.1 130.3L531.1 130.3Q530.4 130.3 530.0 130.7Q529.6 131.0 529.4 131.6Q529.2 132.1 529.2 132.8L529.2 132.8Q529.2 133.4 529.4 134.0Q529.6 134.5 530.0 134.9Q530.4 135.2 531.1 135.2ZM536.7 132.1L536.7 132.1L536.7 136L535.6 136L535.6 129.4L536.6 129.4L536.6 130.7Q536.9 130.0 537.3 129.7L537.3 129.7Q537.9 129.4 538.6 129.4L538.6 129.4Q539.3 129.4 539.8 129.6Q540.3 129.9 540.6 130.5Q540.8 131.0 540.8 131.8L540.8 131.8L540.8 136L539.8 136L539.8 131.9Q539.8 131.2 539.4 130.7Q539.0 130.3 538.3 130.3L538.3 130.3Q537.8 130.3 537.5 130.5Q537.1 130.7 536.9 131.1Q536.7 131.5 536.7 132.1ZM544.9 136.1L544.9 136.1Q544.3 136.1 543.7 135.9Q543.2 135.7 542.9 135.4Q542.5 135.0 542.4 134.4L542.4 134.4L543.4 134.2Q543.5 134.7 543.9 135.0Q544.3 135.2 544.9 135.2L544.9 135.2Q545.6 135.2 546.0 134.9Q546.4 134.6 546.4 134.2L546.4 134.2Q546.4 133.9 546.2 133.7Q545.9 133.4 545.5 133.3L545.5 133.3L544.4 133.1Q543.5 132.9 543.0 132.4Q542.6 132.0 542.6 131.3L542.6 131.3Q542.6 130.7 542.9 130.3Q543.2 129.9 543.8 129.6Q544.3 129.4 545.0 129.4L545.0 129.4Q545.7 129.4 546.2 129.6Q546.6 129.8 546.9 130.1Q547.2 130.5 547.4 130.9L547.4 130.9L546.4 131.2Q546.3 130.8 546.0 130.6Q545.7 130.3 545.0 130.3L545.0 130.3Q544.5 130.3 544.1 130.5Q543.7 130.8 543.7 131.2L543.7 131.2Q543.7 131.6 543.9 131.8Q544.2 132.0 544.8 132.2L544.8 132.2L545.8 132.4Q546.7 132.6 547.1 133.0Q547.5 133.5 547.5 134.2L547.5 134.2Q547.5 134.7 547.2 135.2Q546.9 135.6 546.3 135.9Q545.7 136.1 544.9 136.1Z "/></g></svg>