<!-- Generated by readme-aura https://github.com/collectioneur/readme-aura -->
<svg width="260" height="60" viewBox="0 0 260 60" xmlns="http://www.w3.org/2000/svg"><defs><pattern id="satori_pattern_id_0" x="0" y="0" width="1" height="1" patternUnits="objectBoundingBox"><linearGradient id="satori_biid_0" x1="-0.08426966292134823" y1="0.36516853932584303" x2="1.0842696629213484" y2="0.634831460674157" spreadMethod="pad"><stop offset="0%" stop-color="#120000"/><stop offset="100%" stop-color="#200808"/></linearGradient><rect x="0" y="0" width="260" height="60" fill="url(#satori_biid_0)"/></pattern><clipPath id="satori_bc-id"><path x="0" y="0" width="260" height="60" d="M14,0 h232 a14,14 0 0 1 14,14 v32 a14,14 0 0 1 -14,14 h-232 a14,14 0 0 1 -14,-14 v-32 a14,14 0 0 1 14,-14"/></clipPath></defs><clipPath id="satori_cp-id"><path x="0" y="0" width="260" height="60" d="M14,0 h232 a14,14 0 0 1 14,14 v32 a14,14 0 0 1 -14,14 h-232 a14,14 0 0 1 -14,-14 v-32 a14,14 0 0 1 14,-14"/></clipPath><mask id="satori_om-id"><rect x="1" y="1" width="258" height="58" fill="#fff"/><path width="260" height="60" fill="none" stroke="#000" stroke-width="2" d="M4.101000000000001,4.101000000000001 A14,14 0 0 1 14,0 h232 a14,14 0 0 1 14,14 v32 a14,14 0 0 1 -14,14 h-232 a14,14 0 0 1 -14,-14 v-32 A14,14 0 0 1 4.101000000000001,4.101000000000001"/></mask><path x="0" y="0" width="260" height="60" fill="url(#satori_pattern_id_0)" d="M14,0 h232 a14,14 0 0 1 14,14 v32 a14,14 0 0 1 -14,14 h-232 a14,14 0 0 1 -14,-14 v-32 a14,14 0 0 1 14,-14"/><path width="260" height="60" clip-path="url(#satori_bc-id)" fill="none" stroke="rgba(200,40,40,0.4)" stroke-width="2" d="M4.101000000000001,4.101000000000001 A14,14 0 0 1 14,0 h232 a14,14 0 0 1 14,14 v32 a14,14 0 0 1 -14,14 h-232 a14,14 0 0 1 -14,-14 v-32 A14,14 0 0 1 4.101000000000001,4.101000000000001"/><clipPath id="satori_cp-id-0" clip-path="url(#satori_cp-id)"><rect x="1" y="1" width="260" height="60"/></clipPath><mask id="satori_om-id-0"><rect x="1" y="1" width="260" height="60" fill="#fff" mask="url(#satori_om-id)"/></mask><svg x="1" y="1" width="260" height="60" preserveAspectRatio="none" clip-path="url(#satori_cp-id-0)" mask="url(#satori_om-id-0)"><defs><filter id="rbf" x="-100%" y="-100%" width="300%" height="300%"><feGaussianBlur in="SourceGraphic" stdDeviation="10"></feGaussianBlur></filter></defs><path d="M 180 30 Q 220 30 180 60 L 246 60 A 14 14 0 0 1 278 46 L 278 34 A 14 34 0 0 1 246 0 Z" fill="rgba(200,40,40,0.6)" filter="url(#rbf)"></path><circle cx="36" cy="30" r="4" fill="none" stroke="rgba(255,60,60,0.7)" stroke-width="3"><animate attributeName="r" values="4;28" dur="2s" repeatCount="indefinite" calcMode="linear"></animate><animate attributeName="opacity" values="0.7;0" dur="2s" repeatCount="indefinite" calcMode="linear"></animate></circle><circle cx="36" cy="30" r="4" fill="none" stroke="rgba(255,60,60,0.7)" stroke-width="3"><animate attributeName="r" values="4;28" dur="2s" repeatCount="indefinite" calcMode="linear" begin="0.67s"></animate><animate attributeName="opacity" values="0.7;0" dur="2s" repeatCount="indefinite" calcMode="linear" begin="0.67s"></animate></circle><circle cx="36" cy="30" r="4" fill="none" stroke="rgba(255,60,60,0.7)" stroke-width="3"><animate attributeName="r" values="4;28" dur="2s" repeatCount="indefinite" calcMode="linear" begin="1.33s"></animate><animate attributeName="opacity" values="0.7;0" dur="2s" repeatCount="indefinite" calcMode="linear" begin="1.33s"></animate></circle><circle cx="36" cy="30" r="4" fill="rgba(255,60,60,1)"><animate attributeName="r" values="2.5;4;2.5" dur="1s" repeatCount="indefinite"></animate></circle><circle cx="36" cy="30" r="3" fill="rgba(255,100,100,1)"></circle></svg><mask id="satori_om-id-0-0"><rect x="1" y="1" width="0" height="60" fill="#fff" mask="url(#satori_om-id)"/></mask><mask id="satori_om-id-0-0-0"><rect x="1" y="1" width="0" height="60" fill="#fff" mask="url(#satori_om-id)"/></mask><mask id="satori_om-id-0-0-0-0"><rect x="1" y="1" width="0" height="60" fill="#fff" mask="url(#satori_om-id)"/></mask><mask id="satori_om-id-0-1"><rect x="1" y="1" width="0" height="60" fill="#fff" mask="url(#satori_om-id)"/></mask><mask id="satori_om-id-0-2"><rect x="1" y="1" width="0" height="60" fill="#fff" mask="url(#satori_om-id)"/></mask><mask id="satori_om-id-0-2-0"><rect x="1" y="1" width="0" height="60" fill="#fff" mask="url(#satori_om-id)"/></mask><mask id="satori_om-id-0-2-1"><rect x="1" y="1" width="0" height="60" fill="#fff" mask="url(#satori_om-id)"/></mask><mask id="satori_om-id-0-3"><rect x="1" y="1" width="0" height="60" fill="#fff" mask="url(#satori_om-id)"/></mask><mask id="satori_om-id-0-3-0"><rect x="1" y="1" width="0" height="60" fill="#fff" mask="url(#satori_om-id)"/></mask><mask id="satori_om-id-0-3-1"><rect x="1" y="1" width="0" height="60" fill="#fff" mask="url(#satori_om-id)"/></mask><mask id="satori_om-id-0-4"><rect x="1" y="1" width="0" height="60" fill="#fff" mask="url(#satori_om-id)"/></mask><mask id="satori_om-id-0-4-0"><rect x="1" y="1" width="0" height="60" fill="#fff" mask="url(#satori_om-id)"/></mask><mask id="satori_om-id-0-4-1"><rect x="1" y="1" width="0" height="60" fill="#fff" mask="url(#satori_om-id)"/></mask><mask id="satori_om-id-0-5"><rect x="1" y="1" width="0" height="60" fill="#fff" mask="url(#satori_om-id)"/></mask><mask id="satori_om-id-0-5-0"><rect x="1" y="1" width="0" height="60" fill="#fff" mask="url(#satori_om-id)"/></mask><mask id="satori_om-id-0-6"><rect x="1" y="1" width="0" height="60" fill="#fff" mask="url(#satori_om-id)"/></mask><mask id="satori_om-id-1"><rect x="1" y="30" width="60" height="0" fill="#fff" mask="url(#satori_om-id)"/></mask><mask id="satori_om-id-2"><rect x="61" y="13" width="198" height="34" fill="#fff" mask="url(#satori_om-id)"/></mask><g mask="url(#satori_om-id)" clip-path="url(#satori_cp-id)"><path fill="#fafafa" d="M66.2 27L61.9 27L61.9 16.8L66.0 16.8Q67.1 16.8 67.8 17.2Q68.6 17.5 69.0 18.1Q69.3 18.7 69.3 19.4L69.3 19.4Q69.3 20.0 69.1 20.5Q68.8 20.9 68.4 21.2Q68.0 21.5 67.5 21.6L67.5 21.6L67.5 21.7Q68.1 21.7 68.6 22.0Q69.1 22.4 69.4 22.9Q69.7 23.4 69.7 24.2L69.7 24.2Q69.7 25.0 69.3 25.6Q68.9 26.3 68.2 26.6Q67.4 27 66.2 27L66.2 27ZM64.0 22.5L64.0 25.3L65.8 25.3Q66.7 25.3 67.2 24.9Q67.6 24.6 67.6 24.0L67.6 24.0Q67.6 23.6 67.4 23.2Q67.2 22.9 66.8 22.7Q66.4 22.5 65.9 22.5L65.9 22.5L64.0 22.5ZM64.0 18.5L64.0 21.1L65.7 21.1Q66.1 21.1 66.5 20.9Q66.8 20.8 67.0 20.5Q67.2 20.2 67.2 19.8L67.2 19.8Q67.2 19.2 66.8 18.9Q66.4 18.5 65.7 18.5L65.7 18.5L64.0 18.5ZM74.1 27.1L74.1 27.1Q73.3 27.1 72.7 26.8Q72.1 26.4 71.8 25.8Q71.4 25.1 71.4 24.2L71.4 24.2L71.4 19.4L73.5 19.4L73.5 23.9Q73.5 24.6 73.9 25.0Q74.2 25.4 74.9 25.4L74.9 25.4Q75.3 25.4 75.6 25.2Q76.0 25.0 76.2 24.6Q76.4 24.3 76.4 23.8L76.4 23.8L76.4 19.4L78.4 19.4L78.4 27L76.5 27L76.4 25.4Q76.2 26.1 75.6 26.6L75.6 26.6Q75.0 27.1 74.1 27.1ZM82.5 27L80.5 27L80.5 19.4L82.5 19.4L82.5 27ZM81.5 18.4L81.5 18.4Q81.0 18.4 80.7 18.1Q80.4 17.7 80.4 17.3L80.4 17.3Q80.4 16.9 80.7 16.6Q81.0 16.3 81.5 16.3L81.5 16.3Q81.9 16.3 82.3 16.6Q82.6 16.9 82.6 17.3L82.6 17.3Q82.6 17.7 82.3 18.1Q81.9 18.4 81.5 18.4ZM84.5 16.8L86.6 16.8L86.6 27L84.5 27L84.5 16.8ZM91.0 19.4L92.4 19.4L92.4 20.9L91.0 20.9L91.0 24.8Q91.0 25.1 91.2 25.3Q91.3 25.5 91.7 25.5L91.7 25.5Q91.8 25.5 92.0 25.4Q92.2 25.4 92.4 25.4L92.4 25.4L92.6 26.9Q92.3 27.0 92.0 27.1Q91.6 27.1 91.3 27.1L91.3 27.1Q90.2 27.1 89.6 26.5Q89.0 26.0 89.0 24.9L89.0 24.9L89.0 20.9L87.9 20.9L87.9 19.4L89.0 19.4L89.0 17.5L91.0 17.5L91.0 19.4Z M100.9 27.2L100.9 27.2Q100.0 27.2 99.3 26.9Q98.6 26.6 98.1 26.1Q97.7 25.6 97.5 24.9L97.5 24.9L99.4 24.6Q99.6 25.1 100.0 25.4Q100.3 25.6 101.0 25.6L101.0 25.6Q101.6 25.6 101.9 25.4Q102.2 25.2 102.2 24.9L102.2 24.9Q102.2 24.6 102.0 24.4Q101.8 24.2 101.3 24.1L101.3 24.1L99.9 23.8Q98.8 23.6 98.3 23.0Q97.7 22.5 97.7 21.6L97.7 21.6Q97.7 20.9 98.1 20.4Q98.5 19.8 99.3 19.5Q100.0 19.3 100.9 19.3L100.9 19.3Q101.8 19.3 102.5 19.5Q103.2 19.8 103.6 20.2Q104.0 20.7 104.1 21.3L104.1 21.3L102.3 21.6Q102.2 21.2 101.9 21.0Q101.5 20.7 101.0 20.7L101.0 20.7Q100.5 20.7 100.1 20.9Q99.8 21.2 99.8 21.5L99.8 21.5Q99.8 21.8 100.0 22.0Q100.2 22.2 100.8 22.3L100.8 22.3L102.1 22.6Q103.2 22.8 103.8 23.3Q104.3 23.8 104.3 24.6L104.3 24.6Q104.3 25.4 103.9 26.0Q103.5 26.5 102.7 26.8Q101.9 27.2 100.9 27.2ZM109.4 27.2L109.4 27.2Q108.3 27.2 107.4 26.7Q106.6 26.2 106.1 25.3Q105.7 24.4 105.7 23.2L105.7 23.2Q105.7 22.0 106.1 21.1Q106.6 20.3 107.4 19.8Q108.3 19.3 109.4 19.3L109.4 19.3Q110.6 19.3 111.4 19.8Q112.3 20.3 112.7 21.1Q113.2 22.0 113.2 23.2L113.2 23.2Q113.2 24.4 112.7 25.3Q112.3 26.2 111.4 26.7Q110.6 27.2 109.4 27.2ZM109.4 25.5L109.4 25.5Q110.0 25.5 110.3 25.2Q110.7 24.9 110.9 24.4Q111.1 23.9 111.1 23.2L111.1 23.2Q111.1 22.5 110.9 22.0Q110.7 21.5 110.3 21.2Q110.0 20.9 109.4 20.9L109.4 20.9Q108.9 20.9 108.5 21.2Q108.2 21.5 108.0 22.0Q107.8 22.5 107.8 23.2L107.8 23.2Q107.8 23.9 108.0 24.4Q108.2 24.9 108.5 25.2Q108.9 25.5 109.4 25.5ZM117.0 27L114.9 27L114.9 19.4L116.8 19.4L116.9 20.8Q117.0 20.4 117.3 20.1L117.3 20.1Q117.6 19.7 118.1 19.5Q118.6 19.2 119.1 19.2L119.1 19.2Q119.9 19.2 120.4 19.8L120.4 19.8Q120.8 20.2 121.0 21.0L121.0 21.0Q121.2 20.5 121.5 20.2L121.5 20.2Q121.8 19.7 122.4 19.5Q122.9 19.2 123.5 19.2L123.5 19.2Q124.2 19.2 124.7 19.5Q125.3 19.9 125.6 20.4Q125.9 21.0 125.9 21.8L125.9 21.8L125.9 27L123.9 27L123.9 22.2Q123.9 21.6 123.5 21.3Q123.2 21.0 122.7 21.0L122.7 21.0Q122.3 21.0 122.0 21.1Q121.7 21.3 121.6 21.6Q121.4 21.9 121.4 22.3L121.4 22.3L121.4 27L119.4 27L119.4 22.2Q119.4 21.6 119.1 21.3Q118.8 21.0 118.2 21.0L118.2 21.0Q117.9 21.0 117.6 21.1Q117.3 21.3 117.1 21.6Q117.0 21.9 117.0 22.4L117.0 22.4L117.0 27ZM131.4 27.2L131.4 27.2Q130.3 27.2 129.4 26.7Q128.6 26.2 128.1 25.3Q127.7 24.4 127.7 23.2L127.7 23.2Q127.7 22.0 128.1 21.1Q128.6 20.3 129.4 19.8Q130.2 19.3 131.3 19.3L131.3 19.3Q132.1 19.3 132.7 19.5Q133.4 19.7 133.9 20.2Q134.4 20.7 134.6 21.4Q134.9 22.2 134.9 23.1L134.9 23.1L134.9 23.7L129.7 23.7Q129.7 24.3 129.9 24.7L129.9 24.7Q130.1 25.2 130.5 25.4Q130.9 25.6 131.5 25.6L131.5 25.6Q131.8 25.6 132.1 25.5Q132.4 25.4 132.6 25.2Q132.8 25.0 132.9 24.7L132.9 24.7L134.8 25.1Q134.6 25.7 134.2 26.2Q133.7 26.6 133.0 26.9Q132.3 27.2 131.4 27.2ZM129.7 22.4L129.7 22.4L132.9 22.4Q132.9 22.0 132.8 21.7L132.8 21.7Q132.6 21.3 132.2 21.0Q131.9 20.8 131.3 20.8L131.3 20.8Q130.8 20.8 130.4 21.1Q130.1 21.3 129.9 21.7L129.9 21.7Q129.7 22.0 129.7 22.4ZM139.0 19.4L140.4 19.4L140.4 20.9L139.0 20.9L139.0 24.8Q139.0 25.1 139.1 25.3Q139.3 25.5 139.7 25.5L139.7 25.5Q139.8 25.5 140.0 25.4Q140.2 25.4 140.3 25.4L140.3 25.4L140.6 26.9Q140.3 27.0 139.9 27.1Q139.6 27.1 139.3 27.1L139.3 27.1Q138.1 27.1 137.5 26.5Q136.9 26.0 136.9 24.9L136.9 24.9L136.9 20.9L135.9 20.9L135.9 19.4L136.9 19.4L136.9 17.5L139.0 17.5L139.0 19.4ZM144.1 22.6L144.1 22.6L144.1 27L142.0 27L142.0 16.8L144.1 16.8L144.1 20.8Q144.3 20.2 144.8 19.8L144.8 19.8Q145.4 19.3 146.4 19.3L146.4 19.3Q147.2 19.3 147.8 19.6Q148.4 20.0 148.7 20.6Q149.0 21.2 149.0 22.1L149.0 22.1L149.0 27L147.0 27L147.0 22.5Q147.0 21.8 146.6 21.4Q146.2 21.0 145.6 21.0L145.6 21.0Q145.1 21.0 144.8 21.2Q144.5 21.4 144.3 21.7Q144.1 22.1 144.1 22.6ZM153.1 27L151.1 27L151.1 19.4L153.1 19.4L153.1 27ZM152.1 18.4L152.1 18.4Q151.6 18.4 151.3 18.1Q151.0 17.7 151.0 17.3L151.0 17.3Q151.0 16.9 151.3 16.6Q151.6 16.3 152.1 16.3L152.1 16.3Q152.6 16.3 152.9 16.6Q153.2 16.9 153.2 17.3L153.2 17.3Q153.2 17.7 152.9 18.1Q152.6 18.4 152.1 18.4ZM157.2 22.6L157.2 22.6L157.2 27L155.2 27L155.2 19.4L157.1 19.4L157.1 20.9Q157.4 20.2 157.9 19.8L157.9 19.8Q158.5 19.3 159.5 19.3L159.5 19.3Q160.3 19.3 160.9 19.6Q161.5 20.0 161.8 20.6Q162.1 21.2 162.1 22.1L162.1 22.1L162.1 27L160.1 27L160.1 22.5Q160.1 21.8 159.7 21.4Q159.3 21.0 158.7 21.0L158.7 21.0Q158.3 21.0 157.9 21.2Q157.6 21.4 157.4 21.7Q157.2 22.1 157.2 22.6ZM167.6 30.0L167.6 30.0Q166.6 30.0 165.9 29.8Q165.2 29.5 164.7 29.1Q164.3 28.7 164.1 28.1L164.1 28.1L165.9 27.7Q166.0 27.9 166.2 28.1Q166.4 28.3 166.7 28.4Q167.1 28.5 167.6 28.5L167.6 28.5Q168.3 28.5 168.8 28.2Q169.2 27.8 169.2 27.1L169.2 27.1L169.2 25.6L169.1 25.6Q168.9 26.0 168.7 26.2Q168.4 26.5 168.0 26.7Q167.6 26.9 167.0 26.9L167.0 26.9Q166.1 26.9 165.4 26.5Q164.7 26.1 164.3 25.3Q163.8 24.4 163.8 23.2L163.8 23.2Q163.8 21.9 164.3 21.0Q164.7 20.1 165.4 19.7Q166.1 19.3 167.0 19.3L167.0 19.3Q167.6 19.3 168.0 19.5Q168.5 19.7 168.8 20.0Q169.0 20.3 169.2 20.6L169.2 20.6L169.2 20.6L169.2 19.4L171.3 19.4L171.3 26.9Q171.3 28.0 170.8 28.7Q170.3 29.3 169.5 29.7Q168.6 30.0 167.6 30.0ZM167.6 25.3L167.6 25.3Q168.1 25.3 168.5 25.1Q168.9 24.8 169.1 24.3Q169.2 23.8 169.2 23.2L169.2 23.2Q169.2 22.5 169.1 22.0Q168.9 21.5 168.5 21.2Q168.1 20.9 167.6 20.9L167.6 20.9Q167.1 20.9 166.7 21.2Q166.3 21.5 166.1 22.0Q166.0 22.5 166.0 23.2L166.0 23.2Q166.0 23.8 166.1 24.3Q166.3 24.8 166.7 25.1Q167.1 25.3 167.6 25.3Z M180.3 27.2L180.3 27.2Q179.1 27.2 178.3 26.7Q177.5 26.2 177.0 25.3Q176.6 24.4 176.6 23.2L176.6 23.2Q176.6 22.0 177.0 21.1Q177.5 20.3 178.3 19.8Q179.1 19.3 180.3 19.3L180.3 19.3Q181.0 19.3 181.5 19.4Q182.1 19.6 182.6 19.9Q183.0 20.3 183.3 20.7Q183.6 21.2 183.7 21.8L183.7 21.8L181.8 22.2Q181.7 21.9 181.6 21.6Q181.5 21.4 181.3 21.2Q181.1 21.1 180.9 21.0Q180.6 20.9 180.3 20.9L180.3 20.9Q179.8 20.9 179.4 21.2Q179.0 21.5 178.8 22.0Q178.6 22.5 178.6 23.2L178.6 23.2Q178.6 23.9 178.8 24.4Q179.0 24.9 179.4 25.2Q179.8 25.5 180.3 25.5L180.3 25.5Q180.6 25.5 180.9 25.4Q181.1 25.4 181.3 25.2Q181.5 25.0 181.6 24.8Q181.7 24.5 181.8 24.2L181.8 24.2L183.7 24.6Q183.6 25.2 183.3 25.6Q183.0 26.1 182.6 26.5Q182.1 26.8 181.6 27.0Q181.0 27.2 180.3 27.2ZM188.8 27.2L188.8 27.2Q187.7 27.2 186.8 26.7Q186.0 26.2 185.5 25.3Q185.1 24.4 185.1 23.2L185.1 23.2Q185.1 22.0 185.5 21.1Q186.0 20.3 186.8 19.8Q187.7 19.3 188.8 19.3L188.8 19.3Q190.0 19.3 190.8 19.8Q191.7 20.3 192.1 21.1Q192.6 22.0 192.6 23.2L192.6 23.2Q192.6 24.4 192.1 25.3Q191.7 26.2 190.8 26.7Q190.0 27.2 188.8 27.2ZM188.8 25.5L188.8 25.5Q189.4 25.5 189.7 25.2Q190.1 24.9 190.3 24.4Q190.5 23.9 190.5 23.2L190.5 23.2Q190.5 22.5 190.3 22.0Q190.1 21.5 189.7 21.2Q189.4 20.9 188.8 20.9L188.8 20.9Q188.3 20.9 187.9 21.2Q187.6 21.5 187.4 22.0Q187.2 22.5 187.2 23.2L187.2 23.2Q187.2 23.9 187.4 24.4Q187.6 24.9 187.9 25.2Q188.3 25.5 188.8 25.5ZM197.7 27.2L197.7 27.2Q196.6 27.2 195.7 26.7Q194.9 26.2 194.4 25.3Q194.0 24.4 194.0 23.2L194.0 23.2Q194.0 22.0 194.4 21.1Q194.9 20.3 195.7 19.8Q196.6 19.3 197.7 19.3L197.7 19.3Q198.9 19.3 199.7 19.8Q200.5 20.3 201.0 21.1Q201.5 22.0 201.5 23.2L201.5 23.2Q201.5 24.4 201.0 25.3Q200.5 26.2 199.7 26.7Q198.9 27.2 197.7 27.2ZM197.7 25.5L197.7 25.5Q198.3 25.5 198.6 25.2Q199.0 24.9 199.2 24.4Q199.4 23.9 199.4 23.2L199.4 23.2Q199.4 22.5 199.2 22.0Q199.0 21.5 198.6 21.2Q198.3 20.9 197.7 20.9L197.7 20.9Q197.2 20.9 196.8 21.2Q196.4 21.5 196.3 22.0Q196.1 22.5 196.1 23.2L196.1 23.2Q196.1 23.9 196.3 24.4Q196.4 24.9 196.8 25.2Q197.2 25.5 197.7 25.5ZM203.2 16.8L205.2 16.8L205.2 27L203.2 27L203.2 16.8ZM210.9 23.9L209.1 23.9L209.1 23.7Q209.1 22.8 209.2 22.3Q209.4 21.8 209.7 21.5Q210.0 21.2 210.4 21.0L210.4 21.0Q210.8 20.7 211.2 20.3Q211.5 20.0 211.5 19.5L211.5 19.5Q211.5 19.1 211.3 18.9Q211.1 18.6 210.9 18.5Q210.6 18.3 210.2 18.3L210.2 18.3Q209.9 18.3 209.6 18.5Q209.3 18.6 209.1 18.9Q208.9 19.2 208.9 19.6L208.9 19.6L206.9 19.6Q207.0 18.6 207.4 18.0Q207.9 17.3 208.6 17.0Q209.3 16.7 210.2 16.7L210.2 16.7Q211.2 16.7 212.0 17.0Q212.7 17.3 213.1 17.9Q213.6 18.6 213.6 19.4L213.6 19.4Q213.6 20.3 213.2 20.9Q212.8 21.5 212.0 21.9L212.0 21.9Q211.7 22.1 211.4 22.3Q211.1 22.6 211.0 22.9Q210.9 23.2 210.9 23.7L210.9 23.7L210.9 23.9ZM210.0 27.1L210.0 27.1Q209.5 27.1 209.1 26.8Q208.8 26.5 208.8 26.0L208.8 26.0Q208.8 25.5 209.1 25.1Q209.5 24.8 210.0 24.8L210.0 24.8Q210.5 24.8 210.9 25.1Q211.2 25.5 211.2 26.0L211.2 26.0Q211.2 26.5 210.9 26.8Q210.5 27.1 210.0 27.1Z M66.4 44.1L66.4 44.1Q65.0 44.1 63.9 43.5Q62.9 42.9 62.3 41.7Q61.6 40.6 61.6 38.9L61.6 38.9Q61.6 37.3 62.3 36.1Q62.9 34.9 64.0 34.3Q65.0 33.7 66.4 33.7L66.4 33.7Q67.2 33.7 68.0 33.9Q68.7 34.2 69.3 34.6Q69.9 35.1 70.3 35.8Q70.6 36.4 70.8 37.3L70.8 37.3L68.6 37.3Q68.6 36.9 68.4 36.6Q68.2 36.2 67.9 36.0Q67.6 35.8 67.2 35.6Q66.9 35.5 66.4 35.5L66.4 35.5Q65.6 35.5 65.0 35.9Q64.4 36.3 64.1 37.1Q63.8 37.8 63.8 38.9L63.8 38.9Q63.8 40.0 64.1 40.8Q64.4 41.5 65.0 41.9Q65.6 42.3 66.4 42.3L66.4 42.3Q66.8 42.3 67.2 42.2Q67.6 42.0 67.9 41.8Q68.2 41.6 68.4 41.3Q68.6 40.9 68.6 40.5L68.6 40.5L70.8 40.5Q70.7 41.2 70.3 41.9Q70.0 42.5 69.4 43.0Q68.9 43.5 68.1 43.8Q67.3 44.1 66.4 44.1ZM75.9 44.2L75.9 44.2Q74.8 44.2 74.0 43.7Q73.1 43.2 72.7 42.3Q72.2 41.4 72.2 40.2L72.2 40.2Q72.2 39.0 72.7 38.1Q73.1 37.3 74.0 36.8Q74.8 36.3 75.9 36.3L75.9 36.3Q77.1 36.3 77.9 36.8Q78.8 37.3 79.2 38.1Q79.7 39.0 79.7 40.2L79.7 40.2Q79.7 41.4 79.2 42.3Q78.8 43.2 77.9 43.7Q77.1 44.2 75.9 44.2ZM75.9 42.5L75.9 42.5Q76.5 42.5 76.9 42.2Q77.2 41.9 77.4 41.4Q77.6 40.9 77.6 40.2L77.6 40.2Q77.6 39.5 77.4 39.0Q77.2 38.5 76.9 38.2Q76.5 37.9 75.9 37.9L75.9 37.9Q75.4 37.9 75.0 38.2Q74.7 38.5 74.5 39.0Q74.3 39.5 74.3 40.2L74.3 40.2Q74.3 40.9 74.5 41.4Q74.7 41.9 75.0 42.2Q75.4 42.5 75.9 42.5ZM83.5 39.6L83.5 39.6L83.5 44L81.4 44L81.4 36.4L83.4 36.4L83.4 37.9Q83.7 37.2 84.2 36.8L84.2 36.8Q84.8 36.3 85.8 36.3L85.8 36.3Q86.6 36.3 87.1 36.6Q87.7 37.0 88.1 37.6Q88.4 38.2 88.4 39.1L88.4 39.1L88.4 44L86.3 44L86.3 39.5Q86.3 38.8 86.0 38.4Q85.6 38.0 85.0 38.0L85.0 38.0Q84.5 38.0 84.2 38.2Q83.8 38.4 83.7 38.7Q83.5 39.1 83.5 39.6ZM92.8 36.4L94.2 36.4L94.2 37.9L92.8 37.9L92.8 41.8Q92.8 42.1 93.0 42.3Q93.1 42.5 93.5 42.5L93.5 42.5Q93.6 42.5 93.8 42.4Q94.0 42.4 94.1 42.4L94.1 42.4L94.4 43.9Q94.1 44.0 93.8 44.1Q93.4 44.1 93.1 44.1L93.1 44.1Q92.0 44.1 91.4 43.5Q90.7 43.0 90.7 41.9L90.7 41.9L90.7 37.9L89.7 37.9L89.7 36.4L90.7 36.4L90.7 34.5L92.8 34.5L92.8 36.4ZM97.9 44L95.9 44L95.9 36.4L97.8 36.4L97.8 37.7L97.9 37.7Q98.1 37.0 98.6 36.6Q99.1 36.3 99.8 36.3L99.8 36.3Q99.9 36.3 100.1 36.3Q100.3 36.3 100.4 36.3L100.4 36.3L100.4 38.2Q100.3 38.1 100.0 38.1Q99.8 38.1 99.5 38.1L99.5 38.1Q99.1 38.1 98.7 38.3Q98.3 38.5 98.1 38.8Q97.9 39.2 97.9 39.7L97.9 39.7L97.9 44ZM103.9 44L101.9 44L101.9 36.4L103.9 36.4L103.9 44ZM102.9 35.4L102.9 35.4Q102.4 35.4 102.1 35.1Q101.8 34.7 101.8 34.3L101.8 34.3Q101.8 33.9 102.1 33.6Q102.4 33.3 102.9 33.3L102.9 33.3Q103.4 33.3 103.7 33.6Q104.0 33.9 104.0 34.3L104.0 34.3Q104.0 34.7 103.7 35.1Q103.4 35.4 102.9 35.4ZM110.2 44.1L110.2 44.1Q109.6 44.1 109.2 43.9Q108.8 43.7 108.5 43.4Q108.2 43.1 108.1 42.8L108.1 42.8L108.0 42.8L108.0 44L106.0 44L106.0 33.8L108.0 33.8L108.0 37.6L108.1 37.6Q108.2 37.3 108.5 37.0Q108.7 36.7 109.2 36.5Q109.6 36.3 110.2 36.3L110.2 36.3Q111.1 36.3 111.8 36.7Q112.5 37.1 112.9 38.0Q113.3 38.9 113.3 40.2L113.3 40.2Q113.3 41.5 112.9 42.3Q112.5 43.2 111.8 43.7Q111.1 44.1 110.2 44.1ZM109.6 42.5L109.6 42.5Q110.1 42.5 110.5 42.2Q110.9 41.9 111.1 41.4Q111.2 40.9 111.2 40.2L111.2 40.2Q111.2 39.5 111.1 39.0Q110.9 38.5 110.5 38.2Q110.1 37.9 109.6 37.9L109.6 37.9Q109.1 37.9 108.7 38.2Q108.3 38.5 108.1 39.0Q108.0 39.5 108.0 40.2L108.0 40.2Q108.0 40.9 108.2 41.4Q108.3 41.9 108.7 42.2Q109.1 42.5 109.6 42.5ZM117.7 44.1L117.7 44.1Q116.9 44.1 116.3 43.8Q115.7 43.4 115.4 42.8Q115.1 42.1 115.1 41.2L115.1 41.2L115.1 36.4L117.1 36.4L117.1 40.9Q117.1 41.6 117.5 42.0Q117.9 42.4 118.5 42.4L118.5 42.4Q118.9 42.4 119.3 42.2Q119.6 42.0 119.8 41.6Q120.0 41.3 120.0 40.8L120.0 40.8L120.0 36.4L122.1 36.4L122.1 44L120.1 44L120.1 42.4Q119.8 43.1 119.3 43.6L119.3 43.6Q118.7 44.1 117.7 44.1ZM126.5 36.4L127.9 36.4L127.9 37.9L126.5 37.9L126.5 41.8Q126.5 42.1 126.6 42.3Q126.8 42.5 127.2 42.5L127.2 42.5Q127.3 42.5 127.5 42.4Q127.7 42.4 127.8 42.4L127.8 42.4L128.1 43.9Q127.8 44.0 127.4 44.1Q127.1 44.1 126.8 44.1L126.8 44.1Q125.6 44.1 125.0 43.5Q124.4 43.0 124.4 41.9L124.4 41.9L124.4 37.9L123.4 37.9L123.4 36.4L124.4 36.4L124.4 34.5L126.5 34.5L126.5 36.4ZM133.0 44.2L133.0 44.2Q131.8 44.2 131.0 43.7Q130.1 43.2 129.7 42.3Q129.2 41.4 129.2 40.2L129.2 40.2Q129.2 39.0 129.7 38.1Q130.1 37.3 130.9 36.8Q131.8 36.3 132.9 36.3L132.9 36.3Q133.6 36.3 134.3 36.5Q134.9 36.7 135.4 37.2Q135.9 37.7 136.2 38.4Q136.5 39.2 136.5 40.1L136.5 40.1L136.5 40.7L131.2 40.7Q131.3 41.3 131.5 41.7L131.5 41.7Q131.7 42.2 132.1 42.4Q132.5 42.6 133.0 42.6L133.0 42.6Q133.4 42.6 133.7 42.5Q134.0 42.4 134.2 42.2Q134.4 42.0 134.5 41.7L134.5 41.7L136.3 42.1Q136.2 42.7 135.7 43.2Q135.2 43.6 134.6 43.9Q133.9 44.2 133.0 44.2ZM131.2 39.4L131.2 39.4L134.5 39.4Q134.4 39.0 134.3 38.7L134.3 38.7Q134.1 38.3 133.8 38.0Q133.4 37.8 132.9 37.8L132.9 37.8Q132.4 37.8 132.0 38.1Q131.6 38.3 131.4 38.7L131.4 38.7Q131.3 39.0 131.2 39.4Z M141.8 46.7L141.8 46.7L142.3 45.2L142.5 45.2Q143.0 45.3 143.3 45.3Q143.6 45.2 143.8 45.0Q144.0 44.8 144.0 44.4L144.0 44.4L144.1 44.0L141.2 36.4L143.4 36.4L144.7 40.3Q144.9 41.1 145.1 41.8L145.1 41.8Q145.1 42.1 145.2 42.3L145.2 42.3Q145.2 42.1 145.3 41.8L145.3 41.8Q145.5 41.1 145.7 40.3L145.7 40.3L147.1 36.4L149.2 36.4L146.0 44.9Q145.7 45.5 145.4 46.0Q145.0 46.4 144.5 46.7Q143.9 46.9 143.2 46.9L143.2 46.9Q142.8 46.9 142.4 46.9Q142.0 46.8 141.8 46.7ZM154.0 44.2L154.0 44.2Q152.9 44.2 152.0 43.7Q151.2 43.2 150.7 42.3Q150.3 41.4 150.3 40.2L150.3 40.2Q150.3 39.0 150.7 38.1Q151.2 37.3 152.0 36.8Q152.9 36.3 154.0 36.3L154.0 36.3Q155.2 36.3 156.0 36.8Q156.9 37.3 157.3 38.1Q157.8 39.0 157.8 40.2L157.8 40.2Q157.8 41.4 157.3 42.3Q156.9 43.2 156.0 43.7Q155.2 44.2 154.0 44.2ZM154.0 42.5L154.0 42.5Q154.6 42.5 154.9 42.2Q155.3 41.9 155.5 41.4Q155.7 40.9 155.7 40.2L155.7 40.2Q155.7 39.5 155.5 39.0Q155.3 38.5 154.9 38.2Q154.6 37.9 154.0 37.9L154.0 37.9Q153.5 37.9 153.1 38.2Q152.7 38.5 152.6 39.0Q152.4 39.5 152.4 40.2L152.4 40.2Q152.4 40.9 152.6 41.4Q152.7 41.9 153.1 42.2Q153.5 42.5 154.0 42.5ZM162.1 44.1L162.1 44.1Q161.3 44.1 160.7 43.8Q160.1 43.4 159.8 42.8Q159.5 42.1 159.5 41.2L159.5 41.2L159.5 36.4L161.5 36.4L161.5 40.9Q161.5 41.6 161.9 42.0Q162.3 42.4 162.9 42.4L162.9 42.4Q163.4 42.4 163.7 42.2Q164.0 42.0 164.2 41.6Q164.4 41.3 164.4 40.8L164.4 40.8L164.4 36.4L166.5 36.4L166.5 44L164.5 44L164.5 42.4Q164.2 43.1 163.7 43.6L163.7 43.6Q163.1 44.1 162.1 44.1ZM170.6 44L168.5 44L168.5 36.4L170.5 36.4L170.5 37.7L170.6 37.7Q170.8 37.0 171.3 36.6Q171.8 36.3 172.4 36.3L172.4 36.3Q172.6 36.3 172.8 36.3Q172.9 36.3 173.1 36.3L173.1 36.3L173.1 38.2Q172.9 38.1 172.7 38.1Q172.4 38.1 172.2 38.1L172.2 38.1Q171.7 38.1 171.3 38.3Q171.0 38.5 170.8 38.8Q170.6 39.2 170.6 39.7L170.6 39.7L170.6 44Z M180.2 36.4L181.7 36.4L181.7 37.9L180.2 37.9L180.2 41.8Q180.2 42.1 180.4 42.3Q180.6 42.5 180.9 42.5L180.9 42.5Q181.1 42.5 181.3 42.4Q181.5 42.4 181.6 42.4L181.6 42.4L181.9 43.9Q181.5 44.0 181.2 44.1Q180.9 44.1 180.6 44.1L180.6 44.1Q179.4 44.1 178.8 43.5Q178.2 43.0 178.2 41.9L178.2 41.9L178.2 37.9L177.1 37.9L177.1 36.4L178.2 36.4L178.2 34.5L180.2 34.5L180.2 36.4ZM186.8 44.2L186.8 44.2Q185.6 44.2 184.7 43.7Q183.9 43.2 183.4 42.3Q183.0 41.4 183.0 40.2L183.0 40.2Q183.0 39.0 183.4 38.1Q183.9 37.3 184.7 36.8Q185.5 36.3 186.7 36.3L186.7 36.3Q187.4 36.3 188.1 36.5Q188.7 36.7 189.2 37.2Q189.7 37.7 190.0 38.4Q190.2 39.2 190.2 40.1L190.2 40.1L190.2 40.7L185.0 40.7Q185.0 41.3 185.2 41.7L185.2 41.7Q185.5 42.2 185.9 42.4Q186.3 42.6 186.8 42.6L186.8 42.6Q187.2 42.6 187.4 42.5Q187.7 42.4 187.9 42.2Q188.2 42.0 188.3 41.7L188.3 41.7L190.1 42.1Q189.9 42.7 189.5 43.2Q189.0 43.6 188.3 43.9Q187.6 44.2 186.8 44.2ZM185.0 39.4L185.0 39.4L188.3 39.4Q188.2 39.0 188.1 38.7L188.1 38.7Q187.9 38.3 187.6 38.0Q187.2 37.8 186.7 37.8L186.7 37.8Q186.1 37.8 185.8 38.1Q185.4 38.3 185.2 38.7L185.2 38.7Q185.1 39.0 185.0 39.4ZM194.0 44L191.9 44L191.9 36.4L193.8 36.4L193.9 37.8Q194.1 37.4 194.3 37.1L194.3 37.1Q194.7 36.7 195.1 36.5Q195.6 36.2 196.1 36.2L196.1 36.2Q196.9 36.2 197.4 36.8L197.4 36.8Q197.8 37.2 198.1 38.0L198.1 38.0Q198.2 37.5 198.5 37.2L198.5 37.2Q198.9 36.7 199.4 36.5Q199.9 36.2 200.5 36.2L200.5 36.2Q201.2 36.2 201.8 36.5Q202.3 36.9 202.7 37.4Q203.0 38.0 203.0 38.8L203.0 38.8L203.0 44L200.9 44L200.9 39.2Q200.9 38.6 200.6 38.3Q200.2 38.0 199.7 38.0L199.7 38.0Q199.3 38.0 199.0 38.1Q198.8 38.3 198.6 38.6Q198.4 38.9 198.4 39.3L198.4 39.3L198.4 44L196.5 44L196.5 39.2Q196.5 38.6 196.1 38.3Q195.8 38.0 195.3 38.0L195.3 38.0Q194.9 38.0 194.6 38.1Q194.3 38.3 194.2 38.6Q194.0 38.9 194.0 39.4L194.0 39.4L194.0 44ZM207.1 46.9L205.0 46.9L205.0 36.4L207.0 36.4L207.0 37.6L207.1 37.6Q207.3 37.3 207.5 37.0Q207.8 36.7 208.2 36.5Q208.7 36.3 209.3 36.3L209.3 36.3Q210.2 36.3 210.9 36.7Q211.6 37.1 212.0 38.0Q212.4 38.9 212.4 40.2L212.4 40.2Q212.4 41.5 212.0 42.3Q211.6 43.2 210.9 43.7Q210.2 44.1 209.3 44.1L209.3 44.1Q208.7 44.1 208.2 43.9Q207.8 43.7 207.5 43.4Q207.3 43.1 207.1 42.8L207.1 42.8L207.1 42.8L207.1 46.9ZM208.7 42.5L208.7 42.5Q209.2 42.5 209.6 42.2Q209.9 41.9 210.1 41.4Q210.3 40.9 210.3 40.2L210.3 40.2Q210.3 39.5 210.1 39.0Q209.9 38.5 209.6 38.2Q209.2 37.9 208.7 37.9L208.7 37.9Q208.1 37.9 207.8 38.2Q207.4 38.5 207.2 39.0Q207.0 39.5 207.0 40.2L207.0 40.2Q207.0 40.9 207.2 41.4Q207.4 41.9 207.8 42.2Q208.1 42.5 208.7 42.5ZM214.1 33.8L216.2 33.8L216.2 44L214.1 44L214.1 33.8ZM220.4 44.2L220.4 44.2Q219.6 44.2 219.1 43.9Q218.5 43.6 218.2 43.1Q217.8 42.6 217.8 41.9L217.8 41.9Q217.8 41.2 218.1 40.8Q218.3 40.4 218.7 40.1Q219.1 39.8 219.6 39.7Q220.1 39.6 220.7 39.5L220.7 39.5Q221.4 39.4 221.8 39.4Q222.2 39.3 222.4 39.2Q222.6 39.1 222.6 38.8L222.6 38.8L222.6 38.8Q222.6 38.5 222.4 38.2Q222.3 38.0 222.0 37.9Q221.8 37.8 221.4 37.8L221.4 37.8Q221.0 37.8 220.7 37.9Q220.4 38.0 220.2 38.2Q220.0 38.4 219.9 38.7L219.9 38.7L218.0 38.4Q218.2 37.7 218.7 37.2Q219.2 36.8 219.8 36.5Q220.5 36.3 221.4 36.3L221.4 36.3Q222.0 36.3 222.6 36.4Q223.2 36.6 223.6 36.9Q224.1 37.2 224.3 37.7Q224.6 38.2 224.6 38.9L224.6 38.9L224.6 44L222.7 44L222.7 42.9L222.6 42.9Q222.4 43.3 222.1 43.6Q221.8 43.8 221.4 44.0Q220.9 44.2 220.4 44.2ZM221.0 42.7L221.0 42.7Q221.4 42.7 221.8 42.5Q222.2 42.3 222.4 42.0Q222.6 41.7 222.6 41.3L222.6 41.3L222.6 40.4Q222.5 40.5 222.3 40.6Q222.1 40.6 221.9 40.7Q221.7 40.7 221.5 40.7Q221.2 40.8 221.1 40.8L221.1 40.8Q220.7 40.8 220.4 41.0Q220.1 41.1 220.0 41.3Q219.8 41.5 219.8 41.8L219.8 41.8Q219.8 42.1 219.9 42.3Q220.1 42.5 220.4 42.6Q220.6 42.7 221.0 42.7ZM229.0 36.4L230.5 36.4L230.5 37.9L229.0 37.9L229.0 41.8Q229.0 42.1 229.2 42.3Q229.4 42.5 229.7 42.5L229.7 42.5Q229.8 42.5 230.1 42.4Q230.3 42.4 230.4 42.4L230.4 42.4L230.7 43.9Q230.3 44.0 230.0 44.1Q229.7 44.1 229.3 44.1L229.3 44.1Q228.2 44.1 227.6 43.5Q227.0 43.0 227.0 41.9L227.0 41.9L227.0 37.9L225.9 37.9L225.9 36.4L227.0 36.4L227.0 34.5L229.0 34.5L229.0 36.4ZM235.5 44.2L235.5 44.2Q234.4 44.2 233.5 43.7Q232.7 43.2 232.2 42.3Q231.8 41.4 231.8 40.2L231.8 40.2Q231.8 39.0 232.2 38.1Q232.7 37.3 233.5 36.8Q234.3 36.3 235.4 36.3L235.4 36.3Q236.2 36.3 236.8 36.5Q237.5 36.7 238.0 37.2Q238.5 37.7 238.8 38.4Q239.0 39.2 239.0 40.1L239.0 40.1L239.0 40.7L233.8 40.7Q233.8 41.3 234.0 41.7L234.0 41.7Q234.2 42.2 234.6 42.4Q235.0 42.6 235.6 42.6L235.6 42.6Q235.9 42.6 236.2 42.5Q236.5 42.4 236.7 42.2Q236.9 42.0 237.1 41.7L237.1 41.7L238.9 42.1Q238.7 42.7 238.3 43.2Q237.8 43.6 237.1 43.9Q236.4 44.2 235.5 44.2ZM233.8 39.4L233.8 39.4L237.1 39.4Q237.0 39.0 236.9 38.7L236.9 38.7Q236.7 38.3 236.3 38.0Q236.0 37.8 235.5 37.8L235.5 37.8Q234.9 37.8 234.6 38.1Q234.2 38.3 234.0 38.7L234.0 38.7Q233.8 39.0 233.8 39.4ZM242.2 44.1L242.2 44.1Q241.7 44.1 241.4 43.8Q241.0 43.5 241.0 43.0L241.0 43.0Q241.0 42.5 241.4 42.1Q241.7 41.8 242.2 41.8L242.2 41.8Q242.7 41.8 243.0 42.1Q243.4 42.5 243.4 43.0L243.4 43.0Q243.4 43.5 243.0 43.8Q242.7 44.1 242.2 44.1Z "/></g></svg>