<!-- Generated by readme-aura https://github.com/collectioneur/readme-aura -->
<svg width="800" height="220" viewBox="0 0 800 220" xmlns="http://www.w3.org/2000/svg"><mask id="satori_om-id"><rect x="0" y="0" width="800" height="220" fill="#fff"/></mask><path x="0" y="0" width="800" height="220" fill="#0d1117" d="M16,0 h768 a16,16 0 0 1 16,16 v188 a16,16 0 0 1 -16,16 h-768 a16,16 0 0 1 -16,-16 v-188 a16,16 0 0 1 16,-16"/><defs><clipPath id="satori_bc-id-0"><path x="24" y="24" width="240" height="172" d="M36,24 h216 a12,12 0 0 1 12,12 v148 a12,12 0 0 1 -12,12 h-216 a12,12 0 0 1 -12,-12 v-148 a12,12 0 0 1 12,-12"/></clipPath></defs><mask id="satori_om-id-0"><rect x="25" y="25" width="238" height="170" fill="#fff"/><path width="240" height="172" fill="none" stroke="#000" stroke-width="2" d="M27.515,27.515 A12,12 0 0 1 36,24 h216 a12,12 0 0 1 12,12 v148 a12,12 0 0 1 -12,12 h-216 a12,12 0 0 1 -12,-12 v-148 A12,12 0 0 1 27.515,27.515"/></mask><path x="24" y="24" width="240" height="172" fill="#161b22" d="M36,24 h216 a12,12 0 0 1 12,12 v148 a12,12 0 0 1 -12,12 h-216 a12,12 0 0 1 -12,-12 v-148 a12,12 0 0 1 12,-12"/><path width="240" height="172" clip-path="url(#satori_bc-id-0)" fill="none" stroke="#30363d" stroke-width="2" d="M27.515,27.515 A12,12 0 0 1 36,24 h216 a12,12 0 0 1 12,12 v148 a12,12 0 0 1 -12,12 h-216 a12,12 0 0 1 -12,-12 v-148 A12,12 0 0 1 27.515,27.515"/><mask id="satori_om-id-0-0"><rect x="45" y="45" width="198" height="13" fill="#fff"/></mask><g  ><path fill="#8b949e" d="M48.5 56.1L48.5 56.1Q47.7 56.1 47.0 55.9Q46.4 55.6 46.0 55.1Q45.7 54.6 45.6 53.9L45.6 53.9L46.7 53.9Q46.7 54.4 47.0 54.6Q47.2 54.9 47.7 55.1Q48.1 55.2 48.5 55.2L48.5 55.2Q49.1 55.2 49.5 55.0Q49.9 54.9 50.2 54.5Q50.4 54.2 50.4 53.8L50.4 53.8Q50.4 53.4 50.2 53.2Q50.0 52.9 49.6 52.8Q49.3 52.6 48.9 52.5L48.9 52.5L47.9 52.2Q46.9 52.0 46.4 51.4Q45.8 50.9 45.8 50.1L45.8 50.1Q45.8 49.5 46.2 49.0Q46.6 48.4 47.2 48.2Q47.8 47.9 48.6 47.9L48.6 47.9Q49.4 47.9 50.0 48.2Q50.6 48.4 51.0 48.9Q51.3 49.4 51.3 50.0L51.3 50.0L50.3 50.0Q50.3 49.4 49.8 49.1Q49.3 48.8 48.6 48.8L48.6 48.8Q48.1 48.8 47.7 49.0Q47.3 49.1 47.1 49.4Q46.8 49.7 46.8 50.1L46.8 50.1Q46.8 50.5 47.1 50.8Q47.4 51.0 47.7 51.2Q48.1 51.3 48.4 51.4L48.4 51.4L49.2 51.6Q49.5 51.7 49.9 51.8Q50.3 52.0 50.6 52.2Q51.0 52.5 51.2 52.9Q51.4 53.3 51.4 53.8L51.4 53.8Q51.4 54.5 51.1 55.0Q50.8 55.5 50.1 55.8Q49.5 56.1 48.5 56.1ZM56.1 48.9L53.6 48.9L53.6 48.0L59.6 48.0L59.6 48.9L57.1 48.9L57.1 56L56.1 56L56.1 48.9ZM67.1 56L62.1 56L62.1 48.0L67.0 48.0L67.0 48.9L63.1 48.9L63.1 51.5L66.7 51.5L66.7 52.4L63.1 52.4L63.1 55.1L67.1 55.1L67.1 56ZM70.8 56L69.7 56L69.7 48.0L72.5 48.0Q73.4 48.0 74.0 48.3Q74.6 48.7 74.9 49.3Q75.2 49.8 75.2 50.5Q75.2 51.3 74.9 51.8Q74.6 52.4 74.0 52.8Q73.4 53.1 72.5 53.1L72.5 53.1L70.8 53.1L70.8 56ZM70.8 48.9L70.8 52.2L72.4 52.2Q73.1 52.2 73.5 52.0Q73.8 51.8 74.0 51.4Q74.2 51.0 74.2 50.5Q74.2 50.1 74.0 49.7Q73.8 49.3 73.5 49.1Q73.1 48.9 72.4 48.9L72.4 48.9L70.8 48.9Z M83.1 48.0L84.4 48.0L84.4 56L83.4 56L83.4 48.9L83.3 48.9L81.4 50.4L81.4 49.3L83.1 48.0Z "/></g><mask id="satori_om-id-0-1"><rect x="45" y="66" width="198" height="19" fill="#fff"/></mask><g  ><path fill="#c9d1d9" d="M51.2 82L48.5 82L45.4 70.4L48.0 70.4L49.3 76.1Q49.5 76.8 49.6 77.6Q49.8 78.4 49.9 79.3L49.9 79.3Q49.9 79.4 50.0 79.6L50.0 79.6Q50.0 79.4 50.0 79.3L50.0 79.3Q50.2 78.4 50.3 77.6Q50.5 76.8 50.6 76.1L50.6 76.1L52.1 70.4L54.5 70.4L56.0 76.1Q56.1 76.8 56.3 77.6Q56.4 78.4 56.6 79.3L56.6 79.3Q56.6 79.4 56.6 79.6L56.6 79.6Q56.7 79.4 56.7 79.3L56.7 79.3Q56.8 78.4 57.0 77.6Q57.1 76.8 57.3 76.1L57.3 76.1L58.6 70.4L61.2 70.4L58.1 82L55.4 82L53.8 76.0Q53.6 75.1 53.4 73.9L53.4 73.9Q53.3 73.6 53.3 73.2L53.3 73.2Q53.2 73.5 53.2 73.9L53.2 73.9Q53.0 75.0 52.8 76.0L52.8 76.0L51.2 82ZM64.9 82L62.6 82L62.6 73.3L64.9 73.3L64.9 74.8L65.0 74.8Q65.2 74.0 65.8 73.6Q66.3 73.1 67.1 73.1L67.1 73.1Q67.3 73.1 67.5 73.2Q67.7 73.2 67.8 73.2L67.8 73.2L67.8 75.3Q67.7 75.3 67.4 75.2Q67.1 75.2 66.8 75.2L66.8 75.2Q66.3 75.2 65.9 75.4Q65.4 75.7 65.2 76.1Q64.9 76.5 64.9 77.0L64.9 77.0L64.9 82ZM71.5 82L69.1 82L69.1 73.3L71.5 73.3L71.5 82ZM70.3 72.1L70.3 72.1Q69.8 72.1 69.4 71.8Q69.0 71.4 69.0 70.9L69.0 70.9Q69.0 70.4 69.4 70.1Q69.8 69.7 70.3 69.7L70.3 69.7Q70.8 69.7 71.2 70.1Q71.6 70.4 71.6 70.9L71.6 70.9Q71.6 71.4 71.2 71.8Q70.8 72.1 70.3 72.1ZM76.2 73.3L77.8 73.3L77.8 75.1L76.2 75.1L76.2 79.4Q76.2 79.9 76.3 80.1Q76.5 80.3 77.0 80.3L77.0 80.3Q77.1 80.3 77.3 80.2Q77.6 80.2 77.7 80.2L77.7 80.2L78.0 81.9Q77.6 82.0 77.3 82.1Q76.9 82.1 76.5 82.1L76.5 82.1Q75.2 82.1 74.5 81.5Q73.8 80.8 73.8 79.6L73.8 79.6L73.8 75.1L72.6 75.1L72.6 73.3L73.8 73.3L73.8 71.2L76.2 71.2L76.2 73.3ZM83.3 82.2L83.3 82.2Q81.9 82.2 81.0 81.6Q80.0 81.1 79.5 80.1Q78.9 79.1 78.9 77.7L78.9 77.7Q78.9 76.3 79.5 75.3Q80.0 74.3 80.9 73.7Q81.9 73.2 83.1 73.2L83.1 73.2Q84 73.2 84.7 73.4Q85.5 73.7 86.0 74.3Q86.6 74.8 86.9 75.6Q87.2 76.5 87.2 77.6L87.2 77.6L87.2 78.2L81.3 78.2Q81.3 78.9 81.5 79.4L81.5 79.4Q81.8 79.9 82.2 80.1Q82.7 80.4 83.3 80.4L83.3 80.4Q83.7 80.4 84.0 80.3Q84.4 80.2 84.6 79.9Q84.9 79.7 85.0 79.4L85.0 79.4L87.1 79.8Q86.9 80.5 86.4 81.0Q85.9 81.6 85.1 81.9Q84.3 82.2 83.3 82.2ZM81.3 76.8L81.3 76.8L85.0 76.8Q84.9 76.3 84.8 76.0L84.8 76.0Q84.6 75.5 84.2 75.2Q83.8 74.9 83.2 74.9L83.2 74.9Q82.6 74.9 82.1 75.2Q81.7 75.5 81.5 76.0L81.5 76.0Q81.3 76.3 81.3 76.8Z M96.1 82.2L96.1 82.2Q94.3 82.2 93.2 81.2Q92.2 80.3 92.2 78.5L92.2 78.5L92.2 77.8L94.5 77.8L94.5 78.5Q94.5 79.4 95.0 79.8Q95.4 80.2 96.1 80.2L96.1 80.2Q96.8 80.2 97.2 79.8Q97.6 79.4 97.6 78.5L97.6 78.5L97.6 70.4L99.9 70.4L99.9 78.5Q99.9 80.3 98.9 81.2Q97.9 82.2 96.1 82.2ZM106.3 82.2L106.3 82.2Q104.9 82.2 103.9 81.7Q102.8 81.3 102.3 80.5Q101.7 79.6 101.6 78.4L101.6 78.4L104.0 78.4Q104.0 79.0 104.3 79.4Q104.6 79.8 105.1 80.0Q105.6 80.2 106.3 80.2L106.3 80.2Q106.9 80.2 107.4 80.0Q107.9 79.8 108.1 79.5Q108.4 79.1 108.4 78.7L108.4 78.7Q108.4 78.3 108.2 78.0Q107.9 77.7 107.5 77.5Q107.0 77.3 106.4 77.2L106.4 77.2L105.1 76.9Q103.6 76.5 102.8 75.7Q102.0 75.0 102.0 73.7L102.0 73.7Q102.0 72.7 102.5 71.9Q103.1 71.1 104.1 70.6Q105.1 70.2 106.3 70.2L106.3 70.2Q107.6 70.2 108.6 70.6Q109.5 71.1 110.1 71.9Q110.6 72.7 110.6 73.7L110.6 73.7L108.3 73.7Q108.3 73.0 107.7 72.6Q107.2 72.2 106.3 72.2L106.3 72.2Q105.7 72.2 105.3 72.4Q104.9 72.6 104.6 72.9Q104.4 73.2 104.4 73.6L104.4 73.6Q104.4 74.0 104.7 74.3Q104.9 74.6 105.4 74.7Q105.8 74.9 106.3 75.0L106.3 75.0L107.3 75.3Q108.1 75.4 108.7 75.7Q109.3 76.0 109.8 76.4Q110.3 76.8 110.5 77.4Q110.8 78.0 110.8 78.7L110.8 78.7Q110.8 79.7 110.3 80.5Q109.7 81.3 108.7 81.7Q107.7 82.2 106.3 82.2ZM114.6 82L111.9 82L116.0 76.0L112.2 70.4L115 70.4L116.3 72.3Q116.6 72.9 116.9 73.3Q117.1 73.8 117.3 74.2L117.3 74.2Q117.3 74.3 117.4 74.4L117.4 74.4Q117.5 74.3 117.5 74.2L117.5 74.2Q117.7 73.8 117.9 73.3Q118.2 72.9 118.5 72.3L118.5 72.3L119.8 70.4L122.5 70.4L118.8 76.0L122.9 82L120.0 82L118.4 79.6Q118.1 79.1 117.9 78.7Q117.7 78.4 117.6 78.1L117.6 78.1Q117.5 77.9 117.4 77.7L117.4 77.7Q117.3 77.9 117.2 78.1L117.2 78.1Q117.0 78.4 116.8 78.7Q116.6 79.1 116.3 79.6L116.3 79.6L114.6 82Z "/></g><mask id="satori_om-id-0-2"><rect x="45" y="93" width="198" height="15" fill="#fff"/></mask><g  ><path fill="#58a6ff" d="M47.9 97.6L47.0 97.6L45.9 95.9L47.1 95.9L47.9 97.6ZM51.8 97.6L50.9 97.6L49.8 95.9L50.9 95.9L51.8 97.6ZM55.6 97.6L54.8 97.6L53.6 95.9L54.8 95.9L55.6 97.6ZM59.4 105.2L59.4 105.2Q58.8 105.2 58.3 104.9Q57.7 104.7 57.4 104.2Q57.1 103.8 57.1 103.1L57.1 103.1Q57.1 102.6 57.4 102.2Q57.6 101.9 58.0 101.7Q58.3 101.5 58.8 101.4Q59.2 101.3 59.7 101.2L59.7 101.2Q60.3 101.1 60.7 101.1Q61.0 101.1 61.2 101.0Q61.4 100.9 61.4 100.6L61.4 100.6L61.4 100.6Q61.4 100.2 61.2 99.9Q61.1 99.6 60.8 99.4Q60.5 99.3 60.0 99.3L60.0 99.3Q59.5 99.3 59.2 99.4Q58.9 99.6 58.7 99.8Q58.5 100.0 58.3 100.3L58.3 100.3L57.3 99.9Q57.6 99.3 58.0 99.0Q58.4 98.6 59.0 98.5Q59.5 98.4 60.0 98.4L60.0 98.4Q60.3 98.4 60.7 98.4Q61.1 98.5 61.5 98.8Q61.9 99.0 62.2 99.5Q62.4 99.9 62.4 100.7L62.4 100.7L62.4 105L61.4 105L61.4 104.1L61.3 104.1Q61.2 104.3 61.0 104.6Q60.7 104.8 60.3 105.0Q59.9 105.2 59.4 105.2ZM59.6 104.2L59.6 104.2Q60.1 104.2 60.6 104.0Q61.0 103.8 61.2 103.4Q61.4 103.0 61.4 102.6L61.4 102.6L61.4 101.7Q61.3 101.8 61.1 101.9Q60.9 101.9 60.6 102.0Q60.3 102.0 60.1 102.0Q59.8 102.1 59.6 102.1L59.6 102.1Q59.3 102.1 58.9 102.3Q58.6 102.4 58.4 102.6Q58.2 102.8 58.2 103.2L58.2 103.2Q58.2 103.5 58.4 103.8Q58.6 104.0 58.9 104.1Q59.2 104.2 59.6 104.2ZM66.5 105.1L66.5 105.1Q65.8 105.1 65.3 104.8Q64.8 104.5 64.6 104.0Q64.3 103.4 64.3 102.6L64.3 102.6L64.3 98.4L65.3 98.4L65.3 102.5Q65.3 103.3 65.7 103.7Q66.1 104.1 66.8 104.1L66.8 104.1Q67.3 104.1 67.7 103.9Q68.0 103.7 68.3 103.3Q68.5 102.9 68.5 102.4L68.5 102.4L68.5 98.4L69.5 98.4L69.5 105L68.5 105L68.5 103.8Q68.2 104.4 67.8 104.7L67.8 104.7Q67.2 105.1 66.5 105.1ZM72.4 105L71.4 105L71.4 98.4L72.4 98.4L72.4 99.5L72.5 99.5Q72.7 99.0 73.1 98.7Q73.6 98.4 74.2 98.4L74.2 98.4Q74.3 98.4 74.4 98.4Q74.6 98.4 74.7 98.4L74.7 98.4L74.7 99.4Q74.7 99.4 74.5 99.4Q74.3 99.4 74.1 99.4L74.1 99.4Q73.6 99.4 73.2 99.6Q72.9 99.8 72.6 100.1Q72.4 100.5 72.4 100.9L72.4 100.9L72.4 105ZM77.7 105.2L77.7 105.2Q77.1 105.2 76.6 104.9Q76.1 104.7 75.8 104.2Q75.5 103.8 75.5 103.1L75.5 103.1Q75.5 102.6 75.7 102.2Q75.9 101.9 76.3 101.7Q76.7 101.5 77.1 101.4Q77.6 101.3 78.0 101.2L78.0 101.2Q78.6 101.1 79.0 101.1Q79.4 101.1 79.5 101.0Q79.7 100.9 79.7 100.6L79.7 100.6L79.7 100.6Q79.7 100.2 79.6 99.9Q79.4 99.6 79.1 99.4Q78.8 99.3 78.4 99.3L78.4 99.3Q77.9 99.3 77.6 99.4Q77.2 99.6 77.0 99.8Q76.8 100.0 76.7 100.3L76.7 100.3L75.7 99.9Q75.9 99.3 76.4 99.0Q76.8 98.6 77.3 98.5Q77.8 98.4 78.3 98.4L78.3 98.4Q78.7 98.4 79.1 98.4Q79.5 98.5 79.9 98.8Q80.3 99.0 80.5 99.5Q80.8 99.9 80.8 100.7L80.8 100.7L80.8 105L79.7 105L79.7 104.1L79.7 104.1Q79.6 104.3 79.3 104.6Q79.1 104.8 78.7 105.0Q78.3 105.2 77.7 105.2ZM77.9 104.2L77.9 104.2Q78.5 104.2 78.9 104.0Q79.3 103.8 79.5 103.4Q79.7 103.0 79.7 102.6L79.7 102.6L79.7 101.7Q79.7 101.8 79.4 101.9Q79.2 101.9 79.0 102.0Q78.7 102.0 78.4 102.0Q78.2 102.1 78 102.1L78 102.1Q77.6 102.1 77.3 102.3Q77.0 102.4 76.8 102.6Q76.6 102.8 76.6 103.2L76.6 103.2Q76.6 103.5 76.7 103.8Q76.9 104.0 77.2 104.1Q77.5 104.2 77.9 104.2Z "/></g><mask id="satori_om-id-0-3"><rect x="45" y="108" width="198" height="15" fill="#fff"/></mask><g  ><path fill="#8b949e" d="M51.6 119.7L46.0 117.0L46.0 116.2L51.6 113.4L51.6 114.6L47.4 116.6L47.4 116.6L51.6 118.6L51.6 119.7ZM57.5 120.1L57.5 120.1Q56.4 120.1 55.5 119.6Q54.7 119.0 54.2 118.0Q53.7 117.0 53.7 115.6L53.7 115.6Q53.7 114.3 54.2 113.2Q54.7 112.2 55.5 111.7Q56.4 111.2 57.5 111.2L57.5 111.2Q58.2 111.2 58.8 111.3Q59.4 111.5 59.8 111.9Q60.3 112.3 60.6 112.8Q60.9 113.3 61.0 114.0L61.0 114.0L59.9 114.0Q59.8 113.6 59.6 113.2Q59.4 112.9 59.1 112.7Q58.7 112.4 58.3 112.3Q58.0 112.2 57.5 112.2L57.5 112.2Q56.7 112.2 56.1 112.6Q55.5 113.0 55.1 113.8Q54.7 114.5 54.7 115.6L54.7 115.6Q54.7 116.8 55.1 117.5Q55.5 118.3 56.1 118.7Q56.7 119.1 57.5 119.1L57.5 119.1Q58.0 119.1 58.3 119.0Q58.7 118.8 59.1 118.6Q59.4 118.4 59.6 118.0Q59.8 117.7 59.9 117.3L59.9 117.3L61.0 117.3Q60.9 117.9 60.6 118.4Q60.3 119.0 59.8 119.3Q59.4 119.7 58.8 119.9Q58.2 120.1 57.5 120.1ZM64.5 120.2L64.5 120.2Q63.8 120.2 63.3 119.9Q62.8 119.7 62.5 119.2Q62.2 118.8 62.2 118.1L62.2 118.1Q62.2 117.6 62.5 117.2Q62.7 116.9 63.0 116.7Q63.4 116.5 63.9 116.4Q64.3 116.3 64.8 116.2L64.8 116.2Q65.4 116.1 65.7 116.1Q66.1 116.1 66.3 116.0Q66.5 115.9 66.5 115.6L66.5 115.6L66.5 115.6Q66.5 115.2 66.3 114.9Q66.2 114.6 65.9 114.4Q65.5 114.3 65.1 114.3L65.1 114.3Q64.6 114.3 64.3 114.4Q64.0 114.6 63.7 114.8Q63.5 115.0 63.4 115.3L63.4 115.3L62.4 114.9Q62.7 114.3 63.1 114.0Q63.5 113.6 64.0 113.5Q64.6 113.4 65.1 113.4L65.1 113.4Q65.4 113.4 65.8 113.4Q66.2 113.5 66.6 113.8Q67.0 114.0 67.3 114.5Q67.5 114.9 67.5 115.7L67.5 115.7L67.5 120L66.5 120L66.5 119.1L66.4 119.1Q66.3 119.3 66.1 119.6Q65.8 119.8 65.4 120.0Q65.0 120.2 64.5 120.2ZM64.6 119.2L64.6 119.2Q65.2 119.2 65.6 119.0Q66.0 118.8 66.3 118.4Q66.5 118.0 66.5 117.6L66.5 117.6L66.5 116.7Q66.4 116.8 66.2 116.9Q66.0 116.9 65.7 117.0Q65.4 117.0 65.1 117.0Q64.9 117.1 64.7 117.1L64.7 117.1Q64.4 117.1 64.0 117.3Q63.7 117.4 63.5 117.6Q63.3 117.8 63.3 118.2L63.3 118.2Q63.3 118.5 63.5 118.8Q63.6 119.0 63.9 119.1Q64.3 119.2 64.6 119.2ZM70.4 120L69.4 120L69.4 113.4L70.4 113.4L70.4 114.5L70.5 114.5Q70.6 114.0 71.1 113.7Q71.6 113.4 72.2 113.4L72.2 113.4Q72.3 113.4 72.4 113.4Q72.6 113.4 72.7 113.4L72.7 113.4L72.7 114.4Q72.6 114.4 72.5 114.4Q72.3 114.4 72.1 114.4L72.1 114.4Q71.6 114.4 71.2 114.6Q70.8 114.8 70.6 115.1Q70.4 115.5 70.4 115.9L70.4 115.9L70.4 120ZM76.3 120.1L76.3 120.1Q75.5 120.1 74.9 119.7Q74.3 119.3 73.9 118.5Q73.6 117.8 73.6 116.7L73.6 116.7Q73.6 115.7 73.9 114.9Q74.3 114.2 74.9 113.8Q75.5 113.4 76.3 113.4L76.3 113.4Q77.0 113.4 77.4 113.6Q77.7 113.8 77.9 114.1Q78.1 114.3 78.2 114.5L78.2 114.5L78.3 114.5L78.3 111.3L79.4 111.3L79.4 120L78.4 120L78.4 119.0L78.2 119.0Q78.1 119.2 77.9 119.4Q77.7 119.7 77.3 119.9Q77.0 120.1 76.3 120.1ZM76.5 119.2L76.5 119.2Q77.1 119.2 77.5 118.9Q77.9 118.6 78.1 118.0Q78.3 117.5 78.3 116.7L78.3 116.7Q78.3 116.0 78.1 115.5Q77.9 114.9 77.5 114.6Q77.1 114.3 76.5 114.3L76.5 114.3Q75.9 114.3 75.5 114.6Q75.1 115.0 74.8 115.5Q74.6 116.1 74.6 116.7L74.6 116.7Q74.6 117.4 74.9 118.0Q75.1 118.5 75.5 118.9Q75.9 119.2 76.5 119.2Z M86.8 110.9L87.7 110.9L84.9 121.3L84.0 121.3L86.8 110.9ZM94.9 116.2L94.9 117.0L89.4 119.7L89.4 118.6L93.6 116.6L93.6 116.6L89.4 114.6L89.4 113.4L94.9 116.2Z "/></g><mask id="satori_om-id-0-4"><rect x="45" y="123" width="198" height="15" fill="#fff"/></mask><g  ><path fill="#58a6ff" d="M47.9 127.6L47.0 127.6L45.9 125.9L47.1 125.9L47.9 127.6ZM51.8 127.6L50.9 127.6L49.8 125.9L50.9 125.9L51.8 127.6ZM55.6 127.6L54.8 127.6L53.6 125.9L54.8 125.9L55.6 127.6Z "/></g><defs><clipPath id="satori_bc-id-1"><path x="280" y="24" width="240" height="172" d="M292,24 h216 a12,12 0 0 1 12,12 v148 a12,12 0 0 1 -12,12 h-216 a12,12 0 0 1 -12,-12 v-148 a12,12 0 0 1 12,-12"/></clipPath></defs><mask id="satori_om-id-1"><rect x="281" y="25" width="238" height="170" fill="#fff"/><path width="240" height="172" fill="none" stroke="#000" stroke-width="2" d="M283.515,27.515 A12,12 0 0 1 292,24 h216 a12,12 0 0 1 12,12 v148 a12,12 0 0 1 -12,12 h-216 a12,12 0 0 1 -12,-12 v-148 A12,12 0 0 1 283.515,27.515"/></mask><path x="280" y="24" width="240" height="172" fill="#161b22" d="M292,24 h216 a12,12 0 0 1 12,12 v148 a12,12 0 0 1 -12,12 h-216 a12,12 0 0 1 -12,-12 v-148 a12,12 0 0 1 12,-12"/><path width="240" height="172" clip-path="url(#satori_bc-id-1)" fill="none" stroke="#30363d" stroke-width="2" d="M283.515,27.515 A12,12 0 0 1 292,24 h216 a12,12 0 0 1 12,12 v148 a12,12 0 0 1 -12,12 h-216 a12,12 0 0 1 -12,-12 v-148 A12,12 0 0 1 283.515,27.515"/><mask id="satori_om-id-1-0"><rect x="301" y="45" width="198" height="13" fill="#fff"/></mask><g  ><path fill="#8b949e" d="M304.5 56.1L304.5 56.1Q303.7 56.1 303.0 55.9Q302.4 55.6 302.0 55.1Q301.7 54.6 301.6 53.9L301.6 53.9L302.7 53.9Q302.7 54.4 303.0 54.6Q303.2 54.9 303.7 55.1Q304.1 55.2 304.5 55.2L304.5 55.2Q305.1 55.2 305.5 55.0Q305.9 54.9 306.2 54.5Q306.4 54.2 306.4 53.8L306.4 53.8Q306.4 53.4 306.2 53.2Q306.0 52.9 305.6 52.8Q305.3 52.6 304.9 52.5L304.9 52.5L303.9 52.2Q302.9 52.0 302.4 51.4Q301.8 50.9 301.8 50.1L301.8 50.1Q301.8 49.5 302.2 49.0Q302.6 48.4 303.2 48.2Q303.8 47.9 304.6 47.9L304.6 47.9Q305.4 47.9 306.0 48.2Q306.6 48.4 307.0 48.9Q307.3 49.4 307.3 50.0L307.3 50.0L306.3 50.0Q306.3 49.4 305.8 49.1Q305.3 48.8 304.6 48.8L304.6 48.8Q304.1 48.8 303.7 49.0Q303.3 49.1 303.1 49.4Q302.8 49.7 302.8 50.1L302.8 50.1Q302.8 50.5 303.1 50.8Q303.4 51.0 303.7 51.2Q304.1 51.3 304.4 51.4L304.4 51.4L305.2 51.6Q305.5 51.7 305.9 51.8Q306.3 52.0 306.6 52.2Q307.0 52.5 307.2 52.9Q307.4 53.3 307.4 53.8L307.4 53.8Q307.4 54.5 307.1 55.0Q306.8 55.5 306.1 55.8Q305.5 56.1 304.5 56.1ZM312.1 48.9L309.6 48.9L309.6 48.0L315.6 48.0L315.6 48.9L313.1 48.9L313.1 56L312.1 56L312.1 48.9ZM323.1 56L318.1 56L318.1 48.0L323.0 48.0L323.0 48.9L319.1 48.9L319.1 51.5L322.7 51.5L322.7 52.4L319.1 52.4L319.1 55.1L323.1 55.1L323.1 56ZM326.8 56L325.7 56L325.7 48.0L328.5 48.0Q329.4 48.0 330.0 48.3Q330.6 48.7 330.9 49.3Q331.2 49.8 331.2 50.5Q331.2 51.3 330.9 51.8Q330.6 52.4 330.0 52.8Q329.4 53.1 328.5 53.1L328.5 53.1L326.8 53.1L326.8 56ZM326.8 48.9L326.8 52.2L328.4 52.2Q329.1 52.2 329.5 52.0Q329.8 51.8 330.0 51.4Q330.2 51.0 330.2 50.5Q330.2 50.1 330.0 49.7Q329.8 49.3 329.5 49.1Q329.1 48.9 328.4 48.9L328.4 48.9L326.8 48.9Z M342.8 56L337.7 56L337.7 55.3L340.4 52.4Q340.8 51.9 341.1 51.5Q341.4 51.2 341.6 50.8Q341.7 50.5 341.7 50.1L341.7 50.1Q341.7 49.7 341.5 49.4Q341.3 49.1 341.0 48.9Q340.6 48.8 340.2 48.8L340.2 48.8Q339.8 48.8 339.4 49.0Q339.1 49.1 338.9 49.5Q338.7 49.8 338.7 50.3L338.7 50.3L337.7 50.3Q337.7 49.6 338.1 49.0Q338.4 48.5 339.0 48.2Q339.5 47.9 340.2 47.9L340.2 47.9Q340.9 47.9 341.5 48.2Q342.1 48.5 342.4 49.0Q342.7 49.5 342.7 50.1L342.7 50.1Q342.7 50.6 342.5 51.0Q342.4 51.4 342.0 51.9Q341.6 52.4 340.9 53.2L340.9 53.2L339.1 55.0L339.1 55.1L342.8 55.1L342.8 56Z "/></g><mask id="satori_om-id-1-1"><rect x="301" y="66" width="198" height="19" fill="#fff"/></mask><g  ><path fill="#c9d1d9" d="M307.0 82L302.1 82L302.1 70.4L306.7 70.4Q308.0 70.4 308.8 70.7Q309.7 71.1 310.1 71.8Q310.5 72.5 310.5 73.4L310.5 73.4Q310.5 74.0 310.2 74.6Q310.0 75.1 309.5 75.4Q309.0 75.7 308.4 75.9L308.4 75.9L308.4 76.0Q309.1 76.0 309.7 76.3Q310.2 76.7 310.6 77.3Q311.0 77.9 311.0 78.8L311.0 78.8Q311.0 79.7 310.5 80.4Q310.1 81.2 309.2 81.6Q308.3 82 307.0 82L307.0 82ZM304.4 76.9L304.4 80.0L306.5 80.0Q307.5 80.0 308.0 79.6Q308.5 79.2 308.5 78.6L308.5 78.6Q308.5 78.1 308.3 77.7Q308.0 77.3 307.6 77.1Q307.2 76.9 306.6 76.9L306.6 76.9L304.4 76.9ZM304.4 72.3L304.4 75.3L306.3 75.3Q306.8 75.3 307.2 75.1Q307.6 74.9 307.9 74.5Q308.1 74.2 308.1 73.7L308.1 73.7Q308.1 73.1 307.7 72.7Q307.2 72.3 306.4 72.3L306.4 72.3L304.4 72.3ZM315.6 82.1L315.6 82.1Q314.7 82.1 314.0 81.7Q313.3 81.3 313.0 80.6Q312.6 79.8 312.6 78.8L312.6 78.8L312.6 73.3L314.9 73.3L314.9 78.4Q314.9 79.2 315.4 79.7Q315.8 80.1 316.5 80.1L316.5 80.1Q317.0 80.1 317.4 79.9Q317.8 79.7 318.0 79.3Q318.2 78.9 318.2 78.3L318.2 78.3L318.2 73.3L320.6 73.3L320.6 82L318.3 82L318.3 80.2Q318.0 81.0 317.4 81.5L317.4 81.5Q316.7 82.1 315.6 82.1ZM324.9 82L322.5 82L322.5 73.3L324.9 73.3L324.9 82ZM323.7 72.1L323.7 72.1Q323.2 72.1 322.8 71.8Q322.4 71.4 322.4 70.9L322.4 70.9Q322.4 70.4 322.8 70.1Q323.2 69.7 323.7 69.7L323.7 69.7Q324.3 69.7 324.6 70.1Q325.0 70.4 325.0 70.9L325.0 70.9Q325.0 71.4 324.6 71.8Q324.3 72.1 323.7 72.1ZM326.9 70.4L329.2 70.4L329.2 82L326.9 82L326.9 70.4ZM334.4 82.1L334.4 82.1Q333.4 82.1 332.6 81.6Q331.8 81.1 331.3 80.1Q330.9 79.1 330.9 77.6L330.9 77.6Q330.9 76.2 331.3 75.2Q331.8 74.2 332.6 73.7Q333.4 73.2 334.4 73.2L334.4 73.2Q335.1 73.2 335.6 73.4Q336.1 73.7 336.4 74.0Q336.7 74.4 336.9 74.7L336.9 74.7L337.0 74.7L337.0 70.4L339.3 70.4L339.3 82L337 82L337 80.6L336.9 80.6Q336.7 81.0 336.4 81.3Q336.1 81.7 335.6 81.9Q335.1 82.1 334.4 82.1ZM335.1 80.3L335.1 80.3Q335.7 80.3 336.1 79.9Q336.6 79.6 336.8 79.0Q337.0 78.4 337.0 77.6L337.0 77.6Q337.0 76.8 336.8 76.3Q336.6 75.7 336.2 75.4Q335.7 75.0 335.1 75.0L335.1 75.0Q334.5 75.0 334.1 75.4Q333.7 75.7 333.5 76.3Q333.3 76.9 333.3 77.6L333.3 77.6Q333.3 78.4 333.5 79Q333.7 79.6 334.1 79.9Q334.5 80.3 335.1 80.3Z "/></g><mask id="satori_om-id-1-2"><rect x="301" y="93" width="198" height="16" fill="#fff"/></mask><g  ><path fill="#7ee787" d="M305.6 107.4L304.8 107.4L304.8 106.2Q304.0 106.1 303.4 105.8L303.4 105.8Q302.6 105.5 302.2 104.9Q301.8 104.3 301.7 103.5L301.7 103.5L303.0 103.5Q303.0 104.1 303.3 104.4Q303.6 104.7 304.1 104.9L304.1 104.9Q304.4 105.0 304.8 105.1L304.8 105.1L304.8 101.7L304.4 101.5Q303.3 101.2 302.6 100.6Q302.0 100.0 302.0 99.1L302.0 99.1Q302.0 98.3 302.4 97.7Q302.9 97.1 303.6 96.7L303.6 96.7Q304.1 96.5 304.8 96.4L304.8 96.4L304.8 95.2L305.6 95.2L305.6 96.4Q306.3 96.5 306.9 96.7L306.9 96.7Q307.6 97.1 308.0 97.6Q308.5 98.2 308.5 98.9L308.5 98.9L307.3 98.9Q307.2 98.2 306.6 97.9L306.6 97.9Q306.2 97.6 305.6 97.5L305.6 97.5L305.6 100.7L305.9 100.8Q306.3 100.9 306.8 101.1Q307.2 101.3 307.6 101.6Q308.1 101.9 308.3 102.3Q308.6 102.8 308.6 103.4L308.6 103.4Q308.6 104.2 308.2 104.8Q307.8 105.4 307.0 105.8L307.0 105.8Q306.4 106.1 305.6 106.2L305.6 106.2L305.6 107.4ZM305.6 101.9L305.6 105.1Q306.0 105.0 306.3 104.9L306.3 104.9Q306.8 104.7 307.1 104.3Q307.4 103.9 307.4 103.4L307.4 103.4Q307.4 102.9 307.2 102.7Q306.9 102.4 306.5 102.2Q306.1 102.0 305.6 101.9L305.6 101.9L305.6 101.9ZM304.8 100.5L304.8 100.5L304.8 97.5Q304.4 97.6 304.1 97.7L304.1 97.7Q303.7 97.9 303.4 98.2Q303.2 98.6 303.2 99.0L303.2 99.0Q303.2 99.5 303.5 99.8Q303.8 100.1 304.2 100.3L304.2 100.3Q304.5 100.4 304.8 100.5Z M315.1 106L314 106L314 98.9L315.1 98.9L315.1 100.0L315.2 100.0Q315.4 99.5 315.9 99.1Q316.4 98.8 317.0 98.8L317.0 98.8Q317.1 98.8 317.3 98.8Q317.5 98.8 317.6 98.8L317.6 98.8L317.6 100.0Q317.5 100.0 317.3 99.9Q317.1 99.9 316.9 99.9L316.9 99.9Q316.4 99.9 316.0 100.1Q315.6 100.3 315.4 100.7Q315.1 101.1 315.1 101.6L315.1 101.6L315.1 106ZM321.9 106.2L321.9 106.2Q320.8 106.2 320.1 105.7Q319.4 105.2 319.0 104.4Q318.6 103.6 318.6 102.5Q318.6 101.4 318.9 100.6Q319.3 99.8 320.1 99.3Q320.8 98.8 321.7 98.8L321.7 98.8Q322.3 98.8 322.9 99.0Q323.4 99.2 323.9 99.6Q324.3 100.0 324.6 100.7Q324.8 101.4 324.8 102.4L324.8 102.4L324.8 102.8L319.7 102.8Q319.7 103.5 320.0 104.0L320.0 104.0Q320.3 104.6 320.7 104.9Q321.2 105.1 321.9 105.1L321.9 105.1Q322.3 105.1 322.6 105.0Q323.0 104.9 323.2 104.7Q323.5 104.4 323.6 104.0L323.6 104.0L324.7 104.3Q324.6 104.9 324.2 105.3Q323.8 105.7 323.2 105.9Q322.6 106.2 321.9 106.2ZM319.7 101.9L319.7 101.9L323.7 101.9Q323.6 101.4 323.5 101.0L323.5 101.0Q323.2 100.4 322.8 100.1Q322.4 99.8 321.7 99.8Q321.1 99.8 320.6 100.1Q320.2 100.5 319.9 101.0L319.9 101.0Q319.7 101.4 319.7 101.9ZM328.5 106.2L328.5 106.2Q327.8 106.2 327.2 105.9Q326.7 105.7 326.4 105.2Q326.0 104.7 326.0 104.0L326.0 104.0Q326.0 103.4 326.3 103.0Q326.5 102.6 326.9 102.4Q327.3 102.2 327.8 102.1Q328.3 102.0 328.8 101.9L328.8 101.9Q329.4 101.8 329.8 101.8Q330.2 101.7 330.4 101.6Q330.6 101.5 330.6 101.2L330.6 101.2L330.6 101.2Q330.6 100.8 330.5 100.5Q330.3 100.1 330.0 100.0Q329.6 99.8 329.1 99.8L329.1 99.8Q328.6 99.8 328.3 100.0Q327.9 100.1 327.7 100.4Q327.5 100.6 327.3 100.9L327.3 100.9L326.2 100.5Q326.5 99.8 327.0 99.5Q327.4 99.1 328.0 99.0Q328.6 98.8 329.1 98.8L329.1 98.8Q329.5 98.8 329.9 98.9Q330.4 99.0 330.8 99.2Q331.2 99.5 331.5 100.0Q331.8 100.5 331.8 101.3L331.8 101.3L331.8 106L330.6 106L330.6 105.0L330.6 105.0Q330.4 105.3 330.2 105.5Q329.9 105.8 329.5 106.0Q329.1 106.2 328.5 106.2ZM328.7 105.2L328.7 105.2Q329.3 105.2 329.7 104.9Q330.2 104.7 330.4 104.3Q330.6 103.9 330.6 103.4L330.6 103.4L330.6 102.5Q330.6 102.5 330.3 102.6Q330.1 102.7 329.8 102.7Q329.5 102.8 329.2 102.8Q328.9 102.8 328.8 102.9L328.8 102.9Q328.3 102.9 328.0 103.0Q327.6 103.2 327.4 103.4Q327.2 103.6 327.2 104.0L327.2 104.0Q327.2 104.4 327.4 104.7Q327.6 104.9 327.9 105.0Q328.2 105.2 328.7 105.2ZM336.4 106.2L336.4 106.2Q335.6 106.2 334.9 105.7Q334.2 105.3 333.8 104.4Q333.4 103.6 333.4 102.5L333.4 102.5Q333.4 101.3 333.8 100.5Q334.2 99.7 334.9 99.3Q335.6 98.8 336.4 98.8L336.4 98.8Q337.1 98.8 337.5 99.0Q337.9 99.3 338.2 99.6Q338.4 99.8 338.5 100.0L338.5 100.0L338.6 100.0L338.6 96.5L339.7 96.5L339.7 106L338.6 106L338.6 104.9L338.5 104.9Q338.4 105.1 338.2 105.4Q337.9 105.7 337.5 105.9Q337.1 106.2 336.4 106.2ZM336.6 105.1L336.6 105.1Q337.3 105.1 337.7 104.8Q338.1 104.5 338.4 103.8Q338.6 103.2 338.6 102.5L338.6 102.5Q338.6 101.7 338.4 101.1Q338.1 100.5 337.7 100.2Q337.3 99.8 336.6 99.8L336.6 99.8Q335.9 99.8 335.5 100.2Q335.0 100.5 334.8 101.1Q334.6 101.7 334.6 102.5L334.6 102.5Q334.6 103.2 334.8 103.8Q335.0 104.4 335.5 104.8Q335.9 105.1 336.6 105.1ZM342.9 106L341.7 106L341.7 98.9L342.8 98.9L342.9 100.2Q343.0 99.8 343.2 99.5L343.2 99.5Q343.5 99.2 344.0 99.0Q344.4 98.8 344.8 98.8L344.8 98.8Q345.6 98.8 346.1 99.3L346.1 99.3Q346.5 99.6 346.6 100.2L346.6 100.2Q346.8 99.9 347.0 99.6L347.0 99.6Q347.4 99.2 347.8 99.0Q348.3 98.8 348.9 98.8L348.9 98.8Q349.5 98.8 350.0 99.0Q350.5 99.3 350.8 99.8Q351.1 100.4 351.1 101.2L351.1 101.2L351.1 106L350.0 106L350.0 101.2Q350.0 100.5 349.5 100.1Q349.1 99.8 348.5 99.8L348.5 99.8Q348.1 99.8 347.7 100.0Q347.4 100.2 347.2 100.6Q347.0 100.9 347.0 101.4L347.0 101.4L347.0 106L345.9 106L345.9 101.1Q345.9 100.5 345.5 100.2Q345.1 99.8 344.5 99.8L344.5 99.8Q344.0 99.8 343.7 100.0Q343.3 100.2 343.1 100.6Q342.9 101.0 342.9 101.5L342.9 101.5L342.9 106ZM356.1 106.2L356.1 106.2Q355.1 106.2 354.3 105.7Q353.6 105.2 353.2 104.4Q352.8 103.6 352.8 102.5Q352.8 101.4 353.2 100.6Q353.6 99.8 354.3 99.3Q355.0 98.8 356.0 98.8L356.0 98.8Q356.5 98.8 357.1 99.0Q357.6 99.2 358.1 99.6Q358.5 100.0 358.8 100.7Q359.1 101.4 359.1 102.4L359.1 102.4L359.1 102.8L353.9 102.8Q354.0 103.5 354.2 104.0L354.2 104.0Q354.5 104.6 355.0 104.9Q355.5 105.1 356.1 105.1L356.1 105.1Q356.5 105.1 356.9 105.0Q357.2 104.9 357.5 104.7Q357.7 104.4 357.8 104.0L357.8 104.0L358.9 104.3Q358.8 104.9 358.4 105.3Q358.0 105.7 357.4 105.9Q356.8 106.2 356.1 106.2ZM353.9 101.9L353.9 101.9L357.9 101.9Q357.9 101.4 357.7 101.0L357.7 101.0Q357.5 100.4 357.0 100.1Q356.6 99.8 356.0 99.8Q355.3 99.8 354.9 100.1Q354.4 100.5 354.2 101.0L354.2 101.0Q354.0 101.4 353.9 101.9ZM360.6 101.4L364.8 101.4L364.8 102.5L360.6 102.5L360.6 101.4ZM368.7 106.2L368.7 106.2Q368.0 106.2 367.4 105.9Q366.9 105.7 366.6 105.2Q366.2 104.7 366.2 104.0L366.2 104.0Q366.2 103.4 366.5 103.0Q366.7 102.6 367.1 102.4Q367.5 102.2 368.0 102.1Q368.5 102.0 369.0 101.9L369.0 101.9Q369.6 101.8 370.0 101.8Q370.4 101.7 370.6 101.6Q370.8 101.5 370.8 101.2L370.8 101.2L370.8 101.2Q370.8 100.8 370.7 100.5Q370.5 100.1 370.2 100.0Q369.8 99.8 369.3 99.8L369.3 99.8Q368.8 99.8 368.5 100.0Q368.1 100.1 367.9 100.4Q367.7 100.6 367.5 100.9L367.5 100.9L366.5 100.5Q366.7 99.8 367.2 99.5Q367.7 99.1 368.2 99.0Q368.8 98.8 369.3 98.8L369.3 98.8Q369.7 98.8 370.1 98.9Q370.6 99.0 371.0 99.2Q371.4 99.5 371.7 100.0Q372.0 100.5 372.0 101.3L372.0 101.3L372.0 106L370.8 106L370.8 105.0L370.8 105.0Q370.7 105.3 370.4 105.5Q370.1 105.8 369.7 106.0Q369.3 106.2 368.7 106.2ZM368.9 105.2L368.9 105.2Q369.5 105.2 369.9 104.9Q370.4 104.7 370.6 104.3Q370.8 103.9 370.8 103.4L370.8 103.4L370.8 102.5Q370.8 102.5 370.5 102.6Q370.3 102.7 370.0 102.7Q369.7 102.8 369.4 102.8Q369.1 102.8 369.0 102.9L369.0 102.9Q368.5 102.9 368.2 103.0Q367.8 103.2 367.6 103.4Q367.4 103.6 367.4 104.0L367.4 104.0Q367.4 104.4 367.6 104.7Q367.8 104.9 368.1 105.0Q368.4 105.2 368.9 105.2ZM376.4 106.1L376.4 106.1Q375.7 106.1 375.1 105.8Q374.6 105.5 374.3 104.9Q374.0 104.3 374.0 103.4L374.0 103.4L374.0 98.9L375.1 98.9L375.1 103.3Q375.1 104.1 375.6 104.6Q376.0 105.1 376.7 105.1L376.7 105.1Q377.2 105.1 377.6 104.8Q378.0 104.6 378.3 104.2Q378.5 103.8 378.5 103.2L378.5 103.2L378.5 98.9L379.7 98.9L379.7 106L378.6 106L378.6 104.7Q378.3 105.4 377.8 105.7L377.8 105.7Q377.2 106.1 376.4 106.1ZM382.8 106L381.7 106L381.7 98.9L382.8 98.9L382.8 100.0L382.8 100.0Q383.0 99.5 383.5 99.1Q384.1 98.8 384.7 98.8L384.7 98.8Q384.8 98.8 385.0 98.8Q385.2 98.8 385.3 98.8L385.3 98.8L385.3 100.0Q385.2 100.0 385.0 99.9Q384.8 99.9 384.6 99.9L384.6 99.9Q384.1 99.9 383.7 100.1Q383.3 100.3 383.0 100.7Q382.8 101.1 382.8 101.6L382.8 101.6L382.8 106ZM388.5 106.2L388.5 106.2Q387.9 106.2 387.3 105.9Q386.8 105.7 386.5 105.2Q386.1 104.7 386.1 104.0L386.1 104.0Q386.1 103.4 386.4 103.0Q386.6 102.6 387.0 102.4Q387.4 102.2 387.9 102.1Q388.4 102.0 388.9 101.9L388.9 101.9Q389.5 101.8 389.9 101.8Q390.3 101.7 390.5 101.6Q390.7 101.5 390.7 101.2L390.7 101.2L390.7 101.2Q390.7 100.8 390.5 100.5Q390.4 100.1 390.1 100.0Q389.7 99.8 389.2 99.8L389.2 99.8Q388.7 99.8 388.4 100.0Q388.0 100.1 387.8 100.4Q387.5 100.6 387.4 100.9L387.4 100.9L386.3 100.5Q386.6 99.8 387.1 99.5Q387.5 99.1 388.1 99.0Q388.6 98.8 389.2 98.8L389.2 98.8Q389.5 98.8 390.0 98.9Q390.5 99.0 390.9 99.2Q391.3 99.5 391.6 100.0Q391.9 100.5 391.9 101.3L391.9 101.3L391.9 106L390.7 106L390.7 105.0L390.7 105.0Q390.5 105.3 390.3 105.5Q390.0 105.8 389.6 106.0Q389.1 106.2 388.5 106.2ZM388.7 105.2L388.7 105.2Q389.4 105.2 389.8 104.9Q390.3 104.7 390.5 104.3Q390.7 103.9 390.7 103.4L390.7 103.4L390.7 102.5Q390.6 102.5 390.4 102.6Q390.2 102.7 389.9 102.7Q389.6 102.8 389.3 102.8Q389.0 102.8 388.8 102.9L388.8 102.9Q388.4 102.9 388.1 103.0Q387.7 103.2 387.5 103.4Q387.3 103.6 387.3 104.0L387.3 104.0Q387.3 104.4 387.5 104.7Q387.7 104.9 388.0 105.0Q388.3 105.2 388.7 105.2Z M400.8 106.2L400.8 106.2Q400.1 106.2 399.7 105.9Q399.3 105.7 399.1 105.4Q398.9 105.1 398.7 104.9L398.7 104.9L398.6 104.9L398.6 106L397.5 106L397.5 96.5L398.7 96.5L398.7 100.0L398.7 100.0Q398.9 99.8 399.1 99.6Q399.3 99.3 399.7 99.0Q400.1 98.8 400.8 98.8L400.8 98.8Q401.7 98.8 402.4 99.3Q403.0 99.7 403.4 100.5Q403.8 101.3 403.8 102.5L403.8 102.5Q403.8 103.6 403.4 104.4Q403.1 105.3 402.4 105.7Q401.7 106.2 400.8 106.2ZM400.6 105.1L400.6 105.1Q401.3 105.1 401.8 104.8Q402.2 104.4 402.4 103.8Q402.7 103.2 402.7 102.5L402.7 102.5Q402.7 101.7 402.4 101.1Q402.2 100.5 401.8 100.2Q401.3 99.8 400.6 99.8L400.6 99.8Q400.0 99.8 399.5 100.2Q399.1 100.5 398.9 101.1Q398.6 101.7 398.6 102.5L398.6 102.5Q398.6 103.2 398.9 103.8Q399.1 104.5 399.6 104.8Q400.0 105.1 400.6 105.1ZM407.9 106.1L407.9 106.1Q407.2 106.1 406.6 105.8Q406.1 105.5 405.8 104.9Q405.5 104.3 405.5 103.4L405.5 103.4L405.5 98.9L406.6 98.9L406.6 103.3Q406.6 104.1 407.1 104.6Q407.5 105.1 408.2 105.1L408.2 105.1Q408.7 105.1 409.1 104.8Q409.5 104.6 409.8 104.2Q410.0 103.8 410.0 103.2L410.0 103.2L410.0 98.9L411.2 98.9L411.2 106L410.1 106L410.1 104.7Q409.7 105.4 409.3 105.7L409.3 105.7Q408.7 106.1 407.9 106.1ZM414.3 106L413.2 106L413.2 98.9L414.3 98.9L414.3 106ZM413.7 97.7L413.7 97.7Q413.4 97.7 413.2 97.5Q412.9 97.3 412.9 97.0L412.9 97.0Q412.9 96.7 413.2 96.4Q413.4 96.2 413.7 96.2L413.7 96.2Q414.1 96.2 414.3 96.4Q414.5 96.7 414.5 97.0L414.5 97.0Q414.5 97.3 414.3 97.5Q414.1 97.7 413.7 97.7ZM416.3 96.5L417.5 96.5L417.5 106L416.3 106L416.3 96.5ZM422.1 106.2L422.1 106.2Q421.2 106.2 420.6 105.7Q419.9 105.3 419.5 104.4Q419.1 103.6 419.1 102.5L419.1 102.5Q419.1 101.3 419.5 100.5Q419.9 99.7 420.6 99.3Q421.2 98.8 422.1 98.8L422.1 98.8Q422.8 98.8 423.2 99.0Q423.6 99.3 423.8 99.6Q424.1 99.8 424.2 100.0L424.2 100.0L424.3 100.0L424.3 96.5L425.4 96.5L425.4 106L424.3 106L424.3 104.9L424.2 104.9Q424.1 105.1 423.8 105.4Q423.6 105.7 423.2 105.9Q422.8 106.2 422.1 106.2ZM422.3 105.1L422.3 105.1Q422.9 105.1 423.4 104.8Q423.8 104.5 424.1 103.8Q424.3 103.2 424.3 102.5L424.3 102.5Q424.3 101.7 424.1 101.1Q423.8 100.5 423.4 100.2Q422.9 99.8 422.3 99.8L422.3 99.8Q421.6 99.8 421.2 100.2Q420.7 100.5 420.5 101.1Q420.3 101.7 420.3 102.5L420.3 102.5Q420.3 103.2 420.5 103.8Q420.7 104.4 421.2 104.8Q421.6 105.1 422.3 105.1Z "/></g><mask id="satori_om-id-1-3"><rect x="301" y="117" width="198" height="15" fill="#fff"/></mask><g  ><path fill="#8b949e" d="M304.8 129.2L304.8 129.2Q303.9 129.2 303.2 128.8Q302.5 128.5 302.1 128.0Q301.7 127.4 301.7 126.7L301.7 126.7L302.8 126.7Q302.9 127.2 303.2 127.5Q303.4 127.8 303.9 128.0Q304.3 128.2 304.8 128.2L304.8 128.2Q305.4 128.2 305.9 128.0Q306.4 127.8 306.7 127.4Q306.9 127.1 306.9 126.6L306.9 126.6Q306.9 126.2 306.7 125.9Q306.5 125.7 306.1 125.5Q305.7 125.3 305.2 125.2L305.2 125.2L304.2 124.9Q303.1 124.6 302.5 124.0Q301.9 123.5 301.9 122.6L301.9 122.6Q301.9 121.9 302.3 121.3Q302.7 120.8 303.4 120.5Q304.1 120.2 304.9 120.2L304.9 120.2Q305.8 120.2 306.4 120.5Q307.1 120.8 307.5 121.3Q307.9 121.8 307.9 122.5L307.9 122.5L306.8 122.5Q306.7 121.8 306.2 121.5Q305.7 121.1 304.9 121.1L304.9 121.1Q304.3 121.1 303.9 121.3Q303.5 121.5 303.2 121.8Q303.0 122.1 303.0 122.6L303.0 122.6Q303.0 123.0 303.3 123.3Q303.6 123.6 304.0 123.7Q304.4 123.9 304.7 124.0L304.7 124.0L305.5 124.2Q305.9 124.3 306.3 124.5Q306.7 124.6 307.1 124.9Q307.5 125.2 307.8 125.6Q308.0 126.0 308.0 126.6L308.0 126.6Q308.0 127.3 307.6 127.9Q307.3 128.5 306.6 128.8Q305.9 129.2 304.8 129.2ZM311.5 129.2L311.5 129.2Q310.8 129.2 310.3 128.9Q309.8 128.7 309.5 128.2Q309.2 127.8 309.2 127.1L309.2 127.1Q309.2 126.6 309.4 126.2Q309.7 125.9 310.0 125.7Q310.4 125.5 310.9 125.4Q311.3 125.3 311.8 125.2L311.8 125.2Q312.4 125.1 312.7 125.1Q313.1 125.1 313.3 125.0Q313.5 124.9 313.5 124.6L313.5 124.6L313.5 124.6Q313.5 124.2 313.3 123.9Q313.2 123.6 312.8 123.4Q312.5 123.3 312.1 123.3L312.1 123.3Q311.6 123.3 311.3 123.4Q310.9 123.6 310.7 123.8Q310.5 124.0 310.4 124.3L310.4 124.3L309.4 123.9Q309.7 123.3 310.1 123.0Q310.5 122.6 311.0 122.5Q311.6 122.4 312.1 122.4L312.1 122.4Q312.4 122.4 312.8 122.4Q313.2 122.5 313.6 122.8Q314.0 123.0 314.3 123.5Q314.5 123.9 314.5 124.7L314.5 124.7L314.5 129L313.5 129L313.5 128.1L313.4 128.1Q313.3 128.3 313.0 128.6Q312.8 128.8 312.4 129.0Q312.0 129.2 311.5 129.2ZM311.6 128.2L311.6 128.2Q312.2 128.2 312.6 128.0Q313.0 127.8 313.2 127.4Q313.5 127.0 313.5 126.6L313.5 126.6L313.5 125.7Q313.4 125.8 313.2 125.9Q313.0 125.9 312.7 126.0Q312.4 126.0 312.1 126.0Q311.9 126.1 311.7 126.1L311.7 126.1Q311.3 126.1 311.0 126.3Q310.7 126.4 310.5 126.6Q310.3 126.8 310.3 127.2L310.3 127.2Q310.3 127.5 310.5 127.8Q310.6 128.0 310.9 128.1Q311.2 128.2 311.6 128.2ZM317.6 122.4L318.9 122.4L318.9 123.4L317.6 123.4L317.6 127.3Q317.6 127.7 317.8 127.9Q318.0 128.1 318.4 128.1L318.4 128.1Q318.5 128.1 318.6 128.1Q318.8 128.1 318.9 128.1L318.9 128.1L319.1 129.0Q319.0 129.0 318.8 129.1Q318.5 129.1 318.3 129.1L318.3 129.1Q317.5 129.1 317.0 128.6Q316.5 128.2 316.5 127.4L316.5 127.4L316.5 123.4L315.6 123.4L315.6 122.4L316.5 122.4L316.5 120.9L317.6 120.9L317.6 122.4ZM323.0 129.1L323.0 129.1Q322.1 129.1 321.4 128.7Q320.7 128.3 320.3 127.5Q320.0 126.8 320.0 125.8L320.0 125.8Q320.0 124.7 320.3 124.0Q320.7 123.2 321.4 122.8Q322.1 122.4 323.0 122.4L323.0 122.4Q323.9 122.4 324.5 122.8Q325.2 123.2 325.6 124.0Q325.9 124.7 325.9 125.8L325.9 125.8Q325.9 126.8 325.6 127.5Q325.2 128.3 324.5 128.7Q323.9 129.1 323.0 129.1ZM323.0 128.2L323.0 128.2Q323.6 128.2 324.0 127.9Q324.5 127.5 324.7 127.0Q324.9 126.4 324.9 125.8L324.9 125.8Q324.9 125.1 324.7 124.6Q324.5 124.0 324.0 123.7Q323.6 123.3 323.0 123.3L323.0 123.3Q322.3 123.3 321.9 123.7Q321.5 124.0 321.3 124.6Q321.0 125.1 321.0 125.8L321.0 125.8Q321.0 126.4 321.3 127.0Q321.5 127.5 321.9 127.9Q322.3 128.2 323.0 128.2ZM328.5 129L327.5 129L327.5 122.4L328.5 122.4L328.5 123.5L328.6 123.5Q328.8 123.0 329.2 122.7Q329.7 122.4 330.3 122.4L330.3 122.4Q330.4 122.4 330.6 122.4Q330.7 122.4 330.8 122.4L330.8 122.4L330.8 123.4Q330.8 123.4 330.6 123.4Q330.4 123.4 330.2 123.4L330.2 123.4Q329.7 123.4 329.3 123.6Q329.0 123.8 328.8 124.1Q328.5 124.5 328.5 124.9L328.5 124.9L328.5 129ZM333.1 129L332.0 129L332.0 122.4L333.1 122.4L333.1 129ZM332.5 121.4L332.5 121.4Q332.2 121.4 332.0 121.2Q331.8 121.0 331.8 120.7L331.8 120.7Q331.8 120.4 332.0 120.2Q332.2 120.0 332.5 120.0L332.5 120.0Q332.8 120.0 333.1 120.2Q333.3 120.4 333.3 120.7L333.3 120.7Q333.3 121.0 333.1 121.2Q332.8 121.4 332.5 121.4Z M339.3 129L338.3 129L338.3 122.4L339.3 122.4L339.3 123.5L339.4 123.5Q339.6 123.0 340.0 122.7Q340.5 122.4 341.1 122.4L341.1 122.4Q341.2 122.4 341.4 122.4Q341.5 122.4 341.6 122.4L341.6 122.4L341.6 123.4Q341.6 123.4 341.4 123.4Q341.2 123.4 341.0 123.4L341.0 123.4Q340.5 123.4 340.1 123.6Q339.8 123.8 339.5 124.1Q339.3 124.5 339.3 124.9L339.3 124.9L339.3 129ZM345.6 129.1L345.6 129.1Q344.6 129.1 343.9 128.7Q343.2 128.3 342.9 127.5Q342.5 126.8 342.5 125.8Q342.5 124.8 342.8 124.0Q343.2 123.2 343.9 122.8Q344.5 122.4 345.4 122.4L345.4 122.4Q346.0 122.4 346.5 122.5Q347.0 122.7 347.4 123.1Q347.8 123.5 348.0 124.1Q348.3 124.7 348.3 125.6L348.3 125.6L348.3 126.1L343.6 126.1Q343.6 126.7 343.8 127.2L343.8 127.2Q344.1 127.7 344.5 127.9Q345.0 128.2 345.6 128.2L345.6 128.2Q345.9 128.2 346.3 128.1Q346.6 128.0 346.8 127.8Q347.0 127.5 347.2 127.2L347.2 127.2L348.2 127.5Q348.0 128.0 347.7 128.3Q347.3 128.7 346.8 128.9Q346.2 129.1 345.6 129.1ZM343.6 125.2L343.6 125.2L347.2 125.2Q347.2 124.7 347.0 124.4L347.0 124.4Q346.8 123.9 346.4 123.6Q346.0 123.3 345.4 123.3Q344.8 123.3 344.4 123.6Q344.0 123.9 343.8 124.3L343.8 124.3Q343.6 124.7 343.6 125.2ZM350.9 125.1L350.9 125.1L350.9 129L349.8 129L349.8 122.4L350.8 122.4L350.8 123.7Q351.1 123.0 351.5 122.7L351.5 122.7Q352.1 122.4 352.8 122.4L352.8 122.4Q353.5 122.4 354.0 122.6Q354.5 122.9 354.8 123.5Q355.0 124.0 355.0 124.8L355.0 124.8L355.0 129L354.0 129L354.0 124.9Q354.0 124.2 353.6 123.7Q353.2 123.3 352.5 123.3L352.5 123.3Q352.0 123.3 351.7 123.5Q351.3 123.7 351.1 124.1Q350.9 124.5 350.9 125.1ZM359.3 129.1L359.3 129.1Q358.5 129.1 357.9 128.7Q357.3 128.3 356.9 127.5Q356.6 126.8 356.6 125.7L356.6 125.7Q356.6 124.7 356.9 123.9Q357.3 123.2 357.9 122.8Q358.5 122.4 359.3 122.4L359.3 122.4Q360.0 122.4 360.4 122.6Q360.7 122.8 360.9 123.1Q361.1 123.3 361.2 123.5L361.2 123.5L361.3 123.5L361.3 120.3L362.4 120.3L362.4 129L361.4 129L361.4 128.0L361.2 128.0Q361.1 128.2 360.9 128.4Q360.7 128.7 360.3 128.9Q360.0 129.1 359.3 129.1ZM359.5 128.2L359.5 128.2Q360.1 128.2 360.5 127.9Q360.9 127.6 361.1 127.0Q361.3 126.5 361.3 125.7L361.3 125.7Q361.3 125.0 361.1 124.5Q360.9 123.9 360.5 123.6Q360.1 123.3 359.5 123.3L359.5 123.3Q358.9 123.3 358.5 123.6Q358.1 124.0 357.8 124.5Q357.6 125.1 357.6 125.7L357.6 125.7Q357.6 126.4 357.9 127.0Q358.1 127.5 358.5 127.9Q358.9 128.2 359.5 128.2ZM367.0 129.1L367.0 129.1Q366.0 129.1 365.4 128.7Q364.7 128.3 364.3 127.5Q363.9 126.8 363.9 125.8Q363.9 124.8 364.3 124.0Q364.6 123.2 365.3 122.8Q366.0 122.4 366.9 122.4L366.9 122.4Q367.4 122.4 367.9 122.5Q368.4 122.7 368.8 123.1Q369.2 123.5 369.5 124.1Q369.7 124.7 369.7 125.6L369.7 125.6L369.7 126.1L365.0 126.1Q365.0 126.7 365.2 127.2L365.2 127.2Q365.5 127.7 365.9 127.9Q366.4 128.2 367.0 128.2L367.0 128.2Q367.4 128.2 367.7 128.1Q368.0 128.0 368.2 127.8Q368.5 127.5 368.6 127.2L368.6 127.2L369.6 127.5Q369.5 128.0 369.1 128.3Q368.7 128.7 368.2 128.9Q367.7 129.1 367.0 129.1ZM365.0 125.2L365.0 125.2L368.6 125.2Q368.6 124.7 368.5 124.4L368.5 124.4Q368.3 123.9 367.9 123.6Q367.5 123.3 366.9 123.3Q366.3 123.3 365.9 123.6Q365.4 123.9 365.2 124.3L365.2 124.3Q365.0 124.7 365.0 125.2ZM372.3 129L371.2 129L371.2 122.4L372.3 122.4L372.3 123.5L372.3 123.5Q372.5 123.0 373.0 122.7Q373.4 122.4 374.0 122.4L374.0 122.4Q374.1 122.4 374.3 122.4Q374.5 122.4 374.6 122.4L374.6 122.4L374.6 123.4Q374.5 123.4 374.3 123.4Q374.1 123.4 373.9 123.4L373.9 123.4Q373.5 123.4 373.1 123.6Q372.7 123.8 372.5 124.1Q372.3 124.5 372.3 124.9L372.3 124.9L372.3 129ZM378.0 129.1L378.0 129.1Q377.3 129.1 376.8 128.9Q376.3 128.7 375.9 128.4Q375.6 128.0 375.5 127.4L375.5 127.4L376.5 127.2Q376.6 127.7 377.0 128.0Q377.4 128.2 378.0 128.2L378.0 128.2Q378.6 128.2 379.1 127.9Q379.5 127.6 379.5 127.2L379.5 127.2Q379.5 126.9 379.2 126.7Q379.0 126.4 378.5 126.3L378.5 126.3L377.4 126.1Q376.5 125.9 376.1 125.4Q375.7 125.0 375.7 124.3L375.7 124.3Q375.7 123.7 376.0 123.3Q376.3 122.9 376.8 122.6Q377.4 122.4 378.1 122.4L378.1 122.4Q378.8 122.4 379.2 122.6Q379.7 122.8 380.0 123.1Q380.3 123.5 380.4 123.9L380.4 123.9L379.5 124.2Q379.3 123.8 379.0 123.6Q378.7 123.3 378.1 123.3L378.1 123.3Q377.5 123.3 377.1 123.5Q376.7 123.8 376.7 124.2L376.7 124.2Q376.7 124.6 377.0 124.8Q377.2 125.0 377.8 125.2L377.8 125.2L378.8 125.4Q379.7 125.6 380.1 126.0Q380.6 126.5 380.6 127.2L380.6 127.2Q380.6 127.7 380.2 128.2Q379.9 128.6 379.3 128.9Q378.7 129.1 378.0 129.1Z M387.7 129.1L387.7 129.1Q386.6 129.1 385.8 128.4Q385.1 127.8 385.1 126.5L385.1 126.5L385.1 126.0L386.2 126.0L386.2 126.5Q386.2 127.3 386.6 127.7Q387.1 128.1 387.7 128.1L387.7 128.1Q388.4 128.1 388.8 127.7Q389.2 127.3 389.2 126.5L389.2 126.5L389.2 120.3L390.3 120.3L390.3 126.5Q390.3 127.8 389.6 128.4Q388.9 129.1 387.7 129.1ZM395.2 129.2L395.2 129.2Q394.3 129.2 393.6 128.8Q392.9 128.5 392.5 128.0Q392.1 127.4 392.1 126.7L392.1 126.7L393.2 126.7Q393.3 127.2 393.5 127.5Q393.8 127.8 394.3 128.0Q394.7 128.2 395.2 128.2L395.2 128.2Q395.8 128.2 396.3 128.0Q396.8 127.8 397.0 127.4Q397.3 127.1 397.3 126.6L397.3 126.6Q397.3 126.2 397.1 125.9Q396.8 125.7 396.4 125.5Q396.1 125.3 395.6 125.2L395.6 125.2L394.5 124.9Q393.5 124.6 392.9 124.0Q392.3 123.5 392.3 122.6L392.3 122.6Q392.3 121.9 392.7 121.3Q393.1 120.8 393.8 120.5Q394.5 120.2 395.3 120.2L395.3 120.2Q396.2 120.2 396.8 120.5Q397.5 120.8 397.9 121.3Q398.3 121.8 398.3 122.5L398.3 122.5L397.2 122.5Q397.1 121.8 396.6 121.5Q396.1 121.1 395.3 121.1L395.3 121.1Q394.7 121.1 394.3 121.3Q393.9 121.5 393.6 121.8Q393.4 122.1 393.4 122.6L393.4 122.6Q393.4 123.0 393.7 123.3Q394.0 123.6 394.3 123.7Q394.7 123.9 395.1 124.0L395.1 124.0L395.9 124.2Q396.3 124.3 396.7 124.5Q397.1 124.6 397.5 124.9Q397.9 125.2 398.2 125.6Q398.4 126.0 398.4 126.6L398.4 126.6Q398.4 127.3 398.0 127.9Q397.7 128.5 396.9 128.8Q396.2 129.2 395.2 129.2ZM400.7 129L399.4 129L402.5 124.5L399.6 120.3L400.9 120.3L402.2 122.1Q402.4 122.5 402.6 122.8Q402.8 123.1 402.9 123.4L402.9 123.4Q403.1 123.6 403.2 123.8L403.2 123.8Q403.3 123.6 403.4 123.4L403.4 123.4Q403.6 123.1 403.8 122.8Q403.9 122.5 404.2 122.1L404.2 122.1L405.5 120.3L406.8 120.3L403.8 124.5L406.9 129L405.6 129L404.1 126.8Q403.9 126.4 403.7 126.2Q403.5 125.9 403.4 125.6L403.4 125.6Q403.3 125.5 403.2 125.3L403.2 125.3Q403.1 125.5 403.0 125.6L403.0 125.6Q402.8 125.9 402.7 126.1Q402.5 126.4 402.2 126.8L402.2 126.8L400.7 129Z M412.8 122.4L414.1 122.4L414.1 123.4L412.8 123.4L412.8 127.3Q412.8 127.7 413.0 127.9Q413.2 128.1 413.6 128.1L413.6 128.1Q413.7 128.1 413.8 128.1Q414.0 128.1 414.1 128.1L414.1 128.1L414.3 129.0Q414.2 129.0 414.0 129.1Q413.7 129.1 413.5 129.1L413.5 129.1Q412.7 129.1 412.2 128.6Q411.7 128.2 411.7 127.4L411.7 127.4L411.7 123.4L410.8 123.4L410.8 122.4L411.7 122.4L411.7 120.9L412.8 120.9L412.8 122.4ZM418.2 129.1L418.2 129.1Q417.3 129.1 416.6 128.7Q415.9 128.3 415.6 127.5Q415.2 126.8 415.2 125.8L415.2 125.8Q415.2 124.7 415.6 124.0Q415.9 123.2 416.6 122.8Q417.3 122.4 418.2 122.4L418.2 122.4Q419.1 122.4 419.7 122.8Q420.4 123.2 420.8 124.0Q421.2 124.7 421.2 125.8L421.2 125.8Q421.2 126.8 420.8 127.5Q420.4 128.3 419.7 128.7Q419.1 129.1 418.2 129.1ZM418.2 128.2L418.2 128.2Q418.8 128.2 419.2 127.9Q419.7 127.5 419.9 127.0Q420.1 126.4 420.1 125.8L420.1 125.8Q420.1 125.1 419.9 124.6Q419.7 124.0 419.2 123.7Q418.8 123.3 418.2 123.3L418.2 123.3Q417.5 123.3 417.1 123.7Q416.7 124.0 416.5 124.6Q416.2 125.1 416.2 125.8L416.2 125.8Q416.2 126.4 416.5 127.0Q416.7 127.5 417.1 127.9Q417.5 128.2 418.2 128.2Z M429.0 129.2L429.0 129.2Q428.0 129.2 427.3 128.8Q426.7 128.5 426.3 128.0Q425.9 127.4 425.8 126.7L425.8 126.7L427.0 126.7Q427.0 127.2 427.3 127.5Q427.6 127.8 428.0 128.0Q428.5 128.2 429.0 128.2L429.0 128.2Q429.6 128.2 430.0 128.0Q430.5 127.8 430.8 127.4Q431.1 127.1 431.1 126.6L431.1 126.6Q431.1 126.2 430.8 125.9Q430.6 125.7 430.2 125.5Q429.8 125.3 429.3 125.2L429.3 125.2L428.3 124.9Q427.2 124.6 426.6 124.0Q426.1 123.5 426.1 122.6L426.1 122.6Q426.1 121.9 426.5 121.3Q426.9 120.8 427.5 120.5Q428.2 120.2 429.1 120.2L429.1 120.2Q429.9 120.2 430.6 120.5Q431.2 120.8 431.6 121.3Q432.0 121.8 432.0 122.5L432.0 122.5L430.9 122.5Q430.9 121.8 430.3 121.5Q429.8 121.1 429.0 121.1L429.0 121.1Q428.5 121.1 428.0 121.3Q427.6 121.5 427.4 121.8Q427.1 122.1 427.1 122.6L427.1 122.6Q427.1 123.0 427.4 123.3Q427.7 123.6 428.1 123.7Q428.5 123.9 428.8 124.0L428.8 124.0L429.7 124.2Q430.0 124.3 430.5 124.5Q430.9 124.6 431.3 124.9Q431.7 125.2 431.9 125.6Q432.2 126.0 432.2 126.6L432.2 126.6Q432.2 127.3 431.8 127.9Q431.4 128.5 430.7 128.8Q430.0 129.2 429.0 129.2ZM437.6 129L436.4 129L433.1 120.3L434.3 120.3L436.2 125.4Q436.3 125.9 436.6 126.6L436.6 126.6Q436.8 127.2 437.0 128.1L437.0 128.1Q437.2 127.2 437.4 126.6L437.4 126.6Q437.7 125.9 437.8 125.4L437.8 125.4L439.6 120.3L440.8 120.3L437.6 129ZM445.7 129.1L445.7 129.1Q444.6 129.1 443.7 128.6Q442.8 128.0 442.3 127.0Q441.8 126.0 441.8 124.6L441.8 124.6Q441.8 123.3 442.3 122.2Q442.8 121.2 443.7 120.7Q444.5 120.2 445.7 120.2L445.7 120.2Q446.4 120.2 447.0 120.4Q447.6 120.6 448.0 120.9Q448.5 121.3 448.8 121.8Q449.1 122.4 449.3 123.0L449.3 123.0L448.1 123.0Q448.0 122.6 447.7 122.3Q447.5 121.9 447.2 121.7Q446.9 121.4 446.5 121.3Q446.1 121.2 445.7 121.2L445.7 121.2Q444.9 121.2 444.3 121.6Q443.7 122.0 443.3 122.7Q442.9 123.5 442.9 124.6L442.9 124.6Q442.9 125.8 443.3 126.5Q443.7 127.3 444.3 127.7Q444.9 128.1 445.7 128.1L445.7 128.1Q446.5 128.1 447.0 127.8Q447.6 127.5 447.9 126.9L447.9 126.9Q448.2 126.3 448.2 125.6L448.2 125.6L446.0 125.6L446.0 124.6L449.3 124.6L449.3 125.6Q449.3 126.7 448.9 127.4Q448.4 128.2 447.6 128.7Q446.8 129.1 445.7 129.1Z "/></g><defs><clipPath id="satori_bc-id-2"><path x="536" y="24" width="240" height="172" d="M548,24 h216 a12,12 0 0 1 12,12 v148 a12,12 0 0 1 -12,12 h-216 a12,12 0 0 1 -12,-12 v-148 a12,12 0 0 1 12,-12"/></clipPath></defs><mask id="satori_om-id-2"><rect x="537" y="25" width="238" height="170" fill="#fff"/><path width="240" height="172" fill="none" stroke="#000" stroke-width="2" d="M539.515,27.515 A12,12 0 0 1 548,24 h216 a12,12 0 0 1 12,12 v148 a12,12 0 0 1 -12,12 h-216 a12,12 0 0 1 -12,-12 v-148 A12,12 0 0 1 539.515,27.515"/></mask><path x="536" y="24" width="240" height="172" fill="#161b22" d="M548,24 h216 a12,12 0 0 1 12,12 v148 a12,12 0 0 1 -12,12 h-216 a12,12 0 0 1 -12,-12 v-148 a12,12 0 0 1 12,-12"/><path width="240" height="172" clip-path="url(#satori_bc-id-2)" fill="none" stroke="#30363d" stroke-width="2" d="M539.515,27.515 A12,12 0 0 1 548,24 h216 a12,12 0 0 1 12,12 v148 a12,12 0 0 1 -12,12 h-216 a12,12 0 0 1 -12,-12 v-148 A12,12 0 0 1 539.515,27.515"/><mask id="satori_om-id-2-0"><rect x="557" y="45" width="198" height="13" fill="#fff"/></mask><g  ><path fill="#8b949e" d="M560.5 56.1L560.5 56.1Q559.7 56.1 559.0 55.9Q558.4 55.6 558.0 55.1Q557.7 54.6 557.6 53.9L557.6 53.9L558.7 53.9Q558.7 54.4 559.0 54.6Q559.2 54.9 559.7 55.1Q560.1 55.2 560.5 55.2L560.5 55.2Q561.1 55.2 561.5 55.0Q561.9 54.9 562.2 54.5Q562.4 54.2 562.4 53.8L562.4 53.8Q562.4 53.4 562.2 53.2Q562.0 52.9 561.6 52.8Q561.3 52.6 560.9 52.5L560.9 52.5L559.9 52.2Q558.9 52.0 558.4 51.4Q557.8 50.9 557.8 50.1L557.8 50.1Q557.8 49.5 558.2 49.0Q558.6 48.4 559.2 48.2Q559.8 47.9 560.6 47.9L560.6 47.9Q561.4 47.9 562.0 48.2Q562.6 48.4 563.0 48.9Q563.3 49.4 563.3 50.0L563.3 50.0L562.3 50.0Q562.3 49.4 561.8 49.1Q561.3 48.8 560.6 48.8L560.6 48.8Q560.1 48.8 559.7 49.0Q559.3 49.1 559.1 49.4Q558.8 49.7 558.8 50.1L558.8 50.1Q558.8 50.5 559.1 50.8Q559.4 51.0 559.7 51.2Q560.1 51.3 560.4 51.4L560.4 51.4L561.2 51.6Q561.5 51.7 561.9 51.8Q562.3 52.0 562.6 52.2Q563.0 52.5 563.2 52.9Q563.4 53.3 563.4 53.8L563.4 53.8Q563.4 54.5 563.1 55.0Q562.8 55.5 562.1 55.8Q561.5 56.1 560.5 56.1ZM568.1 48.9L565.6 48.9L565.6 48.0L571.6 48.0L571.6 48.9L569.1 48.9L569.1 56L568.1 56L568.1 48.9ZM579.1 56L574.1 56L574.1 48.0L579.0 48.0L579.0 48.9L575.1 48.9L575.1 51.5L578.7 51.5L578.7 52.4L575.1 52.4L575.1 55.1L579.1 55.1L579.1 56ZM582.8 56L581.7 56L581.7 48.0L584.5 48.0Q585.4 48.0 586.0 48.3Q586.6 48.7 586.9 49.3Q587.2 49.8 587.2 50.5Q587.2 51.3 586.9 51.8Q586.6 52.4 586.0 52.8Q585.4 53.1 584.5 53.1L584.5 53.1L582.8 53.1L582.8 56ZM582.8 48.9L582.8 52.2L584.4 52.2Q585.1 52.2 585.5 52.0Q585.8 51.8 586.0 51.4Q586.2 51.0 586.2 50.5Q586.2 50.1 586.0 49.7Q585.8 49.3 585.5 49.1Q585.1 48.9 584.4 48.9L584.4 48.9L582.8 48.9Z M596.3 56.1L596.3 56.1Q595.5 56.1 594.9 55.8Q594.3 55.6 593.9 55.1Q593.6 54.6 593.6 54.0L593.6 54.0L594.6 54.0Q594.6 54.4 594.9 54.6Q595.1 54.9 595.5 55.1Q595.8 55.2 596.3 55.2L596.3 55.2Q596.8 55.2 597.2 55.0Q597.6 54.9 597.8 54.5Q598.0 54.2 598.0 53.8L598.0 53.8Q598.0 53.4 597.8 53.0Q597.6 52.7 597.2 52.5Q596.8 52.3 596.2 52.3L596.2 52.3L595.5 52.3L595.5 51.5L596.2 51.5Q596.6 51.5 597.0 51.3Q597.3 51.1 597.5 50.8Q597.7 50.5 597.7 50.1L597.7 50.1Q597.7 49.7 597.6 49.4Q597.4 49.1 597.1 48.9Q596.7 48.8 596.3 48.8L596.3 48.8Q595.9 48.8 595.5 48.9Q595.2 49.1 595.0 49.3Q594.7 49.6 594.7 50.0L594.7 50.0L593.7 50.0Q593.8 49.4 594.1 48.9Q594.5 48.4 595.0 48.2Q595.6 47.9 596.3 47.9L596.3 47.9Q597.1 47.9 597.6 48.2Q598.2 48.5 598.4 49.0Q598.7 49.5 598.7 50.0L598.7 50.0Q598.7 50.7 598.4 51.2Q598.0 51.7 597.4 51.8L597.4 51.8L597.4 51.9Q597.9 52.0 598.3 52.3Q598.6 52.5 598.8 52.9Q599.0 53.3 599.0 53.8L599.0 53.8Q599.0 54.5 598.7 55.0Q598.3 55.5 597.7 55.8Q597.1 56.1 596.3 56.1Z "/></g><mask id="satori_om-id-2-1"><rect x="557" y="66" width="198" height="19" fill="#fff"/></mask><g  ><path fill="#c9d1d9" d="M562.1 82L562.1 82L558.1 82L558.1 70.4L562.2 70.4Q563.9 70.4 565.2 71.1Q566.5 71.8 567.1 73.1Q567.8 74.4 567.8 76.2L567.8 76.2Q567.8 78.0 567.1 79.3Q566.5 80.6 565.2 81.3Q563.9 82 562.1 82ZM560.4 72.4L560.4 79.9L562.0 79.9Q563.2 79.9 563.9 79.5Q564.7 79.1 565.1 78.3Q565.4 77.5 565.4 76.2L565.4 76.2Q565.4 74.9 565.1 74.0Q564.7 73.2 563.9 72.8Q563.2 72.4 562.0 72.4L562.0 72.4L560.4 72.4ZM573.5 82.2L573.5 82.2Q572.2 82.2 571.2 81.6Q570.2 81.1 569.7 80.1Q569.2 79.1 569.2 77.7L569.2 77.7Q569.2 76.3 569.7 75.3Q570.2 74.3 571.2 73.7Q572.1 73.2 573.4 73.2L573.4 73.2Q574.2 73.2 575.0 73.4Q575.7 73.7 576.3 74.3Q576.9 74.8 577.2 75.6Q577.5 76.5 577.5 77.6L577.5 77.6L577.5 78.2L571.5 78.2Q571.5 78.9 571.8 79.4L571.8 79.4Q572.0 79.9 572.5 80.1Q572.9 80.4 573.5 80.4L573.5 80.4Q574.0 80.4 574.3 80.3Q574.6 80.2 574.9 79.9Q575.1 79.7 575.2 79.4L575.2 79.4L577.4 79.8Q577.1 80.5 576.6 81.0Q576.1 81.6 575.3 81.9Q574.5 82.2 573.5 82.2ZM571.5 76.8L571.5 76.8L575.2 76.8Q575.2 76.3 575.0 76.0L575.0 76.0Q574.8 75.5 574.4 75.2Q574.0 74.9 573.4 74.9L573.4 74.9Q572.8 74.9 572.4 75.2Q571.9 75.5 571.7 76.0L571.7 76.0Q571.6 76.3 571.5 76.8ZM581.4 85.3L579.1 85.3L579.1 73.3L581.4 73.3L581.4 74.7L581.5 74.7Q581.7 74.4 582.0 74.0Q582.3 73.7 582.8 73.4Q583.3 73.2 584.0 73.2L584.0 73.2Q585.0 73.2 585.8 73.7Q586.6 74.2 587.1 75.2Q587.5 76.2 587.5 77.6L587.5 77.6Q587.5 79.1 587.1 80.1Q586.6 81.1 585.8 81.6Q585.0 82.1 584.0 82.1L584.0 82.1Q583.3 82.1 582.8 81.9Q582.3 81.7 582.0 81.3Q581.7 81.0 581.5 80.6L581.5 80.6L581.4 80.6L581.4 85.3ZM583.3 80.3L583.3 80.3Q583.9 80.3 584.3 79.9Q584.7 79.6 584.9 79Q585.1 78.4 585.1 77.6L585.1 77.6Q585.1 76.9 584.9 76.3Q584.7 75.7 584.3 75.4Q583.9 75.0 583.3 75.0L583.3 75.0Q582.7 75.0 582.2 75.4Q581.8 75.7 581.6 76.3Q581.4 76.8 581.4 77.6L581.4 77.6Q581.4 78.4 581.6 79.0Q581.8 79.6 582.2 79.9Q582.7 80.3 583.3 80.3ZM589.2 70.4L591.5 70.4L591.5 82L589.2 82L589.2 70.4ZM597.4 82.2L597.4 82.2Q596.1 82.2 595.1 81.6Q594.2 81.0 593.7 80.0Q593.1 79.0 593.1 77.7L593.1 77.7Q593.1 76.3 593.7 75.3Q594.2 74.3 595.1 73.7Q596.1 73.2 597.4 73.2L597.4 73.2Q598.7 73.2 599.7 73.7Q600.6 74.3 601.2 75.3Q601.7 76.3 601.7 77.7L601.7 77.7Q601.7 79.0 601.2 80.0Q600.6 81.0 599.7 81.6Q598.7 82.2 597.4 82.2ZM597.4 80.3L597.4 80.3Q598.0 80.3 598.5 80.0Q598.9 79.6 599.1 79.0Q599.3 78.4 599.3 77.7L599.3 77.7Q599.3 76.9 599.1 76.3Q598.9 75.7 598.5 75.3Q598.0 75 597.4 75L597.4 75Q596.8 75 596.4 75.3Q596.0 75.7 595.7 76.3Q595.5 76.9 595.5 77.7L595.5 77.7Q595.5 78.4 595.7 79.0Q596.0 79.6 596.4 80.0Q596.8 80.3 597.4 80.3ZM603.3 85.1L603.3 85.1L603.8 83.3L604.1 83.4Q604.6 83.5 604.9 83.5Q605.3 83.4 605.5 83.2Q605.7 82.9 605.8 82.5L605.8 82.5L605.8 82.0L602.6 73.3L605.1 73.3L606.5 77.8Q606.8 78.7 607.0 79.5L607.0 79.5Q607.0 79.8 607.1 80.1L607.1 80.1Q607.1 79.8 607.2 79.5L607.2 79.5Q607.4 78.6 607.7 77.8L607.7 77.8L609.2 73.3L611.7 73.3L608.0 83.0Q607.7 83.7 607.3 84.3Q606.9 84.8 606.3 85.0Q605.7 85.3 604.8 85.3L604.8 85.3Q604.3 85.3 603.9 85.3Q603.5 85.2 603.3 85.1Z "/></g><mask id="satori_om-id-2-2"><rect x="557" y="93" width="198" height="16" fill="#fff"/></mask><g  ><path fill="#c9d1d9" d="M559.3 106L558.1 106L558.1 96.5L561.4 96.5Q562.5 96.5 563.2 96.9Q563.9 97.3 564.3 98.0Q564.6 98.6 564.6 99.5Q564.6 100.3 564.3 101.0Q563.9 101.6 563.2 102.0L563.2 102.0Q563.0 102.1 562.9 102.1L562.9 102.1L565.0 106L563.6 106L561.6 102.3Q561.5 102.3 561.4 102.3L561.4 102.3L559.3 102.3L559.3 106ZM559.3 97.6L559.3 101.3L561.3 101.3Q562.1 101.3 562.5 101.0Q563.0 100.8 563.2 100.4Q563.4 100.0 563.4 99.5L563.4 99.5Q563.4 98.9 563.2 98.5Q563.0 98.1 562.5 97.8Q562.1 97.6 561.3 97.6L561.3 97.6L559.3 97.6ZM572.3 106L566.5 106L566.5 96.5L572.3 96.5L572.3 97.6L567.7 97.6L567.7 100.7L572.0 100.7L572.0 101.8L567.7 101.8L567.7 104.9L572.3 104.9L572.3 106ZM574.8 106L573.5 106L576.9 96.5L578.3 96.5L581.8 106L580.5 106L579.6 103.4L575.7 103.4L574.8 106ZM576.1 102.3L579.2 102.3L578.5 100.4Q578.4 99.9 578.1 99.1L578.1 99.1Q577.9 98.4 577.6 97.5L577.6 97.5Q577.4 98.5 577.2 99.1L577.2 99.1Q576.9 99.9 576.7 100.4L576.7 100.4L576.1 102.3ZM586.2 106L586.2 106L583.3 106L583.3 96.5L586.4 96.5Q587.7 96.5 588.7 97.1Q589.7 97.7 590.2 98.7Q590.8 99.8 590.8 101.3L590.8 101.3Q590.8 102.7 590.2 103.8Q589.7 104.9 588.7 105.4Q587.7 106 586.2 106ZM584.5 97.6L584.5 104.9L586.2 104.9Q587.3 104.9 588.1 104.5Q588.8 104.1 589.2 103.2Q589.6 102.4 589.6 101.3L589.6 101.3Q589.6 100.1 589.2 99.3Q588.8 98.5 588.1 98.0Q587.4 97.6 586.3 97.6L586.3 97.6L584.5 97.6ZM593.8 106L592.7 106L592.7 96.5L594.4 96.5L596.7 102.5Q596.8 102.7 596.9 103.0Q597.0 103.3 597.1 103.7Q597.2 104.1 597.4 104.4L597.4 104.4Q597.4 104.6 597.4 104.7L597.4 104.7Q597.4 104.6 597.5 104.5L597.5 104.5Q597.6 104.1 597.7 103.7Q597.8 103.4 597.9 103.0Q598.0 102.7 598.1 102.5L598.1 102.5L600.4 96.5L602.1 96.5L602.1 106L600.9 106L600.9 100.6Q600.9 100.3 600.9 99.9Q601.0 99.6 601.0 99.1Q601.0 98.7 601.0 98.3L601.0 98.3Q601.0 98.1 601.0 97.8L601.0 97.8Q600.9 98.1 600.8 98.4L600.8 98.4Q600.7 98.8 600.5 99.2Q600.4 99.7 600.3 100.0Q600.1 100.4 600.0 100.6L600.0 100.6L597.9 106L596.9 106L594.7 100.6Q594.6 100.4 594.5 100.0Q594.4 99.7 594.3 99.3Q594.1 98.9 594.0 98.4L594.0 98.4Q593.9 98.1 593.8 97.8L593.8 97.8Q593.8 98.0 593.8 98.2L593.8 98.2Q593.8 98.7 593.8 99.1Q593.8 99.5 593.8 99.9Q593.8 100.3 593.8 100.6L593.8 100.6L593.8 106ZM610.2 106L604.4 106L604.4 96.5L610.2 96.5L610.2 97.6L605.6 97.6L605.6 100.7L609.9 100.7L609.9 101.8L605.6 101.8L605.6 104.9L610.2 104.9L610.2 106ZM613.0 106.1L613.0 106.1Q612.6 106.1 612.4 105.8Q612.1 105.6 612.1 105.2L612.1 105.2Q612.1 104.9 612.4 104.6Q612.6 104.4 613.0 104.4L613.0 104.4Q613.3 104.4 613.6 104.6Q613.8 104.9 613.8 105.2L613.8 105.2Q613.8 105.6 613.6 105.8Q613.3 106.1 613.0 106.1ZM617.0 106L615.8 106L615.8 98.9L616.9 98.9L617.0 100.2Q617.1 99.8 617.3 99.5L617.3 99.5Q617.6 99.2 618.1 99.0Q618.5 98.8 618.9 98.8L618.9 98.8Q619.7 98.8 620.2 99.3L620.2 99.3Q620.6 99.6 620.7 100.2L620.7 100.2Q620.9 99.9 621.1 99.6L621.1 99.6Q621.5 99.2 621.9 99.0Q622.4 98.8 623.0 98.8L623.0 98.8Q623.6 98.8 624.1 99.0Q624.6 99.3 624.9 99.8Q625.2 100.4 625.2 101.2L625.2 101.2L625.2 106L624.1 106L624.1 101.2Q624.1 100.5 623.6 100.1Q623.2 99.8 622.6 99.8L622.6 99.8Q622.2 99.8 621.8 100.0Q621.5 100.2 621.3 100.6Q621.1 100.9 621.1 101.4L621.1 101.4L621.1 106L620.0 106L620.0 101.1Q620.0 100.5 619.6 100.2Q619.2 99.8 618.6 99.8L618.6 99.8Q618.2 99.8 617.8 100.0Q617.4 100.2 617.2 100.6Q617.0 101.0 617.0 101.5L617.0 101.5L617.0 106ZM629.9 106.2L629.9 106.2Q629.0 106.2 628.3 105.7Q627.6 105.3 627.3 104.4Q626.9 103.6 626.9 102.5L626.9 102.5Q626.9 101.3 627.3 100.5Q627.6 99.7 628.3 99.3Q629.0 98.8 629.9 98.8L629.9 98.8Q630.6 98.8 631.0 99.0Q631.4 99.3 631.6 99.6Q631.8 99.8 631.9 100.0L631.9 100.0L632.0 100.0L632.0 96.5L633.2 96.5L633.2 106L632.1 106L632.1 104.9L631.9 104.9Q631.8 105.1 631.6 105.4Q631.4 105.7 631.0 105.9Q630.6 106.2 629.9 106.2ZM630.1 105.1L630.1 105.1Q630.7 105.1 631.1 104.8Q631.6 104.5 631.8 103.8Q632.0 103.2 632.0 102.5L632.0 102.5Q632.0 101.7 631.8 101.1Q631.6 100.5 631.2 100.2Q630.7 99.8 630.1 99.8L630.1 99.8Q629.4 99.8 628.9 100.2Q628.5 100.5 628.3 101.1Q628.0 101.7 628.0 102.5L628.0 102.5Q628.0 103.2 628.3 103.8Q628.5 104.4 628.9 104.8Q629.4 105.1 630.1 105.1Z M641.6 106L640.4 106L638.3 98.9L639.5 98.9L640.4 102.0Q640.5 102.6 640.7 103.4L640.7 103.4Q640.9 104.0 641.0 104.8L641.0 104.8Q641.2 104.1 641.3 103.5L641.3 103.5Q641.5 102.7 641.7 102.0L641.7 102.0L642.6 98.9L643.8 98.9L644.6 102.0Q644.8 102.7 645.0 103.5L645.0 103.5Q645.1 104.1 645.3 104.8L645.3 104.8Q645.4 104.1 645.6 103.5L645.6 103.5Q645.8 102.7 646.0 102.0L646.0 102.0L646.8 98.9L648.0 98.9L645.9 106L644.7 106L643.8 102.8Q643.7 102.3 643.6 101.8Q643.4 101.3 643.3 100.8L643.3 100.8Q643.2 100.5 643.2 100.2L643.2 100.2Q643.1 100.5 643.0 100.7L643.0 100.7Q642.9 101.3 642.8 101.8Q642.6 102.3 642.5 102.8L642.5 102.8L641.6 106ZM650.6 106L649.5 106L649.5 98.9L650.6 98.9L650.6 106ZM650.1 97.7L650.1 97.7Q649.7 97.7 649.5 97.5Q649.3 97.3 649.3 97.0L649.3 97.0Q649.3 96.7 649.5 96.4Q649.7 96.2 650.1 96.2L650.1 96.2Q650.4 96.2 650.6 96.4Q650.9 96.7 650.9 97.0L650.9 97.0Q650.9 97.3 650.6 97.5Q650.4 97.7 650.1 97.7ZM654.0 98.9L655.4 98.9L655.4 99.9L654.0 99.9L654.0 104.2Q654.0 104.6 654.2 104.9Q654.3 105.1 654.8 105.1L654.8 105.1Q654.9 105.1 655.1 105.0Q655.2 105.0 655.4 105.0L655.4 105.0L655.6 106.0Q655.4 106.0 655.2 106.1Q655.0 106.1 654.8 106.1L654.8 106.1Q653.8 106.1 653.3 105.6Q652.8 105.1 652.8 104.2L652.8 104.2L652.8 99.9L651.8 99.9L651.8 98.9L652.8 98.9L652.8 97.2L654.0 97.2L654.0 98.9ZM658.0 101.7L658.0 101.7L658.0 106L656.9 106L656.9 96.5L658.0 96.5L658.0 100.1Q658.3 99.5 658.8 99.2L658.8 99.2Q659.3 98.8 660.2 98.8L660.2 98.8Q660.9 98.8 661.4 99.1Q662.0 99.4 662.3 100.0Q662.6 100.6 662.6 101.5L662.6 101.5L662.6 106L661.4 106L661.4 101.6Q661.4 100.8 661.0 100.3Q660.6 99.8 659.8 99.8L659.8 99.8Q659.3 99.8 658.9 100.1Q658.5 100.3 658.3 100.7Q658.0 101.1 658.0 101.7Z M669.4 106L668.2 106L668.2 98.9L669.4 98.9L669.4 106ZM668.8 97.7L668.8 97.7Q668.5 97.7 668.2 97.5Q668.0 97.3 668.0 97.0L668.0 97.0Q668.0 96.7 668.2 96.4Q668.5 96.2 668.8 96.2L668.8 96.2Q669.1 96.2 669.4 96.4Q669.6 96.7 669.6 97.0L669.6 97.0Q669.6 97.3 669.4 97.5Q669.1 97.7 668.8 97.7ZM672.5 106L671.4 106L671.4 98.9L672.5 98.9L672.5 100.2Q672.6 99.8 672.9 99.5L672.9 99.5Q673.2 99.2 673.6 99.0Q674.0 98.8 674.5 98.8L674.5 98.8Q675.3 98.8 675.7 99.3L675.7 99.3Q676.1 99.6 676.3 100.2L676.3 100.2Q676.4 99.9 676.7 99.6L676.7 99.6Q677.0 99.2 677.5 99.0Q678.0 98.8 678.5 98.8L678.5 98.8Q679.1 98.8 679.6 99.0Q680.2 99.3 680.5 99.8Q680.8 100.4 680.8 101.2L680.8 101.2L680.8 106L679.6 106L679.6 101.2Q679.6 100.5 679.2 100.1Q678.7 99.8 678.2 99.8L678.2 99.8Q677.7 99.8 677.4 100.0Q677.0 100.2 676.8 100.6Q676.6 100.9 676.6 101.4L676.6 101.4L676.6 106L675.5 106L675.5 101.1Q675.5 100.5 675.1 100.2Q674.7 99.8 674.1 99.8L674.1 99.8Q673.7 99.8 673.3 100.0Q673.0 100.2 672.7 100.6Q672.5 101.0 672.5 101.5L672.5 101.5L672.5 106ZM684.7 106.2L684.7 106.2Q684.1 106.2 683.5 105.9Q683.0 105.7 682.7 105.2Q682.3 104.7 682.3 104.0L682.3 104.0Q682.3 103.4 682.6 103.0Q682.8 102.6 683.2 102.4Q683.6 102.2 684.1 102.1Q684.6 102.0 685.1 101.9L685.1 101.9Q685.7 101.8 686.1 101.8Q686.5 101.7 686.7 101.6Q686.9 101.5 686.9 101.2L686.9 101.2L686.9 101.2Q686.9 100.8 686.7 100.5Q686.6 100.1 686.3 100.0Q685.9 99.8 685.4 99.8L685.4 99.8Q684.9 99.8 684.6 100.0Q684.2 100.1 684.0 100.4Q683.7 100.6 683.6 100.9L683.6 100.9L682.5 100.5Q682.8 99.8 683.3 99.5Q683.7 99.1 684.3 99.0Q684.8 98.8 685.4 98.8L685.4 98.8Q685.7 98.8 686.2 98.9Q686.7 99.0 687.1 99.2Q687.5 99.5 687.8 100.0Q688.1 100.5 688.1 101.3L688.1 101.3L688.1 106L686.9 106L686.9 105.0L686.9 105.0Q686.7 105.3 686.5 105.5Q686.2 105.8 685.8 106.0Q685.3 106.2 684.7 106.2ZM684.9 105.2L684.9 105.2Q685.6 105.2 686.0 104.9Q686.5 104.7 686.7 104.3Q686.9 103.9 686.9 103.4L686.9 103.4L686.9 102.5Q686.8 102.5 686.6 102.6Q686.4 102.7 686.1 102.7Q685.8 102.8 685.5 102.8Q685.2 102.8 685.0 102.9L685.0 102.9Q684.6 102.9 684.3 103.0Q683.9 103.2 683.7 103.4Q683.5 103.6 683.5 104.0L683.5 104.0Q683.5 104.4 683.7 104.7Q683.9 104.9 684.2 105.0Q684.5 105.2 684.9 105.2ZM692.9 108.8L692.9 108.8Q692.1 108.8 691.6 108.6Q691.0 108.4 690.6 108.1Q690.2 107.7 690.0 107.4L690.0 107.4L690.9 106.8Q691.1 107.0 691.3 107.2Q691.5 107.5 691.9 107.6Q692.3 107.8 692.9 107.8L692.9 107.8Q693.8 107.8 694.3 107.4Q694.9 107.0 694.9 106.1L694.9 106.1L694.9 104.7L694.8 104.7Q694.7 104.9 694.4 105.2Q694.2 105.5 693.8 105.7Q693.4 105.9 692.7 105.9L692.7 105.9Q691.9 105.9 691.2 105.5Q690.5 105.1 690.1 104.3Q689.7 103.5 689.7 102.4L689.7 102.4Q689.7 101.3 690.1 100.5Q690.5 99.7 691.2 99.3Q691.9 98.8 692.7 98.8L692.7 98.8Q693.4 98.8 693.8 99.0Q694.2 99.3 694.5 99.6Q694.7 99.8 694.8 100.0L694.8 100.0L694.9 100.0L694.9 98.9L696.0 98.9L696.0 106.2Q696.0 107.1 695.6 107.7Q695.2 108.3 694.5 108.5Q693.8 108.8 692.9 108.8ZM692.9 104.9L692.9 104.9Q693.6 104.9 694.0 104.6Q694.4 104.3 694.7 103.7Q694.9 103.2 694.9 102.4L694.9 102.4Q694.9 101.6 694.7 101.1Q694.4 100.5 694.0 100.2Q693.6 99.8 692.9 99.8L692.9 99.8Q692.2 99.8 691.8 100.2Q691.3 100.5 691.1 101.1Q690.9 101.7 690.9 102.4L690.9 102.4Q690.9 103.1 691.1 103.7Q691.3 104.2 691.8 104.6Q692.2 104.9 692.9 104.9ZM701.0 106.2L701.0 106.2Q700.0 106.2 699.2 105.7Q698.5 105.2 698.1 104.4Q697.7 103.6 697.7 102.5Q697.7 101.4 698.1 100.6Q698.5 99.8 699.2 99.3Q699.9 98.8 700.9 98.8L700.9 98.8Q701.4 98.8 702.0 99.0Q702.5 99.2 703.0 99.6Q703.4 100.0 703.7 100.7Q704.0 101.4 704.0 102.4L704.0 102.4L704.0 102.8L698.8 102.8Q698.9 103.5 699.1 104.0L699.1 104.0Q699.4 104.6 699.9 104.9Q700.4 105.1 701.0 105.1L701.0 105.1Q701.4 105.1 701.8 105.0Q702.1 104.9 702.4 104.7Q702.6 104.4 702.8 104.0L702.8 104.0L703.9 104.3Q703.7 104.9 703.3 105.3Q702.9 105.7 702.3 105.9Q701.7 106.2 701.0 106.2ZM698.9 101.9L698.9 101.9L702.8 101.9Q702.8 101.4 702.6 101.0L702.6 101.0Q702.4 100.4 702.0 100.1Q701.5 99.8 700.9 99.8Q700.2 99.8 699.8 100.1Q699.3 100.5 699.1 101.0L699.1 101.0Q698.9 101.4 698.9 101.9ZM708.0 106.2L708.0 106.2Q707.3 106.2 706.7 105.9Q706.2 105.7 705.8 105.3Q705.4 104.9 705.3 104.3L705.3 104.3L706.4 104.0Q706.5 104.6 707.0 104.9Q707.4 105.1 708.0 105.1L708.0 105.1Q708.8 105.1 709.2 104.8Q709.6 104.5 709.6 104.1L709.6 104.1Q709.6 103.7 709.4 103.5Q709.1 103.2 708.6 103.1L708.6 103.1L707.4 102.8Q706.4 102.6 706.0 102.1Q705.5 101.6 705.5 100.9L705.5 100.9Q705.5 100.3 705.9 99.8Q706.2 99.3 706.8 99.1Q707.4 98.8 708.1 98.8L708.1 98.8Q708.9 98.8 709.4 99.0Q709.9 99.3 710.2 99.6Q710.5 100.0 710.7 100.5L710.7 100.5L709.7 100.8Q709.5 100.4 709.2 100.1Q708.8 99.8 708.1 99.8L708.1 99.8Q707.5 99.8 707.1 100.1Q706.7 100.4 706.7 100.8L706.7 100.8Q706.7 101.2 707.0 101.4Q707.2 101.7 707.9 101.8L707.9 101.8L708.9 102.1Q709.9 102.3 710.4 102.8Q710.8 103.3 710.8 104.0L710.8 104.0Q710.8 104.6 710.5 105.1Q710.1 105.6 709.5 105.9Q708.9 106.2 708.0 106.2Z "/></g><mask id="satori_om-id-2-3"><rect x="557" y="117" width="198" height="15" fill="#fff"/></mask><g  ><path fill="#8b949e" d="M561.0 129L559.7 129L557.3 120.3L558.4 120.3L559.8 125.6Q559.9 126.1 560.0 126.5Q560.1 126.9 560.2 127.4L560.2 127.4Q560.3 127.7 560.3 128.0L560.3 128.0Q560.4 127.7 560.5 127.4L560.5 127.4Q560.5 126.9 560.7 126.5Q560.8 126.1 560.9 125.6L560.9 125.6L562.3 120.3L563.5 120.3L564.9 125.6Q565.1 126.1 565.2 126.5Q565.3 126.9 565.4 127.4L565.4 127.4Q565.4 127.7 565.5 127.9L565.5 127.9Q565.5 127.7 565.6 127.4L565.6 127.4Q565.7 126.9 565.8 126.5Q565.9 126.1 566.0 125.6L566.0 125.6L567.4 120.3L568.5 120.3L566.1 129L564.8 129L563.3 123.5Q563.2 122.9 563.1 122.3L563.1 122.3Q563.0 121.9 562.9 121.5L562.9 121.5Q562.8 121.9 562.8 122.2L562.8 122.2Q562.6 122.8 562.5 123.5L562.5 123.5L561.0 129ZM572.4 129.1L572.4 129.1Q571.5 129.1 570.9 128.7Q570.2 128.3 569.8 127.5Q569.4 126.8 569.4 125.8L569.4 125.8Q569.4 124.7 569.8 124.0Q570.2 123.2 570.9 122.8Q571.5 122.4 572.4 122.4L572.4 122.4Q573.3 122.4 574.0 122.8Q574.7 123.2 575.0 124.0Q575.4 124.7 575.4 125.8L575.4 125.8Q575.4 126.8 575.0 127.5Q574.7 128.3 574.0 128.7Q573.3 129.1 572.4 129.1ZM572.4 128.2L572.4 128.2Q573.1 128.2 573.5 127.9Q573.9 127.5 574.1 127.0Q574.3 126.4 574.3 125.8L574.3 125.8Q574.3 125.1 574.1 124.6Q573.9 124.0 573.5 123.7Q573.1 123.3 572.4 123.3L572.4 123.3Q571.8 123.3 571.3 123.7Q570.9 124.0 570.7 124.6Q570.5 125.1 570.5 125.8L570.5 125.8Q570.5 126.4 570.7 127.0Q570.9 127.5 571.3 127.9Q571.8 128.2 572.4 128.2ZM578 129L576.9 129L576.9 122.4L578.0 122.4L578.0 123.5L578.0 123.5Q578.2 123.0 578.7 122.7Q579.1 122.4 579.7 122.4L579.7 122.4Q579.9 122.4 580.0 122.4Q580.2 122.4 580.3 122.4L580.3 122.4L580.3 123.4Q580.2 123.4 580.0 123.4Q579.8 123.4 579.6 123.4L579.6 123.4Q579.2 123.4 578.8 123.6Q578.4 123.8 578.2 124.1Q578 124.5 578 124.9L578 124.9L578 129ZM582.5 129L581.5 129L581.5 120.3L582.5 120.3L582.5 125.3L582.6 125.3L585.4 122.4L586.8 122.4L584.0 125.3L587.0 129L585.6 129L583.2 125.9L582.5 126.6L582.5 129ZM590.3 129.1L590.3 129.1Q589.6 129.1 589.1 128.9Q588.6 128.7 588.2 128.4Q587.9 128.0 587.8 127.4L587.8 127.4L588.8 127.2Q588.9 127.7 589.3 128.0Q589.7 128.2 590.3 128.2L590.3 128.2Q590.9 128.2 591.4 127.9Q591.8 127.6 591.8 127.2L591.8 127.2Q591.8 126.9 591.5 126.7Q591.3 126.4 590.8 126.3L590.8 126.3L589.7 126.1Q588.8 125.9 588.4 125.4Q588.0 125.0 588.0 124.3L588.0 124.3Q588.0 123.7 588.3 123.3Q588.6 122.9 589.1 122.6Q589.7 122.4 590.4 122.4L590.4 122.4Q591.1 122.4 591.5 122.6Q592.0 122.8 592.3 123.1Q592.6 123.5 592.7 123.9L592.7 123.9L591.8 124.2Q591.6 123.8 591.3 123.6Q591.0 123.3 590.4 123.3L590.4 123.3Q589.8 123.3 589.4 123.5Q589.0 123.8 589.0 124.2L589.0 124.2Q589.0 124.6 589.3 124.8Q589.5 125.0 590.1 125.2L590.1 125.2L591.1 125.4Q592.0 125.6 592.4 126.0Q592.9 126.5 592.9 127.2L592.9 127.2Q592.9 127.7 592.5 128.2Q592.2 128.6 591.6 128.9Q591.0 129.1 590.3 129.1Z M600.4 129.1L600.4 129.1Q599.5 129.1 598.9 128.7Q598.2 128.3 597.8 127.5Q597.4 126.8 597.4 125.8L597.4 125.8Q597.4 124.7 597.8 124.0Q598.2 123.2 598.9 122.8Q599.5 122.4 600.4 122.4L600.4 122.4Q601.3 122.4 602.0 122.8Q602.7 123.2 603.0 124.0Q603.4 124.7 603.4 125.8L603.4 125.8Q603.4 126.8 603.0 127.5Q602.7 128.3 602.0 128.7Q601.3 129.1 600.4 129.1ZM600.4 128.2L600.4 128.2Q601.1 128.2 601.5 127.9Q601.9 127.5 602.1 127.0Q602.4 126.4 602.4 125.8L602.4 125.8Q602.4 125.1 602.1 124.6Q601.9 124.0 601.5 123.7Q601.1 123.3 600.4 123.3L600.4 123.3Q599.8 123.3 599.3 123.7Q598.9 124.0 598.7 124.6Q598.5 125.1 598.5 125.8L598.5 125.8Q598.5 126.4 598.7 127.0Q598.9 127.5 599.3 127.9Q599.8 128.2 600.4 128.2ZM606.0 125.1L606.0 125.1L606.0 129L605.0 129L605.0 122.4L606.0 122.4L606.0 123.7Q606.2 123.0 606.7 122.7L606.7 122.7Q607.2 122.4 608.0 122.4L608.0 122.4Q608.6 122.4 609.1 122.6Q609.6 122.9 609.9 123.5Q610.2 124.0 610.2 124.8L610.2 124.8L610.2 129L609.1 129L609.1 124.9Q609.1 124.2 608.7 123.7Q608.3 123.3 607.7 123.3L607.7 123.3Q607.2 123.3 606.8 123.5Q606.4 123.7 606.2 124.1Q606.0 124.5 606.0 125.1Z M617.3 129.2L617.3 129.2Q616.6 129.2 616.1 128.9Q615.6 128.7 615.3 128.2Q615.0 127.8 615.0 127.1L615.0 127.1Q615.0 126.6 615.2 126.2Q615.5 125.9 615.8 125.7Q616.2 125.5 616.7 125.4Q617.1 125.3 617.6 125.2L617.6 125.2Q618.2 125.1 618.5 125.1Q618.9 125.1 619.1 125.0Q619.3 124.9 619.3 124.6L619.3 124.6L619.3 124.6Q619.3 124.2 619.1 123.9Q618.9 123.6 618.6 123.4Q618.3 123.3 617.9 123.3L617.9 123.3Q617.4 123.3 617.1 123.4Q616.7 123.6 616.5 123.8Q616.3 124.0 616.2 124.3L616.2 124.3L615.2 123.9Q615.5 123.3 615.9 123.0Q616.3 122.6 616.8 122.5Q617.3 122.4 617.8 122.4L617.8 122.4Q618.2 122.4 618.6 122.4Q619.0 122.5 619.4 122.8Q619.8 123.0 620.0 123.5Q620.3 123.9 620.3 124.7L620.3 124.7L620.3 129L619.3 129L619.3 128.1L619.2 128.1Q619.1 128.3 618.8 128.6Q618.6 128.8 618.2 129.0Q617.8 129.2 617.3 129.2ZM617.4 128.2L617.4 128.2Q618.0 128.2 618.4 128.0Q618.8 127.8 619.0 127.4Q619.3 127.0 619.3 126.6L619.3 126.6L619.3 125.7Q619.2 125.8 619.0 125.9Q618.8 125.9 618.5 126.0Q618.2 126.0 617.9 126.0Q617.7 126.1 617.5 126.1L617.5 126.1Q617.1 126.1 616.8 126.3Q616.5 126.4 616.3 126.6Q616.1 126.8 616.1 127.2L616.1 127.2Q616.1 127.5 616.3 127.8Q616.4 128.0 616.7 128.1Q617.0 128.2 617.4 128.2ZM623.2 125.1L623.2 125.1L623.2 129L622.2 129L622.2 122.4L623.2 122.4L623.2 123.7Q623.5 123.0 623.9 122.7L623.9 122.7Q624.4 122.4 625.2 122.4L625.2 122.4Q625.8 122.4 626.3 122.6Q626.8 122.9 627.1 123.5Q627.4 124.0 627.4 124.8L627.4 124.8L627.4 129L626.3 129L626.3 124.9Q626.3 124.2 625.9 123.7Q625.5 123.3 624.9 123.3L624.9 123.3Q624.4 123.3 624.0 123.5Q623.6 123.7 623.4 124.1Q623.2 124.5 623.2 125.1ZM629.1 131.4L629.1 131.4L629.4 130.5L629.5 130.5Q629.8 130.6 630.1 130.5Q630.4 130.5 630.6 130.3Q630.8 130.0 631.0 129.6L631.0 129.6L631.1 129.0L628.6 122.4L629.8 122.4L631.2 126.3Q631.4 126.9 631.6 127.5L631.6 127.5Q631.6 127.8 631.7 128.0L631.7 128.0Q631.8 127.8 631.8 127.5L631.8 127.5Q632.0 126.9 632.2 126.3L632.2 126.3L633.6 122.4L634.7 122.4L631.9 130.0Q631.7 130.5 631.4 130.8Q631.1 131.2 630.7 131.3Q630.4 131.5 629.9 131.5L629.9 131.5Q629.6 131.5 629.4 131.5Q629.2 131.4 629.1 131.4Z M643.1 129.1L643.1 129.1Q641.9 129.1 641.0 128.6Q640.1 128.0 639.6 127.0Q639.2 126.0 639.2 124.6L639.2 124.6Q639.2 123.3 639.6 122.2Q640.1 121.2 641.0 120.7Q641.9 120.2 643.0 120.2L643.0 120.2Q643.7 120.2 644.3 120.4Q644.9 120.6 645.4 120.9Q645.8 121.3 646.1 121.8Q646.5 122.4 646.6 123.0L646.6 123.0L645.4 123.0Q645.3 122.6 645.1 122.3Q644.8 121.9 644.5 121.7Q644.2 121.4 643.8 121.3Q643.5 121.2 643.0 121.2L643.0 121.2Q642.2 121.2 641.6 121.6Q641.0 122.0 640.6 122.7Q640.2 123.5 640.2 124.6L640.2 124.6Q640.2 125.8 640.6 126.5Q641.0 127.3 641.6 127.7Q642.3 128.1 643.1 128.1L643.1 128.1Q643.8 128.1 644.4 127.8Q644.9 127.5 645.2 126.9L645.2 126.9Q645.5 126.3 645.6 125.6L645.6 125.6L643.3 125.6L643.3 124.6L646.6 124.6L646.6 125.6Q646.6 126.7 646.2 127.4Q645.7 128.2 644.9 128.7Q644.1 129.1 643.1 129.1ZM649.4 129L648.3 129L648.3 122.4L649.4 122.4L649.4 129ZM648.9 121.4L648.9 121.4Q648.6 121.4 648.3 121.2Q648.1 121.0 648.1 120.7L648.1 120.7Q648.1 120.4 648.3 120.2Q648.6 120.0 648.9 120.0L648.9 120.0Q649.2 120.0 649.4 120.2Q649.6 120.4 649.6 120.7L649.6 120.7Q649.6 121.0 649.4 121.2Q649.2 121.4 648.9 121.4ZM652.5 122.4L653.8 122.4L653.8 123.4L652.5 123.4L652.5 127.3Q652.5 127.7 652.6 127.9Q652.8 128.1 653.2 128.1L653.2 128.1Q653.3 128.1 653.5 128.1Q653.6 128.1 653.8 128.1L653.8 128.1L654.0 129.0Q653.8 129.0 653.6 129.1Q653.4 129.1 653.2 129.1L653.2 129.1Q652.3 129.1 651.9 128.6Q651.4 128.2 651.4 127.4L651.4 127.4L651.4 123.4L650.4 123.4L650.4 122.4L651.4 122.4L651.4 120.9L652.5 120.9L652.5 122.4ZM656.4 129L655.3 129L655.3 120.3L656.4 120.3L656.4 124.0L661.0 124.0L661.0 120.3L662.1 120.3L662.1 129L661.0 129L661.0 125.0L656.4 125.0L656.4 129ZM666.3 129.1L666.3 129.1Q665.6 129.1 665.1 128.8Q664.6 128.5 664.3 128.0Q664.1 127.4 664.1 126.6L664.1 126.6L664.1 122.4L665.1 122.4L665.1 126.5Q665.1 127.3 665.5 127.7Q665.9 128.1 666.6 128.1L666.6 128.1Q667.1 128.1 667.4 127.9Q667.8 127.7 668.0 127.3Q668.3 126.9 668.3 126.4L668.3 126.4L668.3 122.4L669.3 122.4L669.3 129L668.3 129L668.3 127.8Q668.0 128.4 667.6 128.7L667.6 128.7Q667.0 129.1 666.3 129.1ZM674.2 129.1L674.2 129.1Q673.6 129.1 673.2 128.9Q672.8 128.7 672.6 128.4Q672.4 128.2 672.3 128.0L672.3 128.0L672.2 128.0L672.2 129L671.2 129L671.2 120.3L672.2 120.3L672.2 123.5L672.3 123.5Q672.4 123.3 672.6 123.1Q672.8 122.8 673.2 122.6Q673.6 122.4 674.2 122.4L674.2 122.4Q675.0 122.4 675.6 122.8Q676.3 123.2 676.6 123.9Q677.0 124.7 677.0 125.7L677.0 125.7Q677.0 126.8 676.6 127.5Q676.3 128.3 675.6 128.7Q675.0 129.1 674.2 129.1ZM674.0 128.2L674.0 128.2Q674.7 128.2 675.1 127.9Q675.5 127.5 675.7 127.0Q675.9 126.4 675.9 125.7L675.9 125.7Q675.9 125.1 675.7 124.5Q675.5 124.0 675.1 123.6Q674.7 123.3 674.0 123.3L674.0 123.3Q673.4 123.3 673.0 123.6Q672.6 123.9 672.4 124.5Q672.2 125.0 672.2 125.7L672.2 125.7Q672.2 126.5 672.4 127.0Q672.6 127.6 673.0 127.9Q673.5 128.2 674.0 128.2Z M682.9 129L681.9 129L681.9 122.4L682.9 122.4L682.9 123.5L683.0 123.5Q683.2 123.0 683.6 122.7Q684.1 122.4 684.7 122.4L684.7 122.4Q684.8 122.4 685.0 122.4Q685.1 122.4 685.2 122.4L685.2 122.4L685.2 123.4Q685.2 123.4 685.0 123.4Q684.8 123.4 684.6 123.4L684.6 123.4Q684.1 123.4 683.7 123.6Q683.4 123.8 683.2 124.1Q682.9 124.5 682.9 124.9L682.9 124.9L682.9 129ZM689.2 129.1L689.2 129.1Q688.2 129.1 687.5 128.7Q686.8 128.3 686.5 127.5Q686.1 126.8 686.1 125.8Q686.1 124.8 686.5 124.0Q686.8 123.2 687.5 122.8Q688.1 122.4 689.0 122.4L689.0 122.4Q689.6 122.4 690.1 122.5Q690.6 122.7 691.0 123.1Q691.4 123.5 691.6 124.1Q691.9 124.7 691.9 125.6L691.9 125.6L691.9 126.1L687.2 126.1Q687.2 126.7 687.4 127.2L687.4 127.2Q687.7 127.7 688.1 127.9Q688.6 128.2 689.2 128.2L689.2 128.2Q689.6 128.2 689.9 128.1Q690.2 128.0 690.4 127.8Q690.6 127.5 690.8 127.2L690.8 127.2L691.8 127.5Q691.6 128.0 691.3 128.3Q690.9 128.7 690.4 128.9Q689.8 129.1 689.2 129.1ZM687.2 125.2L687.2 125.2L690.8 125.2Q690.8 124.7 690.6 124.4L690.6 124.4Q690.4 123.9 690.0 123.6Q689.6 123.3 689.0 123.3Q688.4 123.3 688.0 123.6Q687.6 123.9 687.4 124.3L687.4 124.3Q687.2 124.7 687.2 125.2ZM694.5 131.4L693.4 131.4L693.4 122.4L694.4 122.4L694.4 123.5L694.5 123.5Q694.6 123.3 694.8 123.1Q695.0 122.8 695.4 122.6Q695.8 122.4 696.4 122.4L696.4 122.4Q697.3 122.4 697.9 122.8Q698.5 123.2 698.9 123.9Q699.2 124.7 699.2 125.7L699.2 125.7Q699.2 126.8 698.9 127.5Q698.5 128.3 697.9 128.7Q697.3 129.1 696.4 129.1L696.4 129.1Q695.8 129.1 695.4 128.9Q695.1 128.7 694.9 128.4Q694.6 128.2 694.5 128.0L694.5 128.0L694.5 128.0L694.5 131.4ZM696.3 128.2L696.3 128.2Q696.9 128.2 697.3 127.9Q697.7 127.5 697.9 127.0Q698.1 126.4 698.1 125.7L698.1 125.7Q698.1 125.1 697.9 124.5Q697.7 124.0 697.3 123.6Q696.9 123.3 696.3 123.3L696.3 123.3Q695.7 123.3 695.3 123.6Q694.9 123.9 694.7 124.5Q694.4 125.0 694.4 125.7L694.4 125.7Q694.4 126.5 694.7 127.0Q694.9 127.6 695.3 127.9Q695.7 128.2 696.3 128.2ZM703.4 129.1L703.4 129.1Q702.5 129.1 701.9 128.7Q701.2 128.3 700.8 127.5Q700.4 126.8 700.4 125.8L700.4 125.8Q700.4 124.7 700.8 124.0Q701.2 123.2 701.9 122.8Q702.5 122.4 703.4 122.4L703.4 122.4Q704.3 122.4 705.0 122.8Q705.7 123.2 706.0 124.0Q706.4 124.7 706.4 125.8L706.4 125.8Q706.4 126.8 706.0 127.5Q705.7 128.3 705.0 128.7Q704.3 129.1 703.4 129.1ZM703.4 128.2L703.4 128.2Q704.1 128.2 704.5 127.9Q704.9 127.5 705.1 127.0Q705.3 126.4 705.3 125.8L705.3 125.8Q705.3 125.1 705.1 124.6Q704.9 124.0 704.5 123.7Q704.1 123.3 703.4 123.3L703.4 123.3Q702.8 123.3 702.3 123.7Q701.9 124.0 701.7 124.6Q701.5 125.1 701.5 125.8L701.5 125.8Q701.5 126.4 701.7 127.0Q701.9 127.5 702.3 127.9Q702.8 128.2 703.4 128.2Z "/></g></svg>