<!-- Generated by readme-aura https://github.com/collectioneur/readme-aura -->
<svg width="800" height="210" viewBox="0 0 800 210" xmlns="http://www.w3.org/2000/svg"><defs><clipPath id="satori_bc-id"><path x="0" y="0" width="800" height="210" d="M20,0 h760 a20,20 0 0 1 20,20 v170 a20,20 0 0 1 -20,20 h-760 a20,20 0 0 1 -20,-20 v-170 a20,20 0 0 1 20,-20"/></clipPath></defs><clipPath id="satori_cp-id"><path x="0" y="0" width="800" height="210" d="M20,0 h760 a20,20 0 0 1 20,20 v170 a20,20 0 0 1 -20,20 h-760 a20,20 0 0 1 -20,-20 v-170 a20,20 0 0 1 20,-20"/></clipPath><mask id="satori_om-id"><rect x="1" y="1" width="798" height="208" fill="#fff"/><path width="800" height="210" fill="none" stroke="#000" stroke-width="2" d="M5.8580000000000005,5.8580000000000005 A20,20 0 0 1 20,0 h760 a20,20 0 0 1 20,20 v170 a20,20 0 0 1 -20,20 h-760 a20,20 0 0 1 -20,-20 v-170 A20,20 0 0 1 5.8580000000000005,5.8580000000000005"/></mask><path x="0" y="0" width="800" height="210" fill="#08080c" d="M20,0 h760 a20,20 0 0 1 20,20 v170 a20,20 0 0 1 -20,20 h-760 a20,20 0 0 1 -20,-20 v-170 a20,20 0 0 1 20,-20"/><path width="800" height="210" clip-path="url(#satori_bc-id)" fill="none" stroke="rgba(110,80,220,0.18)" stroke-width="2" d="M5.8580000000000005,5.8580000000000005 A20,20 0 0 1 20,0 h760 a20,20 0 0 1 20,20 v170 a20,20 0 0 1 -20,20 h-760 a20,20 0 0 1 -20,-20 v-170 A20,20 0 0 1 5.8580000000000005,5.8580000000000005"/><clipPath id="satori_cp-id-0" clip-path="url(#satori_cp-id)"><rect x="1" y="1" width="800" height="180"/></clipPath><mask id="satori_om-id-0"><rect x="1" y="1" width="800" height="180" fill="#fff" mask="url(#satori_om-id)"/></mask><svg x="1" y="1" width="800" height="180" preserveAspectRatio="none" clip-path="url(#satori_cp-id-0)" mask="url(#satori_om-id-0)"><defs><radialGradient id="bng1" cx="50%" cy="50%" r="50%"><stop offset="0%" stop-color="rgba(110,20,210,0.65)"></stop><stop offset="70%" stop-color="rgba(110,20,210,0)"></stop></radialGradient><radialGradient id="bng2" cx="50%" cy="50%" r="50%"><stop offset="0%" stop-color="rgba(40,70,255,0.55)"></stop><stop offset="70%" stop-color="rgba(40,70,255,0)"></stop></radialGradient><radialGradient id="bng3" cx="50%" cy="50%" r="50%"><stop offset="0%" stop-color="rgba(255,50,180,0.5)"></stop><stop offset="70%" stop-color="rgba(255,50,180,0)"></stop></radialGradient><radialGradient id="bng4" cx="50%" cy="50%" r="50%"><stop offset="0%" stop-color="rgba(160,30,255,0.5)"></stop><stop offset="70%" stop-color="rgba(160,30,255,0)"></stop></radialGradient><radialGradient id="bng5" cx="50%" cy="50%" r="50%"><stop offset="0%" stop-color="rgba(0,140,255,0.45)"></stop><stop offset="70%" stop-color="rgba(0,140,255,0)"></stop></radialGradient><radialGradient id="bng6" cx="50%" cy="50%" r="50%"><stop offset="0%" stop-color="rgba(200,30,200,0.45)"></stop><stop offset="70%" stop-color="rgba(200,30,200,0)"></stop></radialGradient><radialGradient id="bng7" cx="50%" cy="50%" r="50%"><stop offset="0%" stop-color="rgba(100,25,205,0.42)"></stop><stop offset="70%" stop-color="rgba(100,25,205,0)"></stop></radialGradient><radialGradient id="bng8" cx="50%" cy="50%" r="50%"><stop offset="0%" stop-color="rgba(60,80,255,0.38)"></stop><stop offset="70%" stop-color="rgba(60,80,255,0)"></stop></radialGradient></defs><ellipse id="bn-tl1" cx="-100" cy="60" rx="140" ry="10" fill="url(#bng1)"></ellipse><ellipse id="bn-tl2" cx="840" cy="50" rx="120" ry="20" fill="url(#bng2)"></ellipse><ellipse id="bn-tr1" cx="720" cy="55" rx="130" ry="25" fill="url(#bng3)"></ellipse><ellipse id="bn-tr2" cx="660" cy="65" rx="110" ry="15" fill="url(#bng4)"></ellipse><ellipse id="bn-br1" cx="700" cy="130" rx="140" ry="10" fill="url(#bng5)"></ellipse><ellipse id="bn-br2" cx="740" cy="140" rx="100" ry="10" fill="url(#bng6)"></ellipse><ellipse id="bn-bl1" cx="100" cy="125" rx="130" ry="15" fill="url(#bng7)"></ellipse><ellipse id="bn-bl2" cx="60" cy="135" rx="110" ry="15" fill="url(#bng8)"></ellipse><ellipse id="bn-tl1" cx="-50" cy="60" rx="140" ry="10" fill="url(#bng1)"></ellipse><ellipse id="bn-tl2" cx="800" cy="50" rx="120" ry="10" fill="url(#bng2)"></ellipse><ellipse id="bn-tr1" cx="230" cy="55" rx="130" ry="25" fill="url(#bng3)"></ellipse><ellipse id="bn-tr2" cx="400" cy="65" rx="110" ry="15" fill="url(#bng4)"></ellipse><ellipse id="bn-br1" cx="500" cy="130" rx="140" ry="20" fill="url(#bng5)"></ellipse><ellipse id="bn-br2" cx="40" cy="140" rx="100" ry="10" fill="url(#bng6)"></ellipse><ellipse id="bn-bl1" cx="100" cy="125" rx="130" ry="15" fill="url(#bng7)"></ellipse><ellipse id="bn-bl2" cx="240" cy="135" rx="110" ry="15" fill="url(#bng8)"></ellipse><style>

      @keyframes bn-drift-r { 0% { transform: translate(0, 0); opacity: 0.8; } 100% { transform: translate(1056px, 0); opacity: 1.05; } }
      @keyframes bn-drift-l { 0% { transform: translate(0, 0); opacity: 0.75; } 100% { transform: translate(-1003px, 0); opacity: 1; } }
      @keyframes bn-drift-u { 0% { transform: translate(0, 0); opacity: 0.85; } 100% { transform: translate(1000px, 0); opacity: 1; } }
      @keyframes bn-pulse { 0% { transform: scale(1); opacity: 0.8; } 100% { transform: translate(-1044px, 0); opacity: 0.5; } }
      #bn-tl1 { animation: bn-drift-r 0.8s infinite; }
      #bn-tl2 { animation: bn-drift-l 1.0s  infinite; }
      #bn-tr1 { animation: bn-drift-l 0.9s infinite 0.3s; }
      #bn-tr2 { animation: bn-drift-r 1.0s  infinite 0.1s; }
      #bn-br1 { animation: bn-drift-r 1.2s infinite 0.5s; }
      #bn-br2 { animation: bn-pulse 1s infinite; }
      #bn-bl1 { animation: bn-drift-l 1.3s infinite 0.2s; }
      #bn-bl2 { animation: bn-drift-u 0.7s infinite 0.4s; }
    
</style>
</svg><mask id="satori_om-id-0-0"><rect x="1" y="1" width="0" height="180" fill="#fff" mask="url(#satori_om-id)"/></mask><mask id="satori_om-id-0-0-0"><rect x="1" y="1" width="0" height="180" fill="#fff" mask="url(#satori_om-id)"/></mask><mask id="satori_om-id-0-0-0-0"><rect x="1" y="1" width="0" height="180" fill="#fff" mask="url(#satori_om-id)"/></mask><mask id="satori_om-id-0-0-0-1"><rect x="1" y="1" width="0" height="180" fill="#fff" mask="url(#satori_om-id)"/></mask><mask id="satori_om-id-0-0-1"><rect x="1" y="1" width="0" height="180" fill="#fff" mask="url(#satori_om-id)"/></mask><mask id="satori_om-id-0-0-1-0"><rect x="1" y="1" width="0" height="180" fill="#fff" mask="url(#satori_om-id)"/></mask><mask id="satori_om-id-0-0-1-1"><rect x="1" y="1" width="0" height="180" fill="#fff" mask="url(#satori_om-id)"/></mask><mask id="satori_om-id-0-0-2"><rect x="1" y="1" width="0" height="180" fill="#fff" mask="url(#satori_om-id)"/></mask><mask id="satori_om-id-0-0-2-0"><rect x="1" y="1" width="0" height="180" fill="#fff" mask="url(#satori_om-id)"/></mask><mask id="satori_om-id-0-0-2-1"><rect x="1" y="1" width="0" height="180" fill="#fff" mask="url(#satori_om-id)"/></mask><mask id="satori_om-id-0-0-3"><rect x="1" y="1" width="0" height="180" fill="#fff" mask="url(#satori_om-id)"/></mask><mask id="satori_om-id-0-0-3-0"><rect x="1" y="1" width="0" height="180" fill="#fff" mask="url(#satori_om-id)"/></mask><mask id="satori_om-id-0-0-3-1"><rect x="1" y="1" width="0" height="180" fill="#fff" mask="url(#satori_om-id)"/></mask><mask id="satori_om-id-0-0-4"><rect x="1" y="1" width="0" height="180" fill="#fff" mask="url(#satori_om-id)"/></mask><mask id="satori_om-id-0-0-4-0"><rect x="1" y="1" width="0" height="180" fill="#fff" mask="url(#satori_om-id)"/></mask><mask id="satori_om-id-0-0-4-1"><rect x="1" y="1" width="0" height="180" fill="#fff" mask="url(#satori_om-id)"/></mask><mask id="satori_om-id-0-0-5"><rect x="1" y="1" width="0" height="180" fill="#fff" mask="url(#satori_om-id)"/></mask><mask id="satori_om-id-0-0-5-0"><rect x="1" y="1" width="0" height="180" fill="#fff" mask="url(#satori_om-id)"/></mask><mask id="satori_om-id-0-0-5-1"><rect x="1" y="1" width="0" height="180" fill="#fff" mask="url(#satori_om-id)"/></mask><mask id="satori_om-id-0-0-6"><rect x="1" y="1" width="0" height="180" fill="#fff" mask="url(#satori_om-id)"/></mask><mask id="satori_om-id-0-0-6-0"><rect x="1" y="1" width="0" height="180" fill="#fff" mask="url(#satori_om-id)"/></mask><mask id="satori_om-id-0-0-6-1"><rect x="1" y="1" width="0" height="180" fill="#fff" mask="url(#satori_om-id)"/></mask><mask id="satori_om-id-0-0-7"><rect x="1" y="1" width="0" height="180" fill="#fff" mask="url(#satori_om-id)"/></mask><mask id="satori_om-id-0-0-7-0"><rect x="1" y="1" width="0" height="180" fill="#fff" mask="url(#satori_om-id)"/></mask><mask id="satori_om-id-0-0-7-1"><rect x="1" y="1" width="0" height="180" fill="#fff" mask="url(#satori_om-id)"/></mask><mask id="satori_om-id-0-1"><rect x="1" y="1" width="0" height="180" fill="#fff" mask="url(#satori_om-id)"/></mask><mask id="satori_om-id-0-2"><rect x="1" y="1" width="0" height="180" fill="#fff" mask="url(#satori_om-id)"/></mask><mask id="satori_om-id-0-3"><rect x="1" y="1" width="0" height="180" fill="#fff" mask="url(#satori_om-id)"/></mask><mask id="satori_om-id-0-4"><rect x="1" y="1" width="0" height="180" fill="#fff" mask="url(#satori_om-id)"/></mask><mask id="satori_om-id-0-5"><rect x="1" y="1" width="0" height="180" fill="#fff" mask="url(#satori_om-id)"/></mask><mask id="satori_om-id-0-6"><rect x="1" y="1" width="0" height="180" fill="#fff" mask="url(#satori_om-id)"/></mask><mask id="satori_om-id-0-7"><rect x="1" y="1" width="0" height="180" fill="#fff" mask="url(#satori_om-id)"/></mask><mask id="satori_om-id-0-8"><rect x="1" y="1" width="0" height="180" fill="#fff" mask="url(#satori_om-id)"/></mask><mask id="satori_om-id-0-9"><rect x="1" y="1" width="0" height="180" fill="#fff" mask="url(#satori_om-id)"/></mask><mask id="satori_om-id-0-10"><rect x="1" y="1" width="0" height="180" fill="#fff" mask="url(#satori_om-id)"/></mask><mask id="satori_om-id-0-11"><rect x="1" y="1" width="0" height="180" fill="#fff" mask="url(#satori_om-id)"/></mask><mask id="satori_om-id-0-12"><rect x="1" y="1" width="0" height="180" fill="#fff" mask="url(#satori_om-id)"/></mask><mask id="satori_om-id-0-13"><rect x="1" y="1" width="0" height="180" fill="#fff" mask="url(#satori_om-id)"/></mask><mask id="satori_om-id-0-14"><rect x="1" y="1" width="0" height="180" fill="#fff" mask="url(#satori_om-id)"/></mask><mask id="satori_om-id-0-15"><rect x="1" y="1" width="0" height="180" fill="#fff" mask="url(#satori_om-id)"/></mask><mask id="satori_om-id-0-16"><rect x="1" y="1" width="0" height="180" fill="#fff" mask="url(#satori_om-id)"/></mask><mask id="satori_om-id-1"><rect x="247" y="33" width="306" height="62" fill="#fff" mask="url(#satori_om-id)"/></mask><mask id="satori_om-id-1-0"><rect x="247" y="33" width="306" height="62" fill="#fff" mask="url(#satori_om-id)"/></mask><mask id="satori_om-id-1-0-0"><rect x="247" y="33" width="306" height="39" fill="#fff" mask="url(#satori_om-id)"/></mask><g mask="url(#satori_om-id)" clip-path="url(#satori_cp-id)"><path fill="white" d="M253.7 64L249 64L249 46.5L253.5 46.5L253.5 49.6L253.7 49.6Q254.2 48.0 255.3 47.1Q256.5 46.3 257.9 46.3L257.9 46.3Q258.3 46.3 258.7 46.3Q259.1 46.4 259.5 46.5L259.5 46.5L259.5 50.6Q259.1 50.5 258.5 50.5Q258.0 50.4 257.4 50.4L257.4 50.4Q256.4 50.4 255.5 50.9Q254.6 51.3 254.2 52.1Q253.7 53.0 253.7 54.1L253.7 54.1L253.7 64ZM269.9 64.3L269.9 64.3Q267.3 64.3 265.3 63.3Q263.4 62.2 262.3 60.1Q261.3 58.1 261.3 55.4L261.3 55.4Q261.3 52.7 262.3 50.6Q263.4 48.6 265.3 47.5Q267.1 46.3 269.7 46.3L269.7 46.3Q271.4 46.3 272.9 46.9Q274.4 47.4 275.5 48.5Q276.6 49.6 277.3 51.3Q277.9 52.9 277.9 55.2L277.9 55.2L277.9 56.5L265.9 56.5Q266.0 57.8 266.5 58.8L266.5 58.8Q267.0 59.8 267.9 60.3Q268.8 60.8 270 60.8L270 60.8Q270.8 60.8 271.5 60.6Q272.2 60.3 272.6 59.9Q273.1 59.4 273.4 58.8L273.4 58.8L277.6 59.5Q277.2 61.0 276.2 62.1Q275.1 63.2 273.5 63.8Q272.0 64.3 269.9 64.3ZM266.0 53.5L266.0 53.5L273.4 53.5Q273.3 52.7 273 52.0L273 52.0Q272.6 51.0 271.8 50.4Q270.9 49.8 269.7 49.8L269.7 49.8Q268.5 49.8 267.7 50.4Q266.8 51.0 266.4 51.9L266.4 51.9Q266.0 52.7 266.0 53.5ZM286.0 64.3L286.0 64.3Q284.3 64.3 283.0 63.8Q281.7 63.2 280.9 62.0Q280.2 60.8 280.2 59.1L280.2 59.1Q280.2 57.7 280.7 56.7Q281.2 55.7 282.2 55.1Q283.1 54.5 284.3 54.2Q285.5 53.9 286.8 53.8L286.8 53.8Q288.3 53.6 289.2 53.5Q290.1 53.3 290.6 53.0Q291.0 52.8 291.0 52.2L291.0 52.2L291.0 52.1Q291.0 51.4 290.7 50.8Q290.4 50.3 289.7 50.1Q289.1 49.8 288.3 49.8L288.3 49.8Q287.3 49.8 286.7 50.1Q286 50.3 285.6 50.8Q285.2 51.2 285.0 51.8L285.0 51.8L280.7 51.1Q281.1 49.6 282.2 48.5Q283.2 47.4 284.8 46.9Q286.3 46.3 288.3 46.3L288.3 46.3Q289.7 46.3 291 46.6Q292.3 47.0 293.4 47.7Q294.4 48.4 295.1 49.5Q295.7 50.7 295.7 52.2L295.7 52.2L295.7 64L291.2 64L291.2 61.6L291.1 61.6Q290.7 62.4 290.0 63.0Q289.3 63.6 288.3 64.0Q287.3 64.3 286.0 64.3ZM287.3 61.0L287.3 61.0Q288.4 61.0 289.2 60.6Q290.1 60.2 290.5 59.4Q291.0 58.7 291.0 57.8L291.0 57.8L291.0 55.9Q290.8 56.0 290.4 56.1Q290.0 56.3 289.5 56.4Q288.9 56.5 288.4 56.5Q287.9 56.6 287.5 56.7L287.5 56.7Q286.7 56.8 286.0 57.1Q285.4 57.3 285.0 57.8Q284.7 58.3 284.7 59.0L284.7 59.0Q284.7 59.7 285 60.1Q285.3 60.6 285.9 60.8Q286.5 61.0 287.3 61.0ZM306.0 64.3L306.0 64.3Q304.0 64.3 302.4 63.3Q300.8 62.2 299.9 60.2Q298.9 58.2 298.9 55.3L298.9 55.3Q298.9 52.3 299.9 50.3Q300.9 48.3 302.5 47.3Q304.1 46.3 306.0 46.3L306.0 46.3Q307.5 46.3 308.5 46.8Q309.5 47.3 310.1 48.0Q310.7 48.8 311 49.5L311 49.5L311.2 49.5L311.2 40.7L315.8 40.7L315.8 64L311.2 64L311.2 61.2L311 61.2Q310.7 61.9 310.1 62.6Q309.5 63.3 308.5 63.8Q307.5 64.3 306.0 64.3ZM307.5 60.5L307.5 60.5Q308.7 60.5 309.5 59.9Q310.4 59.2 310.8 58.0Q311.3 56.9 311.3 55.3L311.3 55.3Q311.3 53.7 310.8 52.5Q310.4 51.4 309.5 50.7Q308.7 50.1 307.5 50.1L307.5 50.1Q306.3 50.1 305.4 50.7Q304.6 51.4 304.2 52.6Q303.8 53.8 303.8 55.3L303.8 55.3Q303.8 56.8 304.2 58Q304.6 59.2 305.4 59.9Q306.3 60.5 307.5 60.5ZM324.5 64L319.8 64L319.8 46.5L324.2 46.5L324.4 49.9Q324.7 49.0 325.3 48.3L325.3 48.3Q326.1 47.2 327.1 46.8Q328.2 46.3 329.4 46.3L329.4 46.3Q331.3 46.3 332.4 47.5L332.4 47.5Q333.3 48.4 333.9 50.2L333.9 50.2Q334.2 49.1 334.8 48.4L334.8 48.4Q335.7 47.3 336.9 46.8Q338.1 46.3 339.5 46.3L339.5 46.3Q341.1 46.3 342.3 47.0Q343.6 47.7 344.3 49.0Q345.0 50.3 345.0 52.2L345.0 52.2L345.0 64L340.4 64L340.4 53.1Q340.4 51.6 339.6 50.9Q338.8 50.2 337.6 50.2L337.6 50.2Q336.7 50.2 336.1 50.6Q335.4 51.0 335.1 51.6Q334.7 52.3 334.7 53.3L334.7 53.3L334.7 64L330.2 64L330.2 53.0Q330.2 51.7 329.4 50.9Q328.7 50.2 327.5 50.2L327.5 50.2Q326.6 50.2 326.0 50.6Q325.3 50.9 324.9 51.7Q324.5 52.4 324.5 53.4L324.5 53.4L324.5 64ZM356.9 64.3L356.9 64.3Q354.3 64.3 352.3 63.3Q350.4 62.2 349.4 60.1Q348.3 58.1 348.3 55.4L348.3 55.4Q348.3 52.7 349.3 50.6Q350.4 48.6 352.3 47.5Q354.2 46.3 356.7 46.3L356.7 46.3Q358.4 46.3 359.9 46.9Q361.4 47.4 362.5 48.5Q363.6 49.6 364.3 51.3Q364.9 52.9 364.9 55.2L364.9 55.2L364.9 56.5L353.0 56.5Q353 57.8 353.5 58.8L353.5 58.8Q354.0 59.8 354.9 60.3Q355.8 60.8 357.0 60.8L357.0 60.8Q357.8 60.8 358.5 60.6Q359.2 60.3 359.7 59.9Q360.1 59.4 360.4 58.8L360.4 58.8L364.6 59.5Q364.2 61.0 363.2 62.1Q362.1 63.2 360.6 63.8Q359.0 64.3 356.9 64.3ZM353.0 53.5L353.0 53.5L360.4 53.5Q360.3 52.7 360.0 52.0L360.0 52.0Q359.6 51.0 358.8 50.4Q358.0 49.8 356.8 49.8L356.8 49.8Q355.5 49.8 354.7 50.4Q353.8 51.0 353.4 51.9L353.4 51.9Q353.1 52.7 353.0 53.5ZM368.3 52.5L378.9 52.5L378.9 56.3L368.3 56.3L368.3 52.5ZM388.0 64.3L388.0 64.3Q386.3 64.3 385.0 63.8Q383.7 63.2 382.9 62.0Q382.1 60.8 382.1 59.1L382.1 59.1Q382.1 57.7 382.7 56.7Q383.2 55.7 384.1 55.1Q385.1 54.5 386.3 54.2Q387.4 53.9 388.7 53.8L388.7 53.8Q390.3 53.6 391.2 53.5Q392.1 53.3 392.5 53.0Q393.0 52.8 393.0 52.2L393.0 52.2L393.0 52.1Q393.0 51.4 392.7 50.8Q392.3 50.3 391.7 50.1Q391.1 49.8 390.2 49.8L390.2 49.8Q389.3 49.8 388.7 50.1Q388.0 50.3 387.6 50.8Q387.1 51.2 386.9 51.8L386.9 51.8L382.6 51.1Q383.1 49.6 384.1 48.5Q385.2 47.4 386.7 46.9Q388.3 46.3 390.3 46.3L390.3 46.3Q391.7 46.3 393.0 46.6Q394.3 47.0 395.4 47.7Q396.4 48.4 397.0 49.5Q397.7 50.7 397.7 52.2L397.7 52.2L397.7 64L393.2 64L393.2 61.6L393.1 61.6Q392.6 62.4 391.9 63.0Q391.2 63.6 390.2 64.0Q389.3 64.3 388.0 64.3ZM389.3 61.0L389.3 61.0Q390.4 61.0 391.2 60.6Q392.1 60.2 392.5 59.4Q393 58.7 393 57.8L393 57.8L393 55.9Q392.8 56.0 392.4 56.1Q392.0 56.3 391.4 56.4Q390.9 56.5 390.4 56.5Q389.9 56.6 389.5 56.7L389.5 56.7Q388.7 56.8 388.0 57.1Q387.4 57.3 387 57.8Q386.6 58.3 386.6 59.0L386.6 59.0Q386.6 59.7 387.0 60.1Q387.3 60.6 387.9 60.8Q388.5 61.0 389.3 61.0ZM407.7 64.2L407.7 64.2Q405.9 64.2 404.5 63.4Q403.1 62.6 402.4 61.2Q401.7 59.7 401.7 57.6L401.7 57.6L401.7 46.5L406.3 46.5L406.3 56.8Q406.3 58.5 407.2 59.4Q408.0 60.3 409.5 60.3L409.5 60.3Q410.5 60.3 411.3 59.9Q412.0 59.4 412.5 58.6Q412.9 57.8 412.9 56.6L412.9 56.6L412.9 46.5L417.6 46.5L417.6 64L413.2 64L413.1 60.4Q412.4 62.0 411.3 63.0L411.3 63.0Q409.8 64.2 407.7 64.2ZM426.3 64L421.6 64L421.6 46.5L426.1 46.5L426.1 49.6L426.3 49.6Q426.8 48.0 427.9 47.1Q429.0 46.3 430.5 46.3L430.5 46.3Q430.9 46.3 431.3 46.3Q431.7 46.4 432.0 46.5L432.0 46.5L432.0 50.6Q431.7 50.5 431.1 50.5Q430.5 50.4 430 50.4L430 50.4Q428.9 50.4 428.1 50.9Q427.2 51.3 426.7 52.1Q426.3 53.0 426.3 54.1L426.3 54.1L426.3 64ZM439.5 64.3L439.5 64.3Q437.8 64.3 436.5 63.8Q435.2 63.2 434.4 62.0Q433.7 60.8 433.7 59.1L433.7 59.1Q433.7 57.7 434.2 56.7Q434.8 55.7 435.7 55.1Q436.6 54.5 437.8 54.2Q439.0 53.9 440.3 53.8L440.3 53.8Q441.8 53.6 442.7 53.5Q443.6 53.3 444.1 53.0Q444.5 52.8 444.5 52.2L444.5 52.2L444.5 52.1Q444.5 51.4 444.2 50.8Q443.9 50.3 443.3 50.1Q442.6 49.8 441.8 49.8L441.8 49.8Q440.9 49.8 440.2 50.1Q439.5 50.3 439.1 50.8Q438.7 51.2 438.5 51.8L438.5 51.8L434.2 51.1Q434.6 49.6 435.7 48.5Q436.7 47.4 438.3 46.9Q439.8 46.3 441.8 46.3L441.8 46.3Q443.2 46.3 444.5 46.6Q445.8 47.0 446.9 47.7Q448.0 48.4 448.6 49.5Q449.2 50.7 449.2 52.2L449.2 52.2L449.2 64L444.8 64L444.8 61.6L444.6 61.6Q444.2 62.4 443.5 63.0Q442.8 63.6 441.8 64.0Q440.8 64.3 439.5 64.3ZM440.8 61.0L440.8 61.0Q441.9 61.0 442.8 60.6Q443.6 60.2 444.1 59.4Q444.5 58.7 444.5 57.8L444.5 57.8L444.5 55.9Q444.3 56.0 443.9 56.1Q443.5 56.3 443.0 56.4Q442.5 56.5 442.0 56.5Q441.5 56.6 441.1 56.7L441.1 56.7Q440.2 56.8 439.5 57.1Q438.9 57.3 438.5 57.8Q438.2 58.3 438.2 59.0L438.2 59.0Q438.2 59.7 438.5 60.1Q438.9 60.6 439.5 60.8Q440.0 61.0 440.8 61.0Z "/></g><mask id="satori_om-id-1-0-1"><rect x="247" y="76" width="306" height="19" fill="#fff" mask="url(#satori_om-id)"/></mask><g mask="url(#satori_om-id)" clip-path="url(#satori_cp-id)"><path fill="#a0a0b8" d="M249.9 92L248.4 92L248.4 80.4L250.2 80.4L254.9 87.8Q255.1 88.1 255.3 88.5Q255.6 89 255.9 89.6L255.9 89.6Q256.1 89.9 256.3 90.2L256.3 90.2Q256.2 89.9 256.2 89.5L256.2 89.5Q256.2 88.9 256.2 88.4Q256.2 87.9 256.2 87.5L256.2 87.5L256.2 80.4L257.6 80.4L257.6 92L255.9 92L251.7 85.4Q251.4 84.9 251.1 84.4Q250.8 83.9 250.4 83.3L250.4 83.3Q250.1 82.8 249.8 82.1L249.8 82.1Q249.8 82.7 249.8 83.2L249.8 83.2Q249.9 84.0 249.9 84.5Q249.9 85.0 249.9 85.4L249.9 85.4L249.9 92ZM264.0 92.2L264.0 92.2Q262.7 92.2 261.8 91.6Q260.9 91.1 260.4 90.1Q259.9 89.0 259.9 87.7Q259.9 86.4 260.4 85.3Q260.8 84.3 261.7 83.7Q262.6 83.2 263.8 83.2L263.8 83.2Q264.5 83.2 265.2 83.4Q265.8 83.6 266.4 84.1Q266.9 84.6 267.3 85.5Q267.6 86.3 267.6 87.5L267.6 87.5L267.6 88.1L261.3 88.1Q261.3 89.0 261.6 89.6L261.6 89.6Q262.0 90.2 262.6 90.6Q263.2 90.9 264.0 90.9L264.0 90.9Q264.5 90.9 264.9 90.8Q265.3 90.6 265.6 90.3Q265.9 90.0 266.1 89.6L266.1 89.6L267.5 90.0Q267.3 90.6 266.8 91.1Q266.3 91.6 265.6 91.9Q264.9 92.2 264.0 92.2ZM261.3 86.9L261.3 86.9L266.2 86.9Q266.1 86.3 265.9 85.8L265.9 85.8Q265.6 85.2 265.1 84.8Q264.6 84.4 263.8 84.4Q263.0 84.4 262.4 84.8Q261.9 85.2 261.6 85.8L261.6 85.8Q261.3 86.3 261.3 86.9ZM270.5 92L268.9 92L272.0 87.5L269.1 83.3L270.7 83.3L271.8 85.0Q272.2 85.6 272.5 86.2L272.5 86.2Q272.7 86.4 272.8 86.7L272.8 86.7Q272.9 86.4 273.0 86.2L273.0 86.2Q273.3 85.6 273.8 85.0L273.8 85.0L274.9 83.3L276.5 83.3L273.5 87.6L276.6 92L275.0 92L273.7 90.0Q273.3 89.4 273.0 88.8L273.0 88.8Q272.9 88.6 272.7 88.4L272.7 88.4Q272.6 88.6 272.5 88.8L272.5 88.8Q272.2 89.4 271.8 90.0L271.8 90.0L270.5 92ZM280.0 83.3L281.8 83.3L281.8 84.5L280.0 84.5L280.0 89.7Q280.0 90.3 280.2 90.6Q280.5 90.9 281.0 90.9L281.0 90.9Q281.2 90.9 281.4 90.8Q281.6 90.8 281.7 90.8L281.7 90.8L282.0 92.0Q281.8 92.0 281.5 92.1Q281.3 92.1 281.0 92.1L281.0 92.1Q279.9 92.1 279.2 91.5Q278.6 90.9 278.6 89.8L278.6 89.8L278.6 84.5L277.3 84.5L277.3 83.3L278.6 83.3L278.6 81.2L280.0 81.2L280.0 83.3ZM283.5 86.4L288.6 86.4L288.6 87.7L283.5 87.7L283.5 86.4ZM295.9 92.2L295.9 92.2Q294.3 92.2 293.1 91.4Q292.0 90.7 291.3 89.4Q290.7 88.0 290.7 86.2L290.7 86.2Q290.7 84.3 291.3 83.0Q292.0 81.7 293.1 80.9Q294.3 80.2 295.8 80.2L295.8 80.2Q296.7 80.2 297.5 80.5Q298.3 80.8 298.9 81.3Q299.6 81.8 300.0 82.5Q300.4 83.2 300.6 84.0L300.6 84.0L299.0 84.0Q298.9 83.4 298.6 83Q298.3 82.6 297.8 82.2Q297.4 81.9 296.9 81.7Q296.4 81.6 295.8 81.6L295.8 81.6Q294.8 81.6 293.9 82.1Q293.1 82.6 292.6 83.7Q292.1 84.7 292.1 86.2L292.1 86.2Q292.1 87.7 292.6 88.7Q293.1 89.7 294.0 90.3Q294.8 90.8 295.9 90.8L295.9 90.8Q296.9 90.8 297.6 90.4Q298.4 89.9 298.8 89.2L298.8 89.2Q299.2 88.4 299.2 87.4L299.2 87.4L296.2 87.4L296.2 86.1L300.6 86.1L300.6 87.4Q300.6 88.9 300.0 89.9Q299.4 91.0 298.3 91.6Q297.3 92.2 295.9 92.2ZM306.6 92.2L306.6 92.2Q305.3 92.2 304.4 91.6Q303.5 91.1 303.0 90.1Q302.5 89.0 302.5 87.7Q302.5 86.4 302.9 85.3Q303.4 84.3 304.3 83.7Q305.2 83.2 306.4 83.2L306.4 83.2Q307.1 83.2 307.8 83.4Q308.4 83.6 309.0 84.1Q309.5 84.6 309.9 85.5Q310.2 86.3 310.2 87.5L310.2 87.5L310.2 88.1L303.9 88.1Q303.9 89.0 304.2 89.6L304.2 89.6Q304.6 90.2 305.2 90.6Q305.8 90.9 306.6 90.9L306.6 90.9Q307.1 90.9 307.5 90.8Q307.9 90.6 308.2 90.3Q308.5 90.0 308.7 89.6L308.7 89.6L310.1 90.0Q309.9 90.6 309.4 91.1Q308.9 91.6 308.2 91.9Q307.5 92.2 306.6 92.2ZM303.9 86.9L303.9 86.9L308.8 86.9Q308.7 86.3 308.5 85.8L308.5 85.8Q308.2 85.2 307.7 84.8Q307.2 84.4 306.4 84.4Q305.6 84.4 305.0 84.8Q304.5 85.2 304.2 85.8L304.2 85.8Q303.9 86.3 303.9 86.9ZM313.6 86.8L313.6 86.8L313.6 92L312.2 92L312.2 83.3L313.6 83.3L313.6 84.9Q313.9 84.1 314.5 83.7L314.5 83.7Q315.3 83.2 316.2 83.2L316.2 83.2Q317.1 83.2 317.8 83.5Q318.5 83.9 318.8 84.6Q319.2 85.3 319.2 86.5L319.2 86.5L319.2 92L317.8 92L317.8 86.6Q317.8 85.6 317.3 85.0Q316.7 84.4 315.8 84.4L315.8 84.4Q315.2 84.4 314.7 84.7Q314.2 85.0 313.9 85.5Q313.6 86.0 313.6 86.8Z M327.8 92L326.3 92L326.3 80.4L330.3 80.4Q331.7 80.4 332.6 80.8Q333.4 81.3 333.9 82.1Q334.3 82.9 334.3 84.0Q334.3 85.0 333.9 85.8Q333.4 86.6 332.6 87.0L332.6 87.0Q332.4 87.1 332.1 87.2L332.1 87.2L334.7 92L333.0 92L330.6 87.5Q330.5 87.5 330.3 87.5L330.3 87.5L327.8 87.5L327.8 92ZM327.8 81.7L327.8 86.2L330.3 86.2Q331.2 86.2 331.7 85.9Q332.3 85.6 332.6 85.1Q332.8 84.6 332.8 84.0L332.8 84.0Q332.8 83.3 332.6 82.7Q332.3 82.2 331.7 81.9Q331.2 81.7 330.2 81.7L330.2 81.7L327.8 81.7ZM343.8 92L336.6 92L336.6 80.4L343.7 80.4L343.7 81.7L338.1 81.7L338.1 85.5L343.3 85.5L343.3 86.8L338.1 86.8L338.1 90.7L343.8 90.7L343.8 92ZM346.8 92L345.3 92L349.5 80.4L351.2 80.4L355.5 92L353.9 92L352.8 88.8L348.0 88.8L346.8 92ZM348.4 87.5L352.3 87.5L351.4 85.1Q351.2 84.5 350.9 83.5L350.9 83.5Q350.7 82.7 350.3 81.5L350.3 81.5Q350.0 82.7 349.7 83.5L349.7 83.5Q349.4 84.5 349.2 85.1L349.2 85.1L348.4 87.5ZM360.9 92L360.9 92L357.3 92L357.3 80.4L361.1 80.4Q362.8 80.4 364.0 81.1Q365.2 81.8 365.8 83.1Q366.5 84.4 366.5 86.2L366.5 86.2Q366.5 88.0 365.8 89.3Q365.2 90.6 363.9 91.3Q362.7 92 360.9 92ZM358.8 81.7L358.8 90.7L360.8 90.7Q362.3 90.7 363.2 90.1Q364.1 89.6 364.6 88.6Q365.0 87.6 365.0 86.2L365.0 86.2Q365.0 84.8 364.6 83.8Q364.1 82.8 363.2 82.2Q362.3 81.7 361.0 81.7L361.0 81.7L358.8 81.7ZM370.3 92L368.8 92L368.8 80.4L370.9 80.4L373.8 87.7Q373.9 88.0 374.0 88.3Q374.2 88.7 374.3 89.2Q374.5 89.6 374.6 90.1L374.6 90.1Q374.6 90.2 374.7 90.4L374.7 90.4Q374.7 90.2 374.7 90.1L374.7 90.1Q374.9 89.7 375.0 89.2Q375.2 88.8 375.3 88.4Q375.4 88.0 375.5 87.7L375.5 87.7L378.4 80.4L380.5 80.4L380.5 92L379.0 92L379.0 85.4Q379.0 85.0 379.0 84.5Q379.0 84.1 379.0 83.6Q379.0 83.1 379.1 82.5L379.1 82.5Q379.1 82.2 379.1 81.9L379.1 81.9Q379.0 82.3 378.9 82.6L378.9 82.6Q378.7 83.2 378.5 83.7Q378.3 84.2 378.2 84.6Q378.0 85.1 377.9 85.4L377.9 85.4L375.3 92L374.0 92L371.4 85.4Q371.3 85.1 371.1 84.7Q371.0 84.2 370.8 83.7Q370.6 83.2 370.4 82.6L370.4 82.6Q370.3 82.3 370.2 82.0L370.2 82.0Q370.2 82.2 370.2 82.5L370.2 82.5Q370.2 83.0 370.2 83.5Q370.2 84.0 370.2 84.5Q370.3 85.0 370.3 85.4L370.3 85.4L370.3 92ZM390.5 92L383.3 92L383.3 80.4L390.4 80.4L390.4 81.7L384.8 81.7L384.8 85.5L390 85.5L390 86.8L384.8 86.8L384.8 90.7L390.5 90.7L390.5 92Z M400.8 95.5L400.8 95.5Q399.8 95.5 399.1 95.2Q398.4 95.0 397.9 94.6Q397.5 94.1 397.2 93.7L397.2 93.7L398.3 92.9Q398.5 93.2 398.8 93.5Q399.1 93.8 399.5 94.0Q400.0 94.2 400.8 94.2L400.8 94.2Q401.8 94.2 402.5 93.7Q403.2 93.2 403.2 92.1L403.2 92.1L403.2 90.4L403.0 90.4Q402.9 90.6 402.6 91.0Q402.4 91.3 401.8 91.6Q401.3 91.9 400.5 91.9L400.5 91.9Q399.5 91.9 398.6 91.4Q397.8 90.9 397.3 89.9Q396.8 89.0 396.8 87.6L396.8 87.6Q396.8 86.2 397.3 85.2Q397.8 84.3 398.6 83.7Q399.4 83.2 400.5 83.2L400.5 83.2Q401.4 83.2 401.9 83.4Q402.4 83.7 402.7 84.1Q402.9 84.4 403.1 84.7L403.1 84.7L403.2 84.7L403.2 83.3L404.6 83.3L404.6 92.2Q404.6 93.4 404.1 94.1Q403.6 94.8 402.7 95.1Q401.8 95.5 400.8 95.5ZM400.7 90.6L400.7 90.6Q401.5 90.6 402.1 90.2Q402.6 89.9 402.9 89.2Q403.2 88.5 403.2 87.6L403.2 87.6Q403.2 86.6 402.9 85.9Q402.6 85.2 402.1 84.8Q401.5 84.4 400.7 84.4L400.7 84.4Q399.9 84.4 399.4 84.8Q398.8 85.3 398.5 86.0Q398.2 86.7 398.2 87.6L398.2 87.6Q398.2 88.5 398.5 89.1Q398.8 89.8 399.4 90.2Q399.9 90.6 400.7 90.6ZM410.7 92.2L410.7 92.2Q409.5 92.2 408.5 91.6Q407.6 91.1 407.1 90.1Q406.6 89.0 406.6 87.7Q406.6 86.4 407.1 85.3Q407.6 84.3 408.5 83.7Q409.4 83.2 410.6 83.2L410.6 83.2Q411.3 83.2 411.9 83.4Q412.6 83.6 413.2 84.1Q413.7 84.6 414.0 85.5Q414.4 86.3 414.4 87.5L414.4 87.5L414.4 88.1L408.0 88.1Q408.1 89.0 408.4 89.6L408.4 89.6Q408.7 90.2 409.3 90.6Q409.9 90.9 410.7 90.9L410.7 90.9Q411.2 90.9 411.7 90.8Q412.1 90.6 412.4 90.3Q412.7 90.0 412.9 89.6L412.9 89.6L414.2 90.0Q414.0 90.6 413.5 91.1Q413.0 91.6 412.3 91.9Q411.6 92.2 410.7 92.2ZM408.1 86.9L408.1 86.9L412.9 86.9Q412.9 86.3 412.7 85.8L412.7 85.8Q412.4 85.2 411.9 84.8Q411.3 84.4 410.6 84.4Q409.8 84.4 409.2 84.8Q408.6 85.2 408.3 85.8L408.3 85.8Q408.1 86.3 408.1 86.9ZM417.8 86.8L417.8 86.8L417.8 92L416.4 92L416.4 83.3L417.7 83.3L417.7 84.9Q418.1 84.1 418.7 83.7L418.7 83.7Q419.4 83.2 420.4 83.2L420.4 83.2Q421.3 83.2 422.0 83.5Q422.6 83.9 423.0 84.6Q423.4 85.3 423.4 86.5L423.4 86.5L423.4 92L422.0 92L422.0 86.6Q422.0 85.6 421.4 85.0Q420.9 84.4 420.0 84.4L420.0 84.4Q419.4 84.4 418.9 84.7Q418.4 85.0 418.1 85.5Q417.8 86.0 417.8 86.8ZM429.5 92.2L429.5 92.2Q428.2 92.2 427.3 91.6Q426.4 91.1 425.9 90.1Q425.4 89.0 425.4 87.7Q425.4 86.4 425.9 85.3Q426.4 84.3 427.3 83.7Q428.1 83.2 429.3 83.2L429.3 83.2Q430.0 83.2 430.7 83.4Q431.4 83.6 431.9 84.1Q432.5 84.6 432.8 85.5Q433.1 86.3 433.1 87.5L433.1 87.5L433.1 88.1L426.8 88.1Q426.9 89.0 427.2 89.6L427.2 89.6Q427.5 90.2 428.1 90.6Q428.7 90.9 429.5 90.9L429.5 90.9Q430.0 90.9 430.4 90.8Q430.9 90.6 431.2 90.3Q431.5 90.0 431.6 89.6L431.6 89.6L433 90.0Q432.8 90.6 432.3 91.1Q431.8 91.6 431.1 91.9Q430.4 92.2 429.5 92.2ZM426.8 86.9L426.8 86.9L431.7 86.9Q431.7 86.3 431.5 85.8L431.5 85.8Q431.2 85.2 430.7 84.8Q430.1 84.4 429.3 84.4Q428.5 84.4 428.0 84.8Q427.4 85.2 427.1 85.8L427.1 85.8Q426.9 86.3 426.8 86.9ZM436.6 92L435.2 92L435.2 83.3L436.5 83.3L436.5 84.6L436.6 84.6Q436.9 83.9 437.5 83.5Q438.1 83.1 438.9 83.1L438.9 83.1Q439.0 83.1 439.2 83.1Q439.5 83.2 439.6 83.2L439.6 83.2L439.6 84.6Q439.5 84.6 439.3 84.5Q439.0 84.5 438.7 84.5L438.7 84.5Q438.1 84.5 437.6 84.8Q437.1 85.0 436.8 85.5Q436.6 85.9 436.6 86.5L436.6 86.5L436.6 92ZM443.6 92.2L443.6 92.2Q442.8 92.2 442.1 91.9Q441.4 91.6 441.0 91.0Q440.6 90.4 440.6 89.5L440.6 89.5Q440.6 88.8 440.9 88.3Q441.2 87.8 441.7 87.6Q442.2 87.3 442.8 87.2Q443.4 87.0 444.0 86.9L444.0 86.9Q444.8 86.8 445.3 86.8Q445.8 86.7 446.1 86.6Q446.3 86.5 446.3 86.1L446.3 86.1L446.3 86.1Q446.3 85.6 446.1 85.2Q445.9 84.8 445.5 84.6Q445.1 84.4 444.5 84.4L444.5 84.4Q443.8 84.4 443.4 84.6Q442.9 84.8 442.7 85.1Q442.4 85.4 442.3 85.7L442.3 85.7L440.9 85.2Q441.2 84.4 441.8 84.0Q442.4 83.5 443.1 83.3Q443.8 83.2 444.4 83.2L444.4 83.2Q444.9 83.2 445.4 83.3Q446.0 83.4 446.5 83.7Q447.0 84.0 447.4 84.6Q447.7 85.2 447.7 86.2L447.7 86.2L447.7 92L446.3 92L446.3 90.8L446.2 90.8Q446.1 91.1 445.7 91.4Q445.4 91.8 444.9 92.0Q444.4 92.2 443.6 92.2ZM443.9 91.0L443.9 91.0Q444.6 91.0 445.2 90.7Q445.7 90.4 446.0 89.9Q446.3 89.4 446.3 88.8L446.3 88.8L446.3 87.6Q446.2 87.7 445.9 87.8Q445.6 87.9 445.3 88.0Q444.9 88.0 444.5 88.1Q444.2 88.1 444.0 88.1L444.0 88.1Q443.5 88.2 443.0 88.3Q442.6 88.5 442.3 88.8Q442.1 89.1 442.1 89.6L442.1 89.6Q442.1 90.0 442.3 90.3Q442.5 90.6 442.9 90.8Q443.3 91.0 443.9 91.0ZM451.8 83.3L453.6 83.3L453.6 84.5L451.8 84.5L451.8 89.7Q451.8 90.3 452.0 90.6Q452.3 90.9 452.8 90.9L452.8 90.9Q453.0 90.9 453.2 90.8Q453.4 90.8 453.6 90.8L453.6 90.8L453.8 92.0Q453.6 92.0 453.3 92.1Q453.1 92.1 452.8 92.1L452.8 92.1Q451.7 92.1 451.0 91.5Q450.4 90.9 450.4 89.8L450.4 89.8L450.4 84.5L449.1 84.5L449.1 83.3L450.4 83.3L450.4 81.2L451.8 81.2L451.8 83.3ZM459.0 92.2L459.0 92.2Q457.8 92.2 456.9 91.6Q456.0 91.1 455.5 90.0Q455.0 89.0 455.0 87.7L455.0 87.7Q455.0 86.3 455.5 85.3Q456.0 84.3 456.9 83.7Q457.8 83.2 459.0 83.2L459.0 83.2Q460.1 83.2 461.0 83.7Q461.9 84.3 462.4 85.3Q462.9 86.3 462.9 87.7L462.9 87.7Q462.9 89.0 462.4 90.0Q461.9 91.1 461.0 91.6Q460.1 92.2 459.0 92.2ZM459.0 90.9L459.0 90.9Q459.8 90.9 460.4 90.5Q461.0 90.0 461.3 89.3Q461.5 88.5 461.5 87.7L461.5 87.7Q461.5 86.8 461.3 86.1Q461.0 85.3 460.4 84.9Q459.8 84.4 459.0 84.4L459.0 84.4Q458.1 84.4 457.5 84.9Q457.0 85.3 456.7 86.1Q456.4 86.8 456.4 87.7L456.4 87.7Q456.4 88.5 456.7 89.3Q457.0 90.0 457.5 90.5Q458.1 90.9 459.0 90.9ZM466.4 92L465.0 92L465.0 83.3L466.4 83.3L466.4 84.6L466.4 84.6Q466.7 83.9 467.3 83.5Q467.9 83.1 468.7 83.1L468.7 83.1Q468.9 83.1 469.1 83.1Q469.3 83.2 469.4 83.2L469.4 83.2L469.4 84.6Q469.4 84.6 469.1 84.5Q468.9 84.5 468.6 84.5L468.6 84.5Q468.0 84.5 467.5 84.8Q467.0 85.0 466.7 85.5Q466.4 85.9 466.4 86.5L466.4 86.5L466.4 92Z M477.6 83.3L479.6 83.3L479.6 84.5L477.6 84.5L477.6 92L476.2 92L476.2 84.5L474.4 84.5L474.4 83.3L476.2 83.3L476.2 82.1Q476.2 81.3 476.5 80.8Q476.9 80.3 477.4 80.1Q478.0 79.8 478.6 79.8L478.6 79.8Q479.1 79.8 479.5 79.9Q479.8 80.0 480.0 80.0L480.0 80.0L479.6 81.3Q479.5 81.2 479.3 81.2Q479.1 81.1 478.8 81.1L478.8 81.1Q478.2 81.1 477.9 81.4Q477.6 81.8 477.6 82.4L477.6 82.4L477.6 83.3ZM485.0 92.2L485.0 92.2Q483.8 92.2 482.9 91.6Q482.0 91.1 481.5 90.0Q481.0 89.0 481.0 87.7L481.0 87.7Q481.0 86.3 481.5 85.3Q482.0 84.3 482.9 83.7Q483.8 83.2 485.0 83.2L485.0 83.2Q486.2 83.2 487.1 83.7Q488.0 84.3 488.5 85.3Q489.0 86.3 489.0 87.7L489.0 87.7Q489.0 89.0 488.5 90.0Q488.0 91.1 487.1 91.6Q486.2 92.2 485.0 92.2ZM485.0 90.9L485.0 90.9Q485.9 90.9 486.4 90.5Q487.0 90.0 487.3 89.3Q487.6 88.5 487.6 87.7L487.6 87.7Q487.6 86.8 487.3 86.1Q487.0 85.3 486.4 84.9Q485.9 84.4 485.0 84.4L485.0 84.4Q484.1 84.4 483.6 84.9Q483.0 85.3 482.7 86.1Q482.4 86.8 482.4 87.7L482.4 87.7Q482.4 88.5 482.7 89.3Q483.0 90.0 483.6 90.5Q484.1 90.9 485.0 90.9ZM492.4 92L491.0 92L491.0 83.3L492.4 83.3L492.4 84.6L492.5 84.6Q492.7 83.9 493.3 83.5Q494.0 83.1 494.8 83.1L494.8 83.1Q494.9 83.1 495.1 83.1Q495.3 83.2 495.5 83.2L495.5 83.2L495.5 84.6Q495.4 84.6 495.1 84.5Q494.9 84.5 494.6 84.5L494.6 84.5Q494.0 84.5 493.5 84.8Q493 85.0 492.7 85.5Q492.4 85.9 492.4 86.5L492.4 86.5L492.4 92Z M506.5 92.2L506.5 92.2Q504.9 92.2 503.8 91.4Q502.6 90.7 501.9 89.4Q501.3 88.0 501.3 86.2L501.3 86.2Q501.3 84.3 501.9 83.0Q502.6 81.7 503.7 80.9Q504.9 80.2 506.4 80.2L506.4 80.2Q507.3 80.2 508.1 80.5Q508.9 80.8 509.5 81.3Q510.2 81.8 510.6 82.5Q511.0 83.2 511.2 84.0L511.2 84.0L509.6 84.0Q509.5 83.4 509.2 83Q508.9 82.6 508.5 82.2Q508.0 81.9 507.5 81.7Q507.0 81.6 506.4 81.6L506.4 81.6Q505.4 81.6 504.5 82.1Q503.7 82.6 503.2 83.7Q502.7 84.7 502.7 86.2L502.7 86.2Q502.7 87.7 503.2 88.7Q503.7 89.7 504.6 90.3Q505.4 90.8 506.5 90.8L506.5 90.8Q507.5 90.8 508.2 90.4Q509.0 89.9 509.4 89.2L509.4 89.2Q509.8 88.4 509.8 87.4L509.8 87.4L506.8 87.4L506.8 86.1L511.3 86.1L511.3 87.4Q511.3 88.9 510.6 89.9Q510.0 91.0 508.9 91.6Q507.9 92.2 506.5 92.2ZM514.9 92L513.5 92L513.5 83.3L514.9 83.3L514.9 92ZM514.2 81.8L514.2 81.8Q513.8 81.8 513.5 81.6Q513.2 81.3 513.2 80.9L513.2 80.9Q513.2 80.5 513.5 80.2Q513.8 80.0 514.2 80.0L514.2 80.0Q514.6 80.0 514.9 80.2Q515.2 80.5 515.2 80.9L515.2 80.9Q515.2 81.3 514.9 81.6Q514.6 81.8 514.2 81.8ZM519.0 83.3L520.8 83.3L520.8 84.5L519.0 84.5L519.0 89.7Q519.0 90.3 519.2 90.6Q519.5 90.9 520.0 90.9L520.0 90.9Q520.2 90.9 520.4 90.8Q520.6 90.8 520.8 90.8L520.8 90.8L521.0 92.0Q520.8 92.0 520.6 92.1Q520.3 92.1 520 92.1L520 92.1Q518.9 92.1 518.2 91.5Q517.6 90.9 517.6 89.8L517.6 89.8L517.6 84.5L516.3 84.5L516.3 83.3L517.6 83.3L517.6 81.2L519.0 81.2L519.0 83.3ZM524.3 92L522.8 92L522.8 80.4L524.3 80.4L524.3 85.4L530.4 85.4L530.4 80.4L531.9 80.4L531.9 92L530.4 92L530.4 86.7L524.3 86.7L524.3 92ZM537.5 92.1L537.5 92.1Q536.6 92.1 535.9 91.7Q535.2 91.4 534.9 90.6Q534.5 89.9 534.5 88.8L534.5 88.8L534.5 83.3L535.9 83.3L535.9 88.7Q535.9 89.7 536.4 90.3Q537.0 90.8 537.9 90.8L537.9 90.8Q538.5 90.8 539.0 90.6Q539.5 90.3 539.8 89.8Q540.1 89.2 540.1 88.5L540.1 88.5L540.1 83.3L541.5 83.3L541.5 92L540.1 92L540.1 90.4Q539.8 91.2 539.2 91.6L539.2 91.6Q538.4 92.1 537.5 92.1ZM548.0 92.2L548.0 92.2Q547.2 92.2 546.7 91.9Q546.2 91.6 545.9 91.3Q545.6 90.9 545.5 90.6L545.5 90.6L545.3 90.6L545.3 92L544.0 92L544.0 80.4L545.4 80.4L545.4 84.7L545.5 84.7Q545.6 84.4 545.9 84.1Q546.1 83.7 546.6 83.4Q547.1 83.2 548 83.2L548 83.2Q549.1 83.2 549.9 83.7Q550.8 84.3 551.2 85.3Q551.7 86.3 551.7 87.7L551.7 87.7Q551.7 89.0 551.2 90.1Q550.8 91.1 549.9 91.6Q549.1 92.2 548.0 92.2ZM547.8 90.9L547.8 90.9Q548.6 90.9 549.2 90.5Q549.7 90.0 550.0 89.3Q550.3 88.6 550.3 87.6L550.3 87.6Q550.3 86.7 550 86.0Q549.7 85.3 549.2 84.8Q548.6 84.4 547.8 84.4L547.8 84.4Q547.0 84.4 546.4 84.8Q545.9 85.2 545.6 85.9Q545.3 86.7 545.3 87.6L545.3 87.6Q545.3 88.6 545.6 89.4Q545.9 90.1 546.5 90.5Q547.0 90.9 547.8 90.9Z "/></g><mask id="satori_om-id-2"><rect x="237" y="115" width="327" height="25" fill="#fff" mask="url(#satori_om-id)"/></mask><defs><clipPath id="satori_bc-id-2-0" clip-path="url(#satori_cp-id)"><path x="237" y="115" width="86" height="25" d="M249,115 h62 a12,12 0 0 1 12,12 v1 a12,12 0 0 1 -12,12 h-62 a12,12 0 0 1 -12,-12 v-1 a12,12 0 0 1 12,-12"/></clipPath></defs><mask id="satori_om-id-2-0"><rect x="238" y="116" width="84" height="23" fill="#fff" mask="url(#satori_om-id)"/><path width="86" height="25" fill="none" stroke="#000" stroke-width="2" d="M240.515,118.515 A12,12 0 0 1 249,115 h62 a12,12 0 0 1 12,12 v1 a12,12 0 0 1 -12,12 h-62 a12,12 0 0 1 -12,-12 v-1 A12,12 0 0 1 240.515,118.515"/></mask><path x="237" y="115" width="86" height="25" fill="rgba(12,10,20,0.6)" d="M249,115 h62 a12,12 0 0 1 12,12 v1 a12,12 0 0 1 -12,12 h-62 a12,12 0 0 1 -12,-12 v-1 a12,12 0 0 1 12,-12" clip-path="url(#satori_cp-id)" mask="url(#satori_om-id)"/><path width="86" height="25" clip-path="url(#satori_bc-id-2-0)" fill="none" stroke="rgba(120,80,220,0.2)" stroke-width="2" d="M240.515,118.515 A12,12 0 0 1 249,115 h62 a12,12 0 0 1 12,12 v1 a12,12 0 0 1 -12,12 h-62 a12,12 0 0 1 -12,-12 v-1 A12,12 0 0 1 240.515,118.515"/><g mask="url(#satori_om-id)" clip-path="url(#satori_cp-id)"><path fill="#7eb8ff" d="M252.2 132L251.1 132L251.1 123.3L254.0 123.3Q255.1 123.3 255.7 123.6Q256.4 124.0 256.7 124.6Q257.0 125.2 257.0 126.0Q257.0 126.7 256.7 127.3Q256.4 127.9 255.7 128.3L255.7 128.3Q255.6 128.4 255.4 128.4L255.4 128.4L257.4 132L256.1 132L254.3 128.6Q254.2 128.6 254.0 128.6L254.0 128.6L252.2 128.6L252.2 132ZM252.2 124.2L252.2 127.6L254.0 127.6Q254.7 127.6 255.1 127.4Q255.5 127.2 255.7 126.8Q255.9 126.5 255.9 126.0L255.9 126.0Q255.9 125.4 255.7 125.1Q255.5 124.7 255.1 124.5Q254.7 124.2 254.0 124.2L254.0 124.2L252.2 124.2ZM261.4 132.1L261.4 132.1Q260.5 132.1 259.8 131.7Q259.1 131.3 258.7 130.5Q258.3 129.8 258.3 128.8Q258.3 127.8 258.7 127.0Q259.1 126.2 259.7 125.8Q260.4 125.4 261.3 125.4L261.3 125.4Q261.8 125.4 262.3 125.5Q262.8 125.7 263.2 126.1Q263.6 126.5 263.9 127.1Q264.1 127.7 264.1 128.6L264.1 128.6L264.1 129.1L259.4 129.1Q259.4 129.7 259.7 130.2L259.7 130.2Q259.9 130.7 260.4 130.9Q260.8 131.2 261.4 131.2L261.4 131.2Q261.8 131.2 262.1 131.1Q262.4 131.0 262.7 130.8Q262.9 130.5 263.0 130.2L263.0 130.2L264.0 130.5Q263.9 131.0 263.5 131.3Q263.1 131.7 262.6 131.9Q262.1 132.1 261.4 132.1ZM259.4 128.2L259.4 128.2L263.1 128.2Q263.0 127.7 262.9 127.4L262.9 127.4Q262.7 126.9 262.3 126.6Q261.9 126.3 261.3 126.3Q260.7 126.3 260.3 126.6Q259.8 126.9 259.6 127.3L259.6 127.3Q259.4 127.7 259.4 128.2ZM267.5 132.2L267.5 132.2Q266.9 132.2 266.4 131.9Q265.8 131.7 265.5 131.2Q265.2 130.8 265.2 130.1L265.2 130.1Q265.2 129.6 265.5 129.2Q265.7 128.9 266.1 128.7Q266.4 128.5 266.9 128.4Q267.3 128.3 267.8 128.2L267.8 128.2Q268.4 128.1 268.8 128.1Q269.1 128.1 269.3 128.0Q269.5 127.9 269.5 127.6L269.5 127.6L269.5 127.6Q269.5 127.2 269.3 126.9Q269.2 126.6 268.9 126.4Q268.6 126.3 268.1 126.3L268.1 126.3Q267.6 126.3 267.3 126.4Q267.0 126.6 266.8 126.8Q266.6 127.0 266.4 127.3L266.4 127.3L265.4 126.9Q265.7 126.3 266.1 126.0Q266.5 125.6 267.1 125.5Q267.6 125.4 268.1 125.4L268.1 125.4Q268.4 125.4 268.8 125.4Q269.2 125.5 269.6 125.8Q270.0 126.0 270.3 126.5Q270.5 126.9 270.5 127.7L270.5 127.7L270.5 132L269.5 132L269.5 131.1L269.4 131.1Q269.3 131.3 269.1 131.6Q268.8 131.8 268.4 132.0Q268.0 132.2 267.5 132.2ZM267.7 131.2L267.7 131.2Q268.2 131.2 268.7 131.0Q269.1 130.8 269.3 130.4Q269.5 130.0 269.5 129.6L269.5 129.6L269.5 128.7Q269.4 128.8 269.2 128.9Q269.0 128.9 268.7 129.0Q268.4 129.0 268.2 129.0Q267.9 129.1 267.7 129.1L267.7 129.1Q267.4 129.1 267.0 129.3Q266.7 129.4 266.5 129.6Q266.3 129.8 266.3 130.2L266.3 130.2Q266.3 130.5 266.5 130.8Q266.7 131.0 267.0 131.1Q267.3 131.2 267.7 131.2ZM275.0 132.1L275.0 132.1Q274.2 132.1 273.5 131.7Q272.8 131.3 272.4 130.5Q272.1 129.8 272.1 128.8L272.1 128.8Q272.1 127.7 272.4 127.0Q272.8 126.2 273.5 125.8Q274.2 125.4 275.0 125.4L275.0 125.4Q275.5 125.4 275.9 125.5Q276.4 125.6 276.7 125.8Q277.1 126.1 277.3 126.4Q277.6 126.8 277.7 127.2L277.7 127.2L276.7 127.5Q276.6 127.2 276.5 127.0Q276.3 126.8 276.1 126.6Q275.9 126.5 275.6 126.4Q275.4 126.3 275.0 126.3L275.0 126.3Q274.4 126.3 274.0 126.7Q273.5 127.0 273.3 127.6Q273.1 128.1 273.1 128.8L273.1 128.8Q273.1 129.4 273.3 130.0Q273.5 130.5 274.0 130.9Q274.4 131.2 275.0 131.2L275.0 131.2Q275.4 131.2 275.7 131.1Q275.9 131.0 276.1 130.9Q276.4 130.7 276.5 130.5Q276.6 130.3 276.7 130.0L276.7 130.0L277.7 130.3Q277.6 130.7 277.3 131.1Q277.1 131.4 276.7 131.6Q276.4 131.9 276.0 132.0Q275.5 132.1 275.0 132.1ZM280.5 125.4L281.8 125.4L281.8 126.4L280.5 126.4L280.5 130.3Q280.5 130.7 280.6 130.9Q280.8 131.1 281.2 131.1L281.2 131.1Q281.3 131.1 281.5 131.1Q281.7 131.1 281.8 131.1L281.8 131.1L282.0 132.0Q281.8 132.0 281.6 132.1Q281.4 132.1 281.2 132.1L281.2 132.1Q280.4 132.1 279.9 131.6Q279.4 131.2 279.4 130.4L279.4 130.4L279.4 126.4L278.4 126.4L278.4 125.4L279.4 125.4L279.4 123.9L280.5 123.9L280.5 125.4ZM285.3 122.9L286.3 122.9L283.5 133.3L282.5 133.3L285.3 122.9ZM289.8 132.1L289.8 132.1Q288.6 132.1 287.9 131.4Q287.1 130.8 287.1 129.5L287.1 129.5L287.1 129.0L288.3 129.0L288.3 129.5Q288.3 130.3 288.7 130.7Q289.1 131.1 289.8 131.1L289.8 131.1Q290.4 131.1 290.8 130.7Q291.2 130.3 291.2 129.5L291.2 129.5L291.2 123.3L292.4 123.3L292.4 129.5Q292.4 130.8 291.6 131.4Q290.9 132.1 289.8 132.1ZM297.3 132.2L297.3 132.2Q296.3 132.2 295.6 131.8Q294.9 131.5 294.5 131.0Q294.1 130.4 294.1 129.7L294.1 129.7L295.2 129.7Q295.3 130.2 295.6 130.5Q295.9 130.8 296.3 131.0Q296.8 131.2 297.3 131.2L297.3 131.2Q297.9 131.2 298.3 131.0Q298.8 130.8 299.1 130.4Q299.3 130.1 299.3 129.6L299.3 129.6Q299.3 129.2 299.1 128.9Q298.9 128.7 298.5 128.5Q298.1 128.3 297.6 128.2L297.6 128.2L296.6 127.9Q295.5 127.6 294.9 127.0Q294.3 126.5 294.3 125.6L294.3 125.6Q294.3 124.9 294.7 124.3Q295.1 123.8 295.8 123.5Q296.5 123.2 297.3 123.2L297.3 123.2Q298.2 123.2 298.9 123.5Q299.5 123.8 299.9 124.3Q300.3 124.8 300.3 125.5L300.3 125.5L299.2 125.5Q299.1 124.8 298.6 124.5Q298.1 124.1 297.3 124.1L297.3 124.1Q296.7 124.1 296.3 124.3Q295.9 124.5 295.7 124.8Q295.4 125.1 295.4 125.6L295.4 125.6Q295.4 126.0 295.7 126.3Q296.0 126.6 296.4 126.7Q296.8 126.9 297.1 127.0L297.1 127.0L298.0 127.2Q298.3 127.3 298.7 127.5Q299.2 127.6 299.5 127.9Q299.9 128.2 300.2 128.6Q300.4 129.0 300.4 129.6L300.4 129.6Q300.4 130.3 300.1 130.9Q299.7 131.5 299.0 131.8Q298.3 132.2 297.3 132.2ZM302.7 132L301.4 132L304.6 127.5L301.6 123.3L302.9 123.3L304.2 125.1Q304.5 125.5 304.6 125.8Q304.8 126.1 305.0 126.4L305.0 126.4Q305.1 126.6 305.2 126.8L305.2 126.8Q305.3 126.6 305.5 126.4L305.5 126.4Q305.6 126.1 305.8 125.8Q306.0 125.5 306.3 125.1L306.3 125.1L307.5 123.3L308.8 123.3L305.9 127.5L309.0 132L307.7 132L306.2 129.8Q305.9 129.4 305.7 129.2Q305.6 128.9 305.4 128.6L305.4 128.6Q305.3 128.5 305.2 128.3L305.2 128.3Q305.1 128.5 305.0 128.6L305.0 128.6Q304.9 128.9 304.7 129.1Q304.5 129.4 304.3 129.8L304.3 129.8L302.7 132Z "/></g><defs><clipPath id="satori_bc-id-2-1" clip-path="url(#satori_cp-id)"><path x="331" y="115" width="113" height="25" d="M343,115 h89 a12,12 0 0 1 12,12 v1 a12,12 0 0 1 -12,12 h-89 a12,12 0 0 1 -12,-12 v-1 a12,12 0 0 1 12,-12"/></clipPath></defs><mask id="satori_om-id-2-1"><rect x="332" y="116" width="111" height="23" fill="#fff" mask="url(#satori_om-id)"/><path width="113" height="25" fill="none" stroke="#000" stroke-width="2" d="M334.515,118.515 A12,12 0 0 1 343,115 h89 a12,12 0 0 1 12,12 v1 a12,12 0 0 1 -12,12 h-89 a12,12 0 0 1 -12,-12 v-1 A12,12 0 0 1 334.515,118.515"/></mask><path x="331" y="115" width="113" height="25" fill="rgba(12,10,20,0.6)" d="M343,115 h89 a12,12 0 0 1 12,12 v1 a12,12 0 0 1 -12,12 h-89 a12,12 0 0 1 -12,-12 v-1 a12,12 0 0 1 12,-12" clip-path="url(#satori_cp-id)" mask="url(#satori_om-id)"/><path width="113" height="25" clip-path="url(#satori_bc-id-2-1)" fill="none" stroke="rgba(120,80,220,0.2)" stroke-width="2" d="M334.515,118.515 A12,12 0 0 1 343,115 h89 a12,12 0 0 1 12,12 v1 a12,12 0 0 1 -12,12 h-89 a12,12 0 0 1 -12,-12 v-1 A12,12 0 0 1 334.515,118.515"/><g mask="url(#satori_om-id)" clip-path="url(#satori_cp-id)"><path fill="#e8c8ff" d="M347.8 132.2L347.8 132.2Q346.9 132.2 346.2 131.8Q345.5 131.5 345.1 131.0Q344.7 130.4 344.7 129.7L344.7 129.7L345.8 129.7Q345.9 130.2 346.2 130.5Q346.4 130.8 346.9 131.0Q347.3 131.2 347.8 131.2L347.8 131.2Q348.4 131.2 348.9 131.0Q349.4 130.8 349.7 130.4Q349.9 130.1 349.9 129.6L349.9 129.6Q349.9 129.2 349.7 128.9Q349.5 128.7 349.1 128.5Q348.7 128.3 348.2 128.2L348.2 128.2L347.2 127.9Q346.1 127.6 345.5 127.0Q344.9 126.5 344.9 125.6L344.9 125.6Q344.9 124.9 345.3 124.3Q345.7 123.8 346.4 123.5Q347.1 123.2 347.9 123.2L347.9 123.2Q348.8 123.2 349.4 123.5Q350.1 123.8 350.5 124.3Q350.9 124.8 350.9 125.5L350.9 125.5L349.8 125.5Q349.7 124.8 349.2 124.5Q348.7 124.1 347.9 124.1L347.9 124.1Q347.3 124.1 346.9 124.3Q346.5 124.5 346.2 124.8Q346.0 125.1 346.0 125.6L346.0 125.6Q346.0 126.0 346.3 126.3Q346.6 126.6 347.0 126.7Q347.4 126.9 347.7 127.0L347.7 127.0L348.5 127.2Q348.9 127.3 349.3 127.5Q349.7 127.6 350.1 127.9Q350.5 128.2 350.8 128.6Q351.0 129.0 351.0 129.6L351.0 129.6Q351.0 130.3 350.6 130.9Q350.3 131.5 349.6 131.8Q348.9 132.2 347.8 132.2ZM356.5 132L355.2 132L352.0 123.3L353.2 123.3L355.0 128.4Q355.2 128.9 355.4 129.6L355.4 129.6Q355.6 130.2 355.9 131.1L355.9 131.1Q356.1 130.2 356.3 129.6L356.3 129.6Q356.5 128.9 356.7 128.4L356.7 128.4L358.5 123.3L359.7 123.3L356.5 132ZM364.6 132.1L364.6 132.1Q363.4 132.1 362.6 131.6Q361.7 131.0 361.2 130.0Q360.7 129.0 360.7 127.6L360.7 127.6Q360.7 126.3 361.2 125.2Q361.7 124.2 362.5 123.7Q363.4 123.2 364.5 123.2L364.5 123.2Q365.2 123.2 365.8 123.4Q366.4 123.6 366.9 123.9Q367.4 124.3 367.7 124.8Q368 125.4 368.1 126.0L368.1 126.0L367.0 126.0Q366.8 125.6 366.6 125.3Q366.4 124.9 366.1 124.7Q365.8 124.4 365.4 124.3Q365 124.2 364.5 124.2L364.5 124.2Q363.8 124.2 363.1 124.6Q362.5 125.0 362.1 125.7Q361.8 126.5 361.8 127.6L361.8 127.6Q361.8 128.8 362.1 129.5Q362.5 130.3 363.2 130.7Q363.8 131.1 364.6 131.1L364.6 131.1Q365.3 131.1 365.9 130.8Q366.5 130.5 366.8 129.9L366.8 129.9Q367.1 129.3 367.1 128.6L367.1 128.6L364.8 128.6L364.8 127.6L368.2 127.6L368.2 128.6Q368.2 129.7 367.7 130.4Q367.3 131.2 366.5 131.7Q365.6 132.1 364.6 132.1Z M374.5 132L373.4 132L373.4 123.3L376.3 123.3Q377.4 123.3 378.0 123.6Q378.7 124.0 379.0 124.6Q379.3 125.2 379.3 126.0Q379.3 126.7 379.0 127.3Q378.7 127.9 378.0 128.3L378.0 128.3Q377.9 128.4 377.7 128.4L377.7 128.4L379.7 132L378.4 132L376.6 128.6Q376.5 128.6 376.4 128.6L376.4 128.6L374.5 128.6L374.5 132ZM374.5 124.2L374.5 127.6L376.3 127.6Q377.0 127.6 377.4 127.4Q377.8 127.2 378.0 126.8Q378.2 126.5 378.2 126.0L378.2 126.0Q378.2 125.4 378.0 125.1Q377.8 124.7 377.4 124.5Q377.0 124.2 376.3 124.2L376.3 124.2L374.5 124.2ZM383.7 132.1L383.7 132.1Q382.8 132.1 382.1 131.7Q381.4 131.3 381.0 130.5Q380.6 129.8 380.6 128.8Q380.6 127.8 381.0 127.0Q381.4 126.2 382.0 125.8Q382.7 125.4 383.6 125.4L383.6 125.4Q384.1 125.4 384.6 125.5Q385.1 125.7 385.5 126.1Q385.9 126.5 386.2 127.1Q386.4 127.7 386.4 128.6L386.4 128.6L386.4 129.1L381.7 129.1Q381.7 129.7 382.0 130.2L382.0 130.2Q382.2 130.7 382.7 130.9Q383.1 131.2 383.7 131.2L383.7 131.2Q384.1 131.2 384.4 131.1Q384.7 131.0 385.0 130.8Q385.2 130.5 385.3 130.2L385.3 130.2L386.3 130.5Q386.2 131.0 385.8 131.3Q385.5 131.7 384.9 131.9Q384.4 132.1 383.7 132.1ZM381.7 128.2L381.7 128.2L385.4 128.2Q385.3 127.7 385.2 127.4L385.2 127.4Q385.0 126.9 384.6 126.6Q384.2 126.3 383.6 126.3Q383.0 126.3 382.6 126.6Q382.2 126.9 381.9 127.3L381.9 127.3Q381.7 127.7 381.7 128.2ZM389.0 128.1L389.0 128.1L389.0 132L388.0 132L388.0 125.4L389.0 125.4L389.0 126.7Q389.2 126.0 389.7 125.7L389.7 125.7Q390.2 125.4 391.0 125.4L391.0 125.4Q391.6 125.4 392.1 125.6Q392.6 125.9 392.9 126.5Q393.2 127.0 393.2 127.8L393.2 127.8L393.2 132L392.1 132L392.1 127.9Q392.1 127.2 391.7 126.7Q391.3 126.3 390.7 126.3L390.7 126.3Q390.2 126.3 389.8 126.5Q389.4 126.7 389.2 127.1Q389.0 127.5 389.0 128.1ZM397.5 132.1L397.5 132.1Q396.7 132.1 396.1 131.7Q395.4 131.3 395.1 130.5Q394.7 129.8 394.7 128.7L394.7 128.7Q394.7 127.7 395.1 126.9Q395.4 126.2 396.1 125.8Q396.7 125.4 397.5 125.4L397.5 125.4Q398.1 125.4 398.5 125.6Q398.9 125.8 399.1 126.1Q399.3 126.3 399.4 126.5L399.4 126.5L399.5 126.5L399.5 123.3L400.5 123.3L400.5 132L399.5 132L399.5 131.0L399.4 131.0Q399.3 131.2 399.1 131.4Q398.9 131.7 398.5 131.9Q398.1 132.1 397.5 132.1ZM397.7 131.2L397.7 131.2Q398.3 131.2 398.7 130.9Q399.1 130.6 399.3 130.0Q399.5 129.5 399.5 128.7L399.5 128.7Q399.5 128.0 399.3 127.5Q399.1 126.9 398.7 126.6Q398.3 126.3 397.7 126.3L397.7 126.3Q397.0 126.3 396.6 126.6Q396.2 127.0 396.0 127.5Q395.8 128.1 395.8 128.7L395.8 128.7Q395.8 129.4 396.0 130.0Q396.2 130.5 396.6 130.9Q397.0 131.2 397.7 131.2ZM405.1 132.1L405.1 132.1Q404.2 132.1 403.5 131.7Q402.8 131.3 402.4 130.5Q402.1 129.8 402.1 128.8Q402.1 127.8 402.4 127.0Q402.8 126.2 403.5 125.8Q404.1 125.4 405.0 125.4L405.0 125.4Q405.5 125.4 406.0 125.5Q406.6 125.7 407.0 126.1Q407.4 126.5 407.6 127.1Q407.9 127.7 407.9 128.6L407.9 128.6L407.9 129.1L403.1 129.1Q403.2 129.7 403.4 130.2L403.4 130.2Q403.6 130.7 404.1 130.9Q404.6 131.2 405.1 131.2L405.1 131.2Q405.5 131.2 405.9 131.1Q406.2 131.0 406.4 130.8Q406.6 130.5 406.7 130.2L406.7 130.2L407.8 130.5Q407.6 131.0 407.3 131.3Q406.9 131.7 406.4 131.9Q405.8 132.1 405.1 132.1ZM403.1 128.2L403.1 128.2L406.8 128.2Q406.8 127.7 406.6 127.4L406.6 127.4Q406.4 126.9 406.0 126.6Q405.6 126.3 405.0 126.3Q404.4 126.3 404.0 126.6Q403.6 126.9 403.4 127.3L403.4 127.3Q403.2 127.7 403.1 128.2ZM410.4 132L409.4 132L409.4 125.4L410.4 125.4L410.4 126.5L410.5 126.5Q410.7 126.0 411.1 125.7Q411.6 125.4 412.2 125.4L412.2 125.4Q412.3 125.4 412.5 125.4Q412.6 125.4 412.7 125.4L412.7 125.4L412.7 126.4Q412.7 126.4 412.5 126.4Q412.3 126.4 412.1 126.4L412.1 126.4Q411.6 126.4 411.2 126.6Q410.9 126.8 410.7 127.1Q410.4 127.5 410.4 127.9L410.4 127.9L410.4 132ZM415.0 132L413.9 132L413.9 125.4L415.0 125.4L415.0 132ZM414.4 124.4L414.4 124.4Q414.1 124.4 413.9 124.2Q413.7 124.0 413.7 123.7L413.7 123.7Q413.7 123.4 413.9 123.2Q414.1 123.0 414.4 123.0L414.4 123.0Q414.7 123.0 415.0 123.2Q415.2 123.4 415.2 123.7L415.2 123.7Q415.2 124.0 415.0 124.2Q414.7 124.4 414.4 124.4ZM417.9 128.1L417.9 128.1L417.9 132L416.8 132L416.8 125.4L417.8 125.4L417.8 126.7Q418.1 126.0 418.5 125.7L418.5 125.7Q419.1 125.4 419.8 125.4L419.8 125.4Q420.5 125.4 421.0 125.6Q421.5 125.9 421.8 126.5Q422.0 127.0 422.0 127.8L422.0 127.8L422.0 132L421.0 132L421.0 127.9Q421.0 127.2 420.6 126.7Q420.2 126.3 419.5 126.3L419.5 126.3Q419.0 126.3 418.7 126.5Q418.3 126.7 418.1 127.1Q417.9 127.5 417.9 128.1ZM426.6 134.6L426.6 134.6Q425.8 134.6 425.3 134.4Q424.8 134.2 424.4 133.9Q424.1 133.6 423.9 133.3L423.9 133.3L424.7 132.7Q424.9 132.9 425.1 133.1Q425.3 133.3 425.6 133.5Q426.0 133.7 426.6 133.7L426.6 133.7Q427.3 133.7 427.8 133.3Q428.4 132.9 428.4 132.1L428.4 132.1L428.4 130.8L428.3 130.8Q428.1 131.0 427.9 131.2Q427.7 131.5 427.4 131.7Q427.0 131.9 426.3 131.9L426.3 131.9Q425.6 131.9 424.9 131.5Q424.3 131.2 423.9 130.4Q423.6 129.7 423.6 128.7L423.6 128.7Q423.6 127.7 423.9 126.9Q424.3 126.2 424.9 125.8Q425.6 125.4 426.4 125.4L426.4 125.4Q427.0 125.4 427.4 125.6Q427.8 125.8 428.0 126.1Q428.2 126.3 428.3 126.5L428.3 126.5L428.4 126.5L428.4 125.4L429.4 125.4L429.4 132.2Q429.4 133.0 429.0 133.5Q428.6 134.1 428.0 134.3Q427.3 134.6 426.6 134.6ZM426.5 131.0L426.5 131.0Q427.1 131.0 427.5 130.7Q427.9 130.4 428.2 129.9Q428.4 129.4 428.4 128.7L428.4 128.7Q428.4 128.0 428.2 127.4Q427.9 126.9 427.5 126.6Q427.1 126.3 426.5 126.3L426.5 126.3Q425.9 126.3 425.5 126.6Q425.1 126.9 424.9 127.5Q424.7 128.0 424.7 128.7L424.7 128.7Q424.7 129.3 424.9 129.9Q425.1 130.4 425.5 130.7Q425.9 131.0 426.5 131.0Z "/></g><defs><clipPath id="satori_bc-id-2-2" clip-path="url(#satori_cp-id)"><path x="452" y="115" width="112" height="25" d="M464,115 h88 a12,12 0 0 1 12,12 v1 a12,12 0 0 1 -12,12 h-88 a12,12 0 0 1 -12,-12 v-1 a12,12 0 0 1 12,-12"/></clipPath></defs><mask id="satori_om-id-2-2"><rect x="453" y="116" width="110" height="23" fill="#fff" mask="url(#satori_om-id)"/><path width="112" height="25" fill="none" stroke="#000" stroke-width="2" d="M455.515,118.515 A12,12 0 0 1 464,115 h88 a12,12 0 0 1 12,12 v1 a12,12 0 0 1 -12,12 h-88 a12,12 0 0 1 -12,-12 v-1 A12,12 0 0 1 455.515,118.515"/></mask><path x="452" y="115" width="112" height="25" fill="rgba(12,10,20,0.6)" d="M464,115 h88 a12,12 0 0 1 12,12 v1 a12,12 0 0 1 -12,12 h-88 a12,12 0 0 1 -12,-12 v-1 a12,12 0 0 1 12,-12" clip-path="url(#satori_cp-id)" mask="url(#satori_om-id)"/><path width="112" height="25" clip-path="url(#satori_bc-id-2-2)" fill="none" stroke="rgba(120,80,220,0.2)" stroke-width="2" d="M455.515,118.515 A12,12 0 0 1 464,115 h88 a12,12 0 0 1 12,12 v1 a12,12 0 0 1 -12,12 h-88 a12,12 0 0 1 -12,-12 v-1 A12,12 0 0 1 455.515,118.515"/><g mask="url(#satori_om-id)" clip-path="url(#satori_cp-id)"><path fill="#a0a0ff" d="M469.6 132.1L469.6 132.1Q468.5 132.1 467.6 131.6Q466.7 131.0 466.2 130.0Q465.7 129.0 465.7 127.6L465.7 127.6Q465.7 126.3 466.2 125.2Q466.7 124.2 467.6 123.7Q468.4 123.2 469.6 123.2L469.6 123.2Q470.2 123.2 470.8 123.4Q471.4 123.6 471.9 123.9Q472.4 124.3 472.7 124.8Q473.0 125.4 473.1 126.0L473.1 126.0L472.0 126.0Q471.9 125.6 471.6 125.3Q471.4 124.9 471.1 124.7Q470.8 124.4 470.4 124.3Q470.0 124.2 469.6 124.2L469.6 124.2Q468.8 124.2 468.2 124.6Q467.5 125.0 467.2 125.7Q466.8 126.5 466.8 127.6L466.8 127.6Q466.8 128.8 467.2 129.5Q467.5 130.3 468.2 130.7Q468.8 131.1 469.6 131.1L469.6 131.1Q470.4 131.1 470.9 130.8Q471.5 130.5 471.8 129.9L471.8 129.9Q472.1 129.3 472.1 128.6L472.1 128.6L469.9 128.6L469.9 127.6L473.2 127.6L473.2 128.6Q473.2 129.7 472.7 130.4Q472.3 131.2 471.5 131.7Q470.7 132.1 469.6 132.1ZM475.9 132L474.9 132L474.9 125.4L475.9 125.4L475.9 132ZM475.4 124.4L475.4 124.4Q475.1 124.4 474.9 124.2Q474.7 124.0 474.7 123.7L474.7 123.7Q474.7 123.4 474.9 123.2Q475.1 123.0 475.4 123.0L475.4 123.0Q475.7 123.0 475.9 123.2Q476.2 123.4 476.2 123.7L476.2 123.7Q476.2 124.0 475.9 124.2Q475.7 124.4 475.4 124.4ZM479.0 125.4L480.4 125.4L480.4 126.4L479.0 126.4L479.0 130.3Q479.0 130.7 479.2 130.9Q479.4 131.1 479.8 131.1L479.8 131.1Q479.9 131.1 480.0 131.1Q480.2 131.1 480.3 131.1L480.3 131.1L480.5 132.0Q480.4 132.0 480.2 132.1Q480.0 132.1 479.8 132.1L479.8 132.1Q478.9 132.1 478.4 131.6Q478.0 131.2 478.0 130.4L478.0 130.4L478.0 126.4L477.0 126.4L477.0 125.4L478.0 125.4L478.0 123.9L479.0 123.9L479.0 125.4ZM483.0 132L481.8 132L481.8 123.3L483.0 123.3L483.0 127.0L487.5 127.0L487.5 123.3L488.6 123.3L488.6 132L487.5 132L487.5 128.0L483.0 128.0L483.0 132ZM492.8 132.1L492.8 132.1Q492.2 132.1 491.7 131.8Q491.2 131.5 490.9 131.0Q490.6 130.4 490.6 129.6L490.6 129.6L490.6 125.4L491.7 125.4L491.7 129.5Q491.7 130.3 492.1 130.7Q492.5 131.1 493.2 131.1L493.2 131.1Q493.6 131.1 494.0 130.9Q494.4 130.7 494.6 130.3Q494.8 129.9 494.8 129.4L494.8 129.4L494.8 125.4L495.9 125.4L495.9 132L494.9 132L494.9 130.8Q494.6 131.4 494.1 131.7L494.1 131.7Q493.6 132.1 492.8 132.1ZM500.8 132.1L500.8 132.1Q500.1 132.1 499.8 131.9Q499.4 131.7 499.2 131.4Q499.0 131.2 498.9 131.0L498.9 131.0L498.7 131.0L498.7 132L497.7 132L497.7 123.3L498.8 123.3L498.8 126.5L498.9 126.5Q499.0 126.3 499.2 126.1Q499.4 125.8 499.7 125.6Q500.1 125.4 500.8 125.4L500.8 125.4Q501.6 125.4 502.2 125.8Q502.8 126.2 503.2 126.9Q503.5 127.7 503.5 128.7L503.5 128.7Q503.5 129.8 503.2 130.5Q502.8 131.3 502.2 131.7Q501.6 132.1 500.8 132.1ZM500.6 131.2L500.6 131.2Q501.2 131.2 501.6 130.9Q502.0 130.5 502.3 130.0Q502.5 129.4 502.5 128.7L502.5 128.7Q502.5 128.1 502.3 127.5Q502.1 127.0 501.6 126.6Q501.2 126.3 500.6 126.3L500.6 126.3Q500.0 126.3 499.6 126.6Q499.2 126.9 499.0 127.5Q498.8 128.0 498.8 128.7L498.8 128.7Q498.8 129.5 499.0 130.0Q499.2 130.6 499.6 130.9Q500.0 131.2 500.6 131.2Z M509.0 132L507.8 132L511.0 123.3L512.3 123.3L515.5 132L514.3 132L513.5 129.6L509.9 129.6L509.0 132ZM510.2 128.6L513.1 128.6L512.5 126.8Q512.3 126.3 512.1 125.6L512.1 125.6Q511.9 125.0 511.6 124.2L511.6 124.2Q511.4 125.0 511.2 125.6L511.2 125.6Q511.0 126.4 510.8 126.8L510.8 126.8L510.2 128.6ZM519.4 132.1L519.4 132.1Q518.5 132.1 517.8 131.7Q517.2 131.3 516.8 130.5Q516.4 129.8 516.4 128.8L516.4 128.8Q516.4 127.7 516.8 127.0Q517.2 126.2 517.8 125.8Q518.5 125.4 519.4 125.4L519.4 125.4Q519.9 125.4 520.3 125.5Q520.7 125.6 521.1 125.8Q521.4 126.1 521.7 126.4Q521.9 126.8 522.0 127.2L522.0 127.2L521.0 127.5Q521.0 127.2 520.8 127.0Q520.7 126.8 520.5 126.6Q520.3 126.5 520.0 126.4Q519.7 126.3 519.4 126.3L519.4 126.3Q518.7 126.3 518.3 126.7Q517.9 127.0 517.7 127.6Q517.5 128.1 517.5 128.8L517.5 128.8Q517.5 129.4 517.7 130.0Q517.9 130.5 518.3 130.9Q518.7 131.2 519.4 131.2L519.4 131.2Q519.7 131.2 520.0 131.1Q520.3 131.0 520.5 130.9Q520.7 130.7 520.8 130.5Q521.0 130.3 521.1 130.0L521.1 130.0L522.1 130.3Q521.9 130.7 521.7 131.1Q521.4 131.4 521.1 131.6Q520.7 131.9 520.3 132.0Q519.9 132.1 519.4 132.1ZM524.8 125.4L526.2 125.4L526.2 126.4L524.8 126.4L524.8 130.3Q524.8 130.7 525.0 130.9Q525.2 131.1 525.6 131.1L525.6 131.1Q525.7 131.1 525.8 131.1Q526.0 131.1 526.1 131.1L526.1 131.1L526.3 132.0Q526.2 132.0 526.0 132.1Q525.8 132.1 525.6 132.1L525.6 132.1Q524.7 132.1 524.2 131.6Q523.8 131.2 523.8 130.4L523.8 130.4L523.8 126.4L522.8 126.4L522.8 125.4L523.8 125.4L523.8 123.9L524.8 123.9L524.8 125.4ZM528.6 132L527.5 132L527.5 125.4L528.6 125.4L528.6 132ZM528.0 124.4L528.0 124.4Q527.7 124.4 527.5 124.2Q527.3 124.0 527.3 123.7L527.3 123.7Q527.3 123.4 527.5 123.2Q527.7 123.0 528.0 123.0L528.0 123.0Q528.3 123.0 528.6 123.2Q528.8 123.4 528.8 123.7L528.8 123.7Q528.8 124.0 528.6 124.2Q528.3 124.4 528.0 124.4ZM533.1 132.1L533.1 132.1Q532.2 132.1 531.5 131.7Q530.8 131.3 530.5 130.5Q530.1 129.8 530.1 128.8L530.1 128.8Q530.1 127.7 530.5 127.0Q530.8 126.2 531.5 125.8Q532.2 125.4 533.1 125.4L533.1 125.4Q534.0 125.4 534.7 125.8Q535.3 126.2 535.7 127.0Q536.1 127.7 536.1 128.8L536.1 128.8Q536.1 129.8 535.7 130.5Q535.3 131.3 534.7 131.7Q534.0 132.1 533.1 132.1ZM533.1 131.2L533.1 131.2Q533.7 131.2 534.2 130.9Q534.6 130.5 534.8 130.0Q535.0 129.4 535.0 128.8L535.0 128.8Q535.0 128.1 534.8 127.6Q534.6 127.0 534.2 126.7Q533.7 126.3 533.1 126.3L533.1 126.3Q532.4 126.3 532.0 126.7Q531.6 127.0 531.4 127.6Q531.2 128.1 531.2 128.8L531.2 128.8Q531.2 129.4 531.4 130.0Q531.6 130.5 532.0 130.9Q532.4 131.2 533.1 131.2ZM538.7 128.1L538.7 128.1L538.7 132L537.6 132L537.6 125.4L538.6 125.4L538.6 126.7Q538.9 126.0 539.3 125.7L539.3 125.7Q539.9 125.4 540.6 125.4L540.6 125.4Q541.3 125.4 541.8 125.6Q542.3 125.9 542.6 126.5Q542.8 127.0 542.8 127.8L542.8 127.8L542.8 132L541.8 132L541.8 127.9Q541.8 127.2 541.4 126.7Q541.0 126.3 540.3 126.3L540.3 126.3Q539.8 126.3 539.5 126.5Q539.1 126.7 538.9 127.1Q538.7 127.5 538.7 128.1ZM546.9 132.1L546.9 132.1Q546.3 132.1 545.7 131.9Q545.2 131.7 544.9 131.4Q544.5 131.0 544.4 130.4L544.4 130.4L545.4 130.2Q545.5 130.7 545.9 131.0Q546.3 131.2 546.9 131.2L546.9 131.2Q547.6 131.2 548.0 130.9Q548.4 130.6 548.4 130.2L548.4 130.2Q548.4 129.9 548.2 129.7Q547.9 129.4 547.5 129.3L547.5 129.3L546.4 129.1Q545.5 128.9 545.0 128.4Q544.6 128.0 544.6 127.3L544.6 127.3Q544.6 126.7 544.9 126.3Q545.2 125.9 545.8 125.6Q546.3 125.4 547.0 125.4L547.0 125.4Q547.7 125.4 548.2 125.6Q548.6 125.8 548.9 126.1Q549.2 126.5 549.4 126.9L549.4 126.9L548.4 127.2Q548.3 126.8 548.0 126.6Q547.7 126.3 547.0 126.3L547.0 126.3Q546.5 126.3 546.1 126.5Q545.7 126.8 545.7 127.2L545.7 127.2Q545.7 127.6 545.9 127.8Q546.2 128.0 546.8 128.2L546.8 128.2L547.8 128.4Q548.7 128.6 549.1 129.0Q549.5 129.5 549.5 130.2L549.5 130.2Q549.5 130.7 549.2 131.2Q548.9 131.6 548.3 131.9Q547.7 132.1 546.9 132.1Z "/></g><mask id="satori_om-id-3"><rect x="224" y="156" width="353" height="21" fill="#fff" mask="url(#satori_om-id)"/></mask><mask id="satori_om-id-3-0"><rect x="224" y="160" width="51" height="13" fill="#fff" mask="url(#satori_om-id)"/></mask><g mask="url(#satori_om-id)" clip-path="url(#satori_cp-id)"><path fill="#b8860b" d="M231.0 171L225.0 171L225.0 170.1L228.1 166.7Q228.6 166.2 229.0 165.7Q229.3 165.3 229.5 164.9Q229.7 164.5 229.7 164.1L229.7 164.1Q229.7 163.6 229.5 163.2Q229.2 162.8 228.8 162.7Q228.4 162.5 227.9 162.5L227.9 162.5Q227.4 162.5 227.0 162.7Q226.6 162.9 226.4 163.3Q226.2 163.7 226.2 164.2L226.2 164.2L225.0 164.2Q225.0 163.4 225.4 162.8Q225.8 162.1 226.4 161.8Q227.1 161.4 228.0 161.4L228.0 161.4Q228.8 161.4 229.4 161.8Q230.1 162.1 230.5 162.7Q230.8 163.3 230.8 164.1L230.8 164.1Q230.8 164.6 230.7 165.1Q230.5 165.5 230.0 166.2Q229.5 166.8 228.7 167.7L228.7 167.7L226.6 169.9L226.6 169.9L231.0 169.9L231.0 171ZM236.9 169.1L232.5 169.1L232.5 168.1L236.6 161.5L238.1 161.5L238.1 168.0L239.4 168.0L239.4 169.1L238.1 169.1L238.1 171L236.9 171L236.9 169.1ZM233.8 168.0L236.9 168.0L236.9 163.1L236.9 163.1L233.8 167.9L233.8 168.0Z M247.4 171.2L247.4 171.2Q246.7 171.2 246.1 170.9Q245.5 170.7 245.2 170.3Q244.8 169.9 244.7 169.3L244.7 169.3L245.8 169.0Q245.9 169.6 246.3 169.9Q246.8 170.1 247.4 170.1L247.4 170.1Q248.1 170.1 248.6 169.8Q249.0 169.5 249.0 169.1L249.0 169.1Q249.0 168.7 248.8 168.5Q248.5 168.2 248.0 168.1L248.0 168.1L246.8 167.8Q245.8 167.6 245.4 167.1Q244.9 166.6 244.9 165.9L244.9 165.9Q244.9 165.3 245.2 164.8Q245.6 164.3 246.2 164.1Q246.8 163.8 247.5 163.8L247.5 163.8Q248.2 163.8 248.8 164.0Q249.3 164.3 249.6 164.6Q249.9 165.0 250.1 165.5L250.1 165.5L249.0 165.8Q248.9 165.4 248.5 165.1Q248.2 164.8 247.5 164.8L247.5 164.8Q246.9 164.8 246.5 165.1Q246.0 165.4 246.0 165.8L246.0 165.8Q246.0 166.2 246.3 166.4Q246.6 166.7 247.2 166.8L247.2 166.8L248.3 167.1Q249.3 167.3 249.7 167.8Q250.2 168.3 250.2 169.0L250.2 169.0Q250.2 169.6 249.8 170.1Q249.5 170.6 248.9 170.9Q248.2 171.2 247.4 171.2ZM253.2 163.9L254.6 163.9L254.6 164.9L253.2 164.9L253.2 169.2Q253.2 169.6 253.4 169.9Q253.6 170.1 254.0 170.1L254.0 170.1Q254.1 170.1 254.3 170.0Q254.5 170.0 254.6 170.0L254.6 170.0L254.8 171.0Q254.7 171.0 254.4 171.1Q254.2 171.1 254.0 171.1L254.0 171.1Q253.1 171.1 252.6 170.6Q252.0 170.1 252.0 169.2L252.0 169.2L252.0 164.9L251.0 164.9L251.0 163.9L252.0 163.9L252.0 162.2L253.2 162.2L253.2 163.9ZM258.1 171.2L258.1 171.2Q257.4 171.2 256.9 170.9Q256.3 170.7 256.0 170.2Q255.7 169.7 255.7 169.0L255.7 169.0Q255.7 168.4 255.9 168.0Q256.2 167.6 256.6 167.4Q257.0 167.2 257.4 167.1Q257.9 167.0 258.4 166.9L258.4 166.9Q259.1 166.8 259.5 166.8Q259.9 166.7 260.1 166.6Q260.3 166.5 260.3 166.2L260.3 166.2L260.3 166.2Q260.3 165.8 260.1 165.5Q259.9 165.1 259.6 165.0Q259.3 164.8 258.8 164.8L258.8 164.8Q258.3 164.8 257.9 165.0Q257.5 165.1 257.3 165.4Q257.1 165.6 257.0 165.9L257.0 165.9L255.9 165.5Q256.1 164.8 256.6 164.5Q257.1 164.1 257.6 164.0Q258.2 163.8 258.7 163.8L258.7 163.8Q259.1 163.8 259.5 163.9Q260.0 164.0 260.4 164.2Q260.8 164.5 261.1 165.0Q261.4 165.5 261.4 166.3L261.4 166.3L261.4 171L260.3 171L260.3 170.0L260.2 170.0Q260.1 170.3 259.8 170.5Q259.5 170.8 259.1 171.0Q258.7 171.2 258.1 171.2ZM258.3 170.2L258.3 170.2Q258.9 170.2 259.4 169.9Q259.8 169.7 260.0 169.3Q260.3 168.9 260.3 168.4L260.3 168.4L260.3 167.5Q260.2 167.5 259.9 167.6Q259.7 167.7 259.4 167.7Q259.1 167.8 258.8 167.8Q258.5 167.8 258.4 167.9L258.4 167.9Q258.0 167.9 257.6 168.0Q257.2 168.2 257.0 168.4Q256.8 168.6 256.8 169.0L256.8 169.0Q256.8 169.4 257.0 169.7Q257.2 169.9 257.5 170.0Q257.9 170.2 258.3 170.2ZM264.5 171L263.4 171L263.4 163.9L264.5 163.9L264.5 165.0L264.6 165.0Q264.8 164.5 265.3 164.1Q265.8 163.8 266.4 163.8L266.4 163.8Q266.5 163.8 266.7 163.8Q266.9 163.8 267.0 163.8L267.0 163.8L267.0 165.0Q266.9 165.0 266.7 164.9Q266.5 164.9 266.3 164.9L266.3 164.9Q265.8 164.9 265.4 165.1Q265.0 165.3 264.8 165.7Q264.5 166.1 264.5 166.6L264.5 166.6L264.5 171ZM270.7 171.2L270.7 171.2Q270.0 171.2 269.4 170.9Q268.8 170.7 268.5 170.3Q268.1 169.9 268.0 169.3L268.0 169.3L269.1 169.0Q269.2 169.6 269.6 169.9Q270.1 170.1 270.7 170.1L270.7 170.1Q271.4 170.1 271.9 169.8Q272.3 169.5 272.3 169.1L272.3 169.1Q272.3 168.7 272.1 168.5Q271.8 168.2 271.3 168.1L271.3 168.1L270.1 167.8Q269.1 167.6 268.7 167.1Q268.2 166.6 268.2 165.9L268.2 165.9Q268.2 165.3 268.5 164.8Q268.9 164.3 269.5 164.1Q270.1 163.8 270.8 163.8L270.8 163.8Q271.6 163.8 272.1 164.0Q272.6 164.3 272.9 164.6Q273.2 165.0 273.4 165.5L273.4 165.5L272.3 165.8Q272.2 165.4 271.9 165.1Q271.5 164.8 270.8 164.8L270.8 164.8Q270.2 164.8 269.8 165.1Q269.3 165.4 269.3 165.8L269.3 165.8Q269.3 166.2 269.6 166.4Q269.9 166.7 270.5 166.8L270.5 166.8L271.6 167.1Q272.6 167.3 273.0 167.8Q273.5 168.3 273.5 169.0L273.5 169.0Q273.5 169.6 273.2 170.1Q272.8 170.6 272.2 170.9Q271.5 171.2 270.7 171.2Z "/></g><mask id="satori_om-id-3-1"><rect x="289" y="161" width="4" height="12" fill="#fff" mask="url(#satori_om-id)"/></mask><g mask="url(#satori_om-id)" clip-path="url(#satori_cp-id)"><path fill="#3d3d5c" d="M290.5 159.5L291.5 159.5L291.5 173.8L290.5 173.8L290.5 159.5Z "/></g><mask id="satori_om-id-3-2"><rect x="307" y="160" width="44" height="13" fill="#fff" mask="url(#satori_om-id)"/></mask><g mask="url(#satori_om-id)" clip-path="url(#satori_cp-id)"><path fill="#8b7ec8" d="M311.1 171.1L311.1 171.1Q310.0 171.1 309.3 170.6Q308.6 170.0 308.2 168.9Q307.8 167.8 307.8 166.3L307.8 166.3Q307.8 164.7 308.2 163.7Q308.6 162.6 309.3 162.0Q310.1 161.4 311.1 161.4L311.1 161.4Q312.1 161.4 312.9 162.0Q313.6 162.6 314.0 163.7Q314.4 164.7 314.4 166.3L314.4 166.3Q314.4 167.8 314.0 168.9Q313.6 170.0 312.9 170.6Q312.2 171.1 311.1 171.1ZM311.1 170.1L311.1 170.1Q311.8 170.1 312.3 169.6Q312.8 169.2 313.0 168.3Q313.3 167.5 313.3 166.3L313.3 166.3Q313.3 165.1 313.0 164.2Q312.8 163.4 312.3 162.9Q311.8 162.5 311.1 162.5L311.1 162.5Q310.4 162.5 309.9 162.9Q309.4 163.4 309.2 164.2Q308.9 165.1 308.9 166.3L308.9 166.3Q308.9 167.5 309.2 168.3Q309.4 169.2 309.9 169.6Q310.4 170.1 311.1 170.1Z M321.5 163.9L323.2 163.9L323.2 164.9L321.5 164.9L321.5 171L320.4 171L320.4 164.9L319.0 164.9L319.0 163.9L320.4 163.9L320.4 163.0Q320.4 162.3 320.7 161.9Q321.0 161.5 321.4 161.3Q321.9 161.1 322.4 161.1L322.4 161.1Q322.8 161.1 323.1 161.2Q323.3 161.2 323.5 161.3L323.5 161.3L323.1 162.3Q323.1 162.2 322.9 162.2Q322.8 162.2 322.5 162.2L322.5 162.2Q322.0 162.2 321.8 162.4Q321.5 162.7 321.5 163.2L321.5 163.2L321.5 163.9ZM327.6 171.2L327.6 171.2Q326.6 171.2 325.9 170.7Q325.1 170.2 324.7 169.4Q324.3 168.6 324.3 167.5L324.3 167.5Q324.3 166.4 324.7 165.6Q325.1 164.7 325.9 164.3Q326.6 163.8 327.6 163.8L327.6 163.8Q328.5 163.8 329.3 164.3Q330.0 164.7 330.4 165.6Q330.8 166.4 330.8 167.5L330.8 167.5Q330.8 168.6 330.4 169.4Q330.0 170.2 329.3 170.7Q328.5 171.2 327.6 171.2ZM327.6 170.1L327.6 170.1Q328.3 170.1 328.7 169.8Q329.2 169.4 329.4 168.8Q329.6 168.2 329.6 167.5L329.6 167.5Q329.6 166.8 329.4 166.2Q329.2 165.6 328.7 165.2Q328.3 164.8 327.6 164.8L327.6 164.8Q326.8 164.8 326.4 165.2Q325.9 165.6 325.7 166.2Q325.5 166.8 325.5 167.5L325.5 167.5Q325.5 168.2 325.7 168.8Q325.9 169.4 326.4 169.8Q326.8 170.1 327.6 170.1ZM333.6 171L332.5 171L332.5 163.9L333.6 163.9L333.6 165.0L333.6 165.0Q333.8 164.5 334.3 164.1Q334.9 163.8 335.5 163.8L335.5 163.8Q335.6 163.8 335.8 163.8Q336.0 163.8 336.1 163.8L336.1 163.8L336.1 165.0Q336.0 165.0 335.8 164.9Q335.6 164.9 335.4 164.9L335.4 164.9Q334.9 164.9 334.5 165.1Q334.1 165.3 333.8 165.7Q333.6 166.1 333.6 166.6L333.6 166.6L333.6 171ZM338.5 171L337.4 171L337.4 161.5L338.5 161.5L338.5 167.0L338.6 167.0L341.7 163.9L343.1 163.9L340.1 167.0L343.3 171L341.8 171L339.3 167.7L338.5 168.4L338.5 171ZM346.9 171.2L346.9 171.2Q346.2 171.2 345.6 170.9Q345.0 170.7 344.7 170.3Q344.3 169.9 344.2 169.3L344.2 169.3L345.3 169.0Q345.4 169.6 345.8 169.9Q346.3 170.1 346.9 170.1L346.9 170.1Q347.6 170.1 348.1 169.8Q348.5 169.5 348.5 169.1L348.5 169.1Q348.5 168.7 348.3 168.5Q348.0 168.2 347.5 168.1L347.5 168.1L346.3 167.8Q345.3 167.6 344.9 167.1Q344.4 166.6 344.4 165.9L344.4 165.9Q344.4 165.3 344.7 164.8Q345.1 164.3 345.7 164.1Q346.3 163.8 347.0 163.8L347.0 163.8Q347.8 163.8 348.3 164.0Q348.8 164.3 349.1 164.6Q349.4 165.0 349.6 165.5L349.6 165.5L348.5 165.8Q348.4 165.4 348.1 165.1Q347.7 164.8 347.0 164.8L347.0 164.8Q346.4 164.8 346.0 165.1Q345.5 165.4 345.5 165.8L345.5 165.8Q345.5 166.2 345.8 166.4Q346.1 166.7 346.7 166.8L346.7 166.8L347.8 167.1Q348.8 167.3 349.2 167.8Q349.7 168.3 349.7 169.0L349.7 169.0Q349.7 169.6 349.4 170.1Q349.0 170.6 348.4 170.9Q347.7 171.2 346.9 171.2Z "/></g><mask id="satori_om-id-3-3"><rect x="365" y="161" width="4" height="12" fill="#fff" mask="url(#satori_om-id)"/></mask><g mask="url(#satori_om-id)" clip-path="url(#satori_cp-id)"><path fill="#3d3d5c" d="M366.5 159.5L367.5 159.5L367.5 173.8L366.5 173.8L366.5 159.5Z "/></g><mask id="satori_om-id-3-4"><rect x="383" y="160" width="72" height="13" fill="#fff" mask="url(#satori_om-id)"/></mask><g mask="url(#satori_om-id)" clip-path="url(#satori_cp-id)"><path fill="#5a9ca8" d="M387.0 171.1L387.0 171.1Q386.1 171.1 385.4 170.8Q384.7 170.5 384.2 169.9Q383.8 169.4 383.8 168.6L383.8 168.6L385.0 168.6Q385.1 169.1 385.3 169.4Q385.6 169.7 386.0 169.9Q386.5 170.1 387.0 170.1L387.0 170.1Q387.6 170.1 388.1 169.9Q388.5 169.7 388.8 169.3Q389.1 168.9 389.1 168.4L389.1 168.4Q389.1 167.9 388.8 167.5Q388.5 167.1 388.1 166.9Q387.6 166.7 386.9 166.7L386.9 166.7L386.1 166.7L386.1 165.6L386.9 165.6Q387.4 165.6 387.8 165.4Q388.3 165.2 388.5 164.9Q388.7 164.5 388.7 164.0L388.7 164.0Q388.7 163.5 388.5 163.2Q388.3 162.8 387.9 162.7Q387.6 162.5 387.0 162.5L387.0 162.5Q386.6 162.5 386.1 162.6Q385.7 162.8 385.4 163.1Q385.2 163.5 385.2 163.9L385.2 163.9L384.0 163.9Q384.0 163.2 384.4 162.6Q384.9 162.0 385.5 161.7Q386.2 161.4 387.1 161.4L387.1 161.4Q388.0 161.4 388.6 161.8Q389.2 162.1 389.6 162.7Q389.9 163.3 389.9 164.0L389.9 164.0Q389.9 164.8 389.5 165.3Q389.1 165.9 388.3 166.1L388.3 166.1L388.3 166.2Q388.9 166.3 389.4 166.6Q389.8 166.9 390.0 167.4Q390.3 167.8 390.3 168.4L390.3 168.4Q390.3 169.2 389.8 169.8Q389.4 170.4 388.7 170.8Q388.0 171.1 387.0 171.1ZM398.0 171L392.0 171L392.0 170.1L395.1 166.7Q395.7 166.2 396.0 165.7Q396.4 165.3 396.6 164.9Q396.7 164.5 396.7 164.1L396.7 164.1Q396.7 163.6 396.5 163.2Q396.3 162.8 395.9 162.7Q395.5 162.5 395.0 162.5L395.0 162.5Q394.4 162.5 394.0 162.7Q393.6 162.9 393.4 163.3Q393.2 163.7 393.2 164.2L393.2 164.2L392.0 164.2Q392.0 163.4 392.4 162.8Q392.8 162.1 393.5 161.8Q394.1 161.4 395.0 161.4L395.0 161.4Q395.8 161.4 396.5 161.8Q397.1 162.1 397.5 162.7Q397.9 163.3 397.9 164.1L397.9 164.1Q397.9 164.6 397.7 165.1Q397.5 165.5 397.0 166.2Q396.6 166.8 395.7 167.7L395.7 167.7L393.7 169.9L393.7 169.9L398.0 169.9L398.0 171Z M406.5 171.2L406.5 171.2Q405.5 171.2 404.8 170.7Q404.1 170.2 403.7 169.4Q403.3 168.6 403.3 167.5L403.3 167.5Q403.3 166.4 403.7 165.6Q404.1 164.7 404.8 164.3Q405.5 163.8 406.5 163.8L406.5 163.8Q407.0 163.8 407.5 163.9Q407.9 164.1 408.3 164.3Q408.7 164.6 409.0 164.9Q409.2 165.3 409.4 165.8L409.4 165.8L408.3 166.1Q408.2 165.8 408.0 165.6Q407.9 165.4 407.7 165.2Q407.4 165.0 407.1 164.9Q406.9 164.8 406.5 164.8L406.5 164.8Q405.8 164.8 405.3 165.2Q404.9 165.6 404.7 166.2Q404.4 166.8 404.4 167.5L404.4 167.5Q404.4 168.2 404.7 168.8Q404.9 169.4 405.3 169.8Q405.8 170.1 406.5 170.1L406.5 170.1Q406.9 170.1 407.2 170.0Q407.5 169.9 407.7 169.8Q407.9 169.6 408.1 169.3Q408.2 169.1 408.3 168.8L408.3 168.8L409.4 169.1Q409.3 169.6 409.0 170.0Q408.7 170.4 408.3 170.6Q408.0 170.9 407.5 171.0Q407.0 171.2 406.5 171.2ZM413.9 171.2L413.9 171.2Q413.0 171.2 412.2 170.7Q411.5 170.2 411.1 169.4Q410.7 168.6 410.7 167.5L410.7 167.5Q410.7 166.4 411.1 165.6Q411.5 164.7 412.2 164.3Q413.0 163.8 413.9 163.8L413.9 163.8Q414.9 163.8 415.6 164.3Q416.4 164.7 416.8 165.6Q417.2 166.4 417.2 167.5L417.2 167.5Q417.2 168.6 416.8 169.4Q416.4 170.2 415.6 170.7Q414.9 171.2 413.9 171.2ZM413.9 170.1L413.9 170.1Q414.6 170.1 415.1 169.8Q415.6 169.4 415.8 168.8Q416.0 168.2 416.0 167.5L416.0 167.5Q416.0 166.8 415.8 166.2Q415.6 165.6 415.1 165.2Q414.6 164.8 413.9 164.8L413.9 164.8Q413.2 164.8 412.8 165.2Q412.3 165.6 412.1 166.2Q411.9 166.8 411.9 167.5L411.9 167.5Q411.9 168.2 412.1 168.8Q412.3 169.4 412.8 169.8Q413.2 170.1 413.9 170.1ZM420.0 171L418.8 171L418.8 163.9L419.9 163.9L420.0 165.2Q420.1 164.8 420.3 164.5L420.3 164.5Q420.6 164.2 421.1 164.0Q421.5 163.8 421.9 163.8L421.9 163.8Q422.7 163.8 423.2 164.3L423.2 164.3Q423.6 164.6 423.8 165.2L423.8 165.2Q423.9 164.9 424.1 164.6L424.1 164.6Q424.5 164.2 424.9 164.0Q425.4 163.8 426.0 163.8L426.0 163.8Q426.6 163.8 427.1 164.0Q427.6 164.3 427.9 164.8Q428.2 165.4 428.2 166.2L428.2 166.2L428.2 171L427.1 171L427.1 166.2Q427.1 165.5 426.6 165.1Q426.2 164.8 425.6 164.8L425.6 164.8Q425.2 164.8 424.8 165.0Q424.5 165.2 424.3 165.6Q424.1 165.9 424.1 166.4L424.1 166.4L424.1 171L423.0 171L423.0 166.1Q423.0 165.5 422.6 165.2Q422.2 164.8 421.6 164.8L421.6 164.8Q421.2 164.8 420.8 165.0Q420.4 165.2 420.2 165.6Q420.0 166.0 420.0 166.5L420.0 166.5L420.0 171ZM431.4 171L430.2 171L430.2 163.9L431.3 163.9L431.3 165.2Q431.5 164.8 431.7 164.5L431.7 164.5Q432.0 164.2 432.5 164.0Q432.9 163.8 433.3 163.8L433.3 163.8Q434.1 163.8 434.6 164.3L434.6 164.3Q435.0 164.6 435.1 165.2L435.1 165.2Q435.3 164.9 435.5 164.6L435.5 164.6Q435.9 164.2 436.3 164.0Q436.8 163.8 437.4 163.8L437.4 163.8Q438.0 163.8 438.5 164.0Q439.0 164.3 439.3 164.8Q439.6 165.4 439.6 166.2L439.6 166.2L439.6 171L438.5 171L438.5 166.2Q438.5 165.5 438.0 165.1Q437.6 164.8 437.0 164.8L437.0 164.8Q436.6 164.8 436.2 165.0Q435.9 165.2 435.7 165.6Q435.5 165.9 435.5 166.4L435.5 166.4L435.5 171L434.3 171L434.3 166.1Q434.3 165.5 434.0 165.2Q433.6 164.8 433.0 164.8L433.0 164.8Q432.5 164.8 432.2 165.0Q431.8 165.2 431.6 165.6Q431.4 166.0 431.4 166.5L431.4 166.5L431.4 171ZM442.8 171L441.6 171L441.6 163.9L442.8 163.9L442.8 171ZM442.2 162.7L442.2 162.7Q441.9 162.7 441.6 162.5Q441.4 162.3 441.4 162.0L441.4 162.0Q441.4 161.7 441.6 161.4Q441.9 161.2 442.2 161.2L442.2 161.2Q442.5 161.2 442.8 161.4Q443.0 161.7 443.0 162.0L443.0 162.0Q443.0 162.3 442.8 162.5Q442.5 162.7 442.2 162.7ZM446.1 163.9L447.6 163.9L447.6 164.9L446.1 164.9L446.1 169.2Q446.1 169.6 446.3 169.9Q446.5 170.1 446.9 170.1L446.9 170.1Q447.0 170.1 447.2 170.0Q447.4 170.0 447.5 170.0L447.5 170.0L447.8 171.0Q447.6 171.0 447.3 171.1Q447.1 171.1 446.9 171.1L446.9 171.1Q446.0 171.1 445.5 170.6Q445.0 170.1 445.0 169.2L445.0 169.2L445.0 164.9L443.9 164.9L443.9 163.9L445.0 163.9L445.0 162.2L446.1 162.2L446.1 163.9ZM451.4 171.2L451.4 171.2Q450.7 171.2 450.1 170.9Q449.6 170.7 449.2 170.3Q448.8 169.9 448.7 169.3L448.7 169.3L449.8 169.0Q449.9 169.6 450.4 169.9Q450.8 170.1 451.4 170.1L451.4 170.1Q452.2 170.1 452.6 169.8Q453.0 169.5 453.0 169.1L453.0 169.1Q453.0 168.7 452.8 168.5Q452.5 168.2 452.0 168.1L452.0 168.1L450.8 167.8Q449.9 167.6 449.4 167.1Q448.9 166.6 448.9 165.9L448.9 165.9Q448.9 165.3 449.3 164.8Q449.6 164.3 450.2 164.1Q450.8 163.8 451.5 163.8L451.5 163.8Q452.3 163.8 452.8 164.0Q453.3 164.3 453.6 164.6Q453.9 165.0 454.1 165.5L454.1 165.5L453.1 165.8Q452.9 165.4 452.6 165.1Q452.2 164.8 451.5 164.8L451.5 164.8Q450.9 164.8 450.5 165.1Q450.1 165.4 450.1 165.8L450.1 165.8Q450.1 166.2 450.4 166.4Q450.6 166.7 451.3 166.8L451.3 166.8L452.3 167.1Q453.3 167.3 453.8 167.8Q454.2 168.3 454.2 169.0L454.2 169.0Q454.2 169.6 453.9 170.1Q453.5 170.6 452.9 170.9Q452.3 171.2 451.4 171.2Z "/></g><mask id="satori_om-id-3-5"><rect x="469" y="161" width="4" height="12" fill="#fff" mask="url(#satori_om-id)"/></mask><g mask="url(#satori_om-id)" clip-path="url(#satori_cp-id)"><path fill="#3d3d5c" d="M470.5 159.5L471.5 159.5L471.5 173.8L470.5 173.8L470.5 159.5Z "/></g><mask id="satori_om-id-3-6"><rect x="487" y="156" width="90" height="21" fill="#fff" mask="url(#satori_om-id)"/></mask><defs><clipPath id="satori_bc-id-3-6-0" clip-path="url(#satori_cp-id)"><path x="487" y="156" width="90" height="21" d="M493,156 h78 a6,6 0 0 1 6,6 v9 a6,6 0 0 1 -6,6 h-78 a6,6 0 0 1 -6,-6 v-9 a6,6 0 0 1 6,-6"/></clipPath></defs><mask id="satori_om-id-3-6-0"><rect x="488" y="157" width="88" height="19" fill="#fff" mask="url(#satori_om-id)"/><path width="90" height="21" fill="none" stroke="#000" stroke-width="2" d="M488.757,157.757 A6,6 0 0 1 493,156 h78 a6,6 0 0 1 6,6 v9 a6,6 0 0 1 -6,6 h-78 a6,6 0 0 1 -6,-6 v-9 A6,6 0 0 1 488.757,157.757"/></mask><path x="487" y="156" width="90" height="21" fill="rgba(12,10,20,0.5)" d="M493,156 h78 a6,6 0 0 1 6,6 v9 a6,6 0 0 1 -6,6 h-78 a6,6 0 0 1 -6,-6 v-9 a6,6 0 0 1 6,-6" clip-path="url(#satori_cp-id)" mask="url(#satori_om-id)"/><path width="90" height="21" clip-path="url(#satori_bc-id-3-6-0)" fill="none" stroke="rgba(100,80,180,0.15)" stroke-width="2" d="M488.757,157.757 A6,6 0 0 1 493,156 h78 a6,6 0 0 1 6,6 v9 a6,6 0 0 1 -6,6 h-78 a6,6 0 0 1 -6,-6 v-9 A6,6 0 0 1 488.757,157.757"/><g mask="url(#satori_om-id)" clip-path="url(#satori_cp-id)"><path fill="#9ca3af" d="M501.6 162.6L498.6 162.6L498.6 161.5L505.8 161.5L505.8 162.6L502.8 162.6L502.8 171L501.6 171L501.6 162.6ZM507.3 173.6L507.3 173.6L507.6 172.6L507.7 172.6Q508.0 172.7 508.3 172.7Q508.6 172.6 508.8 172.4Q509.1 172.1 509.2 171.6L509.2 171.6L509.4 171.0L506.7 163.9L508.0 163.9L509.5 168.1Q509.7 168.8 509.9 169.4L509.9 169.4Q510.0 169.7 510.0 170.0L510.0 170.0Q510.1 169.7 510.2 169.4L510.2 169.4Q510.4 168.8 510.6 168.1L510.6 168.1L512.1 163.9L513.4 163.9L510.2 172.1Q510.0 172.6 509.7 173.0Q509.4 173.4 509.0 173.5Q508.6 173.7 508.1 173.7L508.1 173.7Q507.8 173.7 507.6 173.7Q507.4 173.6 507.3 173.6ZM515.8 173.7L514.7 173.7L514.7 163.9L515.8 163.9L515.8 165.0L515.9 165.0Q516.1 164.8 516.3 164.6Q516.5 164.3 516.9 164.0Q517.3 163.8 518.0 163.8L518.0 163.8Q518.9 163.8 519.6 164.3Q520.2 164.7 520.6 165.5Q521.0 166.3 521.0 167.5L521.0 167.5Q521.0 168.6 520.6 169.4Q520.2 170.3 519.6 170.7Q518.9 171.2 518.0 171.2L518.0 171.2Q517.3 171.2 516.9 170.9Q516.5 170.7 516.3 170.4Q516.1 170.1 515.9 169.9L515.9 169.9L515.8 169.9L515.8 173.7ZM517.8 170.1L517.8 170.1Q518.5 170.1 518.9 169.8Q519.4 169.4 519.6 168.8Q519.8 168.2 519.8 167.5L519.8 167.5Q519.8 166.7 519.6 166.1Q519.4 165.5 518.9 165.2Q518.5 164.8 517.8 164.8L517.8 164.8Q517.2 164.8 516.7 165.2Q516.3 165.5 516.1 166.1Q515.8 166.7 515.8 167.5L515.8 167.5Q515.8 168.2 516.1 168.8Q516.3 169.5 516.7 169.8Q517.2 170.1 517.8 170.1ZM525.6 171.2L525.6 171.2Q524.6 171.2 523.9 170.7Q523.1 170.2 522.7 169.4Q522.3 168.6 522.3 167.5Q522.3 166.4 522.7 165.6Q523.1 164.8 523.8 164.3Q524.5 163.8 525.5 163.8L525.5 163.8Q526.1 163.8 526.6 164.0Q527.2 164.2 527.6 164.6Q528.1 165.0 528.3 165.7Q528.6 166.4 528.6 167.4L528.6 167.4L528.6 167.8L523.5 167.8Q523.5 168.5 523.7 169.0L523.7 169.0Q524.0 169.6 524.5 169.9Q525.0 170.1 525.7 170.1L525.7 170.1Q526.1 170.1 526.4 170.0Q526.8 169.9 527.0 169.7Q527.3 169.4 527.4 169.0L527.4 169.0L528.5 169.3Q528.3 169.9 527.9 170.3Q527.5 170.7 527.0 170.9Q526.4 171.2 525.6 171.2ZM523.5 166.9L523.5 166.9L527.4 166.9Q527.4 166.4 527.2 166.0L527.2 166.0Q527.0 165.4 526.6 165.1Q526.2 164.8 525.5 164.8Q524.9 164.8 524.4 165.1Q524.0 165.5 523.7 166.0L523.7 166.0Q523.5 166.4 523.5 166.9ZM533.4 171.2L533.4 171.2Q532.4 171.2 531.6 170.8Q530.9 170.5 530.5 169.9Q530.0 169.3 530.0 168.5L530.0 168.5L531.2 168.5Q531.3 169.1 531.6 169.4Q531.9 169.7 532.4 169.9Q532.9 170.1 533.4 170.1L533.4 170.1Q534.0 170.1 534.6 169.9Q535.1 169.7 535.4 169.3Q535.7 168.9 535.7 168.4L535.7 168.4Q535.7 167.9 535.4 167.7Q535.2 167.4 534.7 167.2Q534.3 167.0 533.8 166.9L533.8 166.9L532.7 166.5Q531.5 166.2 530.9 165.6Q530.2 165.0 530.2 164.1L530.2 164.1Q530.2 163.3 530.7 162.7Q531.1 162.1 531.8 161.7Q532.6 161.4 533.5 161.4L533.5 161.4Q534.4 161.4 535.1 161.7Q535.9 162.1 536.3 162.6Q536.7 163.2 536.7 163.9L536.7 163.9L535.5 163.9Q535.5 163.2 534.9 162.9Q534.3 162.5 533.5 162.5L533.5 162.5Q532.8 162.5 532.4 162.7Q531.9 162.9 531.7 163.2Q531.4 163.6 531.4 164.0L531.4 164.0Q531.4 164.5 531.7 164.8Q532.0 165.1 532.5 165.3Q532.9 165.5 533.2 165.5L533.2 165.5L534.2 165.8Q534.5 165.9 535.0 166.1Q535.5 166.3 535.9 166.6Q536.3 166.9 536.6 167.3Q536.8 167.8 536.8 168.4L536.8 168.4Q536.8 169.2 536.4 169.8Q536.0 170.4 535.3 170.8Q534.5 171.2 533.4 171.2ZM541.5 171.2L541.5 171.2Q540.5 171.2 539.8 170.7Q539.1 170.2 538.6 169.4Q538.2 168.6 538.2 167.5L538.2 167.5Q538.2 166.4 538.6 165.6Q539.1 164.7 539.8 164.3Q540.5 163.8 541.5 163.8L541.5 163.8Q542.0 163.8 542.4 163.9Q542.9 164.1 543.3 164.3Q543.7 164.6 543.9 164.9Q544.2 165.3 544.3 165.8L544.3 165.8L543.2 166.1Q543.2 165.8 543.0 165.6Q542.9 165.4 542.6 165.2Q542.4 165.0 542.1 164.9Q541.8 164.8 541.5 164.8L541.5 164.8Q540.8 164.8 540.3 165.2Q539.8 165.6 539.6 166.2Q539.4 166.8 539.4 167.5L539.4 167.5Q539.4 168.2 539.6 168.8Q539.8 169.4 540.3 169.8Q540.8 170.1 541.5 170.1L541.5 170.1Q541.8 170.1 542.1 170.0Q542.4 169.9 542.7 169.8Q542.9 169.6 543.0 169.3Q543.2 169.1 543.3 168.8L543.3 168.8L544.4 169.1Q544.2 169.6 544.0 170.0Q543.7 170.4 543.3 170.6Q542.9 170.9 542.5 171.0Q542.0 171.2 541.5 171.2ZM547.1 171L546.0 171L546.0 163.9L547.1 163.9L547.1 165.0L547.2 165.0Q547.4 164.5 547.9 164.1Q548.4 163.8 549.0 163.8L549.0 163.8Q549.2 163.8 549.3 163.8Q549.5 163.8 549.6 163.8L549.6 163.8L549.6 165.0Q549.6 165.0 549.4 164.9Q549.1 164.9 548.9 164.9L548.9 164.9Q548.4 164.9 548.0 165.1Q547.6 165.3 547.4 165.7Q547.1 166.1 547.1 166.6L547.1 166.6L547.1 171ZM552.0 171L550.9 171L550.9 163.9L552.0 163.9L552.0 171ZM551.5 162.7L551.5 162.7Q551.2 162.7 550.9 162.5Q550.7 162.3 550.7 162.0L550.7 162.0Q550.7 161.7 550.9 161.4Q551.2 161.2 551.5 161.2L551.5 161.2Q551.8 161.2 552.0 161.4Q552.3 161.7 552.3 162.0L552.3 162.0Q552.3 162.3 552.0 162.5Q551.8 162.7 551.5 162.7ZM555.2 173.7L554.0 173.7L554.0 163.9L555.2 163.9L555.2 165.0L555.3 165.0Q555.4 164.8 555.6 164.6Q555.8 164.3 556.2 164.0Q556.6 163.8 557.3 163.8L557.3 163.8Q558.2 163.8 558.9 164.3Q559.6 164.7 560.0 165.5Q560.3 166.3 560.3 167.5L560.3 167.5Q560.3 168.6 560.0 169.4Q559.6 170.3 558.9 170.7Q558.2 171.2 557.3 171.2L557.3 171.2Q556.7 171.2 556.3 170.9Q555.8 170.7 555.6 170.4Q555.4 170.1 555.3 169.9L555.3 169.9L555.2 169.9L555.2 173.7ZM557.2 170.1L557.2 170.1Q557.8 170.1 558.3 169.8Q558.7 169.4 559.0 168.8Q559.2 168.2 559.2 167.5L559.2 167.5Q559.2 166.7 559.0 166.1Q558.7 165.5 558.3 165.2Q557.8 164.8 557.2 164.8L557.2 164.8Q556.5 164.8 556.1 165.2Q555.6 165.5 555.4 166.1Q555.2 166.7 555.2 167.5L555.2 167.5Q555.2 168.2 555.4 168.8Q555.6 169.5 556.1 169.8Q556.5 170.1 557.2 170.1ZM563.3 163.9L564.8 163.9L564.8 164.9L563.3 164.9L563.3 169.2Q563.3 169.6 563.5 169.9Q563.7 170.1 564.2 170.1L564.2 170.1Q564.3 170.1 564.5 170.0Q564.6 170.0 564.8 170.0L564.8 170.0L565.0 171.0Q564.8 171.0 564.6 171.1Q564.4 171.1 564.1 171.1L564.1 171.1Q563.2 171.1 562.7 170.6Q562.2 170.1 562.2 169.2L562.2 169.2L562.2 164.9L561.1 164.9L561.1 163.9L562.2 163.9L562.2 162.2L563.3 162.2L563.3 163.9Z "/></g></svg>