<svg width="700" height="60" viewBox="0 0 700 60" xmlns="http://www.w3.org/2000/svg"><mask id="satori_om-id"><rect x="0" y="0" width="700" height="60" fill="#fff"/></mask><path x="0" y="0" width="700" height="60" fill="#0d1117" d="M30,0 h640 a30,30 0 0 1 30,30 v0 a30,30 0 0 1 -30,30 h-640 a30,30 0 0 1 -30,-30 v0 a30,30 0 0 1 30,-30"/><mask id="satori_om-id-0"><rect x="96" y="18" width="99" height="24" fill="#fff"/></mask><path x="96" y="18" width="99" height="24" fill="#3178c6" d="M108,18 h75 a12,12 0 0 1 12,12 v0 a12,12 0 0 1 -12,12 h-75 a12,12 0 0 1 -12,-12 v0 a12,12 0 0 1 12,-12"/><g  ><path fill="white" d="M113.4 27.1L110.5 27.1L110.5 25.5L118.2 25.5L118.2 27.1L115.3 27.1L115.3 35L113.4 35L113.4 27.1ZM119.4 37.5L119.4 37.5L119.9 36.1L120.1 36.1Q120.5 36.2 120.8 36.2Q121.1 36.1 121.3 36.0Q121.5 35.8 121.5 35.4L121.5 35.4L121.5 35.0L118.9 27.9L120.9 27.9L122.1 31.6Q122.3 32.3 122.4 33.0L122.4 33.0Q122.5 33.2 122.5 33.5L122.5 33.5Q122.6 33.2 122.7 33.0L122.7 33.0Q122.8 32.3 123.1 31.6L123.1 31.6L124.3 27.9L126.3 27.9L123.3 35.8Q123.1 36.4 122.7 36.8Q122.4 37.2 121.9 37.5Q121.4 37.7 120.7 37.7L120.7 37.7Q120.3 37.7 120.0 37.7Q119.6 37.6 119.4 37.5ZM129.2 37.7L127.3 37.7L127.3 27.9L129.2 27.9L129.2 29.1L129.3 29.1Q129.4 28.8 129.7 28.5Q129.9 28.2 130.3 28.0Q130.7 27.8 131.3 27.8L131.3 27.8Q132.1 27.8 132.7 28.2Q133.4 28.6 133.8 29.4Q134.2 30.3 134.2 31.5L134.2 31.5Q134.2 32.6 133.8 33.5Q133.4 34.3 132.8 34.7Q132.1 35.1 131.3 35.1L131.3 35.1Q130.7 35.1 130.3 34.9Q129.9 34.7 129.7 34.4Q129.4 34.1 129.3 33.9L129.3 33.9L129.2 33.9L129.2 37.7ZM130.7 33.6L130.7 33.6Q131.2 33.6 131.5 33.3Q131.9 33.0 132.1 32.6Q132.2 32.1 132.2 31.5L132.2 31.5Q132.2 30.8 132.1 30.4Q131.9 29.9 131.5 29.6Q131.2 29.3 130.7 29.3L130.7 29.3Q130.2 29.3 129.9 29.6Q129.5 29.9 129.4 30.3Q129.2 30.8 129.2 31.5L129.2 31.5Q129.2 32.1 129.4 32.6Q129.5 33.1 129.9 33.3Q130.2 33.6 130.7 33.6ZM138.7 35.1L138.7 35.1Q137.6 35.1 136.8 34.7Q136.1 34.3 135.6 33.4Q135.2 32.6 135.2 31.5L135.2 31.5Q135.2 30.4 135.6 29.6Q136.1 28.7 136.8 28.3Q137.6 27.8 138.6 27.8L138.6 27.8Q139.3 27.8 139.9 28.0Q140.5 28.3 141.0 28.7Q141.4 29.2 141.7 29.8Q142.0 30.5 142.0 31.4L142.0 31.4L142.0 31.9L137.1 31.9Q137.1 32.5 137.3 32.9L137.3 32.9Q137.5 33.3 137.9 33.5Q138.3 33.7 138.7 33.7L138.7 33.7Q139.1 33.7 139.4 33.6Q139.6 33.5 139.8 33.3Q140.0 33.1 140.1 32.9L140.1 32.9L141.8 33.2Q141.7 33.8 141.2 34.2Q140.8 34.7 140.2 34.9Q139.5 35.1 138.7 35.1ZM137.1 30.8L137.1 30.8L140.1 30.8Q140.1 30.4 140.0 30.1L140.0 30.1Q139.8 29.7 139.5 29.5Q139.1 29.2 138.6 29.2L138.6 29.2Q138.1 29.2 137.8 29.5Q137.5 29.7 137.3 30.1L137.3 30.1Q137.1 30.4 137.1 30.8ZM146.8 35.1L146.8 35.1Q145.6 35.1 144.8 34.8Q143.9 34.4 143.5 33.8Q143.0 33.1 143.0 32.1L143.0 32.1L144.9 32.1Q144.9 32.5 145.2 32.9Q145.4 33.2 145.8 33.3Q146.2 33.5 146.7 33.5L146.7 33.5Q147.3 33.5 147.7 33.4Q148.0 33.2 148.3 32.9Q148.5 32.7 148.5 32.3L148.5 32.3Q148.5 32.0 148.3 31.8Q148.1 31.5 147.7 31.4Q147.4 31.2 146.8 31.1L146.8 31.1L145.8 30.8Q144.6 30.5 143.9 29.9Q143.2 29.3 143.2 28.3L143.2 28.3Q143.2 27.4 143.7 26.8Q144.2 26.1 145.0 25.8Q145.8 25.4 146.8 25.4L146.8 25.4Q147.8 25.4 148.6 25.8Q149.4 26.1 149.8 26.8Q150.3 27.4 150.3 28.2L150.3 28.2L148.4 28.2Q148.4 27.7 147.9 27.4Q147.5 27.0 146.8 27.0L146.8 27.0Q146.3 27.0 145.9 27.2Q145.6 27.3 145.4 27.6Q145.2 27.8 145.2 28.1L145.2 28.1Q145.2 28.5 145.4 28.7Q145.6 29.0 146.0 29.1Q146.3 29.2 146.7 29.3L146.7 29.3L147.6 29.5Q148.2 29.7 148.7 29.9Q149.2 30.1 149.6 30.5Q150.0 30.8 150.2 31.3Q150.4 31.7 150.4 32.3L150.4 32.3Q150.4 33.2 150.0 33.8Q149.6 34.4 148.7 34.8Q147.9 35.1 146.8 35.1ZM154.9 35.1L154.9 35.1Q153.9 35.1 153.1 34.7Q152.3 34.2 151.9 33.4Q151.5 32.6 151.5 31.5L151.5 31.5Q151.5 30.4 151.9 29.6Q152.3 28.7 153.1 28.3Q153.9 27.8 154.9 27.8L154.9 27.8Q155.6 27.8 156.1 28.0Q156.6 28.1 157.0 28.4Q157.5 28.8 157.7 29.2Q158.0 29.6 158.1 30.2L158.1 30.2L156.3 30.5Q156.3 30.2 156.1 30.0Q156.0 29.8 155.9 29.6Q155.7 29.5 155.5 29.4Q155.2 29.3 155.0 29.3L155.0 29.3Q154.5 29.3 154.1 29.6Q153.8 29.9 153.6 30.3Q153.4 30.8 153.4 31.5L153.4 31.5Q153.4 32.1 153.6 32.6Q153.8 33.1 154.1 33.4Q154.5 33.6 155.0 33.6L155.0 33.6Q155.2 33.6 155.5 33.6Q155.7 33.5 155.9 33.3Q156.0 33.1 156.2 32.9Q156.3 32.7 156.3 32.4L156.3 32.4L158.1 32.7Q158.0 33.3 157.7 33.7Q157.5 34.2 157.1 34.5Q156.6 34.8 156.1 35.0Q155.6 35.1 154.9 35.1ZM161.3 35L159.4 35L159.4 27.9L161.3 27.9L161.3 29.1L161.3 29.1Q161.5 28.5 162.0 28.1Q162.5 27.8 163.0 27.8L163.0 27.8Q163.2 27.8 163.4 27.8Q163.5 27.8 163.7 27.9L163.7 27.9L163.7 29.6Q163.5 29.5 163.3 29.5Q163.1 29.5 162.8 29.5L162.8 29.5Q162.4 29.5 162.1 29.7Q161.7 29.9 161.5 30.2Q161.3 30.5 161.3 31.0L161.3 31.0L161.3 35ZM166.6 35L164.7 35L164.7 27.9L166.6 27.9L166.6 35ZM165.7 27.0L165.7 27.0Q165.2 27.0 164.9 26.7Q164.6 26.4 164.6 26.0L164.6 26.0Q164.6 25.6 164.9 25.3Q165.2 25.0 165.7 25.0L165.7 25.0Q166.1 25.0 166.4 25.3Q166.7 25.6 166.7 26.0L166.7 26.0Q166.7 26.4 166.4 26.7Q166.1 27.0 165.7 27.0ZM170.1 37.7L168.2 37.7L168.2 27.9L170.1 27.9L170.1 29.1L170.2 29.1Q170.3 28.8 170.6 28.5Q170.8 28.2 171.2 28.0Q171.6 27.8 172.2 27.8L172.2 27.8Q173.0 27.8 173.7 28.2Q174.3 28.6 174.7 29.4Q175.1 30.3 175.1 31.5L175.1 31.5Q175.1 32.6 174.7 33.5Q174.3 34.3 173.7 34.7Q173.0 35.1 172.2 35.1L172.2 35.1Q171.6 35.1 171.2 34.9Q170.8 34.7 170.6 34.4Q170.3 34.1 170.2 33.9L170.2 33.9L170.1 33.9L170.1 37.7ZM171.6 33.6L171.6 33.6Q172.1 33.6 172.5 33.3Q172.8 33.0 173.0 32.6Q173.1 32.1 173.1 31.5L173.1 31.5Q173.1 30.8 173.0 30.4Q172.8 29.9 172.5 29.6Q172.1 29.3 171.6 29.3L171.6 29.3Q171.1 29.3 170.8 29.6Q170.4 29.9 170.3 30.3Q170.1 30.8 170.1 31.5L170.1 31.5Q170.1 32.1 170.3 32.6Q170.5 33.1 170.8 33.3Q171.1 33.6 171.6 33.6ZM178.6 27.9L180.0 27.9L180.0 29.4L178.6 29.4L178.6 32.9Q178.6 33.3 178.8 33.4Q178.9 33.6 179.3 33.6L179.3 33.6Q179.4 33.6 179.6 33.6Q179.8 33.5 179.9 33.5L179.9 33.5L180.1 34.9Q179.8 35.0 179.5 35.1Q179.2 35.1 178.9 35.1L178.9 35.1Q177.9 35.1 177.3 34.6Q176.7 34.1 176.7 33.1L176.7 33.1L176.7 29.4L175.7 29.4L175.7 27.9L176.7 27.9L176.7 26.2L178.6 26.2L178.6 27.9Z "/></g><mask id="satori_om-id-1"><rect x="205" y="18" width="77" height="24" fill="#fff"/></mask><path x="205" y="18" width="77" height="24" fill="#2b2b2b" d="M217,18 h53 a12,12 0 0 1 12,12 v0 a12,12 0 0 1 -12,12 h-53 a12,12 0 0 1 -12,-12 v0 a12,12 0 0 1 12,-12"/><g  ><path fill="#7ee787" d="M221.8 35L219.9 35L219.9 25.5L222.0 25.5L225.0 30.3Q225.2 30.7 225.5 31.1Q225.7 31.6 226.0 32.1L226.0 32.1Q226.1 32.3 226.2 32.6L226.2 32.6Q226.2 32.4 226.2 32.1L226.2 32.1Q226.1 31.6 226.1 31.0Q226.1 30.5 226.1 30.1L226.1 30.1L226.1 25.5L228.1 25.5L228.1 35L225.9 35L223.2 30.7Q222.9 30.2 222.6 29.7Q222.4 29.2 222.1 28.7L222.1 28.7Q221.9 28.4 221.7 27.9L221.7 27.9Q221.7 28.3 221.8 28.7L221.8 28.7Q221.8 29.3 221.8 29.8Q221.8 30.3 221.8 30.7L221.8 30.7L221.8 35ZM232.9 35.1L232.9 35.1Q231.8 35.1 231.0 34.7Q230.3 34.2 229.8 33.4Q229.4 32.6 229.4 31.5L229.4 31.5Q229.4 30.4 229.8 29.6Q230.3 28.7 231.0 28.3Q231.8 27.8 232.9 27.8L232.9 27.8Q234.0 27.8 234.7 28.3Q235.5 28.7 235.9 29.6Q236.4 30.4 236.4 31.5L236.4 31.5Q236.4 32.6 235.9 33.4Q235.5 34.2 234.7 34.7Q234.0 35.1 232.9 35.1ZM232.9 33.6L232.9 33.6Q233.4 33.6 233.7 33.4Q234.1 33.1 234.3 32.6Q234.4 32.1 234.4 31.5L234.4 31.5Q234.4 30.8 234.3 30.4Q234.1 29.9 233.7 29.6Q233.4 29.3 232.9 29.3L232.9 29.3Q232.4 29.3 232.0 29.6Q231.7 29.9 231.5 30.4Q231.4 30.8 231.4 31.5L231.4 31.5Q231.4 32.1 231.5 32.6Q231.7 33.1 232.0 33.4Q232.4 33.6 232.9 33.6ZM240.3 35.1L240.3 35.1Q239.5 35.1 238.8 34.7Q238.2 34.3 237.8 33.5Q237.4 32.6 237.4 31.5L237.4 31.5Q237.4 30.3 237.8 29.4Q238.2 28.6 238.8 28.2Q239.5 27.8 240.3 27.8L240.3 27.8Q240.9 27.8 241.3 28.0Q241.7 28.2 241.9 28.5Q242.2 28.8 242.3 29.1L242.3 29.1L242.4 29.1L242.4 25.5L244.3 25.5L244.3 35L242.4 35L242.4 33.9L242.3 33.9Q242.2 34.1 241.9 34.4Q241.7 34.7 241.3 34.9Q240.9 35.1 240.3 35.1ZM240.9 33.6L240.9 33.6Q241.4 33.6 241.7 33.3Q242.0 33.1 242.2 32.6Q242.4 32.1 242.4 31.5L242.4 31.5Q242.4 30.8 242.2 30.3Q242.0 29.9 241.7 29.6Q241.4 29.3 240.9 29.3L240.9 29.3Q240.4 29.3 240.0 29.6Q239.7 29.9 239.5 30.4Q239.4 30.8 239.4 31.5L239.4 31.5Q239.4 32.1 239.5 32.6Q239.7 33.0 240.0 33.3Q240.4 33.6 240.9 33.6ZM249.1 35.1L249.1 35.1Q248.0 35.1 247.2 34.7Q246.4 34.3 246.0 33.4Q245.6 32.6 245.6 31.5L245.6 31.5Q245.6 30.4 246.0 29.6Q246.4 28.7 247.2 28.3Q248.0 27.8 249.0 27.8L249.0 27.8Q249.7 27.8 250.3 28.0Q250.9 28.3 251.4 28.7Q251.8 29.2 252.1 29.8Q252.3 30.5 252.3 31.4L252.3 31.4L252.3 31.9L247.5 31.9Q247.5 32.5 247.7 32.9L247.7 32.9Q247.9 33.3 248.3 33.5Q248.6 33.7 249.1 33.7L249.1 33.7Q249.5 33.7 249.7 33.6Q250.0 33.5 250.2 33.3Q250.4 33.1 250.5 32.9L250.5 32.9L252.2 33.2Q252.1 33.8 251.6 34.2Q251.2 34.7 250.6 34.9Q249.9 35.1 249.1 35.1ZM247.5 30.8L247.5 30.8L250.5 30.8Q250.5 30.4 250.3 30.1L250.3 30.1Q250.2 29.7 249.8 29.5Q249.5 29.2 249.0 29.2L249.0 29.2Q248.5 29.2 248.2 29.5Q247.8 29.7 247.7 30.1L247.7 30.1Q247.5 30.4 247.5 30.8ZM255.0 35.1L255.0 35.1Q254.5 35.1 254.2 34.8Q253.9 34.5 253.9 34.0L253.9 34.0Q253.9 33.6 254.2 33.3Q254.5 32.9 255.0 32.9L255.0 32.9Q255.5 32.9 255.8 33.3Q256.1 33.6 256.1 34.0L256.1 34.0Q256.1 34.5 255.8 34.8Q255.5 35.1 255.0 35.1ZM258.0 35.3L258.0 27.9L259.9 27.9L259.9 35.4Q259.9 36.2 259.6 36.7Q259.2 37.2 258.7 37.4Q258.1 37.7 257.2 37.7L257.2 37.7L256.8 37.7L256.8 36.2L257.1 36.2Q257.6 36.2 257.8 35.9Q258.0 35.7 258.0 35.3L258.0 35.3ZM258.9 27.0L258.9 27.0Q258.5 27.0 258.2 26.7Q257.9 26.4 257.9 26.0L257.9 26.0Q257.9 25.6 258.2 25.3Q258.5 25.0 258.9 25.0L258.9 25.0Q259.4 25.0 259.7 25.3Q260.0 25.6 260.0 26.0L260.0 26.0Q260.0 26.4 259.7 26.7Q259.4 27.0 258.9 27.0ZM264.3 35.1L264.3 35.1Q263.5 35.1 262.8 34.9Q262.1 34.7 261.7 34.2Q261.3 33.7 261.2 33.1L261.2 33.1L263.0 32.8Q263.1 33.2 263.4 33.5Q263.8 33.7 264.4 33.7L264.4 33.7Q264.9 33.7 265.2 33.5Q265.5 33.3 265.5 33.0L265.5 33.0Q265.5 32.7 265.3 32.6Q265.1 32.4 264.6 32.3L264.6 32.3L263.4 32.0Q262.4 31.8 261.9 31.3Q261.4 30.8 261.4 30.0L261.4 30.0Q261.4 29.3 261.7 28.8Q262.1 28.3 262.8 28.1Q263.4 27.8 264.3 27.8L264.3 27.8Q265.2 27.8 265.8 28.0Q266.4 28.3 266.8 28.7Q267.2 29.1 267.3 29.7L267.3 29.7L265.6 30.0Q265.5 29.6 265.2 29.4Q264.9 29.2 264.4 29.2L264.4 29.2Q263.9 29.2 263.6 29.4Q263.3 29.6 263.3 29.9L263.3 29.9Q263.3 30.2 263.5 30.4Q263.7 30.5 264.2 30.6L264.2 30.6L265.5 30.9Q266.5 31.1 267.0 31.6Q267.5 32.0 267.5 32.8L267.5 32.8Q267.5 33.5 267.1 34.0Q266.7 34.6 266.0 34.8Q265.2 35.1 264.3 35.1Z "/></g><mask id="satori_om-id-2"><rect x="292" y="18" width="66" height="24" fill="#fff"/></mask><path x="292" y="18" width="66" height="24" fill="#764ba2" d="M304,18 h42 a12,12 0 0 1 12,12 v0 a12,12 0 0 1 -12,12 h-42 a12,12 0 0 1 -12,-12 v0 a12,12 0 0 1 12,-12"/><g  ><path fill="white" d="M310.3 35.1L310.3 35.1Q309.2 35.1 308.3 34.8Q307.5 34.4 307.0 33.8Q306.6 33.1 306.5 32.1L306.5 32.1L308.4 32.1Q308.5 32.5 308.7 32.9Q309.0 33.2 309.4 33.3Q309.8 33.5 310.3 33.5L310.3 33.5Q310.8 33.5 311.2 33.4Q311.6 33.2 311.8 32.9Q312.0 32.7 312.0 32.3L312.0 32.3Q312.0 32.0 311.8 31.8Q311.6 31.5 311.3 31.4Q310.9 31.2 310.4 31.1L310.4 31.1L309.4 30.8Q308.2 30.5 307.5 29.9Q306.8 29.3 306.8 28.3L306.8 28.3Q306.8 27.4 307.3 26.8Q307.7 26.1 308.5 25.8Q309.3 25.4 310.3 25.4L310.3 25.4Q311.4 25.4 312.2 25.8Q313.0 26.1 313.4 26.8Q313.8 27.4 313.8 28.2L313.8 28.2L312.0 28.2Q311.9 27.7 311.5 27.4Q311.1 27.0 310.3 27.0L310.3 27.0Q309.8 27.0 309.5 27.2Q309.1 27.3 309.0 27.6Q308.8 27.8 308.8 28.1L308.8 28.1Q308.8 28.5 309.0 28.7Q309.2 29.0 309.5 29.1Q309.9 29.2 310.3 29.3L310.3 29.3L311.1 29.5Q311.7 29.7 312.3 29.9Q312.8 30.1 313.2 30.5Q313.5 30.8 313.8 31.3Q314.0 31.7 314.0 32.3L314.0 32.3Q314.0 33.2 313.5 33.8Q313.1 34.4 312.3 34.8Q311.5 35.1 310.3 35.1ZM317.3 35.1L317.3 35.1Q316.6 35.1 316.1 34.9Q315.6 34.7 315.3 34.2Q314.9 33.7 314.9 33.0L314.9 33.0Q314.9 32.4 315.2 32.0Q315.4 31.6 315.8 31.4Q316.1 31.1 316.6 31.0Q317.1 30.9 317.6 30.8L317.6 30.8Q318.2 30.8 318.6 30.7Q319.0 30.7 319.2 30.5Q319.3 30.4 319.3 30.2L319.3 30.2L319.3 30.2Q319.3 29.9 319.2 29.7Q319.1 29.4 318.8 29.3Q318.6 29.2 318.2 29.2L318.2 29.2Q317.9 29.2 317.6 29.3Q317.3 29.4 317.1 29.6Q317.0 29.8 316.9 30.0L316.9 30.0L315.1 29.8Q315.3 29.1 315.8 28.7Q316.2 28.3 316.8 28.0Q317.4 27.8 318.2 27.8L318.2 27.8Q318.8 27.8 319.3 28.0Q319.9 28.1 320.3 28.4Q320.7 28.7 321.0 29.1Q321.2 29.6 321.2 30.2L321.2 30.2L321.2 35L319.4 35L319.4 34.0L319.4 34.0Q319.2 34.3 318.9 34.6Q318.6 34.8 318.2 35.0Q317.8 35.1 317.3 35.1ZM317.8 33.8L317.8 33.8Q318.3 33.8 318.6 33.6Q319.0 33.4 319.2 33.1Q319.4 32.8 319.4 32.5L319.4 32.5L319.4 31.7Q319.3 31.8 319.1 31.8Q318.9 31.9 318.7 31.9Q318.5 31.9 318.3 32.0Q318.1 32.0 317.9 32.0L317.9 32.0Q317.6 32.1 317.3 32.2Q317.1 32.3 316.9 32.5Q316.8 32.7 316.8 33.0L316.8 33.0Q316.8 33.2 316.9 33.4Q317.1 33.6 317.3 33.7Q317.5 33.8 317.8 33.8ZM325.1 27.9L326.4 27.9L326.4 29.4L325.1 29.4L325.1 32.9Q325.1 33.3 325.2 33.4Q325.4 33.6 325.7 33.6L325.7 33.6Q325.8 33.6 326.0 33.6Q326.2 33.5 326.3 33.5L326.3 33.5L326.6 34.9Q326.3 35.0 326.0 35.1Q325.6 35.1 325.4 35.1L325.4 35.1Q324.3 35.1 323.7 34.6Q323.2 34.1 323.2 33.1L323.2 33.1L323.2 29.4L322.2 29.4L322.2 27.9L323.2 27.9L323.2 26.2L325.1 26.2L325.1 27.9ZM330.8 35.1L330.8 35.1Q329.7 35.1 329.0 34.7Q328.2 34.2 327.8 33.4Q327.3 32.6 327.3 31.5L327.3 31.5Q327.3 30.4 327.8 29.6Q328.2 28.7 329.0 28.3Q329.7 27.8 330.8 27.8L330.8 27.8Q331.9 27.8 332.7 28.3Q333.4 28.7 333.9 29.6Q334.3 30.4 334.3 31.5L334.3 31.5Q334.3 32.6 333.9 33.4Q333.4 34.2 332.7 34.7Q331.9 35.1 330.8 35.1ZM330.8 33.6L330.8 33.6Q331.3 33.6 331.7 33.4Q332 33.1 332.2 32.6Q332.3 32.1 332.3 31.5L332.3 31.5Q332.3 30.8 332.2 30.4Q332 29.9 331.7 29.6Q331.3 29.3 330.8 29.3L330.8 29.3Q330.3 29.3 330.0 29.6Q329.6 29.9 329.4 30.4Q329.3 30.8 329.3 31.5L329.3 31.5Q329.3 32.1 329.4 32.6Q329.6 33.1 330.0 33.4Q330.3 33.6 330.8 33.6ZM337.5 35L335.6 35L335.6 27.9L337.4 27.9L337.4 29.1L337.5 29.1Q337.7 28.5 338.2 28.1Q338.6 27.8 339.2 27.8L339.2 27.8Q339.4 27.8 339.6 27.8Q339.7 27.8 339.9 27.9L339.9 27.9L339.9 29.6Q339.7 29.5 339.5 29.5Q339.2 29.5 339.0 29.5L339.0 29.5Q338.6 29.5 338.2 29.7Q337.9 29.9 337.7 30.2Q337.5 30.5 337.5 31.0L337.5 31.0L337.5 35ZM342.8 35L340.9 35L340.9 27.9L342.8 27.9L342.8 35ZM341.9 27.0L341.9 27.0Q341.4 27.0 341.1 26.7Q340.8 26.4 340.8 26.0L340.8 26.0Q340.8 25.6 341.1 25.3Q341.4 25.0 341.9 25.0L341.9 25.0Q342.3 25.0 342.6 25.3Q342.9 25.6 342.9 26.0L342.9 26.0Q342.9 26.4 342.6 26.7Q342.3 27.0 341.9 27.0Z "/></g><defs><clipPath id="satori_bc-id-3"><path x="368" y="17" width="96" height="26" d="M381,17 h70 a13,13 0 0 1 13,13 v0 a13,13 0 0 1 -13,13 h-70 a13,13 0 0 1 -13,-13 v0 a13,13 0 0 1 13,-13"/></clipPath></defs><mask id="satori_om-id-3"><rect x="369" y="18" width="94" height="24" fill="#fff"/><path width="96" height="26" fill="none" stroke="#000" stroke-width="2" d="M371.808,20.808 A13,13 0 0 1 381,17 h70 a13,13 0 0 1 13,13 v0 a13,13 0 0 1 -13,13 h-70 a13,13 0 0 1 -13,-13 v0 A13,13 0 0 1 371.808,20.808"/></mask><path x="368" y="17" width="96" height="26" fill="#1a1a2e" d="M381,17 h70 a13,13 0 0 1 13,13 v0 a13,13 0 0 1 -13,13 h-70 a13,13 0 0 1 -13,-13 v0 a13,13 0 0 1 13,-13"/><path width="96" height="26" clip-path="url(#satori_bc-id-3)" fill="none" stroke="#30363d" stroke-width="2" d="M371.808,20.808 A13,13 0 0 1 381,17 h70 a13,13 0 0 1 13,13 v0 a13,13 0 0 1 -13,13 h-70 a13,13 0 0 1 -13,-13 v0 A13,13 0 0 1 371.808,20.808"/><g  ><path fill="#61dafb" d="M385.8 35L383.9 35L383.9 25.5L387.5 25.5Q388.6 25.5 389.4 25.9Q390.1 26.3 390.5 27.0Q390.9 27.7 390.9 28.6Q390.9 29.6 390.5 30.2Q390.1 30.9 389.4 31.3L389.4 31.3Q389.3 31.3 389.3 31.3L389.3 31.3L391.3 35L389.1 35L387.3 31.6L385.8 31.6L385.8 35ZM385.8 27.1L385.8 30.1L387.2 30.1Q387.8 30.1 388.2 29.9Q388.5 29.7 388.7 29.4Q388.9 29.1 388.9 28.6L388.9 28.6Q388.9 28.1 388.7 27.8Q388.5 27.5 388.2 27.3Q387.8 27.1 387.2 27.1L387.2 27.1L385.8 27.1ZM395.6 35.1L395.6 35.1Q394.5 35.1 393.7 34.7Q392.9 34.3 392.5 33.4Q392.1 32.6 392.1 31.5L392.1 31.5Q392.1 30.4 392.5 29.6Q392.9 28.7 393.7 28.3Q394.4 27.8 395.5 27.8L395.5 27.8Q396.2 27.8 396.8 28.0Q397.4 28.3 397.8 28.7Q398.3 29.2 398.5 29.8Q398.8 30.5 398.8 31.4L398.8 31.4L398.8 31.9L393.9 31.9Q394.0 32.5 394.1 32.9L394.1 32.9Q394.3 33.3 394.7 33.5Q395.1 33.7 395.6 33.7L395.6 33.7Q395.9 33.7 396.2 33.6Q396.5 33.5 396.7 33.3Q396.9 33.1 397.0 32.9L397.0 32.9L398.7 33.2Q398.5 33.8 398.1 34.2Q397.7 34.7 397.0 34.9Q396.4 35.1 395.6 35.1ZM393.9 30.8L393.9 30.8L397.0 30.8Q396.9 30.4 396.8 30.1L396.8 30.1Q396.6 29.7 396.3 29.5Q396.0 29.2 395.5 29.2L395.5 29.2Q395.0 29.2 394.6 29.5Q394.3 29.7 394.1 30.1L394.1 30.1Q394.0 30.4 393.9 30.8ZM402.1 35.1L402.1 35.1Q401.4 35.1 400.9 34.9Q400.3 34.7 400.0 34.2Q399.7 33.7 399.7 33.0L399.7 33.0Q399.7 32.4 399.9 32.0Q400.2 31.6 400.5 31.4Q400.9 31.1 401.4 31.0Q401.9 30.9 402.4 30.8L402.4 30.8Q403.0 30.8 403.4 30.7Q403.8 30.7 403.9 30.5Q404.1 30.4 404.1 30.2L404.1 30.2L404.1 30.2Q404.1 29.9 404.0 29.7Q403.9 29.4 403.6 29.3Q403.4 29.2 403.0 29.2L403.0 29.2Q402.6 29.2 402.4 29.3Q402.1 29.4 401.9 29.6Q401.7 29.8 401.7 30.0L401.7 30.0L399.9 29.8Q400.1 29.1 400.5 28.7Q401.0 28.3 401.6 28.0Q402.2 27.8 403.0 27.8L403.0 27.8Q403.6 27.8 404.1 28.0Q404.7 28.1 405.1 28.4Q405.5 28.7 405.8 29.1Q406.0 29.6 406.0 30.2L406.0 30.2L406.0 35L404.2 35L404.2 34.0L404.2 34.0Q404.0 34.3 403.7 34.6Q403.4 34.8 403.0 35.0Q402.6 35.1 402.1 35.1ZM402.6 33.8L402.6 33.8Q403.1 33.8 403.4 33.6Q403.7 33.4 403.9 33.1Q404.1 32.8 404.1 32.5L404.1 32.5L404.1 31.7Q404.0 31.8 403.9 31.8Q403.7 31.9 403.5 31.9Q403.3 31.9 403.1 32.0Q402.9 32.0 402.7 32.0L402.7 32.0Q402.4 32.1 402.1 32.2Q401.8 32.3 401.7 32.5Q401.5 32.7 401.5 33.0L401.5 33.0Q401.5 33.2 401.7 33.4Q401.8 33.6 402.1 33.7Q402.3 33.8 402.6 33.8ZM410.8 35.1L410.8 35.1Q409.7 35.1 409.0 34.7Q408.2 34.2 407.8 33.4Q407.3 32.6 407.3 31.5L407.3 31.5Q407.3 30.4 407.8 29.6Q408.2 28.7 409.0 28.3Q409.7 27.8 410.8 27.8L410.8 27.8Q411.4 27.8 412.0 28.0Q412.5 28.1 412.9 28.4Q413.3 28.8 413.6 29.2Q413.9 29.6 414.0 30.2L414.0 30.2L412.2 30.5Q412.1 30.2 412.0 30.0Q411.9 29.8 411.7 29.6Q411.6 29.5 411.3 29.4Q411.1 29.3 410.8 29.3L410.8 29.3Q410.3 29.3 410.0 29.6Q409.6 29.9 409.5 30.3Q409.3 30.8 409.3 31.5L409.3 31.5Q409.3 32.1 409.5 32.6Q409.6 33.1 410.0 33.4Q410.3 33.6 410.8 33.6L410.8 33.6Q411.1 33.6 411.3 33.6Q411.6 33.5 411.7 33.3Q411.9 33.1 412.0 32.9Q412.2 32.7 412.2 32.4L412.2 32.4L414.0 32.7Q413.9 33.3 413.6 33.7Q413.3 34.2 412.9 34.5Q412.5 34.8 412.0 35.0Q411.5 35.1 410.8 35.1ZM417.5 27.9L418.8 27.9L418.8 29.4L417.5 29.4L417.5 32.9Q417.5 33.3 417.6 33.4Q417.8 33.6 418.1 33.6L418.1 33.6Q418.2 33.6 418.4 33.6Q418.6 33.5 418.7 33.5L418.7 33.5L419.0 34.9Q418.7 35.0 418.4 35.1Q418.1 35.1 417.8 35.1L417.8 35.1Q416.7 35.1 416.1 34.6Q415.6 34.1 415.6 33.1L415.6 33.1L415.6 29.4L414.6 29.4L414.6 27.9L415.6 27.9L415.6 26.2L417.5 26.2L417.5 27.9Z M425.9 35.1L425.9 35.1Q424.4 35.1 423.6 34.4Q422.7 33.6 422.7 32.2L422.7 32.2L422.7 31.6L424.7 31.6L424.7 32.2Q424.7 32.9 425.0 33.2Q425.4 33.6 425.9 33.6L425.9 33.6Q426.5 33.6 426.8 33.2Q427.1 32.9 427.1 32.2L427.1 32.2L427.1 25.5L429.1 25.5L429.1 32.1Q429.1 33.6 428.2 34.4Q427.4 35.1 425.9 35.1ZM434.2 35.1L434.2 35.1Q433.1 35.1 432.3 34.8Q431.4 34.4 431.0 33.8Q430.5 33.1 430.5 32.1L430.5 32.1L432.3 32.1Q432.4 32.5 432.6 32.9Q432.9 33.2 433.3 33.3Q433.7 33.5 434.2 33.5L434.2 33.5Q434.7 33.5 435.1 33.4Q435.5 33.2 435.7 32.9Q435.9 32.7 435.9 32.3L435.9 32.3Q435.9 32.0 435.7 31.8Q435.6 31.5 435.2 31.4Q434.8 31.2 434.3 31.1L434.3 31.1L433.3 30.8Q432.1 30.5 431.4 29.9Q430.7 29.3 430.7 28.3L430.7 28.3Q430.7 27.4 431.2 26.8Q431.6 26.1 432.4 25.8Q433.2 25.4 434.3 25.4L434.3 25.4Q435.3 25.4 436.1 25.8Q436.9 26.1 437.3 26.8Q437.7 27.4 437.8 28.2L437.8 28.2L435.9 28.2Q435.8 27.7 435.4 27.4Q435.0 27.0 434.2 27.0L434.2 27.0Q433.8 27.0 433.4 27.2Q433.1 27.3 432.9 27.6Q432.7 27.8 432.7 28.1L432.7 28.1Q432.7 28.5 432.9 28.7Q433.1 29.0 433.5 29.1Q433.8 29.2 434.2 29.3L434.2 29.3L435.1 29.5Q435.7 29.7 436.2 29.9Q436.7 30.1 437.1 30.5Q437.5 30.8 437.7 31.3Q437.9 31.7 437.9 32.3L437.9 32.3Q437.9 33.2 437.5 33.8Q437.0 34.4 436.2 34.8Q435.4 35.1 434.2 35.1ZM441.0 35L438.8 35L442.1 30.2L439.1 25.5L441.3 25.5L442.3 27.1Q442.6 27.6 442.8 27.9Q443.0 28.3 443.2 28.6L443.2 28.6Q443.2 28.7 443.3 28.8L443.3 28.8Q443.3 28.7 443.3 28.6L443.3 28.6Q443.5 28.3 443.7 27.9Q443.9 27.6 444.2 27.1L444.2 27.1L445.2 25.5L447.4 25.5L444.4 30.1L447.7 35L445.4 35L444.1 33.0Q443.8 32.6 443.7 32.3Q443.5 32.1 443.4 31.8L443.4 31.8Q443.3 31.7 443.2 31.5L443.2 31.5Q443.2 31.7 443.1 31.8L443.1 31.8Q442.9 32.1 442.8 32.3Q442.6 32.6 442.4 33.0L442.4 33.0L441.0 35Z "/></g><defs><clipPath id="satori_bc-id-4"><path x="474" y="17" width="130" height="26" d="M487,17 h104 a13,13 0 0 1 13,13 v0 a13,13 0 0 1 -13,13 h-104 a13,13 0 0 1 -13,-13 v0 a13,13 0 0 1 13,-13"/></clipPath></defs><mask id="satori_om-id-4"><rect x="475" y="18" width="128" height="24" fill="#fff"/><path width="130" height="26" fill="none" stroke="#000" stroke-width="2" d="M477.808,20.808 A13,13 0 0 1 487,17 h104 a13,13 0 0 1 13,13 v0 a13,13 0 0 1 -13,13 h-104 a13,13 0 0 1 -13,-13 v0 A13,13 0 0 1 477.808,20.808"/></mask><path x="474" y="17" width="130" height="26" fill="#1a1a2e" d="M487,17 h104 a13,13 0 0 1 13,13 v0 a13,13 0 0 1 -13,13 h-104 a13,13 0 0 1 -13,-13 v0 a13,13 0 0 1 13,-13"/><path width="130" height="26" clip-path="url(#satori_bc-id-4)" fill="none" stroke="#30363d" stroke-width="2" d="M477.808,20.808 A13,13 0 0 1 487,17 h104 a13,13 0 0 1 13,13 v0 a13,13 0 0 1 -13,13 h-104 a13,13 0 0 1 -13,-13 v0 A13,13 0 0 1 477.808,20.808"/><g  ><path fill="#f0883e" d="M493.8 35.1L493.8 35.1Q492.6 35.1 491.7 34.7Q490.8 34.3 490.3 33.5Q489.9 32.7 489.9 31.7L489.9 31.7L489.9 25.5L491.8 25.5L491.8 31.5Q491.8 32.1 492.0 32.5Q492.3 32.9 492.7 33.2Q493.2 33.4 493.8 33.4L493.8 33.4Q494.4 33.4 494.8 33.2Q495.2 32.9 495.5 32.5Q495.7 32.1 495.7 31.5L495.7 31.5L495.7 25.5L497.7 25.5L497.7 31.7Q497.7 32.7 497.2 33.5Q496.7 34.3 495.8 34.7Q494.9 35.1 493.8 35.1ZM501.2 30.9L501.2 30.9L501.2 35L499.3 35L499.3 27.9L501.1 27.9L501.1 29.4Q501.4 28.7 501.9 28.3L501.9 28.3Q502.5 27.8 503.4 27.8L503.4 27.8Q504.1 27.8 504.6 28.1Q505.2 28.5 505.5 29.1Q505.8 29.7 505.8 30.5L505.8 30.5L505.8 35L503.9 35L503.9 30.8Q503.9 30.2 503.6 29.8Q503.2 29.4 502.6 29.4L502.6 29.4Q502.2 29.4 501.9 29.6Q501.6 29.8 501.4 30.1Q501.2 30.4 501.2 30.9ZM509.3 35L507.4 35L507.4 27.9L509.3 27.9L509.3 35ZM508.4 27.0L508.4 27.0Q507.9 27.0 507.6 26.7Q507.3 26.4 507.3 26.0L507.3 26.0Q507.3 25.6 507.6 25.3Q507.9 25.0 508.4 25.0L508.4 25.0Q508.8 25.0 509.1 25.3Q509.4 25.6 509.4 26.0L509.4 26.0Q509.4 26.4 509.1 26.7Q508.8 27.0 508.4 27.0ZM513.4 27.9L514.9 27.9L514.9 29.4L513.4 29.4L513.4 35L511.5 35L511.5 29.4L510.3 29.4L510.3 27.9L511.5 27.9L511.5 27.4Q511.5 26.6 511.8 26.1Q512.1 25.6 512.6 25.3Q513.2 25.1 513.8 25.1L513.8 25.1Q514.3 25.1 514.6 25.2Q515.0 25.2 515.2 25.3L515.2 25.3L514.8 26.7Q514.7 26.7 514.6 26.7Q514.4 26.6 514.2 26.6L514.2 26.6Q513.8 26.6 513.6 26.8Q513.4 27.0 513.4 27.4L513.4 27.4L513.4 27.9ZM518.0 35L516.1 35L516.1 27.9L518.0 27.9L518.0 35ZM517.1 27.0L517.1 27.0Q516.6 27.0 516.3 26.7Q516.0 26.4 516.0 26.0L516.0 26.0Q516.0 25.6 516.3 25.3Q516.6 25.0 517.1 25.0L517.1 25.0Q517.5 25.0 517.8 25.3Q518.1 25.6 518.1 26.0L518.1 26.0Q518.1 26.4 517.8 26.7Q517.5 27.0 517.1 27.0ZM522.8 35.1L522.8 35.1Q521.8 35.1 521.0 34.7Q520.2 34.3 519.8 33.4Q519.3 32.6 519.3 31.5L519.3 31.5Q519.3 30.4 519.8 29.6Q520.2 28.7 520.9 28.3Q521.7 27.8 522.8 27.8L522.8 27.8Q523.4 27.8 524.1 28.0Q524.7 28.3 525.1 28.7Q525.6 29.2 525.8 29.8Q526.1 30.5 526.1 31.4L526.1 31.4L526.1 31.9L521.2 31.9Q521.2 32.5 521.4 32.9L521.4 32.9Q521.6 33.3 522.0 33.5Q522.4 33.7 522.9 33.7L522.9 33.7Q523.2 33.7 523.5 33.6Q523.8 33.5 524.0 33.3Q524.1 33.1 524.2 32.9L524.2 32.9L526.0 33.2Q525.8 33.8 525.4 34.2Q525.0 34.7 524.3 34.9Q523.7 35.1 522.8 35.1ZM521.2 30.8L521.2 30.8L524.2 30.8Q524.2 30.4 524.1 30.1L524.1 30.1Q523.9 29.7 523.6 29.5Q523.3 29.2 522.8 29.2L522.8 29.2Q522.3 29.2 521.9 29.5Q521.6 29.7 521.4 30.1L521.4 30.1Q521.3 30.4 521.2 30.8ZM530.0 35.1L530.0 35.1Q529.2 35.1 528.5 34.7Q527.8 34.3 527.5 33.5Q527.1 32.6 527.1 31.5L527.1 31.5Q527.1 30.3 527.5 29.4Q527.9 28.6 528.5 28.2Q529.2 27.8 530.0 27.8L530.0 27.8Q530.6 27.8 531.0 28.0Q531.4 28.2 531.6 28.5Q531.9 28.8 532.0 29.1L532.0 29.1L532.0 29.1L532.0 25.5L534.0 25.5L534.0 35L532.1 35L532.1 33.9L532.0 33.9Q531.9 34.1 531.6 34.4Q531.4 34.7 531.0 34.9Q530.6 35.1 530.0 35.1ZM530.6 33.6L530.6 33.6Q531.0 33.6 531.4 33.3Q531.7 33.1 531.9 32.6Q532.1 32.1 532.1 31.5L532.1 31.5Q532.1 30.8 531.9 30.3Q531.7 29.9 531.4 29.6Q531.1 29.3 530.6 29.3L530.6 29.3Q530.1 29.3 529.7 29.6Q529.4 29.9 529.2 30.4Q529.0 30.8 529.0 31.5L529.0 31.5Q529.0 32.1 529.2 32.6Q529.4 33.0 529.7 33.3Q530.1 33.6 530.6 33.6ZM538.0 25.1L539.6 25.1L536.6 36.4L534.9 36.4L538.0 25.1ZM542.6 35L540.7 35L540.7 25.5L544.4 25.5Q545.4 25.5 546.2 25.9Q546.9 26.3 547.3 27.0Q547.7 27.7 547.7 28.6Q547.7 29.6 547.3 30.2Q546.9 30.9 546.2 31.3L546.2 31.3Q546.1 31.3 546.1 31.3L546.1 31.3L548.1 35L545.9 35L544.1 31.6L542.6 31.6L542.6 35ZM542.6 27.1L542.6 30.1L544.0 30.1Q544.6 30.1 545.0 29.9Q545.4 29.7 545.6 29.4Q545.7 29.1 545.7 28.6L545.7 28.6Q545.7 28.1 545.6 27.8Q545.4 27.5 545.0 27.3Q544.6 27.1 544.0 27.1L544.0 27.1L542.6 27.1ZM552.4 35.1L552.4 35.1Q551.3 35.1 550.5 34.7Q549.7 34.3 549.3 33.4Q548.9 32.6 548.9 31.5L548.9 31.5Q548.9 30.4 549.3 29.6Q549.7 28.7 550.5 28.3Q551.2 27.8 552.3 27.8L552.3 27.8Q553.0 27.8 553.6 28.0Q554.2 28.3 554.6 28.7Q555.1 29.2 555.3 29.8Q555.6 30.5 555.6 31.4L555.6 31.4L555.6 31.9L550.8 31.9Q550.8 32.5 551.0 32.9L551.0 32.9Q551.2 33.3 551.5 33.5Q551.9 33.7 552.4 33.7L552.4 33.7Q552.7 33.7 553.0 33.6Q553.3 33.5 553.5 33.3Q553.7 33.1 553.8 32.9L553.8 32.9L555.5 33.2Q555.3 33.8 554.9 34.2Q554.5 34.7 553.8 34.9Q553.2 35.1 552.4 35.1ZM550.8 30.8L550.8 30.8L553.8 30.8Q553.7 30.4 553.6 30.1L553.6 30.1Q553.4 29.7 553.1 29.5Q552.8 29.2 552.3 29.2L552.3 29.2Q551.8 29.2 551.5 29.5Q551.1 29.7 550.9 30.1L550.9 30.1Q550.8 30.4 550.8 30.8ZM558.8 35L556.9 35L556.9 27.9L558.7 27.9L558.7 29.3Q558.9 28.9 559.1 28.6L559.1 28.6Q559.4 28.2 559.9 28.0Q560.3 27.8 560.8 27.8L560.8 27.8Q561.5 27.8 562.0 28.3L562.0 28.3Q562.4 28.7 562.6 29.4L562.6 29.4Q562.8 29.0 563.0 28.7L563.0 28.7Q563.4 28.2 563.8 28.0Q564.3 27.8 564.9 27.8L564.9 27.8Q565.5 27.8 566.0 28.1Q566.6 28.4 566.9 28.9Q567.1 29.4 567.1 30.2L567.1 30.2L567.1 35L565.2 35L565.2 30.6Q565.2 30.0 564.9 29.7Q564.6 29.4 564.1 29.4L564.1 29.4Q563.8 29.4 563.5 29.5Q563.2 29.7 563.1 30.0Q562.9 30.3 562.9 30.6L562.9 30.6L562.9 35L561.1 35L561.1 30.5Q561.1 30.0 560.8 29.7Q560.5 29.4 560.0 29.4L560.0 29.4Q559.7 29.4 559.4 29.5Q559.1 29.7 559.0 30.0Q558.8 30.3 558.8 30.7L558.8 30.7L558.8 35ZM570.8 35.1L570.8 35.1Q570.1 35.1 569.5 34.9Q569.0 34.7 568.7 34.2Q568.4 33.7 568.4 33.0L568.4 33.0Q568.4 32.4 568.6 32.0Q568.8 31.6 569.2 31.4Q569.6 31.1 570.1 31.0Q570.5 30.9 571.1 30.8L571.1 30.8Q571.7 30.8 572.1 30.7Q572.4 30.7 572.6 30.5Q572.8 30.4 572.8 30.2L572.8 30.2L572.8 30.2Q572.8 29.9 572.7 29.7Q572.5 29.4 572.3 29.3Q572.0 29.2 571.7 29.2L571.7 29.2Q571.3 29.2 571.0 29.3Q570.8 29.4 570.6 29.6Q570.4 29.8 570.3 30.0L570.3 30.0L568.6 29.8Q568.8 29.1 569.2 28.7Q569.6 28.3 570.3 28.0Q570.9 27.8 571.7 27.8L571.7 27.8Q572.3 27.8 572.8 28.0Q573.3 28.1 573.8 28.4Q574.2 28.7 574.4 29.1Q574.7 29.6 574.7 30.2L574.7 30.2L574.7 35L572.9 35L572.9 34.0L572.8 34.0Q572.7 34.3 572.4 34.6Q572.1 34.8 571.7 35.0Q571.3 35.1 570.8 35.1ZM571.3 33.8L571.3 33.8Q571.7 33.8 572.1 33.6Q572.4 33.4 572.6 33.1Q572.8 32.8 572.8 32.5L572.8 32.5L572.8 31.7Q572.7 31.8 572.5 31.8Q572.4 31.9 572.2 31.9Q572.0 31.9 571.8 32.0Q571.6 32.0 571.4 32.0L571.4 32.0Q571.0 32.1 570.8 32.2Q570.5 32.3 570.4 32.5Q570.2 32.7 570.2 33.0L570.2 33.0Q570.2 33.2 570.4 33.4Q570.5 33.6 570.7 33.7Q571.0 33.8 571.3 33.8ZM578.2 35L576.3 35L576.3 27.9L578.2 27.9L578.2 29.1L578.2 29.1Q578.4 28.5 578.9 28.1Q579.4 27.8 579.9 27.8L579.9 27.8Q580.1 27.8 580.3 27.8Q580.4 27.8 580.6 27.9L580.6 27.9L580.6 29.6Q580.4 29.5 580.2 29.5Q580.0 29.5 579.7 29.5L579.7 29.5Q579.3 29.5 579.0 29.7Q578.6 29.9 578.4 30.2Q578.2 30.5 578.2 31.0L578.2 31.0L578.2 35ZM583.5 35L581.6 35L581.6 25.5L583.5 25.5L583.5 30.6L583.6 30.6L585.9 27.9L588.2 27.9L585.5 31.0L588.3 35L586.0 35L584.1 32.1L583.5 32.7L583.5 35Z "/></g></svg>