<svg width="800" height="160" viewBox="0 0 800 160" xmlns="http://www.w3.org/2000/svg"><mask id="satori_om-id"><rect x="0" y="0" width="800" height="160" fill="#fff"/></mask><defs><pattern id="satori_pattern_id-0_0" x="0" y="0" width="1" height="1" patternUnits="objectBoundingBox"><linearGradient id="satori_biid-0_0" x1="0" y1="0" x2="0" y2="1" spreadMethod="pad"><stop offset="0%" stop-color="#1a1a2e"/><stop offset="100%" stop-color="#16213e"/></linearGradient><rect x="0" y="0" width="259" height="160" fill="url(#satori_biid-0_0)"/></pattern></defs><mask id="satori_om-id-0"><rect x="0" y="0" width="259" height="160" fill="#fff"/></mask><path x="0" y="0" width="259" height="160" fill="url(#satori_pattern_id-0_0)" d="M14,0 h231 a14,14 0 0 1 14,14 v132 a14,14 0 0 1 -14,14 h-231 a14,14 0 0 1 -14,-14 v-132 a14,14 0 0 1 14,-14"/><mask id="satori_om-id-0-0"><rect x="20" y="43" width="219" height="29" fill="#fff"/></mask><g  ><path fill="black" d="M26.4 66.2L26.4 66.2Q24.1 66.2 22.6 64.9Q21.2 63.5 21.2 61.0L21.2 61.0L21.2 60.1L23.4 60.1L23.4 61.0Q23.4 62.6 24.2 63.4Q25.0 64.3 26.4 64.3L26.4 64.3Q27.7 64.3 28.5 63.4Q29.4 62.6 29.4 61.0L29.4 61.0L29.4 48.5L31.6 48.5L31.6 61.0Q31.6 63.5 30.1 64.9Q28.7 66.2 26.4 66.2ZM41.4 66.3L41.4 66.3Q39.5 66.3 38.1 65.7Q36.7 65.1 35.9 64.0Q35.2 62.9 35.1 61.4L35.1 61.4L37.3 61.4Q37.4 62.4 38.0 63.1Q38.6 63.7 39.5 64.0Q40.4 64.3 41.4 64.3L41.4 64.3Q42.6 64.3 43.5 63.9Q44.5 63.5 45.0 62.8Q45.6 62.1 45.6 61.2L45.6 61.2Q45.6 60.4 45.1 59.8Q44.6 59.3 43.8 59.0Q43.1 58.6 42.1 58.4L42.1 58.4L40.0 57.8Q37.9 57.2 36.7 56.1Q35.6 54.9 35.6 53.2L35.6 53.2Q35.6 51.7 36.3 50.6Q37.1 49.5 38.5 48.9Q39.9 48.3 41.6 48.3L41.6 48.3Q43.3 48.3 44.6 48.9Q45.9 49.5 46.7 50.6Q47.5 51.6 47.5 52.9L47.5 52.9L45.3 52.9Q45.2 51.7 44.1 51.0Q43.0 50.3 41.5 50.3L41.5 50.3Q40.4 50.3 39.5 50.6Q38.7 51.0 38.2 51.7Q37.7 52.3 37.7 53.1L37.7 53.1Q37.7 54.0 38.3 54.6Q38.9 55.1 39.6 55.4Q40.4 55.8 41.0 55.9L41.0 55.9L42.8 56.4Q43.5 56.6 44.3 56.9Q45.2 57.3 46.0 57.8Q46.7 58.3 47.2 59.2Q47.7 60.0 47.7 61.2L47.7 61.2Q47.7 62.7 47.0 63.8Q46.3 65.0 44.8 65.6Q43.4 66.3 41.4 66.3ZM52.3 66L49.8 66L56.0 57.1L50.2 48.5L52.7 48.5L55.3 52.2Q55.8 53.1 56.2 53.6Q56.5 54.2 56.8 54.7L56.8 54.7Q57.0 55.1 57.3 55.6L57.3 55.6Q57.6 55.1 57.8 54.7L57.8 54.7Q58.1 54.2 58.5 53.6Q58.8 53.1 59.4 52.2L59.4 52.2L62.0 48.5L64.5 48.5L58.6 57.0L64.8 66L62.2 66L59.2 61.6Q58.7 60.8 58.3 60.3Q58.0 59.8 57.7 59.3L57.7 59.3Q57.5 58.9 57.3 58.5L57.3 58.5Q57.1 58.9 56.9 59.2L56.9 59.2Q56.6 59.8 56.2 60.3Q55.9 60.8 55.4 61.6L55.4 61.6L52.3 66Z "/></g><mask id="satori_om-id-0-1"><rect x="20" y="80" width="219" height="18" fill="#fff"/></mask><g  ><path fill="#e0e0ff" d="M23.2 95L21.0 95L21.0 84.1L25.2 84.1Q26.5 84.1 27.4 84.5Q28.2 85.0 28.7 85.8Q29.1 86.6 29.1 87.6Q29.1 88.7 28.7 89.5Q28.2 90.3 27.3 90.7L27.3 90.7Q27.3 90.7 27.2 90.7L27.2 90.7L29.5 95L27.1 95L25.0 91.1L23.2 91.1L23.2 95ZM23.2 85.9L23.2 89.3L24.8 89.3Q25.5 89.3 26.0 89.1Q26.4 88.9 26.6 88.6Q26.8 88.2 26.8 87.6L26.8 87.6Q26.8 87.1 26.6 86.7Q26.4 86.3 26.0 86.1Q25.5 85.9 24.8 85.9L24.8 85.9L23.2 85.9ZM34.5 95.2L34.5 95.2Q33.2 95.2 32.3 94.6Q31.4 94.1 30.9 93.2Q30.4 92.2 30.4 90.9L30.4 90.9Q30.4 89.7 30.9 88.7Q31.4 87.8 32.3 87.2Q33.2 86.7 34.4 86.7L34.4 86.7Q35.2 86.7 35.9 87.0Q36.6 87.2 37.1 87.7Q37.6 88.3 37.9 89.0Q38.2 89.8 38.2 90.9L38.2 90.9L38.2 91.5L32.6 91.5Q32.6 92.1 32.9 92.5L32.9 92.5Q33.1 93.0 33.5 93.3Q34.0 93.5 34.5 93.5L34.5 93.5Q34.9 93.5 35.2 93.4Q35.5 93.3 35.8 93.1Q36.0 92.9 36.1 92.5L36.1 92.5L38.1 92.9Q37.9 93.6 37.4 94.1Q36.9 94.6 36.2 94.9Q35.4 95.2 34.5 95.2ZM32.6 90.1L32.6 90.1L36.1 90.1Q36.1 89.7 35.9 89.4L35.9 89.4Q35.7 88.9 35.3 88.6Q35.0 88.4 34.4 88.4L34.4 88.4Q33.8 88.4 33.4 88.6Q33.0 88.9 32.8 89.3L32.8 89.3Q32.7 89.7 32.6 90.1ZM42.0 95.2L42.0 95.2Q41.2 95.2 40.6 94.9Q40.0 94.6 39.6 94.1Q39.3 93.5 39.3 92.7L39.3 92.7Q39.3 92.0 39.5 91.6Q39.8 91.1 40.2 90.8Q40.7 90.5 41.2 90.4Q41.8 90.3 42.4 90.2L42.4 90.2Q43.1 90.1 43.5 90.1Q44.0 90.0 44.2 89.9Q44.4 89.7 44.4 89.5L44.4 89.5L44.4 89.4Q44.4 89.1 44.2 88.8Q44.1 88.6 43.8 88.5Q43.5 88.3 43.1 88.3L43.1 88.3Q42.7 88.3 42.3 88.5Q42.0 88.6 41.8 88.8Q41.6 89.0 41.5 89.3L41.5 89.3L39.5 89.0Q39.7 88.2 40.2 87.7Q40.7 87.2 41.4 87.0Q42.2 86.7 43.1 86.7L43.1 86.7Q43.7 86.7 44.4 86.9Q45.0 87.0 45.5 87.4Q46.0 87.7 46.3 88.2Q46.6 88.7 46.6 89.5L46.6 89.5L46.6 95L44.5 95L44.5 93.9L44.4 93.9Q44.2 94.2 43.9 94.5Q43.5 94.8 43.1 95.0Q42.6 95.2 42.0 95.2ZM42.6 93.6L42.6 93.6Q43.2 93.6 43.5 93.4Q43.9 93.2 44.2 92.9Q44.4 92.5 44.4 92.1L44.4 92.1L44.4 91.2Q44.3 91.3 44.1 91.3Q43.9 91.4 43.6 91.4Q43.4 91.5 43.2 91.5Q42.9 91.5 42.7 91.6L42.7 91.6Q42.3 91.6 42.0 91.7Q41.7 91.9 41.6 92.1Q41.4 92.3 41.4 92.6L41.4 92.6Q41.4 93.0 41.6 93.2Q41.7 93.4 42.0 93.5Q42.3 93.6 42.6 93.6ZM52.1 95.2L52.1 95.2Q50.9 95.2 50.0 94.6Q49.1 94.1 48.6 93.2Q48.1 92.2 48.1 90.9L48.1 90.9Q48.1 89.7 48.6 88.7Q49.1 87.8 50.0 87.2Q50.9 86.7 52.1 86.7L52.1 86.7Q52.8 86.7 53.4 86.9Q54.1 87.1 54.5 87.4Q55.0 87.8 55.3 88.3Q55.6 88.8 55.7 89.4L55.7 89.4L53.7 89.8Q53.6 89.5 53.5 89.2Q53.3 89.0 53.1 88.8Q53.0 88.6 52.7 88.5Q52.4 88.4 52.1 88.4L52.1 88.4Q51.5 88.4 51.1 88.8Q50.7 89.1 50.5 89.6Q50.3 90.2 50.3 90.9L50.3 90.9Q50.3 91.7 50.5 92.2Q50.7 92.8 51.1 93.1Q51.5 93.4 52.1 93.4L52.1 93.4Q52.4 93.4 52.7 93.3Q53.0 93.2 53.2 93.0Q53.4 92.9 53.5 92.6Q53.6 92.3 53.7 92.0L53.7 92.0L55.7 92.4Q55.6 93.0 55.3 93.5Q55.0 94.0 54.5 94.4Q54.1 94.8 53.4 95.0Q52.8 95.2 52.1 95.2ZM59.8 86.8L61.3 86.8L61.3 88.5L59.8 88.5L59.8 92.6Q59.8 93.0 60.0 93.2Q60.1 93.4 60.5 93.4L60.5 93.4Q60.7 93.4 60.9 93.3Q61.1 93.3 61.2 93.3L61.2 93.3L61.6 94.9Q61.2 95.0 60.8 95.1Q60.5 95.1 60.1 95.1L60.1 95.1Q58.9 95.1 58.2 94.5Q57.6 93.9 57.6 92.8L57.6 92.8L57.6 88.5L56.5 88.5L56.5 86.8L57.6 86.8L57.6 84.9L59.8 84.9L59.8 86.8Z M71.1 95.1L71.1 95.1Q69.7 95.1 68.5 94.5Q67.4 93.8 66.7 92.6Q66.1 91.3 66.1 89.6L66.1 89.6Q66.1 87.8 66.7 86.5Q67.4 85.3 68.5 84.6Q69.7 83.9 71.1 83.9L71.1 83.9Q72.1 83.9 72.9 84.2Q73.7 84.5 74.3 85.0Q74.9 85.5 75.3 86.2Q75.7 86.9 75.8 87.8L75.8 87.8L73.6 87.8Q73.5 87.4 73.3 87.0Q73.1 86.7 72.8 86.4Q72.4 86.2 72.0 86.1Q71.6 85.9 71.2 85.9L71.2 85.9Q70.3 85.9 69.7 86.4Q69.0 86.8 68.7 87.6Q68.3 88.4 68.3 89.6L68.3 89.6Q68.3 90.7 68.7 91.5Q69.0 92.3 69.7 92.8Q70.3 93.2 71.2 93.2L71.2 93.2Q71.6 93.2 72.0 93.0Q72.4 92.9 72.7 92.7Q73.1 92.4 73.3 92.1Q73.5 91.7 73.6 91.3L73.6 91.3L75.8 91.3Q75.7 92.0 75.4 92.7Q75.0 93.4 74.4 94.0Q73.8 94.5 73.0 94.8Q72.2 95.1 71.1 95.1ZM81.1 95.2L81.1 95.2Q79.8 95.2 78.9 94.6Q78.0 94.1 77.5 93.2Q77.1 92.2 77.1 90.9L77.1 90.9Q77.1 89.7 77.5 88.7Q78.0 87.8 78.9 87.2Q79.8 86.7 81.1 86.7L81.1 86.7Q82.3 86.7 83.2 87.2Q84.1 87.8 84.6 88.7Q85.1 89.7 85.1 90.9L85.1 90.9Q85.1 92.2 84.6 93.2Q84.1 94.1 83.2 94.6Q82.3 95.2 81.1 95.2ZM81.1 93.4L81.1 93.4Q81.6 93.4 82.0 93.1Q82.4 92.8 82.6 92.2Q82.8 91.6 82.8 90.9L82.8 90.9Q82.8 90.2 82.6 89.6Q82.4 89.1 82.0 88.8Q81.6 88.4 81.1 88.4L81.1 88.4Q80.5 88.4 80.1 88.8Q79.7 89.1 79.5 89.6Q79.3 90.2 79.3 90.9L79.3 90.9Q79.3 91.6 79.5 92.2Q79.7 92.8 80.1 93.1Q80.5 93.4 81.1 93.4ZM88.8 95L86.6 95L86.6 86.8L88.6 86.8L88.7 88.4Q88.9 87.9 89.1 87.6L89.1 87.6Q89.5 87.1 90.0 86.9Q90.5 86.7 91.1 86.7L91.1 86.7Q91.9 86.7 92.5 87.2L92.5 87.2Q92.9 87.7 93.2 88.5L93.2 88.5Q93.3 88.0 93.6 87.7L93.6 87.7Q94.0 87.2 94.6 86.9Q95.2 86.7 95.8 86.7L95.8 86.7Q96.6 86.7 97.1 87.0Q97.7 87.3 98.1 88.0Q98.4 88.6 98.4 89.5L98.4 89.5L98.4 95L96.2 95L96.2 89.9Q96.2 89.2 95.8 88.9Q95.5 88.5 94.9 88.5L94.9 88.5Q94.5 88.5 94.2 88.7Q93.9 88.9 93.7 89.2Q93.6 89.5 93.6 90.0L93.6 90.0L93.6 95L91.4 95L91.4 89.8Q91.4 89.2 91.1 88.9Q90.7 88.5 90.2 88.5L90.2 88.5Q89.8 88.5 89.5 88.7Q89.2 88.9 89.0 89.2Q88.8 89.6 88.8 90.0L88.8 90.0L88.8 95ZM102.5 98.1L100.3 98.1L100.3 86.8L102.4 86.8L102.4 88.2L102.6 88.2Q102.7 87.9 103.0 87.5Q103.3 87.2 103.7 86.9Q104.2 86.7 104.9 86.7L104.9 86.7Q105.8 86.7 106.6 87.2Q107.3 87.6 107.8 88.6Q108.2 89.5 108.2 90.9L108.2 90.9Q108.2 92.3 107.8 93.2Q107.3 94.2 106.6 94.7Q105.8 95.1 104.9 95.1L104.9 95.1Q104.2 95.1 103.7 94.9Q103.3 94.7 103.0 94.4Q102.7 94.0 102.6 93.7L102.6 93.7L102.5 93.7L102.5 98.1ZM104.2 93.4L104.2 93.4Q104.8 93.4 105.2 93.1Q105.6 92.7 105.8 92.2Q106.0 91.6 106.0 90.9L106.0 90.9Q106.0 90.2 105.8 89.6Q105.6 89.1 105.2 88.8Q104.8 88.5 104.2 88.5L104.2 88.5Q103.6 88.5 103.2 88.8Q102.8 89.1 102.6 89.6Q102.4 90.2 102.4 90.9L102.4 90.9Q102.4 91.7 102.6 92.2Q102.9 92.8 103.2 93.1Q103.6 93.4 104.2 93.4ZM113.4 95.2L113.4 95.2Q112.2 95.2 111.3 94.6Q110.4 94.1 109.9 93.2Q109.4 92.2 109.4 90.9L109.4 90.9Q109.4 89.7 109.9 88.7Q110.4 87.8 111.3 87.2Q112.2 86.7 113.4 86.7L113.4 86.7Q114.6 86.7 115.5 87.2Q116.4 87.8 116.9 88.7Q117.4 89.7 117.4 90.9L117.4 90.9Q117.4 92.2 116.9 93.2Q116.4 94.1 115.5 94.6Q114.6 95.2 113.4 95.2ZM113.4 93.4L113.4 93.4Q114.0 93.4 114.4 93.1Q114.8 92.8 115.0 92.2Q115.2 91.6 115.2 90.9L115.2 90.9Q115.2 90.2 115.0 89.6Q114.8 89.1 114.4 88.8Q114.0 88.4 113.4 88.4L113.4 88.4Q112.8 88.4 112.4 88.8Q112.0 89.1 111.8 89.6Q111.6 90.2 111.6 90.9L111.6 90.9Q111.6 91.6 111.8 92.2Q112.0 92.8 112.4 93.1Q112.8 93.4 113.4 93.4ZM121.1 90.3L121.1 90.3L121.1 95L118.9 95L118.9 86.8L121.0 86.8L121.0 88.5Q121.4 87.7 121.9 87.3L121.9 87.3Q122.6 86.7 123.6 86.7L123.6 86.7Q124.4 86.7 125.1 87.1Q125.7 87.4 126.1 88.1Q126.4 88.8 126.4 89.8L126.4 89.8L126.4 95L124.2 95L124.2 90.2Q124.2 89.4 123.8 89.0Q123.4 88.5 122.7 88.5L122.7 88.5Q122.3 88.5 121.9 88.7Q121.5 89.0 121.3 89.3Q121.1 89.7 121.1 90.3ZM132.0 95.2L132.0 95.2Q130.7 95.2 129.8 94.6Q128.9 94.1 128.4 93.2Q127.9 92.2 127.9 90.9L127.9 90.9Q127.9 89.7 128.4 88.7Q128.9 87.8 129.8 87.2Q130.7 86.7 131.9 86.7L131.9 86.7Q132.7 86.7 133.4 87.0Q134.1 87.2 134.6 87.7Q135.1 88.3 135.4 89.0Q135.7 89.8 135.7 90.9L135.7 90.9L135.7 91.5L130.1 91.5Q130.1 92.1 130.4 92.5L130.4 92.5Q130.6 93.0 131.0 93.3Q131.4 93.5 132.0 93.5L132.0 93.5Q132.4 93.5 132.7 93.4Q133.0 93.3 133.3 93.1Q133.5 92.9 133.6 92.5L133.6 92.5L135.6 92.9Q135.4 93.6 134.9 94.1Q134.4 94.6 133.7 94.9Q132.9 95.2 132.0 95.2ZM130.1 90.1L130.1 90.1L133.6 90.1Q133.6 89.7 133.4 89.4L133.4 89.4Q133.2 88.9 132.8 88.6Q132.5 88.4 131.9 88.4L131.9 88.4Q131.3 88.4 130.9 88.6Q130.5 88.9 130.3 89.3L130.3 89.3Q130.2 89.7 130.1 90.1ZM139.4 90.3L139.4 90.3L139.4 95L137.2 95L137.2 86.8L139.3 86.8L139.3 88.5Q139.6 87.7 140.2 87.3L140.2 87.3Q140.8 86.7 141.9 86.7L141.9 86.7Q142.7 86.7 143.4 87.1Q144.0 87.4 144.3 88.1Q144.7 88.8 144.7 89.8L144.7 89.8L144.7 95L142.5 95L142.5 90.2Q142.5 89.4 142.1 89.0Q141.7 88.5 141.0 88.5L141.0 88.5Q140.5 88.5 140.2 88.7Q139.8 89.0 139.6 89.3Q139.4 89.7 139.4 90.3ZM149.1 86.8L150.6 86.8L150.6 88.5L149.1 88.5L149.1 92.6Q149.1 93.0 149.3 93.2Q149.4 93.4 149.8 93.4L149.8 93.4Q150.0 93.4 150.2 93.3Q150.4 93.3 150.5 93.3L150.5 93.3L150.8 94.9Q150.5 95.0 150.1 95.1Q149.8 95.1 149.4 95.1L149.4 95.1Q148.2 95.1 147.5 94.5Q146.9 93.9 146.9 92.8L146.9 92.8L146.9 88.5L145.8 88.5L145.8 86.8L146.9 86.8L146.9 84.9L149.1 84.9L149.1 86.8ZM155.3 95.2L155.3 95.2Q154.3 95.2 153.5 94.9Q152.8 94.6 152.3 94.1Q151.8 93.5 151.7 92.8L151.7 92.8L153.7 92.4Q153.9 93.0 154.3 93.3Q154.7 93.5 155.4 93.5L155.4 93.5Q156.0 93.5 156.4 93.3Q156.7 93.1 156.7 92.7L156.7 92.7Q156.7 92.4 156.5 92.2Q156.2 92.0 155.7 91.9L155.7 91.9L154.3 91.6Q153.1 91.3 152.5 90.7Q151.9 90.2 151.9 89.3L151.9 89.3Q151.9 88.5 152.3 87.9Q152.8 87.3 153.5 87.0Q154.3 86.7 155.3 86.7L155.3 86.7Q156.3 86.7 157.0 87.0Q157.7 87.2 158.2 87.7Q158.6 88.2 158.8 88.9L158.8 88.9L156.8 89.2Q156.7 88.8 156.3 88.6Q156.0 88.3 155.4 88.3L155.4 88.3Q154.8 88.3 154.5 88.5Q154.1 88.7 154.1 89.1L154.1 89.1Q154.1 89.4 154.3 89.6Q154.6 89.9 155.1 90.0L155.1 90.0L156.6 90.3Q157.8 90.5 158.4 91.0Q159.0 91.6 159.0 92.5L159.0 92.5Q159.0 93.3 158.5 93.9Q158.0 94.5 157.2 94.8Q156.4 95.2 155.3 95.2Z "/></g><mask id="satori_om-id-0-2"><rect x="20" y="102" width="219" height="15" fill="#fff"/></mask><g  ><path fill="#8888aa" d="M24.0 114L22.7 114L20.3 105.3L21.4 105.3L22.8 110.6Q22.9 111.1 23.0 111.5Q23.1 111.9 23.2 112.4L23.2 112.4Q23.3 112.7 23.3 113.0L23.3 113.0Q23.4 112.7 23.5 112.4L23.5 112.4Q23.5 111.9 23.7 111.5Q23.8 111.1 23.9 110.6L23.9 110.6L25.3 105.3L26.5 105.3L27.9 110.6Q28.1 111.1 28.2 111.5Q28.3 111.9 28.4 112.4L28.4 112.4Q28.4 112.7 28.5 112.9L28.5 112.9Q28.5 112.7 28.6 112.4L28.6 112.4Q28.7 111.9 28.8 111.5Q28.9 111.1 29.0 110.6L29.0 110.6L30.4 105.3L31.5 105.3L29.1 114L27.8 114L26.3 108.5Q26.2 107.9 26.1 107.3L26.1 107.3Q26.0 106.9 25.9 106.5L25.9 106.5Q25.8 106.9 25.8 107.2L25.8 107.2Q25.6 107.8 25.5 108.5L25.5 108.5L24.0 114ZM33.8 114L32.8 114L32.8 107.4L33.8 107.4L33.8 108.5L33.8 108.5Q34.0 108.0 34.5 107.7Q35.0 107.4 35.5 107.4L35.5 107.4Q35.7 107.4 35.8 107.4Q36.0 107.4 36.1 107.4L36.1 107.4L36.1 108.4Q36.0 108.4 35.8 108.4Q35.7 108.4 35.4 108.4L35.4 108.4Q35.0 108.4 34.6 108.6Q34.2 108.8 34.0 109.1Q33.8 109.5 33.8 109.9L33.8 109.9L33.8 114ZM38.3 114L37.3 114L37.3 107.4L38.3 107.4L38.3 114ZM37.8 106.4L37.8 106.4Q37.5 106.4 37.3 106.2Q37.1 106.0 37.1 105.7L37.1 105.7Q37.1 105.4 37.3 105.2Q37.5 105.0 37.8 105.0L37.8 105.0Q38.1 105.0 38.3 105.2Q38.5 105.4 38.5 105.7L38.5 105.7Q38.5 106.0 38.3 106.2Q38.1 106.4 37.8 106.4ZM41.4 107.4L42.8 107.4L42.8 108.4L41.4 108.4L41.4 112.3Q41.4 112.7 41.6 112.9Q41.8 113.1 42.2 113.1L42.2 113.1Q42.3 113.1 42.4 113.1Q42.6 113.1 42.7 113.1L42.7 113.1L42.9 114.0Q42.8 114.0 42.6 114.1Q42.4 114.1 42.1 114.1L42.1 114.1Q41.3 114.1 40.8 113.6Q40.3 113.2 40.3 112.4L40.3 112.4L40.3 108.4L39.4 108.4L39.4 107.4L40.3 107.4L40.3 105.9L41.4 105.9L41.4 107.4ZM46.9 114.1L46.9 114.1Q45.9 114.1 45.2 113.7Q44.5 113.3 44.2 112.5Q43.8 111.8 43.8 110.8Q43.8 109.8 44.1 109.0Q44.5 108.2 45.2 107.8Q45.8 107.4 46.7 107.4L46.7 107.4Q47.3 107.4 47.8 107.5Q48.3 107.7 48.7 108.1Q49.1 108.5 49.3 109.1Q49.6 109.7 49.6 110.6L49.6 110.6L49.6 111.1L44.8 111.1Q44.9 111.7 45.1 112.2L45.1 112.2Q45.4 112.7 45.8 112.9Q46.3 113.2 46.9 113.2L46.9 113.2Q47.2 113.2 47.6 113.1Q47.9 113.0 48.1 112.8Q48.3 112.5 48.5 112.2L48.5 112.2L49.5 112.5Q49.3 113.0 49.0 113.3Q48.6 113.7 48.1 113.9Q47.5 114.1 46.9 114.1ZM44.9 110.2L44.9 110.2L48.5 110.2Q48.5 109.7 48.3 109.4L48.3 109.4Q48.1 108.9 47.7 108.6Q47.3 108.3 46.7 108.3Q46.1 108.3 45.7 108.6Q45.3 108.9 45.1 109.3L45.1 109.3Q44.9 109.7 44.9 110.2Z M55.5 114L54.5 114L54.5 107.4L55.5 107.4L55.5 108.5L55.6 108.5Q55.7 108.0 56.2 107.7Q56.7 107.4 57.3 107.4L57.3 107.4Q57.4 107.4 57.5 107.4Q57.7 107.4 57.8 107.4L57.8 107.4L57.8 108.4Q57.7 108.4 57.6 108.4Q57.4 108.4 57.2 108.4L57.2 108.4Q56.7 108.4 56.3 108.6Q55.9 108.8 55.7 109.1Q55.5 109.5 55.5 109.9L55.5 109.9L55.5 114ZM61.7 114.1L61.7 114.1Q60.8 114.1 60.1 113.7Q59.4 113.3 59.0 112.5Q58.7 111.8 58.7 110.8Q58.7 109.8 59.0 109.0Q59.4 108.2 60.1 107.8Q60.7 107.4 61.6 107.4L61.6 107.4Q62.1 107.4 62.6 107.5Q63.2 107.7 63.6 108.1Q64.0 108.5 64.2 109.1Q64.5 109.7 64.5 110.6L64.5 110.6L64.5 111.1L59.7 111.1Q59.8 111.7 60.0 112.2L60.0 112.2Q60.2 112.7 60.7 112.9Q61.2 113.2 61.7 113.2L61.7 113.2Q62.1 113.2 62.5 113.1Q62.8 113.0 63.0 112.8Q63.2 112.5 63.3 112.2L63.3 112.2L64.4 112.5Q64.2 113.0 63.9 113.3Q63.5 113.7 63.0 113.9Q62.4 114.1 61.7 114.1ZM59.7 110.2L59.7 110.2L63.4 110.2Q63.4 109.7 63.2 109.4L63.2 109.4Q63.0 108.9 62.6 108.6Q62.2 108.3 61.6 108.3Q61.0 108.3 60.6 108.6Q60.2 108.9 60.0 109.3L60.0 109.3Q59.8 109.7 59.7 110.2ZM67.8 114.2L67.8 114.2Q67.2 114.2 66.7 113.9Q66.2 113.7 65.9 113.2Q65.6 112.8 65.6 112.1L65.6 112.1Q65.6 111.6 65.8 111.2Q66.0 110.9 66.4 110.7Q66.8 110.5 67.2 110.4Q67.7 110.3 68.1 110.2L68.1 110.2Q68.7 110.1 69.1 110.1Q69.5 110.1 69.6 110.0Q69.8 109.9 69.8 109.6L69.8 109.6L69.8 109.6Q69.8 109.2 69.7 108.9Q69.5 108.6 69.2 108.4Q68.9 108.3 68.4 108.3L68.4 108.3Q68.0 108.3 67.6 108.4Q67.3 108.6 67.1 108.8Q66.9 109.0 66.8 109.3L66.8 109.3L65.8 108.9Q66.0 108.3 66.5 108.0Q66.9 107.6 67.4 107.5Q67.9 107.4 68.4 107.4L68.4 107.4Q68.7 107.4 69.2 107.4Q69.6 107.5 70.0 107.8Q70.4 108.0 70.6 108.5Q70.9 108.9 70.9 109.7L70.9 109.7L70.9 114L69.8 114L69.8 113.1L69.8 113.1Q69.7 113.3 69.4 113.6Q69.2 113.8 68.8 114.0Q68.4 114.2 67.8 114.2ZM68 113.2L68 113.2Q68.6 113.2 69.0 113.0Q69.4 112.8 69.6 112.4Q69.8 112.0 69.8 111.6L69.8 111.6L69.8 110.7Q69.8 110.8 69.5 110.9Q69.3 110.9 69.0 111.0Q68.8 111.0 68.5 111.0Q68.2 111.1 68.1 111.1L68.1 111.1Q67.7 111.1 67.4 111.3Q67.0 111.4 66.8 111.6Q66.6 111.8 66.6 112.2L66.6 112.2Q66.6 112.5 66.8 112.8Q67.0 113.0 67.3 113.1Q67.6 113.2 68 113.2ZM72.7 105.3L73.8 105.3L73.8 114L72.7 114L72.7 105.3Z M81.3 114.1L81.3 114.1Q80.1 114.1 79.4 113.4Q78.7 112.8 78.7 111.5L78.7 111.5L78.7 111.0L79.8 111.0L79.8 111.5Q79.8 112.3 80.2 112.7Q80.6 113.1 81.3 113.1L81.3 113.1Q81.9 113.1 82.3 112.7Q82.8 112.3 82.8 111.5L82.8 111.5L82.8 105.3L83.9 105.3L83.9 111.5Q83.9 112.8 83.1 113.4Q82.4 114.1 81.3 114.1ZM88.8 114.2L88.8 114.2Q87.8 114.2 87.1 113.8Q86.4 113.5 86.1 113.0Q85.7 112.4 85.6 111.7L85.6 111.7L86.8 111.7Q86.8 112.2 87.1 112.5Q87.4 112.8 87.8 113.0Q88.3 113.2 88.8 113.2L88.8 113.2Q89.4 113.2 89.8 113.0Q90.3 112.8 90.6 112.4Q90.9 112.1 90.9 111.6L90.9 111.6Q90.9 111.2 90.6 110.9Q90.4 110.7 90.0 110.5Q89.6 110.3 89.1 110.2L89.1 110.2L88.1 109.9Q87.0 109.6 86.4 109.0Q85.9 108.5 85.9 107.6L85.9 107.6Q85.9 106.9 86.3 106.3Q86.7 105.8 87.3 105.5Q88.0 105.2 88.9 105.2L88.9 105.2Q89.7 105.2 90.4 105.5Q91.0 105.8 91.4 106.3Q91.8 106.8 91.8 107.5L91.8 107.5L90.7 107.5Q90.7 106.8 90.1 106.5Q89.6 106.1 88.8 106.1L88.8 106.1Q88.3 106.1 87.8 106.3Q87.4 106.5 87.2 106.8Q86.9 107.1 86.9 107.6L86.9 107.6Q86.9 108.0 87.2 108.3Q87.5 108.6 87.9 108.7Q88.3 108.9 88.6 109.0L88.6 109.0L89.5 109.2Q89.8 109.3 90.3 109.5Q90.7 109.6 91.1 109.9Q91.4 110.2 91.7 110.6Q91.9 111.0 91.9 111.6L91.9 111.6Q91.9 112.3 91.6 112.9Q91.2 113.5 90.5 113.8Q89.8 114.2 88.8 114.2ZM94.2 114L93.0 114L96.1 109.5L93.2 105.3L94.4 105.3L95.7 107.1Q96.0 107.5 96.2 107.8Q96.3 108.1 96.5 108.4L96.5 108.4Q96.6 108.6 96.7 108.8L96.7 108.8Q96.9 108.6 97.0 108.4L97.0 108.4Q97.1 108.1 97.3 107.8Q97.5 107.5 97.8 107.1L97.8 107.1L99.1 105.3L100.3 105.3L97.4 109.5L100.5 114L99.2 114L97.7 111.8Q97.4 111.4 97.3 111.2Q97.1 110.9 96.9 110.6L96.9 110.6Q96.8 110.5 96.7 110.3L96.7 110.3Q96.6 110.5 96.5 110.6L96.5 110.6Q96.4 110.9 96.2 111.1Q96.0 111.4 95.8 111.8L95.8 111.8L94.2 114Z M107.6 114L106.6 114L104.6 107.4L105.7 107.4L106.5 110.3Q106.7 110.9 106.9 111.6L106.9 111.6Q107.0 112.2 107.1 112.9L107.1 112.9Q107.3 112.2 107.4 111.7L107.4 111.7Q107.6 110.9 107.8 110.3L107.8 110.3L108.5 107.4L109.7 107.4L110.4 110.3Q110.6 110.9 110.8 111.7L110.8 111.7Q110.9 112.2 111.1 112.9L111.1 112.9Q111.2 112.2 111.3 111.7L111.3 111.7Q111.5 110.9 111.7 110.3L111.7 110.3L112.5 107.4L113.6 107.4L111.6 114L110.6 114L109.7 111.0Q109.6 110.6 109.5 110.1Q109.3 109.6 109.2 109.2L109.2 109.2Q109.2 108.9 109.1 108.6L109.1 108.6Q109.0 108.9 109.0 109.1L109.0 109.1Q108.9 109.6 108.7 110.1Q108.6 110.6 108.5 111.0L108.5 111.0L107.6 114ZM116.0 114L114.9 114L114.9 107.4L116.0 107.4L116.0 114ZM115.5 106.4L115.5 106.4Q115.2 106.4 115.0 106.2Q114.7 106.0 114.7 105.7L114.7 105.7Q114.7 105.4 115.0 105.2Q115.2 105.0 115.5 105.0L115.5 105.0Q115.8 105.0 116.0 105.2Q116.2 105.4 116.2 105.7L116.2 105.7Q116.2 106.0 116.0 106.2Q115.8 106.4 115.5 106.4ZM119.1 107.4L120.4 107.4L120.4 108.4L119.1 108.4L119.1 112.3Q119.1 112.7 119.2 112.9Q119.4 113.1 119.8 113.1L119.8 113.1Q119.9 113.1 120.1 113.1Q120.3 113.1 120.4 113.1L120.4 113.1L120.6 114.0Q120.4 114.0 120.2 114.1Q120.0 114.1 119.8 114.1L119.8 114.1Q119.0 114.1 118.5 113.6Q118.0 113.2 118.0 112.4L118.0 112.4L118.0 108.4L117.0 108.4L117.0 107.4L118.0 107.4L118.0 105.9L119.1 105.9L119.1 107.4ZM122.8 110.1L122.8 110.1L122.8 114L121.8 114L121.8 105.3L122.8 105.3L122.8 108.6Q123.1 108.0 123.5 107.7L123.5 107.7Q124.0 107.4 124.8 107.4L124.8 107.4Q125.5 107.4 126.0 107.6Q126.5 107.9 126.7 108.5Q127.0 109.0 127.0 109.8L127.0 109.8L127.0 114L125.9 114L125.9 109.9Q125.9 109.2 125.6 108.7Q125.2 108.3 124.5 108.3L124.5 108.3Q124.0 108.3 123.6 108.5Q123.3 108.7 123.0 109.1Q122.8 109.5 122.8 110.1Z M134.5 114.1L134.5 114.1Q133.8 114.1 133.3 113.9Q132.7 113.7 132.4 113.4Q132.1 113.0 131.9 112.4L131.9 112.4L132.9 112.2Q133.1 112.7 133.5 113.0Q133.9 113.2 134.5 113.2L134.5 113.2Q135.1 113.2 135.5 112.9Q136.0 112.6 136.0 112.2L136.0 112.2Q136.0 111.9 135.7 111.7Q135.5 111.4 135.0 111.3L135.0 111.3L133.9 111.1Q133.0 110.9 132.6 110.4Q132.1 110.0 132.1 109.3L132.1 109.3Q132.1 108.7 132.5 108.3Q132.8 107.9 133.3 107.6Q133.9 107.4 134.6 107.4L134.6 107.4Q135.2 107.4 135.7 107.6Q136.2 107.8 136.5 108.1Q136.8 108.5 136.9 108.9L136.9 108.9L136.0 109.2Q135.8 108.8 135.5 108.6Q135.2 108.3 134.6 108.3L134.6 108.3Q134.0 108.3 133.6 108.5Q133.2 108.8 133.2 109.2L133.2 109.2Q133.2 109.6 133.5 109.8Q133.7 110.0 134.3 110.2L134.3 110.2L135.3 110.4Q136.2 110.6 136.6 111.0Q137.0 111.5 137.0 112.2L137.0 112.2Q137.0 112.7 136.7 113.2Q136.4 113.6 135.8 113.9Q135.2 114.1 134.5 114.1ZM139.8 107.4L141.1 107.4L141.1 108.4L139.8 108.4L139.8 112.3Q139.8 112.7 140.0 112.9Q140.2 113.1 140.6 113.1L140.6 113.1Q140.7 113.1 140.8 113.1Q141.0 113.1 141.1 113.1L141.1 113.1L141.3 114.0Q141.2 114.0 141.0 114.1Q140.8 114.1 140.5 114.1L140.5 114.1Q139.7 114.1 139.2 113.6Q138.7 113.2 138.7 112.4L138.7 112.4L138.7 108.4L137.8 108.4L137.8 107.4L138.7 107.4L138.7 105.9L139.8 105.9L139.8 107.4ZM142.4 116.4L142.4 116.4L142.7 115.5L142.8 115.5Q143.1 115.6 143.4 115.5Q143.6 115.5 143.8 115.3Q144.0 115.0 144.2 114.6L144.2 114.6L144.4 114.0L141.9 107.4L143.0 107.4L144.4 111.3Q144.7 111.9 144.8 112.5L144.8 112.5Q144.9 112.8 144.9 113.0L144.9 113.0Q145.0 112.8 145.1 112.5L145.1 112.5Q145.2 111.9 145.4 111.3L145.4 111.3L146.8 107.4L148.0 107.4L145.1 115.0Q144.9 115.5 144.6 115.8Q144.4 116.2 144.0 116.3Q143.6 116.5 143.2 116.5L143.2 116.5Q142.9 116.5 142.7 116.5Q142.5 116.4 142.4 116.4ZM149.2 105.3L150.3 105.3L150.3 114L149.2 114L149.2 105.3ZM154.9 114.1L154.9 114.1Q154.0 114.1 153.3 113.7Q152.6 113.3 152.2 112.5Q151.8 111.8 151.8 110.8Q151.8 109.8 152.2 109.0Q152.6 108.2 153.2 107.8Q153.9 107.4 154.8 107.4L154.8 107.4Q155.3 107.4 155.8 107.5Q156.3 107.7 156.7 108.1Q157.1 108.5 157.4 109.1Q157.6 109.7 157.6 110.6L157.6 110.6L157.6 111.1L152.9 111.1Q152.9 111.7 153.1 112.2L153.1 112.2Q153.4 112.7 153.9 112.9Q154.3 113.2 154.9 113.2L154.9 113.2Q155.3 113.2 155.6 113.1Q155.9 113.0 156.2 112.8Q156.4 112.5 156.5 112.2L156.5 112.2L157.5 112.5Q157.4 113.0 157.0 113.3Q156.6 113.7 156.1 113.9Q155.6 114.1 154.9 114.1ZM152.9 110.2L152.9 110.2L156.6 110.2Q156.5 109.7 156.4 109.4L156.4 109.4Q156.2 108.9 155.8 108.6Q155.4 108.3 154.8 108.3Q154.2 108.3 153.8 108.6Q153.3 108.9 153.1 109.3L153.1 109.3Q152.9 109.7 152.9 110.2Z M165.2 114.1L165.2 114.1Q164.3 114.1 163.6 113.7Q163.0 113.3 162.6 112.5Q162.2 111.8 162.2 110.8L162.2 110.8Q162.2 109.7 162.6 109.0Q163.0 108.2 163.6 107.8Q164.3 107.4 165.2 107.4L165.2 107.4Q166.1 107.4 166.8 107.8Q167.4 108.2 167.8 109.0Q168.2 109.7 168.2 110.8L168.2 110.8Q168.2 111.8 167.8 112.5Q167.4 113.3 166.8 113.7Q166.1 114.1 165.2 114.1ZM165.2 113.2L165.2 113.2Q165.8 113.2 166.3 112.9Q166.7 112.5 166.9 112.0Q167.1 111.4 167.1 110.8L167.1 110.8Q167.1 110.1 166.9 109.6Q166.7 109.0 166.3 108.7Q165.8 108.3 165.2 108.3L165.2 108.3Q164.5 108.3 164.1 108.7Q163.7 109.0 163.5 109.6Q163.3 110.1 163.3 110.8L163.3 110.8Q163.3 111.4 163.5 112.0Q163.7 112.5 164.1 112.9Q164.5 113.2 165.2 113.2ZM172.8 114.1L172.8 114.1Q172.1 114.1 171.8 113.9Q171.4 113.7 171.2 113.4Q171.0 113.2 170.8 113.0L170.8 113.0L170.7 113.0L170.7 114L169.7 114L169.7 105.3L170.8 105.3L170.8 108.5L170.8 108.5Q171.0 108.3 171.2 108.1Q171.4 107.8 171.7 107.6Q172.1 107.4 172.7 107.4L172.7 107.4Q173.6 107.4 174.2 107.8Q174.8 108.2 175.2 108.9Q175.5 109.7 175.5 110.7L175.5 110.7Q175.5 111.8 175.2 112.5Q174.8 113.3 174.2 113.7Q173.6 114.1 172.8 114.1ZM172.6 113.2L172.6 113.2Q173.2 113.2 173.6 112.9Q174.0 112.5 174.2 112.0Q174.5 111.4 174.5 110.7L174.5 110.7Q174.5 110.1 174.2 109.5Q174.0 109.0 173.6 108.6Q173.2 108.3 172.6 108.3L172.6 108.3Q172.0 108.3 171.6 108.6Q171.2 108.9 171.0 109.5Q170.8 110.0 170.8 110.7L170.8 110.7Q170.8 111.5 171.0 112.0Q171.2 112.6 171.6 112.9Q172.0 113.2 172.6 113.2ZM177.1 114.5L177.1 107.4L178.1 107.4L178.1 114.5Q178.1 115.1 177.9 115.5Q177.7 116.0 177.3 116.2Q176.8 116.4 176.2 116.4L176.2 116.4L176.0 116.4L176.0 115.5L176.2 115.5Q176.6 115.5 176.8 115.2Q177.1 115.0 177.1 114.5L177.1 114.5ZM177.6 106.4L177.6 106.4Q177.3 106.4 177.1 106.2Q176.9 106.0 176.9 105.7L176.9 105.7Q176.9 105.4 177.1 105.2Q177.3 105.0 177.6 105.0L177.6 105.0Q177.9 105.0 178.1 105.2Q178.3 105.4 178.3 105.7L178.3 105.7Q178.3 106.0 178.1 106.2Q177.9 106.4 177.6 106.4ZM182.7 114.1L182.7 114.1Q181.8 114.1 181.1 113.7Q180.4 113.3 180.0 112.5Q179.7 111.8 179.7 110.8Q179.7 109.8 180.0 109.0Q180.4 108.2 181.0 107.8Q181.7 107.4 182.6 107.4L182.6 107.4Q183.1 107.4 183.6 107.5Q184.1 107.7 184.5 108.1Q185.0 108.5 185.2 109.1Q185.5 109.7 185.5 110.6L185.5 110.6L185.5 111.1L180.7 111.1Q180.7 111.7 181.0 112.2L181.0 112.2Q181.2 112.7 181.7 112.9Q182.1 113.2 182.7 113.2L182.7 113.2Q183.1 113.2 183.4 113.1Q183.7 113.0 184.0 112.8Q184.2 112.5 184.3 112.2L184.3 112.2L185.3 112.5Q185.2 113.0 184.8 113.3Q184.5 113.7 183.9 113.9Q183.4 114.1 182.7 114.1ZM180.7 110.2L180.7 110.2L184.4 110.2Q184.3 109.7 184.2 109.4L184.2 109.4Q184.0 108.9 183.6 108.6Q183.2 108.3 182.6 108.3Q182.0 108.3 181.6 108.6Q181.2 108.9 180.9 109.3L180.9 109.3Q180.8 109.7 180.7 110.2ZM189.6 114.1L189.6 114.1Q188.7 114.1 188.1 113.7Q187.4 113.3 187.0 112.5Q186.6 111.8 186.6 110.8L186.6 110.8Q186.6 109.7 187.0 109.0Q187.4 108.2 188.1 107.8Q188.7 107.4 189.6 107.4L189.6 107.4Q190.1 107.4 190.5 107.5Q190.9 107.6 191.3 107.8Q191.6 108.1 191.9 108.4Q192.1 108.8 192.3 109.2L192.3 109.2L191.3 109.5Q191.2 109.2 191.1 109.0Q190.9 108.8 190.7 108.6Q190.5 108.5 190.2 108.4Q190.0 108.3 189.6 108.3L189.6 108.3Q189.0 108.3 188.6 108.7Q188.1 109.0 187.9 109.6Q187.7 110.1 187.7 110.8L187.7 110.8Q187.7 111.4 187.9 112.0Q188.1 112.5 188.6 112.9Q189.0 113.2 189.6 113.2L189.6 113.2Q190.0 113.2 190.2 113.1Q190.5 113.0 190.7 112.9Q190.9 112.7 191.1 112.5Q191.2 112.3 191.3 112.0L191.3 112.0L192.3 112.3Q192.2 112.7 191.9 113.1Q191.7 113.4 191.3 113.6Q191.0 113.9 190.5 114.0Q190.1 114.1 189.6 114.1ZM195.0 107.4L196.4 107.4L196.4 108.4L195.0 108.4L195.0 112.3Q195.0 112.7 195.2 112.9Q195.4 113.1 195.8 113.1L195.8 113.1Q195.9 113.1 196.1 113.1Q196.2 113.1 196.4 113.1L196.4 113.1L196.6 114.0Q196.4 114.0 196.2 114.1Q196.0 114.1 195.8 114.1L195.8 114.1Q194.9 114.1 194.5 113.6Q194.0 113.2 194.0 112.4L194.0 112.4L194.0 108.4L193.0 108.4L193.0 107.4L194.0 107.4L194.0 105.9L195.0 105.9L195.0 107.4ZM200.0 114.1L200.0 114.1Q199.3 114.1 198.8 113.9Q198.2 113.7 197.9 113.4Q197.6 113.0 197.5 112.4L197.5 112.4L198.5 112.2Q198.6 112.7 199.0 113.0Q199.4 113.2 200.0 113.2L200.0 113.2Q200.6 113.2 201.1 112.9Q201.5 112.6 201.5 112.2L201.5 112.2Q201.5 111.9 201.2 111.7Q201.0 111.4 200.5 111.3L200.5 111.3L199.4 111.1Q198.5 110.9 198.1 110.4Q197.7 110.0 197.7 109.3L197.7 109.3Q197.7 108.7 198.0 108.3Q198.3 107.9 198.8 107.6Q199.4 107.4 200.1 107.4L200.1 107.4Q200.8 107.4 201.2 107.6Q201.7 107.8 202.0 108.1Q202.3 108.5 202.4 108.9L202.4 108.9L201.5 109.2Q201.3 108.8 201.0 108.6Q200.7 108.3 200.1 108.3L200.1 108.3Q199.5 108.3 199.1 108.5Q198.7 108.8 198.7 109.2L198.7 109.2Q198.7 109.6 199.0 109.8Q199.2 110.0 199.8 110.2L199.8 110.2L200.8 110.4Q201.7 110.6 202.1 111.0Q202.6 111.5 202.6 112.2L202.6 112.2Q202.6 112.7 202.2 113.2Q201.9 113.6 201.3 113.9Q200.7 114.1 200.0 114.1Z "/></g><defs><pattern id="satori_pattern_id-1_0" x="0" y="0" width="1" height="1" patternUnits="objectBoundingBox"><linearGradient id="satori_biid-1_0" x1="0" y1="0" x2="0" y2="1" spreadMethod="pad"><stop offset="0%" stop-color="#1a2e1a"/><stop offset="100%" stop-color="#162e16"/></linearGradient><rect x="0" y="0" width="258" height="160" fill="url(#satori_biid-1_0)"/></pattern></defs><mask id="satori_om-id-1"><rect x="271" y="0" width="258" height="160" fill="#fff"/></mask><path x="271" y="0" width="258" height="160" fill="url(#satori_pattern_id-1_0)" d="M285,0 h230 a14,14 0 0 1 14,14 v132 a14,14 0 0 1 -14,14 h-230 a14,14 0 0 1 -14,-14 v-132 a14,14 0 0 1 14,-14"/><mask id="satori_om-id-1-0"><rect x="291" y="43" width="218" height="29" fill="#fff"/></mask><g  ><path fill="black" d="M298.7 66.3L298.7 66.3Q296.8 66.3 295.4 65.7Q294.0 65.1 293.3 64.0Q292.5 62.9 292.4 61.4L292.4 61.4L294.6 61.4Q294.7 62.4 295.3 63.1Q295.9 63.7 296.8 64.0Q297.7 64.3 298.7 64.3L298.7 64.3Q299.9 64.3 300.8 63.9Q301.8 63.5 302.3 62.8Q302.9 62.1 302.9 61.2L302.9 61.2Q302.9 60.4 302.4 59.8Q301.9 59.3 301.1 59.0Q300.4 58.6 299.4 58.4L299.4 58.4L297.3 57.8Q295.2 57.2 294.0 56.1Q292.9 54.9 292.9 53.2L292.9 53.2Q292.9 51.7 293.6 50.6Q294.4 49.5 295.8 48.9Q297.2 48.3 298.9 48.3L298.9 48.3Q300.6 48.3 301.9 48.9Q303.2 49.5 304.0 50.6Q304.8 51.6 304.8 52.9L304.8 52.9L302.6 52.9Q302.5 51.7 301.4 51.0Q300.3 50.3 298.8 50.3L298.8 50.3Q297.7 50.3 296.8 50.6Q296.0 51.0 295.5 51.7Q295.0 52.3 295.0 53.1L295.0 53.1Q295.0 54.0 295.6 54.6Q296.2 55.1 296.9 55.4Q297.7 55.8 298.3 55.9L298.3 55.9L300.1 56.4Q300.8 56.6 301.6 56.9Q302.5 57.3 303.3 57.8Q304.0 58.3 304.5 59.2Q305.0 60.0 305.0 61.2L305.0 61.2Q305.0 62.7 304.3 63.8Q303.6 65.0 302.1 65.6Q300.7 66.3 298.7 66.3ZM316.0 66L313.4 66L307.0 48.5L309.4 48.5L313.0 58.9Q313.4 59.8 313.8 61.3L313.8 61.3Q314.2 62.5 314.7 64.2L314.7 64.2Q315.2 62.4 315.6 61.2L315.6 61.2Q316.1 59.8 316.4 58.9L316.4 58.9L320.0 48.5L322.3 48.5L316.0 66ZM332.2 66.2L332.2 66.2Q329.9 66.2 328.1 65.1Q326.4 64.1 325.4 62.0Q324.4 60.0 324.4 57.3L324.4 57.3Q324.4 54.5 325.4 52.5Q326.4 50.5 328.1 49.4Q329.8 48.3 332.1 48.3L332.1 48.3Q333.4 48.3 334.6 48.7Q335.8 49.1 336.8 49.9Q337.7 50.6 338.4 51.7Q339 52.7 339.2 54.0L339.2 54.0L336.9 54.0Q336.7 53.2 336.2 52.5Q335.8 51.8 335.2 51.4Q334.5 50.9 333.8 50.6Q333 50.4 332.1 50.4L332.1 50.4Q330.5 50.4 329.3 51.2Q328.0 51.9 327.3 53.5Q326.6 55.0 326.6 57.3L326.6 57.3Q326.6 59.5 327.3 61.0Q328.0 62.6 329.3 63.4Q330.6 64.2 332.2 64.2L332.2 64.2Q333.7 64.2 334.8 63.5Q335.9 62.9 336.6 61.8L336.6 61.8Q337.2 60.7 337.2 59.2L337.2 59.2L332.7 59.2L332.7 57.2L339.4 57.2L339.4 59.1Q339.4 61.3 338.4 62.9Q337.5 64.5 335.9 65.4Q334.3 66.2 332.2 66.2Z "/></g><mask id="satori_om-id-1-1"><rect x="291" y="80" width="218" height="18" fill="#fff"/></mask><g  ><path fill="#e0ffe0" d="M294.2 95L292.0 95L292.0 84.1L296.2 84.1Q297.5 84.1 298.4 84.6Q299.2 85.0 299.7 85.9Q300.1 86.7 300.1 87.8L300.1 87.8Q300.1 88.9 299.7 89.7Q299.2 90.5 298.3 91.0Q297.5 91.4 296.2 91.4L296.2 91.4L294.2 91.4L294.2 95ZM294.2 85.9L294.2 89.6L295.8 89.6Q296.5 89.6 297.0 89.4Q297.4 89.2 297.6 88.7Q297.8 88.3 297.8 87.8Q297.8 87.2 297.6 86.8Q297.4 86.4 297.0 86.2Q296.5 85.9 295.8 85.9L295.8 85.9L294.2 85.9ZM303.9 95L301.7 95L301.7 86.8L303.9 86.8L303.9 95ZM302.8 85.7L302.8 85.7Q302.3 85.7 301.9 85.4Q301.6 85.1 301.6 84.6L301.6 84.6Q301.6 84.1 301.9 83.8Q302.3 83.5 302.8 83.5L302.8 83.5Q303.3 83.5 303.6 83.8Q304.0 84.1 304.0 84.6L304.0 84.6Q304.0 85.1 303.6 85.4Q303.3 85.7 302.8 85.7ZM307.4 95L305.1 95L307.7 90.8L305.3 86.8L307.6 86.8L308.4 88.1Q308.7 88.7 309.0 89.4L309.0 89.4Q309.1 89.5 309.2 89.7L309.2 89.7Q309.2 89.5 309.3 89.4L309.3 89.4Q309.6 88.7 310.0 88.1L310.0 88.1L310.7 86.8L313.1 86.8L310.5 90.8L313.2 95L310.8 95L309.9 93.5Q309.6 92.8 309.3 92.2L309.3 92.2Q309.2 92.0 309.1 91.9L309.1 91.9Q309.0 92.0 309.0 92.2L309.0 92.2Q308.7 92.8 308.3 93.5L308.3 93.5L307.4 95ZM318.1 95.2L318.1 95.2Q316.9 95.2 316.0 94.6Q315.1 94.1 314.6 93.2Q314.1 92.2 314.1 90.9L314.1 90.9Q314.1 89.7 314.6 88.7Q315.0 87.8 315.9 87.2Q316.8 86.7 318.0 86.7L318.0 86.7Q318.8 86.7 319.5 87.0Q320.2 87.2 320.7 87.7Q321.3 88.3 321.6 89.0Q321.9 89.8 321.9 90.9L321.9 90.9L321.9 91.5L316.3 91.5Q316.3 92.1 316.5 92.5L316.5 92.5Q316.7 93.0 317.2 93.3Q317.6 93.5 318.2 93.5L318.2 93.5Q318.5 93.5 318.9 93.4Q319.2 93.3 319.4 93.1Q319.6 92.9 319.7 92.5L319.7 92.5L321.7 92.9Q321.5 93.6 321.0 94.1Q320.6 94.6 319.8 94.9Q319.1 95.2 318.1 95.2ZM316.3 90.1L316.3 90.1L319.7 90.1Q319.7 89.7 319.6 89.4L319.6 89.4Q319.4 88.9 319.0 88.6Q318.6 88.4 318.0 88.4L318.0 88.4Q317.5 88.4 317.1 88.6Q316.7 88.9 316.5 89.3L316.5 89.3Q316.3 89.7 316.3 90.1ZM323.4 84.1L325.6 84.1L325.6 95L323.4 95L323.4 84.1ZM327.5 89.6L332.5 89.6L332.5 91.4L327.5 91.4L327.5 89.6ZM336.7 95L334.5 95L334.5 84.1L338.7 84.1Q340.0 84.1 340.9 84.6Q341.7 85.0 342.2 85.9Q342.7 86.7 342.7 87.8L342.7 87.8Q342.7 88.9 342.2 89.7Q341.7 90.5 340.8 91.0Q340.0 91.4 338.7 91.4L338.7 91.4L336.7 91.4L336.7 95ZM336.7 85.9L336.7 89.6L338.3 89.6Q339.0 89.6 339.5 89.4Q339.9 89.2 340.1 88.7Q340.3 88.3 340.3 87.8Q340.3 87.2 340.1 86.8Q339.9 86.4 339.5 86.2Q339.0 85.9 338.3 85.9L338.3 85.9L336.7 85.9ZM347.9 95.2L347.9 95.2Q346.6 95.2 345.7 94.6Q344.8 94.1 344.3 93.2Q343.8 92.2 343.8 90.9L343.8 90.9Q343.8 89.7 344.3 88.7Q344.8 87.8 345.7 87.2Q346.6 86.7 347.7 86.7L347.7 86.7Q348.6 86.7 349.2 87.0Q349.9 87.2 350.5 87.7Q351 88.3 351.3 89.0Q351.6 89.8 351.6 90.9L351.6 90.9L351.6 91.5L346.0 91.5Q346.0 92.1 346.2 92.5L346.2 92.5Q346.5 93.0 346.9 93.3Q347.3 93.5 347.9 93.5L347.9 93.5Q348.3 93.5 348.6 93.4Q348.9 93.3 349.1 93.1Q349.4 92.9 349.5 92.5L349.5 92.5L351.5 92.9Q351.3 93.6 350.8 94.1Q350.3 94.6 349.6 94.9Q348.8 95.2 347.9 95.2ZM346.0 90.1L346.0 90.1L349.5 90.1Q349.4 89.7 349.3 89.4L349.3 89.4Q349.1 88.9 348.7 88.6Q348.3 88.4 347.8 88.4L347.8 88.4Q347.2 88.4 346.8 88.6Q346.4 88.9 346.2 89.3L346.2 89.3Q346.0 89.7 346.0 90.1ZM355.3 95L353.1 95L353.1 86.8L355.2 86.8L355.2 88.2L355.3 88.2Q355.5 87.5 356.1 87.1Q356.6 86.7 357.3 86.7L357.3 86.7Q357.5 86.7 357.7 86.7Q357.8 86.7 358.0 86.8L358.0 86.8L358.0 88.7Q357.8 88.7 357.6 88.7Q357.3 88.6 357.0 88.6L357.0 88.6Q356.5 88.6 356.1 88.8Q355.7 89.1 355.5 89.4Q355.3 89.8 355.3 90.3L355.3 90.3L355.3 95ZM362.0 86.8L363.8 86.8L363.8 88.5L362.0 88.5L362.0 95L359.9 95L359.9 88.5L358.4 88.5L358.4 86.8L359.9 86.8L359.9 86.2Q359.9 85.3 360.2 84.7Q360.6 84.2 361.2 83.9Q361.8 83.6 362.5 83.6L362.5 83.6Q363.0 83.6 363.5 83.7Q363.9 83.7 364.1 83.8L364.1 83.8L363.7 85.5Q363.6 85.4 363.4 85.4Q363.2 85.3 363.0 85.3L363.0 85.3Q362.5 85.3 362.3 85.6Q362.0 85.8 362.0 86.3L362.0 86.3L362.0 86.8ZM368.9 95.2L368.9 95.2Q367.6 95.2 366.7 94.6Q365.8 94.1 365.3 93.2Q364.8 92.2 364.8 90.9L364.8 90.9Q364.8 89.7 365.3 88.7Q365.8 87.8 366.7 87.2Q367.6 86.7 368.8 86.7L368.8 86.7Q369.6 86.7 370.3 87.0Q371.0 87.2 371.5 87.7Q372.0 88.3 372.3 89.0Q372.6 89.8 372.6 90.9L372.6 90.9L372.6 91.5L367.0 91.5Q367.0 92.1 367.2 92.5L367.2 92.5Q367.5 93.0 367.9 93.3Q368.3 93.5 368.9 93.5L368.9 93.5Q369.3 93.5 369.6 93.4Q369.9 93.3 370.1 93.1Q370.4 92.9 370.5 92.5L370.5 92.5L372.5 92.9Q372.3 93.6 371.8 94.1Q371.3 94.6 370.6 94.9Q369.8 95.2 368.9 95.2ZM367.0 90.1L367.0 90.1L370.5 90.1Q370.4 89.7 370.3 89.4L370.3 89.4Q370.1 88.9 369.7 88.6Q369.3 88.4 368.8 88.4L368.8 88.4Q368.2 88.4 367.8 88.6Q367.4 88.9 367.2 89.3L367.2 89.3Q367.1 89.7 367.0 90.1ZM377.8 95.2L377.8 95.2Q376.5 95.2 375.6 94.6Q374.7 94.1 374.3 93.2Q373.8 92.2 373.8 90.9L373.8 90.9Q373.8 89.7 374.3 88.7Q374.7 87.8 375.6 87.2Q376.5 86.7 377.8 86.7L377.8 86.7Q378.5 86.7 379.1 86.9Q379.7 87.1 380.2 87.4Q380.7 87.8 381.0 88.3Q381.3 88.8 381.4 89.4L381.4 89.4L379.4 89.8Q379.3 89.5 379.2 89.2Q379.0 89.0 378.8 88.8Q378.6 88.6 378.4 88.5Q378.1 88.4 377.8 88.4L377.8 88.4Q377.2 88.4 376.8 88.8Q376.4 89.1 376.2 89.6Q376.0 90.2 376.0 90.9L376.0 90.9Q376.0 91.7 376.2 92.2Q376.4 92.8 376.8 93.1Q377.2 93.4 377.8 93.4L377.8 93.4Q378.1 93.4 378.4 93.3Q378.6 93.2 378.8 93.0Q379.0 92.9 379.2 92.6Q379.3 92.3 379.4 92.0L379.4 92.0L381.4 92.4Q381.3 93.0 381 93.5Q380.7 94.0 380.2 94.4Q379.7 94.8 379.1 95.0Q378.5 95.2 377.8 95.2ZM385.5 86.8L387.0 86.8L387.0 88.5L385.5 88.5L385.5 92.6Q385.5 93.0 385.6 93.2Q385.8 93.4 386.2 93.4L386.2 93.4Q386.3 93.4 386.6 93.3Q386.8 93.3 386.9 93.3L386.9 93.3L387.2 94.9Q386.9 95.0 386.5 95.1Q386.1 95.1 385.8 95.1L385.8 95.1Q384.6 95.1 383.9 94.5Q383.3 93.9 383.3 92.8L383.3 92.8L383.3 88.5L382.1 88.5L382.1 86.8L383.3 86.8L383.3 84.9L385.5 84.9L385.5 86.8Z M396.8 95.1L396.8 95.1Q395.4 95.1 394.2 94.5Q393.1 93.8 392.4 92.6Q391.7 91.3 391.7 89.6L391.7 89.6Q391.7 87.8 392.4 86.5Q393.1 85.3 394.2 84.6Q395.4 83.9 396.8 83.9L396.8 83.9Q398.3 83.9 399.4 84.6Q400.6 85.3 401.2 86.5Q401.9 87.8 401.9 89.6L401.9 89.6Q401.9 91.3 401.2 92.6Q400.6 93.8 399.4 94.5Q398.3 95.1 396.8 95.1ZM396.8 93.2L396.8 93.2Q397.7 93.2 398.3 92.7Q398.9 92.3 399.3 91.5Q399.6 90.7 399.6 89.6L399.6 89.6Q399.6 88.4 399.3 87.6Q398.9 86.8 398.3 86.3Q397.7 85.9 396.8 85.9L396.8 85.9Q396.0 85.9 395.3 86.3Q394.7 86.8 394.4 87.6Q394.0 88.4 394.0 89.6L394.0 89.6Q394.0 90.7 394.4 91.5Q394.7 92.3 395.3 92.7Q396.0 93.2 396.8 93.2ZM406.4 95.1L406.4 95.1Q405.5 95.1 404.9 94.7Q404.2 94.4 403.9 93.7Q403.5 93.0 403.5 92.0L403.5 92.0L403.5 86.8L405.7 86.8L405.7 91.6Q405.7 92.4 406.1 92.8Q406.5 93.3 407.2 93.3L407.2 93.3Q407.7 93.3 408.0 93.1Q408.4 92.9 408.6 92.5Q408.8 92.1 408.8 91.6L408.8 91.6L408.8 86.8L411.0 86.8L411.0 95L408.9 95L408.9 93.3Q408.6 94.1 408.0 94.5L408.0 94.5Q407.4 95.1 406.4 95.1ZM415.4 86.8L416.9 86.8L416.9 88.5L415.4 88.5L415.4 92.6Q415.4 93.0 415.6 93.2Q415.8 93.4 416.2 93.4L416.2 93.4Q416.3 93.4 416.5 93.3Q416.7 93.3 416.9 93.3L416.9 93.3L417.2 94.9Q416.8 95.0 416.4 95.1Q416.1 95.1 415.7 95.1L415.7 95.1Q414.5 95.1 413.9 94.5Q413.2 93.9 413.2 92.8L413.2 92.8L413.2 88.5L412.1 88.5L412.1 86.8L413.2 86.8L413.2 84.9L415.4 84.9L415.4 86.8ZM420.6 98.1L418.4 98.1L418.4 86.8L420.5 86.8L420.5 88.2L420.6 88.2Q420.8 87.9 421.1 87.5Q421.3 87.2 421.8 86.9Q422.3 86.7 423.0 86.7L423.0 86.7Q423.9 86.7 424.6 87.2Q425.4 87.6 425.8 88.6Q426.3 89.5 426.3 90.9L426.3 90.9Q426.3 92.3 425.8 93.2Q425.4 94.2 424.7 94.7Q423.9 95.1 423.0 95.1L423.0 95.1Q422.3 95.1 421.8 94.9Q421.4 94.7 421.1 94.4Q420.8 94.0 420.6 93.7L420.6 93.7L420.6 93.7L420.6 98.1ZM422.3 93.4L422.3 93.4Q422.9 93.4 423.2 93.1Q423.6 92.7 423.8 92.2Q424.0 91.6 424.0 90.9L424.0 90.9Q424.0 90.2 423.8 89.6Q423.6 89.1 423.2 88.8Q422.9 88.5 422.3 88.5L422.3 88.5Q421.7 88.5 421.3 88.8Q420.9 89.1 420.7 89.6Q420.5 90.2 420.5 90.9L420.5 90.9Q420.5 91.7 420.7 92.2Q420.9 92.8 421.3 93.1Q421.7 93.4 422.3 93.4ZM430.6 95.1L430.6 95.1Q429.8 95.1 429.2 94.7Q428.5 94.4 428.2 93.7Q427.8 93.0 427.8 92.0L427.8 92.0L427.8 86.8L430.0 86.8L430.0 91.6Q430.0 92.4 430.4 92.8Q430.8 93.3 431.5 93.3L431.5 93.3Q432.0 93.3 432.3 93.1Q432.7 92.9 432.9 92.5Q433.1 92.1 433.1 91.6L433.1 91.6L433.1 86.8L435.3 86.8L435.3 95L433.2 95L433.2 93.3Q432.9 94.1 432.3 94.5L432.3 94.5Q431.7 95.1 430.6 95.1ZM439.7 86.8L441.2 86.8L441.2 88.5L439.7 88.5L439.7 92.6Q439.7 93.0 439.9 93.2Q440.0 93.4 440.4 93.4L440.4 93.4Q440.6 93.4 440.8 93.3Q441.0 93.3 441.1 93.3L441.1 93.3L441.5 94.9Q441.1 95.0 440.7 95.1Q440.4 95.1 440.0 95.1L440.0 95.1Q438.8 95.1 438.2 94.5Q437.5 93.9 437.5 92.8L437.5 92.8L437.5 88.5L436.4 88.5L436.4 86.8L437.5 86.8L437.5 84.9L439.7 84.9L439.7 86.8Z "/></g><mask id="satori_om-id-1-2"><rect x="291" y="102" width="218" height="15" fill="#fff"/></mask><g  ><path fill="#88aa88" d="M295.6 114.1L295.6 114.1Q294.5 114.1 293.6 113.6Q292.7 113.0 292.2 112.0Q291.7 111.0 291.7 109.6L291.7 109.6Q291.7 108.3 292.2 107.2Q292.7 106.2 293.6 105.7Q294.4 105.2 295.6 105.2L295.6 105.2Q296.2 105.2 296.8 105.4Q297.4 105.6 297.9 105.9Q298.4 106.3 298.7 106.8Q299.0 107.4 299.1 108.0L299.1 108.0L298.0 108.0Q297.9 107.6 297.6 107.3Q297.4 106.9 297.1 106.7Q296.8 106.4 296.4 106.3Q296.0 106.2 295.6 106.2L295.6 106.2Q294.8 106.2 294.2 106.6Q293.5 107.0 293.2 107.7Q292.8 108.5 292.8 109.6L292.8 109.6Q292.8 110.8 293.2 111.5Q293.5 112.3 294.2 112.7Q294.8 113.1 295.6 113.1L295.6 113.1Q296.4 113.1 296.9 112.8Q297.5 112.5 297.8 111.9L297.8 111.9Q298.1 111.3 298.1 110.6L298.1 110.6L295.9 110.6L295.9 109.6L299.2 109.6L299.2 110.6Q299.2 111.7 298.7 112.4Q298.3 113.2 297.5 113.7Q296.7 114.1 295.6 114.1ZM301.9 114L300.9 114L300.9 107.4L301.9 107.4L301.9 108.5L302.0 108.5Q302.2 108.0 302.6 107.7Q303.1 107.4 303.7 107.4L303.7 107.4Q303.8 107.4 303.9 107.4Q304.1 107.4 304.2 107.4L304.2 107.4L304.2 108.4Q304.2 108.4 304.0 108.4Q303.8 108.4 303.6 108.4L303.6 108.4Q303.1 108.4 302.7 108.6Q302.4 108.8 302.1 109.1Q301.9 109.5 301.9 109.9L301.9 109.9L301.9 114ZM307.2 114.2L307.2 114.2Q306.6 114.2 306.1 113.9Q305.6 113.7 305.3 113.2Q305.0 112.8 305.0 112.1L305.0 112.1Q305.0 111.6 305.2 111.2Q305.4 110.9 305.8 110.7Q306.2 110.5 306.6 110.4Q307.1 110.3 307.5 110.2L307.5 110.2Q308.1 110.1 308.5 110.1Q308.9 110.1 309.0 110.0Q309.2 109.9 309.2 109.6L309.2 109.6L309.2 109.6Q309.2 109.2 309.1 108.9Q308.9 108.6 308.6 108.4Q308.3 108.3 307.9 108.3L307.9 108.3Q307.4 108.3 307.1 108.4Q306.7 108.6 306.5 108.8Q306.3 109.0 306.2 109.3L306.2 109.3L305.2 108.9Q305.4 108.3 305.9 108.0Q306.3 107.6 306.8 107.5Q307.3 107.4 307.8 107.4L307.8 107.4Q308.2 107.4 308.6 107.4Q309.0 107.5 309.4 107.8Q309.8 108.0 310.0 108.5Q310.3 108.9 310.3 109.7L310.3 109.7L310.3 114L309.2 114L309.2 113.1L309.2 113.1Q309.1 113.3 308.8 113.6Q308.6 113.8 308.2 114.0Q307.8 114.2 307.2 114.2ZM307.4 113.2L307.4 113.2Q308.0 113.2 308.4 113.0Q308.8 112.8 309.0 112.4Q309.2 112.0 309.2 111.6L309.2 111.6L309.2 110.7Q309.2 110.8 308.9 110.9Q308.7 110.9 308.5 111.0Q308.2 111.0 307.9 111.0Q307.7 111.1 307.5 111.1L307.5 111.1Q307.1 111.1 306.8 111.3Q306.5 111.4 306.3 111.6Q306.1 111.8 306.1 112.2L306.1 112.2Q306.1 112.5 306.2 112.8Q306.4 113.0 306.7 113.1Q307.0 113.2 307.4 113.2ZM314.6 114.1L314.6 114.1Q313.8 114.1 313.1 113.7Q312.5 113.3 312.2 112.5Q311.8 111.8 311.8 110.7L311.8 110.7Q311.8 109.7 312.2 108.9Q312.5 108.2 313.2 107.8Q313.8 107.4 314.6 107.4L314.6 107.4Q315.2 107.4 315.6 107.6Q316.0 107.8 316.2 108.1Q316.4 108.3 316.5 108.5L316.5 108.5L316.6 108.5L316.6 105.3L317.6 105.3L317.6 114L316.6 114L316.6 113.0L316.5 113.0Q316.4 113.2 316.2 113.4Q316.0 113.7 315.6 113.9Q315.2 114.1 314.6 114.1ZM314.7 113.2L314.7 113.2Q315.3 113.2 315.8 112.9Q316.2 112.6 316.4 112.0Q316.6 111.5 316.6 110.7L316.6 110.7Q316.6 110.0 316.4 109.5Q316.2 108.9 315.8 108.6Q315.4 108.3 314.7 108.3L314.7 108.3Q314.1 108.3 313.7 108.6Q313.3 109.0 313.1 109.5Q312.9 110.1 312.9 110.7L312.9 110.7Q312.9 111.4 313.1 112.0Q313.3 112.5 313.7 112.9Q314.1 113.2 314.7 113.2ZM320.5 114L319.5 114L319.5 107.4L320.5 107.4L320.5 114ZM320.0 106.4L320.0 106.4Q319.7 106.4 319.5 106.2Q319.3 106.0 319.3 105.7L319.3 105.7Q319.3 105.4 319.5 105.2Q319.7 105.0 320.0 105.0L320.0 105.0Q320.3 105.0 320.5 105.2Q320.8 105.4 320.8 105.7L320.8 105.7Q320.8 106.0 320.5 106.2Q320.3 106.4 320.0 106.4ZM325.1 114.1L325.1 114.1Q324.2 114.1 323.5 113.7Q322.8 113.3 322.4 112.5Q322.1 111.8 322.1 110.8Q322.1 109.8 322.4 109.0Q322.8 108.2 323.5 107.8Q324.1 107.4 325.0 107.4L325.0 107.4Q325.5 107.4 326.0 107.5Q326.6 107.7 327.0 108.1Q327.4 108.5 327.6 109.1Q327.9 109.7 327.9 110.6L327.9 110.6L327.9 111.1L323.1 111.1Q323.2 111.7 323.4 112.2L323.4 112.2Q323.6 112.7 324.1 112.9Q324.6 113.2 325.1 113.2L325.1 113.2Q325.5 113.2 325.9 113.1Q326.2 113.0 326.4 112.8Q326.6 112.5 326.7 112.2L326.7 112.2L327.8 112.5Q327.6 113.0 327.3 113.3Q326.9 113.7 326.4 113.9Q325.8 114.1 325.1 114.1ZM323.1 110.2L323.1 110.2L326.8 110.2Q326.8 109.7 326.6 109.4L326.6 109.4Q326.4 108.9 326.0 108.6Q325.6 108.3 325.0 108.3Q324.4 108.3 324.0 108.6Q323.6 108.9 323.4 109.3L323.4 109.3Q323.2 109.7 323.1 110.2ZM330.4 110.1L330.4 110.1L330.4 114L329.4 114L329.4 107.4L330.4 107.4L330.4 108.7Q330.7 108.0 331.1 107.7L331.1 107.7Q331.7 107.4 332.4 107.4L332.4 107.4Q333.1 107.4 333.6 107.6Q334.1 107.9 334.3 108.5Q334.6 109.0 334.6 109.8L334.6 109.8L334.6 114L333.6 114L333.6 109.9Q333.6 109.2 333.2 108.7Q332.8 108.3 332.1 108.3L332.1 108.3Q331.6 108.3 331.2 108.5Q330.9 108.7 330.7 109.1Q330.4 109.5 330.4 110.1ZM337.7 107.4L339.1 107.4L339.1 108.4L337.7 108.4L337.7 112.3Q337.7 112.7 337.9 112.9Q338.1 113.1 338.5 113.1L338.5 113.1Q338.6 113.1 338.7 113.1Q338.9 113.1 339.0 113.1L339.0 113.1L339.2 114.0Q339.1 114.0 338.9 114.1Q338.7 114.1 338.4 114.1L338.4 114.1Q337.6 114.1 337.1 113.6Q336.7 113.2 336.7 112.4L336.7 112.4L336.7 108.4L335.7 108.4L335.7 107.4L336.7 107.4L336.7 105.9L337.7 105.9L337.7 107.4ZM342.6 114.1L342.6 114.1Q342.0 114.1 341.4 113.9Q340.9 113.7 340.6 113.4Q340.2 113.0 340.1 112.4L340.1 112.4L341.1 112.2Q341.3 112.7 341.6 113.0Q342.0 113.2 342.6 113.2L342.6 113.2Q343.3 113.2 343.7 112.9Q344.1 112.6 344.1 112.2L344.1 112.2Q344.1 111.9 343.9 111.7Q343.6 111.4 343.2 111.3L343.2 111.3L342.1 111.1Q341.2 110.9 340.7 110.4Q340.3 110.0 340.3 109.3L340.3 109.3Q340.3 108.7 340.6 108.3Q340.9 107.9 341.5 107.6Q342.0 107.4 342.7 107.4L342.7 107.4Q343.4 107.4 343.9 107.6Q344.3 107.8 344.6 108.1Q344.9 108.5 345.1 108.9L345.1 108.9L344.1 109.2Q344.0 108.8 343.7 108.6Q343.4 108.3 342.7 108.3L342.7 108.3Q342.2 108.3 341.8 108.5Q341.4 108.8 341.4 109.2L341.4 109.2Q341.4 109.6 341.6 109.8Q341.9 110.0 342.5 110.2L342.5 110.2L343.5 110.4Q344.4 110.6 344.8 111.0Q345.2 111.5 345.2 112.2L345.2 112.2Q345.2 112.7 344.9 113.2Q344.6 113.6 344.0 113.9Q343.4 114.1 342.6 114.1ZM347.4 116.1L346.6 116.1L347.1 112.8L348.3 112.8L347.4 116.1Z M355.8 114.1L355.8 114.1Q355.1 114.1 354.6 113.9Q354.1 113.7 353.7 113.4Q353.4 113.0 353.3 112.4L353.3 112.4L354.3 112.2Q354.4 112.7 354.8 113.0Q355.2 113.2 355.8 113.2L355.8 113.2Q356.5 113.2 356.9 112.9Q357.3 112.6 357.3 112.2L357.3 112.2Q357.3 111.9 357.0 111.7Q356.8 111.4 356.3 111.3L356.3 111.3L355.2 111.1Q354.3 110.9 353.9 110.4Q353.5 110.0 353.5 109.3L353.5 109.3Q353.5 108.7 353.8 108.3Q354.1 107.9 354.7 107.6Q355.2 107.4 355.9 107.4L355.9 107.4Q356.6 107.4 357.0 107.6Q357.5 107.8 357.8 108.1Q358.1 108.5 358.3 108.9L358.3 108.9L357.3 109.2Q357.2 108.8 356.9 108.6Q356.5 108.3 355.9 108.3L355.9 108.3Q355.3 108.3 354.9 108.5Q354.5 108.8 354.5 109.2L354.5 109.2Q354.5 109.6 354.8 109.8Q355.1 110.0 355.6 110.2L355.6 110.2L356.6 110.4Q357.5 110.6 357.9 111.0Q358.4 111.5 358.4 112.2L358.4 112.2Q358.4 112.7 358.1 113.2Q357.7 113.6 357.1 113.9Q356.6 114.1 355.8 114.1ZM361.0 110.1L361.0 110.1L361.0 114L359.9 114L359.9 105.3L361.0 105.3L361.0 108.6Q361.2 108.0 361.6 107.7L361.6 107.7Q362.2 107.4 362.9 107.4L362.9 107.4Q363.6 107.4 364.1 107.6Q364.6 107.9 364.9 108.5Q365.1 109.0 365.1 109.8L365.1 109.8L365.1 114L364.1 114L364.1 109.9Q364.1 109.2 363.7 108.7Q363.3 108.3 362.6 108.3L362.6 108.3Q362.1 108.3 361.8 108.5Q361.4 108.7 361.2 109.1Q361.0 109.5 361.0 110.1ZM368.8 114.2L368.8 114.2Q368.2 114.2 367.7 113.9Q367.2 113.7 366.9 113.2Q366.6 112.8 366.6 112.1L366.6 112.1Q366.6 111.6 366.8 111.2Q367.0 110.9 367.4 110.7Q367.8 110.5 368.2 110.4Q368.7 110.3 369.1 110.2L369.1 110.2Q369.7 110.1 370.1 110.1Q370.5 110.1 370.6 110.0Q370.8 109.9 370.8 109.6L370.8 109.6L370.8 109.6Q370.8 109.2 370.7 108.9Q370.5 108.6 370.2 108.4Q369.9 108.3 369.5 108.3L369.5 108.3Q369.0 108.3 368.7 108.4Q368.3 108.6 368.1 108.8Q367.9 109.0 367.8 109.3L367.8 109.3L366.8 108.9Q367.0 108.3 367.5 108.0Q367.9 107.6 368.4 107.5Q368.9 107.4 369.4 107.4L369.4 107.4Q369.8 107.4 370.2 107.4Q370.6 107.5 371.0 107.8Q371.4 108.0 371.6 108.5Q371.9 108.9 371.9 109.7L371.9 109.7L371.9 114L370.8 114L370.8 113.1L370.8 113.1Q370.7 113.3 370.4 113.6Q370.2 113.8 369.8 114.0Q369.4 114.2 368.8 114.2ZM369.0 113.2L369.0 113.2Q369.6 113.2 370.0 113.0Q370.4 112.8 370.6 112.4Q370.8 112.0 370.8 111.6L370.8 111.6L370.8 110.7Q370.8 110.8 370.5 110.9Q370.3 110.9 370.1 111.0Q369.8 111.0 369.5 111.0Q369.3 111.1 369.1 111.1L369.1 111.1Q368.7 111.1 368.4 111.3Q368.1 111.4 367.9 111.6Q367.7 111.8 367.7 112.2L367.7 112.2Q367.7 112.5 367.8 112.8Q368.0 113.0 368.3 113.1Q368.6 113.2 369.0 113.2ZM376.2 114.1L376.2 114.1Q375.4 114.1 374.7 113.7Q374.1 113.3 373.8 112.5Q373.4 111.8 373.4 110.7L373.4 110.7Q373.4 109.7 373.8 108.9Q374.1 108.2 374.8 107.8Q375.4 107.4 376.2 107.4L376.2 107.4Q376.8 107.4 377.2 107.6Q377.6 107.8 377.8 108.1Q378.0 108.3 378.1 108.5L378.1 108.5L378.2 108.5L378.2 105.3L379.2 105.3L379.2 114L378.2 114L378.2 113.0L378.1 113.0Q378.0 113.2 377.8 113.4Q377.6 113.7 377.2 113.9Q376.8 114.1 376.2 114.1ZM376.3 113.2L376.3 113.2Q376.9 113.2 377.4 112.9Q377.8 112.6 378.0 112.0Q378.2 111.5 378.2 110.7L378.2 110.7Q378.2 110.0 378.0 109.5Q377.8 108.9 377.4 108.6Q377.0 108.3 376.3 108.3L376.3 108.3Q375.7 108.3 375.3 108.6Q374.9 109.0 374.7 109.5Q374.5 110.1 374.5 110.7L374.5 110.7Q374.5 111.4 374.7 112.0Q374.9 112.5 375.3 112.9Q375.7 113.2 376.3 113.2ZM383.7 114.1L383.7 114.1Q382.9 114.1 382.2 113.7Q381.5 113.3 381.1 112.5Q380.8 111.8 380.8 110.8L380.8 110.8Q380.8 109.7 381.1 109.0Q381.5 108.2 382.2 107.8Q382.9 107.4 383.7 107.4L383.7 107.4Q384.6 107.4 385.3 107.8Q386.0 108.2 386.4 109.0Q386.7 109.7 386.7 110.8L386.7 110.8Q386.7 111.8 386.4 112.5Q386.0 113.3 385.3 113.7Q384.6 114.1 383.7 114.1ZM383.7 113.2L383.7 113.2Q384.4 113.2 384.8 112.9Q385.3 112.5 385.5 112.0Q385.7 111.4 385.7 110.8L385.7 110.8Q385.7 110.1 385.5 109.6Q385.3 109.0 384.8 108.7Q384.4 108.3 383.7 108.3L383.7 108.3Q383.1 108.3 382.7 108.7Q382.2 109.0 382.0 109.6Q381.8 110.1 381.8 110.8L381.8 110.8Q381.8 111.4 382.0 112.0Q382.2 112.5 382.7 112.9Q383.1 113.2 383.7 113.2ZM390.8 114L389.7 114L387.8 107.4L388.9 107.4L389.7 110.3Q389.8 110.9 390.0 111.6L390.0 111.6Q390.2 112.2 390.3 112.9L390.3 112.9Q390.4 112.2 390.6 111.7L390.6 111.7Q390.8 110.9 390.9 110.3L390.9 110.3L391.7 107.4L392.8 107.4L393.6 110.3Q393.8 110.9 394.0 111.7L394.0 111.7Q394.1 112.2 394.2 112.9L394.2 112.9Q394.4 112.2 394.5 111.7L394.5 111.7Q394.7 110.9 394.8 110.3L394.8 110.3L395.6 107.4L396.8 107.4L394.8 114L393.7 114L392.9 111.0Q392.7 110.6 392.6 110.1Q392.5 109.6 392.4 109.2L392.4 109.2Q392.3 108.9 392.3 108.6L392.3 108.6Q392.2 108.9 392.1 109.1L392.1 109.1Q392.0 109.6 391.9 110.1Q391.8 110.6 391.6 111.0L391.6 111.0L390.8 114ZM400.3 114.1L400.3 114.1Q399.7 114.1 399.1 113.9Q398.6 113.7 398.3 113.4Q397.9 113.0 397.8 112.4L397.8 112.4L398.8 112.2Q398.9 112.7 399.3 113.0Q399.7 113.2 400.3 113.2L400.3 113.2Q401.0 113.2 401.4 112.9Q401.8 112.6 401.8 112.2L401.8 112.2Q401.8 111.9 401.6 111.7Q401.3 111.4 400.9 111.3L400.9 111.3L399.8 111.1Q398.9 110.9 398.4 110.4Q398.0 110.0 398.0 109.3L398.0 109.3Q398.0 108.7 398.3 108.3Q398.6 107.9 399.2 107.6Q399.7 107.4 400.4 107.4L400.4 107.4Q401.1 107.4 401.6 107.6Q402.0 107.8 402.3 108.1Q402.6 108.5 402.8 108.9L402.8 108.9L401.8 109.2Q401.7 108.8 401.4 108.6Q401.1 108.3 400.4 108.3L400.4 108.3Q399.8 108.3 399.5 108.5Q399.1 108.8 399.1 109.2L399.1 109.2Q399.1 109.6 399.3 109.8Q399.6 110.0 400.2 110.2L400.2 110.2L401.2 110.4Q402.1 110.6 402.5 111.0Q402.9 111.5 402.9 112.2L402.9 112.2Q402.9 112.7 402.6 113.2Q402.3 113.6 401.7 113.9Q401.1 114.1 400.3 114.1ZM405.1 116.1L404.3 116.1L404.8 112.8L406.0 112.8L405.1 116.1Z M412.3 114L411.3 114L411.3 107.4L412.3 107.4L412.3 108.5L412.4 108.5Q412.5 108.0 413.0 107.7Q413.5 107.4 414.1 107.4L414.1 107.4Q414.2 107.4 414.3 107.4Q414.5 107.4 414.6 107.4L414.6 107.4L414.6 108.4Q414.5 108.4 414.4 108.4Q414.2 108.4 414.0 108.4L414.0 108.4Q413.5 108.4 413.1 108.6Q412.7 108.8 412.5 109.1Q412.3 109.5 412.3 109.9L412.3 109.9L412.3 114ZM418.4 114.1L418.4 114.1Q417.6 114.1 416.9 113.7Q416.2 113.3 415.8 112.5Q415.5 111.8 415.5 110.8L415.5 110.8Q415.5 109.7 415.8 109.0Q416.2 108.2 416.9 107.8Q417.6 107.4 418.4 107.4L418.4 107.4Q419.3 107.4 420.0 107.8Q420.7 108.2 421.1 109.0Q421.4 109.7 421.4 110.8L421.4 110.8Q421.4 111.8 421.1 112.5Q420.7 113.3 420.0 113.7Q419.3 114.1 418.4 114.1ZM418.4 113.2L418.4 113.2Q419.1 113.2 419.5 112.9Q420.0 112.5 420.2 112.0Q420.4 111.4 420.4 110.8L420.4 110.8Q420.4 110.1 420.2 109.6Q420.0 109.0 419.5 108.7Q419.1 108.3 418.4 108.3L418.4 108.3Q417.8 108.3 417.4 108.7Q416.9 109.0 416.7 109.6Q416.5 110.1 416.5 110.8L416.5 110.8Q416.5 111.4 416.7 112.0Q416.9 112.5 417.4 112.9Q417.8 113.2 418.4 113.2ZM425.2 114.1L425.2 114.1Q424.5 114.1 424.0 113.8Q423.5 113.5 423.3 113.0Q423.0 112.4 423.0 111.6L423.0 111.6L423.0 107.4L424.0 107.4L424.0 111.5Q424.0 112.3 424.4 112.7Q424.8 113.1 425.5 113.1L425.5 113.1Q426.0 113.1 426.4 112.9Q426.7 112.7 426.9 112.3Q427.2 111.9 427.2 111.4L427.2 111.4L427.2 107.4L428.2 107.4L428.2 114L427.2 114L427.2 112.8Q426.9 113.4 426.5 113.7L426.5 113.7Q425.9 114.1 425.2 114.1ZM431.1 110.1L431.1 110.1L431.1 114L430.1 114L430.1 107.4L431.1 107.4L431.1 108.7Q431.4 108.0 431.8 107.7L431.8 107.7Q432.4 107.4 433.1 107.4L433.1 107.4Q433.8 107.4 434.3 107.6Q434.8 107.9 435.0 108.5Q435.3 109.0 435.3 109.8L435.3 109.8L435.3 114L434.3 114L434.3 109.9Q434.3 109.2 433.9 108.7Q433.5 108.3 432.8 108.3L432.8 108.3Q432.3 108.3 431.9 108.5Q431.6 108.7 431.3 109.1Q431.1 109.5 431.1 110.1ZM439.6 114.1L439.6 114.1Q438.8 114.1 438.2 113.7Q437.5 113.3 437.2 112.5Q436.8 111.8 436.8 110.7L436.8 110.7Q436.8 109.7 437.2 108.9Q437.6 108.2 438.2 107.8Q438.8 107.4 439.6 107.4L439.6 107.4Q440.3 107.4 440.6 107.6Q441.0 107.8 441.2 108.1Q441.4 108.3 441.5 108.5L441.5 108.5L441.6 108.5L441.6 105.3L442.7 105.3L442.7 114L441.6 114L441.6 113.0L441.5 113.0Q441.4 113.2 441.2 113.4Q441 113.7 440.6 113.9Q440.2 114.1 439.6 114.1ZM439.8 113.2L439.8 113.2Q440.4 113.2 440.8 112.9Q441.2 112.6 441.4 112.0Q441.6 111.5 441.6 110.7L441.6 110.7Q441.6 110.0 441.4 109.5Q441.2 108.9 440.8 108.6Q440.4 108.3 439.8 108.3L439.8 108.3Q439.2 108.3 438.7 108.6Q438.3 109.0 438.1 109.5Q437.9 110.1 437.9 110.7L437.9 110.7Q437.9 111.4 438.1 112.0Q438.3 112.5 438.8 112.9Q439.2 113.2 439.8 113.2ZM447.3 114.1L447.3 114.1Q446.3 114.1 445.6 113.7Q444.9 113.3 444.6 112.5Q444.2 111.8 444.2 110.8Q444.2 109.8 444.6 109.0Q444.9 108.2 445.6 107.8Q446.3 107.4 447.1 107.4L447.1 107.4Q447.7 107.4 448.2 107.5Q448.7 107.7 449.1 108.1Q449.5 108.5 449.7 109.1Q450.0 109.7 450.0 110.6L450.0 110.6L450.0 111.1L445.3 111.1Q445.3 111.7 445.5 112.2L445.5 112.2Q445.8 112.7 446.2 112.9Q446.7 113.2 447.3 113.2L447.3 113.2Q447.7 113.2 448.0 113.1Q448.3 113.0 448.5 112.8Q448.7 112.5 448.9 112.2L448.9 112.2L449.9 112.5Q449.7 113.0 449.4 113.3Q449.0 113.7 448.5 113.9Q447.9 114.1 447.3 114.1ZM445.3 110.2L445.3 110.2L448.9 110.2Q448.9 109.7 448.7 109.4L448.7 109.4Q448.5 108.9 448.1 108.6Q447.7 108.3 447.1 108.3Q446.5 108.3 446.1 108.6Q445.7 108.9 445.5 109.3L445.5 109.3Q445.3 109.7 445.3 110.2ZM454.0 114.1L454.0 114.1Q453.1 114.1 452.5 113.7Q451.9 113.3 451.5 112.5Q451.2 111.8 451.2 110.7L451.2 110.7Q451.2 109.7 451.5 108.9Q451.9 108.2 452.5 107.8Q453.2 107.4 454.0 107.4L454.0 107.4Q454.6 107.4 455.0 107.6Q455.4 107.8 455.6 108.1Q455.8 108.3 455.9 108.5L455.9 108.5L455.9 108.5L455.9 105.3L457.0 105.3L457.0 114L456.0 114L456.0 113.0L455.9 113.0Q455.8 113.2 455.6 113.4Q455.3 113.7 455.0 113.9Q454.6 114.1 454.0 114.1ZM454.1 113.2L454.1 113.2Q454.7 113.2 455.1 112.9Q455.5 112.6 455.7 112.0Q456.0 111.5 456.0 110.7L456.0 110.7Q456.0 110.0 455.8 109.5Q455.5 108.9 455.1 108.6Q454.7 108.3 454.1 108.3L454.1 108.3Q453.5 108.3 453.1 108.6Q452.7 109.0 452.5 109.5Q452.3 110.1 452.3 110.7L452.3 110.7Q452.3 111.4 452.5 112.0Q452.7 112.5 453.1 112.9Q453.5 113.2 454.1 113.2Z M464.9 114.1L464.9 114.1Q464.0 114.1 463.3 113.7Q462.7 113.3 462.3 112.5Q461.9 111.8 461.9 110.8L461.9 110.8Q461.9 109.7 462.3 109.0Q462.7 108.2 463.3 107.8Q464.0 107.4 464.9 107.4L464.9 107.4Q465.4 107.4 465.8 107.5Q466.2 107.6 466.6 107.8Q466.9 108.1 467.2 108.4Q467.4 108.8 467.5 109.2L467.5 109.2L466.5 109.5Q466.5 109.2 466.3 109.0Q466.2 108.8 466.0 108.6Q465.8 108.5 465.5 108.4Q465.2 108.3 464.9 108.3L464.9 108.3Q464.2 108.3 463.8 108.7Q463.4 109.0 463.2 109.6Q463.0 110.1 463.0 110.8L463.0 110.8Q463.0 111.4 463.2 112.0Q463.4 112.5 463.8 112.9Q464.2 113.2 464.9 113.2L464.9 113.2Q465.2 113.2 465.5 113.1Q465.8 113.0 466.0 112.9Q466.2 112.7 466.3 112.5Q466.5 112.3 466.6 112.0L466.6 112.0L467.6 112.3Q467.4 112.7 467.2 113.1Q466.9 113.4 466.6 113.6Q466.2 113.9 465.8 114.0Q465.4 114.1 464.9 114.1ZM471.8 114.1L471.8 114.1Q470.9 114.1 470.2 113.7Q469.5 113.3 469.1 112.5Q468.8 111.8 468.8 110.8L468.8 110.8Q468.8 109.7 469.1 109.0Q469.5 108.2 470.2 107.8Q470.9 107.4 471.8 107.4L471.8 107.4Q472.6 107.4 473.3 107.8Q474.0 108.2 474.4 109.0Q474.7 109.7 474.7 110.8L474.7 110.8Q474.7 111.8 474.4 112.5Q474.0 113.3 473.3 113.7Q472.6 114.1 471.8 114.1ZM471.8 113.2L471.8 113.2Q472.4 113.2 472.8 112.9Q473.3 112.5 473.5 112.0Q473.7 111.4 473.7 110.8L473.7 110.8Q473.7 110.1 473.5 109.6Q473.3 109.0 472.8 108.7Q472.4 108.3 471.8 108.3L471.8 108.3Q471.1 108.3 470.7 108.7Q470.3 109.0 470.0 109.6Q469.8 110.1 469.8 110.8L469.8 110.8Q469.8 111.4 470.0 112.0Q470.3 112.5 470.7 112.9Q471.1 113.2 471.8 113.2ZM477.3 114L476.3 114L476.3 107.4L477.3 107.4L477.3 108.5L477.4 108.5Q477.6 108.0 478.0 107.7Q478.5 107.4 479.1 107.4L479.1 107.4Q479.2 107.4 479.3 107.4Q479.5 107.4 479.6 107.4L479.6 107.4L479.6 108.4Q479.6 108.4 479.4 108.4Q479.2 108.4 479.0 108.4L479.0 108.4Q478.5 108.4 478.1 108.6Q477.8 108.8 477.5 109.1Q477.3 109.5 477.3 109.9L477.3 109.9L477.3 114ZM481.9 110.1L481.9 110.1L481.9 114L480.8 114L480.8 107.4L481.8 107.4L481.8 108.7Q482.1 108.0 482.5 107.7L482.5 107.7Q483.1 107.4 483.8 107.4L483.8 107.4Q484.5 107.4 485.0 107.6Q485.5 107.9 485.8 108.5Q486.0 109.0 486.0 109.8L486.0 109.8L486.0 114L485.0 114L485.0 109.9Q485.0 109.2 484.6 108.7Q484.2 108.3 483.5 108.3L483.5 108.3Q483.0 108.3 482.7 108.5Q482.3 108.7 482.1 109.1Q481.9 109.5 481.9 110.1ZM490.6 114.1L490.6 114.1Q489.7 114.1 489.0 113.7Q488.3 113.3 487.9 112.5Q487.6 111.8 487.6 110.8Q487.6 109.8 487.9 109.0Q488.3 108.2 489.0 107.8Q489.6 107.4 490.5 107.4L490.5 107.4Q491.0 107.4 491.5 107.5Q492.1 107.7 492.5 108.1Q492.9 108.5 493.1 109.1Q493.4 109.7 493.4 110.6L493.4 110.6L493.4 111.1L488.6 111.1Q488.7 111.7 488.9 112.2L488.9 112.2Q489.1 112.7 489.6 112.9Q490.0 113.2 490.6 113.2L490.6 113.2Q491.0 113.2 491.3 113.1Q491.7 113.0 491.9 112.8Q492.1 112.5 492.2 112.2L492.2 112.2L493.3 112.5Q493.1 113.0 492.8 113.3Q492.4 113.7 491.9 113.9Q491.3 114.1 490.6 114.1ZM488.6 110.2L488.6 110.2L492.3 110.2Q492.3 109.7 492.1 109.4L492.1 109.4Q491.9 108.9 491.5 108.6Q491.1 108.3 490.5 108.3Q489.9 108.3 489.5 108.6Q489.1 108.9 488.9 109.3L488.9 109.3Q488.7 109.7 488.6 110.2ZM495.9 114L494.9 114L494.9 107.4L495.9 107.4L495.9 108.5L496.0 108.5Q496.2 108.0 496.6 107.7Q497.1 107.4 497.7 107.4L497.7 107.4Q497.8 107.4 498.0 107.4Q498.1 107.4 498.2 107.4L498.2 107.4L498.2 108.4Q498.2 108.4 498.0 108.4Q497.8 108.4 497.6 108.4L497.6 108.4Q497.1 108.4 496.7 108.6Q496.4 108.8 496.1 109.1Q495.9 109.5 495.9 109.9L495.9 109.9L495.9 114ZM501.6 114.1L501.6 114.1Q501.0 114.1 500.4 113.9Q499.9 113.7 499.6 113.4Q499.2 113.0 499.1 112.4L499.1 112.4L500.1 112.2Q500.3 112.7 500.6 113.0Q501.0 113.2 501.6 113.2L501.6 113.2Q502.3 113.2 502.7 112.9Q503.1 112.6 503.1 112.2L503.1 112.2Q503.1 111.9 502.9 111.7Q502.6 111.4 502.2 111.3L502.2 111.3L501.1 111.1Q500.2 110.9 499.7 110.4Q499.3 110.0 499.3 109.3L499.3 109.3Q499.3 108.7 499.6 108.3Q499.9 107.9 500.5 107.6Q501.0 107.4 501.7 107.4L501.7 107.4Q502.4 107.4 502.9 107.6Q503.3 107.8 503.6 108.1Q503.9 108.5 504.1 108.9L504.1 108.9L503.1 109.2Q503.0 108.8 502.7 108.6Q502.4 108.3 501.7 108.3L501.7 108.3Q501.2 108.3 500.8 108.5Q500.4 108.8 500.4 109.2L500.4 109.2Q500.4 109.6 500.6 109.8Q500.9 110.0 501.5 110.2L501.5 110.2L502.5 110.4Q503.4 110.6 503.8 111.0Q504.2 111.5 504.2 112.2L504.2 112.2Q504.2 112.7 503.9 113.2Q503.6 113.6 503.0 113.9Q502.4 114.1 501.6 114.1Z "/></g><defs><pattern id="satori_pattern_id-2_0" x="0" y="0" width="1" height="1" patternUnits="objectBoundingBox"><linearGradient id="satori_biid-2_0" x1="0" y1="0" x2="0" y2="1" spreadMethod="pad"><stop offset="0%" stop-color="#2e1a1a"/><stop offset="100%" stop-color="#2e1616"/></linearGradient><rect x="0" y="0" width="259" height="160" fill="url(#satori_biid-2_0)"/></pattern></defs><mask id="satori_om-id-2"><rect x="541" y="0" width="259" height="160" fill="#fff"/></mask><path x="541" y="0" width="259" height="160" fill="url(#satori_pattern_id-2_0)" d="M555,0 h231 a14,14 0 0 1 14,14 v132 a14,14 0 0 1 -14,14 h-231 a14,14 0 0 1 -14,-14 v-132 a14,14 0 0 1 14,-14"/><mask id="satori_om-id-2-0"><rect x="561" y="43" width="219" height="29" fill="#fff"/></mask><g  ><path fill="black" d="M570.2 66.2L570.2 66.2Q567.9 66.2 566.2 65.2Q564.4 64.1 563.4 62.1Q562.4 60.0 562.4 57.3L562.4 57.3Q562.4 54.5 563.4 52.5Q564.4 50.5 566.2 49.4Q567.9 48.3 570.2 48.3L570.2 48.3Q571.5 48.3 572.7 48.7Q573.9 49.1 574.8 49.8Q575.7 50.6 576.4 51.6Q577.0 52.7 577.2 54.0L577.2 54.0L575.0 54.0Q574.8 53.1 574.4 52.5Q573.9 51.8 573.3 51.3Q572.6 50.8 571.8 50.6Q571.0 50.4 570.2 50.4L570.2 50.4Q568.6 50.4 567.3 51.2Q566.1 52.0 565.3 53.5Q564.6 55.0 564.6 57.3L564.6 57.3Q564.6 59.5 565.3 61.0Q566.1 62.6 567.4 63.4Q568.6 64.2 570.2 64.2L570.2 64.2Q571.0 64.2 571.8 63.9Q572.6 63.7 573.3 63.2Q573.9 62.8 574.4 62.1Q574.8 61.4 575.0 60.5L575.0 60.5L577.2 60.5Q577.0 61.8 576.4 62.9Q575.7 63.9 574.8 64.7Q573.9 65.4 572.7 65.8Q571.5 66.2 570.2 66.2ZM580.6 48.5L582.9 48.5L582.9 66L580.6 66L580.6 48.5Z "/></g><mask id="satori_om-id-2-1"><rect x="561" y="80" width="219" height="18" fill="#fff"/></mask><g  ><path fill="#ffe0e0" d="M566.8 95.1L566.8 95.1Q565.3 95.1 564.1 94.5Q563.0 93.8 562.3 92.5Q561.7 91.3 561.7 89.6L561.7 89.6Q561.7 87.8 562.4 86.5Q563.0 85.3 564.2 84.6Q565.3 83.9 566.8 83.9L566.8 83.9Q567.7 83.9 568.5 84.2Q569.3 84.5 569.9 85.0Q570.5 85.5 570.9 86.1Q571.3 86.8 571.4 87.6L571.4 87.6L569.2 87.6Q569.0 87.2 568.8 86.9Q568.6 86.6 568.3 86.4Q568.0 86.2 567.6 86.0Q567.3 85.9 566.8 85.9L566.8 85.9Q566.0 85.9 565.3 86.3Q564.7 86.8 564.3 87.6Q564.0 88.4 564.0 89.5Q564.0 90.7 564.3 91.5Q564.7 92.3 565.3 92.7Q566.0 93.2 566.8 93.2L566.8 93.2Q567.6 93.2 568.2 92.9Q568.8 92.6 569.1 92.1L569.1 92.1Q569.3 91.6 569.4 90.9L569.4 90.9L567.0 90.9L567.0 89.2L571.5 89.2L571.5 90.5Q571.5 92.0 570.9 93.0Q570.3 94.0 569.3 94.6Q568.2 95.1 566.8 95.1ZM575.4 95L573.2 95L573.2 86.8L575.4 86.8L575.4 95ZM574.3 85.7L574.3 85.7Q573.8 85.7 573.4 85.4Q573.1 85.1 573.1 84.6L573.1 84.6Q573.1 84.1 573.4 83.8Q573.8 83.5 574.3 83.5L574.3 83.5Q574.8 83.5 575.1 83.8Q575.5 84.1 575.5 84.6L575.5 84.6Q575.5 85.1 575.1 85.4Q574.8 85.7 574.3 85.7ZM579.8 86.8L581.3 86.8L581.3 88.5L579.8 88.5L579.8 92.6Q579.8 93.0 580.0 93.2Q580.1 93.4 580.5 93.4L580.5 93.4Q580.7 93.4 580.9 93.3Q581.1 93.3 581.2 93.3L581.2 93.3L581.6 94.9Q581.2 95.0 580.8 95.1Q580.5 95.1 580.1 95.1L580.1 95.1Q578.9 95.1 578.2 94.5Q577.6 93.9 577.6 92.8L577.6 92.8L577.6 88.5L576.5 88.5L576.5 86.8L577.6 86.8L577.6 84.9L579.8 84.9L579.8 86.8ZM585.0 95L582.8 95L582.8 84.1L585.0 84.1L585.0 88.5L589.8 88.5L589.8 84.1L592.0 84.1L592.0 95L589.8 95L589.8 90.3L585.0 90.3L585.0 95ZM596.8 95.1L596.8 95.1Q595.9 95.1 595.3 94.7Q594.7 94.4 594.3 93.7Q594.0 93.0 594.0 92.0L594.0 92.0L594.0 86.8L596.2 86.8L596.2 91.6Q596.2 92.4 596.6 92.8Q596.9 93.3 597.6 93.3L597.6 93.3Q598.1 93.3 598.5 93.1Q598.8 92.9 599.0 92.5Q599.2 92.1 599.2 91.6L599.2 91.6L599.2 86.8L601.4 86.8L601.4 95L599.3 95L599.3 93.3Q599.0 94.1 598.5 94.5L598.5 94.5Q597.8 95.1 596.8 95.1ZM607.9 95.1L607.9 95.1Q607.2 95.1 606.8 94.9Q606.3 94.7 606.0 94.4Q605.7 94.0 605.6 93.7L605.6 93.7L605.5 93.7L605.5 95L603.3 95L603.3 84.1L605.5 84.1L605.5 88.2L605.6 88.2Q605.7 87.9 606.0 87.5Q606.3 87.2 606.7 86.9Q607.2 86.7 607.9 86.7L607.9 86.7Q608.8 86.7 609.6 87.2Q610.3 87.6 610.8 88.6Q611.2 89.5 611.2 90.9L611.2 90.9Q611.2 92.3 610.8 93.2Q610.3 94.2 609.6 94.7Q608.8 95.1 607.9 95.1ZM607.2 93.4L607.2 93.4Q607.8 93.4 608.2 93.1Q608.6 92.7 608.8 92.2Q609.0 91.6 609.0 90.9L609.0 90.9Q609.0 90.2 608.8 89.6Q608.6 89.1 608.2 88.8Q607.8 88.5 607.2 88.5L607.2 88.5Q606.6 88.5 606.2 88.8Q605.9 89.1 605.6 89.6Q605.4 90.2 605.4 90.9L605.4 90.9Q605.4 91.7 605.7 92.2Q605.9 92.8 606.3 93.1Q606.7 93.4 607.2 93.4Z M618.2 95L615.7 95L619.5 84.1L622.4 84.1L626.2 95L623.7 95L622.9 92.5L619.0 92.5L618.2 95ZM619.6 90.7L622.3 90.7L622.0 89.7Q621.7 88.7 621.3 87.5L621.3 87.5Q621.1 86.7 620.9 85.8L620.9 85.8Q620.7 86.7 620.5 87.5L620.5 87.5Q620.2 88.7 619.9 89.7L619.9 89.7L619.6 90.7ZM631.2 95.2L631.2 95.2Q629.9 95.2 629.0 94.6Q628.1 94.1 627.6 93.2Q627.2 92.2 627.2 90.9L627.2 90.9Q627.2 89.7 627.6 88.7Q628.1 87.8 629.0 87.2Q629.9 86.7 631.2 86.7L631.2 86.7Q631.9 86.7 632.5 86.9Q633.1 87.1 633.6 87.4Q634.1 87.8 634.4 88.3Q634.7 88.8 634.8 89.4L634.8 89.4L632.8 89.8Q632.7 89.5 632.6 89.2Q632.4 89.0 632.2 88.8Q632.0 88.6 631.8 88.5Q631.5 88.4 631.2 88.4L631.2 88.4Q630.6 88.4 630.2 88.8Q629.8 89.1 629.6 89.6Q629.4 90.2 629.4 90.9L629.4 90.9Q629.4 91.7 629.6 92.2Q629.8 92.8 630.2 93.1Q630.6 93.4 631.2 93.4L631.2 93.4Q631.5 93.4 631.8 93.3Q632.0 93.2 632.2 93.0Q632.4 92.9 632.6 92.6Q632.7 92.3 632.8 92.0L632.8 92.0L634.8 92.4Q634.7 93.0 634.4 93.5Q634.1 94.0 633.6 94.4Q633.1 94.8 632.5 95.0Q631.9 95.2 631.2 95.2ZM638.9 86.8L640.4 86.8L640.4 88.5L638.9 88.5L638.9 92.6Q638.9 93.0 639.0 93.2Q639.2 93.4 639.6 93.4L639.6 93.4Q639.7 93.4 640.0 93.3Q640.2 93.3 640.3 93.3L640.3 93.3L640.6 94.9Q640.3 95.0 639.9 95.1Q639.5 95.1 639.2 95.1L639.2 95.1Q638.0 95.1 637.3 94.5Q636.7 93.9 636.7 92.8L636.7 92.8L636.7 88.5L635.5 88.5L635.5 86.8L636.7 86.8L636.7 84.9L638.9 84.9L638.9 86.8ZM644.0 95L641.8 95L641.8 86.8L644.0 86.8L644.0 95ZM642.9 85.7L642.9 85.7Q642.4 85.7 642.1 85.4Q641.7 85.1 641.7 84.6L641.7 84.6Q641.7 84.1 642.1 83.8Q642.4 83.5 642.9 83.5L642.9 83.5Q643.4 83.5 643.8 83.8Q644.1 84.1 644.1 84.6L644.1 84.6Q644.1 85.1 643.8 85.4Q643.4 85.7 642.9 85.7ZM649.5 95.2L649.5 95.2Q648.3 95.2 647.4 94.6Q646.5 94.1 646.0 93.2Q645.5 92.2 645.5 90.9L645.5 90.9Q645.5 89.7 646.0 88.7Q646.5 87.8 647.4 87.2Q648.3 86.7 649.5 86.7L649.5 86.7Q650.8 86.7 651.7 87.2Q652.6 87.8 653.1 88.7Q653.6 89.7 653.6 90.9L653.6 90.9Q653.6 92.2 653.1 93.2Q652.6 94.1 651.7 94.6Q650.8 95.2 649.5 95.2ZM649.5 93.4L649.5 93.4Q650.1 93.4 650.5 93.1Q650.9 92.8 651.1 92.2Q651.3 91.6 651.3 90.9L651.3 90.9Q651.3 90.2 651.1 89.6Q650.9 89.1 650.5 88.8Q650.1 88.4 649.5 88.4L649.5 88.4Q649.0 88.4 648.6 88.8Q648.2 89.1 648.0 89.6Q647.8 90.2 647.8 90.9L647.8 90.9Q647.8 91.6 648.0 92.2Q648.2 92.8 648.6 93.1Q649.0 93.4 649.5 93.4ZM657.3 90.3L657.3 90.3L657.3 95L655.1 95L655.1 86.8L657.2 86.8L657.2 88.5Q657.5 87.7 658.0 87.3L658.0 87.3Q658.7 86.7 659.7 86.7L659.7 86.7Q660.6 86.7 661.2 87.1Q661.9 87.4 662.2 88.1Q662.6 88.8 662.6 89.8L662.6 89.8L662.6 95L660.4 95L660.4 90.2Q660.4 89.4 660.0 89.0Q659.6 88.5 658.9 88.5L658.9 88.5Q658.4 88.5 658.0 88.7Q657.7 89.0 657.5 89.3Q657.3 89.7 657.3 90.3ZM667.7 95.2L667.7 95.2Q666.7 95.2 665.9 94.9Q665.2 94.6 664.7 94.1Q664.2 93.5 664.1 92.8L664.1 92.8L666.1 92.4Q666.3 93.0 666.7 93.3Q667.1 93.5 667.7 93.5L667.7 93.5Q668.4 93.5 668.7 93.3Q669.1 93.1 669.1 92.7L669.1 92.7Q669.1 92.4 668.8 92.2Q668.6 92.0 668.0 91.9L668.0 91.9L666.6 91.6Q665.4 91.3 664.9 90.7Q664.3 90.2 664.3 89.3L664.3 89.3Q664.3 88.5 664.7 87.9Q665.1 87.3 665.9 87.0Q666.7 86.7 667.7 86.7L667.7 86.7Q668.7 86.7 669.4 87.0Q670.1 87.2 670.5 87.7Q671.0 88.2 671.1 88.9L671.1 88.9L669.2 89.2Q669.1 88.8 668.7 88.6Q668.3 88.3 667.7 88.3L667.7 88.3Q667.2 88.3 666.8 88.5Q666.5 88.7 666.5 89.1L666.5 89.1Q666.5 89.4 666.7 89.6Q666.9 89.9 667.5 90.0L667.5 90.0L669.0 90.3Q670.2 90.5 670.8 91.0Q671.3 91.6 671.3 92.5L671.3 92.5Q671.3 93.3 670.9 93.9Q670.4 94.5 669.6 94.8Q668.8 95.2 667.7 95.2Z "/></g><mask id="satori_om-id-2-2"><rect x="561" y="102" width="219" height="15" fill="#fff"/></mask><g  ><path fill="#aa8888" d="M562.5 114L561.3 114L564.5 105.3L565.8 105.3L569.0 114L567.8 114L566.9 111.6L563.3 111.6L562.5 114ZM563.7 110.6L566.6 110.6L566.0 108.8Q565.8 108.3 565.6 107.6L565.6 107.6Q565.4 107.0 565.1 106.2L565.1 106.2Q564.9 107.0 564.7 107.6L564.7 107.6Q564.4 108.4 564.3 108.8L564.3 108.8L563.7 110.6ZM572.4 114.1L572.4 114.1Q571.8 114.1 571.3 113.8Q570.8 113.5 570.5 113.0Q570.2 112.4 570.2 111.6L570.2 111.6L570.2 107.4L571.3 107.4L571.3 111.5Q571.3 112.3 571.7 112.7Q572.1 113.1 572.7 113.1L572.7 113.1Q573.2 113.1 573.6 112.9Q574.0 112.7 574.2 112.3Q574.4 111.9 574.4 111.4L574.4 111.4L574.4 107.4L575.4 107.4L575.4 114L574.4 114L574.4 112.8Q574.1 113.4 573.7 113.7L573.7 113.7Q573.1 114.1 572.4 114.1ZM578.5 107.4L579.9 107.4L579.9 108.4L578.5 108.4L578.5 112.3Q578.5 112.7 578.7 112.9Q578.9 113.1 579.3 113.1L579.3 113.1Q579.4 113.1 579.6 113.1Q579.7 113.1 579.8 113.1L579.8 113.1L580.1 114.0Q579.9 114.0 579.7 114.1Q579.5 114.1 579.3 114.1L579.3 114.1Q578.4 114.1 578.0 113.6Q577.5 113.2 577.5 112.4L577.5 112.4L577.5 108.4L576.5 108.4L576.5 107.4L577.5 107.4L577.5 105.9L578.5 105.9L578.5 107.4ZM583.9 114.1L583.9 114.1Q583.0 114.1 582.3 113.7Q581.7 113.3 581.3 112.5Q580.9 111.8 580.9 110.8L580.9 110.8Q580.9 109.7 581.3 109.0Q581.7 108.2 582.3 107.8Q583.0 107.4 583.9 107.4L583.9 107.4Q584.8 107.4 585.5 107.8Q586.1 108.2 586.5 109.0Q586.9 109.7 586.9 110.8L586.9 110.8Q586.9 111.8 586.5 112.5Q586.1 113.3 585.5 113.7Q584.8 114.1 583.9 114.1ZM583.9 113.2L583.9 113.2Q584.6 113.2 585.0 112.9Q585.4 112.5 585.6 112.0Q585.8 111.4 585.8 110.8L585.8 110.8Q585.8 110.1 585.6 109.6Q585.4 109.0 585.0 108.7Q584.6 108.3 583.9 108.3L583.9 108.3Q583.2 108.3 582.8 108.7Q582.4 109.0 582.2 109.6Q582.0 110.1 582.0 110.8L582.0 110.8Q582.0 111.4 582.2 112.0Q582.4 112.5 582.8 112.9Q583.2 113.2 583.9 113.2ZM588.3 109.8L592.2 109.8L592.2 110.8L588.3 110.8L588.3 109.8ZM595.0 114L593.9 114L593.9 107.4L595.0 107.4L595.0 108.5L595.0 108.5Q595.2 108.0 595.7 107.7Q596.1 107.4 596.7 107.4L596.7 107.4Q596.8 107.4 597.0 107.4Q597.2 107.4 597.3 107.4L597.3 107.4L597.3 108.4Q597.2 108.4 597.0 108.4Q596.8 108.4 596.6 108.4L596.6 108.4Q596.2 108.4 595.8 108.6Q595.4 108.8 595.2 109.1Q595.0 109.5 595.0 109.9L595.0 109.9L595.0 114ZM601.2 114.1L601.2 114.1Q600.3 114.1 599.6 113.7Q598.9 113.3 598.5 112.5Q598.1 111.8 598.1 110.8Q598.1 109.8 598.5 109.0Q598.9 108.2 599.5 107.8Q600.2 107.4 601.1 107.4L601.1 107.4Q601.6 107.4 602.1 107.5Q602.6 107.7 603.0 108.1Q603.5 108.5 603.7 109.1Q603.9 109.7 603.9 110.6L603.9 110.6L603.9 111.1L599.2 111.1Q599.2 111.7 599.5 112.2L599.5 112.2Q599.7 112.7 600.2 112.9Q600.6 113.2 601.2 113.2L601.2 113.2Q601.6 113.2 601.9 113.1Q602.2 113.0 602.5 112.8Q602.7 112.5 602.8 112.2L602.8 112.2L603.8 112.5Q603.7 113.0 603.3 113.3Q603.0 113.7 602.4 113.9Q601.9 114.1 601.2 114.1ZM599.2 110.2L599.2 110.2L602.9 110.2Q602.8 109.7 602.7 109.4L602.7 109.4Q602.5 108.9 602.1 108.6Q601.7 108.3 601.1 108.3Q600.5 108.3 600.1 108.6Q599.7 108.9 599.4 109.3L599.4 109.3Q599.2 109.7 599.2 110.2ZM608.5 114.1L608.5 114.1Q607.9 114.1 607.5 113.9Q607.1 113.7 606.9 113.4Q606.7 113.2 606.6 113.0L606.6 113.0L606.5 113.0L606.5 114L605.5 114L605.5 105.3L606.5 105.3L606.5 108.5L606.6 108.5Q606.7 108.3 606.9 108.1Q607.1 107.8 607.5 107.6Q607.9 107.4 608.5 107.4L608.5 107.4Q609.3 107.4 609.9 107.8Q610.6 108.2 610.9 108.9Q611.3 109.7 611.3 110.7L611.3 110.7Q611.3 111.8 610.9 112.5Q610.6 113.3 609.9 113.7Q609.3 114.1 608.5 114.1ZM608.3 113.2L608.3 113.2Q609.0 113.2 609.4 112.9Q609.8 112.5 610.0 112.0Q610.2 111.4 610.2 110.7L610.2 110.7Q610.2 110.1 610.0 109.5Q609.8 109.0 609.4 108.6Q609.0 108.3 608.3 108.3L608.3 108.3Q607.7 108.3 607.3 108.6Q606.9 108.9 606.7 109.5Q606.5 110.0 606.5 110.7L606.5 110.7Q606.5 111.5 606.7 112.0Q606.9 112.6 607.3 112.9Q607.7 113.2 608.3 113.2ZM615.0 114.1L615.0 114.1Q614.4 114.1 613.9 113.8Q613.4 113.5 613.1 113.0Q612.8 112.4 612.8 111.6L612.8 111.6L612.8 107.4L613.9 107.4L613.9 111.5Q613.9 112.3 614.3 112.7Q614.7 113.1 615.3 113.1L615.3 113.1Q615.8 113.1 616.2 112.9Q616.6 112.7 616.8 112.3Q617.0 111.9 617.0 111.4L617.0 111.4L617.0 107.4L618.0 107.4L618.0 114L617.0 114L617.0 112.8Q616.7 113.4 616.3 113.7L616.3 113.7Q615.7 114.1 615.0 114.1ZM621.0 114L619.9 114L619.9 107.4L621.0 107.4L621.0 114ZM620.4 106.4L620.4 106.4Q620.1 106.4 619.9 106.2Q619.7 106.0 619.7 105.7L619.7 105.7Q619.7 105.4 619.9 105.2Q620.1 105.0 620.4 105.0L620.4 105.0Q620.7 105.0 621.0 105.2Q621.2 105.4 621.2 105.7L621.2 105.7Q621.2 106.0 621.0 106.2Q620.7 106.4 620.4 106.4ZM622.8 105.3L623.9 105.3L623.9 114L622.8 114L622.8 105.3ZM628.2 114.1L628.2 114.1Q627.4 114.1 626.7 113.7Q626.1 113.3 625.7 112.5Q625.4 111.8 625.4 110.7L625.4 110.7Q625.4 109.7 625.7 108.9Q626.1 108.2 626.7 107.8Q627.4 107.4 628.2 107.4L628.2 107.4Q628.8 107.4 629.2 107.6Q629.6 107.8 629.8 108.1Q630.0 108.3 630.1 108.5L630.1 108.5L630.2 108.5L630.2 105.3L631.2 105.3L631.2 114L630.2 114L630.2 113.0L630.1 113.0Q630.0 113.2 629.8 113.4Q629.5 113.7 629.2 113.9Q628.8 114.1 628.2 114.1ZM628.3 113.2L628.3 113.2Q628.9 113.2 629.3 112.9Q629.7 112.6 630.0 112.0Q630.2 111.5 630.2 110.7L630.2 110.7Q630.2 110.0 630.0 109.5Q629.7 108.9 629.3 108.6Q628.9 108.3 628.3 108.3L628.3 108.3Q627.7 108.3 627.3 108.6Q626.9 109.0 626.7 109.5Q626.5 110.1 626.5 110.7L626.5 110.7Q626.5 111.4 626.7 112.0Q626.9 112.5 627.3 112.9Q627.7 113.2 628.3 113.2Z M639.1 114.1L639.1 114.1Q638.2 114.1 637.5 113.7Q636.9 113.3 636.5 112.5Q636.1 111.8 636.1 110.8L636.1 110.8Q636.1 109.7 636.5 109.0Q636.9 108.2 637.5 107.8Q638.2 107.4 639.1 107.4L639.1 107.4Q640.0 107.4 640.7 107.8Q641.3 108.2 641.7 109.0Q642.1 109.7 642.1 110.8L642.1 110.8Q642.1 111.8 641.7 112.5Q641.3 113.3 640.7 113.7Q640.0 114.1 639.1 114.1ZM639.1 113.2L639.1 113.2Q639.8 113.2 640.2 112.9Q640.6 112.5 640.8 112.0Q641.0 111.4 641.0 110.8L641.0 110.8Q641.0 110.1 640.8 109.6Q640.6 109.0 640.2 108.7Q639.8 108.3 639.1 108.3L639.1 108.3Q638.4 108.3 638.0 108.7Q637.6 109.0 637.4 109.6Q637.2 110.1 637.2 110.8L637.2 110.8Q637.2 111.4 637.4 112.0Q637.6 112.5 638.0 112.9Q638.4 113.2 639.1 113.2ZM644.7 110.1L644.7 110.1L644.7 114L643.6 114L643.6 107.4L644.6 107.4L644.6 108.7Q644.9 108.0 645.4 107.7L645.4 107.7Q645.9 107.4 646.7 107.4L646.7 107.4Q647.3 107.4 647.8 107.6Q648.3 107.9 648.6 108.5Q648.9 109.0 648.9 109.8L648.9 109.8L648.9 114L647.8 114L647.8 109.9Q647.8 109.2 647.4 108.7Q647.0 108.3 646.3 108.3L646.3 108.3Q645.9 108.3 645.5 108.5Q645.1 108.7 644.9 109.1Q644.7 109.5 644.7 110.1Z M655.1 116.4L654.1 116.4L654.1 107.4L655.1 107.4L655.1 108.5L655.2 108.5Q655.3 108.3 655.5 108.1Q655.7 107.8 656.1 107.6Q656.5 107.4 657.1 107.4L657.1 107.4Q657.9 107.4 658.6 107.8Q659.2 108.2 659.6 108.9Q659.9 109.7 659.9 110.7L659.9 110.7Q659.9 111.8 659.6 112.5Q659.2 113.3 658.6 113.7Q658.0 114.1 657.1 114.1L657.1 114.1Q656.5 114.1 656.1 113.9Q655.8 113.7 655.5 113.4Q655.3 113.2 655.2 113.0L655.2 113.0L655.1 113.0L655.1 116.4ZM657.0 113.2L657.0 113.2Q657.6 113.2 658.0 112.9Q658.4 112.5 658.6 112.0Q658.8 111.4 658.8 110.7L658.8 110.7Q658.8 110.1 658.6 109.5Q658.4 109.0 658.0 108.6Q657.6 108.3 657.0 108.3L657.0 108.3Q656.4 108.3 656.0 108.6Q655.6 108.9 655.3 109.5Q655.1 110.0 655.1 110.7L655.1 110.7Q655.1 111.5 655.3 112.0Q655.6 112.6 656.0 112.9Q656.4 113.2 657.0 113.2ZM663.7 114.1L663.7 114.1Q663 114.1 662.5 113.8Q662.0 113.5 661.7 113.0Q661.4 112.4 661.4 111.6L661.4 111.6L661.4 107.4L662.5 107.4L662.5 111.5Q662.5 112.3 662.9 112.7Q663.3 113.1 664.0 113.1L664.0 113.1Q664.4 113.1 664.8 112.9Q665.2 112.7 665.4 112.3Q665.6 111.9 665.6 111.4L665.6 111.4L665.6 107.4L666.7 107.4L666.7 114L665.7 114L665.7 112.8Q665.4 113.4 664.9 113.7L664.9 113.7Q664.4 114.1 663.7 114.1ZM670.8 114.1L670.8 114.1Q670.1 114.1 669.6 113.9Q669.0 113.7 668.7 113.4Q668.4 113.0 668.2 112.4L668.2 112.4L669.2 112.2Q669.4 112.7 669.8 113.0Q670.2 113.2 670.8 113.2L670.8 113.2Q671.4 113.2 671.8 112.9Q672.3 112.6 672.3 112.2L672.3 112.2Q672.3 111.9 672.0 111.7Q671.8 111.4 671.3 111.3L671.3 111.3L670.2 111.1Q669.3 110.9 668.9 110.4Q668.4 110.0 668.4 109.3L668.4 109.3Q668.4 108.7 668.8 108.3Q669.1 107.9 669.6 107.6Q670.2 107.4 670.9 107.4L670.9 107.4Q671.5 107.4 672.0 107.6Q672.5 107.8 672.8 108.1Q673.1 108.5 673.2 108.9L673.2 108.9L672.3 109.2Q672.1 108.8 671.8 108.6Q671.5 108.3 670.9 108.3L670.9 108.3Q670.3 108.3 669.9 108.5Q669.5 108.8 669.5 109.2L669.5 109.2Q669.5 109.6 669.8 109.8Q670.0 110.0 670.6 110.2L670.6 110.2L671.6 110.4Q672.5 110.6 672.9 111.0Q673.3 111.5 673.3 112.2L673.3 112.2Q673.3 112.7 673.0 113.2Q672.7 113.6 672.1 113.9Q671.5 114.1 670.8 114.1ZM675.9 110.1L675.9 110.1L675.9 114L674.9 114L674.9 105.3L675.9 105.3L675.9 108.6Q676.2 108.0 676.6 107.7L676.6 107.7Q677.2 107.4 677.9 107.4L677.9 107.4Q678.6 107.4 679.1 107.6Q679.6 107.9 679.8 108.5Q680.1 109.0 680.1 109.8L680.1 109.8L680.1 114L679.1 114L679.1 109.9Q679.1 109.2 678.7 108.7Q678.3 108.3 677.6 108.3L677.6 108.3Q677.1 108.3 676.7 108.5Q676.4 108.7 676.1 109.1Q675.9 109.5 675.9 110.1Z "/></g></svg>